<svg width="488" height="590" viewBox="0 0 488 590" fill="none" xmlns="http://www.w3.org/2000/svg">
<mask id="mask0_317_6772" style="mask-type:alpha" maskUnits="userSpaceOnUse" x="0" y="0" width="488" height="590">
<rect x="0.5" y="0.5" width="487" height="589" rx="9.5" fill="white" stroke="#2CC8CC"/>
</mask>
<g mask="url(#mask0_317_6772)">
<path opacity="0.45" fill-rule="evenodd" clip-rule="evenodd" d="M73.423 -33.5537C59.212 -30.5516 49.0001 -19.9565 46.707 -5.83656C46.0916 -2.04732 46.3553 3.47198 47.3358 7.32463C49.8671 17.2719 58.0267 26.2489 67.9002 29.949C75.7048 32.8736 83.6378 32.8516 91.6606 29.8831L94.67 28.7698L95.89 29.7446C96.5609 30.281 100.489 33.8854 104.619 37.7546L112.128 44.7893L110.766 46.4588C108.166 49.6458 107.48 51.5093 106.837 57.1273C106.573 59.4405 106.067 61.4189 105.409 62.7092C102.261 68.8855 102.268 75.0501 105.43 81.2533C106.018 82.4085 106.496 84.1009 106.531 85.157L106.592 87.0213L93.5293 90.9055L80.467 94.7896L77.5936 91.7332C74.4556 88.3949 71.218 86.5011 67.2485 85.6813C56.5005 83.4613 45.6285 90.4031 43.4268 100.892C41.2298 111.358 47.7176 121.665 58.2119 124.381C71.0052 127.691 83.8669 116.993 82.919 103.83L82.72 101.07L95.436 97.2728C102.43 95.1842 108.19 93.5304 108.237 93.5984C108.283 93.666 108.808 94.5608 109.403 95.5867C110.638 97.7159 112.225 99.2777 115.704 101.786C117.044 102.752 118.731 104.411 119.453 105.471C120.174 106.532 121.814 108.446 123.095 109.725C125.862 112.487 128.329 113.534 134.257 114.466C140.338 115.421 139.761 114.813 139.761 120.276V125.015L136.736 125.022C129.393 125.04 122.82 127.745 117.609 132.895C107.203 143.18 107.127 159.79 117.439 169.987C122.488 174.98 127.968 177.497 134.755 177.939C147.342 178.76 158.137 171.24 161.937 159.003C162.722 156.475 162.896 155.004 162.869 151.128C162.829 145.483 161.656 141.233 159.028 137.21C156.876 133.916 152.628 130.06 149.225 128.311L146.44 126.88L146.438 122.672L146.437 118.463L150.296 118.308C153.67 118.172 154.601 117.956 157.702 116.585C160.358 115.41 162.156 114.921 164.865 114.634C171.427 113.941 175.221 111.84 178.983 106.813C180.192 105.198 181.251 103.876 181.337 103.876C181.422 103.876 185.911 107.17 191.312 111.195C198.674 116.683 201.068 118.679 200.877 119.173C199.423 122.937 199.652 128.053 201.442 131.813C203.237 135.583 205.614 137.995 209.338 139.824C212.35 141.303 212.74 141.387 216.508 141.387C220.117 141.387 220.757 141.264 223.281 140.076C227.093 138.282 229.58 135.89 231.364 132.305C235.634 123.722 232.155 114.125 223.257 109.947C220.767 108.778 220.101 108.649 216.53 108.646C213.061 108.643 212.256 108.787 210.081 109.799C208.713 110.435 206.982 111.42 206.233 111.988L204.871 113.02L195.912 106.341L186.954 99.6636L188.764 97.4556C191.032 94.6889 192.082 91.8899 192.707 86.9422C193.014 84.5091 193.562 82.3467 194.177 81.1393C197.276 75.0601 197.265 68.7242 194.145 62.7962C193.449 61.4753 193.004 59.7054 192.749 57.2554C192.544 55.2754 192.064 52.723 191.683 51.5835C191.022 49.6056 191.025 49.4866 191.765 48.9607C192.191 48.6573 194.409 47.0122 196.693 45.3049L200.847 42.2004L203.577 44.6869C207.037 47.837 212.453 50.5067 217.354 51.4778C230.428 54.0684 244.393 47.1701 250.108 35.2971C252.566 30.1944 253.044 27.957 252.997 21.808C252.963 17.4004 252.793 16.1321 251.86 13.3111C250.29 8.56105 248.096 5.08392 244.277 1.28971C240.461 -2.50119 236.964 -4.67973 232.176 -6.24856C229.293 -7.19318 228.098 -7.34695 223.414 -7.37555C218.839 -7.40373 217.501 -7.25742 214.861 -6.44047C210.349 -5.04365 206.512 -2.91194 203.381 -0.0627594C193.693 8.75752 190.597 21.8648 195.457 33.4908C196.058 34.9303 196.628 36.2944 196.722 36.5223C196.816 36.7503 194.638 38.5943 191.882 40.6208L186.87 44.3043L184.907 42.9373C181.982 40.9001 181.13 40.067 179.396 37.5436C175.943 32.52 172.425 30.4605 165.588 29.4595C159.753 28.6052 159.777 28.6152 160.023 27.2768C160.136 26.6625 160.788 22.2574 161.472 17.487C162.156 12.7171 162.761 8.78321 162.816 8.74508C162.872 8.70736 163.835 8.42883 164.957 8.12584C167.916 7.32754 171.536 4.76104 173.286 2.22231C180.581 -8.36369 174.198 -22.9055 161.749 -24.0603C156.31 -24.5651 151.476 -22.9084 148.044 -19.3638C142.295 -13.4279 141.578 -4.10567 146.372 2.37027C148.064 4.65617 151.356 7.06807 153.954 7.92523C155.982 8.59421 156.048 8.6655 155.828 9.92886C155.642 10.9916 153.531 25.453 153.529 25.6806C153.528 25.7162 151.698 25.7457 149.461 25.7457C145.648 25.7457 145.172 25.8443 141.847 27.3257C139.252 28.4817 137.394 29.0015 134.916 29.263C133.055 29.4595 130.773 29.8234 129.845 30.0717C126.932 30.8509 123.381 33.5658 120.595 37.1436C119.175 38.9674 117.826 40.46 117.598 40.46C117.37 40.46 113.446 36.9638 108.878 32.6908L100.573 24.9221L102.574 23.0258C107.167 18.6741 110.199 13.7322 111.895 7.83611C113.116 3.59011 113.199 -4.76097 112.061 -8.86314C108.695 -20.996 100.316 -29.6642 88.8156 -32.91C84.8198 -34.0382 77.2193 -34.3557 73.423 -33.5537ZM142.075 49.7673C144.145 51.8231 142.678 55.3815 139.761 55.3815C138.949 55.3815 138.093 55.0055 137.448 54.3639C136.802 53.7227 136.423 52.873 136.423 52.0656C136.423 51.2582 136.802 50.4085 137.448 49.7673C138.093 49.1256 138.949 48.7497 139.761 48.7497C140.574 48.7497 141.429 49.1256 142.075 49.7673ZM171.185 52.5476C173.361 53.6991 173.782 56.0239 172.115 57.6798C170.045 59.7361 166.463 58.2792 166.463 55.3815C166.463 53.879 168.065 52.0656 169.392 52.0656C169.877 52.0656 170.683 52.2828 171.185 52.5476ZM152.088 63.0308C154.149 65.078 152.629 68.6451 149.695 68.6451C146.803 68.6451 145.404 64.9972 147.541 63.0296C148.976 61.7086 150.758 61.709 152.088 63.0308ZM172.115 69.6626C172.761 70.3038 173.139 71.1535 173.139 71.9609C173.139 72.7684 172.761 73.6181 172.115 74.2593C170.045 76.316 166.463 74.8586 166.463 71.9601C166.463 70.3266 168.197 68.6451 169.881 68.6451C170.609 68.6451 171.498 69.05 172.115 69.6626ZM135.399 72.9785C137.469 75.0344 136.003 78.5927 133.086 78.5927C131.371 78.5927 129.748 76.9808 129.748 75.2768C129.748 73.5729 131.371 71.9609 133.086 71.9609C133.898 71.9609 134.754 72.3369 135.399 72.9785ZM152.088 82.9262C152.734 83.5674 153.112 84.4171 153.112 85.2245C153.112 86.0319 152.734 86.8816 152.088 87.5229C151.443 88.1645 150.587 88.5404 149.775 88.5404C148.962 88.5404 148.107 88.1645 147.461 87.5229C145.391 85.467 146.858 81.9086 149.775 81.9086C150.587 81.9086 151.443 82.2846 152.088 82.9262ZM168.777 92.8739C169.423 93.5151 169.801 94.3648 169.801 95.1722C169.801 95.9796 169.423 96.8293 168.777 97.4705C166.707 99.5272 163.126 98.0699 163.126 95.1714C163.126 93.5379 164.859 91.8563 166.543 91.8563C167.272 91.8563 168.161 92.2613 168.777 92.8739Z" fill="url(#paint0_linear_317_6772)"/>
<path opacity="0.35" fill-rule="evenodd" clip-rule="evenodd" d="M416.692 197.884C411.381 195.231 405.411 196.03 401.076 199.974C399.913 201.032 398.59 202.869 397.921 204.354C396.193 208.188 396.513 213.143 398.728 216.841C400.479 219.765 403.022 221.777 406.345 222.866L407.592 223.275L407.733 223.898C407.811 224.241 408.148 226.396 408.483 228.687L409.09 232.854L408.229 233.043C406.584 233.403 405.89 233.826 404.251 235.464C403.576 236.138 402.91 236.644 402.37 236.89C399.788 238.07 398.218 240.048 397.647 242.842C397.541 243.362 397.262 244.026 397.003 244.374L396.547 244.987L391.378 242.909L386.209 240.831L386.07 239.119C385.917 237.25 385.365 235.819 384.304 234.546C381.432 231.1 376.184 230.559 372.804 233.362C369.432 236.159 368.878 241.115 371.543 244.656C374.79 248.973 381.633 248.815 384.688 244.353L385.328 243.418L390.364 245.436C393.134 246.546 395.398 247.481 395.396 247.515C395.394 247.548 395.333 247.969 395.262 248.449C395.114 249.446 395.223 250.35 395.696 252.04C395.878 252.691 395.995 253.652 395.955 254.176C395.916 254.699 395.952 255.73 396.035 256.466C396.216 258.056 396.738 259.02 398.397 260.827C400.098 262.68 400.069 262.338 398.675 264.09L397.467 265.61L396.497 264.843C394.144 262.98 391.351 262.175 388.371 262.5C382.419 263.15 378.158 268.457 378.855 274.351C379.197 277.236 380.308 279.438 382.366 281.306C386.183 284.772 391.554 285.108 395.891 282.151C396.787 281.54 397.218 281.113 398.198 279.863C399.625 278.042 400.334 276.381 400.519 274.423C400.671 272.819 400.296 270.501 399.653 269.075L399.127 267.907L400.2 266.558L401.273 265.208L402.547 266.14C403.661 266.955 404.014 267.122 405.356 267.472C406.505 267.771 407.205 268.071 408.144 268.669C410.42 270.116 412.17 270.408 414.655 269.753C415.454 269.543 416.13 269.389 416.157 269.41C416.185 269.432 416.781 271.63 417.481 274.295C418.437 277.929 418.693 279.178 418.506 279.288C417.081 280.124 415.85 281.823 415.463 283.484C415.075 285.15 415.221 286.528 415.946 288.062C416.532 289.303 416.635 289.429 417.84 290.388C418.995 291.306 419.231 291.429 420.341 291.691C422.018 292.085 423.424 291.951 424.909 291.256C428.464 289.59 429.799 285.627 428.018 282.024C427.52 281.015 427.34 280.804 426.199 279.895C425.089 279.011 424.795 278.853 423.841 278.624C423.242 278.48 422.437 278.355 422.052 278.346L421.354 278.331L420.191 273.91L419.029 269.489L420.171 269.241C421.602 268.931 422.652 268.301 424.114 266.873C424.833 266.172 425.56 265.618 426.064 265.387C428.606 264.226 430.219 262.192 430.733 259.497C430.847 258.896 431.156 258.215 431.7 257.365C432.139 256.678 432.636 255.737 432.805 255.275C433.098 254.473 433.13 254.435 433.5 254.455C433.714 254.466 434.843 254.503 436.009 254.537L438.13 254.598L438.369 256.09C438.672 257.981 439.724 260.215 441.044 261.773C444.565 265.93 450.792 267.272 455.648 264.919C457.736 263.908 458.46 263.312 460.013 261.329C461.126 259.907 461.395 259.457 461.817 258.315C462.526 256.392 462.711 254.719 462.457 252.53C462.203 250.344 461.64 248.755 460.509 247.034C459.828 245.998 459.485 245.645 457.994 244.443C456.538 243.27 456.072 242.977 455.019 242.567C453.22 241.867 451.449 241.574 449.72 241.691C444.372 242.054 440.038 245.469 438.627 250.434C438.452 251.048 438.287 251.631 438.259 251.728C438.231 251.825 437.064 251.862 435.665 251.81L433.122 251.716L432.843 250.779C432.427 249.381 432.367 248.897 432.456 247.647C432.633 245.157 432.033 243.602 430.101 241.541C428.452 239.782 428.458 239.792 428.878 239.425C429.07 239.257 430.403 238.01 431.838 236.655C433.274 235.299 434.47 234.192 434.498 234.194C434.525 234.196 434.905 234.351 435.341 234.54C436.491 235.037 438.304 235.135 439.511 234.766C444.545 233.228 446.212 226.941 442.524 223.403C440.913 221.857 438.944 221.158 436.942 221.421C433.589 221.862 430.982 224.669 430.864 227.965C430.822 229.129 431.26 230.74 431.872 231.676C432.35 232.406 432.353 232.446 431.961 232.795C431.63 233.088 427.266 237.189 427.207 237.261C427.198 237.272 426.605 236.816 425.89 236.247C424.67 235.276 424.493 235.187 423.051 234.816C421.926 234.526 421.199 234.22 420.34 233.674C419.695 233.263 418.872 232.799 418.512 232.643C417.381 232.151 415.552 232.118 413.749 232.557C412.829 232.78 412.017 232.915 411.944 232.857C411.871 232.799 411.508 230.68 411.137 228.147L410.462 223.543L411.585 223.444C414.164 223.217 416.395 222.404 418.441 220.945C419.915 219.894 422.072 217.238 422.754 215.633C424.772 210.886 424.302 205.974 421.452 202.007C420.461 200.629 418.111 198.593 416.692 197.884ZM417.4 242.07C417.538 243.256 416.161 244.024 415.228 243.281C414.968 243.075 414.79 242.736 414.747 242.367C414.704 241.997 414.8 241.628 415.006 241.369C415.212 241.11 415.55 240.934 415.92 240.893C416.29 240.851 416.659 240.948 416.919 241.155C417.179 241.362 417.357 241.7 417.4 242.07ZM426.002 250.368C426.405 251.291 425.946 252.144 424.991 252.251C423.804 252.384 423.03 251.005 423.769 250.076C424.153 249.594 425.127 249.42 425.552 249.758C425.707 249.881 425.909 250.156 426.002 250.368ZM417.22 248.871C417.357 250.052 415.961 250.809 415.022 250.062C414.097 249.326 414.58 247.801 415.766 247.713C416.561 247.655 417.131 248.109 417.22 248.871ZM421.934 256.093C421.977 256.463 421.882 256.832 421.676 257.091C421.47 257.35 421.132 257.526 420.762 257.567C419.575 257.7 418.801 256.321 419.541 255.392C419.957 254.868 420.941 254.77 421.479 255.198C421.712 255.384 421.893 255.74 421.934 256.093ZM409.344 247.814C409.482 249 408.105 249.768 407.172 249.026C406.623 248.589 406.515 247.66 406.95 247.113C407.385 246.567 408.315 246.463 408.864 246.899C409.124 247.106 409.301 247.444 409.344 247.814ZM412.145 255.25C412.188 255.62 412.093 255.989 411.887 256.248C411.681 256.507 411.343 256.683 410.973 256.724C410.603 256.766 410.233 256.669 409.973 256.462C409.713 256.255 409.535 255.917 409.493 255.547C409.355 254.361 410.732 253.593 411.665 254.335C411.925 254.542 412.102 254.88 412.145 255.25ZM414.946 262.687C414.989 263.057 414.894 263.425 414.688 263.684C414.482 263.943 414.144 264.119 413.774 264.161C412.587 264.293 411.813 262.915 412.552 261.985C412.969 261.462 413.953 261.363 414.491 261.792C414.724 261.977 414.905 262.333 414.946 262.687Z" fill="url(#paint1_linear_317_6772)"/>
<path opacity="0.45" fill-rule="evenodd" clip-rule="evenodd" d="M126.713 333.312C107.639 323.784 86.205 326.653 70.6382 340.816C66.4607 344.617 61.7083 351.213 59.3058 356.545C53.1024 370.312 54.2527 388.104 62.2051 401.386C68.4911 411.884 77.6237 419.108 89.5581 423.02L94.0346 424.488L94.543 426.725C94.8224 427.956 96.0331 435.695 97.2333 443.924L99.4155 458.885L96.322 459.563C90.4163 460.857 87.9216 462.376 82.0374 468.258C79.6148 470.679 77.2214 472.495 75.2843 473.38C66.0109 477.615 60.3722 484.719 58.3227 494.751C57.9409 496.619 56.9391 499.004 56.012 500.252L54.3748 502.455L35.8125 494.992L17.2506 487.529L16.7495 481.384C16.2027 474.673 14.2183 469.534 10.4097 464.963C0.0971867 452.587 -18.7492 450.646 -30.885 460.711C-42.995 470.755 -44.9832 488.551 -35.4161 501.267C-23.7532 516.768 0.819058 516.202 11.7868 500.179L14.0859 496.82L32.1706 504.066C42.1172 508.051 50.2485 511.41 50.2399 511.531C50.2312 511.651 50.0145 513.161 49.7583 514.886C49.2266 518.466 49.6192 521.714 51.3176 527.781C51.972 530.118 52.3906 533.569 52.2482 535.45C52.1062 537.33 52.2356 541.033 52.5363 543.677C53.1855 549.384 55.0595 552.845 61.0156 559.334C67.1251 565.99 67.0201 564.762 62.0157 571.054L57.6753 576.51L54.1942 573.754C45.7427 567.065 35.7147 564.174 25.0124 565.343C3.6395 567.678 -11.6615 586.733 -9.15636 607.897C-7.92978 618.259 -3.93993 626.165 3.44994 632.875C17.1566 645.321 36.4445 646.525 52.0172 635.908C55.2341 633.714 56.7813 632.179 60.3005 627.691C65.4249 621.155 67.9705 615.189 68.6366 608.156C69.1819 602.396 67.835 594.075 65.5271 588.952L63.6382 584.76L67.4912 579.913L71.3442 575.066L75.9196 578.413C79.9194 581.34 81.1876 581.941 86.0047 583.195C90.132 584.27 92.6446 585.349 96.0187 587.494C104.191 592.692 110.474 593.738 119.399 591.389C122.267 590.633 124.695 590.079 124.793 590.157C124.891 590.236 127.031 598.129 129.547 607.699C132.978 620.745 133.899 625.231 133.227 625.626C128.11 628.631 123.688 634.73 122.299 640.696C120.907 646.677 121.429 651.626 124.032 657.135C126.137 661.589 126.507 662.043 130.836 665.486C134.981 668.784 135.83 669.226 139.817 670.164C145.839 671.581 150.886 671.1 156.219 668.602C168.986 662.621 173.779 648.391 167.385 635.45C165.596 631.829 164.949 631.072 160.85 627.806C156.867 624.633 155.811 624.064 152.385 623.241C150.232 622.724 147.342 622.276 145.961 622.245L143.452 622.189L139.278 606.314L135.104 590.439L139.205 589.55C144.345 588.437 148.115 586.174 153.364 581.047C155.946 578.527 158.555 576.538 160.368 575.71C169.496 571.541 175.286 564.235 177.132 554.559C177.543 552.402 178.652 549.957 180.604 546.903C182.181 544.436 183.968 541.058 184.574 539.398C185.626 536.516 185.739 536.383 187.071 536.453C187.838 536.493 191.892 536.625 196.08 536.747L203.694 536.967L204.553 542.325C205.643 549.114 209.417 557.136 214.158 562.732C226.803 577.661 249.162 582.478 266.602 574.029C274.098 570.399 276.698 568.26 282.275 561.136C286.273 556.03 287.24 554.414 288.752 550.314C291.299 543.409 291.964 537.401 291.052 529.543C290.141 521.691 288.119 515.987 284.057 509.806C281.611 506.085 280.379 504.816 275.025 500.503C269.795 496.29 268.124 495.236 264.344 493.765C257.881 491.25 251.521 490.198 245.316 490.619C226.108 491.922 210.546 504.186 205.48 522.013C204.853 524.221 204.258 526.312 204.157 526.66C204.057 527.009 199.865 527.142 194.843 526.957L185.713 526.619L184.71 523.251C183.216 518.233 183.001 516.496 183.32 512.005C183.955 503.066 181.8 497.48 174.864 490.08C168.944 483.765 168.963 483.799 170.471 482.482C171.163 481.878 175.946 477.401 181.101 472.534C186.256 467.666 190.554 463.689 190.653 463.696C190.751 463.703 192.113 464.263 193.679 464.939C197.809 466.723 204.318 467.076 208.654 465.752C226.729 460.228 232.717 437.652 219.475 424.947C213.689 419.396 206.619 416.887 199.43 417.832C187.39 419.415 178.028 429.494 177.603 441.331C177.453 445.509 179.025 451.294 181.224 454.654C182.94 457.277 182.952 457.421 181.541 458.674C180.354 459.728 164.684 474.451 164.473 474.71C164.44 474.751 162.31 473.113 159.741 471.068C155.361 467.585 154.724 467.264 149.548 465.931C145.508 464.891 142.897 463.791 139.812 461.829C137.495 460.355 134.54 458.689 133.246 458.127C129.187 456.362 122.621 456.243 116.144 457.818C112.842 458.62 109.925 459.106 109.663 458.898C109.402 458.689 108.097 451.078 106.763 441.985L104.34 425.451L108.375 425.096C117.636 424.281 125.645 421.362 132.994 416.122C138.285 412.349 146.03 402.809 148.48 397.046C155.726 379.999 154.041 362.363 143.804 348.117C140.248 343.167 131.808 335.857 126.713 333.312ZM129.254 491.979C129.749 496.238 124.805 498.995 121.455 496.33C120.521 495.587 119.883 494.373 119.729 493.045C119.575 491.716 119.918 490.392 120.658 489.462C121.397 488.533 122.61 487.9 123.94 487.752C125.269 487.603 126.595 487.951 127.529 488.694C128.463 489.437 129.101 490.651 129.254 491.979ZM160.145 521.779C161.59 525.093 159.945 528.155 156.513 528.538C152.252 529.015 149.473 524.065 152.127 520.728C153.503 518.998 157.004 518.374 158.528 519.586C159.084 520.029 159.812 521.016 160.145 521.779ZM128.608 516.401C129.1 520.642 124.087 523.36 120.717 520.679C117.395 518.036 119.129 512.558 123.386 512.245C126.244 512.035 128.291 513.664 128.608 516.401ZM145.537 542.336C145.692 543.664 145.348 544.988 144.609 545.918C143.869 546.848 142.656 547.48 141.327 547.629C137.066 548.106 134.287 543.155 136.942 539.818C138.438 537.937 141.969 537.584 143.904 539.123C144.74 539.789 145.391 541.067 145.537 542.336ZM100.327 512.607C100.821 516.865 95.8774 519.622 92.527 516.957C90.5568 515.39 90.1694 512.051 91.7301 510.089C93.2908 508.127 96.631 507.754 98.6012 509.321C99.5348 510.064 100.173 511.278 100.327 512.607ZM110.385 539.31C110.54 540.638 110.196 541.962 109.457 542.892C108.717 543.822 107.504 544.454 106.175 544.603C104.846 544.752 103.519 544.403 102.585 543.66C101.652 542.918 101.014 541.703 100.86 540.375C100.366 536.116 105.309 533.359 108.66 536.024C109.593 536.767 110.231 537.981 110.385 539.31ZM120.444 566.013C120.598 567.341 120.255 568.665 119.515 569.595C118.776 570.525 117.563 571.157 116.233 571.306C111.972 571.783 109.193 566.832 111.848 563.495C113.344 561.614 116.876 561.261 118.81 562.8C119.647 563.466 120.297 564.744 120.444 566.013Z" fill="url(#paint2_linear_317_6772)"/>
</g>
<defs>
<linearGradient id="paint0_linear_317_6772" x1="189" y1="126" x2="76.7211" y2="-26.5308" gradientUnits="userSpaceOnUse">
<stop stop-color="#E8EEF0"/>
<stop offset="1" stop-color="#E8EEF0" stop-opacity="0"/>
</linearGradient>
<linearGradient id="paint1_linear_317_6772" x1="353" y1="242" x2="509" y2="276" gradientUnits="userSpaceOnUse">
<stop stop-color="#E8EEF0"/>
<stop offset="1" stop-color="#E8EEF0" stop-opacity="0"/>
</linearGradient>
<linearGradient id="paint2_linear_317_6772" x1="173.057" y1="425.235" x2="19.8809" y2="759.586" gradientUnits="userSpaceOnUse">
<stop stop-color="#E8EEF0"/>
<stop offset="1" stop-color="#E8EEF0" stop-opacity="0"/>
</linearGradient>
</defs>
</svg>
