<svg width="387" height="590" viewBox="0 0 387 590" fill="none" xmlns="http://www.w3.org/2000/svg">
<mask id="mask0_317_6753" style="mask-type:alpha" maskUnits="userSpaceOnUse" x="0" y="0" width="387" height="590">
<rect x="0.5" y="0.5" width="386" height="589" rx="9.5" fill="white" stroke="black"/>
</mask>
<g mask="url(#mask0_317_6753)">
<path opacity="0.45" fill-rule="evenodd" clip-rule="evenodd" d="M384.127 -54.7777C379.629 -55.6608 374.731 -54.4801 371.145 -51.6487C369.433 -50.2974 368.722 -49.3209 367.266 -46.3207C365.729 -43.1529 365.495 -42.253 365.566 -39.7873C365.644 -37.0669 367.094 -31.9952 367.907 -31.6022C368.116 -31.5011 366.886 -28.5216 365.173 -24.9812L362.059 -18.5441L359.426 -19.4497C346.366 -23.9407 332.412 -24.6263 315.889 -21.5896C314.843 -21.3977 314.59 -21.8595 312.544 -27.697L310.33 -34.0126L312.075 -37.552C314.229 -41.9233 314.469 -45.56 312.888 -49.8976C310.997 -55.0828 305.778 -59.1042 300.004 -59.8231C296.591 -60.2477 290.373 -58.0873 287.961 -55.639C283.881 -51.4961 282.288 -45.1077 284.029 -39.8708C285.486 -35.4898 287.934 -32.7871 292.34 -30.6952L295.908 -29.0017L298.108 -22.649L300.308 -16.2964L298.791 -15.552C285.969 -9.25798 273.768 1.4631 266.468 12.8489L264.966 15.1911L258.524 12.0745C254.98 10.3603 252.164 8.7866 252.265 8.57772C252.658 7.76601 250.642 2.89062 249.012 0.709375C247.535 -1.26773 246.792 -1.82794 243.618 -3.35902C239.276 -5.45348 236.192 -5.68561 232.011 -4.23275C227.84 -2.78345 225.558 -0.686256 223.444 3.64305C221.801 7.00729 221.664 7.59783 221.804 10.7483C222.042 16.0994 224.576 20.4668 229.05 23.2389C233.298 25.8707 239.922 26.1729 243.848 23.9149L245.6 22.907L251.936 25.9683L258.272 29.0295L257.368 31.6606C252.883 44.7103 252.206 58.6571 255.256 75.1728C255.449 76.2185 254.987 76.4711 249.147 78.5122L242.83 80.7206L239.287 78.9744C234.912 76.8184 231.274 76.5764 226.935 78.1537C221.748 80.0393 217.728 85.2535 217.013 91.0242C216.59 94.4347 218.756 100.651 221.207 103.063C225.355 107.144 231.748 108.74 236.986 107.003C241.369 105.551 244.071 103.105 246.161 98.7029L247.853 95.138L254.179 92.9534C260.026 90.9341 260.545 90.8459 261.044 91.7852C268.876 106.544 278.159 117.153 289.747 124.59L292.09 126.093L288.977 132.53C287.264 136.071 285.691 138.885 285.482 138.783C284.67 138.39 279.793 140.401 277.612 142.029C275.638 143.502 275.071 144.251 273.541 147.415C272.024 150.55 271.774 151.498 271.843 153.855C271.961 157.934 272.616 159.926 274.862 163.031C276.703 165.578 277.197 165.975 280.557 167.6C283.917 169.225 284.535 169.367 287.674 169.229C291.504 169.062 293.471 168.34 296.743 165.901C298.633 164.492 299.222 163.706 300.739 160.573C302.199 157.558 302.505 156.459 302.445 154.46C302.345 151.15 301.614 148.036 300.613 146.661L299.784 145.521L302.862 139.157L305.941 132.794L308.574 133.699C321.374 138.101 337.605 138.943 351.57 135.93L353.222 135.573L355.446 141.917L357.67 148.262L355.925 151.801C353.771 156.173 353.531 159.809 355.112 164.147C356.588 168.196 359.216 170.867 363.541 172.714C367.518 174.412 370.592 174.54 374.475 173.169C378.376 171.792 380.637 169.835 382.687 166.062C384.93 161.933 385.331 158.209 383.971 154.12C382.514 149.739 380.066 147.037 375.66 144.945L372.092 143.251L369.893 136.901L367.693 130.551L369.429 129.643C383.473 122.298 394.165 112.891 401.532 101.4L403.034 99.0584L409.476 102.175C413.02 103.889 415.836 105.463 415.735 105.672C415.342 106.483 417.358 111.359 418.987 113.54C420.462 115.514 421.212 116.081 424.379 117.613C427.517 119.131 428.466 119.381 430.824 119.314C434.905 119.198 436.897 118.545 440.003 116.303C442.557 114.459 442.941 113.979 444.561 110.609C446.063 107.481 446.317 106.513 446.249 104.164C446.131 100.085 445.476 98.0937 443.23 94.9879C441.383 92.4344 440.903 92.0501 437.53 90.4289C434.37 88.9103 433.439 88.6701 430.985 88.739C428.263 88.8151 423.19 90.2613 422.797 91.073C422.696 91.2819 419.714 90.0507 416.171 88.3365L409.728 85.2199L410.632 82.5889C415.117 69.5391 415.794 55.5923 412.744 39.0767C412.551 38.0309 413.013 37.7783 418.852 35.7372L425.17 33.5289L428.712 35.2751C433.087 37.431 436.726 37.673 441.065 36.0957C445.115 34.6236 447.786 31.9986 449.631 27.6773C451.317 23.7278 451.448 20.7402 450.106 16.8262C448.77 12.9313 446.762 10.6004 442.962 8.53664C438.83 6.29208 435.104 5.88955 431.014 7.24607C426.631 8.69892 423.929 11.1442 421.839 15.5465L420.147 19.1114L413.792 21.3061L407.438 23.5003L406.692 21.9836C400.473 9.34031 390.609 -2.05593 379.386 -9.56099L375.925 -11.8756L378.984 -18.1864L382.044 -24.4966L383.937 -24.7317C388.304 -25.2745 393.529 -29.8102 395.236 -34.5414C396.369 -37.6799 396.346 -42.8248 395.187 -45.4115C393.204 -49.8393 388.351 -53.9489 384.127 -54.7777ZM383.167 43.1354C386.356 46.0328 387.527 52.4694 385.592 56.4674C383 61.8259 375.547 64.4156 370.184 61.8212C364.821 59.2268 362.225 51.7758 364.817 46.4173C366.132 43.6993 368.183 41.9854 371.51 40.8256C376.017 39.2542 379.699 39.9839 383.167 43.1354ZM327.999 20.9126C330.843 23.5043 332.513 28.4647 331.855 32.3629C330.031 43.1542 317.514 47.5032 309.376 40.1731C306.436 37.5252 304.663 32.6007 305.282 28.8056C306.191 23.2341 309.107 19.6772 314.225 17.8991C319.32 16.1288 323.832 17.1159 327.999 20.9126ZM341.56 75.7821C343.732 78.7565 344.389 80.7716 344.507 84.8305C344.575 87.1794 344.321 88.1475 342.818 91.2751C341.199 94.6455 340.814 95.1251 338.261 96.9689C335.155 99.2116 333.163 99.8649 329.082 99.9805C326.723 100.047 325.775 99.797 322.637 98.2792C319.5 96.7614 318.714 96.173 317.303 94.2825C314.86 91.0111 314.136 89.0437 313.966 85.2165C313.827 82.066 313.963 81.4755 315.606 78.1112C317.721 73.7815 320.003 71.6837 324.172 70.2368C330.58 68.0133 337.496 70.2185 341.56 75.7821Z" fill="url(#paint0_linear_317_6753)"/>
<path opacity="0.45" fill-rule="evenodd" clip-rule="evenodd" d="M91.96 94.4039C90.8054 94.1773 89.5484 94.4803 88.6278 95.2071C88.1884 95.5539 88.006 95.8045 87.6322 96.5746C87.2378 97.3877 87.1776 97.6187 87.1958 98.2515C87.2159 98.9498 87.5881 100.252 87.7967 100.352C87.8503 100.378 87.5347 101.143 87.0951 102.052L86.2958 103.704L85.62 103.472C82.2679 102.319 78.6861 102.143 74.4453 102.922C74.1768 102.972 74.1118 102.853 73.5867 101.355L73.0185 99.7337L73.4663 98.8253C74.0192 97.7033 74.0807 96.7699 73.6749 95.6565C73.1898 94.3256 71.85 93.2935 70.3679 93.1089C69.492 92.9999 67.896 93.5545 67.277 94.1829C66.2297 95.2462 65.8209 96.886 66.2678 98.2301C66.6417 99.3546 67.2701 100.048 68.401 100.585L69.3168 101.02L69.8815 102.65L70.4461 104.281L70.0567 104.472C66.7658 106.088 63.6339 108.839 61.7603 111.762L61.3749 112.363L59.7213 111.563C58.8117 111.123 58.0889 110.719 58.1148 110.665C58.2156 110.457 57.6983 109.206 57.28 108.646C56.9009 108.138 56.7101 107.995 55.8955 107.602C54.7808 107.064 53.9894 107.004 52.9162 107.377C51.8455 107.749 51.26 108.288 50.7173 109.399C50.2955 110.262 50.2606 110.414 50.2964 111.223C50.3574 112.596 51.0078 113.717 52.1564 114.429C53.2467 115.104 54.9468 115.182 55.9544 114.602L56.4042 114.343L58.0304 115.129L59.6566 115.915L59.4245 116.59C58.2735 119.94 58.0998 123.519 58.8825 127.758C58.932 128.027 58.8134 128.092 57.3147 128.616L55.6931 129.182L54.7839 128.734C53.6609 128.181 52.727 128.119 51.6133 128.524C50.282 129.008 49.2502 130.346 49.0666 131.827C48.9581 132.702 49.514 134.298 50.1432 134.917C51.2078 135.964 52.8487 136.374 54.1933 135.928C55.3181 135.556 56.0117 134.928 56.5482 133.798L56.9825 132.883L58.6061 132.322C60.1068 131.804 60.2401 131.781 60.3681 132.022C62.3784 135.81 64.761 138.533 67.7353 140.442L68.3369 140.828L67.5376 142.48C67.098 143.389 66.6944 144.111 66.6407 144.085C66.4322 143.985 65.1805 144.501 64.6206 144.918C64.114 145.296 63.9685 145.489 63.5757 146.301C63.1864 147.106 63.1223 147.349 63.1399 147.954C63.1703 149.001 63.3384 149.512 63.9148 150.309C64.3874 150.963 64.5142 151.065 65.3767 151.482C66.2391 151.899 66.3976 151.935 67.2034 151.9C68.1862 151.857 68.6914 151.672 69.531 151.046C70.0161 150.684 70.1674 150.482 70.5567 149.678C70.9314 148.904 71.01 148.622 70.9945 148.109C70.9689 147.26 70.7812 146.46 70.5245 146.107L70.3115 145.815L71.1017 144.181L71.8918 142.548L72.5677 142.78C75.8532 143.91 80.0192 144.126 83.6035 143.353L84.0275 143.262L84.5984 144.89L85.1692 146.518L84.7214 147.427C84.1685 148.549 84.1069 149.482 84.5128 150.596C84.8915 151.635 85.5661 152.32 86.6762 152.794C87.6968 153.23 88.4859 153.263 89.4825 152.911C90.4839 152.558 91.0643 152.055 91.5905 151.087C92.1662 150.027 92.2689 149.072 91.9198 148.022C91.546 146.897 90.9175 146.204 89.7866 145.667L88.8708 145.232L88.3065 143.602L87.7419 141.972L88.1875 141.739C91.7921 139.854 94.5365 137.44 96.4274 134.49L96.8128 133.889L98.4664 134.689C99.3759 135.129 100.099 135.533 100.073 135.587C99.972 135.795 100.489 137.046 100.908 137.606C101.286 138.113 101.479 138.258 102.292 138.652C103.097 139.041 103.34 139.105 103.946 139.088C104.993 139.059 105.505 138.891 106.302 138.315C106.957 137.842 107.056 137.719 107.472 136.854C107.857 136.051 107.922 135.803 107.905 135.2C107.874 134.153 107.706 133.642 107.13 132.844C106.656 132.189 106.533 132.09 105.667 131.674C104.856 131.284 104.617 131.223 103.987 131.24C103.288 131.26 101.986 131.631 101.885 131.84C101.86 131.893 101.094 131.577 100.185 131.137L98.531 130.337L98.7631 129.662C99.9142 126.312 100.088 122.733 99.3051 118.494C99.2557 118.225 99.3742 118.16 100.873 117.636L102.495 117.07L103.404 117.518C104.527 118.071 105.461 118.133 106.574 117.728C107.614 117.351 108.299 116.677 108.773 115.568C109.206 114.554 109.239 113.787 108.895 112.783C108.552 111.783 108.036 111.185 107.061 110.655C106.001 110.079 105.044 109.975 103.994 110.324C102.87 110.697 102.176 111.324 101.639 112.454L101.205 113.369L99.5741 113.932L97.9431 114.496L97.7517 114.106C96.1556 110.861 93.6236 107.936 90.743 106.01L89.8547 105.416L90.6399 103.796L91.4252 102.176L91.9112 102.116C93.0321 101.977 94.3733 100.812 94.8114 99.598C95.1022 98.7924 95.0962 97.4719 94.7989 96.808C94.2898 95.6715 93.0442 94.6167 91.96 94.4039ZM91.7136 119.535C92.532 120.279 92.8325 121.931 92.3361 122.957C91.6708 124.333 89.7578 124.997 88.3812 124.331C87.0046 123.666 86.3383 121.753 87.0037 120.378C87.3411 119.68 87.8676 119.24 88.7215 118.943C89.8783 118.539 90.8235 118.726 91.7136 119.535ZM77.5535 113.831C78.2836 114.497 78.7123 115.77 78.5432 116.77C78.075 119.54 74.8623 120.656 72.7736 118.775C72.0191 118.095 71.5638 116.831 71.7228 115.857C71.956 114.427 72.7046 113.514 74.0181 113.058C75.3258 112.604 76.4841 112.857 77.5535 113.831ZM81.0342 127.915C81.5919 128.678 81.7603 129.195 81.7906 130.237C81.8081 130.84 81.743 131.089 81.3572 131.891C80.9415 132.757 80.8429 132.88 80.1875 133.353C79.3902 133.928 78.8789 134.096 77.8315 134.126C77.2262 134.143 76.9826 134.079 76.1773 133.689C75.372 133.3 75.1705 133.149 74.8082 132.663C74.1813 131.824 73.9953 131.319 73.9518 130.336C73.916 129.528 73.9509 129.376 74.3727 128.513C74.9154 127.401 75.5012 126.863 76.5714 126.491C78.216 125.921 79.9912 126.487 81.0342 127.915Z" fill="white"/>
<path opacity="0.45" fill-rule="evenodd" clip-rule="evenodd" d="M221.931 433.454C218.733 431.859 214.807 431.731 211.525 433.116C209.958 433.777 209.222 434.363 207.506 436.317C205.695 438.379 205.332 439.007 204.874 440.875C204.369 442.935 204.408 447.048 204.937 447.511C205.074 447.631 203.532 449.615 201.511 451.921L197.837 456.114L196.045 454.888C187.161 448.806 176.815 445.399 163.768 444.258C162.942 444.185 162.847 443.786 162.519 438.974L162.164 433.769L164.209 431.47C166.733 428.631 167.667 425.948 167.378 422.36C167.031 418.071 163.942 413.967 159.751 412.231C157.274 411.204 152.153 411.54 149.833 412.88C145.908 415.148 143.387 419.619 143.611 423.916C143.798 427.511 145.078 430.049 147.956 432.534L150.286 434.547L150.624 439.777L150.96 445.007L149.666 445.252C138.725 447.326 127.333 452.855 119.487 459.9L117.874 461.349L113.677 457.672C111.369 455.649 109.579 453.883 109.698 453.747C110.161 453.218 109.657 449.136 108.884 447.159C108.184 445.367 107.741 444.792 105.673 442.984C102.843 440.51 100.574 439.696 97.13 439.922C93.6947 440.147 91.5455 441.25 89.0595 444.066C87.1272 446.254 86.9025 446.669 86.3547 449.066C85.4243 453.137 86.4238 456.945 89.2126 459.955C91.8599 462.814 96.7754 464.413 100.194 463.53L101.72 463.135L105.847 466.749L109.975 470.363L108.75 472.153C102.675 481.031 99.2768 491.373 98.1464 504.418C98.0746 505.244 97.6751 505.338 92.8635 505.662L87.6578 506.013L85.3572 503.966C82.5158 501.439 79.8311 500.503 76.2432 500.79C71.9543 501.132 67.8525 504.218 66.119 508.407C65.0948 510.882 65.4344 516.003 66.7769 518.324C69.0487 522.25 73.5227 524.775 77.8197 524.555C81.4144 524.371 83.9522 523.093 86.4353 520.218L88.4456 517.889L93.6526 517.558C98.4654 517.252 98.8738 517.293 99.0542 518.103C101.882 530.818 106.661 540.715 113.829 548.705L115.279 550.321L111.605 554.514C109.584 556.82 107.819 558.609 107.683 558.489C107.153 558.026 103.072 558.527 101.095 559.298C99.3062 559.995 98.725 560.441 96.9189 562.502C95.1296 564.544 94.7454 565.205 94.3084 566.991C93.5522 570.081 93.6318 571.713 94.6762 574.513C95.5324 576.808 95.8215 577.209 98.01 579.127C100.198 581.045 100.633 581.279 103.021 581.826C105.934 582.494 107.563 582.359 110.527 581.204C112.239 580.536 112.845 580.068 114.634 578.027C116.356 576.063 116.814 575.301 117.183 573.787C117.794 571.278 117.889 568.786 117.422 567.546L117.035 566.517L120.668 562.372L124.3 558.227L126.091 559.453C134.8 565.414 146.824 569.41 157.944 570.039L159.259 570.114L159.616 575.342L159.973 580.572L157.928 582.87C155.403 585.709 154.47 588.393 154.759 591.981C155.029 595.329 156.451 597.882 159.319 600.166C161.956 602.266 164.24 602.999 167.442 602.774C170.66 602.547 172.765 601.544 175.087 599.133C177.629 596.495 178.701 593.78 178.526 590.424C178.339 586.83 177.059 584.291 174.181 581.806L171.85 579.794L171.514 574.566L171.176 569.338L172.669 569.015C184.746 566.404 194.731 561.55 202.649 554.441L204.263 552.992L208.459 556.669C210.767 558.691 212.558 560.458 212.439 560.594C211.975 561.123 212.48 565.204 213.253 567.181C213.952 568.971 214.399 569.552 216.461 571.36C218.505 573.151 219.166 573.535 220.952 573.974C224.044 574.733 225.676 574.654 228.475 573.612C230.776 572.756 231.165 572.475 233.08 570.277C234.858 568.238 235.249 567.563 235.685 565.784C236.441 562.694 236.361 561.061 235.317 558.261C234.458 555.96 234.177 555.571 231.978 553.654C229.917 551.858 229.268 551.484 227.409 551.028C225.348 550.521 221.235 550.557 220.772 551.085C220.652 551.221 218.666 549.678 216.358 547.655L212.162 543.978L213.387 542.188C219.461 533.309 222.86 522.968 223.99 509.923C224.062 509.097 224.462 509.003 229.273 508.679L234.479 508.328L236.78 510.375C239.621 512.902 242.306 513.837 245.894 513.551C249.243 513.284 251.794 511.865 254.076 508.999C256.161 506.38 256.879 504.162 256.681 500.942C256.485 497.738 255.458 495.57 253.03 493.231C250.389 490.688 247.673 489.614 244.317 489.785C240.722 489.969 238.185 491.247 235.701 494.123L233.691 496.451L228.46 496.784L223.23 497.116L222.984 495.822C220.93 485.031 215.877 474.422 208.997 466.456L206.876 463.999L210.483 459.89L214.09 455.781L215.562 455.997C218.957 456.494 223.824 454.168 226.087 450.965C227.589 448.841 228.637 444.97 228.303 442.786C227.729 439.047 224.934 434.952 221.931 433.454ZM200.92 506.845C202.716 509.683 202.262 514.763 199.98 517.367C196.922 520.857 190.783 521.259 187.29 518.198C183.797 515.137 183.39 508.999 186.448 505.509C188 503.738 189.897 502.875 192.637 502.693C196.35 502.446 198.967 503.757 200.92 506.845ZM164.062 478.711C165.662 481.248 165.89 485.322 164.587 488.115C160.98 495.848 150.672 496.523 146.074 489.327C144.414 486.728 144.101 482.66 145.353 479.936C147.19 475.936 150.119 473.867 154.334 473.592C158.53 473.317 161.717 474.994 164.062 478.711ZM162.884 522.759C163.901 525.445 163.976 527.095 163.224 530.17C162.788 531.95 162.397 532.625 160.62 534.664C158.704 536.862 158.316 537.143 156.014 537.999C153.215 539.041 151.583 539.119 148.492 538.361C146.705 537.922 146.044 537.537 144.001 535.746C141.957 533.956 141.489 533.351 140.82 531.637C139.662 528.672 139.525 527.044 140.191 524.132C140.738 521.735 140.963 521.32 142.895 519.132C145.382 516.316 147.532 515.212 150.965 514.989C156.242 514.645 160.983 517.736 162.884 522.759Z" fill="url(#paint1_linear_317_6753)"/>
</g>
<defs>
<linearGradient id="paint0_linear_317_6753" x1="427" y1="-39" x2="268" y2="150" gradientUnits="userSpaceOnUse">
<stop stop-color="#F2F8FA" stop-opacity="0"/>
<stop offset="0.984375" stop-color="#F2F8FA"/>
</linearGradient>
<linearGradient id="paint1_linear_317_6753" x1="224.224" y1="435.106" x2="100" y2="594" gradientUnits="userSpaceOnUse">
<stop stop-color="#F2F8FA"/>
<stop offset="1" stop-color="#F2F8FA" stop-opacity="0"/>
</linearGradient>
</defs>
</svg>
