<svg width="285" height="285" viewBox="0 0 285 285" fill="none" xmlns="http://www.w3.org/2000/svg">
<mask id="mask0_317_6788" style="mask-type:alpha" maskUnits="userSpaceOnUse" x="0" y="0" width="285" height="285">
<rect width="285" height="285" rx="10" fill="white"/>
</mask>
<g mask="url(#mask0_317_6788)">
<path opacity="0.35" fill-rule="evenodd" clip-rule="evenodd" d="M163.753 -36.3014C163.41 -35.017 163.663 -33.5348 164.406 -32.4765C164.743 -31.9968 166.837 -30.136 169.06 -28.3415C171.283 -26.5467 173.066 -25.0351 173.023 -24.9819C172.456 -24.2796 170.448 -20.0186 169.653 -17.8324C169.087 -16.2742 168.498 -15.0599 168.337 -15.1181C168.176 -15.1759 165.725 -15.5753 162.889 -16.0055C157.042 -16.8924 155.936 -16.755 154.487 -14.9608C153.405 -13.6205 153.166 -11.8865 153.849 -10.3283C154.655 -8.48916 155.907 -7.94234 161.195 -7.11911C163.802 -6.71336 166.246 -6.31892 166.627 -6.24238C167.245 -6.11838 167.325 -5.79366 167.377 -3.21095C167.408 -1.61992 167.671 0.793233 167.961 2.15153C168.324 3.85559 168.353 4.69987 168.055 4.87326C167.818 5.01158 165.613 5.8883 163.155 6.82153C157.733 8.88018 156.982 9.36458 156.39 11.1841C155.494 13.9374 156.823 16.3358 159.584 16.9495C161.03 17.2706 161.472 17.1622 166.215 15.3249C169.01 14.2423 171.41 13.3444 171.547 13.3295C171.685 13.3148 172.183 13.9806 172.653 14.8087C174.219 17.5703 177.226 21.1878 180.364 24.086C182.044 25.6377 183.431 27.0203 183.445 27.159C183.46 27.2974 181.34 27.6524 178.734 27.9477C176.128 28.2432 173.649 28.6877 173.225 28.9354C169.738 30.97 170.271 35.9732 174.108 37.2271C174.575 37.3798 177.092 37.2917 179.702 37.0314C182.311 36.7708 184.459 36.671 184.473 36.8094C184.488 36.948 183.424 38.5918 182.109 40.4628C179.652 43.9574 177.474 48.1275 176.524 51.1573C176.239 52.0658 175.893 52.8215 175.755 52.8362C175.618 52.8506 173.083 52.4787 170.122 52.0096C165.099 51.2131 164.644 51.2005 163.298 51.819C161.565 52.6164 160.629 54.019 160.665 55.7676C160.694 57.2335 161.741 59.1015 162.852 59.6707C163.32 59.9104 166.147 60.4991 169.134 60.9789L174.565 61.8514L174.57 63.5691C174.575 65.7188 174.875 68.5854 175.344 70.9609L175.705 72.7892L170.576 74.7674C164.903 76.9553 163.847 77.6843 163.438 79.6933C163.098 81.3605 163.697 83.0052 165.037 84.0873C166.831 85.5359 167.942 85.4369 173.471 83.3376C176.152 82.3193 178.464 81.4121 178.609 81.3218C178.755 81.2309 179.586 82.2939 180.468 83.6978C181.69 85.6431 184.564 89.4077 185.25 89.9621C185.293 89.9969 183.71 92.1008 181.731 94.6378C178.439 98.8572 178.13 99.3378 178.095 100.286C177.962 103.809 180.742 106.143 183.897 105.158C185.017 104.808 185.241 104.581 188.731 100.259C190.743 97.7663 192.452 95.7774 192.529 95.839C193.197 96.3789 198.514 98.9038 200.239 99.5002C202.81 100.39 202.655 99.6573 201.628 106.051C200.708 111.781 200.803 112.676 202.496 114.233C204.009 115.623 205.44 115.935 207.057 115.227C209.138 114.316 209.583 113.312 210.551 107.347L211.44 101.871L216.954 101.283L222.469 100.695L224.51 105.909C226.729 111.577 227.305 112.365 229.568 112.827C231.296 113.18 232.63 112.573 233.816 110.894C235.143 109.016 235.048 108.121 232.941 102.714C230.591 96.6797 230.593 97.4284 232.919 96.017C234.48 95.0705 239.145 91.4816 239.685 90.8129C239.747 90.7366 241.836 92.3206 244.329 94.3332C248.651 97.8227 248.918 97.9976 250.086 98.1032C253.378 98.4013 255.603 95.5342 254.732 92.1174C254.498 91.1991 254.094 90.7937 250.021 87.3902L245.566 83.6678L247.15 81.3969C248.021 80.148 249.598 77.5972 250.654 75.7288C251.71 73.8603 252.65 72.3231 252.744 72.3131C252.838 72.3031 255.079 73.246 257.723 74.4085C260.368 75.5708 262.99 76.5495 263.55 76.5833C266.782 76.7792 269.102 73.2375 267.695 70.256C267.371 69.5687 266.91 68.8478 266.67 68.6542C266.43 68.4604 264.085 67.3509 261.46 66.1887C258.835 65.0263 256.6 64.0055 256.494 63.92C256.389 63.8345 256.704 62.6533 257.196 61.2951C257.688 59.9367 258.498 57.2395 258.996 55.3011C259.494 53.3627 260.044 51.5695 260.219 51.3161C260.456 50.971 261.758 51.0487 265.401 51.6259C270.951 52.5044 272.011 52.498 273.356 51.5771C275.91 49.8282 276.013 46.4085 273.572 44.4371C272.731 43.7583 271.665 43.4813 267.095 42.7543L261.625 41.8842L261.676 40.9903C261.922 36.6892 262.04 32.2483 261.955 30.4599L261.854 28.3037L267.375 27.6834C273.572 26.9867 274.689 26.5403 275.559 24.4127C276.125 23.0285 275.799 20.8298 274.865 19.7345C273.554 18.1976 272.275 18.0283 266.403 18.6133L260.881 19.1638L260.525 17.0347C260.231 15.2687 259.18 10.9523 258.034 6.79962L257.796 5.93649L262.96 3.93296C267.274 2.25905 268.258 1.7636 268.937 0.922835C271.378 -2.10137 269.353 -6.3971 265.522 -6.31923C264.895 -6.30662 262.182 -5.4511 259.493 -4.41832C255.813 -3.00464 254.533 -2.64417 254.32 -2.96093C254.164 -3.19239 253.302 -4.84368 252.405 -6.63051C251.507 -8.41759 250.145 -10.881 249.378 -12.1051C248.611 -13.3292 248.054 -14.4173 248.139 -14.5231C248.224 -14.629 250.194 -16.0979 252.515 -17.7876C254.837 -19.477 256.895 -21.0558 257.089 -21.2959C257.282 -21.5357 257.582 -22.3377 257.754 -23.0778C258.501 -26.2888 255.487 -29.262 252.369 -28.3894C251.828 -28.2383 249.472 -26.7289 247.131 -25.0353C244.791 -23.3415 242.799 -21.9475 242.705 -21.9375C242.611 -21.9275 241.368 -23.2318 239.942 -24.8359C238.516 -26.4397 236.438 -28.6009 235.323 -29.6382L233.296 -31.5242L236.867 -36.102C240.132 -40.2876 240.441 -40.769 240.477 -41.7161C240.609 -45.2398 237.83 -47.5736 234.674 -46.5883C233.555 -46.2389 233.33 -46.0111 229.849 -41.7L226.199 -37.1786L225.2 -37.7387C223.078 -38.9288 219.64 -40.514 218.056 -41.0317C217.145 -41.3293 216.328 -41.6313 216.24 -41.7026C216.152 -41.7735 216.438 -44.1176 216.876 -46.9113C217.867 -53.2312 217.788 -54.0879 216.075 -55.6629C214.562 -57.0535 213.13 -57.3656 211.515 -56.6567C209.401 -55.7283 209.003 -54.8362 208.028 -48.8277L207.131 -43.301L201.617 -42.713L196.102 -42.1254L194.061 -47.339C191.842 -53.0072 191.266 -53.7955 189.003 -54.2572C187.275 -54.6099 185.942 -54.003 184.756 -52.3248C183.428 -50.4461 183.523 -49.5515 185.63 -44.1443C187.98 -38.1101 187.978 -38.8588 185.652 -37.4474C184.092 -36.5009 179.426 -32.9119 178.886 -32.2433C178.824 -32.1669 176.735 -33.7509 174.242 -35.7635C169.92 -39.2531 169.653 -39.428 168.485 -39.5336C166.284 -39.7328 164.309 -38.3841 163.753 -36.3014ZM194.421 -20.0176C198.52 -23.1241 204.184 -24.3442 209.548 -23.2768C212.939 -22.6023 214.925 -21.5727 218.526 -18.6232C229.311 -9.78694 236.947 2.33065 240.588 16.3888C241.734 20.8126 242.79 30.719 242.603 35.2948C242.013 49.7871 237.096 63.2529 228.41 74.1697C225.505 77.8191 223.787 79.2369 220.588 80.6224C215.611 82.7778 209.816 82.7615 205.008 80.5783C202.681 79.5217 199.116 76.6431 197.648 74.6362C194.255 69.9965 193.117 64.0933 194.539 58.5094C195.231 55.7887 195.823 54.6404 198.526 50.7735C203.336 43.8903 205.163 37.4221 204.405 29.9566C203.66 22.6147 199.663 14.96 194.311 10.6219C184.078 2.32901 184.131 -12.2198 194.421 -20.0176ZM197.121 -9.74681C195.975 -7.8807 195.549 -5.71131 195.874 -3.39894C196.303 -0.34421 197.04 0.841974 200.493 4.03095C207.033 10.0718 210.726 16.2841 212.622 24.4336C214.646 33.1347 213.466 42.5528 209.358 50.4816C208.725 51.7023 207.178 54.1652 205.919 55.9541C203.153 59.8857 202.65 61.5238 203.165 64.9096C203.56 67.5058 204.582 69.2574 206.68 70.9355C209.088 72.8613 211.702 73.5951 214.457 73.1193C217.798 72.5423 219.54 71.1695 222.948 66.4306C231.52 54.5112 235.268 38.3697 232.852 23.7772C230.544 9.83451 223.345 -3.00237 213.174 -11.3131C210.202 -13.7407 209.277 -14.2285 206.998 -14.5711C203.158 -15.1481 199.271 -13.2496 197.121 -9.74681Z" fill="url(#paint0_linear_317_6788)"/>
<path opacity="0.35" fill-rule="evenodd" clip-rule="evenodd" d="M194.382 262.571C193.544 261.443 192.151 260.68 190.787 260.6C190.169 260.564 187.254 261.076 184.309 261.738C181.364 262.4 178.942 262.884 178.927 262.814C178.717 261.883 176.509 257.424 175.22 255.331C174.302 253.839 173.684 252.555 173.838 252.46C173.991 252.364 175.931 250.597 178.148 248.532C182.721 244.275 183.333 243.268 182.799 240.891C182.4 239.116 181.121 237.78 179.383 237.322C177.331 236.783 176.057 237.46 171.905 241.296C169.857 243.188 167.926 244.953 167.613 245.217C167.105 245.648 166.783 245.501 164.612 243.848C163.274 242.83 161.104 241.464 159.789 240.811C158.14 239.993 157.422 239.463 157.474 239.103C157.515 238.816 158.237 236.415 159.078 233.768C160.933 227.928 161.025 226.989 159.907 225.304C158.216 222.755 155.359 222.281 153.038 224.164C151.824 225.15 151.623 225.587 150.031 230.719C149.092 233.743 148.26 236.319 148.182 236.443C148.103 236.567 147.226 236.541 146.232 236.387C142.917 235.871 137.949 235.985 133.49 236.681C131.103 237.053 129.048 237.293 128.924 237.214C128.799 237.135 129.897 235.147 131.363 232.796C132.829 230.445 134.089 228.101 134.162 227.587C134.767 223.365 130.276 220.522 126.719 222.875C126.286 223.162 124.706 225.303 123.209 227.634C121.712 229.966 120.385 231.808 120.26 231.73C120.136 231.651 119.474 229.691 118.788 227.374C117.509 223.046 115.486 218.506 113.602 215.731C113.036 214.899 112.638 214.117 112.716 213.993C112.795 213.869 114.767 212.015 117.099 209.872C121.055 206.237 121.365 205.869 121.736 204.349C122.214 202.39 121.667 200.695 120.196 199.576C118.963 198.639 116.729 198.279 115.529 198.825C115.024 199.055 112.681 201.009 110.323 203.167L106.035 207.09L104.61 205.966C102.827 204.559 100.257 202.926 97.9831 201.755L96.233 200.853L97.9624 195.309C99.8748 189.177 99.9647 187.824 98.5704 186.166C97.4132 184.791 95.6588 184.207 93.8833 184.606C91.5065 185.14 90.8592 186.125 88.9677 192.079C88.0505 194.967 87.2835 197.477 87.2632 197.656C87.243 197.836 85.8172 197.827 84.0764 197.635C81.6639 197.369 76.6612 197.277 75.7515 197.482C75.6945 197.494 74.9923 194.803 74.1912 191.499C72.8591 186.005 72.6645 185.433 71.903 184.782C69.0729 182.359 65.3167 183.128 64.061 186.386C63.6152 187.543 63.6562 187.877 64.9432 193.603C65.6855 196.906 66.2099 199.626 66.1088 199.649C65.223 199.848 59.6427 202.592 58.0169 203.628C55.593 205.172 56.3012 205.524 51.6821 200.477C47.5431 195.954 46.7402 195.446 44.3398 195.826C42.1959 196.165 40.9983 197.145 40.523 198.948C39.9112 201.269 40.4498 202.296 44.7518 207.013L48.7021 211.344L45.5688 216.295L42.4351 221.245L36.7797 219.512C30.6312 217.628 29.6003 217.588 27.7327 219.158C26.3064 220.357 25.9333 221.859 26.544 223.943C27.2276 226.275 28.0308 226.783 33.8896 228.589C40.4275 230.604 39.8061 230.115 39.4478 232.967C39.207 234.88 39.1152 241.098 39.3143 241.983C39.337 242.085 36.654 242.775 33.3517 243.517C27.6261 244.804 27.3062 244.91 26.4519 245.808C24.0442 248.337 24.9568 252.061 28.3572 253.583C29.2711 253.992 29.8718 253.923 35.3627 252.786L41.3684 251.542L42.2084 254.344C42.6705 255.885 43.7469 258.864 44.6004 260.965C45.4541 263.065 46.1089 264.853 46.0555 264.938C46.0021 265.022 43.7507 266.258 41.0525 267.684C38.3544 269.11 35.8232 270.638 35.4274 271.079C33.1441 273.626 34.5529 277.871 37.9441 278.664C38.7257 278.847 39.6254 278.938 39.9431 278.867C40.2612 278.795 42.7186 277.583 45.404 276.173C48.0896 274.762 50.4015 273.583 50.5418 273.551C50.6818 273.52 51.4522 274.557 52.2538 275.855C53.0552 277.154 54.7563 279.595 56.0339 281.28C57.3114 282.965 58.4348 284.597 58.5301 284.908C58.66 285.331 57.7412 286.357 54.8717 288.995C50.5015 293.012 49.8109 293.893 49.6905 295.611C49.4616 298.873 52.2245 301.204 55.4591 300.477C56.5729 300.226 57.5018 299.526 61.1036 296.22L65.4146 292.263L66.1211 292.892C69.5202 295.919 73.1189 298.932 74.6545 300.036L76.5058 301.368L73.3951 306.345C69.9039 311.932 69.5401 313.15 70.7302 315.267C71.5045 316.644 73.5389 317.817 75.0586 317.763C77.1912 317.687 78.1711 316.739 81.5414 311.494L84.7108 306.562L86.7064 307.665C88.3615 308.581 92.6243 310.544 96.8142 312.322L97.685 312.691L95.9536 318.281C94.5071 322.951 94.2717 324.091 94.5221 325.204C95.4226 329.211 100.308 330.354 102.759 327.131C103.159 326.605 104.232 323.797 105.142 320.893C106.388 316.919 106.93 315.623 107.332 315.655C107.626 315.678 109.558 316.048 111.627 316.478C113.695 316.908 116.629 317.397 118.145 317.566C119.662 317.735 120.929 317.988 120.96 318.127C120.992 318.268 120.915 320.862 120.79 323.893C120.664 326.924 120.62 329.664 120.692 329.982C120.763 330.3 121.23 331.074 121.73 331.702C123.898 334.428 128.338 333.885 129.662 330.732C129.892 330.185 130.189 327.243 130.324 324.194C130.458 321.145 130.611 318.581 130.665 318.497C130.718 318.413 132.614 318.239 134.878 318.112C137.141 317.985 140.295 317.683 141.885 317.441L144.777 317.001L146.222 322.962C147.544 328.412 147.739 328.984 148.5 329.635C151.33 332.058 155.086 331.289 156.342 328.03C156.788 326.875 156.747 326.539 155.463 320.828L154.117 314.838L155.236 314.379C157.614 313.404 161.183 311.598 162.651 310.627C163.495 310.068 164.282 309.59 164.399 309.564C164.515 309.537 166.268 311.313 168.293 313.509C172.874 318.478 173.635 318.976 176.063 318.591C178.207 318.252 179.405 317.271 179.879 315.469C180.499 313.109 180.021 312.195 175.687 307.443L171.701 303.073L174.834 298.122L177.968 293.171L183.623 294.905C189.772 296.789 190.803 296.829 192.67 295.259C194.097 294.06 194.47 292.558 193.859 290.474C193.175 288.142 192.372 287.634 186.513 285.828C179.976 283.813 180.597 284.302 180.955 281.45C181.196 279.537 181.288 273.319 181.089 272.433C181.066 272.332 183.749 271.642 187.051 270.9C192.777 269.613 193.097 269.507 193.951 268.609C195.561 266.918 195.741 264.398 194.382 262.571ZM160.771 277.267C160.652 282.7 157.944 288.189 153.539 291.929C150.754 294.293 148.598 295.262 143.793 296.306C129.399 299.433 114.356 297.8 100.329 291.586C95.9144 289.63 87.0209 284.001 83.3556 280.843C71.7468 270.841 63.8274 257.932 60.493 243.575C59.3784 238.775 59.3328 236.422 60.286 232.864C61.7684 227.33 65.5862 222.543 70.5495 219.997C72.9516 218.764 77.6747 217.703 80.2996 217.805C86.3674 218.042 92.0011 220.975 95.6903 225.817C97.4877 228.177 98.0498 229.42 99.4767 234.196C102.017 242.696 106.172 248.454 112.849 252.727C119.416 256.93 128.376 258.647 135.48 257.063C149.062 254.037 161.071 263.631 160.771 277.267ZM150.497 272.76C149.704 270.587 148.188 268.81 146.061 267.561C143.25 265.911 141.784 265.743 136.878 266.507C127.585 267.956 120.017 266.935 112.027 263.155C103.496 259.119 96.4742 251.959 92.6079 243.354C92.0128 242.029 90.9897 239.131 90.3349 236.915C88.896 232.045 87.8707 230.553 84.7296 228.757C82.3212 227.379 80.2005 227.075 77.4341 227.711C74.2596 228.439 71.9361 230.122 70.5214 232.715C68.8061 235.859 68.7984 238.203 70.4843 244.134C74.7239 259.054 85.6252 272.753 99.2906 280.332C112.348 287.574 127.699 290.041 141.256 287.077C145.216 286.211 146.227 285.765 148.006 284.103C151.005 281.303 151.985 276.84 150.497 272.76Z" fill="#E8EEF0"/>
<path opacity="0.35" fill-rule="evenodd" clip-rule="evenodd" d="M12.805 151.006C13.4918 150.586 14.0001 149.831 14.1167 149.057C14.1696 148.706 14.0294 147.016 13.8054 145.302C13.5813 143.587 13.4314 142.18 13.4724 142.174C14.0143 142.104 16.674 141.076 17.9353 140.45C18.8342 140.004 19.5995 139.718 19.6458 139.811C19.692 139.903 20.5992 141.102 21.6617 142.475C23.8527 145.306 24.3949 145.708 25.7791 145.527C26.813 145.392 27.6419 144.732 27.9936 143.764C28.4086 142.622 28.0886 141.859 26.1162 139.29C25.1434 138.023 24.2373 136.829 24.1026 136.637C23.8837 136.324 23.9843 136.149 25.0405 134.996C25.6912 134.285 26.5841 133.118 27.0247 132.402C27.5775 131.504 27.9173 131.122 28.1201 131.17C28.2819 131.209 29.6141 131.746 31.0807 132.364C34.316 133.727 34.8475 133.829 35.8668 133.279C37.4093 132.447 37.829 130.841 36.8758 129.419C36.3766 128.674 36.1374 128.537 33.2925 127.361C31.6157 126.667 30.1893 126.058 30.1228 126.007C30.0562 125.956 30.1164 125.457 30.2565 124.897C30.7237 123.033 30.9175 120.192 30.7534 117.612C30.6657 116.23 30.6358 115.045 30.6874 114.978C30.7387 114.912 31.8158 115.642 33.0808 116.601C34.3457 117.56 35.6175 118.401 35.9069 118.47C38.2843 119.035 40.1409 116.62 38.9837 114.468C38.8429 114.206 37.7033 113.193 36.4514 112.217C35.1993 111.241 34.217 110.388 34.2683 110.321C34.3197 110.254 35.4725 109.979 36.8303 109.709C39.3666 109.204 42.0624 108.287 43.7442 107.356C44.2486 107.077 44.7157 106.891 44.7823 106.942C44.8487 106.993 45.8039 108.215 46.9049 109.657C48.7726 112.104 48.9669 112.3 49.8147 112.591C50.9073 112.966 51.903 112.742 52.618 111.962C53.2173 111.307 53.5389 110.051 53.2901 109.338C53.1852 109.037 52.1927 107.599 51.0845 106.141L49.0696 103.49L49.7852 102.735C50.6808 101.791 51.7468 100.41 52.5337 99.1735L53.1395 98.222L56.2129 99.498C59.6117 100.909 60.379 101.031 61.3975 100.322C62.2427 99.7331 62.6675 98.7626 62.5324 97.7287C62.3516 96.3446 61.8236 95.9239 58.5246 94.5341C56.9246 93.8601 55.5325 93.2916 55.4313 93.2706C55.3297 93.2497 55.4094 92.4367 55.6097 91.4534C55.887 90.0907 56.2006 87.241 56.1314 86.7113C56.127 86.6781 57.6996 86.4179 59.6262 86.133C62.8308 85.6595 63.1671 85.5783 63.5786 85.1778C65.1085 83.6893 64.8658 81.506 63.0719 80.6195C62.4354 80.3049 62.2423 80.3108 58.908 80.7465C56.985 80.9978 55.4054 81.1552 55.3977 81.0963C55.3303 80.5805 54.0557 77.2533 53.5493 76.2716C52.7946 74.808 52.5567 75.1937 55.6775 72.8213C58.4742 70.6956 58.8062 70.264 58.7145 68.8745C58.6327 67.6336 58.1363 66.8991 57.1321 66.5339C55.8395 66.0637 55.2253 66.3174 52.3097 68.5261L49.6326 70.5542L46.9711 68.5082L44.3097 66.4619L45.5935 63.3254C46.9892 59.9154 47.0661 59.3293 46.2676 58.1818C45.6579 57.3054 44.8201 57.0142 43.5995 57.254C42.2331 57.5224 41.9012 57.9542 40.5653 61.2029C39.0743 64.8283 39.386 64.4993 37.7775 64.1461C36.6986 63.9089 33.1554 63.5322 32.6396 63.5996C32.5807 63.6073 32.3269 62.0404 32.0756 60.1175C31.6399 56.7834 31.5961 56.5953 31.1284 56.061C29.8107 54.5553 27.6382 54.8818 26.5927 56.7426C26.3117 57.2428 26.3192 57.5891 26.6818 60.7815L27.0785 64.2731L25.4359 64.6063C24.5326 64.7896 22.7763 65.2484 21.5333 65.6258C20.2902 66.0034 19.2359 66.2837 19.1905 66.2489C19.1452 66.214 18.5575 64.8649 17.8846 63.251C17.2116 61.6371 16.4718 60.1131 16.2405 59.8643C14.9066 58.4286 12.4109 59.011 11.7814 60.9046C11.6363 61.3411 11.5374 61.8497 11.5616 62.0347C11.5858 62.2199 12.1494 63.6853 12.814 65.2911C13.4786 66.8971 14.0312 68.2778 14.0418 68.3594C14.0523 68.4409 13.4206 68.8265 12.6378 69.2161C11.8548 69.6056 10.3733 70.4489 9.34531 71.09C8.31735 71.7311 7.32731 72.287 7.14505 72.3251C6.89698 72.3772 6.35915 71.7994 5.0041 70.0245C2.93993 67.3215 2.47284 66.8814 1.49901 66.7231C-0.350476 66.4224 -1.82429 67.8773 -1.57817 69.7609C-1.49342 70.4094 -1.14229 70.976 0.556179 73.2035L2.58907 75.8697L2.19332 76.24C0.289025 78.0217 -1.61775 79.9179 -2.32795 80.7365L-3.1843 81.7234L-5.86214 79.6889C-8.868 77.4054 -9.54382 77.1343 -10.8137 77.703C-11.6398 78.073 -12.4153 79.1726 -12.4637 80.0425C-12.5315 81.2633 -12.0418 81.8719 -9.22502 84.0685L-6.57582 86.1342L-7.3096 87.2153C-7.91828 88.1119 -9.26104 90.4418 -10.4937 92.7398L-10.7499 93.2174L-13.8491 91.938C-16.4384 90.869 -17.0762 90.6753 -17.7248 90.76C-20.0579 91.0649 -20.9649 93.7929 -19.254 95.3592C-18.9743 95.6154 -17.4284 96.3738 -15.8189 97.0448C-13.6161 97.9628 -12.905 98.3394 -12.9439 98.5672C-12.9723 98.7337 -13.2844 99.8172 -13.6376 100.975C-13.9909 102.133 -14.4233 103.781 -14.5985 104.638C-14.774 105.494 -14.9843 106.204 -15.0658 106.215C-15.1474 106.225 -16.6238 106.046 -18.3468 105.816C-20.0695 105.587 -21.6306 105.419 -21.8158 105.443C-22.0008 105.467 -22.4671 105.693 -22.8516 105.946C-24.52 107.041 -24.4416 109.602 -22.7113 110.522C-22.4113 110.682 -20.7484 111.005 -19.0156 111.241C-17.2829 111.476 -15.828 111.698 -15.7826 111.732C-15.7373 111.767 -15.7373 112.858 -15.7829 114.156C-15.8282 115.455 -15.8204 117.27 -15.7654 118.19L-15.6653 119.863L-19.142 120.376C-22.3206 120.846 -22.6572 120.928 -23.0683 121.328C-24.5982 122.817 -24.3556 125 -22.5617 125.886C-21.9254 126.201 -21.7317 126.195 -18.4059 125.76L-14.9179 125.305L-14.7144 125.967C-14.282 127.375 -13.4378 129.506 -12.9603 130.394C-12.6857 130.905 -12.4539 131.379 -12.445 131.447C-12.4359 131.515 -13.5404 132.422 -14.8995 133.463C-17.9734 135.818 -18.297 136.226 -18.2043 137.631C-18.1224 138.873 -17.6256 139.607 -16.622 139.971C-15.3077 140.448 -14.761 140.223 -11.8239 137.998L-9.12233 135.952L-6.46081 137.998L-3.79944 140.044L-5.08328 143.181C-6.47895 146.591 -6.55581 147.177 -5.75738 148.324C-5.14764 149.2 -4.30987 149.492 -3.08927 149.252C-1.72282 148.984 -1.39096 148.552 -0.0550869 145.303C1.43592 141.678 1.12426 142.007 2.73272 142.36C3.81167 142.597 7.35486 142.974 7.87068 142.906C7.92958 142.899 8.18338 144.466 8.43465 146.388C8.87031 149.723 8.91418 149.911 9.38183 150.445C10.2629 151.452 11.6913 151.686 12.805 151.006ZM6.17221 131.061C3.07887 130.71 0.0877888 128.878 -1.81649 126.17C-3.02017 124.458 -3.46021 123.177 -3.80536 120.381C-4.83927 112.004 -3.12263 103.506 1.15489 95.8266C2.50082 93.4099 6.17638 88.6289 8.16959 86.7023C14.4822 80.6001 22.2611 76.7547 30.6269 75.6009C33.4236 75.2153 34.7687 75.312 36.749 76.0414C39.8294 77.1759 42.3615 79.604 43.5558 82.5688C44.1338 84.0037 44.4932 86.7541 44.2979 88.2464C43.8461 91.6963 41.8788 94.7578 38.9235 96.6103C37.4835 97.5128 36.7446 97.7687 33.9454 98.3338C28.9627 99.3399 25.4606 101.41 22.6738 104.997C19.9334 108.525 18.4866 113.548 19.0194 117.684C20.0379 125.592 13.9375 131.944 6.17221 131.061ZM9.27981 125.434C10.5611 125.095 11.6541 124.323 12.4777 123.174C13.5659 121.656 13.7384 120.829 13.5579 117.989C13.2162 112.611 14.1932 108.347 16.7669 103.984C19.5148 99.327 23.9661 95.6941 29.0781 93.9369C29.8653 93.6664 31.5719 93.2338 32.8704 92.9757C35.7245 92.4088 36.6294 91.9015 37.8179 90.2029C38.7293 88.9005 39.0134 87.7064 38.7953 86.0948C38.545 84.2454 37.7063 82.8319 36.3005 81.8894C34.5961 80.7468 33.259 80.6201 29.7866 81.2727C21.0522 82.9136 12.6674 88.4193 7.63015 95.8213C2.81722 102.894 0.608725 111.525 1.59298 119.414C1.88052 121.719 2.08206 122.319 2.93739 123.421C4.37868 125.278 6.8745 126.07 9.27981 125.434Z" fill="url(#paint1_linear_317_6788)"/>
</g>
<defs>
<linearGradient id="paint0_linear_317_6788" x1="177.5" y1="87" x2="282.5" y2="-28" gradientUnits="userSpaceOnUse">
<stop stop-color="#E8EEF0"/>
<stop offset="1" stop-color="#E8EEF0" stop-opacity="0"/>
</linearGradient>
<linearGradient id="paint1_linear_317_6788" x1="61.4995" y1="91" x2="-6.50049" y2="138.5" gradientUnits="userSpaceOnUse">
<stop stop-color="#E8EEF0"/>
<stop offset="1" stop-color="#E8EEF0" stop-opacity="0"/>
</linearGradient>
</defs>
</svg>
