<svg width="285" height="285" viewBox="0 0 285 285" fill="none" xmlns="http://www.w3.org/2000/svg">
<mask id="mask0_317_6804" style="mask-type:alpha" maskUnits="userSpaceOnUse" x="0" y="0" width="285" height="285">
<rect width="285" height="285" rx="10" fill="white"/>
</mask>
<g mask="url(#mask0_317_6804)">
<path opacity="0.35" fill-rule="evenodd" clip-rule="evenodd" d="M60.3465 143.423C55.3441 144.639 51.4885 148.24 49.2696 153.766C48.7957 154.947 48.6075 155.063 46.2049 155.647C44.7971 155.99 42.5806 156.631 41.2796 157.071L38.9143 157.871L37.2782 156.615C33.6763 153.849 29.2406 152.66 25.1167 153.354C16.6713 154.775 11.1396 162.152 12.1981 170.581L12.5057 173.029L8.76419 176.742L5.0227 180.456L3.01121 180.077C0.336178 179.574 -3.14888 180.121 -6.12001 181.511C-12.2282 184.37 -15.897 191.613 -14.5244 198.106C-13.8866 201.123 -12.89 203.301 -11.2919 205.167L-10.0744 206.589L-11.0957 209.817C-11.6573 211.592 -12.3264 213.884 -12.5828 214.911C-12.8445 215.959 -13.2825 216.854 -13.5818 216.951C-13.8747 217.047 -15.0539 217.553 -16.2022 218.076C-22.2986 220.851 -25.9367 227.806 -24.7895 234.494C-23.8177 240.161 -20.222 244.336 -14.2481 246.734C-13.0672 247.207 -12.9516 247.396 -12.3667 249.798C-12.024 251.206 -11.3813 253.427 -10.9391 254.735L-10.1346 257.113L-11.5038 258.926C-14.2477 262.56 -15.3553 266.755 -14.6604 270.884C-13.239 279.328 -5.86183 284.859 2.56827 283.801L5.01678 283.493L8.73079 287.234L12.4448 290.975L12.0662 292.986C10.9545 298.889 14.498 306.017 20.0106 308.968C25.757 312.044 32.8607 311.423 37.3875 307.449L38.63 306.359L41.6593 307.25C43.3256 307.74 45.605 308.339 46.7247 308.58C47.9759 308.85 48.8298 309.229 48.9397 309.565C50.3382 313.827 53.0894 317.238 56.6305 319.099C65.3633 323.687 74.9148 319.719 78.7363 309.915C79.1775 308.783 79.3967 308.637 81.2652 308.237C82.3905 307.995 84.5972 307.415 86.1692 306.946L89.0269 306.095L90.6925 307.373C94.3248 310.162 98.7465 311.352 102.883 310.656C111.329 309.235 116.86 301.858 115.802 293.429L115.494 290.981L119.236 287.268L122.977 283.554L124.989 283.933C127.744 284.451 131.282 283.87 134.243 282.413C140.358 279.403 143.89 272.363 142.524 265.904C141.887 262.887 140.89 260.709 139.292 258.843L138.074 257.421L139.096 254.193C139.657 252.418 140.326 250.126 140.583 249.099C140.844 248.051 141.283 247.156 141.582 247.059C141.875 246.963 143.054 246.457 144.202 245.934C150.299 243.159 153.937 236.203 152.79 229.516C151.818 223.849 148.222 219.674 142.248 217.276C141.067 216.802 140.952 216.614 140.367 214.212C140.024 212.804 139.381 210.583 138.939 209.275L138.135 206.897L139.504 205.084C142.248 201.45 143.355 197.255 142.66 193.126C141.239 184.682 133.862 179.151 125.432 180.209L122.983 180.517L119.269 176.776L115.555 173.035L115.934 171.023C116.757 166.655 114.934 161.102 111.596 157.805C105.653 151.937 96.3731 151.634 90.3954 157.116L89.4765 157.958L86.22 156.928C84.4288 156.361 82.1233 155.688 81.0965 155.431C80.0481 155.17 79.1532 154.732 79.0554 154.432C78.9597 154.14 78.4538 152.961 77.9308 151.812C74.9806 145.333 67.388 141.711 60.3465 143.423ZM87.3216 175.301C88.8655 176.088 90.0962 178.093 90.0962 179.819C90.0962 182.466 87.5245 185.038 84.8769 185.038C82.2294 185.038 79.6577 182.466 79.6577 179.819C79.6577 178.146 80.8891 176.093 82.3581 175.318C84.037 174.432 85.6073 174.426 87.3216 175.301ZM54.9906 184.047C59.7317 186.074 62.0543 191.912 60.1597 197.04C59.4467 198.97 58.7143 199.802 50.4728 208.042C42.2313 216.283 41.3993 217.015 39.4696 217.728C31.0287 220.846 22.9389 212.754 26.0913 204.346C26.8046 202.443 27.5973 201.529 35.0562 194.003C39.5566 189.463 43.8412 185.33 44.5779 184.82C47.3197 182.92 51.6089 182.602 54.9906 184.047ZM90.5346 204.307C91.6369 204.566 93.1376 205.194 93.8693 205.7C94.6014 206.208 98.8819 210.337 103.382 214.878C110.851 222.413 111.632 223.316 112.344 225.221C115.487 233.639 107.399 241.733 98.9688 238.605C97.0412 237.891 96.1974 237.147 87.9657 228.917C79.7339 220.686 78.9907 219.842 78.2757 217.915C76.0533 211.926 79.5815 205.396 85.6925 204.187C87.7938 203.771 88.3122 203.784 90.5346 204.307ZM56.0062 227.487C57.5501 228.274 58.7808 230.279 58.7808 232.005C58.7808 234.652 56.2091 237.224 53.5615 237.224C51.835 237.224 49.8305 235.993 49.0427 234.449C48.1558 232.711 48.1555 231.299 49.042 229.562C50.3281 227.042 53.3618 226.138 56.0062 227.487ZM14.2524 237.924C15.7962 238.712 17.0269 240.716 17.0269 242.442C17.0269 244.168 15.7962 246.173 14.2524 246.96C13.4973 247.346 12.3971 247.661 11.8077 247.661C9.16016 247.661 6.58847 245.089 6.58847 242.442C6.58847 240.769 7.81986 238.716 9.2889 237.941C10.9678 237.055 12.538 237.05 14.2524 237.924ZM47.9944 249.287C48.6642 249.56 53.5181 251.772 58.7808 254.202C67.499 258.227 68.5206 258.79 70.277 260.533C71.7008 261.947 72.3598 262.934 72.7996 264.313C73.9374 267.883 73.2989 271.496 71.022 274.37C68.9527 276.982 64.6058 278.571 61.263 277.937C60.3319 277.761 54.8907 275.456 49.1718 272.815C39.6231 268.405 38.6161 267.857 36.8461 266.1C34.6902 263.96 33.7285 261.695 33.7285 258.758C33.7285 251.645 41.3586 246.579 47.9944 249.287ZM97.7601 258.798C99.3039 259.586 100.535 261.59 100.535 263.317C100.535 263.906 100.219 265.006 99.8342 265.761C99.0464 267.305 97.0419 268.535 95.3154 268.535C93.5889 268.535 91.5843 267.305 90.7966 265.761C89.9097 264.022 89.9093 262.611 90.7959 260.874C92.0819 258.353 95.1157 257.449 97.7601 258.798Z" fill="url(#paint0_linear_317_6804)"/>
<path opacity="0.45" fill-rule="evenodd" clip-rule="evenodd" d="M261.522 38.1711C259.499 38.6631 257.939 40.1195 257.042 42.3549C256.85 42.8325 256.774 42.8792 255.802 43.1158C255.233 43.2544 254.336 43.5135 253.81 43.6915L252.853 44.0152L252.191 43.507C250.734 42.3884 248.94 41.9074 247.272 42.1881C243.856 42.763 241.618 45.7467 242.046 49.1562L242.171 50.1465L240.657 51.6486L239.144 53.1507L238.33 52.9976C237.248 52.7938 235.839 53.0152 234.637 53.5777C232.166 54.7337 230.682 57.6637 231.237 60.2902C231.495 61.5106 231.898 62.3912 232.545 63.1464L233.037 63.7215L232.624 65.027C232.397 65.745 232.126 66.6721 232.023 67.0874C231.917 67.5114 231.74 67.8734 231.619 67.9129C231.5 67.9516 231.023 68.1562 230.559 68.3677C228.093 69.4903 226.621 72.3037 227.085 75.0086C227.478 77.3009 228.933 78.9898 231.349 79.9597C231.827 80.1513 231.873 80.2275 232.11 81.1992C232.249 81.7686 232.509 82.6672 232.688 83.1962L233.013 84.158L232.459 84.8914C231.349 86.3613 230.901 88.0583 231.182 89.7282C231.757 93.1439 234.741 95.3812 238.151 94.9531L239.142 94.8287L240.644 96.3419L242.146 97.8551L241.993 98.6687C241.543 101.056 242.977 103.939 245.207 105.133C247.531 106.377 250.404 106.126 252.235 104.519L252.738 104.078L253.963 104.438C254.637 104.637 255.559 104.879 256.012 104.976C256.518 105.085 256.864 105.239 256.908 105.374C257.474 107.099 258.587 108.478 260.019 109.231C263.551 111.087 267.415 109.482 268.961 105.516C269.139 105.058 269.228 104.999 269.984 104.837C270.439 104.74 271.331 104.505 271.967 104.315L273.123 103.971L273.797 104.488C275.266 105.616 277.055 106.097 278.728 105.816C282.144 105.241 284.382 102.257 283.954 98.8478L283.829 97.8575L285.343 96.3554L286.856 94.8533L287.67 95.0064C288.784 95.2162 290.215 94.9812 291.413 94.3917C293.886 93.1744 295.315 90.3264 294.763 87.7138C294.505 86.4934 294.102 85.6128 293.455 84.8576L292.963 84.2825L293.376 82.977C293.603 82.259 293.874 81.3319 293.977 80.9166C294.083 80.4926 294.26 80.1306 294.381 80.0911C294.5 80.0524 294.977 79.8478 295.441 79.6363C297.907 78.5137 299.379 75.7003 298.915 72.9954C298.522 70.7031 297.067 69.0142 294.651 68.0444C294.173 67.8527 294.127 67.7766 293.89 66.8048C293.751 66.2355 293.491 65.3368 293.312 64.8078L292.987 63.8461L293.541 63.1126C294.651 61.6427 295.099 59.9457 294.818 58.2758C294.243 54.8601 291.259 52.6229 287.849 53.0509L286.858 53.1753L285.356 51.6621L283.854 50.1489L284.007 49.3353C284.34 47.5682 283.603 45.3221 282.252 43.9887C279.849 41.6148 276.095 41.4925 273.677 43.7097L273.305 44.0504L271.988 43.6337C271.263 43.4044 270.331 43.1321 269.915 43.0284C269.491 42.9226 269.129 42.7454 269.09 42.6244C269.051 42.5059 268.846 42.029 268.635 41.5646C267.442 38.9437 264.37 37.4786 261.522 38.1711ZM272.433 51.0654C273.058 51.384 273.556 52.1948 273.556 52.893C273.556 53.9638 272.516 55.0039 271.445 55.0039C270.374 55.0039 269.333 53.9638 269.333 52.893C269.333 52.2163 269.832 51.386 270.426 51.0723C271.105 50.7139 271.74 50.7118 272.433 51.0654ZM259.356 54.6034C261.274 55.4232 262.213 57.7847 261.447 59.859C261.158 60.6395 260.862 60.9759 257.528 64.3092C254.195 67.6424 253.858 67.9387 253.078 68.227C249.663 69.4882 246.391 66.2152 247.666 62.8143C247.955 62.0445 248.275 61.6747 251.292 58.6306C253.113 56.794 254.846 55.1224 255.144 54.9158C256.253 54.1475 257.988 54.0187 259.356 54.6034ZM273.733 62.7984C274.179 62.9032 274.786 63.1569 275.082 63.362C275.378 63.5671 277.11 65.2376 278.93 67.0742C281.951 70.122 282.267 70.4872 282.555 71.2578C283.826 74.663 280.555 77.9369 277.145 76.6719C276.365 76.3827 276.024 76.0821 272.694 72.7528C269.364 69.4235 269.064 69.0822 268.774 68.3026C267.875 65.8803 269.303 63.2387 271.774 62.7497C272.624 62.5816 272.834 62.5868 273.733 62.7984ZM259.767 72.1744C260.391 72.493 260.889 73.3037 260.889 74.002C260.889 75.0728 259.849 76.1129 258.778 76.1129C258.079 76.1129 257.269 75.6152 256.95 74.9908C256.591 74.2875 256.591 73.7166 256.95 73.0138C257.47 71.9944 258.697 71.6288 259.767 72.1744ZM242.877 76.3962C243.502 76.7148 244 77.5255 244 78.2238C244 78.9221 243.502 79.7328 242.877 80.0514C242.572 80.2072 242.127 80.3347 241.889 80.3347C240.818 80.3347 239.777 79.2946 239.777 78.2238C239.777 77.547 240.275 76.7168 240.87 76.4031C241.549 76.0447 242.184 76.0425 242.877 76.3962ZM256.526 80.9926C256.797 81.1031 258.76 81.9977 260.889 82.9805C264.415 84.6087 264.829 84.8364 265.539 85.5416C266.115 86.1133 266.382 86.5127 266.559 87.0706C267.02 88.5143 266.761 89.9757 265.84 91.1385C265.003 92.1951 263.245 92.8378 261.893 92.5814C261.516 92.5101 259.315 91.5776 257.002 90.5094C253.14 88.7258 252.732 88.504 252.016 87.7932C251.144 86.9274 250.755 86.0113 250.755 84.8233C250.755 81.9462 253.842 79.8973 256.526 80.9926ZM276.656 84.8398C277.28 85.1584 277.778 85.9691 277.778 86.6674C277.778 86.9058 277.651 87.3507 277.495 87.6561C277.176 88.2805 276.365 88.7783 275.667 88.7783C274.969 88.7783 274.158 88.2805 273.839 87.6561C273.48 86.9529 273.48 86.382 273.839 85.6792C274.359 84.6598 275.586 84.2942 276.656 84.8398Z" fill="#E8EEF0"/>
<path opacity="0.35" fill-rule="evenodd" clip-rule="evenodd" d="M76.0148 19.1141C74.6658 19.442 73.6261 20.413 73.0278 21.9033C72.9 22.2217 72.8492 22.2528 72.2013 22.4105C71.8217 22.5029 71.224 22.6757 70.8732 22.7943L70.2353 23.0101L69.7941 22.6713C68.8228 21.9256 67.6267 21.6049 66.5146 21.7921C64.2372 22.1753 62.7455 24.1645 63.0309 26.4375L63.1139 27.0977L62.105 28.0991L61.096 29.1005L60.5536 28.9984C59.8322 28.8626 58.8924 29.0101 58.0912 29.3851C56.4441 30.1558 55.4547 32.1091 55.8249 33.8601C55.9969 34.6737 56.2656 35.2608 56.6966 35.7642L57.0249 36.1477L56.7495 37.018C56.598 37.4967 56.4176 38.1148 56.3485 38.3916C56.2779 38.6743 56.1598 38.9156 56.0791 38.9419C56.0001 38.9677 55.6821 39.1042 55.3724 39.2452C53.7285 39.9935 52.7474 41.8691 53.0568 43.6724C53.3188 45.2006 54.2884 46.3265 55.8994 46.9731C56.2178 47.1009 56.249 47.1516 56.4067 47.7995C56.4991 48.179 56.6724 48.7782 56.7917 49.1308L57.0086 49.772L56.6394 50.2609C55.8995 51.2409 55.6008 52.3722 55.7882 53.4855C56.1715 55.7626 58.1609 57.2541 60.4341 56.9687L61.0944 56.8858L62.0959 57.8946L63.0975 58.9034L62.9954 59.4458C62.6956 61.0374 63.6512 62.9596 65.1377 63.7554C66.6873 64.5849 68.6029 64.4175 69.8236 63.3459L70.1587 63.0518L70.9755 63.2921C71.4249 63.4244 72.0396 63.5858 72.3415 63.6509C72.6789 63.7235 72.9092 63.8258 72.9388 63.9163C73.3159 65.0658 74.0578 65.9855 75.0127 66.4873C77.3676 67.7245 79.9433 66.6545 80.9738 64.0107C81.0928 63.7055 81.1519 63.6663 81.6558 63.5582C81.9592 63.4932 82.5543 63.3366 82.9782 63.2102L83.7488 62.9805L84.198 63.3252C85.1775 64.0773 86.3698 64.3983 87.4854 64.2106C89.7628 63.8273 91.2545 61.8382 90.9691 59.5652L90.8861 58.905L91.8951 57.9036L92.904 56.9022L93.4464 57.0043C94.1894 57.1442 95.1434 56.9875 95.942 56.5945C97.5908 55.783 98.5433 53.8843 98.1751 52.1426C98.0031 51.329 97.7344 50.7419 97.3034 50.2384L96.9751 49.855L97.2505 48.9846C97.402 48.506 97.5824 47.8879 97.6515 47.6111C97.7221 47.3284 97.8402 47.0871 97.9209 47.0607C97.9999 47.0349 98.3179 46.8985 98.6276 46.7575C100.272 46.0091 101.253 44.1335 100.943 42.3303C100.681 40.8021 99.7116 39.6762 98.1006 39.0296C97.7822 38.9018 97.751 38.851 97.5933 38.2032C97.5009 37.8236 97.3276 37.2245 97.2083 36.8719L96.9914 36.2307L97.3606 35.7417C98.1005 34.7618 98.3992 33.6305 98.2118 32.5172C97.8285 30.2401 95.8391 28.7486 93.5659 29.034L92.9056 29.1169L91.9041 28.1081L90.9025 27.0993L91.0046 26.5569C91.2265 25.3788 90.7351 23.8814 89.8349 22.9925C88.2323 21.4099 85.7298 21.3283 84.1179 22.8064L83.8701 23.0336L82.9919 22.7558C82.5089 22.603 81.8872 22.4214 81.6103 22.3523C81.3276 22.2817 81.0863 22.1636 81.0599 22.0829C81.0341 22.0039 80.8977 21.686 80.7566 21.3764C79.9611 19.6291 77.9136 18.6524 76.0148 19.1141ZM83.289 27.7103C83.7053 27.9227 84.0372 28.4632 84.0372 28.9287C84.0372 29.6426 83.3437 30.336 82.6297 30.336C81.9158 30.336 81.2223 29.6426 81.2223 28.9287C81.2223 28.4775 81.5544 27.924 81.9505 27.7149C82.4032 27.4759 82.8267 27.4745 83.289 27.7103ZM74.5705 30.069C75.849 30.6154 76.4753 32.1898 75.9644 33.5727C75.7722 34.093 75.5746 34.3173 73.3522 36.5395C71.1298 38.7616 70.9054 38.9591 70.3851 39.1513C68.1089 39.9921 65.9274 37.8101 66.7774 35.5428C66.9698 35.0297 67.1835 34.7831 69.1949 32.7537C70.4085 31.5293 71.5639 30.415 71.7626 30.2772C72.5019 29.765 73.6586 29.6791 74.5705 30.069ZM84.1554 35.5322C84.4526 35.6021 84.8573 35.7713 85.0546 35.908C85.2521 36.0448 86.4063 37.1584 87.6199 38.3828C89.6339 40.4147 89.8447 40.6581 90.0366 41.1719C90.8841 43.442 88.7031 45.6246 86.4298 44.7812C85.91 44.5884 85.6825 44.3881 83.4627 42.1685C81.2429 39.949 81.0424 39.7215 80.8496 39.2017C80.2503 37.5868 81.2018 35.8258 82.8497 35.4998C83.4163 35.3878 83.5561 35.3912 84.1554 35.5322ZM74.8444 41.7829C75.2607 41.9953 75.5926 42.5358 75.5926 43.0013C75.5926 43.7152 74.8991 44.4086 74.1851 44.4086C73.7196 44.4086 73.179 44.0768 72.9666 43.6605C72.7274 43.1917 72.7273 42.8111 72.9664 42.3425C73.3132 41.6629 74.1313 41.4192 74.8444 41.7829ZM63.5849 44.5975C64.0012 44.8099 64.3331 45.3503 64.3331 45.8159C64.3331 46.2814 64.0012 46.8219 63.5849 47.0343C63.3813 47.1381 63.0846 47.2231 62.9257 47.2231C62.2117 47.2231 61.5182 46.5297 61.5182 45.8159C61.5182 45.3647 61.8503 44.8112 62.2464 44.6021C62.6992 44.3631 63.1226 44.3617 63.5849 44.5975ZM72.6839 47.6617C72.8645 47.7354 74.1734 48.3318 75.5926 48.987C77.9435 50.0725 78.219 50.2243 78.6927 50.6944C79.0766 51.0756 79.2543 51.3418 79.3729 51.7137C79.6798 52.6762 79.5076 53.6505 78.8936 54.4257C78.3356 55.1301 77.1634 55.5585 76.2619 55.3876C76.0109 55.34 74.5436 54.7184 73.0014 54.0062C70.4264 52.8172 70.1549 52.6693 69.6776 52.1955C69.0962 51.6183 68.8369 51.0075 68.8369 50.2155C68.8369 48.2974 70.8945 46.9315 72.6839 47.6617ZM86.1038 50.2265C86.5202 50.4389 86.852 50.9794 86.852 51.4449C86.852 51.6038 86.767 51.9005 86.6632 52.1041C86.4507 52.5204 85.9102 52.8522 85.4446 52.8522C84.979 52.8522 84.4385 52.5204 84.226 52.1041C83.9869 51.6353 83.9868 51.2547 84.2259 50.7861C84.5726 50.1065 85.3907 49.8628 86.1038 50.2265Z" fill="#E8EEF0"/>
</g>
<defs>
<linearGradient id="paint0_linear_317_6804" x1="98" y1="192" x2="-1.99999" y2="302" gradientUnits="userSpaceOnUse">
<stop stop-color="#E8EEF0"/>
<stop offset="1" stop-color="#E8EEF0" stop-opacity="0"/>
</linearGradient>
</defs>
</svg>
