<svg width="107" height="112" viewBox="0 0 107 112" fill="none" xmlns="http://www.w3.org/2000/svg">
<path d="M38 61L46.5 68L55.5 70.5L63.5 69.5L70.5 65.5L72.5 61L75 52.5L77.5 20L76 12.5L70.5 9L63.5 7.5H47.5L37 10L34 18L35 51.5L38 61Z" fill="#DFEAEB"/>
<path fill-rule="evenodd" clip-rule="evenodd" d="M44.5949 4.84746C39.7607 5.85406 35.7656 8.78641 33.68 12.8589C32.3721 15.4122 31.9769 17.4008 31.9769 21.4265V24.7076L30.7564 25.8527C26.703 29.655 23.482 35.3089 21.9037 41.3914L21.2686 43.8395L21.1948 76.9846L21.1211 110.13L21.7088 110.784C22.2105 111.342 22.4758 111.438 23.5158 111.438C24.4628 111.438 24.857 111.321 25.2835 110.913L25.8324 110.387L25.9656 77.5749C26.0974 45.1695 26.1054 44.7379 26.608 42.8013C27.6073 38.9523 28.954 35.9302 30.9743 33.0034L32.0837 31.3958L32.2579 32.0805C32.3535 32.457 32.6073 36.4509 32.8217 40.9556C33.3475 51.9933 33.5649 54.6077 34.1273 56.6489C35.7369 62.4917 40.0875 67.5722 45.8513 70.3391C51.4736 73.0384 58.5186 73.2722 64.3381 70.9526C70.8091 68.3732 75.6903 62.9722 77.4221 56.4751C77.9549 54.4756 78.0761 53.1681 78.4956 44.8777C78.7558 39.7386 79.0325 34.9684 79.1103 34.2769L79.252 33.0202L79.6992 33.5848C80.3337 34.3858 82.0406 37.7311 82.6107 39.2912C82.8758 40.0163 83.3199 41.492 83.5975 42.5706C84.0734 44.4197 84.1103 45.3525 84.2442 58.9138L84.3862 73.2957L85.0623 73.8524C86.1625 74.7582 88.2073 74.5095 88.8307 73.3942C89.0386 73.0223 89.0885 69.0953 89.0232 58.2505L88.9348 43.6088L88.3064 41.1863C86.9066 35.7911 84.3575 31.0396 80.7688 27.1368C79.7173 25.9934 79.4426 25.5435 79.5488 25.1388C79.8681 23.9202 79.7245 17.9812 79.337 16.3847C77.9729 10.7657 72.9417 6.05062 67.0299 4.85161C64.7294 4.38511 46.8315 4.38188 44.5949 4.84746ZM65.1092 9.3572C69.9388 10.0184 73.8848 13.6397 74.6773 18.1386C75.0732 20.3859 73.3258 52.7907 72.6759 55.2544C71.1183 61.1579 66.2391 65.8123 59.9285 67.4139C57.8326 67.9457 53.6218 67.9349 51.4948 67.3922C45.3944 65.8354 40.439 61.1314 38.8354 55.3751C38.2949 53.4348 36.5036 20.2417 36.8309 18.2304C37.5607 13.7442 41.4007 10.1543 46.3142 9.36481C48.037 9.08795 63.0979 9.08196 65.1092 9.3572ZM85.497 79.8066C85.1804 79.9746 84.7775 80.3603 84.6021 80.6635C83.2662 82.9711 86.4353 85.2867 88.3806 83.4244C90.3769 81.513 87.9707 78.4939 85.497 79.8066ZM85.497 89.4966C84.2948 90.1345 84.2833 90.2381 84.2741 100.486C84.2649 110.976 84.2334 110.737 85.698 111.318C86.6989 111.715 87.9878 111.442 88.5926 110.706C89.0709 110.124 89.0849 109.827 89.0849 100.315V90.5232L88.3806 89.8489C87.5982 89.0997 86.4977 88.9652 85.497 89.4966Z" fill="#3B4040"/>
<path d="M33.8135 12.9273L33.8135 12.9273C35.8766 8.89869 39.8317 5.9925 44.6255 4.99431C45.1685 4.88128 46.6905 4.79407 48.7247 4.73603C50.7513 4.6782 53.2686 4.64954 55.7884 4.65001C58.3083 4.65047 60.8296 4.68005 62.8641 4.73862C64.9059 4.79741 66.4406 4.88516 67.0001 4.99862C72.858 6.1867 77.8417 10.8607 79.1913 16.4201C79.3806 17.2002 79.5135 19.068 79.558 20.9071C79.5802 21.8234 79.5803 22.7269 79.555 23.4764C79.5296 24.2317 79.4787 24.8149 79.4037 25.1008C79.3361 25.3584 79.3989 25.6151 79.5966 25.939C79.792 26.259 80.1329 26.667 80.6584 27.2383C84.2295 31.122 86.7673 35.8513 88.1612 41.224L88.7849 43.6284L88.8732 58.2514C88.9059 63.6739 88.9097 67.3655 88.8794 69.7478C88.8643 70.9392 88.8406 71.8012 88.8079 72.3878C88.7915 72.6813 88.773 72.9035 88.7526 73.0624C88.7423 73.1419 88.7319 73.2033 88.7216 73.2488C88.7164 73.2714 88.7116 73.2888 88.7074 73.3016C88.7053 73.3079 88.7034 73.3127 88.702 73.3161C88.7006 73.3196 88.6997 73.321 88.6998 73.321C88.4196 73.8223 87.8057 74.1474 87.1072 74.2323C86.411 74.317 85.6689 74.1575 85.1576 73.7366L84.5355 73.2243L84.3942 58.9123C84.2604 45.3642 84.2245 44.4052 83.7427 42.5332C83.4644 41.4517 83.0189 39.971 82.7516 39.2397C82.4634 38.451 81.8908 37.2182 81.3127 36.0852C80.7367 34.9562 80.1449 33.9059 79.8168 33.4916L79.6992 33.5848L79.8168 33.4916L79.3695 32.9271L79.1437 32.6419L79.1029 33.0034L78.9612 34.2601L79.1103 34.2769L78.9612 34.2601C78.8827 34.9575 78.6059 39.7344 78.3458 44.8701C77.926 53.1665 77.8049 54.4557 77.2772 56.4365C75.5581 62.8859 70.7114 68.2507 64.2826 70.8132C58.5019 73.1174 51.5005 72.885 45.9162 70.2039C40.189 67.4546 35.8693 62.4075 34.2719 56.609C33.7151 54.5882 33.4978 51.9953 32.9716 40.9484C32.8643 38.6955 32.7472 36.5701 32.645 34.9605C32.5938 34.1558 32.5464 33.4795 32.5057 32.9804C32.4853 32.731 32.4666 32.5251 32.4499 32.3692C32.4337 32.2178 32.4183 32.103 32.4033 32.0436L32.4032 32.0435L32.229 31.3588L32.1477 31.0389L31.9602 31.3106L30.8508 32.9182C30.8508 32.9182 30.8508 32.9182 30.8508 32.9182C28.8195 35.861 27.466 38.8996 26.4629 42.7636L26.608 42.8013L26.4628 42.7636C26.2067 43.7506 26.0791 44.3583 25.9978 48.7595C25.9165 53.1616 25.8815 61.3724 25.8156 77.5743L25.6826 110.323L25.1798 110.805C24.9801 110.996 24.7951 111.113 24.5521 111.185C24.3033 111.259 23.9857 111.288 23.5158 111.288C22.9947 111.288 22.6929 111.263 22.4615 111.179C22.2376 111.098 22.066 110.957 21.8204 110.684L21.2712 110.072L21.3448 76.9849L21.4185 43.8588L22.0489 41.4291C23.6211 35.3703 26.8289 29.7426 30.8591 25.9621L30.7564 25.8527L30.8591 25.9621L32.0795 24.817L32.1269 24.7726V24.7076V21.4265C32.1269 17.4155 32.5199 15.4527 33.8135 12.9273ZM65.1295 9.20858L65.1092 9.3572L65.1295 9.20858C64.616 9.13831 63.2874 9.08711 61.5692 9.05336C59.8462 9.01952 57.7201 9.00312 55.6035 9.00397C53.4868 9.00482 51.3787 9.02293 49.6917 9.05815C48.0112 9.09324 46.7339 9.14543 46.2904 9.21671C41.3212 10.0152 37.4243 13.6485 36.6828 18.2063C36.6603 18.3448 36.6482 18.6034 36.6435 18.9557C36.6388 19.3119 36.6415 19.7743 36.6509 20.3269C36.6696 21.4323 36.7149 22.9027 36.7801 24.6156C36.9105 28.0417 37.1207 32.4409 37.358 36.8375C37.5952 41.2341 37.8596 45.6288 38.0985 49.046C38.218 50.7545 38.3311 52.2193 38.4313 53.3181C38.4814 53.8674 38.5284 54.3261 38.5713 54.6785C38.6139 55.0268 38.6536 55.2814 38.6909 55.4154C40.3099 61.2267 45.3087 65.9683 51.4577 67.5376L51.4948 67.3922L51.4578 67.5376C52.5386 67.8133 54.1372 67.9519 55.7229 67.956C57.3086 67.9601 58.8997 67.8297 59.9654 67.5593L59.9285 67.4139L59.9654 67.5593C66.3245 65.9454 71.2483 61.253 72.8209 55.2927C72.9059 54.9704 73.0052 54.1806 73.114 53.0589C73.2234 51.9309 73.3435 50.4529 73.4681 48.7426C73.7172 45.3219 73.9842 40.9691 74.2185 36.6234C74.4529 32.2778 74.6546 27.9385 74.7729 24.5448C74.8321 22.848 74.8704 21.3869 74.8816 20.2791C74.8872 19.7253 74.886 19.2589 74.8772 18.895C74.8684 18.5346 74.852 18.2656 74.825 18.1125C74.0202 13.5438 70.0178 9.87784 65.1295 9.20858ZM85.5673 89.6291L85.497 89.4966L85.5673 89.629C86.5145 89.1262 87.544 89.2556 88.2768 89.9572L88.9349 90.5873V100.315C88.9349 105.073 88.9314 107.521 88.8683 108.852C88.8367 109.519 88.7905 109.895 88.7264 110.136C88.6651 110.367 88.5879 110.476 88.4767 110.611C88.201 110.947 87.7611 111.185 87.2629 111.29C86.7655 111.395 86.2234 111.365 85.7533 111.178C85.7252 111.167 85.698 111.156 85.6715 111.146C85.3391 111.015 85.1284 110.932 84.9673 110.754C84.7967 110.567 84.6682 110.253 84.5821 109.598C84.4168 108.34 84.419 105.945 84.4235 101.116L84.4241 100.486C84.4287 95.3561 84.4341 92.78 84.5872 91.4041C84.6639 90.7156 84.7755 90.3525 84.9255 90.1239C85.0721 89.9004 85.2647 89.7896 85.5673 89.6291ZM84.7319 80.7386L84.6021 80.6635L84.7319 80.7386C84.8102 80.6033 84.9442 80.4421 85.1003 80.2927C85.2562 80.1434 85.425 80.0146 85.5673 79.9391C86.7342 79.3199 87.877 79.7211 88.4978 80.4999C89.1168 81.2767 89.2121 82.4206 88.2768 83.3161C87.3659 84.1881 86.1701 84.0862 85.3494 83.4866C84.5297 82.8876 84.11 81.8129 84.7319 80.7386Z" stroke="white" stroke-width="0.3"/>
<path fill-rule="evenodd" clip-rule="evenodd" d="M6.52515 19.9038L2.12132 15.5L0 17.6213L4.40383 22.0252L0.121354 26.3076L2.24267 28.4289L6.52515 24.1465L10.8076 28.4289L12.9289 26.3076L8.64647 22.0252L13.0503 17.6213L10.929 15.5L6.52515 19.9038Z" fill="#3B4040"/>
<path fill-rule="evenodd" clip-rule="evenodd" d="M37.5252 76.9038L33.1213 72.5L31 74.6213L35.4038 79.0252L31.1214 83.3076L33.2427 85.4289L37.5252 81.1465L41.8076 85.4289L43.9289 83.3076L39.6465 79.0252L44.0503 74.6213L41.929 72.5L37.5252 76.9038Z" fill="#3B4040"/>
<path fill-rule="evenodd" clip-rule="evenodd" d="M96.5252 4.90383L92.1213 0.5L90 2.62132L94.4038 7.02515L90.1214 11.3076L92.2427 13.4289L96.5252 9.14647L100.808 13.4289L102.929 11.3076L98.6465 7.02515L103.05 2.62133L100.929 0.500006L96.5252 4.90383Z" fill="#3B4040"/>
<circle cx="10.1211" cy="58.5" r="3.5" stroke="#3B4040" stroke-width="3"/>
<circle cx="101.121" cy="27.5" r="3.5" stroke="#3B4040" stroke-width="3"/>
</svg>
