<svg width="167" height="112" viewBox="0 0 167 112" fill="none" xmlns="http://www.w3.org/2000/svg">
<path d="M16.5 72.5V99.5L17.5 102.5H53L56.5 99.5L60 94L64 91.5L71 88C72 87.1667 74 85.4 74 85C74 84.6 73 82.5 72.5 81.5C71.5 80 69.4 76.9 69 76.5C68.6 76.1 67.1667 68 66.5 64L65.5 62L57.5 61L54.5 66.5L47 68.5L41 64L39 60L32 62.5L21.5 65.5L16.5 72.5Z" fill="#DFEAEB"/>
<path d="M103.5 94.5L108 102.5L109 103.5L146 102.5V71L142 66.5L135.5 64L123.5 60.5L118.5 66.5H112.5L108 65.5L106 60.5L96.5 62V66.5L95 77.5L90 83V88.5L95 90L103.5 94.5Z" fill="#DFEAEB"/>
<path fill-rule="evenodd" clip-rule="evenodd" d="M110.41 0.840803C103.954 2.06813 98.7482 6.01986 95.7974 11.9338C93.1956 17.149 92.5459 20.5519 92.2498 30.5174C92.0166 38.3639 91.8765 39.2028 90.2593 42.4185C89.7933 43.3446 88.601 44.9219 87.5229 46.0379L85.612 48.0154L83.2573 47.8476C76.2278 47.347 69.4788 51.143 66.4007 57.3292C65.989 58.1568 65.6225 58.884 65.5868 58.945C65.5508 59.006 64.2316 58.713 62.6556 58.2939L59.7897 57.5316V56.6356C59.7897 55.8674 59.959 55.64 60.978 55.0409C65.6075 52.3187 69.5966 47.0529 71.2735 41.4503C71.8379 39.5642 71.8924 38.7505 71.9922 30.7373C72.1122 21.0835 71.9488 19.4769 70.4538 15.5974C68.9498 11.6941 65.8049 7.64444 62.3928 5.21687C49.0609 -4.26876 30.7714 2.25225 26.1861 18.1262C25.6006 20.153 25.5704 20.7146 25.5704 29.5598C25.5704 40.0443 25.6568 40.6845 27.6595 45.0171C29.5038 49.0077 33.0035 52.9758 36.4832 55.022C37.5316 55.6384 37.7039 55.8649 37.7039 56.6282V57.5169L33.9548 58.5524C24.9686 61.0341 21.5197 62.6508 18.1771 65.9473C15.8229 68.2692 14.6933 70.117 13.8186 73.0778C13.3946 74.5125 13.3264 76.3284 13.2353 88.6281C13.1582 99.0391 13.2146 102.754 13.4592 103.346C14.1324 104.977 13.5685 104.934 34.0093 104.934H52.7004V107.136C52.7004 109.479 53.1078 110.713 54.0487 111.218C54.3746 111.393 57.6337 111.5 62.6556 111.5H70.7382L71.5352 110.7C72.6231 109.609 72.6237 108.28 71.5371 107.059L70.7418 106.165L64.4479 106.078L58.1537 105.991L58.1559 104.847C58.1594 102.879 58.7031 100.209 59.4339 98.5737C60.72 95.6942 63.126 94.0534 68.7145 92.2453C70.3988 91.7003 71.8384 91.2543 71.9137 91.2543C71.9889 91.2543 72.3513 91.8505 72.7194 92.5791C73.6323 94.3864 76.0486 96.5442 77.9908 97.2859C81.2677 98.5376 85.6475 97.8957 88.3883 95.762C89.4806 94.9117 91.4345 92.4379 91.7399 91.5189C91.8803 91.0962 97.5708 92.9511 99.949 94.1949C103.514 96.0594 105.178 98.9176 105.519 103.762L105.678 106.028H99.9029C93.699 106.028 92.7217 106.198 91.8634 107.428C91.1517 108.448 91.2949 109.776 92.2157 110.7L93.0127 111.5H101.095C106.117 111.5 109.376 111.393 109.702 111.218C110.643 110.713 111.05 109.479 111.05 107.136V104.934H129.749H148.447L149.244 104.134L150.041 103.334V89.6194C150.041 77.928 149.976 75.614 149.597 73.9353C149.013 71.3507 148.219 69.6145 146.652 67.4939C145.946 66.5388 145.407 65.7292 145.455 65.6945C145.503 65.66 145.985 65.3651 146.526 65.0392C149.04 63.5238 151.377 59.8979 152.411 55.9103C152.85 54.2179 152.853 54.0119 152.446 53.1569C152.074 52.3742 151.637 52.0787 149.593 51.2281C148.265 50.6758 146.385 49.7603 145.415 49.194C142.896 47.7232 140.009 44.7602 138.788 42.3934C137.088 39.0985 136.918 38.0605 136.68 29.5598C136.447 21.2274 136.158 19.06 134.735 14.9736C132.661 9.02388 129.299 5.05272 124.275 2.62187C120.365 0.729998 114.772 0.0115515 110.41 0.840803ZM119.503 6.59358C125.791 8.46904 129.569 13.6177 130.834 22.035C131.465 26.2338 131.522 26.0518 129.523 26.2037C124.038 26.6206 119.686 24.5041 117.297 20.2567C116.481 18.8055 115.642 18.2058 114.428 18.2058C113.341 18.2058 112.763 18.6573 111.707 20.3338C108.857 24.8565 105.571 26.4204 99.3941 26.1927L97.9626 26.1399V24.8021C97.9626 22.8796 98.6963 19.2745 99.5841 16.8332C101.709 10.9904 105.959 7.16237 111.416 6.17526C113.344 5.8267 117.685 6.05132 119.503 6.59358ZM53.3368 6.87401C58.9791 8.33553 64.0173 13.1261 65.8305 18.753C66.2237 19.9732 66.4459 21.5401 66.5384 23.746L66.6736 26.9607H63.1985C55.986 26.9607 49.0631 25.2344 44.5047 22.2996C42.4867 21 41.5567 21.1488 39.5207 23.0971C37.537 24.9958 36.1186 25.7679 33.6532 26.2923C30.583 26.9454 30.7892 27.1506 30.9585 23.6092C31.202 18.5109 32.694 15.0801 36.2182 11.5138C40.6792 7.00013 47.1029 5.25901 53.3368 6.87401ZM119.637 29.8471C122.479 31.2386 124.348 31.6369 128.058 31.6427L131.296 31.6476L131.155 34.5706C130.933 39.1532 129.438 42.5786 126.261 45.7826C119.752 52.3485 109.288 52.3255 102.746 45.7306C99.5844 42.5438 98.0736 39.0665 97.775 34.2891L97.6087 31.6314L100.72 31.6429C105.962 31.6618 109.714 30.3546 112.866 27.4113L114.448 25.9339L116.087 27.4228C116.989 28.2417 118.586 29.3325 119.637 29.8471ZM44.8229 28.7103C49.9163 31.0583 54.8512 32.1239 61.6623 32.3474L66.6706 32.5118L66.5438 35.6869C66.4519 37.9847 66.2496 39.3532 65.8115 40.6402C63.992 45.9851 59.529 50.4738 54.3364 52.181C51.8688 52.9922 46.9652 53.1764 44.5205 52.5493C36.373 50.4591 30.8873 43.2825 30.8873 34.7142C30.8873 32.1597 30.8876 32.1589 31.5804 32.1589C34.2125 32.1589 39.3969 30.3759 41.5212 28.7401C42.1961 28.2203 42.7616 27.7921 42.7779 27.7883C42.7943 27.7845 43.7145 28.1995 44.8229 28.7103ZM96.4071 46.7276C97.7897 48.6671 100.208 51.0522 102.121 52.3638L103.416 53.2516V55.3911V57.5308L100.791 58.2616C99.3469 58.6635 98.1483 58.9565 98.127 58.913C98.1055 58.8695 97.8293 58.2799 97.513 57.6028C96.5791 55.6039 94.5363 53.0434 92.7907 51.6831L91.1618 50.4139L92.5352 48.7647C93.2905 47.8575 94.1764 46.6444 94.5041 46.0688C94.8316 45.4929 95.1195 45.0209 95.1438 45.0198C95.1681 45.0185 95.7366 45.7872 96.4071 46.7276ZM134.632 46.2674C136.379 49.2586 140.462 52.8289 144.625 55.0061L146.723 56.103L146.046 57.5311C145.193 59.333 143.635 60.6815 141.703 61.2913C139.668 61.9334 139.333 61.9077 136.817 60.9184C135.617 60.4467 132.857 59.5633 130.682 58.9554C128.508 58.3475 126.514 57.7861 126.251 57.7078C125.847 57.5877 125.774 57.223 125.775 55.3273L125.775 53.0885L127.07 52.2716C128.762 51.2038 131.681 48.2654 132.848 46.454C133.357 45.6641 133.802 45.0176 133.838 45.0176C133.874 45.0176 134.231 45.5801 134.632 46.2674ZM84.7289 53.6448C86.8911 54.2097 88.8131 55.2945 90.3136 56.7968C91.5746 58.0588 93.1046 60.644 93.4429 62.0842C93.6521 62.9739 93.9076 62.9947 90.7182 61.8631C85.154 59.8894 78.5012 59.8944 73.0196 61.8763C69.942 62.9889 70.0626 62.9736 70.2755 62.2253C70.757 60.5351 72.1771 58.1103 73.4092 56.8739C76.4849 53.7878 80.6883 52.5887 84.7289 53.6448ZM115.686 56.1202C117.11 56.0348 118.681 55.8477 119.176 55.7046C120.354 55.364 120.442 55.6162 120.239 58.7612C120.03 61.9851 119.25 63.4007 117.067 64.5109C114.816 65.6559 112.682 65.4162 110.864 63.8144C109.328 62.4617 108.882 61.1865 108.875 58.1322L108.869 55.5153L110.982 55.8953C112.352 56.1415 114.006 56.2206 115.686 56.1202ZM48.7468 58.2867C50.6963 58.2867 52.765 58.2 53.3439 58.0939L54.3967 57.901L54.2914 59.7688C54.2069 61.2694 54.034 61.8571 53.4123 62.7569C52.4924 64.0893 50.3416 65.2633 48.821 65.2633C45.7205 65.2633 43.1572 62.6004 43.1572 59.3797V57.8515L44.1797 58.0692C44.7422 58.1888 46.7973 58.2867 48.7468 58.2867ZM38.8161 64.5008C40.2042 67.4996 43.5204 69.9245 47.0669 70.534C51.6166 71.3159 56.4935 68.8361 58.5728 64.6836C58.9782 63.8737 59.3343 63.1824 59.3643 63.1468C59.4093 63.0932 62.2933 63.8398 63.911 64.3241C64.2813 64.4351 64.3748 65.0958 64.4989 68.4848C64.7211 74.5634 65.9513 77.7114 69.5358 81.3758C71.3457 83.2261 71.514 83.494 71.5118 84.5221L71.5096 85.6457L67.7626 86.8263C62.7871 88.394 59.9874 89.7999 57.7564 91.851C55.7867 93.6625 54.828 95.1078 53.9097 97.653L53.3066 99.3252L43.347 99.3969L33.3874 99.4686L33.2963 93.4236L33.205 87.3784L32.3144 86.5806C31.1583 85.5445 29.8853 85.5128 28.727 86.4909L27.888 87.1992V93.3306V99.462H23.2527H18.6175V88.2821C18.6175 81.9164 18.7358 76.4764 18.8923 75.6488C19.7097 71.323 22.2902 68.5428 27.5112 66.3618C29.1063 65.6956 37.1681 63.1815 37.9981 63.0918C38.0851 63.0822 38.4532 63.7164 38.8161 64.5008ZM104.607 64.5303C106.85 69.1313 112.332 71.6609 117.226 70.3534C120.363 69.5154 122.995 67.3905 124.425 64.5418C124.792 63.81 125.103 63.1807 125.115 63.1432C125.148 63.0437 130.74 64.6209 133.273 65.4441C138.786 67.2364 142.45 69.9986 143.815 73.393C144.444 74.9574 144.453 75.1177 144.533 87.2189L144.614 99.462H140.102H135.59V93.6986C135.59 89.9928 135.481 87.722 135.286 87.3376C134.405 85.6102 132.272 85.24 130.934 86.5822L130.137 87.3819V93.4256V99.4689L120.283 99.3969L110.429 99.3252L110.103 98.2164C109.008 94.4969 105.863 90.9605 101.991 89.0952C100.75 88.4976 98.3239 87.5601 96.5993 87.0118C92.0349 85.5609 92.2367 85.6761 92.2367 84.527C92.2367 83.6691 92.5091 83.2431 94.232 81.4051C97.9176 77.4742 99.3259 73.6973 99.3259 67.7445V64.2945L101.439 63.7123C102.601 63.3919 103.63 63.1175 103.725 63.1022C103.82 63.0872 104.217 63.7295 104.607 64.5303ZM85.1474 66.095C87.5144 66.4698 90.6773 67.5396 92.4731 68.5729L93.9367 69.4147L93.759 70.7594C93.3516 73.8406 91.6125 76.8132 89.0945 78.733C85.0005 81.8543 79.0106 81.9069 74.8873 78.8577C73.1025 77.5376 72.1934 76.4523 71.1778 74.4286C70.5569 73.1911 69.8782 70.7614 69.8782 69.7756C69.8782 68.9051 75.0619 66.6676 78.3436 66.1218C80.4241 65.7757 83.064 65.7653 85.1474 66.095ZM81.8755 86.4665C83.3001 86.4665 84.9874 86.3727 85.6246 86.258L86.7834 86.0496V87.5713C86.7834 90.1468 85.4607 91.7862 82.9465 92.3273C79.569 93.0543 76.9675 90.923 76.9675 87.4295V86.0496L78.1263 86.258C78.7638 86.3727 80.4508 86.4665 81.8755 86.4665ZM80.8734 106.427C78.1337 107.623 78.9271 111.5 81.9117 111.5C82.76 111.5 83.1883 111.319 83.8051 110.7C85.2088 109.292 84.724 107.215 82.8028 106.41C81.7334 105.961 81.9458 105.96 80.8734 106.427Z" fill="#3B4040"/>
<mask id="path-4-inside-1_297_286" fill="white">
<path fill-rule="evenodd" clip-rule="evenodd" d="M110.41 0.840803C103.954 2.06813 98.7482 6.01986 95.7974 11.9338C93.1956 17.149 92.5459 20.5519 92.2498 30.5174C92.0166 38.3639 91.8765 39.2028 90.2593 42.4185C89.7933 43.3446 88.601 44.9219 87.5229 46.0379L85.612 48.0154L83.2573 47.8476C76.2278 47.347 69.4788 51.143 66.4007 57.3292C65.989 58.1568 65.6225 58.884 65.5868 58.945C65.5508 59.006 64.2316 58.713 62.6556 58.2939L59.7897 57.5316V56.6356C59.7897 55.8674 59.959 55.64 60.978 55.0409C65.6075 52.3187 69.5966 47.0529 71.2735 41.4503C71.8379 39.5642 71.8924 38.7505 71.9922 30.7373C72.1122 21.0835 71.9488 19.4769 70.4538 15.5974C68.9498 11.6941 65.8049 7.64444 62.3928 5.21687C49.0609 -4.26876 30.7714 2.25225 26.1861 18.1262C25.6006 20.153 25.5704 20.7146 25.5704 29.5598C25.5704 40.0443 25.6568 40.6845 27.6595 45.0171C29.5038 49.0077 33.0035 52.9758 36.4832 55.022C37.5316 55.6384 37.7039 55.8649 37.7039 56.6282V57.5169L33.9548 58.5524C24.9686 61.0341 21.5197 62.6508 18.1771 65.9473C15.8229 68.2692 14.6933 70.117 13.8186 73.0778C13.3946 74.5125 13.3264 76.3284 13.2353 88.6281C13.1582 99.0391 13.2146 102.754 13.4592 103.346C14.1324 104.977 13.5685 104.934 34.0093 104.934H52.7004V107.136C52.7004 109.479 53.1078 110.713 54.0487 111.218C54.3746 111.393 57.6337 111.5 62.6556 111.5H70.7382L71.5352 110.7C72.6231 109.609 72.6237 108.28 71.5371 107.059L70.7418 106.165L64.4479 106.078L58.1537 105.991L58.1559 104.847C58.1594 102.879 58.7031 100.209 59.4339 98.5737C60.72 95.6942 63.126 94.0534 68.7145 92.2453C70.3988 91.7003 71.8384 91.2543 71.9137 91.2543C71.9889 91.2543 72.3513 91.8505 72.7194 92.5791C73.6323 94.3864 76.0486 96.5442 77.9908 97.2859C81.2677 98.5376 85.6475 97.8957 88.3883 95.762C89.4806 94.9117 91.4345 92.4379 91.7399 91.5189C91.8803 91.0962 97.5708 92.9511 99.949 94.1949C103.514 96.0594 105.178 98.9176 105.519 103.762L105.678 106.028H99.9029C93.699 106.028 92.7217 106.198 91.8634 107.428C91.1517 108.448 91.2949 109.776 92.2157 110.7L93.0127 111.5H101.095C106.117 111.5 109.376 111.393 109.702 111.218C110.643 110.713 111.05 109.479 111.05 107.136V104.934H129.749H148.447L149.244 104.134L150.041 103.334V89.6194C150.041 77.928 149.976 75.614 149.597 73.9353C149.013 71.3507 148.219 69.6145 146.652 67.4939C145.946 66.5388 145.407 65.7292 145.455 65.6945C145.503 65.66 145.985 65.3651 146.526 65.0392C149.04 63.5238 151.377 59.8979 152.411 55.9103C152.85 54.2179 152.853 54.0119 152.446 53.1569C152.074 52.3742 151.637 52.0787 149.593 51.2281C148.265 50.6758 146.385 49.7603 145.415 49.194C142.896 47.7232 140.009 44.7602 138.788 42.3934C137.088 39.0985 136.918 38.0605 136.68 29.5598C136.447 21.2274 136.158 19.06 134.735 14.9736C132.661 9.02388 129.299 5.05272 124.275 2.62187C120.365 0.729998 114.772 0.0115515 110.41 0.840803ZM119.503 6.59358C125.791 8.46904 129.569 13.6177 130.834 22.035C131.465 26.2338 131.522 26.0518 129.523 26.2037C124.038 26.6206 119.686 24.5041 117.297 20.2567C116.481 18.8055 115.642 18.2058 114.428 18.2058C113.341 18.2058 112.763 18.6573 111.707 20.3338C108.857 24.8565 105.571 26.4204 99.3941 26.1927L97.9626 26.1399V24.8021C97.9626 22.8796 98.6963 19.2745 99.5841 16.8332C101.709 10.9904 105.959 7.16237 111.416 6.17526C113.344 5.8267 117.685 6.05132 119.503 6.59358ZM53.3368 6.87401C58.9791 8.33553 64.0173 13.1261 65.8305 18.753C66.2237 19.9732 66.4459 21.5401 66.5384 23.746L66.6736 26.9607H63.1985C55.986 26.9607 49.0631 25.2344 44.5047 22.2996C42.4867 21 41.5567 21.1488 39.5207 23.0971C37.537 24.9958 36.1186 25.7679 33.6532 26.2923C30.583 26.9454 30.7892 27.1506 30.9585 23.6092C31.202 18.5109 32.694 15.0801 36.2182 11.5138C40.6792 7.00013 47.1029 5.25901 53.3368 6.87401ZM119.637 29.8471C122.479 31.2386 124.348 31.6369 128.058 31.6427L131.296 31.6476L131.155 34.5706C130.933 39.1532 129.438 42.5786 126.261 45.7826C119.752 52.3485 109.288 52.3255 102.746 45.7306C99.5844 42.5438 98.0736 39.0665 97.775 34.2891L97.6087 31.6314L100.72 31.6429C105.962 31.6618 109.714 30.3546 112.866 27.4113L114.448 25.9339L116.087 27.4228C116.989 28.2417 118.586 29.3325 119.637 29.8471ZM44.8229 28.7103C49.9163 31.0583 54.8512 32.1239 61.6623 32.3474L66.6706 32.5118L66.5438 35.6869C66.4519 37.9847 66.2496 39.3532 65.8115 40.6402C63.992 45.9851 59.529 50.4738 54.3364 52.181C51.8688 52.9922 46.9652 53.1764 44.5205 52.5493C36.373 50.4591 30.8873 43.2825 30.8873 34.7142C30.8873 32.1597 30.8876 32.1589 31.5804 32.1589C34.2125 32.1589 39.3969 30.3759 41.5212 28.7401C42.1961 28.2203 42.7616 27.7921 42.7779 27.7883C42.7943 27.7845 43.7145 28.1995 44.8229 28.7103ZM96.4071 46.7276C97.7897 48.6671 100.208 51.0522 102.121 52.3638L103.416 53.2516V55.3911V57.5308L100.791 58.2616C99.3469 58.6635 98.1483 58.9565 98.127 58.913C98.1055 58.8695 97.8293 58.2799 97.513 57.6028C96.5791 55.6039 94.5363 53.0434 92.7907 51.6831L91.1618 50.4139L92.5352 48.7647C93.2905 47.8575 94.1764 46.6444 94.5041 46.0688C94.8316 45.4929 95.1195 45.0209 95.1438 45.0198C95.1681 45.0185 95.7366 45.7872 96.4071 46.7276ZM134.632 46.2674C136.379 49.2586 140.462 52.8289 144.625 55.0061L146.723 56.103L146.046 57.5311C145.193 59.333 143.635 60.6815 141.703 61.2913C139.668 61.9334 139.333 61.9077 136.817 60.9184C135.617 60.4467 132.857 59.5633 130.682 58.9554C128.508 58.3475 126.514 57.7861 126.251 57.7078C125.847 57.5877 125.774 57.223 125.775 55.3273L125.775 53.0885L127.07 52.2716C128.762 51.2038 131.681 48.2654 132.848 46.454C133.357 45.6641 133.802 45.0176 133.838 45.0176C133.874 45.0176 134.231 45.5801 134.632 46.2674ZM84.7289 53.6448C86.8911 54.2097 88.8131 55.2945 90.3136 56.7968C91.5746 58.0588 93.1046 60.644 93.4429 62.0842C93.6521 62.9739 93.9076 62.9947 90.7182 61.8631C85.154 59.8894 78.5012 59.8944 73.0196 61.8763C69.942 62.9889 70.0626 62.9736 70.2755 62.2253C70.757 60.5351 72.1771 58.1103 73.4092 56.8739C76.4849 53.7878 80.6883 52.5887 84.7289 53.6448ZM115.686 56.1202C117.11 56.0348 118.681 55.8477 119.176 55.7046C120.354 55.364 120.442 55.6162 120.239 58.7612C120.03 61.9851 119.25 63.4007 117.067 64.5109C114.816 65.6559 112.682 65.4162 110.864 63.8144C109.328 62.4617 108.882 61.1865 108.875 58.1322L108.869 55.5153L110.982 55.8953C112.352 56.1415 114.006 56.2206 115.686 56.1202ZM48.7468 58.2867C50.6963 58.2867 52.765 58.2 53.3439 58.0939L54.3967 57.901L54.2914 59.7688C54.2069 61.2694 54.034 61.8571 53.4123 62.7569C52.4924 64.0893 50.3416 65.2633 48.821 65.2633C45.7205 65.2633 43.1572 62.6004 43.1572 59.3797V57.8515L44.1797 58.0692C44.7422 58.1888 46.7973 58.2867 48.7468 58.2867ZM38.8161 64.5008C40.2042 67.4996 43.5204 69.9245 47.0669 70.534C51.6166 71.3159 56.4935 68.8361 58.5728 64.6836C58.9782 63.8737 59.3343 63.1824 59.3643 63.1468C59.4093 63.0932 62.2933 63.8398 63.911 64.3241C64.2813 64.4351 64.3748 65.0958 64.4989 68.4848C64.7211 74.5634 65.9513 77.7114 69.5358 81.3758C71.3457 83.2261 71.514 83.494 71.5118 84.5221L71.5096 85.6457L67.7626 86.8263C62.7871 88.394 59.9874 89.7999 57.7564 91.851C55.7867 93.6625 54.828 95.1078 53.9097 97.653L53.3066 99.3252L43.347 99.3969L33.3874 99.4686L33.2963 93.4236L33.205 87.3784L32.3144 86.5806C31.1583 85.5445 29.8853 85.5128 28.727 86.4909L27.888 87.1992V93.3306V99.462H23.2527H18.6175V88.2821C18.6175 81.9164 18.7358 76.4764 18.8923 75.6488C19.7097 71.323 22.2902 68.5428 27.5112 66.3618C29.1063 65.6956 37.1681 63.1815 37.9981 63.0918C38.0851 63.0822 38.4532 63.7164 38.8161 64.5008ZM104.607 64.5303C106.85 69.1313 112.332 71.6609 117.226 70.3534C120.363 69.5154 122.995 67.3905 124.425 64.5418C124.792 63.81 125.103 63.1807 125.115 63.1432C125.148 63.0437 130.74 64.6209 133.273 65.4441C138.786 67.2364 142.45 69.9986 143.815 73.393C144.444 74.9574 144.453 75.1177 144.533 87.2189L144.614 99.462H140.102H135.59V93.6986C135.59 89.9928 135.481 87.722 135.286 87.3376C134.405 85.6102 132.272 85.24 130.934 86.5822L130.137 87.3819V93.4256V99.4689L120.283 99.3969L110.429 99.3252L110.103 98.2164C109.008 94.4969 105.863 90.9605 101.991 89.0952C100.75 88.4976 98.3239 87.5601 96.5993 87.0118C92.0349 85.5609 92.2367 85.6761 92.2367 84.527C92.2367 83.6691 92.5091 83.2431 94.232 81.4051C97.9176 77.4742 99.3259 73.6973 99.3259 67.7445V64.2945L101.439 63.7123C102.601 63.3919 103.63 63.1175 103.725 63.1022C103.82 63.0872 104.217 63.7295 104.607 64.5303ZM85.1474 66.095C87.5144 66.4698 90.6773 67.5396 92.4731 68.5729L93.9367 69.4147L93.759 70.7594C93.3516 73.8406 91.6125 76.8132 89.0945 78.733C85.0005 81.8543 79.0106 81.9069 74.8873 78.8577C73.1025 77.5376 72.1934 76.4523 71.1778 74.4286C70.5569 73.1911 69.8782 70.7614 69.8782 69.7756C69.8782 68.9051 75.0619 66.6676 78.3436 66.1218C80.4241 65.7757 83.064 65.7653 85.1474 66.095ZM81.8755 86.4665C83.3001 86.4665 84.9874 86.3727 85.6246 86.258L86.7834 86.0496V87.5713C86.7834 90.1468 85.4607 91.7862 82.9465 92.3273C79.569 93.0543 76.9675 90.923 76.9675 87.4295V86.0496L78.1263 86.258C78.7638 86.3727 80.4508 86.4665 81.8755 86.4665ZM80.8734 106.427C78.1337 107.623 78.9271 111.5 81.9117 111.5C82.76 111.5 83.1883 111.319 83.8051 110.7C85.2088 109.292 84.724 107.215 82.8028 106.41C81.7334 105.961 81.9458 105.96 80.8734 106.427Z"/>
</mask>
<path fill-rule="evenodd" clip-rule="evenodd" d="M110.41 0.840803C103.954 2.06813 98.7482 6.01986 95.7974 11.9338C93.1956 17.149 92.5459 20.5519 92.2498 30.5174C92.0166 38.3639 91.8765 39.2028 90.2593 42.4185C89.7933 43.3446 88.601 44.9219 87.5229 46.0379L85.612 48.0154L83.2573 47.8476C76.2278 47.347 69.4788 51.143 66.4007 57.3292C65.989 58.1568 65.6225 58.884 65.5868 58.945C65.5508 59.006 64.2316 58.713 62.6556 58.2939L59.7897 57.5316V56.6356C59.7897 55.8674 59.959 55.64 60.978 55.0409C65.6075 52.3187 69.5966 47.0529 71.2735 41.4503C71.8379 39.5642 71.8924 38.7505 71.9922 30.7373C72.1122 21.0835 71.9488 19.4769 70.4538 15.5974C68.9498 11.6941 65.8049 7.64444 62.3928 5.21687C49.0609 -4.26876 30.7714 2.25225 26.1861 18.1262C25.6006 20.153 25.5704 20.7146 25.5704 29.5598C25.5704 40.0443 25.6568 40.6845 27.6595 45.0171C29.5038 49.0077 33.0035 52.9758 36.4832 55.022C37.5316 55.6384 37.7039 55.8649 37.7039 56.6282V57.5169L33.9548 58.5524C24.9686 61.0341 21.5197 62.6508 18.1771 65.9473C15.8229 68.2692 14.6933 70.117 13.8186 73.0778C13.3946 74.5125 13.3264 76.3284 13.2353 88.6281C13.1582 99.0391 13.2146 102.754 13.4592 103.346C14.1324 104.977 13.5685 104.934 34.0093 104.934H52.7004V107.136C52.7004 109.479 53.1078 110.713 54.0487 111.218C54.3746 111.393 57.6337 111.5 62.6556 111.5H70.7382L71.5352 110.7C72.6231 109.609 72.6237 108.28 71.5371 107.059L70.7418 106.165L64.4479 106.078L58.1537 105.991L58.1559 104.847C58.1594 102.879 58.7031 100.209 59.4339 98.5737C60.72 95.6942 63.126 94.0534 68.7145 92.2453C70.3988 91.7003 71.8384 91.2543 71.9137 91.2543C71.9889 91.2543 72.3513 91.8505 72.7194 92.5791C73.6323 94.3864 76.0486 96.5442 77.9908 97.2859C81.2677 98.5376 85.6475 97.8957 88.3883 95.762C89.4806 94.9117 91.4345 92.4379 91.7399 91.5189C91.8803 91.0962 97.5708 92.9511 99.949 94.1949C103.514 96.0594 105.178 98.9176 105.519 103.762L105.678 106.028H99.9029C93.699 106.028 92.7217 106.198 91.8634 107.428C91.1517 108.448 91.2949 109.776 92.2157 110.7L93.0127 111.5H101.095C106.117 111.5 109.376 111.393 109.702 111.218C110.643 110.713 111.05 109.479 111.05 107.136V104.934H129.749H148.447L149.244 104.134L150.041 103.334V89.6194C150.041 77.928 149.976 75.614 149.597 73.9353C149.013 71.3507 148.219 69.6145 146.652 67.4939C145.946 66.5388 145.407 65.7292 145.455 65.6945C145.503 65.66 145.985 65.3651 146.526 65.0392C149.04 63.5238 151.377 59.8979 152.411 55.9103C152.85 54.2179 152.853 54.0119 152.446 53.1569C152.074 52.3742 151.637 52.0787 149.593 51.2281C148.265 50.6758 146.385 49.7603 145.415 49.194C142.896 47.7232 140.009 44.7602 138.788 42.3934C137.088 39.0985 136.918 38.0605 136.68 29.5598C136.447 21.2274 136.158 19.06 134.735 14.9736C132.661 9.02388 129.299 5.05272 124.275 2.62187C120.365 0.729998 114.772 0.0115515 110.41 0.840803ZM119.503 6.59358C125.791 8.46904 129.569 13.6177 130.834 22.035C131.465 26.2338 131.522 26.0518 129.523 26.2037C124.038 26.6206 119.686 24.5041 117.297 20.2567C116.481 18.8055 115.642 18.2058 114.428 18.2058C113.341 18.2058 112.763 18.6573 111.707 20.3338C108.857 24.8565 105.571 26.4204 99.3941 26.1927L97.9626 26.1399V24.8021C97.9626 22.8796 98.6963 19.2745 99.5841 16.8332C101.709 10.9904 105.959 7.16237 111.416 6.17526C113.344 5.8267 117.685 6.05132 119.503 6.59358ZM53.3368 6.87401C58.9791 8.33553 64.0173 13.1261 65.8305 18.753C66.2237 19.9732 66.4459 21.5401 66.5384 23.746L66.6736 26.9607H63.1985C55.986 26.9607 49.0631 25.2344 44.5047 22.2996C42.4867 21 41.5567 21.1488 39.5207 23.0971C37.537 24.9958 36.1186 25.7679 33.6532 26.2923C30.583 26.9454 30.7892 27.1506 30.9585 23.6092C31.202 18.5109 32.694 15.0801 36.2182 11.5138C40.6792 7.00013 47.1029 5.25901 53.3368 6.87401ZM119.637 29.8471C122.479 31.2386 124.348 31.6369 128.058 31.6427L131.296 31.6476L131.155 34.5706C130.933 39.1532 129.438 42.5786 126.261 45.7826C119.752 52.3485 109.288 52.3255 102.746 45.7306C99.5844 42.5438 98.0736 39.0665 97.775 34.2891L97.6087 31.6314L100.72 31.6429C105.962 31.6618 109.714 30.3546 112.866 27.4113L114.448 25.9339L116.087 27.4228C116.989 28.2417 118.586 29.3325 119.637 29.8471ZM44.8229 28.7103C49.9163 31.0583 54.8512 32.1239 61.6623 32.3474L66.6706 32.5118L66.5438 35.6869C66.4519 37.9847 66.2496 39.3532 65.8115 40.6402C63.992 45.9851 59.529 50.4738 54.3364 52.181C51.8688 52.9922 46.9652 53.1764 44.5205 52.5493C36.373 50.4591 30.8873 43.2825 30.8873 34.7142C30.8873 32.1597 30.8876 32.1589 31.5804 32.1589C34.2125 32.1589 39.3969 30.3759 41.5212 28.7401C42.1961 28.2203 42.7616 27.7921 42.7779 27.7883C42.7943 27.7845 43.7145 28.1995 44.8229 28.7103ZM96.4071 46.7276C97.7897 48.6671 100.208 51.0522 102.121 52.3638L103.416 53.2516V55.3911V57.5308L100.791 58.2616C99.3469 58.6635 98.1483 58.9565 98.127 58.913C98.1055 58.8695 97.8293 58.2799 97.513 57.6028C96.5791 55.6039 94.5363 53.0434 92.7907 51.6831L91.1618 50.4139L92.5352 48.7647C93.2905 47.8575 94.1764 46.6444 94.5041 46.0688C94.8316 45.4929 95.1195 45.0209 95.1438 45.0198C95.1681 45.0185 95.7366 45.7872 96.4071 46.7276ZM134.632 46.2674C136.379 49.2586 140.462 52.8289 144.625 55.0061L146.723 56.103L146.046 57.5311C145.193 59.333 143.635 60.6815 141.703 61.2913C139.668 61.9334 139.333 61.9077 136.817 60.9184C135.617 60.4467 132.857 59.5633 130.682 58.9554C128.508 58.3475 126.514 57.7861 126.251 57.7078C125.847 57.5877 125.774 57.223 125.775 55.3273L125.775 53.0885L127.07 52.2716C128.762 51.2038 131.681 48.2654 132.848 46.454C133.357 45.6641 133.802 45.0176 133.838 45.0176C133.874 45.0176 134.231 45.5801 134.632 46.2674ZM84.7289 53.6448C86.8911 54.2097 88.8131 55.2945 90.3136 56.7968C91.5746 58.0588 93.1046 60.644 93.4429 62.0842C93.6521 62.9739 93.9076 62.9947 90.7182 61.8631C85.154 59.8894 78.5012 59.8944 73.0196 61.8763C69.942 62.9889 70.0626 62.9736 70.2755 62.2253C70.757 60.5351 72.1771 58.1103 73.4092 56.8739C76.4849 53.7878 80.6883 52.5887 84.7289 53.6448ZM115.686 56.1202C117.11 56.0348 118.681 55.8477 119.176 55.7046C120.354 55.364 120.442 55.6162 120.239 58.7612C120.03 61.9851 119.25 63.4007 117.067 64.5109C114.816 65.6559 112.682 65.4162 110.864 63.8144C109.328 62.4617 108.882 61.1865 108.875 58.1322L108.869 55.5153L110.982 55.8953C112.352 56.1415 114.006 56.2206 115.686 56.1202ZM48.7468 58.2867C50.6963 58.2867 52.765 58.2 53.3439 58.0939L54.3967 57.901L54.2914 59.7688C54.2069 61.2694 54.034 61.8571 53.4123 62.7569C52.4924 64.0893 50.3416 65.2633 48.821 65.2633C45.7205 65.2633 43.1572 62.6004 43.1572 59.3797V57.8515L44.1797 58.0692C44.7422 58.1888 46.7973 58.2867 48.7468 58.2867ZM38.8161 64.5008C40.2042 67.4996 43.5204 69.9245 47.0669 70.534C51.6166 71.3159 56.4935 68.8361 58.5728 64.6836C58.9782 63.8737 59.3343 63.1824 59.3643 63.1468C59.4093 63.0932 62.2933 63.8398 63.911 64.3241C64.2813 64.4351 64.3748 65.0958 64.4989 68.4848C64.7211 74.5634 65.9513 77.7114 69.5358 81.3758C71.3457 83.2261 71.514 83.494 71.5118 84.5221L71.5096 85.6457L67.7626 86.8263C62.7871 88.394 59.9874 89.7999 57.7564 91.851C55.7867 93.6625 54.828 95.1078 53.9097 97.653L53.3066 99.3252L43.347 99.3969L33.3874 99.4686L33.2963 93.4236L33.205 87.3784L32.3144 86.5806C31.1583 85.5445 29.8853 85.5128 28.727 86.4909L27.888 87.1992V93.3306V99.462H23.2527H18.6175V88.2821C18.6175 81.9164 18.7358 76.4764 18.8923 75.6488C19.7097 71.323 22.2902 68.5428 27.5112 66.3618C29.1063 65.6956 37.1681 63.1815 37.9981 63.0918C38.0851 63.0822 38.4532 63.7164 38.8161 64.5008ZM104.607 64.5303C106.85 69.1313 112.332 71.6609 117.226 70.3534C120.363 69.5154 122.995 67.3905 124.425 64.5418C124.792 63.81 125.103 63.1807 125.115 63.1432C125.148 63.0437 130.74 64.6209 133.273 65.4441C138.786 67.2364 142.45 69.9986 143.815 73.393C144.444 74.9574 144.453 75.1177 144.533 87.2189L144.614 99.462H140.102H135.59V93.6986C135.59 89.9928 135.481 87.722 135.286 87.3376C134.405 85.6102 132.272 85.24 130.934 86.5822L130.137 87.3819V93.4256V99.4689L120.283 99.3969L110.429 99.3252L110.103 98.2164C109.008 94.4969 105.863 90.9605 101.991 89.0952C100.75 88.4976 98.3239 87.5601 96.5993 87.0118C92.0349 85.5609 92.2367 85.6761 92.2367 84.527C92.2367 83.6691 92.5091 83.2431 94.232 81.4051C97.9176 77.4742 99.3259 73.6973 99.3259 67.7445V64.2945L101.439 63.7123C102.601 63.3919 103.63 63.1175 103.725 63.1022C103.82 63.0872 104.217 63.7295 104.607 64.5303ZM85.1474 66.095C87.5144 66.4698 90.6773 67.5396 92.4731 68.5729L93.9367 69.4147L93.759 70.7594C93.3516 73.8406 91.6125 76.8132 89.0945 78.733C85.0005 81.8543 79.0106 81.9069 74.8873 78.8577C73.1025 77.5376 72.1934 76.4523 71.1778 74.4286C70.5569 73.1911 69.8782 70.7614 69.8782 69.7756C69.8782 68.9051 75.0619 66.6676 78.3436 66.1218C80.4241 65.7757 83.064 65.7653 85.1474 66.095ZM81.8755 86.4665C83.3001 86.4665 84.9874 86.3727 85.6246 86.258L86.7834 86.0496V87.5713C86.7834 90.1468 85.4607 91.7862 82.9465 92.3273C79.569 93.0543 76.9675 90.923 76.9675 87.4295V86.0496L78.1263 86.258C78.7638 86.3727 80.4508 86.4665 81.8755 86.4665ZM80.8734 106.427C78.1337 107.623 78.9271 111.5 81.9117 111.5C82.76 111.5 83.1883 111.319 83.8051 110.7C85.2088 109.292 84.724 107.215 82.8028 106.41C81.7334 105.961 81.9458 105.96 80.8734 106.427Z" stroke="#F2FAFA" stroke-width="2" mask="url(#path-4-inside-1_297_286)"/>
<path fill-rule="evenodd" clip-rule="evenodd" d="M12.7027 6.21261L8.04723 1.55713L5.80469 3.79967L10.4602 8.45515L5.93298 12.9823L8.17551 15.2249L12.7027 10.6977L17.2299 15.2249L19.4724 12.9823L14.9452 8.45515L19.6007 3.79967L17.3582 1.55714L12.7027 6.21261Z" fill="#3B4040"/>
<path fill-rule="evenodd" clip-rule="evenodd" d="M159.644 12.5554L154.989 7.8999L152.746 10.1424L157.402 14.7979L152.874 19.3251L155.117 21.5676L159.644 17.0405L164.171 21.5676L166.414 19.3251L161.887 14.7979L166.542 10.1424L164.3 7.89991L159.644 12.5554Z" fill="#3B4040"/>
<circle cx="5.80134" cy="48.0714" r="3.78571" stroke="#3B4040" stroke-width="3"/>
<circle cx="152.747" cy="38.5572" r="3.78571" stroke="#3B4040" stroke-width="3"/>
<path fill-rule="evenodd" clip-rule="evenodd" d="M44.5252 78.9038L40.1213 74.5L38 76.6213L42.4038 81.0252L38.1214 85.3076L40.2427 87.4289L44.5252 83.1465L48.8076 87.4289L50.9289 85.3076L46.6465 81.0252L51.0503 76.6213L48.929 74.5L44.5252 78.9038Z" fill="#3B4040"/>
</svg>
