<svg width="107" height="112" viewBox="0 0 107 112" fill="none" xmlns="http://www.w3.org/2000/svg">
<path d="M37.5 63.5L50.5 70L61 69L69.5 62.5L74 56L74.5 26.5V15L69.5 9.5L64 7L45.5 6L35 10.5L32.5 22L35 57L37.5 63.5Z" fill="#DFEAEB"/>
<path fill-rule="evenodd" clip-rule="evenodd" d="M31.5589 12.8589C33.6445 8.78641 37.6396 5.85406 42.4738 4.84746C44.7104 4.38188 62.6083 4.38511 64.9088 4.85161C70.8206 6.05062 75.8519 10.7657 77.2159 16.3847C77.6034 17.9812 77.747 23.9202 77.4277 25.1388C77.3215 25.5435 77.5962 25.9934 78.6477 27.1368C82.2364 31.0396 84.7855 35.7911 86.1853 41.1863L86.8137 43.6088L86.9021 58.2505C86.9674 69.0953 86.9175 73.0223 86.7096 73.3942C86.0862 74.5095 84.0414 74.7582 82.9412 73.8524L82.2651 73.2957L82.1231 58.9138C81.9892 45.3525 81.9523 44.4197 81.4764 42.5706C81.1988 41.492 80.7547 40.0163 80.4896 39.2912C79.9195 37.7311 78.2126 34.3858 77.5781 33.5848L77.1309 33.0202L76.9892 34.2769C76.9114 34.9684 76.6347 39.7386 76.3745 44.8777C75.955 53.1681 75.8338 54.4756 75.301 56.4751C73.5692 62.9722 68.6881 68.3732 62.217 70.9526C56.3975 73.2722 49.3525 73.0384 43.7302 70.3391C37.9664 67.5722 33.6158 62.4917 32.0062 56.6489C31.4438 54.6077 31.2264 51.9933 30.7006 40.9556C30.4862 36.4509 30.2324 32.457 30.1368 32.0805L29.9626 31.3958L28.8532 33.0034C26.833 35.9302 25.4862 38.9523 24.4869 42.8013C23.9843 44.7379 23.9763 45.1695 23.8445 77.5749L23.7113 110.387L23.1624 110.913C22.7359 111.321 22.3417 111.438 21.3947 111.438C20.3547 111.438 20.0894 111.342 19.5877 110.784L19 110.13L19.0737 76.9846L19.1475 43.8395L19.7826 41.3914C21.3609 35.3089 24.5819 29.655 28.6353 25.8527L29.8558 24.7076V21.4265C29.8558 17.4008 30.251 15.4122 31.5589 12.8589ZM63.1307 9.37762C63.0832 9.37052 63.0357 9.36372 62.9881 9.3572C60.9768 9.08196 45.9159 9.08795 44.1931 9.36481C39.2796 10.1543 35.4396 13.7442 34.7098 18.2304C34.3825 20.2417 36.1738 53.4348 36.7143 55.3751C38.3179 61.1314 43.2733 65.8354 49.3737 67.3922C51.5007 67.9349 55.7115 67.9457 57.8074 67.4139C64.118 65.8123 68.9972 61.1579 70.5548 55.2544C71.2047 52.7907 72.9521 20.3859 72.5562 18.1386C71.9813 14.8747 69.7466 12.0728 66.7188 10.5279L58.9533 15.9638L62.0854 21.7805L60.4643 29.0755L57.5357 28.4247L58.9146 22.2197L55.0467 15.0364L63.1307 9.37762ZM82.481 80.6635C82.6564 80.3603 83.0593 79.9746 83.3759 79.8066C85.8496 78.4939 88.2559 81.513 86.2595 83.4244C84.3142 85.2867 81.1451 82.9711 82.481 80.6635ZM82.153 100.486C82.1622 90.2381 82.1737 90.1345 83.3759 89.4966C84.3766 88.9652 85.4771 89.0997 86.2595 89.8489L86.9638 90.5232V100.315C86.9638 109.827 86.9498 110.124 86.4715 110.706C85.8667 111.442 84.5778 111.715 83.5769 111.318C83.2805 111.2 83.0454 111.116 82.859 110.97C82.1241 110.394 82.1457 108.853 82.153 100.486ZM55.5486 38.1215L52.5486 49.6215L55.4514 50.3787L58.4514 38.8787L55.5486 38.1215Z" fill="#3B4040"/>
<path d="M31.6924 12.9273L31.6925 12.9273C33.7555 8.89869 37.7106 5.9925 42.5044 4.99431C43.0474 4.88128 44.5695 4.79407 46.6036 4.73603C48.6302 4.6782 51.1475 4.64954 53.6673 4.65001C56.1872 4.65047 58.7085 4.68005 60.743 4.73862C62.7848 4.79741 64.3195 4.88516 64.879 4.99862C70.7369 6.1867 75.7206 10.8607 77.0702 16.4201C77.2595 17.2002 77.3924 19.068 77.4369 20.9071C77.4591 21.8234 77.4592 22.7269 77.4339 23.4764C77.4085 24.2317 77.3576 24.8149 77.2826 25.1008C77.215 25.3584 77.2778 25.6151 77.4755 25.939C77.6709 26.259 78.0119 26.667 78.5373 27.2383C82.1085 31.122 84.6462 35.8513 86.0401 41.224L86.6638 43.6284L86.7521 58.2514C86.7848 63.6739 86.7886 67.3655 86.7583 69.7478C86.7432 70.9392 86.7195 71.8012 86.6868 72.3878C86.6705 72.6813 86.6519 72.9035 86.6315 73.0624C86.6212 73.1419 86.6108 73.2033 86.6005 73.2488C86.5953 73.2714 86.5905 73.2888 86.5863 73.3016C86.5842 73.3079 86.5824 73.3127 86.5809 73.3161C86.5795 73.3196 86.5787 73.321 86.5787 73.321C86.2985 73.8223 85.6846 74.1474 84.9861 74.2323C84.2899 74.317 83.5478 74.1575 83.0365 73.7366L82.4144 73.2243L82.2731 58.9123C82.1393 45.3642 82.1034 44.4052 81.6217 42.5332C81.3433 41.4517 80.8978 39.971 80.6305 39.2397C80.3423 38.451 79.7697 37.2182 79.1916 36.0852C78.6156 34.9562 78.0238 33.9059 77.6957 33.4916L77.5781 33.5848L77.6957 33.4916L77.2485 32.9271L77.0226 32.6419L76.9818 33.0034L76.8401 34.2601L76.9892 34.2769L76.8401 34.2601C76.7616 34.9575 76.4848 39.7344 76.2247 44.8701C75.8049 53.1665 75.6838 54.4557 75.1561 56.4365C73.437 62.8859 68.5903 68.2507 62.1615 70.8132C56.3808 73.1174 49.3795 72.885 43.7951 70.2039C38.0679 67.4546 33.7482 62.4075 32.1508 56.609C31.594 54.5882 31.3767 51.9953 30.8505 40.9484C30.7432 38.6955 30.6261 36.5701 30.5239 34.9605C30.4727 34.1558 30.4253 33.4795 30.3846 32.9804C30.3642 32.731 30.3455 32.5251 30.3288 32.3692C30.3126 32.2178 30.2973 32.103 30.2822 32.0436L30.2822 32.0435L30.1079 31.3588L30.0266 31.0389L29.8391 31.3106L28.7297 32.9182C28.7297 32.9182 28.7297 32.9182 28.7297 32.9182C26.6984 35.861 25.3449 38.8996 24.3418 42.7636L24.4869 42.8013L24.3418 42.7636C24.0856 43.7506 23.958 44.3583 23.8767 48.7595C23.7954 53.1616 23.7604 61.3724 23.6945 77.5743L23.5615 110.323L23.0587 110.805C22.8591 110.996 22.674 111.113 22.431 111.185C22.1822 111.259 21.8646 111.288 21.3947 111.288C20.8737 111.288 20.5718 111.263 20.3404 111.179C20.1165 111.098 19.9449 110.957 19.6993 110.684L19.1501 110.072L19.2237 76.9849L19.2974 43.8588L19.9278 41.4291C21.5 35.3703 24.7078 29.7426 28.738 25.9621L28.6353 25.8527L28.738 25.9621L29.9585 24.817L30.0058 24.7726V24.7076V21.4265C30.0058 17.4155 30.3988 15.4527 31.6924 12.9273ZM63.0084 9.20858L62.9881 9.3572L63.0084 9.20858C62.4949 9.13831 61.1663 9.08711 59.4481 9.05336C57.7251 9.01952 55.599 9.00312 53.4824 9.00397C51.3657 9.00482 49.2576 9.02293 47.5707 9.05815C45.8901 9.09324 44.6128 9.14543 44.1693 9.21671C39.2001 10.0152 35.3032 13.6485 34.5617 18.2063C34.5392 18.3448 34.5271 18.6034 34.5224 18.9557C34.5177 19.3119 34.5204 19.7743 34.5298 20.3269C34.5485 21.4323 34.5938 22.9027 34.659 24.6156C34.7894 28.0417 34.9996 32.4409 35.2369 36.8375C35.4741 41.2341 35.7385 45.6288 35.9774 49.046C36.0969 50.7545 36.21 52.2193 36.3102 53.3181C36.3603 53.8674 36.4073 54.3261 36.4503 54.6785C36.4928 55.0268 36.5325 55.2814 36.5698 55.4154C38.1888 61.2267 43.1876 65.9683 49.3367 67.5376L49.3737 67.3922L49.3367 67.5376C50.4175 67.8133 52.0161 67.9519 53.6019 67.956C55.1875 67.9601 56.7786 67.8297 57.8443 67.5593L57.8074 67.4139L57.8443 67.5593C64.2034 65.9454 69.1272 61.253 70.6998 55.2927C70.7849 54.9704 70.8841 54.1806 70.9929 53.0589C71.1023 51.9309 71.2224 50.4529 71.347 48.7426C71.5961 45.3219 71.8631 40.9691 72.0975 36.6234C72.3318 32.2778 72.5335 27.9385 72.6518 24.5448C72.711 22.848 72.7494 21.3869 72.7605 20.2791C72.7661 19.7253 72.7649 19.2589 72.7561 18.895C72.7473 18.5346 72.7309 18.2656 72.7039 18.1125C71.8991 13.5438 67.8967 9.87784 63.0084 9.20858ZM83.4462 89.6291L83.3759 89.4966L83.4462 89.629C84.3934 89.1262 85.4229 89.2556 86.1557 89.9572L86.8138 90.5873V100.315C86.8138 105.073 86.8103 107.521 86.7472 108.852C86.7156 109.519 86.6694 109.895 86.6053 110.136C86.544 110.367 86.4668 110.476 86.3556 110.611C86.0799 110.947 85.64 111.185 85.1418 111.29C84.6444 111.395 84.1023 111.365 83.6322 111.178C83.6041 111.167 83.5769 111.156 83.5504 111.146C83.218 111.015 83.0073 110.932 82.8462 110.754C82.6756 110.567 82.5471 110.253 82.461 109.598C82.2957 108.34 82.2979 105.945 82.3024 101.116L82.303 100.486C82.3076 95.3561 82.313 92.78 82.4662 91.4041C82.5428 90.7156 82.6544 90.3525 82.8044 90.1239C82.951 89.9004 83.1436 89.7896 83.4462 89.6291ZM82.6108 80.7386L82.481 80.6635L82.6108 80.7386C82.6891 80.6033 82.8231 80.4421 82.9792 80.2927C83.1351 80.1434 83.3039 80.0146 83.4462 79.9391C84.6131 79.3199 85.7559 79.7211 86.3767 80.4999C86.9958 81.2767 87.091 82.4206 86.1558 83.3161C85.2448 84.1881 84.049 84.0862 83.2283 83.4866C82.4086 82.8876 81.9889 81.8129 82.6108 80.7386Z" stroke="white" stroke-width="0.3"/>
<path fill-rule="evenodd" clip-rule="evenodd" d="M6.52515 19.9038L2.12132 15.5L0 17.6213L4.40383 22.0252L0.121354 26.3076L2.24267 28.4289L6.52515 24.1465L10.8076 28.4289L12.9289 26.3076L8.64647 22.0252L13.0503 17.6213L10.929 15.5L6.52515 19.9038Z" fill="#3B4040"/>
<path fill-rule="evenodd" clip-rule="evenodd" d="M37.5252 76.9038L33.1213 72.5L31 74.6213L35.4038 79.0252L31.1214 83.3076L33.2427 85.4289L37.5252 81.1465L41.8076 85.4289L43.9289 83.3076L39.6465 79.0252L44.0503 74.6213L41.929 72.5L37.5252 76.9038Z" fill="#3B4040"/>
<path fill-rule="evenodd" clip-rule="evenodd" d="M96.5252 4.90383L92.1213 0.5L90 2.62132L94.4038 7.02515L90.1214 11.3076L92.2427 13.4289L96.5252 9.14647L100.808 13.4289L102.929 11.3076L98.6465 7.02515L103.05 2.62133L100.929 0.500006L96.5252 4.90383Z" fill="#3B4040"/>
<circle cx="10.1211" cy="58.5" r="3.5" stroke="#3B4040" stroke-width="3"/>
<circle cx="101.121" cy="27.5" r="3.5" stroke="#3B4040" stroke-width="3"/>
</svg>
