<svg width="16" height="16" viewBox="0 0 16 16" fill="none" xmlns="http://www.w3.org/2000/svg">
<path d="M14.1335 8.4443L7.99858 13.3797L1.87505 8.26151C1.75952 8.16549 1.62622 8.09316 1.48275 8.04866C1.33927 8.00416 1.18844 7.98835 1.03886 8.00215C0.889278 8.01594 0.743877 8.05906 0.610959 8.12904C0.478042 8.19902 0.36021 8.2945 0.264191 8.41002C0.168173 8.52555 0.0958483 8.65885 0.0513473 8.80232C0.00684626 8.9458 -0.00896016 9.09663 0.00483107 9.24621C0.0186223 9.39579 0.061741 9.54119 0.131725 9.67411C0.201709 9.80703 0.297188 9.92486 0.41271 10.0209L7.26741 15.7331C7.47184 15.9012 7.72825 15.993 7.99287 15.993C8.25749 15.993 8.5139 15.9012 8.71833 15.7331L15.573 10.2151C15.6904 10.1208 15.788 10.0043 15.8601 9.87217C15.9323 9.74006 15.9777 9.59499 15.9936 9.44529C16.0095 9.2956 15.9957 9.14423 15.9529 8.9999C15.9102 8.85556 15.8393 8.7211 15.7444 8.60424C15.6493 8.48772 15.5321 8.39113 15.3996 8.32C15.2671 8.24887 15.1219 8.2046 14.9722 8.18974C14.8225 8.17488 14.6714 8.18972 14.5275 8.2334C14.3836 8.27708 14.2497 8.34875 14.1335 8.4443Z" fill="#2AC8CE"/>
<path d="M7.26742 7.73582C7.47184 7.90386 7.72825 7.99572 7.99287 7.99572C8.25749 7.99572 8.51391 7.90386 8.71833 7.73582L15.573 2.21779C15.6904 2.12351 15.788 2.00696 15.8601 1.87486C15.9323 1.74275 15.9777 1.59768 15.9936 1.44798C16.0095 1.29829 15.9957 1.14692 15.9529 1.00259C15.9102 0.85825 15.8393 0.723789 15.7444 0.60693C15.6501 0.48957 15.5336 0.391999 15.4015 0.319826C15.2694 0.247653 15.1243 0.2023 14.9746 0.186375C14.8249 0.170451 14.6735 0.184267 14.5292 0.227031C14.3849 0.269795 14.2504 0.340663 14.1335 0.435562L7.99859 5.38237L1.87505 0.264194C1.64174 0.0702764 1.34096 -0.0230184 1.03886 0.00483428C0.736769 0.0326869 0.458112 0.179406 0.264194 0.412713C0.0702764 0.646021 -0.0230184 0.946806 0.00483428 1.2489C0.0326869 1.55099 0.179406 1.82965 0.412713 2.02357L7.26742 7.73582Z" fill="#2AC8CE"/>
</svg>
