<svg width="34" height="32" viewBox="0 0 34 32" fill="none" xmlns="http://www.w3.org/2000/svg">
<path d="M32.8965 27.3435L18.9159 1.38059C17.925 -0.460195 15.2852 -0.460195 14.2935 1.38059L0.313712 27.3435C0.0985543 27.7431 -0.00931582 28.1917 0.000630571 28.6454C0.010577 29.0992 0.138 29.5426 0.370462 29.9324C0.602925 30.3222 0.932483 30.6451 1.32697 30.8695C1.72146 31.0939 2.16739 31.2122 2.62125 31.2129H30.5849C31.0391 31.213 31.4855 31.0952 31.8806 30.871C32.2756 30.6469 32.6058 30.3241 32.8387 29.9342C33.0717 29.5442 33.1994 29.1005 33.2096 28.6464C33.2197 28.1924 33.1118 27.7434 32.8965 27.3435ZM16.6051 27.1934C16.2806 27.1934 15.9634 27.0971 15.6936 26.9169C15.4238 26.7366 15.2136 26.4804 15.0894 26.1806C14.9652 25.8808 14.9327 25.5509 14.996 25.2327C15.0593 24.9144 15.2156 24.6221 15.445 24.3926C15.6745 24.1632 15.9668 24.0069 16.285 23.9436C16.6033 23.8803 16.9332 23.9128 17.233 24.037C17.5327 24.1612 17.789 24.3715 17.9692 24.6413C18.1495 24.9111 18.2457 25.2282 18.2457 25.5527C18.2457 25.7682 18.2033 25.9815 18.1209 26.1806C18.0384 26.3796 17.9176 26.5605 17.7652 26.7128C17.6129 26.8652 17.432 26.986 17.233 27.0685C17.0339 27.1509 16.8206 27.1934 16.6051 27.1934ZM18.3868 10.6928L17.916 20.7006C17.916 21.0487 17.7777 21.3825 17.5316 21.6287C17.2854 21.8748 16.9516 22.0131 16.6035 22.0131C16.2554 22.0131 15.9215 21.8748 15.6754 21.6287C15.4293 21.3825 15.291 21.0487 15.291 20.7006L14.8201 10.6969C14.8095 10.4578 14.8472 10.2191 14.9308 9.99491C15.0145 9.77073 15.1424 9.56568 15.307 9.39198C15.4716 9.21829 15.6694 9.07952 15.8888 8.98392C16.1082 8.88833 16.3445 8.83788 16.5838 8.83559H16.601C16.8419 8.83546 17.0803 8.88415 17.3019 8.9787C17.5235 9.07326 17.7236 9.21172 17.8902 9.38574C18.0568 9.55976 18.1864 9.76573 18.2712 9.99122C18.356 10.2167 18.3942 10.457 18.3836 10.6977L18.3868 10.6928Z" fill="white"/>
</svg>
