<svg width="134" height="134" viewBox="0 0 134 134" fill="none" xmlns="http://www.w3.org/2000/svg">
<path opacity="0.45" fill-rule="evenodd" clip-rule="evenodd" d="M9.4468 31.668C8.63162 34.0587 8.91371 36.8202 10.1941 38.9881C10.8052 40.0228 11.2858 40.4831 12.8161 41.5003C14.4319 42.5738 14.9059 42.7685 16.2574 42.9123C17.7485 43.0711 20.625 42.6547 20.8998 42.2402C20.9705 42.1335 22.5062 43.0256 24.3125 44.2228L27.5966 46.3996L26.9072 47.7702C23.4883 54.5684 22.0808 62.1369 22.5157 71.3829C22.543 71.9684 22.2721 72.0724 18.9334 72.7574L15.3211 73.4985L13.5178 72.2839C11.2905 70.7841 9.32267 70.384 6.83724 70.9261C3.86622 71.5742 1.2841 74.1265 0.464064 77.226C-0.020397 79.0579 0.698874 82.6128 1.85708 84.1109C3.81703 86.6454 7.1872 87.988 10.1754 87.425C12.6753 86.9541 14.3322 85.8173 15.8006 83.5665L16.9894 81.7438L20.6209 81.0128L24.2522 80.2821L24.5464 81.1655C27.0337 88.6321 31.984 96.088 37.6603 100.917L38.8279 101.91L36.6493 105.197C35.451 107.005 34.3833 108.426 34.2767 108.355C33.8626 108.081 31.0514 108.82 29.7398 109.549C28.551 110.209 28.1901 110.573 27.1191 112.193C25.654 114.409 25.299 116.075 25.7827 118.466C26.2652 120.85 27.2414 122.251 29.4487 123.726C31.1639 124.872 31.4763 124.991 33.2068 125.148C36.146 125.414 38.7182 124.354 40.5631 122.116C42.3145 119.991 42.9699 116.397 42.0277 114.086L41.6071 113.055L43.7476 109.822L45.8881 106.59L47.2577 107.278C54.0509 110.693 61.6157 112.095 70.8591 111.652C71.4443 111.625 71.548 111.895 72.2302 115.235L72.9682 118.848L71.7525 120.653C70.2515 122.882 69.85 124.851 70.39 127.336C71.0355 130.308 73.5849 132.889 76.6827 133.707C78.5136 134.19 82.0679 133.468 83.5664 132.308C86.1016 130.345 87.4464 126.973 86.886 123.984C86.4172 121.484 85.2821 119.827 83.0332 118.36L81.212 117.172L80.4876 113.557C79.8179 110.215 79.8081 109.925 80.358 109.722C88.996 106.538 95.4756 102.255 100.394 96.4789L101.389 95.3105L104.673 97.4873C106.479 98.6845 107.899 99.7515 107.828 99.8581C107.554 100.273 108.291 103.084 109.018 104.396C109.676 105.582 110.043 105.947 111.657 107.017C113.257 108.077 113.756 108.284 115.048 108.421C117.284 108.658 118.419 108.448 120.281 107.452C121.808 106.635 122.061 106.395 123.197 104.68C124.334 102.966 124.457 102.64 124.614 100.915C124.806 98.8121 124.558 97.6841 123.468 95.7173C122.838 94.5811 122.453 94.201 120.855 93.1409C119.317 92.1208 118.739 91.8721 117.644 91.7572C115.829 91.5665 114.074 91.7352 113.25 92.1797L112.566 92.5483L109.319 90.3963L106.072 88.2443L106.762 86.8736C110.113 80.2104 111.774 71.4108 111.163 63.5629L111.091 62.6345L114.719 61.8899L118.348 61.1453L120.151 62.36C122.378 63.8598 124.346 64.2599 126.832 63.7177C129.152 63.2119 130.805 61.9746 132.133 59.7499C133.355 57.7044 133.652 56.0353 133.191 53.8139C132.728 51.5817 131.827 50.2022 129.919 48.8035C127.83 47.2732 125.827 46.779 123.494 47.2188C120.994 47.6898 119.337 48.8265 117.868 51.0774L116.68 52.9001L113.05 53.6305L109.42 54.3613L109.053 53.3462C106.082 45.1347 101.737 38.6003 96.0087 33.7272L94.8411 32.7339L97.0197 29.447C98.218 27.6392 99.2857 26.218 99.3923 26.2887C99.8064 26.5632 102.618 25.8237 103.929 25.0953C105.116 24.4362 105.481 24.0686 106.552 22.4528C107.613 20.8521 107.82 20.3526 107.958 19.06C108.197 16.8232 107.988 15.6872 106.993 13.8253C106.176 12.2945 105.942 12.0492 104.222 10.9153C102.625 9.86325 102.116 9.65311 100.828 9.51638C98.5923 9.27907 97.4564 9.48926 95.5944 10.4856C94.0635 11.3048 93.8181 11.5385 92.6832 13.2603C91.6201 14.8733 91.4201 15.3633 91.276 16.7086C91.1161 18.2003 91.5301 21.0775 91.9442 21.3519C92.0508 21.4226 91.1578 22.9595 89.9595 24.7674L87.7809 28.0543L86.4113 27.3658C79.6181 23.9511 72.0532 22.5491 62.8099 22.9915C62.2246 23.0193 62.1209 22.7484 61.4388 19.4091L60.7007 15.7962L61.9164 13.9913C63.4175 11.7621 63.819 9.79325 63.279 7.30742C62.7751 4.98698 61.5396 3.33438 59.3167 2.00721C57.2851 0.794411 55.6635 0.501807 53.4272 0.94463C51.2017 1.38543 49.7803 2.30962 48.3722 4.23139C46.8407 6.32154 46.3451 8.32595 46.7829 10.6598C47.2518 13.1601 48.3868 14.8167 50.6357 16.2838L52.4569 17.4715L53.1848 21.1037L53.9123 24.7357L53.029 25.0306C45.6654 27.4899 38.7128 32.0323 33.7841 37.6044L32.2641 39.3227L29.0449 37.1851L25.826 35.0474L25.8378 33.9962C25.8648 31.5715 23.7751 28.3828 21.3183 27.1005C19.6885 26.2497 16.8777 25.8814 15.3796 26.3225C12.8152 27.0777 10.212 29.4231 9.4468 31.668ZM62.8363 39.441C64.6544 37.9145 68.2554 37.7518 70.2952 39.1037C73.029 40.9158 73.8912 45.1769 72.0776 47.9131C70.264 50.6493 66.0035 51.5151 63.2697 49.7031C61.883 48.784 61.0991 47.5372 60.7121 45.6349C60.1878 43.0578 60.8589 41.1011 62.8363 39.441ZM46.6184 67.9178C48.244 66.5565 51.0761 66.0118 53.1557 66.6601C58.9127 68.4549 60.3606 75.6111 55.7559 79.5116C54.0925 80.9206 51.2725 81.5245 49.2462 80.9054C46.2714 79.9968 44.5452 78.1411 43.9533 75.2153C43.3639 72.3023 44.2369 69.9114 46.6184 67.9178ZM77.5811 64.5756C79.366 63.6095 80.5148 63.4003 82.7397 63.6364C84.0273 63.7731 84.5371 63.9833 86.1335 65.0353C87.8538 66.1692 88.0872 66.4145 88.9049 67.9453C89.8994 69.8072 90.1087 70.9432 89.8697 73.18C89.7315 74.4726 89.5246 74.9721 88.4636 76.5728C87.4026 78.1735 87.0232 78.5587 85.8865 79.1894C83.9195 80.2808 82.7917 80.5307 80.6895 80.34C78.959 80.183 78.6466 80.0649 76.9314 78.9185C74.7239 77.4436 73.7474 76.0422 73.2661 73.6585C72.5265 69.9953 74.2425 66.3824 77.5811 64.5756Z" fill="url(#paint0_linear_317_6898)"/>
<defs>
<linearGradient id="paint0_linear_317_6898" x1="10.3868" y1="29.9057" x2="133.426" y2="101.879" gradientUnits="userSpaceOnUse">
<stop stop-color="#F2F8FA"/>
<stop offset="1" stop-color="#F2F8FA" stop-opacity="0"/>
</linearGradient>
</defs>
</svg>
