<svg width="359" height="360" viewBox="0 0 359 360" fill="none" xmlns="http://www.w3.org/2000/svg">
<path opacity="0.45" fill-rule="evenodd" clip-rule="evenodd" d="M293.364 41.7252C287.368 38.7331 280.007 38.4941 273.853 41.0905C270.916 42.3297 269.535 43.4297 266.317 47.0918C262.921 50.9587 262.241 52.1358 261.383 55.6379C260.436 59.5017 260.509 67.2122 261.502 68.0816C261.757 68.3054 258.866 72.0262 255.077 76.3499L248.188 84.2111L244.829 81.912C228.171 70.5093 208.772 64.1213 184.309 61.9813C182.76 61.8453 182.583 61.0962 181.968 52.0751L181.302 42.3151L185.136 38.0054C189.87 32.6823 191.621 27.6507 191.078 20.9238C190.429 12.8827 184.636 5.18779 176.778 1.93123C172.134 0.00703915 162.532 0.635677 158.183 3.14872C150.823 7.40156 146.097 15.7852 146.516 23.8414C146.866 30.5809 149.266 35.3407 154.662 40.0005L159.032 43.7732L159.665 53.5802L160.296 63.3868L157.869 63.8463C137.356 67.7343 115.996 78.1015 101.285 91.3101L98.2593 94.0272L90.3914 87.1322C86.0639 83.3399 82.7068 80.0281 82.9303 79.773C83.799 78.7818 82.8532 71.1284 81.404 67.4214C80.0909 64.0615 79.2611 62.9833 75.3835 59.5926C70.0773 54.9538 65.8226 53.4287 59.3656 53.8515C52.9245 54.2732 48.8948 56.3421 44.2336 61.6216C40.6105 65.7239 40.1893 66.5032 39.1621 70.997C37.4176 78.6299 39.2917 85.7689 44.5207 91.4139C49.4843 96.773 58.7008 99.7724 65.1103 98.1156L67.9712 97.3762L75.7101 104.152L83.4491 110.927L81.1526 114.284C69.7629 130.931 63.3907 150.321 61.2713 174.78C61.1366 176.328 60.3876 176.505 51.366 177.112L41.6054 177.77L37.2919 173.933C31.9643 169.195 26.9306 167.44 20.2034 167.977C12.1619 168.619 4.47106 174.405 1.22083 182.259C-0.699612 186.901 -0.0627223 196.502 2.45431 200.853C6.71389 208.216 15.1025 212.949 23.1593 212.537C29.8992 212.192 34.6576 209.796 39.3133 204.405L43.0826 200.038L52.8456 199.418C61.8694 198.844 62.6352 198.921 62.9734 200.439C68.2763 224.279 77.2354 242.835 90.6755 257.818L93.3941 260.847L86.5051 268.709C82.716 273.032 79.4067 276.386 79.1514 276.163C78.1593 275.293 70.5059 276.232 66.7997 277.678C63.4459 278.986 62.3563 279.822 58.9698 283.687C55.6149 287.515 54.8945 288.754 54.0751 292.102C52.6572 297.896 52.8065 300.957 54.7648 306.206C56.3701 310.51 56.9122 311.261 61.0156 314.857C65.1189 318.453 65.9342 318.892 70.4117 319.918C75.8726 321.171 78.9265 320.917 84.4842 318.751C87.695 317.499 88.8311 316.621 92.1857 312.795C95.414 309.114 96.2726 307.685 96.9639 304.844C98.1096 300.142 98.289 295.469 97.4133 293.143L96.687 291.214L103.498 283.442L110.309 275.67L113.667 277.969C129.995 289.146 152.54 296.639 173.39 297.818L175.856 297.958L176.526 307.762L177.195 317.566L173.361 321.876C168.627 327.199 166.876 332.231 167.419 338.958C167.925 345.237 170.591 350.022 175.968 354.305C180.912 358.242 185.195 359.617 191.198 359.194C197.232 358.769 201.178 356.89 205.533 352.369C210.298 347.422 212.309 342.331 211.981 336.04C211.631 329.301 209.23 324.541 203.834 319.881L199.464 316.108L198.833 306.306L198.201 296.503L201 295.898C223.643 291.003 242.366 281.901 257.212 268.571L260.237 265.854L268.105 272.749C272.433 276.542 275.79 279.853 275.566 280.108C274.698 281.1 275.643 288.753 277.093 292.46C278.404 295.815 279.241 296.905 283.109 300.294C286.94 303.652 288.18 304.373 291.529 305.195C297.325 306.618 300.386 306.472 305.634 304.518C309.949 302.912 310.677 302.385 314.269 298.265C317.602 294.442 318.335 293.176 319.152 289.839C320.57 284.045 320.421 280.985 318.462 275.735C316.852 271.42 316.325 270.691 312.201 267.096C308.338 263.729 307.121 263.029 303.635 262.172C299.77 261.222 292.059 261.289 291.19 262.28C290.967 262.535 287.243 259.642 282.915 255.849L275.048 248.954L277.344 245.598C288.734 228.951 295.106 209.56 297.225 185.102C297.36 183.553 298.109 183.377 307.131 182.769L316.891 182.112L321.205 185.949C326.532 190.687 331.566 192.441 338.293 191.904C344.573 191.404 349.356 188.742 353.635 183.369C357.545 178.459 358.89 174.299 358.52 168.263C358.151 162.255 356.226 158.19 351.674 153.806C346.723 149.037 341.629 147.022 335.337 147.345C328.597 147.689 323.839 150.085 319.183 155.477L315.414 159.843L305.606 160.467L295.799 161.09L295.338 158.663C291.487 138.43 282.013 118.538 269.114 103.602L265.136 98.9954L271.899 91.2909L278.662 83.5873L281.422 83.9916C287.787 84.9235 296.913 80.562 301.156 74.5582C303.972 70.5755 305.938 63.3164 305.311 59.2211C304.236 52.2109 298.994 44.5342 293.364 41.7252ZM253.969 179.33C257.337 184.652 256.486 194.177 252.207 199.059C246.472 205.603 234.963 206.357 228.414 200.617C221.864 194.878 221.101 183.369 226.835 176.825C229.744 173.506 233.301 171.888 238.439 171.546C245.401 171.082 250.307 173.542 253.969 179.33ZM184.861 126.58C187.862 131.337 188.289 138.976 185.846 144.213C179.083 158.711 159.755 159.977 151.135 146.486C148.021 141.612 147.435 133.984 149.782 128.876C153.227 121.378 158.719 117.499 166.621 116.981C174.489 116.466 180.465 119.611 184.861 126.58ZM182.652 209.17C184.559 214.205 184.701 217.3 183.29 223.065C182.473 226.402 181.74 227.668 178.407 231.491C174.815 235.611 174.087 236.138 169.772 237.744C164.524 239.698 161.463 239.844 155.667 238.422C152.318 237.599 151.078 236.878 147.247 233.52C143.415 230.162 142.537 229.028 141.283 225.816C139.112 220.257 138.855 217.203 140.103 211.744C141.13 207.25 141.552 206.471 145.175 202.368C149.836 197.088 153.867 195.019 160.305 194.6C170.199 193.956 179.088 199.751 182.652 209.17Z" fill="url(#paint0_linear_317_6897)"/>
<defs>
<linearGradient id="paint0_linear_317_6897" x1="297.663" y1="44.8224" x2="64.7477" y2="342.744" gradientUnits="userSpaceOnUse">
<stop stop-color="#F2F8FA"/>
<stop offset="1" stop-color="#F2F8FA" stop-opacity="0"/>
</linearGradient>
</defs>
</svg>
