<svg width="121" height="242" viewBox="0 0 121 242" fill="none" xmlns="http://www.w3.org/2000/svg">
<g filter="url(#filter0_d_297_3078)">
<path d="M103.513 207.407V51.5344L16.5117 68.8726L16.5117 207.407C16.5117 211.563 18.1606 215.55 21.0966 218.492C24.0326 221.434 28.0158 223.09 32.172 223.099H87.8375C91.9965 223.094 95.9836 221.439 98.923 218.497C101.862 215.555 103.513 211.566 103.513 207.407Z" fill="white"/>
<path d="M98.2255 206.195V52.3887L21.6641 70.6124V206.195C21.6641 208.965 22.7638 211.621 24.7215 213.58C26.6792 215.539 29.3346 216.641 32.1043 216.643H87.7698C89.1425 216.644 90.5019 216.375 91.7704 215.85C93.0389 215.325 94.1916 214.556 95.1626 213.586C96.1336 212.615 96.9039 211.463 97.4295 210.195C97.955 208.927 98.2255 207.568 98.2255 206.195Z" fill="url(#paint0_linear_297_3078)"/>
<path d="M77.0629 107.215L105.432 49.5224C106.036 48.2884 106.166 46.8754 105.797 45.5519C105.427 44.2284 104.584 43.087 103.428 42.3447L97.2131 38.352L98.8444 35.8119C101.196 32.0476 101.97 27.5082 100.998 23.1774C100.026 18.8467 97.3866 15.0733 93.6518 12.675C89.917 10.2768 85.3875 9.44684 81.045 10.365C76.7025 11.2832 72.8967 13.8756 70.4523 17.5803L68.8288 20.1205L63.2902 16.5627C62.1328 15.8201 60.7427 15.5292 59.3846 15.7455C58.0266 15.9619 56.7956 16.6702 55.9262 17.7357L15.2684 67.5364C14.7683 68.1462 14.4028 68.8548 14.1959 69.6158C13.989 70.3768 13.9454 71.1729 14.0679 71.952C14.1904 72.731 14.4763 73.4754 14.9067 74.1362C15.3372 74.7969 15.9026 75.3591 16.5657 75.786L69.0075 109.46C69.6713 109.887 70.4178 110.168 71.1981 110.286C71.9784 110.404 72.7748 110.355 73.5349 110.143C74.295 109.931 75.0016 109.56 75.6083 109.056C76.215 108.551 76.7081 107.924 77.0551 107.215H77.0629ZM83.1686 25.7911C83.293 25.5968 83.4545 25.4289 83.6439 25.297C83.8332 25.165 84.0467 25.0718 84.2721 25.0223C84.4975 24.9729 84.7305 24.9684 84.9576 25.009C85.1848 25.0496 85.4017 25.1346 85.5961 25.259C85.7904 25.3835 85.9583 25.545 86.0902 25.7343C86.2221 25.9237 86.3155 26.1372 86.3649 26.3626C86.4143 26.588 86.4188 26.8209 86.3782 27.0481C86.3376 27.2752 86.2526 27.4922 86.1282 27.6865L84.4969 30.2267L81.545 28.3235L83.1686 25.7911Z" fill="white"/>
<path d="M60.672 23.8647L97.873 47.7591L71.252 101.91L22.5078 70.6126L60.672 23.8647Z" fill="#F4B79E"/>
<path d="M72.0434 104.745L19.6016 71.071L60.2593 21.2781L100.404 47.0523L72.0434 104.745ZM25.4353 70.1466L70.4898 99.0824L95.3474 48.4661L61.0827 26.4593L25.4353 70.1466Z" fill="#3B4040"/>
<path d="M82.9364 46.6014C82.7187 46.464 82.5304 46.2847 82.3826 46.0739C82.2348 45.863 82.1304 45.625 82.0754 45.3734C82.0205 45.1219 82.0161 44.8619 82.0626 44.6086C82.109 44.3553 82.2054 44.1139 82.3461 43.8982L90.8365 30.6926C91.3922 29.8804 91.7793 28.965 91.9749 28.0005C92.1705 27.036 92.1706 26.042 91.9751 25.0775C91.7796 24.113 91.3926 23.1975 90.837 22.3852C90.2814 21.5729 89.5684 20.8804 88.7404 20.3487C87.9123 19.8169 86.9859 19.4567 86.0161 19.2893C85.0464 19.122 84.0529 19.151 83.0945 19.3745C82.1361 19.598 81.2322 20.0116 80.4366 20.5907C79.6409 21.1698 78.9694 21.9027 78.4621 22.7459L69.9716 35.9515C69.6764 36.3566 69.2376 36.6336 68.7449 36.7259C68.2522 36.8181 67.7429 36.7186 67.3211 36.4477C66.8994 36.1768 66.5971 35.755 66.4761 35.2685C66.3551 34.7821 66.4245 34.2678 66.6702 33.8308L75.1684 20.6252C75.9355 19.3145 76.9596 18.1723 78.1791 17.2672C79.3987 16.3621 80.7886 15.7128 82.2654 15.3583C83.7421 15.0037 85.2753 14.9513 86.7729 15.2042C88.2704 15.457 89.7014 16.0098 90.9799 16.8295C92.2584 17.6492 93.3581 18.7189 94.2129 19.9742C95.0677 21.2295 95.66 22.6447 95.9542 24.1346C96.2485 25.6246 96.2386 27.1586 95.9251 28.6446C95.6116 30.1306 95.0011 31.538 94.1301 32.7822L85.6397 45.9878C85.5027 46.2058 85.3241 46.3947 85.114 46.5436C84.9039 46.6925 84.6665 46.7985 84.4154 46.8555C84.1643 46.9125 83.9044 46.9195 83.6506 46.8759C83.3968 46.8323 83.1541 46.739 82.9364 46.6014Z" fill="#3B4040"/>
<path d="M75.9267 91.8969L29.6682 62.1921C29.4431 62.0575 29.2473 61.8791 29.0924 61.6674C28.9376 61.4557 28.8268 61.215 28.7668 60.9597C28.7068 60.7044 28.6987 60.4396 28.743 60.1811C28.7873 59.9225 28.8831 59.6755 29.0247 59.4548C29.1664 59.234 29.3509 59.0439 29.5674 58.8959C29.784 58.7478 30.028 58.6448 30.2851 58.5929C30.5422 58.541 30.8072 58.5413 31.0642 58.5938C31.3211 58.6463 31.565 58.7499 31.7811 58.8985L78.0474 88.6033C78.4841 88.8845 78.7913 89.3277 78.9013 89.8354C79.0113 90.3431 78.9151 90.8737 78.6339 91.3104C78.3526 91.7472 77.9094 92.0544 77.4017 92.1644C76.8941 92.2744 76.3635 92.1782 75.9267 91.8969Z" fill="#3B4040"/>
<path d="M70.9438 65.0118L69.6698 59.1936L76.0163 57.8032L63.1758 44.5354L57.0391 61.9202L63.3855 60.5375L64.6595 66.3713C64.8418 67.1993 65.3445 67.9215 66.0578 68.3801C66.771 68.8386 67.6368 68.9961 68.4658 68.8182C68.8786 68.7314 69.2703 68.564 69.6184 68.3256C69.9665 68.0872 70.2641 67.7826 70.4943 67.429C70.7245 67.0755 70.8826 66.68 70.9598 66.2652C71.0369 65.8504 71.0315 65.4245 70.9438 65.0118Z" fill="white"/>
<path d="M54.0547 64.5847L62.3975 40.8923L79.8522 58.9607L71.9832 60.6697L72.8377 64.5925C73.1292 65.9317 72.8769 67.3317 72.1361 68.4848C71.3953 69.6378 70.2268 70.4494 68.8877 70.7409C67.5486 71.0324 66.1485 70.78 64.9954 70.0392C63.8424 69.2985 63.0308 68.13 62.7393 66.7909L61.8848 62.9069L54.0547 64.5847ZM64.9299 58.2072L66.6233 65.9752C66.6993 66.2927 66.8958 66.5683 67.1712 66.7437C67.4466 66.9191 67.7794 66.9806 68.0992 66.9152C68.2577 66.8815 68.4079 66.8168 68.5412 66.7248C68.6745 66.6328 68.7883 66.5153 68.876 66.3792C69.0551 66.1008 69.1166 65.7628 69.0469 65.4392L67.3535 57.6712L72.1852 56.6148L64.0133 48.1632L60.1293 59.2481L64.9299 58.2072Z" fill="#3B4040"/>
<path d="M64.2687 164.64C64.2687 164.806 64.2273 164.947 64.1444 165.063C64.0615 165.179 63.9123 165.27 63.6967 165.337C63.4812 165.42 63.191 165.478 62.8262 165.511C62.4615 165.56 61.9889 165.585 61.4086 165.585C60.8449 165.585 60.3806 165.56 60.0159 165.511C59.6677 165.478 59.3775 165.42 59.1454 165.337C58.9299 165.27 58.7724 165.179 58.6729 165.063C58.59 164.947 58.5485 164.806 58.5485 164.64V157.055H37.135V164.64C37.135 164.806 37.0853 164.947 36.9858 165.063C36.9029 165.179 36.7454 165.27 36.5132 165.337C36.2977 165.42 36.0075 165.478 35.6428 165.511C35.278 165.56 34.8138 165.585 34.25 165.585C33.6863 165.585 33.222 165.56 32.8573 165.511C32.4925 165.478 32.1941 165.42 31.9619 165.337C31.7464 165.27 31.5972 165.179 31.5143 165.063C31.4314 164.947 31.3899 164.806 31.3899 164.64V153.075C31.3568 152.595 31.4397 152.255 31.6386 152.056C31.8542 151.84 32.1692 151.732 32.5837 151.732H34.0759C34.4739 151.169 34.8469 150.588 35.1951 149.992C35.5599 149.395 35.9081 148.69 36.2397 147.878C36.5713 147.049 36.8946 146.07 37.2096 144.943C37.5412 143.799 37.8645 142.406 38.1796 140.765C38.4946 139.123 38.8096 137.183 39.1246 134.945C39.4563 132.69 39.7962 130.045 40.1443 127.011C40.2438 126.265 40.4345 125.726 40.7164 125.395C40.9982 125.046 41.4293 124.872 42.0096 124.872H58.449C59.0293 124.872 59.4853 125.046 59.8169 125.395C60.1485 125.726 60.3143 126.24 60.3143 126.937V151.732H63.0501C63.4977 151.732 63.8128 151.857 63.9952 152.106C64.1775 152.338 64.2687 152.669 64.2687 153.1V164.64ZM53.7982 130.145H46.2874C45.9889 132.665 45.6905 134.887 45.392 136.81C45.1102 138.717 44.82 140.392 44.5215 141.834C44.2397 143.276 43.9495 144.52 43.6511 145.565C43.3526 146.609 43.0459 147.513 42.7309 148.275C42.4324 149.038 42.1174 149.693 41.7858 150.24C41.4542 150.787 41.1143 151.285 40.7661 151.732H53.7982V130.145Z" fill="white"/>
<path d="M87.9455 154.493C87.9455 154.974 87.9206 155.38 87.8708 155.712C87.8377 156.027 87.7797 156.284 87.6968 156.483C87.6139 156.682 87.5061 156.831 87.3734 156.93C87.2574 157.013 87.1247 157.055 86.9755 157.055H70.8097C70.2625 157.055 69.7983 156.897 69.4169 156.582C69.0522 156.251 68.8698 155.72 68.8698 154.991V126.937C68.8698 126.207 69.0522 125.685 69.4169 125.37C69.7983 125.038 70.2625 124.872 70.8097 124.872H86.876C87.0252 124.872 87.1579 124.914 87.274 124.997C87.39 125.08 87.4895 125.229 87.5724 125.444C87.6553 125.643 87.7133 125.909 87.7465 126.24C87.7962 126.555 87.8211 126.961 87.8211 127.459C87.8211 127.923 87.7962 128.321 87.7465 128.653C87.7133 128.968 87.6553 129.225 87.5724 129.424C87.4895 129.623 87.39 129.772 87.274 129.871C87.1579 129.954 87.0252 129.996 86.876 129.996H75.3859V137.855H85.1102C85.2594 137.855 85.3921 137.904 85.5081 138.004C85.6408 138.087 85.7486 138.228 85.8315 138.427C85.9144 138.609 85.9724 138.866 86.0056 139.198C86.0553 139.513 86.0802 139.902 86.0802 140.367C86.0802 140.847 86.0553 141.245 86.0056 141.56C85.9724 141.875 85.9144 142.132 85.8315 142.331C85.7486 142.514 85.6408 142.646 85.5081 142.729C85.3921 142.812 85.2594 142.854 85.1102 142.854H75.3859V151.931H86.9755C87.1247 151.931 87.2574 151.981 87.3734 152.081C87.5061 152.164 87.6139 152.304 87.6968 152.503C87.7797 152.702 87.8377 152.968 87.8708 153.299C87.9206 153.614 87.9455 154.012 87.9455 154.493Z" fill="white"/>
<path d="M39.1143 186.84C39.1143 186.884 39.0976 186.923 39.0643 186.956C39.0366 186.984 38.9839 187.009 38.9062 187.031C38.8286 187.048 38.7204 187.062 38.5817 187.073C38.4485 187.084 38.2793 187.089 38.0741 187.089C37.841 187.089 37.6496 187.084 37.4999 187.073C37.3501 187.062 37.2308 187.048 37.142 187.031C37.0532 187.009 36.9894 186.978 36.9506 186.939C36.9118 186.901 36.8813 186.853 36.8591 186.798L36.1684 185.025C36.0851 184.787 35.9936 184.587 35.8937 184.426C35.7994 184.265 35.694 184.138 35.5775 184.043C35.461 183.944 35.3279 183.874 35.1781 183.835C35.0283 183.791 34.8563 183.769 34.6621 183.769H34.2377V186.798C34.2377 186.837 34.2183 186.876 34.1795 186.914C34.1406 186.948 34.0796 186.978 33.9964 187.006C33.9132 187.034 33.805 187.053 33.6718 187.064C33.5387 187.081 33.3778 187.089 33.1892 187.089C32.995 187.089 32.8313 187.081 32.6982 187.064C32.565 187.053 32.4569 187.034 32.3736 187.006C32.2904 186.978 32.2294 186.948 32.1906 186.914C32.1573 186.876 32.1406 186.837 32.1406 186.798V179.283C32.1406 179.245 32.1573 179.209 32.1906 179.175C32.2294 179.136 32.2904 179.106 32.3736 179.084C32.4569 179.056 32.565 179.037 32.6982 179.025C32.8313 179.009 32.995 179 33.1892 179C33.3778 179 33.5387 179.009 33.6718 179.025C33.805 179.037 33.9132 179.056 33.9964 179.084C34.0796 179.106 34.1406 179.136 34.1795 179.175C34.2183 179.209 34.2377 179.245 34.2377 179.283V182.171H34.6621C34.8341 182.171 34.9894 182.152 35.1281 182.113C35.2668 182.068 35.3917 181.999 35.5026 181.905C35.6191 181.805 35.7245 181.675 35.8189 181.514C35.9187 181.353 36.013 181.153 36.1018 180.914L36.7259 179.317C36.7426 179.261 36.7703 179.214 36.8091 179.175C36.848 179.131 36.9062 179.098 36.9839 179.075C37.0671 179.048 37.1781 179.028 37.3168 179.017C37.461 179.006 37.6496 179 37.8827 179C38.0879 179 38.2544 179.006 38.382 179.017C38.5151 179.028 38.6177 179.045 38.6899 179.067C38.7675 179.089 38.8202 179.117 38.848 179.15C38.8757 179.178 38.8896 179.214 38.8896 179.258C38.8896 179.314 38.8785 179.381 38.8563 179.458C38.8341 179.536 38.7953 179.641 38.7398 179.774L38.1489 181.189C38.0324 181.472 37.9076 181.713 37.7745 181.913C37.6469 182.107 37.5137 182.268 37.375 182.396C37.2419 182.523 37.106 182.626 36.9673 182.704C36.8286 182.781 36.6954 182.842 36.5678 182.887V182.903C36.7398 182.976 36.9007 183.053 37.0505 183.136C37.2003 183.22 37.3417 183.328 37.4749 183.461C37.6136 183.594 37.744 183.761 37.866 183.96C37.9936 184.154 38.1184 184.39 38.2405 184.668L38.9645 186.332C38.9978 186.404 39.0227 186.468 39.0394 186.523C39.0616 186.573 39.0782 186.62 39.0893 186.665C39.1004 186.704 39.106 186.737 39.106 186.765C39.1115 186.792 39.1143 186.817 39.1143 186.84Z" fill="white"/>
<path d="M44.8813 187.039L43.9825 189.669C43.9326 189.808 43.7967 189.908 43.5747 189.969C43.3528 190.03 43.0283 190.06 42.6011 190.06C42.3792 190.06 42.2017 190.049 42.0685 190.027C41.9354 190.01 41.8355 189.98 41.7689 189.935C41.7023 189.891 41.6663 189.835 41.6607 189.769C41.6552 189.702 41.6718 189.622 41.7107 189.528L42.701 187.039C42.6288 187.006 42.5623 186.956 42.5012 186.89C42.4458 186.817 42.4042 186.743 42.3764 186.665L39.8216 179.841C39.7495 179.647 39.7134 179.5 39.7134 179.4C39.7134 179.295 39.7467 179.214 39.8133 179.159C39.8799 179.098 39.9908 179.056 40.1462 179.034C40.3071 179.012 40.5179 179 40.7786 179C41.0172 179 41.2058 179.006 41.3445 179.017C41.4832 179.023 41.5914 179.042 41.6691 179.075C41.7467 179.109 41.805 179.161 41.8438 179.233C41.8827 179.3 41.9215 179.397 41.9603 179.525L43.7079 184.493H43.7329L45.3306 179.425C45.3639 179.281 45.4055 179.186 45.4555 179.142C45.511 179.092 45.5997 179.056 45.7218 179.034C45.8438 179.012 46.0574 179 46.3625 179C46.6011 179 46.7981 179.012 46.9534 179.034C47.1143 179.056 47.2308 179.098 47.3029 179.159C47.3806 179.22 47.4194 179.303 47.4194 179.408C47.4194 179.508 47.3972 179.627 47.3528 179.766L44.8813 187.039Z" fill="white"/>
<path d="M55.6497 186.756C55.6497 186.812 55.633 186.862 55.5997 186.906C55.5664 186.945 55.5082 186.978 55.425 187.006C55.3473 187.034 55.2419 187.053 55.1087 187.064C54.9756 187.081 54.8064 187.089 54.6011 187.089C54.4014 187.089 54.2322 187.081 54.0935 187.064C53.9603 187.053 53.8521 187.034 53.7689 187.006C53.6857 186.978 53.6275 186.945 53.5942 186.906C53.5664 186.862 53.5526 186.812 53.5526 186.756V180.781H50.7481V186.756C50.7481 186.812 50.7287 186.862 50.6899 186.906C50.6566 186.945 50.5983 186.978 50.5151 187.006C50.4374 187.034 50.332 187.053 50.1989 187.064C50.0657 187.081 49.8965 187.089 49.6913 187.089C49.486 187.089 49.3168 187.081 49.1836 187.064C49.0505 187.053 48.9423 187.034 48.8591 187.006C48.7814 186.978 48.7259 186.945 48.6926 186.906C48.6649 186.862 48.651 186.812 48.651 186.756V179.724C48.651 179.503 48.6982 179.336 48.7925 179.225C48.8868 179.109 49.0338 179.05 49.2336 179.05H55.0754C55.2696 179.05 55.4139 179.109 55.5082 179.225C55.6025 179.336 55.6497 179.503 55.6497 179.724V186.756Z" fill="white"/>
<path d="M65.1448 186.781C65.1448 186.837 65.1282 186.884 65.0949 186.923C65.0671 186.962 65.0144 186.995 64.9368 187.023C64.8591 187.045 64.7537 187.062 64.6205 187.073C64.4929 187.084 64.3293 187.089 64.1295 187.089C63.9298 187.089 63.7606 187.084 63.6219 187.073C63.4888 187.062 63.3778 187.045 63.289 187.023C63.2058 186.995 63.1448 186.962 63.106 186.923C63.0727 186.884 63.056 186.837 63.056 186.781V183.469C63.056 183.236 63.0616 182.995 63.0727 182.745C63.0893 182.496 63.1115 182.252 63.1393 182.013C63.0061 182.246 62.8619 182.476 62.7065 182.704C62.5512 182.926 62.3931 183.147 62.2322 183.369L59.7273 186.773C59.6774 186.834 59.6302 186.887 59.5859 186.931C59.5415 186.97 59.4832 187.003 59.4111 187.031C59.3445 187.053 59.2585 187.067 59.1531 187.073C59.0477 187.084 58.9118 187.089 58.7454 187.089C58.5456 187.089 58.382 187.084 58.2544 187.073C58.1323 187.062 58.0325 187.045 57.9548 187.023C57.8827 186.995 57.83 186.962 57.7967 186.923C57.7689 186.878 57.7551 186.828 57.7551 186.773V179.325C57.7551 179.275 57.7689 179.231 57.7967 179.192C57.83 179.147 57.8854 179.111 57.9631 179.084C58.0463 179.056 58.1517 179.037 58.2793 179.025C58.4125 179.009 58.5789 179 58.7786 179C59.1725 179 59.4499 179.028 59.6108 179.084C59.7717 179.139 59.8521 179.22 59.8521 179.325V182.62C59.8521 182.848 59.8438 183.084 59.8272 183.328C59.8105 183.572 59.7883 183.808 59.7606 184.035C59.8938 183.813 60.0297 183.594 60.1684 183.378C60.3071 183.156 60.4541 182.942 60.6094 182.737L63.1393 179.325C63.1836 179.264 63.2308 179.214 63.2807 179.175C63.3307 179.131 63.3917 179.098 63.4638 179.075C63.5415 179.048 63.633 179.028 63.7384 179.017C63.8494 179.006 63.9908 179 64.1628 179C64.357 179 64.5179 179.006 64.6455 179.017C64.7731 179.028 64.873 179.048 64.9451 179.075C65.0228 179.103 65.0755 179.139 65.1032 179.184C65.1309 179.228 65.1448 179.278 65.1448 179.333V186.781Z" fill="white"/>
<path d="M72.7509 179.974C72.7509 180.157 72.7426 180.31 72.7259 180.432C72.7148 180.554 72.6954 180.651 72.6677 180.723C72.6399 180.795 72.6039 180.845 72.5595 180.873C72.5207 180.901 72.4763 180.914 72.4264 180.914H70.554V186.756C70.554 186.812 70.5373 186.862 70.504 186.906C70.4707 186.945 70.4153 186.978 70.3376 187.006C70.2599 187.034 70.1517 187.053 70.013 187.064C69.8799 187.081 69.7107 187.089 69.5054 187.089C69.3057 187.089 69.1393 187.081 69.0061 187.064C68.873 187.053 68.7648 187.034 68.6816 187.006C68.6039 186.978 68.5484 186.945 68.5151 186.906C68.4874 186.862 68.4735 186.812 68.4735 186.756V180.914H66.6011C66.5456 180.914 66.4957 180.901 66.4513 180.873C66.4125 180.84 66.3792 180.787 66.3515 180.715C66.3237 180.643 66.3015 180.543 66.2849 180.415C66.2738 180.288 66.2682 180.132 66.2682 179.949C66.2682 179.783 66.2766 179.644 66.2932 179.533C66.3099 179.417 66.332 179.322 66.3598 179.25C66.3875 179.178 66.4208 179.128 66.4596 179.1C66.4985 179.067 66.5456 179.05 66.6011 179.05H72.4264C72.4763 179.05 72.5207 179.067 72.5595 179.1C72.6039 179.128 72.6399 179.178 72.6677 179.25C72.6954 179.322 72.7148 179.419 72.7259 179.541C72.7426 179.658 72.7509 179.802 72.7509 179.974Z" fill="white"/>
<path d="M81.2724 186.781C81.2724 186.837 81.2558 186.884 81.2225 186.923C81.1947 186.962 81.142 186.995 81.0644 187.023C80.9867 187.045 80.8813 187.062 80.7481 187.073C80.6205 187.084 80.4569 187.089 80.2572 187.089C80.0574 187.089 79.8882 187.084 79.7495 187.073C79.6164 187.062 79.5054 187.045 79.4167 187.023C79.3334 186.995 79.2724 186.962 79.2336 186.923C79.2003 186.884 79.1836 186.837 79.1836 186.781V183.469C79.1836 183.236 79.1892 182.995 79.2003 182.745C79.2169 182.496 79.2391 182.252 79.2669 182.013C79.1337 182.246 78.9895 182.476 78.8341 182.704C78.6788 182.926 78.5207 183.147 78.3598 183.369L75.8549 186.773C75.805 186.834 75.7578 186.887 75.7135 186.931C75.6691 186.97 75.6108 187.003 75.5387 187.031C75.4721 187.053 75.3861 187.067 75.2807 187.073C75.1753 187.084 75.0394 187.089 74.873 187.089C74.6732 187.089 74.5096 187.084 74.382 187.073C74.2599 187.062 74.1601 187.045 74.0824 187.023C74.0103 186.995 73.9576 186.962 73.9243 186.923C73.8965 186.878 73.8827 186.828 73.8827 186.773V179.325C73.8827 179.275 73.8965 179.231 73.9243 179.192C73.9576 179.147 74.013 179.111 74.0907 179.084C74.1739 179.056 74.2793 179.037 74.4069 179.025C74.5401 179.009 74.7065 179 74.9062 179C75.3001 179 75.5775 179.028 75.7384 179.084C75.8993 179.139 75.9798 179.22 75.9798 179.325V182.62C75.9798 182.848 75.9714 183.084 75.9548 183.328C75.9382 183.572 75.916 183.808 75.8882 184.035C76.0214 183.813 76.1573 183.594 76.296 183.378C76.4347 183.156 76.5817 182.942 76.737 182.737L79.2669 179.325C79.3112 179.264 79.3584 179.214 79.4083 179.175C79.4583 179.131 79.5193 179.098 79.5914 179.075C79.6691 179.048 79.7606 179.028 79.866 179.017C79.977 179.006 80.1185 179 80.2904 179C80.4846 179 80.6455 179.006 80.7731 179.017C80.9007 179.028 81.0006 179.048 81.0727 179.075C81.1504 179.103 81.2031 179.139 81.2308 179.184C81.2585 179.228 81.2724 179.278 81.2724 179.333V186.781Z" fill="white"/>
<path d="M89.5276 178.817C89.5276 179.272 89.461 179.683 89.3279 180.049C89.2003 180.415 89.0172 180.731 88.7787 180.998C88.5456 181.264 88.2627 181.478 87.9298 181.638C87.6025 181.799 87.2391 181.902 86.8397 181.946L86.7731 183.569C86.7676 183.669 86.6871 183.744 86.5318 183.794C86.382 183.844 86.1628 183.869 85.8744 183.869C85.6913 183.869 85.5359 183.866 85.4083 183.86C85.2863 183.849 85.1892 183.833 85.1171 183.81C85.0449 183.788 84.9922 183.758 84.959 183.719C84.9257 183.68 84.9063 183.63 84.9007 183.569L84.8258 181.605C84.8203 181.428 84.8286 181.283 84.8508 181.172C84.873 181.062 84.9118 180.973 84.9673 180.906C85.0283 180.84 85.1032 180.795 85.192 180.773C85.2807 180.745 85.3861 180.731 85.5082 180.731H85.6247C85.9187 180.731 86.1712 180.684 86.382 180.59C86.5983 180.496 86.7759 180.371 86.9146 180.215C87.0533 180.06 87.1531 179.877 87.2142 179.666C87.2807 179.455 87.314 179.231 87.314 178.992C87.314 178.726 87.2752 178.482 87.1975 178.26C87.1254 178.038 87.0117 177.847 86.8563 177.686C86.7065 177.525 86.5151 177.403 86.2821 177.319C86.0547 177.231 85.7856 177.186 85.4749 177.186C85.192 177.186 84.9423 177.214 84.7259 177.27C84.5096 177.325 84.3237 177.386 84.1684 177.453C84.0131 177.519 83.8827 177.58 83.7773 177.636C83.6774 177.691 83.5997 177.719 83.5443 177.719C83.5054 177.719 83.4694 177.708 83.4361 177.686C83.4028 177.658 83.375 177.611 83.3529 177.544C83.3307 177.478 83.3112 177.383 83.2946 177.261C83.2835 177.139 83.278 176.984 83.278 176.795C83.278 176.601 83.2863 176.46 83.3029 176.371C83.3196 176.282 83.3556 176.21 83.4111 176.154C83.4666 176.099 83.572 176.035 83.7273 175.963C83.8827 175.885 84.0685 175.816 84.2849 175.755C84.5013 175.688 84.7426 175.633 85.0089 175.589C85.2752 175.544 85.5526 175.522 85.8411 175.522C86.4957 175.522 87.056 175.614 87.5221 175.797C87.9881 175.974 88.3681 176.215 88.6621 176.521C88.9617 176.826 89.1809 177.175 89.3196 177.569C89.4583 177.963 89.5276 178.379 89.5276 178.817ZM87.0644 185.949C87.0644 186.177 87.0449 186.368 87.0061 186.523C86.9728 186.679 86.909 186.804 86.8147 186.898C86.7259 186.992 86.6039 187.059 86.4486 187.098C86.2988 187.142 86.1129 187.164 85.891 187.164C85.658 187.164 85.4666 187.142 85.3168 187.098C85.167 187.059 85.045 186.992 84.9506 186.898C84.8619 186.804 84.7981 186.679 84.7592 186.523C84.7259 186.368 84.7093 186.177 84.7093 185.949C84.7093 185.716 84.7259 185.522 84.7592 185.367C84.7981 185.206 84.8619 185.078 84.9506 184.984C85.045 184.884 85.167 184.815 85.3168 184.776C85.4666 184.731 85.658 184.709 85.891 184.709C86.1129 184.709 86.2988 184.731 86.4486 184.776C86.6039 184.815 86.7259 184.884 86.8147 184.984C86.909 185.078 86.9728 185.206 87.0061 185.367C87.0449 185.522 87.0644 185.716 87.0644 185.949Z" fill="white"/>
</g>
<defs>
<filter id="filter0_d_297_3078" x="0" y="0" width="120.004" height="241.099" filterUnits="userSpaceOnUse" color-interpolation-filters="sRGB">
<feFlood flood-opacity="0" result="BackgroundImageFix"/>
<feColorMatrix in="SourceAlpha" type="matrix" values="0 0 0 0 0 0 0 0 0 0 0 0 0 0 0 0 0 0 127 0" result="hardAlpha"/>
<feOffset dy="4"/>
<feGaussianBlur stdDeviation="7"/>
<feComposite in2="hardAlpha" operator="out"/>
<feColorMatrix type="matrix" values="0 0 0 0 0.133333 0 0 0 0 0.631373 0 0 0 0 0.65098 0 0 0 0.25 0"/>
<feBlend mode="normal" in2="BackgroundImageFix" result="effect1_dropShadow_297_3078"/>
<feBlend mode="normal" in="SourceGraphic" in2="effect1_dropShadow_297_3078" result="shape"/>
</filter>
<linearGradient id="paint0_linear_297_3078" x1="21.6641" y1="216.643" x2="148.845" y2="152.04" gradientUnits="userSpaceOnUse">
<stop stop-color="#F4B79E"/>
<stop offset="1" stop-color="#FF9A71"/>
</linearGradient>
</defs>
</svg>
