<svg width="74" height="81" viewBox="0 0 74 81" fill="none" xmlns="http://www.w3.org/2000/svg">
<path d="M50.7209 78.1894L73.5376 31.7875C74.0239 30.795 74.1283 29.6585 73.8311 28.594C73.5339 27.5296 72.8558 26.6115 71.9257 26.0146L66.9275 22.8032L68.2395 20.7602C70.131 17.7327 70.7533 14.0817 69.9716 10.5985C69.1898 7.11528 67.067 4.0804 64.0631 2.15151C61.0593 0.222616 57.4163 -0.444902 53.9237 0.293585C50.431 1.03207 47.3701 3.11707 45.4041 6.0968L44.0983 8.13982L39.6437 5.27835C38.7128 4.68104 37.5947 4.4471 36.5024 4.62108C35.4101 4.79506 34.4201 5.3648 33.7208 6.22176L1.02018 46.276C0.617955 46.7664 0.323992 47.3363 0.157583 47.9484C-0.00882674 48.5605 -0.0439257 49.2008 0.0546043 49.8274C0.153134 50.4539 0.383057 51.0526 0.729284 51.5841C1.07551 52.1155 1.53022 52.5677 2.06355 52.911L44.242 79.995C44.7759 80.3382 45.3763 80.5646 46.0039 80.6592C46.6315 80.7538 47.272 80.7146 47.8833 80.5441C48.4947 80.3735 49.063 80.0755 49.551 79.6697C50.0389 79.2639 50.4355 78.7594 50.7146 78.1894H50.7209ZM55.6316 12.7007C55.7317 12.5444 55.8616 12.4093 56.0139 12.3032C56.1662 12.1971 56.3379 12.1221 56.5192 12.0823C56.7005 12.0426 56.8878 12.0389 57.0705 12.0716C57.2532 12.1043 57.4277 12.1726 57.584 12.2727C57.7403 12.3728 57.8754 12.5027 57.9815 12.655C58.0876 12.8073 58.1626 12.979 58.2024 13.1603C58.2421 13.3416 58.2457 13.5289 58.2131 13.7116C58.1804 13.8943 58.1121 14.0688 58.012 14.2251L56.7 16.2681L54.3258 14.7374L55.6316 12.7007Z" fill="white"/>
<path d="M37.5369 11.1514L67.4573 30.3694L46.0463 73.9223L6.8418 48.7502L37.5369 11.1514Z" fill="#F4B79E"/>
<path d="M46.6843 76.2027L4.50586 49.1187L37.2065 9.0708L69.4948 29.8008L46.6843 76.2027ZM9.1979 48.3753L45.4347 71.6481L65.4275 30.9379L37.8687 13.238L9.1979 48.3753Z" fill="#3B4040"/>
<path d="M55.4458 29.4381C55.2707 29.3276 55.1192 29.1834 55.0004 29.0138C54.8815 28.8442 54.7975 28.6527 54.7533 28.4504C54.7091 28.2481 54.7056 28.039 54.743 27.8353C54.7803 27.6316 54.8578 27.4374 54.971 27.2639L61.7997 16.6428C62.2467 15.9895 62.5581 15.2533 62.7154 14.4775C62.8727 13.7018 62.8727 12.9024 62.7155 12.1266C62.5583 11.3509 62.247 10.6145 61.8002 9.96123C61.3533 9.30793 60.7799 8.75097 60.1139 8.32326C59.4478 7.89556 58.7028 7.60584 57.9228 7.47125C57.1428 7.33667 56.3437 7.35996 55.5729 7.53974C54.8021 7.71952 54.0751 8.05217 53.4352 8.51793C52.7952 8.9837 52.2552 9.57313 51.8471 10.2513L45.0183 20.8725C44.7809 21.1983 44.428 21.4211 44.0317 21.4953C43.6354 21.5695 43.2258 21.4894 42.8865 21.2716C42.5473 21.0537 42.3042 20.7144 42.2069 20.3231C42.1096 19.9319 42.1654 19.5182 42.3631 19.1668L49.1981 8.54569C49.815 7.49146 50.6387 6.5728 51.6196 5.84484C52.6004 5.11688 53.7183 4.59465 54.9061 4.30952C56.0938 4.02439 57.3269 3.98224 58.5314 4.18559C59.7358 4.38894 60.8868 4.83359 61.9151 5.49287C62.9434 6.15215 63.8278 7.01244 64.5154 8.02209C65.2029 9.03173 65.6793 10.1699 65.9159 11.3683C66.1525 12.5666 66.1446 13.8004 65.8925 14.9956C65.6403 16.1908 65.1493 17.3227 64.4488 18.3234L57.62 28.9446C57.5098 29.1199 57.3662 29.2719 57.1972 29.3916C57.0282 29.5114 56.8373 29.5966 56.6353 29.6425C56.4333 29.6883 56.2243 29.6939 56.0202 29.6588C55.8161 29.6238 55.6209 29.5487 55.4458 29.4381Z" fill="#3B4040"/>
<path d="M49.808 65.869L12.6027 41.9777C12.4216 41.8695 12.2642 41.726 12.1396 41.5557C12.0151 41.3854 11.926 41.1919 11.8777 40.9865C11.8294 40.7811 11.8229 40.5682 11.8586 40.3602C11.8942 40.1523 11.9713 39.9536 12.0852 39.7761C12.1991 39.5985 12.3475 39.4456 12.5217 39.3266C12.6958 39.2075 12.8921 39.1246 13.0989 39.0829C13.3057 39.0411 13.5188 39.0414 13.7255 39.0836C13.9322 39.1258 14.1283 39.2092 14.3021 39.3286L51.5136 63.22C51.8649 63.4461 52.1119 63.8026 52.2004 64.2109C52.2889 64.6193 52.2115 65.046 51.9853 65.3973C51.7591 65.7486 51.4027 65.9956 50.9943 66.0841C50.586 66.1726 50.1593 66.0952 49.808 65.869Z" fill="#3B4040"/>
<path d="M45.7987 44.2456L44.774 39.5661L49.8784 38.4477L39.5509 27.7766L34.6152 41.759L39.7196 40.6469L40.7443 45.339C40.8909 46.005 41.2952 46.5859 41.8689 46.9546C42.4425 47.3234 43.1389 47.4501 43.8056 47.307C44.1377 47.2372 44.4527 47.1026 44.7327 46.9109C45.0126 46.7191 45.252 46.4741 45.4371 46.1897C45.6223 45.9054 45.7495 45.5873 45.8115 45.2537C45.8736 44.9201 45.8692 44.5775 45.7987 44.2456Z" fill="white"/>
<path d="M32.2148 43.902L38.9249 24.8464L52.9636 39.3787L46.6346 40.7532L47.3219 43.9083C47.5563 44.9853 47.3533 46.1114 46.7575 47.0388C46.1617 47.9662 45.2219 48.6189 44.1449 48.8533C43.0678 49.0878 41.9418 48.8848 41.0144 48.289C40.087 47.6932 39.4343 46.7534 39.1998 45.6764L38.5126 42.5525L32.2148 43.902ZM40.9617 38.7726L42.3237 45.0203C42.3848 45.2757 42.5428 45.4974 42.7643 45.6384C42.9858 45.7795 43.2535 45.8289 43.5107 45.7763C43.6382 45.7493 43.759 45.6972 43.8662 45.6232C43.9735 45.5492 44.065 45.4548 44.1355 45.3452C44.2796 45.1214 44.329 44.8495 44.273 44.5893L42.911 38.3415L46.7971 37.4918L40.2244 30.6943L37.1006 39.6098L40.9617 38.7726Z" fill="#3B4040"/>
</svg>
