<svg preserveAspectRatio="none" width="312" height="132" viewBox="0 0 312 132" fill="none" xmlns="http://www.w3.org/2000/svg">
<path d="M8.26321 59.9317L4.43358 75.7698L0.603948 59.9317H0V89.7446H1.85305V74.1283L4.13159 83.3561H4.73556L7.01412 74.1283V89.7446H8.86718V59.9317H8.26321Z" fill="#2CC8CC"/>
<path d="M17.046 60.464H10.9515V89.7446H17.2107V84.3321H12.8046V76.9233H15.9204V71.8213H12.8046V65.8765H17.046V60.464Z" fill="#2CC8CC"/>
<path d="M26.2048 84.3321V60.464H20.577V65.2998C20.577 76.036 19.9319 81.2266 18.7651 84.3321H18.0651V96H19.9181V89.7446H25.5596V96H27.4126V84.3321H26.2048ZM22.3477 65.8765H24.3517V84.3321H20.8103C21.7986 80.5612 22.3065 74.8381 22.3477 65.8765Z" fill="#2CC8CC"/>
<path d="M36.0268 59.9317L30.646 78.2986V60.464H28.793V90.277H29.397L34.7914 71.777V89.7446H36.6445V59.9317H36.0268Z" fill="#2CC8CC"/>
<path d="M43.6264 60.464V74.1283C43.1185 74.705 42.5557 75.0599 42.1028 75.0599C40.8949 75.0599 40.0438 72.7086 40.0438 68.1835V60.464H38.1908V68.7602C38.1908 76.4352 39.8105 80.5611 42.0342 80.5611C42.6107 80.5611 43.146 80.295 43.6264 79.8513V89.7446H45.4794V60.464H43.6264Z" fill="#2CC8CC"/>
<path d="M55.2602 60.464H53.4071V71.6882H49.3991V60.464H47.546V89.7446H49.3991V77.1007H53.4071V89.7446H55.2602V60.464Z" fill="#2CC8CC"/>
<path d="M64.5651 59.9317L59.1844 78.2986V60.464H57.3313V90.277H57.9353L63.3297 71.777V89.7446H65.1828V59.9317H64.5651Z" fill="#2CC8CC"/>
<path d="M74.4433 89.7446L71.4647 74.8381L74.2511 60.464H72.151L70.4215 69.6918L68.6783 60.464H66.5644L69.392 74.8381L66.386 89.7446H68.4998L70.4215 80.0288L72.3432 89.7446H74.4433Z" fill="#2CC8CC"/>
<path d="M81.3824 60.464H79.5293V89.7446H81.3824V60.464Z" fill="#2CC8CC"/>
<path d="M97.2281 74.8381C97.2281 67.1187 95.4436 62.5935 92.9317 62.5492V59H91.0787V62.5492C88.5805 62.6379 86.7823 67.1631 86.7823 74.8381C86.7823 82.5576 88.5805 87.2602 91.0787 87.3489V91.1643H92.9317V87.3489C95.4436 87.2602 97.2281 82.6019 97.2281 74.8381ZM88.6079 75.0156C88.6079 70.446 89.5551 67.6954 91.0787 67.6511V82.2026C89.5551 82.1583 88.6079 79.5851 88.6079 75.0156ZM92.9317 82.2026V67.6511C94.4553 67.6511 95.4162 70.4017 95.4162 75.0156C95.4162 79.6295 94.4553 82.2026 92.9317 82.2026Z" fill="#2CC8CC"/>
<path d="M104.358 89.7446H106.348L102.312 59.9317H101.695L97.6454 89.7446H99.6357L100.144 85.9293H103.85L104.358 89.7446ZM103.205 81.0048H100.789L101.997 71.1115L103.205 81.0048Z" fill="#2CC8CC"/>
<path d="M110.989 60.464H107.585V89.7446H109.438V79.4077H110.989C112.897 79.4077 114.256 75.548 114.256 69.9137C114.256 64.1906 112.897 60.464 110.989 60.464ZM110.989 65.7434C111.854 65.7434 112.362 67.4736 112.362 69.9137C112.362 72.4424 111.854 74.1727 110.989 74.1727H109.438V65.7434H110.989Z" fill="#2CC8CC"/>
<path d="M123.998 59.9317L120.169 75.7698L116.339 59.9317H115.735V89.7446H117.588V74.1283L119.867 83.3561H120.471L122.749 74.1283V89.7446H124.602V59.9317H123.998Z" fill="#2CC8CC"/>
<path d="M132.534 89.7446H134.524L130.489 59.9317H129.871L125.822 89.7446H127.812L128.32 85.9293H132.026L132.534 89.7446ZM131.381 81.0048H128.965L130.173 71.1115L131.381 81.0048Z" fill="#2CC8CC"/>
<path d="M143.132 60.464H141.279V84.3321H137.615V60.464H135.761V89.7446H142.474V96H144.327V84.3321H143.132V60.464Z" fill="#2CC8CC"/>
<path d="M151.816 60.464H145.721V89.7446H151.98V84.3321H147.574V76.9233H150.69V71.8213H147.574V65.8765H151.816V60.464Z" fill="#2CC8CC"/>
<path d="M158.998 73.9065C159.423 72.5755 159.67 70.801 159.67 68.6271C159.67 63.7914 158.476 60.464 156.801 60.464H153.59V89.7446H157.625C159.382 89.7446 160.604 86.1954 160.604 81.1379C160.604 77.5444 159.986 75.06 158.998 73.9065ZM156.65 65.6103C157.419 65.6103 157.831 66.8969 157.831 68.9377C157.831 70.9341 157.419 72.3094 156.65 72.3094H155.374V65.6103H156.65ZM157.488 84.5983H155.374V77.2338H157.488C158.298 77.2338 158.778 78.6535 158.778 80.9161C158.778 83.223 158.298 84.5983 157.488 84.5983Z" fill="#2CC8CC"/>
<path d="M168.575 60.464H160.915V65.8765H163.812V89.7446H165.665V65.8765H168.575V60.464Z" fill="#2CC8CC"/>
<path d="M177.029 59.9317L171.649 78.2986V60.464H169.796V90.277H170.4L175.794 71.777V89.7446H177.647V59.9317H177.029Z" fill="#2CC8CC"/>
<path d="M184.629 60.464V74.1283C184.121 74.705 183.558 75.0599 183.105 75.0599C181.898 75.0599 181.047 72.7086 181.047 68.1835V60.464H179.193V68.7602C179.193 76.4352 180.813 80.5611 183.037 80.5611C183.613 80.5611 184.149 80.295 184.629 79.8513V89.7446H186.482V60.464H184.629Z" fill="#2CC8CC"/>
<path d="M196.263 60.464H194.41V71.6882H190.402V60.464H188.549V89.7446H190.402V77.1007H194.41V89.7446H196.263V60.464Z" fill="#2CC8CC"/>
<path d="M205.568 59.9317L200.187 78.2986V60.464H198.334V90.277H198.938L204.332 71.777V89.7446H206.185V59.9317H205.568Z" fill="#2CC8CC"/>
<path d="M215.446 89.7446L212.467 74.8381L215.254 60.464H213.154L211.424 69.6918L209.681 60.464H207.567L210.395 74.8381L207.389 89.7446H209.502L211.424 80.0288L213.346 89.7446H215.446Z" fill="#2CC8CC"/>
<path d="M227.93 60.464H220.532V89.7446H222.385V65.8765H226.077V89.7446H227.93V60.464Z" fill="#2CC8CC"/>
<path d="M233.427 60.464H230.022V89.7446H231.875V79.4077H233.427C235.334 79.4077 236.693 75.548 236.693 69.9137C236.693 64.1906 235.334 60.464 233.427 60.464ZM233.427 65.7434C234.291 65.7434 234.799 67.4736 234.799 69.9137C234.799 72.4424 234.291 74.1727 233.427 74.1727H231.875V65.7434H233.427Z" fill="#2CC8CC"/>
<path d="M242.921 89.7446H244.911L240.875 59.9317H240.258L236.208 89.7446H238.199L238.707 85.9293H242.413L242.921 89.7446ZM241.768 81.0048H239.352L240.56 71.1115L241.768 81.0048Z" fill="#2CC8CC"/>
<path d="M253.519 60.464H251.666V84.3321H248.001V60.464H246.148V89.7446H252.86V96H254.713V84.3321H253.519V60.464Z" fill="#2CC8CC"/>
<path d="M257.961 60.464H256.108V89.7446H257.961V60.464Z" fill="#2CC8CC"/>
<path d="M265.443 73.9065C265.869 72.5755 266.116 70.801 266.116 68.6271C266.116 63.7914 264.922 60.464 263.247 60.464H260.035V89.7446H264.071C265.828 89.7446 267.049 86.1954 267.049 81.1379C267.049 77.5444 266.432 75.06 265.443 73.9065ZM263.096 65.6103C263.865 65.6103 264.277 66.8969 264.277 68.9377C264.277 70.9341 263.865 72.3094 263.096 72.3094H261.82V65.6103H263.096ZM263.933 84.5983H261.82V77.2338H263.933C264.743 77.2338 265.224 78.6535 265.224 80.9161C265.224 83.223 264.743 84.5983 263.933 84.5983Z" fill="#2CC8CC"/>
<path d="M276.275 60.464H274.422V71.6882H270.414V60.464H268.561V89.7446H270.414V77.1007H274.422V89.7446H276.275V60.464Z" fill="#2CC8CC"/>
<path d="M285.58 59.9317L280.199 78.2986V60.464H278.346V90.277H278.95L284.344 71.777V89.7446H286.197V59.9317H285.58Z" fill="#2CC8CC"/>
<path d="M296.24 89.7446L292.314 74.2614L295.787 60.464H293.577L290.118 74.0396V60.464H288.265V89.7446H290.118V74.4832L294.003 89.7446H296.24Z" fill="#2CC8CC"/>
<path d="M299.314 60.464H297.461V89.7446H299.314V60.464Z" fill="#2CC8CC"/>
<path d="M306.797 73.9065C307.222 72.5755 307.469 70.801 307.469 68.6271C307.469 63.7914 306.275 60.464 304.6 60.464H301.388V89.7446H305.424C307.181 89.7446 308.402 86.1954 308.402 81.1379C308.402 77.5444 307.785 75.06 306.797 73.9065ZM304.449 65.6103C305.218 65.6103 305.63 66.8969 305.63 68.9377C305.63 70.9341 305.218 72.3094 304.449 72.3094H303.173V65.6103H304.449ZM305.287 84.5983H303.173V77.2338H305.287C306.096 77.2338 306.577 78.6535 306.577 80.9161C306.577 83.223 306.096 84.5983 305.287 84.5983Z" fill="#2CC8CC"/>
<path d="M310.737 82.0252C309.996 82.0252 309.447 83.8441 309.447 86.1511C309.447 88.5024 309.996 90.277 310.737 90.277C311.465 90.277 312 88.5024 312 86.1511C312 83.8441 311.465 82.0252 310.737 82.0252Z" fill="#2CC8CC"/>
<path d="M2.88276 2.2554H0V47.3633H2.88276V2.2554Z" fill="#2CC8CC"/>
<path d="M18.1108 2.2554H15.2281V19.5468H8.99277V2.2554H6.11002V47.3633H8.99277V27.8849H15.2281V47.3633H18.1108V2.2554Z" fill="#2CC8CC"/>
<path d="M36.7717 24.3993C36.7717 12.5072 33.9957 5.53597 30.088 5.46762V0H27.2052V5.46762C23.3188 5.60432 20.5215 12.5755 20.5215 24.3993C20.5215 36.2914 23.3188 43.536 27.2052 43.6727V49.5504H30.088V43.6727C33.9957 43.536 36.7717 36.3597 36.7717 24.3993ZM23.3615 24.6727C23.3615 17.6331 24.8349 13.3957 27.2052 13.3273V35.7446C24.8349 35.6763 23.3615 31.7122 23.3615 24.6727ZM30.088 35.7446V13.3273C32.4582 13.3273 33.953 17.5647 33.953 24.6727C33.953 31.7806 32.4582 35.7446 30.088 35.7446Z" fill="#2CC8CC"/>
<path d="M45.8874 1.43525C41.7448 1.43525 38.4136 11.5504 38.4136 24.8094C38.4136 38.0683 41.7448 48.1835 45.8874 48.1835C50.0301 48.1835 53.404 38.0683 53.404 24.8094C53.404 11.5504 50.0301 1.43525 45.8874 1.43525ZM45.9088 9.97841C48.4926 9.97841 50.4358 16.1295 50.4358 24.8094C50.4358 33.5576 48.4926 39.6403 45.9088 39.6403C43.2823 39.6403 41.3818 33.5576 41.3818 24.8094C41.3818 16.1295 43.2823 9.97841 45.9088 9.97841Z" fill="#2CC8CC"/>
<path d="M61.1409 2.2554H55.8451V47.3633H58.7279V31.4388H61.1409C64.109 31.4388 66.2231 25.4928 66.2231 16.813C66.2231 7.9964 64.109 2.2554 61.1409 2.2554ZM61.1409 10.3885C62.4861 10.3885 63.2762 13.054 63.2762 16.813C63.2762 20.7086 62.4861 23.3741 61.1409 23.3741H58.7279V10.3885H61.1409Z" fill="#2CC8CC"/>
<path d="M81.3789 1.43525L75.4212 25.8345L69.4635 1.43525H68.5239V47.3633H71.4067V23.3058L74.9514 37.5216H75.891L79.4357 23.3058V47.3633H82.3185V1.43525H81.3789Z" fill="#2CC8CC"/>
<path d="M94.6578 47.3633H97.7541L91.4761 1.43525H90.5151L84.2158 47.3633H87.3121L88.1022 41.4856H93.8677L94.6578 47.3633ZM92.8641 33.8993H89.1058L90.9849 18.6583L92.8641 33.8993Z" fill="#2CC8CC"/>
<path d="M111.146 2.2554H108.263V39.0252H102.562V2.2554H99.6787V47.3633H110.121V57H113.003V39.0252H111.146V2.2554Z" fill="#2CC8CC"/>
<path d="M118.056 2.2554H115.173V47.3633H118.056V2.2554Z" fill="#2CC8CC"/>
<path d="M126.685 2.2554C123.504 2.2554 121.24 8.47482 121.24 17.8381C121.24 23.5791 122.116 28.2266 123.525 30.8921L120.172 47.3633H123.397L126.258 33.4209C126.408 33.4892 126.536 33.4892 126.685 33.4892H128.778V47.3633H131.661V2.2554H126.685ZM128.778 25.3561H126.643C125.126 25.3561 124.187 22.2122 124.187 17.8381C124.187 13.5324 125.126 10.3885 126.643 10.3885H128.778V25.3561Z" fill="#2CC8CC"/>
<path d="M149.298 22.964C149.96 20.9137 150.345 18.1799 150.345 14.8309C150.345 7.38129 148.487 2.2554 145.882 2.2554H140.885V47.3633H147.163C149.896 47.3633 151.797 41.8957 151.797 34.1043C151.797 28.5683 150.836 24.741 149.298 22.964ZM145.647 10.1835C146.843 10.1835 147.483 12.1655 147.483 15.3094C147.483 18.3849 146.843 20.5036 145.647 20.5036H143.661V10.1835H145.647ZM146.949 39.4353H143.661V28.0899H146.949C148.209 28.0899 148.957 30.277 148.957 33.7626C148.957 37.3166 148.209 39.4353 146.949 39.4353Z" fill="#2CC8CC"/>
<path d="M165.401 1.43525L157.03 29.7302V2.2554H154.148V48.1835H155.087L163.479 19.6835V47.3633H166.362V1.43525H165.401Z" fill="#2CC8CC"/>
<path d="M181.986 47.3633L175.878 23.5108L181.281 2.2554H177.843L172.462 23.1691V2.2554H169.579V47.3633H172.462V23.8525L178.505 47.3633H181.986Z" fill="#2CC8CC"/>
<path d="M185.614 2.2554V10.5935C185.614 30.3453 184.525 38.1367 182.261 39.0252V47.705C185.828 46.8849 188.283 39.5719 188.369 10.5935H191.892V47.3633H194.775V2.2554H185.614Z" fill="#2CC8CC"/>
<path d="M210.707 1.43525C207.141 1.43525 204.258 8.95324 203.532 19.5468H200.906V2.2554H198.023V47.3633H200.906V27.8849H203.425C203.874 39.5719 206.906 48.1835 210.707 48.1835C214.807 48.1835 218.181 38.0683 218.181 24.8094C218.181 11.5504 214.807 1.43525 210.707 1.43525ZM210.707 39.6403C208.145 39.6403 206.201 33.4892 206.201 24.8094C206.201 16.1295 208.145 9.97841 210.707 9.97841C213.269 9.97841 215.213 16.1295 215.213 24.8094C215.213 33.4892 213.269 39.6403 210.707 39.6403Z" fill="#2CC8CC"/>
<path d="M228.252 2.2554V23.3058C227.462 24.1942 226.586 24.741 225.881 24.741C224.002 24.741 222.678 21.1187 222.678 14.1475V2.2554H219.796V15.036C219.796 26.8597 222.315 33.2158 225.775 33.2158C226.671 33.2158 227.504 32.8058 228.252 32.1223V47.3633H231.134V2.2554H228.252Z" fill="#2CC8CC"/>
<path d="M246.35 2.2554H243.467V19.5468H237.232V2.2554H234.349V47.3633H237.232V27.8849H243.467V47.3633H246.35V2.2554Z" fill="#2CC8CC"/>
<path d="M256.235 1.43525C252.092 1.43525 248.761 11.5504 248.761 24.8094C248.761 38.0683 252.092 48.1835 256.235 48.1835C260.377 48.1835 263.751 38.0683 263.751 24.8094C263.751 11.5504 260.377 1.43525 256.235 1.43525ZM256.256 9.97841C258.84 9.97841 260.783 16.1295 260.783 24.8094C260.783 33.5576 258.84 39.6403 256.256 39.6403C253.629 39.6403 251.729 33.5576 251.729 24.8094C251.729 16.1295 253.629 9.97841 256.256 9.97841Z" fill="#2CC8CC"/>
<path d="M283.457 39.0252V2.2554H274.702V9.70504C274.702 26.2446 273.698 34.241 271.883 39.0252H270.794V57H273.677V47.3633H282.453V57H285.336V39.0252H283.457ZM277.457 10.5935H280.574V39.0252H275.065C276.602 33.2158 277.393 24.3993 277.457 10.5935Z" fill="#2CC8CC"/>
<path d="M289.213 2.2554V10.5935C289.213 30.3453 288.124 38.1367 285.861 39.0252V47.705C289.427 46.8849 291.882 39.5719 291.968 10.5935H295.491V47.3633H298.374V2.2554H289.213Z" fill="#2CC8CC"/>
<path d="M307.025 2.2554C303.843 2.2554 301.579 8.47482 301.579 17.8381C301.579 23.5791 302.455 28.2266 303.864 30.8921L300.512 47.3633H303.736L306.597 33.4209C306.747 33.4892 306.875 33.4892 307.025 33.4892H309.117V47.3633H312V2.2554H307.025ZM309.117 25.3561H306.982C305.466 25.3561 304.526 22.2122 304.526 17.8381C304.526 13.5324 305.466 10.3885 306.982 10.3885H309.117V25.3561Z" fill="#2CC8CC"/>
<path d="M7.53289 122.679V103.612H2.32465V107.475C2.32465 116.052 1.72761 120.198 0.647855 122.679H0V132H1.71491V127.003H6.93585V132H8.65076V122.679H7.53289ZM3.96334 107.936H5.81798V122.679H2.54061C3.45522 119.667 3.92524 115.095 3.96334 107.936Z" fill="#2CC8CC"/>
<path d="M10.9571 103.612V107.936C10.9571 118.178 10.3093 122.218 8.96277 122.679V127.18C11.0842 126.755 12.545 122.963 12.5958 107.936H14.6918V127.003H16.4067V103.612H10.9571Z" fill="#2CC8CC"/>
<path d="M21.5529 103.612C19.6601 103.612 18.3136 106.837 18.3136 111.693C18.3136 114.67 18.8344 117.08 19.6728 118.462L17.6784 127.003H19.5966L21.2988 119.773C21.3877 119.808 21.4639 119.808 21.5529 119.808H22.7977V127.003H24.5127V103.612H21.5529ZM22.7977 115.591H21.5274C20.6255 115.591 20.0666 113.961 20.0666 111.693C20.0666 109.46 20.6255 107.83 21.5274 107.83H22.7977V115.591Z" fill="#2CC8CC"/>
<path d="M35.005 114.351C35.3988 113.287 35.6274 111.87 35.6274 110.133C35.6274 106.27 34.5222 103.612 32.9725 103.612H30V127.003H33.7346C35.3606 127.003 36.4912 124.168 36.4912 120.127C36.4912 117.257 35.9196 115.272 35.005 114.351ZM32.8327 107.723C33.5441 107.723 33.9252 108.751 33.9252 110.381C33.9252 111.976 33.5441 113.075 32.8327 113.075H31.6514V107.723H32.8327ZM33.6076 122.892H31.6514V117.009H33.6076C34.3571 117.009 34.8017 118.143 34.8017 119.95C34.8017 121.793 34.3571 122.892 33.6076 122.892Z" fill="#2CC8CC"/>
<path d="M44.5842 103.187L39.6046 117.859V103.612H37.8897V127.428H38.4487L43.441 112.649V127.003H45.1558V103.187H44.5842Z" fill="#2CC8CC"/>
<path d="M54.4501 127.003L50.817 114.634L54.0309 103.612H51.9857L48.7846 114.457V103.612H47.0696V127.003H48.7846V114.811L52.3795 127.003H54.4501Z" fill="#2CC8CC"/>
<path d="M58.9104 103.187C56.446 103.187 54.4643 108.432 54.4643 115.307C54.4643 122.183 56.446 127.428 58.9104 127.428C61.3747 127.428 63.3818 122.183 63.3818 115.307C63.3818 108.432 61.3747 103.187 58.9104 103.187ZM58.923 107.617C60.4601 107.617 61.6161 110.807 61.6161 115.307C61.6161 119.844 60.4601 122.998 58.923 122.998C57.3606 122.998 56.23 119.844 56.23 115.307C56.23 110.807 57.3606 107.617 58.923 107.617Z" fill="#2CC8CC"/>
<path d="M67.9844 103.612H64.834V127.003H66.5489V118.745H67.9844C69.7501 118.745 71.0077 115.662 71.0077 111.161C71.0077 106.589 69.7501 103.612 67.9844 103.612ZM67.9844 107.83C68.7847 107.83 69.2547 109.212 69.2547 111.161C69.2547 113.181 68.7847 114.563 67.9844 114.563H66.5489V107.83H67.9844Z" fill="#2CC8CC"/>
<path d="M79.0709 103.187L74.0913 117.859V103.612H72.3764V127.428H72.9354L77.9277 112.649V127.003H79.6426V103.187H79.0709Z" fill="#2CC8CC"/>
<path d="M85.5451 103.187C83.0426 103.187 81.0736 108.432 81.0736 115.307C81.0736 122.183 83.0426 127.428 85.5324 127.428C87.1584 127.428 88.5176 125.195 89.2417 121.616L87.946 119.064C87.387 121.545 86.5994 122.998 85.5451 122.998C83.9826 122.998 82.8394 119.844 82.8394 115.343C82.8394 110.807 83.9826 107.617 85.5451 107.617C86.5994 107.617 87.387 109.07 87.946 111.551L89.2417 108.999C88.5049 105.42 87.1584 103.187 85.5451 103.187Z" fill="#2CC8CC"/>
<path d="M96.9997 103.612H89.9115V107.936H92.5918V127.003H94.3067V107.936H96.9997V103.612Z" fill="#2CC8CC"/>
<path d="M102.586 127.003H104.428L100.693 103.187H100.122L96.3743 127.003H98.2163L98.6863 123.955H102.116L102.586 127.003ZM101.519 120.021H99.2833L100.401 112.118L101.519 120.021Z" fill="#2CC8CC"/>
<path d="M112.712 103.612H110.997V112.579H107.288V103.612H105.573V127.003H107.288V116.902H110.997V127.003H112.712V103.612Z" fill="#2CC8CC"/>
<path d="M121.768 103.612H120.053V112.579H116.344V103.612H114.629V127.003H116.344V116.902H120.053V127.003H121.768V103.612Z" fill="#2CC8CC"/>
<path d="M126.899 103.612C125.006 103.612 123.659 106.837 123.659 111.693C123.659 114.67 124.18 117.08 125.019 118.462L123.024 127.003H124.942L126.645 119.773C126.733 119.808 126.81 119.808 126.899 119.808H128.143V127.003H129.858V103.612H126.899ZM128.143 115.591H126.873C125.971 115.591 125.412 113.961 125.412 111.693C125.412 109.46 125.971 107.83 126.873 107.83H128.143V115.591Z" fill="#2CC8CC"/>
<path d="M140.274 103.612L138.56 115.626L136.629 103.612H134.647L137.62 120.978C137.289 122.537 136.692 122.998 136.121 122.998C135.905 122.998 135.663 122.963 135.358 122.892V127.003C135.701 127.251 136.108 127.428 136.476 127.428C137.874 127.428 138.814 125.692 139.373 122.041L142.218 103.612H140.274Z" fill="#2CC8CC"/>
<path d="M153.134 103.612H146.287V127.003H148.002V107.936H151.419V127.003H153.134V103.612Z" fill="#2CC8CC"/>
<path d="M158.22 103.612H155.07V127.003H156.785V118.745H158.22C159.986 118.745 161.244 115.662 161.244 111.161C161.244 106.589 159.986 103.612 158.22 103.612ZM158.22 107.83C159.021 107.83 159.491 109.212 159.491 111.161C159.491 113.181 159.021 114.563 158.22 114.563H156.785V107.83H158.22Z" fill="#2CC8CC"/>
<path d="M166.576 103.187C164.111 103.187 162.13 108.432 162.13 115.307C162.13 122.183 164.111 127.428 166.576 127.428C169.04 127.428 171.047 122.183 171.047 115.307C171.047 108.432 169.04 103.187 166.576 103.187ZM166.589 107.617C168.126 107.617 169.282 110.807 169.282 115.307C169.282 119.844 168.126 122.998 166.589 122.998C165.026 122.998 163.896 119.844 163.896 115.307C163.896 110.807 165.026 107.617 166.589 107.617Z" fill="#2CC8CC"/>
<path d="M181.684 115.095C181.684 108.928 180.032 105.313 177.708 105.278V102.443H175.993V105.278C173.681 105.349 172.017 108.964 172.017 115.095C172.017 121.261 173.681 125.018 175.993 125.089V128.137H177.708V125.089C180.032 125.018 181.684 121.297 181.684 115.095ZM173.706 115.237C173.706 111.586 174.583 109.389 175.993 109.353V120.978C174.583 120.943 173.706 118.887 173.706 115.237ZM177.708 120.978V109.353C179.118 109.353 180.007 111.551 180.007 115.237C180.007 118.922 179.118 120.978 177.708 120.978Z" fill="#2CC8CC"/>
<path d="M188.783 103.612H183.143V127.003H188.936V122.679H184.858V116.761H187.742V112.685H184.858V107.936H188.783V103.612Z" fill="#2CC8CC"/>
<path d="M194.166 103.187C191.663 103.187 189.694 108.432 189.694 115.307C189.694 122.183 191.663 127.428 194.153 127.428C195.779 127.428 197.138 125.195 197.862 121.616L196.567 119.064C196.008 121.545 195.22 122.998 194.166 122.998C192.603 122.998 191.46 119.844 191.46 115.343C191.46 110.807 192.603 107.617 194.166 107.617C195.22 107.617 196.008 109.07 196.567 111.551L197.862 108.999C197.126 105.42 195.779 103.187 194.166 103.187Z" fill="#2CC8CC"/>
<path d="M201.035 103.612H199.32V127.003H201.035V103.612Z" fill="#2CC8CC"/>
<path d="M206.791 101.131C208.074 101.131 208.976 98.5441 208.976 95H207.629C207.629 96.5948 207.286 97.5872 206.791 97.5872C206.295 97.5872 205.94 96.5948 205.94 95H204.593C204.593 98.5441 205.495 101.131 206.791 101.131ZM209.649 103.187L204.669 117.859V103.612H202.955V127.428H203.513L208.506 112.649V127.003H210.221V103.187H209.649Z" fill="#2CC8CC"/>
<path d="M219.274 103.612H217.559V112.579H213.849V103.612H212.134V127.003H213.849V116.902H217.559V127.003H219.274V103.612Z" fill="#2CC8CC"/>
<path d="M222.905 103.612H221.19V127.003H222.905V103.612Z" fill="#2CC8CC"/>
<path d="M228.661 101.131C229.944 101.131 230.846 98.5441 230.846 95H229.5C229.5 96.5948 229.157 97.5872 228.661 97.5872C228.166 97.5872 227.81 96.5948 227.81 95H226.464C226.464 98.5441 227.366 101.131 228.661 101.131ZM231.52 103.187L226.54 117.859V103.612H224.825V127.428H225.384L230.376 112.649V127.003H232.091V103.187H231.52Z" fill="#2CC8CC"/>
<path d="M244.275 122.679V103.612H239.067V107.475C239.067 116.052 238.47 120.198 237.39 122.679H236.743V132H238.457V127.003H243.678V132H245.393V122.679H244.275ZM240.706 107.936H242.561V122.679H239.283C240.198 119.667 240.668 115.095 240.706 107.936Z" fill="#2CC8CC"/>
<path d="M248.386 103.612H246.671V127.003H248.386V103.612Z" fill="#2CC8CC"/>
<path d="M253.519 103.612C251.627 103.612 250.28 106.837 250.28 111.693C250.28 114.67 250.801 117.08 251.639 118.462L249.645 127.003H251.563L253.265 119.773C253.354 119.808 253.43 119.808 253.519 119.808H254.764V127.003H256.479V103.612H253.519ZM254.764 115.591H253.494C252.592 115.591 252.033 113.961 252.033 111.693C252.033 109.46 252.592 107.83 253.494 107.83H254.764V115.591Z" fill="#2CC8CC"/>
<path d="M259.435 103.612V107.936C259.435 118.178 258.787 122.218 257.441 122.679V127.18C259.562 126.755 261.023 122.963 261.074 107.936H263.17V127.003H264.885V103.612H259.435Z" fill="#2CC8CC"/>
<path d="M268.532 103.612H266.817V127.003H270.247C272.051 127.003 273.308 123.955 273.308 119.312C273.308 114.776 272.051 111.657 270.247 111.657H268.532V103.612ZM270.247 115.839C271.085 115.839 271.555 117.292 271.555 119.348C271.555 121.368 271.085 122.785 270.247 122.785H268.532V115.839H270.247Z" fill="#2CC8CC"/>
<path d="M281.908 103.612H280.193V112.579H276.484V103.612H274.769V127.003H276.484V116.902H280.193V127.003H281.908V103.612Z" fill="#2CC8CC"/>
<path d="M287.788 103.187C285.324 103.187 283.342 108.432 283.342 115.307C283.342 122.183 285.324 127.428 287.788 127.428C290.252 127.428 292.259 122.183 292.259 115.307C292.259 108.432 290.252 103.187 287.788 103.187ZM287.801 107.617C289.338 107.617 290.494 110.807 290.494 115.307C290.494 119.844 289.338 122.998 287.801 122.998C286.238 122.998 285.108 119.844 285.108 115.307C285.108 110.807 286.238 107.617 287.801 107.617Z" fill="#2CC8CC"/>
<path d="M297.7 103.187C295.198 103.187 293.229 108.432 293.229 115.307C293.229 122.183 295.198 127.428 297.688 127.428C299.314 127.428 300.673 125.195 301.397 121.616L300.101 119.064C299.542 121.545 298.755 122.998 297.7 122.998C296.138 122.998 294.995 119.844 294.995 115.343C294.995 110.807 296.138 107.617 297.7 107.617C298.755 107.617 299.542 109.07 300.101 111.551L301.397 108.999C300.66 105.42 299.314 103.187 297.7 103.187Z" fill="#2CC8CC"/>
<path d="M309.155 103.612H302.067V107.936H304.747V127.003H306.462V107.936H309.155V103.612Z" fill="#2CC8CC"/>
<path d="M312 103.612H310.285V127.003H312V103.612Z" fill="#2CC8CC"/>
</svg>
