<svg width="312" height="142" viewBox="0 0 312 142" preserveAspectRatio="none" fill="none" xmlns="http://www.w3.org/2000/svg">
<path d="M7.492 0C3.29904 0 0 9.08772 0 21C0 32.9123 3.29904 42 7.47072 42C10.1951 42 12.4725 38.1316 13.6857 31.9298L11.5147 27.5088C10.5782 31.807 9.25859 34.3246 7.492 34.3246C4.87406 34.3246 2.95849 28.8596 2.95849 21.0614C2.95849 13.2018 4.87406 7.67544 7.492 7.67544C9.25859 7.67544 10.5782 10.193 11.5147 14.4912L13.6857 10.0702C12.4512 3.86842 10.1951 0 7.492 0Z" fill="#22A1A6"/>
<path d="M25.1946 41.2632H28.2808L22.0232 0H21.0654L14.7866 41.2632H17.8728L18.6603 35.9825H24.407L25.1946 41.2632ZM23.4067 29.1667H19.6607L21.5337 15.4737L23.4067 29.1667Z" fill="#22A1A6"/>
<path d="M43.0122 0L37.0739 21.9211L31.1357 0H30.1991V41.2632H33.0725V19.6491L36.6057 32.4211H37.5422L41.0753 19.6491V41.2632H43.9487V0H43.0122Z" fill="#22A1A6"/>
<path d="M53.8213 0C49.6922 0 46.3719 9.08772 46.3719 21C46.3719 32.9123 49.6922 42 53.8213 42C57.9505 42 61.3134 32.9123 61.3134 21C61.3134 9.08772 57.9505 0 53.8213 0ZM53.8426 7.67544C56.418 7.67544 58.3549 13.2018 58.3549 21C58.3549 28.8596 56.418 34.3246 53.8426 34.3246C51.2247 34.3246 49.3304 28.8596 49.3304 21C49.3304 13.2018 51.2247 7.67544 53.8426 7.67544Z" fill="#22A1A6"/>
<path d="M65.4706 0.736844V8.22807C65.4706 25.9737 64.3851 32.9737 62.129 33.7719V41.5702C65.6834 40.8333 68.1311 34.2632 68.2162 8.22807H71.7281V41.2632H74.6014V0.736844H65.4706Z" fill="#22A1A6"/>
<path d="M80.7123 0.736844H77.839V41.2632H80.7123V0.736844Z" fill="#22A1A6"/>
<path d="M96.2951 41.2632L90.2079 19.8333L95.5927 0.736844H92.166L86.8024 19.5263V0.736844H83.929V41.2632H86.8024V20.1404L92.8258 41.2632H96.2951Z" fill="#22A1A6"/>
<path d="M106.446 0.736844L103.573 21.5526L100.337 0.736844H97.0171L101.998 30.8246C101.444 33.5263 100.444 34.3246 99.4861 34.3246C99.1242 34.3246 98.7198 34.2632 98.209 34.1404V41.2632C98.7837 41.693 99.4648 42 100.082 42C102.423 42 103.998 38.9912 104.935 32.6667L109.702 0.736844H106.446Z" fill="#22A1A6"/>
<path d="M120.001 19.3421C120.661 17.5 121.044 15.0439 121.044 12.0351C121.044 5.34211 119.192 0.736844 116.595 0.736844H111.615V41.2632H117.873C120.597 41.2632 122.491 36.3509 122.491 29.3509C122.491 24.3772 121.533 20.9386 120.001 19.3421ZM116.361 7.85965C117.553 7.85965 118.192 9.64035 118.192 12.4649C118.192 15.2281 117.553 17.1316 116.361 17.1316H114.382V7.85965H116.361ZM117.66 34.1404H114.382V23.9474H117.66C118.915 23.9474 119.66 25.9123 119.66 29.0439C119.66 32.2368 118.915 34.1404 117.66 34.1404Z" fill="#22A1A6"/>
<path d="M133.694 41.2632H136.78L130.522 0H129.564L123.286 41.2632H126.372L127.159 35.9825H132.906L133.694 41.2632ZM131.906 29.1667H128.16L130.033 15.4737L131.906 29.1667Z" fill="#22A1A6"/>
<path d="M150.66 0.736844H147.786V16.2719H141.572V0.736844H138.698V41.2632H141.572V23.7632H147.786V41.2632H150.66V0.736844Z" fill="#22A1A6"/>
<path d="M165.833 0.736844H162.96V16.2719H156.745V0.736844H153.871V41.2632H156.745V23.7632H162.96V41.2632H165.833V0.736844Z" fill="#22A1A6"/>
<path d="M174.43 0.736844C171.258 0.736844 169.002 6.32456 169.002 14.7368C169.002 19.8947 169.875 24.0702 171.279 26.4649L167.938 41.2632H171.152L174.004 28.7368C174.153 28.7982 174.281 28.7982 174.43 28.7982H176.515V41.2632H179.389V0.736844H174.43ZM176.515 21.4912H174.387C172.876 21.4912 171.939 18.6667 171.939 14.7368C171.939 10.8684 172.876 8.04386 174.387 8.04386H176.515V21.4912Z" fill="#22A1A6"/>
<path d="M201.396 0L195.458 21.9211L189.519 0H188.583V41.2632H191.456V19.6491L194.989 32.4211H195.926L199.459 19.6491V41.2632H202.332V0H201.396Z" fill="#22A1A6"/>
<path d="M212.205 0C208.076 0 204.756 9.08772 204.756 21C204.756 32.9123 208.076 42 212.205 42C216.334 42 219.697 32.9123 219.697 21C219.697 9.08772 216.334 0 212.205 0ZM212.226 7.67544C214.802 7.67544 216.739 13.2018 216.739 21C216.739 28.8596 214.802 34.3246 212.226 34.3246C209.608 34.3246 207.714 28.8596 207.714 21C207.714 13.2018 209.608 7.67544 212.226 7.67544Z" fill="#22A1A6"/>
<path d="M240.966 41.2632L235.028 19.8333L240.263 0.736844H236.837L231.899 19.5263V0.736844H229.025V19.5877L224.066 0.736844H220.639L225.875 19.8333L219.937 41.2632H223.406L229.025 20.0789V41.2632H231.899V20.1404L237.497 41.2632H240.966Z" fill="#22A1A6"/>
<path d="M252.324 0.736844H242.874V41.2632H252.579V33.7719H245.747V23.5175H250.579V16.4561H245.747V8.22807H252.324V0.736844Z" fill="#22A1A6"/>
<path d="M270.278 0.736844H261.04V41.2632H267.298C270.022 41.2632 271.916 36.3509 271.916 29.0439C271.916 21.7982 270.022 17.1316 267.298 17.1316H263.914V8.22807H270.278V0.736844ZM267.085 23.9474C268.341 23.9474 269.086 25.9123 269.086 29.0439C269.086 32.2368 268.341 34.1404 267.085 34.1404H263.914V23.9474H267.085Z" fill="#22A1A6"/>
<path d="M282.206 0.736844L279.333 21.5526L276.098 0.736844H272.777L277.758 30.8246C277.204 33.5263 276.204 34.3246 275.246 34.3246C274.884 34.3246 274.48 34.2632 273.969 34.1404V41.2632C274.544 41.693 275.225 42 275.842 42C278.183 42 279.758 38.9912 280.695 32.6667L285.463 0.736844H282.206Z" fill="#22A1A6"/>
<path d="M297.932 0.736844H286.056V8.22807H290.546V41.2632H293.42V8.22807H297.932V0.736844Z" fill="#22A1A6"/>
<path d="M311.042 0L302.699 25.4211V0.736844H299.826V42H300.762L309.127 16.3947V41.2632H312V0H311.042Z" fill="#22A1A6"/>
<path d="M15.0915 52.5904H12.792V79.0603H8.70402V52.5904H6.40454V79.0603H2.29951V52.5904H0V85.0627H15.0915V52.5904Z" fill="#22A1A6"/>
<path d="M27.5784 85.0627L22.7068 67.8918L27.0163 52.5904H24.2739L19.9815 67.6458V52.5904H17.682V85.0627H19.9815V68.1378L24.8019 85.0627H27.5784Z" fill="#22A1A6"/>
<path d="M31.3925 52.5904H29.093V85.0627H31.3925V52.5904Z" fill="#22A1A6"/>
<path d="M43.1307 79.0603V52.5904H36.1471V57.9533C36.1471 69.8598 35.3465 75.6162 33.8987 79.0603H33.03V92H35.3295V85.0627H42.3302V92H44.6297V79.0603H43.1307ZM38.3444 58.5929H40.8312V79.0603H36.4366C37.663 74.8782 38.2933 68.5314 38.3444 58.5929Z" fill="#22A1A6"/>
<path d="M47.7223 52.5904V58.5929C47.7223 72.8118 46.8536 78.4207 45.048 79.0603V85.3087C47.8926 84.7183 49.8514 79.4539 49.9196 58.5929H52.73V85.0627H55.0295V52.5904H47.7223Z" fill="#22A1A6"/>
<path d="M66.597 52L59.92 72.369V52.5904H57.6205V85.6531H58.3699L65.064 65.1365V85.0627H67.3635V52H66.597Z" fill="#22A1A6"/>
<path d="M76.6408 67.4982C77.1689 66.0221 77.4754 64.0541 77.4754 61.6433C77.4754 56.2804 75.9935 52.5904 73.9155 52.5904H69.9297V85.0627H74.9375C77.1178 85.0627 78.6337 81.1267 78.6337 75.5178C78.6337 71.5326 77.8672 68.7774 76.6408 67.4982ZM73.7281 58.2977C74.682 58.2977 75.193 59.7245 75.193 61.9877C75.193 64.2017 74.682 65.7269 73.7281 65.7269H72.144V58.2977H73.7281ZM74.7671 79.3555H72.144V71.1882H74.7671C75.7721 71.1882 76.3683 72.7626 76.3683 75.2718C76.3683 77.8303 75.7721 79.3555 74.7671 79.3555Z" fill="#22A1A6"/>
<path d="M89.4855 52L82.8085 72.369V52.5904H80.509V85.6531H81.2585L87.9525 65.1365V85.0627H90.252V52H89.4855Z" fill="#22A1A6"/>
<path d="M103.072 52L98.32 69.5646L93.5677 52H92.8182V85.0627H95.1177V67.7442L97.9452 77.9779H98.6947L101.522 67.7442V85.0627H103.822V52H103.072Z" fill="#22A1A6"/>
<path d="M120.18 79.0603V52.5904H113.196V57.9533C113.196 69.8598 112.396 75.6162 110.948 79.0603H110.079V92H112.379V85.0627H119.379V92H121.679V79.0603H120.18ZM115.393 58.5929H117.88V79.0603H113.486C114.712 74.8782 115.342 68.5314 115.393 58.5929Z" fill="#22A1A6"/>
<path d="M124.771 52.5904V58.5929C124.771 72.8118 123.903 78.4207 122.097 79.0603V85.3087C124.942 84.7183 126.901 79.4539 126.969 58.5929H129.779V85.0627H132.079V52.5904H124.771Z" fill="#22A1A6"/>
<path d="M138.979 52.5904C136.441 52.5904 134.635 57.0677 134.635 63.8081C134.635 67.941 135.334 71.2866 136.458 73.2054L133.784 85.0627H136.356L138.638 75.0258C138.758 75.075 138.86 75.075 138.979 75.075H140.648V85.0627H142.948V52.5904H138.979ZM140.648 69.2202H138.945C137.736 69.2202 136.986 66.9569 136.986 63.8081C136.986 60.7085 137.736 58.4453 138.945 58.4453H140.648V69.2202Z" fill="#22A1A6"/>
<path d="M157.017 67.4982C157.545 66.0221 157.851 64.0541 157.851 61.6433C157.851 56.2804 156.369 52.5904 154.291 52.5904H150.306V85.0627H155.313C157.494 85.0627 159.01 81.1267 159.01 75.5178C159.01 71.5326 158.243 68.7774 157.017 67.4982ZM154.104 58.2977C155.058 58.2977 155.569 59.7245 155.569 61.9877C155.569 64.2017 155.058 65.7269 154.104 65.7269H152.52V58.2977H154.104ZM155.143 79.3555H152.52V71.1882H155.143C156.148 71.1882 156.744 72.7626 156.744 75.2718C156.744 77.8303 156.148 79.3555 155.143 79.3555Z" fill="#22A1A6"/>
<path d="M167.975 85.0627H170.445L165.437 52H164.67L159.645 85.0627H162.115L162.745 80.8315H167.345L167.975 85.0627ZM166.544 75.3702H163.546L165.045 64.3985L166.544 75.3702Z" fill="#22A1A6"/>
<path d="M187.071 52.5904H184.772V79.0603H180.684V52.5904H178.384V79.0603H174.279V52.5904H171.98V85.0627H187.071V52.5904Z" fill="#22A1A6"/>
<path d="M194.976 52C191.672 52 189.015 59.2817 189.015 68.8266C189.015 78.3715 191.672 85.6531 194.976 85.6531C198.281 85.6531 200.972 78.3715 200.972 68.8266C200.972 59.2817 198.281 52 194.976 52ZM194.993 58.1501C197.054 58.1501 198.604 62.5781 198.604 68.8266C198.604 75.1242 197.054 79.5031 194.993 79.5031C192.898 79.5031 191.382 75.1242 191.382 68.8266C191.382 62.5781 192.898 58.1501 194.993 58.1501Z" fill="#22A1A6"/>
<path d="M210.158 52.5904H202.919V85.0627H205.219V58.5929H210.158V52.5904Z" fill="#22A1A6"/>
<path d="M216.867 52C213.562 52 210.905 59.2817 210.905 68.8266C210.905 78.3715 213.562 85.6531 216.867 85.6531C220.171 85.6531 222.862 78.3715 222.862 68.8266C222.862 59.2817 220.171 52 216.867 52ZM216.884 58.1501C218.945 58.1501 220.495 62.5781 220.495 68.8266C220.495 75.1242 218.945 79.5031 216.884 79.5031C214.789 79.5031 213.273 75.1242 213.273 68.8266C213.273 62.5781 214.789 58.1501 216.884 58.1501Z" fill="#22A1A6"/>
<path d="M236.022 67.8918C236.669 66.3665 237.044 64.2017 237.044 61.5941C237.044 56.0344 235.341 52 233.195 52C231.389 52 229.89 54.8536 229.141 59.0849L230.742 62.3813C231.372 59.7245 232.19 58.1501 233.178 58.1501C234.132 58.1501 234.762 59.7245 234.762 61.9877C234.762 64.1033 234.251 65.7269 233.314 65.7269H231.577V71.1882H233.791C234.796 71.1882 235.375 72.9102 235.375 75.1242C235.375 77.9287 234.472 79.5031 233.365 79.5031C232.224 79.5031 231.287 77.9779 230.555 74.7798L228.936 78.1255C229.754 82.6519 231.338 85.6531 233.382 85.6531C235.767 85.6531 237.657 81.5695 237.657 75.4686C237.657 71.9754 237.044 69.3678 236.022 67.8918Z" fill="#22A1A6"/>
<path d="M248.761 79.0603V52.5904H241.778V57.9533C241.778 69.8598 240.977 75.6162 239.529 79.0603H238.661V92H240.96V85.0627H247.961V92H250.26V79.0603H248.761ZM243.975 58.5929H246.462V79.0603H242.067C243.294 74.8782 243.924 68.5314 243.975 58.5929Z" fill="#22A1A6"/>
<path d="M257.038 52C253.734 52 251.076 59.2817 251.076 68.8266C251.076 78.3715 253.734 85.6531 257.038 85.6531C260.342 85.6531 263.034 78.3715 263.034 68.8266C263.034 59.2817 260.342 52 257.038 52ZM257.055 58.1501C259.116 58.1501 260.666 62.5781 260.666 68.8266C260.666 75.1242 259.116 79.5031 257.055 79.5031C254.96 79.5031 253.444 75.1242 253.444 68.8266C253.444 62.5781 254.96 58.1501 257.055 58.1501Z" fill="#22A1A6"/>
<path d="M269.205 52.5904H264.981V85.0627H267.281V73.599H269.205C271.573 73.599 273.259 69.3186 273.259 63.0701C273.259 56.7232 271.573 52.5904 269.205 52.5904ZM269.205 58.4453C270.278 58.4453 270.909 60.3641 270.909 63.0701C270.909 65.8745 270.278 67.7934 269.205 67.7934H267.281V58.4453H269.205Z" fill="#22A1A6"/>
<path d="M280.409 52C277.104 52 274.447 59.2817 274.447 68.8266C274.447 78.3715 277.104 85.6531 280.409 85.6531C283.713 85.6531 286.405 78.3715 286.405 68.8266C286.405 59.2817 283.713 52 280.409 52ZM280.426 58.1501C282.487 58.1501 284.037 62.5781 284.037 68.8266C284.037 75.1242 282.487 79.5031 280.426 79.5031C278.331 79.5031 276.815 75.1242 276.815 68.8266C276.815 62.5781 278.331 58.1501 280.426 58.1501Z" fill="#22A1A6"/>
<path d="M295.063 67.4982C295.591 66.0221 295.898 64.0541 295.898 61.6433C295.898 56.2804 294.416 52.5904 292.338 52.5904H288.352V85.0627H293.36C295.54 85.0627 297.056 81.1267 297.056 75.5178C297.056 71.5326 296.289 68.7774 295.063 67.4982ZM292.15 58.2977C293.104 58.2977 293.615 59.7245 293.615 61.9877C293.615 64.2017 293.104 65.7269 292.15 65.7269H290.566V58.2977H292.15ZM293.189 79.3555H290.566V71.1882H293.189C294.194 71.1882 294.79 72.7626 294.79 75.2718C294.79 77.8303 294.194 79.3555 293.189 79.3555Z" fill="#22A1A6"/>
<path d="M301.759 52.5904H299.136L299.05 66.2681H300.805L301.759 52.5904Z" fill="#22A1A6"/>
<path d="M308.031 52.5904C305.493 52.5904 303.688 57.0677 303.688 63.8081C303.688 67.941 304.386 71.2866 305.51 73.2054L302.836 85.0627H305.408L307.691 75.0258C307.81 75.075 307.912 75.075 308.031 75.075H309.7V85.0627H312V52.5904H308.031ZM309.7 69.2202H307.997C306.788 69.2202 306.038 66.9569 306.038 63.8081C306.038 60.7085 306.788 58.4453 307.997 58.4453H309.7V69.2202Z" fill="#22A1A6"/>
<path d="M2.58509 104.119H0V111.255H0.869126V108.271H2.58509C4.03363 108.271 4.93619 107.395 4.93619 106.184C4.93619 104.984 4.03363 104.119 2.58509 104.119ZM2.56281 104.876C3.53222 104.876 4.03363 105.438 4.03363 106.195C4.03363 106.963 3.53222 107.514 2.56281 107.514H0.869126V104.876H2.56281Z" fill="black"/>
<path d="M11.1008 104.119H6.38743V111.255H11.2345V110.498H7.25655V107.817H10.1982V107.06H7.25655V104.876H11.1008V104.119Z" fill="black"/>
<path d="M12.6987 111.255H13.5678V104.119H12.6987V111.255ZM14.8046 107.428L18.0917 104.119H16.9775L13.6681 107.428L17.2895 111.255H18.3926L14.8046 107.428Z" fill="black"/>
<path d="M20.7193 104.119V105.146C20.7193 108.52 20.073 110.131 18.7359 110.498V111.288C20.4407 110.963 21.5661 109.439 21.5884 104.876H24.0732V111.244H24.9424V104.119H20.7193Z" fill="black"/>
<path d="M32.0785 111.255H33.0034L29.8166 104H29.4934L26.3066 111.255H27.2203L27.8443 109.806H31.4545L32.0785 111.255ZM31.1203 109.049H28.1786L29.6494 105.535L31.1203 109.049Z" fill="black"/>
<path d="M40.8264 104L37.7399 108.12L34.6757 104H34.3637V111.255H35.2328V106.119L37.5951 109.233H37.9071L40.2582 106.141V111.255H41.1273V104H40.8264Z" fill="black"/>
<path d="M48.2593 111.255H49.1841L45.9973 104H45.6742L42.4874 111.255H43.4011L44.0251 109.806H47.6353L48.2593 111.255ZM47.301 109.049H44.3594L45.8302 105.535L47.301 109.049Z" fill="black"/>
<path d="M53.8643 104.119V105.146C53.8643 108.52 53.218 110.131 51.8809 110.498V111.288C53.5857 110.963 54.7111 109.439 54.7334 104.876H57.2182V111.244H58.0873V104.119H53.8643Z" fill="black"/>
<path d="M60.9893 104.119H60.1202V111.255H60.9893V104.119Z" fill="black"/>
<path d="M63.0038 111.255H63.8729V104.119H63.0038V111.255ZM65.1097 107.428L68.3968 104.119H67.2825L63.9732 107.428L67.5945 111.255H68.6977L65.1097 107.428Z" fill="black"/>
<path d="M75.1583 111.255H76.0831L72.8963 104H72.5732L69.3864 111.255H70.3001L70.9241 109.806H74.5343L75.1583 111.255ZM74.2 109.049H71.2584L72.7292 105.535L74.2 109.049Z" fill="black"/>
<path d="M80.0286 104.119H77.4435V111.255H78.3126V108.271H80.0286C81.4771 108.271 82.3797 107.395 82.3797 106.184C82.3797 104.984 81.4771 104.119 80.0286 104.119ZM80.0063 104.876C80.9757 104.876 81.4771 105.438 81.4771 106.195C81.4771 106.963 80.9757 107.514 80.0063 107.514H78.3126V104.876H80.0063Z" fill="black"/>
<path d="M87.1737 104C85.0455 104 83.3518 105.6 83.3518 107.687C83.3518 109.774 85.0455 111.374 87.1737 111.374C88.5108 111.374 89.6362 110.747 90.2268 109.839L89.5805 109.341C89.0346 110.12 88.21 110.596 87.1849 110.596C85.5246 110.596 84.2543 109.352 84.2543 107.687C84.2543 106.022 85.5246 104.778 87.1849 104.778C88.21 104.778 89.0346 105.254 89.5805 106.033L90.2268 105.535C89.614 104.627 88.5108 104 87.1737 104Z" fill="black"/>
<path d="M92.6653 104.119H91.7962V111.255H94.7044C96.2309 111.255 97.1558 110.347 97.1558 109.093C97.1558 107.838 96.2309 106.93 94.7044 106.93H92.6653V104.119ZM94.6933 107.687C95.7184 107.687 96.2644 108.293 96.2644 109.103C96.2644 109.893 95.7184 110.498 94.6933 110.498H92.6653V107.687H94.6933Z" fill="black"/>
<path d="M98.7386 111.255H99.6077V104.119H98.7386V111.255ZM100.845 107.428L104.132 104.119H103.017L99.708 107.428L103.329 111.255H104.432L100.845 107.428Z" fill="black"/>
<path d="M108.566 104C106.449 104 104.756 105.6 104.756 107.687C104.756 109.763 106.438 111.374 108.566 111.374C110.672 111.374 112.388 109.774 112.388 107.687C112.388 105.6 110.672 104 108.566 104ZM108.578 104.778C110.238 104.778 111.486 106.033 111.486 107.676C111.486 109.341 110.238 110.596 108.578 110.596C106.895 110.596 105.658 109.341 105.658 107.676C105.658 106.022 106.895 104.778 108.578 104.778Z" fill="black"/>
<path d="M118.319 104.119H113.94V111.255H114.809V104.876H118.319V104.119Z" fill="black"/>
<path d="M122.647 104C120.53 104 118.836 105.6 118.836 107.687C118.836 109.763 120.519 111.374 122.647 111.374C124.753 111.374 126.469 109.774 126.469 107.687C126.469 105.6 124.753 104 122.647 104ZM122.658 104.778C124.318 104.778 125.566 106.033 125.566 107.676C125.566 109.341 124.318 110.596 122.658 110.596C120.976 110.596 119.739 109.341 119.739 107.676C119.739 106.022 120.976 104.778 122.658 104.778Z" fill="black"/>
<path d="M134.81 107.373C135.289 107.038 135.567 106.519 135.567 105.914C135.567 104.833 134.665 104 133.328 104C132.258 104 131.389 104.53 130.91 105.297L131.534 105.752C131.946 105.179 132.559 104.778 133.328 104.778C134.186 104.778 134.665 105.287 134.665 105.957C134.665 106.606 134.252 107.092 133.394 107.092H132.158V107.86H133.673C134.665 107.86 135.188 108.476 135.188 109.158C135.188 110.001 134.42 110.596 133.439 110.596C132.514 110.596 131.79 110.087 131.3 109.352L130.664 109.806C131.222 110.736 132.202 111.374 133.45 111.374C134.943 111.374 136.08 110.466 136.08 109.179C136.08 108.357 135.623 107.676 134.81 107.373Z" fill="black"/>
<path d="M142.623 111.255H143.548L140.362 104H140.038L136.852 111.255H137.765L138.389 109.806H141.999L142.623 111.255ZM141.665 109.049H138.724L140.194 105.535L141.665 109.049Z" fill="black"/>
<path d="M148.056 104C145.927 104 144.234 105.6 144.234 107.687C144.234 109.774 145.927 111.374 148.056 111.374C149.393 111.374 150.518 110.747 151.109 109.839L150.462 109.341C149.916 110.12 149.092 110.596 148.067 110.596C146.407 110.596 145.136 109.352 145.136 107.687C145.136 106.022 146.407 104.778 148.067 104.778C149.092 104.778 149.916 105.254 150.462 106.033L151.109 105.535C150.496 104.627 149.393 104 148.056 104Z" fill="black"/>
<path d="M155.955 104C153.838 104 152.145 105.6 152.145 107.687C152.145 109.763 153.827 111.374 155.955 111.374C158.061 111.374 159.777 109.774 159.777 107.687C159.777 105.6 158.061 104 155.955 104ZM155.966 104.778C157.627 104.778 158.875 106.033 158.875 107.676C158.875 109.341 157.627 110.596 155.966 110.596C154.284 110.596 153.047 109.341 153.047 107.676C153.047 106.022 154.284 104.778 155.966 104.778Z" fill="black"/>
<path d="M165.931 104.119H161.329V111.255H164.36C165.819 111.255 166.688 110.379 166.688 109.179C166.688 107.968 165.819 107.092 164.36 107.092H162.198V104.876H165.931V104.119ZM164.27 107.86C165.262 107.86 165.797 108.411 165.797 109.179C165.797 109.958 165.262 110.498 164.27 110.498H162.198V107.86H164.27Z" fill="black"/>
<path d="M172.5 104.119L170.55 108.682L168.478 104.119H167.497L170.093 109.612L170.06 109.677C169.77 110.314 169.224 110.596 168.6 110.596C168.388 110.596 168.154 110.563 167.887 110.531V111.266C168.154 111.331 168.466 111.374 168.745 111.374C169.726 111.374 170.45 110.92 170.862 109.968L173.481 104.119H172.5Z" fill="black"/>
<path d="M174.246 110.012C173.867 110.012 173.544 110.293 173.544 110.693C173.544 111.093 173.867 111.374 174.246 111.374C174.625 111.374 174.948 111.093 174.948 110.693C174.948 110.293 174.625 110.012 174.246 110.012Z" fill="black"/>
<path d="M185.453 104.119H179.882V111.255H180.751V104.876H184.584V111.255H185.453V104.119Z" fill="black"/>
<path d="M192.19 104.119H187.477V111.255H192.324V110.498H188.346V107.817H191.288V107.06H188.346V104.876H192.19V104.119Z" fill="black"/>
<path d="M196.373 104.119H193.788V111.255H194.657V108.271H196.373C197.822 108.271 198.724 107.395 198.724 106.184C198.724 104.984 197.822 104.119 196.373 104.119ZM196.351 104.876C197.32 104.876 197.822 105.438 197.822 106.195C197.822 106.963 197.32 107.514 196.351 107.514H194.657V104.876H196.351Z" fill="black"/>
<path d="M204.889 104.119H200.176V111.255H205.023V110.498H201.045V107.817H203.987V107.06H201.045V104.876H204.889V104.119Z" fill="black"/>
<path d="M211.913 110.498V104.119H207.902V104.973C207.902 108.195 207.222 109.687 206.298 110.498H205.729V112.78H206.598V111.255H211.925V112.78H212.794V110.498H211.913ZM208.738 104.876H211.044V110.498H207.312C208.225 109.525 208.715 107.882 208.738 104.876Z" fill="black"/>
<path d="M220.98 107.373C221.459 107.038 221.738 106.519 221.738 105.914C221.738 104.833 220.835 104 219.498 104C218.428 104 217.559 104.53 217.08 105.297L217.704 105.752C218.116 105.179 218.729 104.778 219.498 104.778C220.356 104.778 220.835 105.287 220.835 105.957C220.835 106.606 220.423 107.092 219.565 107.092H218.328V107.86H219.843C220.835 107.86 221.359 108.476 221.359 109.158C221.359 110.001 220.59 110.596 219.609 110.596C218.685 110.596 217.96 110.087 217.47 109.352L216.835 109.806C217.392 110.736 218.373 111.374 219.621 111.374C221.114 111.374 222.25 110.466 222.25 109.179C222.25 108.357 221.793 107.676 220.98 107.373Z" fill="black"/>
<path d="M228.794 111.255H229.719L226.532 104H226.209L223.022 111.255H223.936L224.56 109.806H228.17L228.794 111.255ZM227.836 109.049H224.894L226.365 105.535L227.836 109.049Z" fill="black"/>
<path d="M234.226 104C232.098 104 230.404 105.6 230.404 107.687C230.404 109.774 232.098 111.374 234.226 111.374C235.563 111.374 236.689 110.747 237.279 109.839L236.633 109.341C236.087 110.12 235.262 110.596 234.237 110.596C232.577 110.596 231.307 109.352 231.307 107.687C231.307 106.022 232.577 104.778 234.237 104.778C235.262 104.778 236.087 105.254 236.633 106.033L237.279 105.535C236.666 104.627 235.563 104 234.226 104Z" fill="black"/>
<path d="M244.097 104.119H238.046V104.876H240.631V111.255H241.5V104.876H244.097V104.119Z" fill="black"/>
<path d="M248.393 104C246.276 104 244.583 105.6 244.583 107.687C244.583 109.763 246.265 111.374 248.393 111.374C250.499 111.374 252.215 109.774 252.215 107.687C252.215 105.6 250.499 104 248.393 104ZM248.405 104.778C250.065 104.778 251.313 106.033 251.313 107.676C251.313 109.341 250.065 110.596 248.405 110.596C246.722 110.596 245.485 109.341 245.485 107.676C245.485 106.022 246.722 104.778 248.405 104.778Z" fill="black"/>
<path d="M257.11 104C254.982 104 253.288 105.6 253.288 107.687C253.288 109.774 254.982 111.374 257.11 111.374C258.447 111.374 259.572 110.747 260.163 109.839L259.517 109.341C258.971 110.12 258.146 110.596 257.121 110.596C255.461 110.596 254.19 109.352 254.19 107.687C254.19 106.022 255.461 104.778 257.121 104.778C258.146 104.778 258.971 105.254 259.517 106.033L260.163 105.535C259.55 104.627 258.447 104 257.11 104Z" fill="black"/>
<path d="M266.092 104.119L264.142 108.682L262.069 104.119H261.089L263.685 109.612L263.651 109.677C263.362 110.314 262.816 110.596 262.192 110.596C261.98 110.596 261.746 110.563 261.479 110.531V111.266C261.746 111.331 262.058 111.374 262.337 111.374C263.317 111.374 264.041 110.92 264.454 109.968L267.072 104.119H266.092Z" fill="black"/>
<path d="M272.347 107.33C272.792 107.006 273.049 106.519 273.049 105.925C273.049 104.887 272.257 104.119 270.954 104.119H268.424V111.255H271.455C272.915 111.255 273.784 110.379 273.784 109.201C273.784 108.282 273.26 107.59 272.347 107.33ZM270.865 104.876C271.723 104.876 272.157 105.319 272.157 105.979C272.157 106.638 271.723 107.092 270.865 107.092H269.293V104.876H270.865ZM271.366 110.498H269.293V107.86H271.366C272.358 107.86 272.893 108.411 272.893 109.179C272.893 109.958 272.358 110.498 271.366 110.498Z" fill="black"/>
<path d="M280.285 111.255H281.21L278.023 104H277.7L274.513 111.255H275.427L276.051 109.806H279.661L280.285 111.255ZM279.327 109.049H276.385L277.856 105.535L279.327 109.049Z" fill="black"/>
<path d="M288.431 104.119H287.562V107.06H283.439V104.119H282.57V111.255H283.439V107.817H287.562V111.255H288.431V104.119Z" fill="black"/>
<path d="M296.32 104.119H295.451V107.06H291.328V104.119H290.459V111.255H291.328V107.817H295.451V111.255H296.32V104.119Z" fill="black"/>
<path d="M300.755 104.119C299.206 104.119 298.237 105.049 298.237 106.335C298.237 107.287 298.761 108.033 299.641 108.368L297.658 111.255H298.649L300.521 108.541C300.599 108.552 300.677 108.552 300.755 108.552H302.349V111.255H303.218V104.119H300.755ZM302.349 107.795H300.755C299.719 107.795 299.14 107.168 299.14 106.335C299.14 105.514 299.719 104.876 300.755 104.876H302.349V107.795Z" fill="black"/>
<path d="M311.699 104L308.613 108.12L305.548 104H305.236V111.255H306.106V106.119L308.468 109.233H308.78L311.131 106.141V111.255H312V104H311.699Z" fill="black"/>
<path d="M38.6188 120.508H37.7497V123.449H33.627V120.508H32.7578V127.645H33.627V124.206H37.7497V127.645H38.6188V120.508Z" fill="black"/>
<path d="M45.3602 120.508H40.6469V127.645H45.494V126.888H41.516V124.206H44.4577V123.449H41.516V121.265H45.3602V120.508Z" fill="black"/>
<path d="M50.0722 120.39C47.9551 120.39 46.2614 121.99 46.2614 124.077C46.2614 126.153 47.9439 127.764 50.0722 127.764C52.1781 127.764 53.8941 126.163 53.8941 124.077C53.8941 121.99 52.1781 120.39 50.0722 120.39ZM50.0833 121.168C51.7436 121.168 52.9916 122.422 52.9916 124.066C52.9916 125.731 51.7436 126.985 50.0833 126.985C48.4008 126.985 47.1639 125.731 47.1639 124.066C47.1639 122.411 48.4008 121.168 50.0833 121.168Z" fill="black"/>
<path d="M60.0476 120.508H55.4457V127.645H58.4765C59.9362 127.645 60.8053 126.769 60.8053 125.569C60.8053 124.358 59.9362 123.482 58.4765 123.482H56.3148V121.265H60.0476V120.508ZM58.3874 124.25C59.3791 124.25 59.9139 124.801 59.9139 125.569C59.9139 126.347 59.3791 126.888 58.3874 126.888H56.3148V124.25H58.3874Z" fill="black"/>
<path d="M67.4205 127.645L64.9245 124.001L67.2422 120.508H66.2394L64.4231 123.287L62.5957 120.508H61.5929L63.944 123.99L61.4146 127.645H62.4286L64.4231 124.715L66.4065 127.645H67.4205Z" fill="black"/>
<path d="M69.6338 120.508H68.7646V127.645H69.6338V120.508Z" fill="black"/>
<path d="M77.0747 126.888V120.508H73.0633V121.363C73.0633 124.585 72.3837 126.077 71.4588 126.888H70.8906V129.169H71.7597V127.645H77.0858V129.169H77.955V126.888H77.0747ZM73.899 121.265H76.2056V126.888H72.4728C73.3865 125.915 73.8768 124.271 73.899 121.265Z" fill="black"/>
<path d="M85.2133 120.508H84.3442V123.449H80.2214V120.508H79.3523V127.645H80.2214V124.206H84.3442V127.645H85.2133V120.508Z" fill="black"/>
<path d="M90.573 120.39C88.4559 120.39 86.7623 121.99 86.7623 124.077C86.7623 126.153 88.4448 127.764 90.573 127.764C92.679 127.764 94.395 126.163 94.395 124.077C94.395 121.99 92.679 120.39 90.573 120.39ZM90.5842 121.168C92.2444 121.168 93.4924 122.422 93.4924 124.066C93.4924 125.731 92.2444 126.985 90.5842 126.985C88.9016 126.985 87.6648 125.731 87.6648 124.066C87.6648 122.411 88.9016 121.168 90.5842 121.168Z" fill="black"/>
<path d="M102.401 120.39C100.284 120.39 98.5904 121.99 98.5904 124.077C98.5904 126.153 100.273 127.764 102.401 127.764C104.507 127.764 106.223 126.163 106.223 124.077C106.223 121.99 104.507 120.39 102.401 120.39ZM102.412 121.168C104.073 121.168 105.321 122.422 105.321 124.066C105.321 125.731 104.073 126.985 102.412 126.985C100.73 126.985 99.493 125.731 99.493 124.066C99.493 122.411 100.73 121.168 102.412 121.168Z" fill="black"/>
<path d="M111.386 123.763C111.865 123.428 112.144 122.909 112.144 122.303C112.144 121.222 111.241 120.39 109.904 120.39C108.835 120.39 107.965 120.919 107.486 121.687L108.11 122.141C108.523 121.568 109.135 121.168 109.904 121.168C110.762 121.168 111.241 121.676 111.241 122.347C111.241 122.995 110.829 123.482 109.971 123.482H108.734V124.25H110.25C111.241 124.25 111.765 124.866 111.765 125.547C111.765 126.39 110.996 126.985 110.016 126.985C109.091 126.985 108.367 126.477 107.876 125.742L107.241 126.196C107.798 127.126 108.779 127.764 110.027 127.764C111.52 127.764 112.657 126.855 112.657 125.569C112.657 124.747 112.2 124.066 111.386 123.763Z" fill="black"/>
<path d="M120.067 120.508H119.198V123.449H115.075V120.508H114.206V127.645H115.075V124.206H119.198V127.645H120.067V120.508Z" fill="black"/>
<path d="M127.198 127.645H128.123L124.936 120.39H124.613L121.426 127.645H122.34L122.964 126.196H126.574L127.198 127.645ZM126.24 125.439H123.298L124.769 121.925L126.24 125.439Z" fill="black"/>
<path d="M132.47 119.654C133.45 119.654 134.163 118.941 134.163 118H133.439C133.439 118.616 133.027 118.995 132.47 118.995C131.924 118.995 131.5 118.616 131.5 118H130.776C130.776 118.941 131.489 119.654 132.47 119.654ZM135.144 120.39L130.352 125.947V120.508H129.483V127.764H129.795L134.587 122.206V127.645H135.456V120.39H135.144Z" fill="black"/>
<path d="M140.813 120.39C138.696 120.39 137.002 121.99 137.002 124.077C137.002 126.153 138.685 127.764 140.813 127.764C142.919 127.764 144.635 126.163 144.635 124.077C144.635 121.99 142.919 120.39 140.813 120.39ZM140.824 121.168C142.484 121.168 143.732 122.422 143.732 124.066C143.732 125.731 142.484 126.985 140.824 126.985C139.141 126.985 137.905 125.731 137.905 124.066C137.905 122.411 139.141 121.168 140.824 121.168Z" fill="black"/>
<path d="M152.649 120.39L149.563 124.509L146.498 120.39H146.186V127.645H147.055V122.509L149.418 125.623H149.73L152.081 122.53V127.645H152.95V120.39H152.649Z" fill="black"/>
<path d="M160.639 120.39L155.848 125.947V120.508H154.979V127.764H155.291L160.082 122.206V127.645H160.951V120.39H160.639Z" fill="black"/>
<path d="M168.225 120.508H162.174V121.265H164.759V127.645H165.628V121.265H168.225V120.508Z" fill="black"/>
<path d="M175.111 120.39L170.32 125.947V120.508H169.451V127.764H169.763L174.554 122.206V127.645H175.423V120.39H175.111Z" fill="black"/>
<path d="M180.792 120.39C178.663 120.39 176.97 121.99 176.97 124.077C176.97 126.163 178.663 127.764 180.792 127.764C182.129 127.764 183.254 127.137 183.845 126.228L183.198 125.731C182.652 126.509 181.828 126.985 180.803 126.985C179.143 126.985 177.872 125.742 177.872 124.077C177.872 122.411 179.143 121.168 180.803 121.168C181.828 121.168 182.652 121.644 183.198 122.422L183.845 121.925C183.232 121.017 182.129 120.39 180.792 120.39Z" fill="black"/>
<path d="M186.283 120.508H185.414V127.645H188.322C189.849 127.645 190.774 126.736 190.774 125.482C190.774 124.228 189.849 123.32 188.322 123.32H186.283V120.508ZM188.311 124.077C189.336 124.077 189.882 124.682 189.882 125.493C189.882 126.282 189.336 126.888 188.311 126.888H186.283V124.077H188.311Z" fill="black"/>
<path d="M198.808 123.763C199.287 123.428 199.566 122.909 199.566 122.303C199.566 121.222 198.663 120.39 197.326 120.39C196.256 120.39 195.387 120.919 194.908 121.687L195.532 122.141C195.944 121.568 196.557 121.168 197.326 121.168C198.184 121.168 198.663 121.676 198.663 122.347C198.663 122.995 198.251 123.482 197.393 123.482H196.156V124.25H197.672C198.663 124.25 199.187 124.866 199.187 125.547C199.187 126.39 198.418 126.985 197.438 126.985C196.513 126.985 195.788 126.477 195.298 125.742L194.663 126.196C195.22 127.126 196.201 127.764 197.449 127.764C198.942 127.764 200.078 126.855 200.078 125.569C200.078 124.747 199.621 124.066 198.808 123.763Z" fill="black"/>
<path d="M205.62 120.508H204.751V127.645H205.62V120.508Z" fill="black"/>
<path d="M213.495 120.508H212.626V123.449H208.503V120.508H207.634V127.645H208.503V124.206H212.626V127.645H213.495V120.508Z" fill="black"/>
<path d="M218.866 120.39C216.738 120.39 215.044 121.99 215.044 124.077C215.044 126.163 216.738 127.764 218.866 127.764C220.203 127.764 221.329 127.137 221.919 126.228L221.273 125.731C220.727 126.509 219.902 126.985 218.877 126.985C217.217 126.985 215.947 125.742 215.947 124.077C215.947 122.411 217.217 121.168 218.877 121.168C219.902 121.168 220.727 121.644 221.273 122.422L221.919 121.925C221.306 121.017 220.203 120.39 218.866 120.39Z" fill="black"/>
<path d="M228.737 120.508H222.686V121.265H225.271V127.645H226.14V121.265H228.737V120.508Z" fill="black"/>
<path d="M232.548 120.508H229.963V127.645H230.832V124.66H232.548C233.997 124.66 234.899 123.785 234.899 122.574C234.899 121.373 233.997 120.508 232.548 120.508ZM232.526 121.265C233.495 121.265 233.997 121.828 233.997 122.584C233.997 123.352 233.495 123.904 232.526 123.904H230.832V121.265H232.526Z" fill="black"/>
<path d="M240.601 120.508L238.651 125.071L236.578 120.508H235.598L238.194 126.001L238.161 126.066C237.871 126.704 237.325 126.985 236.701 126.985C236.489 126.985 236.255 126.953 235.988 126.92V127.656C236.255 127.72 236.567 127.764 236.846 127.764C237.826 127.764 238.551 127.31 238.963 126.358L241.581 120.508H240.601Z" fill="black"/>
<path d="M242.934 127.645H243.803V120.508H242.934V127.645ZM245.04 123.817L248.327 120.508H247.212L243.903 123.817L247.524 127.645H248.628L245.04 123.817Z" fill="black"/>
<path d="M255.478 120.508H254.609V126.888H250.854V120.508H249.985V127.645H255.5V129.169H256.37V126.888H255.478V120.508Z" fill="black"/>
<path d="M258.623 120.508H257.754V127.645H258.623V120.508Z" fill="black"/>
<path d="M263.992 126.985C262.376 126.985 261.128 125.807 261.061 124.206H265.084V123.449H261.128C261.395 122.109 262.543 121.168 263.992 121.168C265.017 121.168 265.841 121.644 266.387 122.422L267.034 121.925C266.421 121.017 265.318 120.39 263.981 120.39C261.852 120.39 260.159 121.99 260.159 124.077C260.159 126.163 261.852 127.764 263.981 127.764C265.318 127.764 266.443 127.137 267.034 126.228L266.387 125.731C265.841 126.509 265.017 126.985 263.992 126.985Z" fill="black"/>
<path d="M275.211 120.39C273.316 120.39 271.79 121.676 271.5 123.449H269.472V120.508H268.603V127.645H269.472V124.206H271.444C271.511 126.217 273.149 127.764 275.211 127.764C277.305 127.764 279.021 126.163 279.021 124.077C279.021 121.99 277.305 120.39 275.211 120.39ZM275.222 126.985C273.55 126.985 272.314 125.731 272.314 124.066C272.314 122.411 273.562 121.168 275.222 121.168C276.882 121.168 278.119 122.422 278.119 124.066C278.119 125.731 276.882 126.985 275.222 126.985Z" fill="black"/>
<path d="M60.6461 134.487H54.5957V135.244H57.1807V141.623H58.0499V135.244H60.6461V134.487Z" fill="black"/>
<path d="M66.1378 141.623H67.0627L63.8759 134.368H63.5528L60.366 141.623H61.2797L61.9037 140.174H65.5139L66.1378 141.623ZM65.1796 139.418H62.238L63.7088 135.904L65.1796 139.418Z" fill="black"/>
<path d="M76.5624 134.487H70.9911V141.623H71.8602V135.244H75.6933V141.623H76.5624V134.487Z" fill="black"/>
<path d="M81.1715 134.487H78.5863V141.623H79.4554V138.639H81.1715C82.62 138.639 83.5225 137.763 83.5225 136.552C83.5225 135.352 82.62 134.487 81.1715 134.487ZM81.1492 135.244C82.1186 135.244 82.62 135.806 82.62 136.563C82.62 137.331 82.1186 137.882 81.1492 137.882H79.4554V135.244H81.1492Z" fill="black"/>
<path d="M88.3054 134.368C86.1883 134.368 84.4947 135.968 84.4947 138.055C84.4947 140.131 86.1772 141.742 88.3054 141.742C90.4114 141.742 92.1274 140.142 92.1274 138.055C92.1274 135.968 90.4114 134.368 88.3054 134.368ZM88.3166 135.147C89.9768 135.147 91.2248 136.401 91.2248 138.044C91.2248 139.71 89.9768 140.964 88.3166 140.964C86.634 140.964 85.3973 139.71 85.3973 138.044C85.3973 136.39 86.634 135.147 88.3166 135.147Z" fill="black"/>
<path d="M93.679 141.623H94.5481V134.487H93.679V141.623ZM95.785 137.796L99.072 134.487H97.9577L94.6484 137.796L98.2697 141.623H99.3729L95.785 137.796Z" fill="black"/>
<path d="M103.507 134.368C101.39 134.368 99.6961 135.968 99.6961 138.055C99.6961 140.131 101.379 141.742 103.507 141.742C105.613 141.742 107.329 140.142 107.329 138.055C107.329 135.968 105.613 134.368 103.507 134.368ZM103.518 135.147C105.178 135.147 106.426 136.401 106.426 138.044C106.426 139.71 105.178 140.964 103.518 140.964C101.835 140.964 100.599 139.71 100.599 138.044C100.599 136.39 101.835 135.147 103.518 135.147Z" fill="black"/>
<path d="M114.741 134.487H113.872V137.428H109.749V134.487H108.88V141.623H109.749V138.185H113.872V141.623H114.741V134.487Z" fill="black"/>
<path d="M120.112 134.368C117.984 134.368 116.29 135.968 116.29 138.055C116.29 140.142 117.984 141.742 120.112 141.742C121.449 141.742 122.575 141.115 123.165 140.207L122.519 139.71C121.973 140.488 121.149 140.964 120.123 140.964C118.463 140.964 117.193 139.72 117.193 138.055C117.193 136.39 118.463 135.147 120.123 135.147C121.149 135.147 121.973 135.622 122.519 136.401L123.165 135.904C122.552 134.995 121.449 134.368 120.112 134.368Z" fill="black"/>
<path d="M129.094 134.487L127.144 139.05L125.072 134.487H124.091L126.687 139.98L126.654 140.045C126.364 140.683 125.818 140.964 125.194 140.964C124.982 140.964 124.748 140.931 124.481 140.899V141.634C124.748 141.699 125.06 141.742 125.339 141.742C126.32 141.742 127.044 141.288 127.456 140.337L130.075 134.487H129.094Z" fill="black"/>
<path d="M131.95 134.487V135.514C131.95 138.888 131.304 140.499 129.967 140.866V141.656C131.672 141.331 132.797 139.807 132.819 135.244H135.304V141.612H136.173V134.487H131.95Z" fill="black"/>
<path d="M139.075 134.487H138.206V141.623H141.114C142.641 141.623 143.566 140.715 143.566 139.461C143.566 138.207 142.641 137.298 141.114 137.298H139.075V134.487ZM141.103 138.055C142.128 138.055 142.674 138.661 142.674 139.472C142.674 140.261 142.128 140.866 141.103 140.866H139.075V138.055H141.103Z" fill="black"/>
<path d="M149.537 134.487H143.486V135.244H146.072V141.623H146.941V135.244H149.537V134.487Z" fill="black"/>
<path d="M155.231 134.487L153.281 139.05L151.209 134.487H150.228L152.825 139.98L152.791 140.045C152.501 140.683 151.955 140.964 151.331 140.964C151.12 140.964 150.886 140.931 150.618 140.899V141.634C150.886 141.699 151.198 141.742 151.476 141.742C152.457 141.742 153.181 141.288 153.593 140.337L156.212 134.487H155.231Z" fill="black"/>
<path d="M161.486 137.698C161.932 137.374 162.188 136.887 162.188 136.293C162.188 135.255 161.397 134.487 160.094 134.487H157.564V141.623H160.595C162.055 141.623 162.924 140.747 162.924 139.569C162.924 138.65 162.4 137.958 161.486 137.698ZM160.004 135.244C160.862 135.244 161.297 135.687 161.297 136.347C161.297 137.006 160.862 137.461 160.004 137.461H158.433V135.244H160.004ZM160.506 140.866H158.433V138.228H160.506C161.497 138.228 162.032 138.78 162.032 139.547C162.032 140.326 161.497 140.866 160.506 140.866Z" fill="black"/>
<path d="M169.425 141.623H170.35L167.163 134.368H166.84L163.653 141.623H164.567L165.191 140.174H168.801L169.425 141.623ZM168.467 139.418H165.525L166.996 135.904L168.467 139.418Z" fill="black"/>
<path d="M176.12 134.487H170.07V135.244H172.655V141.623H173.524V135.244H176.12V134.487Z" fill="black"/>
<path d="M183.007 134.368L178.216 139.926V134.487H177.347V141.742H177.659L182.45 136.185V141.623H183.319V134.368H183.007Z" fill="black"/>
<path d="M188.687 134.368C186.559 134.368 184.865 135.968 184.865 138.055C184.865 140.142 186.559 141.742 188.687 141.742C190.024 141.742 191.15 141.115 191.74 140.207L191.094 139.71C190.548 140.488 189.724 140.964 188.699 140.964C187.038 140.964 185.768 139.72 185.768 138.055C185.768 136.39 187.038 135.147 188.699 135.147C189.724 135.147 190.548 135.622 191.094 136.401L191.74 135.904C191.128 134.995 190.024 134.368 188.687 134.368Z" fill="black"/>
<path d="M195.553 134.487C194.005 134.487 193.035 135.417 193.035 136.704C193.035 137.655 193.559 138.401 194.439 138.736L192.456 141.623H193.447L195.319 138.909C195.397 138.92 195.475 138.92 195.553 138.92H197.147V141.623H198.016V134.487H195.553ZM197.147 138.163H195.553C194.517 138.163 193.938 137.536 193.938 136.704C193.938 135.882 194.517 135.244 195.553 135.244H197.147V138.163Z" fill="black"/>
<path d="M206.823 137.742C207.303 137.406 207.581 136.887 207.581 136.282C207.581 135.201 206.679 134.368 205.342 134.368C204.272 134.368 203.403 134.898 202.923 135.666L203.547 136.12C203.96 135.547 204.573 135.147 205.342 135.147C206.199 135.147 206.679 135.655 206.679 136.325C206.679 136.974 206.266 137.461 205.408 137.461H204.171V138.228H205.687C206.679 138.228 207.202 138.845 207.202 139.526C207.202 140.369 206.433 140.964 205.453 140.964C204.528 140.964 203.804 140.456 203.314 139.72L202.678 140.174C203.236 141.104 204.216 141.742 205.464 141.742C206.957 141.742 208.094 140.834 208.094 139.547C208.094 138.726 207.637 138.044 206.823 137.742Z" fill="black"/>
<path d="M213.518 134.487V135.514C213.518 138.888 212.871 140.499 211.534 140.866V141.656C213.239 141.331 214.364 139.807 214.387 135.244H216.872V141.612H217.741V134.487H213.518Z" fill="black"/>
<path d="M220.643 134.487H219.774V141.623H220.643V134.487Z" fill="black"/>
<path d="M222.657 141.623H223.526V134.487H222.657V141.623ZM224.763 137.796L228.05 134.487H226.936L223.627 137.796L227.248 141.623H228.351L224.763 137.796Z" fill="black"/>
<path d="M234.812 141.623H235.737L232.55 134.368H232.227L229.04 141.623H229.953L230.577 140.174H234.188L234.812 141.623ZM233.853 139.418H230.912L232.383 135.904L233.853 139.418Z" fill="black"/>
<path d="M239.682 134.487H237.097V141.623H237.966V138.639H239.682C241.13 138.639 242.033 137.763 242.033 136.552C242.033 135.352 241.13 134.487 239.682 134.487ZM239.66 135.244C240.629 135.244 241.131 135.806 241.131 136.563C241.131 137.331 240.629 137.882 239.66 137.882H237.966V135.244H239.66Z" fill="black"/>
<path d="M248.198 134.487H243.484V141.623H248.331V140.866H244.353V138.185H247.295V137.428H244.353V135.244H248.198V134.487Z" fill="black"/>
<path d="M256.258 134.368L253.172 138.488L250.108 134.368H249.796V141.623H250.665V136.487L253.027 139.601H253.339L255.69 136.509V141.623H256.559V134.368H256.258Z" fill="black"/>
</svg>
