<svg width="959" height="89" viewBox="0 0 959 89" fill="none" xmlns="http://www.w3.org/2000/svg">
<path d="M10.1048 0.648438C4.44954 0.648438 0 12.8838 0 28.9221C0 44.9604 4.44954 57.1958 10.0761 57.1958C13.7505 57.1958 16.8221 51.9875 18.4584 43.6376L15.5303 37.6853C14.2672 43.4723 12.4874 46.8618 10.1048 46.8618C6.57384 46.8618 3.99023 39.5041 3.99023 29.0048C3.99023 18.4228 6.57384 10.9824 10.1048 10.9824C12.4874 10.9824 14.2672 14.3719 15.5303 20.1589L18.4584 14.2066C16.7934 5.85675 13.7505 0.648438 10.1048 0.648438Z" fill="#22A1A6"/>
<path d="M33.9809 56.2037H38.1434L29.7036 0.648438H28.4118L19.9433 56.2037H24.1058L25.1679 49.094H32.9188L33.9809 56.2037ZM31.5695 39.9174H26.5172L29.0433 21.4817L31.5695 39.9174Z" fill="#22A1A6"/>
<path d="M58.0122 0.648438L50.0031 30.1622L41.9939 0.648438H40.7308V56.2037H44.6062V27.1033L49.3715 44.299H50.6346L55.3999 27.1033V56.2037H59.2753V0.648438H58.0122Z" fill="#22A1A6"/>
<path d="M72.591 0.648438C67.0219 0.648438 62.5436 12.8838 62.5436 28.9221C62.5436 44.9604 67.0219 57.1958 72.591 57.1958C78.1601 57.1958 82.6958 44.9604 82.6958 28.9221C82.6958 12.8838 78.1601 0.648438 72.591 0.648438ZM72.6197 10.9824C76.0932 10.9824 78.7055 18.4228 78.7055 28.9221C78.7055 39.5041 76.0932 46.8618 72.6197 46.8618C69.0888 46.8618 66.5339 39.5041 66.5339 28.9221C66.5339 18.4228 69.0888 10.9824 72.6197 10.9824Z" fill="#22A1A6"/>
<path d="M88.3028 1.6405V11.7264C88.3028 35.6185 86.8387 45.0431 83.7958 46.1178V56.6171C88.5898 55.625 91.8911 46.7792 92.0059 11.7264H96.7425V56.2037H100.618V1.6405H88.3028Z" fill="#22A1A6"/>
<path d="M108.86 1.6405H104.985V56.2037H108.86V1.6405Z" fill="#22A1A6"/>
<path d="M129.877 56.2037L121.667 27.3513L128.93 1.6405H124.308L117.074 26.938V1.6405H113.198V56.2037H117.074V27.7647L125.198 56.2037H129.877Z" fill="#22A1A6"/>
<path d="M143.568 1.6405L139.692 29.6662L135.329 1.6405H130.851L137.568 42.1496C136.822 45.7871 135.473 46.8618 134.181 46.8618C133.693 46.8618 133.147 46.7792 132.458 46.6138V56.2037C133.233 56.7824 134.152 57.1958 134.985 57.1958C138.142 57.1958 140.267 53.1449 141.53 44.6297L147.96 1.6405H143.568Z" fill="#22A1A6"/>
<path d="M161.85 26.69C162.74 24.2098 163.257 20.903 163.257 16.8521C163.257 7.84086 160.759 1.6405 157.257 1.6405H150.54V56.2037H158.979C162.654 56.2037 165.209 49.59 165.209 40.1654C165.209 33.469 163.917 28.8394 161.85 26.69ZM156.941 11.2304C158.549 11.2304 159.41 13.6279 159.41 17.4308C159.41 21.151 158.549 23.7138 156.941 23.7138H154.271V11.2304H156.941ZM158.692 46.6138H154.271V32.8903H158.692C160.386 32.8903 161.391 35.5358 161.391 39.7521C161.391 44.051 160.386 46.6138 158.692 46.6138Z" fill="#22A1A6"/>
<path d="M180.318 56.2037H184.48L176.041 0.648438H174.749L166.28 56.2037H170.443L171.505 49.094H179.256L180.318 56.2037ZM177.907 39.9174H172.854L175.38 21.4817L177.907 39.9174Z" fill="#22A1A6"/>
<path d="M203.201 1.6405H199.326V22.5564H190.943V1.6405H187.068V56.2037H190.943V32.6423H199.326V56.2037H203.201V1.6405Z" fill="#22A1A6"/>
<path d="M223.666 1.6405H219.79V22.5564H211.408V1.6405H207.533V56.2037H211.408V32.6423H219.79V56.2037H223.666V1.6405Z" fill="#22A1A6"/>
<path d="M235.26 1.6405C230.983 1.6405 227.94 9.16361 227.94 20.4896C227.94 27.434 229.117 33.0557 231.011 36.2799L226.505 56.2037H230.839L234.686 39.3387C234.887 39.4214 235.059 39.4214 235.26 39.4214H238.073V56.2037H241.949V1.6405H235.26ZM238.073 29.5835H235.203C233.164 29.5835 231.901 25.7806 231.901 20.4896C231.901 15.2813 233.164 11.4784 235.203 11.4784H238.073V29.5835Z" fill="#22A1A6"/>
<path d="M271.631 0.648438L263.621 30.1622L255.612 0.648438H254.349V56.2037H258.225V27.1033L262.99 44.299H264.253L269.018 27.1033V56.2037H272.894V0.648438H271.631Z" fill="#22A1A6"/>
<path d="M286.209 0.648438C280.64 0.648438 276.162 12.8838 276.162 28.9221C276.162 44.9604 280.64 57.1958 286.209 57.1958C291.778 57.1958 296.314 44.9604 296.314 28.9221C296.314 12.8838 291.778 0.648438 286.209 0.648438ZM286.238 10.9824C289.712 10.9824 292.324 18.4228 292.324 28.9221C292.324 39.5041 289.712 46.8618 286.238 46.8618C282.707 46.8618 280.152 39.5041 280.152 28.9221C280.152 18.4228 282.707 10.9824 286.238 10.9824Z" fill="#22A1A6"/>
<path d="M325 56.2037L316.991 27.3513L324.053 1.6405H319.431L312.771 26.938V1.6405H308.896V27.0207L302.207 1.6405H297.585L304.647 27.3513L296.638 56.2037H301.317L308.896 27.682V56.2037H312.771V27.7647L320.321 56.2037H325Z" fill="#22A1A6"/>
<path d="M340.319 1.6405H327.574V56.2037H340.664V46.1178H331.449V32.3116H337.966V22.8044H331.449V11.7264H340.319V1.6405Z" fill="#22A1A6"/>
<path d="M364.534 1.6405H352.075V56.2037H360.515C364.19 56.2037 366.744 49.59 366.744 39.7521C366.744 29.9968 364.19 23.7138 360.515 23.7138H355.951V11.7264H364.534V1.6405ZM360.228 32.8903C361.922 32.8903 362.926 35.5358 362.926 39.7521C362.926 44.051 361.922 46.6138 360.228 46.6138H355.951V32.8903H360.228Z" fill="#22A1A6"/>
<path d="M380.623 1.6405L376.747 29.6662L372.384 1.6405H367.906L374.623 42.1496C373.876 45.7871 372.527 46.8618 371.236 46.8618C370.747 46.8618 370.202 46.7792 369.513 46.6138V56.2037C370.288 56.7824 371.207 57.1958 372.039 57.1958C375.197 57.1958 377.321 53.1449 378.584 44.6297L385.015 1.6405H380.623Z" fill="#22A1A6"/>
<path d="M401.833 1.6405H385.814V11.7264H391.872V56.2037H395.747V11.7264H401.833V1.6405Z" fill="#22A1A6"/>
<path d="M419.515 0.648438L408.262 34.8745V1.6405H404.387V57.1958H405.65L416.931 22.7217V56.2037H420.807V0.648438H419.515Z" fill="#22A1A6"/>
<path d="M458.612 1.6405H454.736V46.1178H447.847V1.6405H443.971V46.1178H437.053V1.6405H433.177V56.2037H458.612V1.6405Z" fill="#22A1A6"/>
<path d="M479.656 56.2037L471.446 27.3513L478.709 1.6405H474.087L466.853 26.938V1.6405H462.977V56.2037H466.853V27.7647L474.977 56.2037H479.656Z" fill="#22A1A6"/>
<path d="M486.084 1.6405H482.209V56.2037H486.084V1.6405Z" fill="#22A1A6"/>
<path d="M505.867 46.1178V1.6405H494.097V10.6517C494.097 30.6582 492.748 40.3308 490.308 46.1178H488.844V67.8604H492.719V56.2037H504.518V67.8604H508.393V46.1178H505.867ZM497.8 11.7264H501.991V46.1178H494.585C496.652 39.0907 497.714 28.4261 497.8 11.7264Z" fill="#22A1A6"/>
<path d="M513.605 1.6405V11.7264C513.605 35.6185 512.141 45.0431 509.098 46.1178V56.6171C513.892 55.625 517.193 46.7792 517.308 11.7264H522.045V56.2037H525.92V1.6405H513.605Z" fill="#22A1A6"/>
<path d="M545.415 0.648438L534.162 34.8745V1.6405H530.287V57.1958H531.55L542.832 22.7217V56.2037H546.707V0.648438H545.415Z" fill="#22A1A6"/>
<path d="M562.342 26.69C563.232 24.2098 563.749 20.903 563.749 16.8521C563.749 7.84086 561.252 1.6405 557.749 1.6405H551.032V56.2037H559.472C563.146 56.2037 565.701 49.59 565.701 40.1654C565.701 33.469 564.409 28.8394 562.342 26.69ZM557.434 11.2304C559.041 11.2304 559.902 13.6279 559.902 17.4308C559.902 21.151 559.041 23.7138 557.434 23.7138H554.764V11.2304H557.434ZM559.185 46.6138H554.764V32.8903H559.185C560.878 32.8903 561.883 35.5358 561.883 39.7521C561.883 44.051 560.878 46.6138 559.185 46.6138Z" fill="#22A1A6"/>
<path d="M583.99 0.648438L572.737 34.8745V1.6405H568.861V57.1958H570.125L581.406 22.7217V56.2037H585.282V0.648438H583.99Z" fill="#22A1A6"/>
<path d="M606.888 0.648438L598.879 30.1622L590.87 0.648438H589.607V56.2037H593.482V27.1033L598.247 44.299H599.51L604.276 27.1033V56.2037H608.151V0.648438H606.888Z" fill="#22A1A6"/>
<path d="M635.72 46.1178V1.6405H623.95V10.6517C623.95 30.6582 622.601 40.3308 620.161 46.1178H618.697V67.8604H622.572V56.2037H634.371V67.8604H638.246V46.1178H635.72ZM627.653 11.7264H631.844V46.1178H624.438C626.505 39.0907 627.567 28.4261 627.653 11.7264Z" fill="#22A1A6"/>
<path d="M643.458 1.6405V11.7264C643.458 35.6185 641.994 45.0431 638.951 46.1178V56.6171C643.745 55.625 647.047 46.7792 647.161 11.7264H651.898V56.2037H655.773V1.6405H643.458Z" fill="#22A1A6"/>
<path d="M667.403 1.6405C663.125 1.6405 660.082 9.16361 660.082 20.4896C660.082 27.434 661.259 33.0557 663.154 36.2799L658.647 56.2037H662.982L666.829 39.3387C667.029 39.4214 667.202 39.4214 667.403 39.4214H670.216V56.2037H674.091V1.6405H667.403ZM670.216 29.5835H667.345C665.307 29.5835 664.044 25.7806 664.044 20.4896C664.044 15.2813 665.307 11.4784 667.345 11.4784H670.216V29.5835Z" fill="#22A1A6"/>
<path d="M697.802 26.69C698.692 24.2098 699.209 20.903 699.209 16.8521C699.209 7.84086 696.711 1.6405 693.209 1.6405H686.492V56.2037H694.932C698.606 56.2037 701.161 49.59 701.161 40.1654C701.161 33.469 699.869 28.8394 697.802 26.69ZM692.893 11.2304C694.501 11.2304 695.362 13.6279 695.362 17.4308C695.362 21.151 694.501 23.7138 692.893 23.7138H690.224V11.2304H692.893ZM694.644 46.6138H690.224V32.8903H694.644C696.338 32.8903 697.343 35.5358 697.343 39.7521C697.343 44.051 696.338 46.6138 694.644 46.6138Z" fill="#22A1A6"/>
<path d="M716.27 56.2037H720.432L711.993 0.648438H710.701L702.232 56.2037H706.395L707.457 49.094H715.208L716.27 56.2037ZM713.859 39.9174H708.806L711.332 21.4817L713.859 39.9174Z" fill="#22A1A6"/>
<path d="M748.454 1.6405H744.579V46.1178H737.689V1.6405H733.814V46.1178H726.895V1.6405H723.02V56.2037H748.454V1.6405Z" fill="#22A1A6"/>
<path d="M761.776 0.648438C756.207 0.648438 751.729 12.8838 751.729 28.9221C751.729 44.9604 756.207 57.1958 761.776 57.1958C767.346 57.1958 771.881 44.9604 771.881 28.9221C771.881 12.8838 767.346 0.648438 761.776 0.648438ZM761.805 10.9824C765.279 10.9824 767.891 18.4228 767.891 28.9221C767.891 39.5041 765.279 46.8618 761.805 46.8618C758.274 46.8618 755.719 39.5041 755.719 28.9221C755.719 18.4228 758.274 10.9824 761.805 10.9824Z" fill="#22A1A6"/>
<path d="M787.363 1.6405H775.163V56.2037H779.038V11.7264H787.363V1.6405Z" fill="#22A1A6"/>
<path d="M798.669 0.648438C793.1 0.648438 788.622 12.8838 788.622 28.9221C788.622 44.9604 793.1 57.1958 798.669 57.1958C804.238 57.1958 808.774 44.9604 808.774 28.9221C808.774 12.8838 804.238 0.648438 798.669 0.648438ZM798.698 10.9824C802.171 10.9824 804.784 18.4228 804.784 28.9221C804.784 39.5041 802.171 46.8618 798.698 46.8618C795.167 46.8618 792.612 39.5041 792.612 28.9221C792.612 18.4228 795.167 10.9824 798.698 10.9824Z" fill="#22A1A6"/>
<path d="M830.952 27.3513C832.043 24.7885 832.675 21.151 832.675 16.7694C832.675 7.42751 829.804 0.648438 826.187 0.648438C823.144 0.648438 820.618 5.44339 819.355 12.5531L822.053 18.0921C823.116 13.6279 824.493 10.9824 826.158 10.9824C827.766 10.9824 828.828 13.6279 828.828 17.4308C828.828 20.9856 827.967 23.7138 826.388 23.7138H823.46V32.8903H827.192C828.886 32.8903 829.862 35.7838 829.862 39.5041C829.862 44.2163 828.34 46.8618 826.474 46.8618C824.551 46.8618 822.972 44.299 821.738 38.9254L819.01 44.547C820.388 52.1528 823.058 57.1958 826.503 57.1958C830.522 57.1958 833.708 50.334 833.708 40.0828C833.708 34.2131 832.675 29.8315 830.952 27.3513Z" fill="#22A1A6"/>
<path d="M852.422 46.1178V1.6405H840.652V10.6517C840.652 30.6582 839.303 40.3308 836.863 46.1178H835.399V67.8604H839.274V56.2037H851.073V67.8604H854.948V46.1178H852.422ZM844.355 11.7264H848.547V46.1178H841.14C843.207 39.0907 844.269 28.4261 844.355 11.7264Z" fill="#22A1A6"/>
<path d="M866.371 0.648438C860.802 0.648438 856.324 12.8838 856.324 28.9221C856.324 44.9604 860.802 57.1958 866.371 57.1958C871.94 57.1958 876.476 44.9604 876.476 28.9221C876.476 12.8838 871.94 0.648438 866.371 0.648438ZM866.4 10.9824C869.873 10.9824 872.486 18.4228 872.486 28.9221C872.486 39.5041 869.873 46.8618 866.4 46.8618C862.869 46.8618 860.314 39.5041 860.314 28.9221C860.314 18.4228 862.869 10.9824 866.4 10.9824Z" fill="#22A1A6"/>
<path d="M886.877 1.6405H879.758V56.2037H883.633V36.9412H886.877C890.867 36.9412 893.709 29.7488 893.709 19.2495C893.709 8.58491 890.867 1.6405 886.877 1.6405ZM886.877 11.4784C888.685 11.4784 889.747 14.7026 889.747 19.2495C889.747 23.9618 888.685 27.186 886.877 27.186H883.633V11.4784H886.877Z" fill="#22A1A6"/>
<path d="M905.759 0.648438C900.19 0.648438 895.711 12.8838 895.711 28.9221C895.711 44.9604 900.19 57.1958 905.759 57.1958C911.328 57.1958 915.863 44.9604 915.863 28.9221C915.863 12.8838 911.328 0.648438 905.759 0.648438ZM905.787 10.9824C909.261 10.9824 911.873 18.4228 911.873 28.9221C911.873 39.5041 909.261 46.8618 905.787 46.8618C902.256 46.8618 899.701 39.5041 899.701 28.9221C899.701 18.4228 902.256 10.9824 905.787 10.9824Z" fill="#22A1A6"/>
<path d="M930.456 26.69C931.345 24.2098 931.862 20.903 931.862 16.8521C931.862 7.84086 929.365 1.6405 925.862 1.6405H919.145V56.2037H927.585C931.259 56.2037 933.814 49.59 933.814 40.1654C933.814 33.469 932.522 28.8394 930.456 26.69ZM925.547 11.2304C927.154 11.2304 928.016 13.6279 928.016 17.4308C928.016 21.151 927.154 23.7138 925.547 23.7138H922.877V11.2304H925.547ZM927.298 46.6138H922.877V32.8903H927.298C928.992 32.8903 929.996 35.5358 929.996 39.7521C929.996 44.051 928.992 46.6138 927.298 46.6138Z" fill="#22A1A6"/>
<path d="M941.74 1.6405H937.319L937.176 24.6232H940.132L941.74 1.6405Z" fill="#22A1A6"/>
<path d="M952.311 1.6405C948.034 1.6405 944.991 9.16361 944.991 20.4896C944.991 27.434 946.168 33.0557 948.063 36.2799L943.556 56.2037H947.89L951.737 39.3387C951.938 39.4214 952.11 39.4214 952.311 39.4214H955.125V56.2037H959V1.6405H952.311ZM955.125 29.5835H952.254C950.216 29.5835 948.953 25.7806 948.953 20.4896C948.953 15.2813 950.216 11.4784 952.254 11.4784H955.125V29.5835Z" fill="#22A1A6"/>
<path d="M3.22503 77.5474H0V86.4502H1.08428V82.7272H3.22503C5.03216 82.7272 6.15814 81.6346 6.15814 80.1238C6.15814 78.6266 5.03216 77.5474 3.22503 77.5474ZM3.19723 78.4917C4.40662 78.4917 5.03216 79.1931 5.03216 80.1373C5.03216 81.095 4.40662 81.783 3.19723 81.783H1.08428V78.4917H3.19723Z" fill="black"/>
<path d="M13.8488 77.5474H7.96864V86.4502H14.0156V85.506H9.05292V82.1607H12.7228V81.2164H9.05292V78.4917H13.8488V77.5474Z" fill="black"/>
<path d="M15.8423 86.4502H16.9265V77.5474H15.8423V86.4502ZM18.4695 81.6751L22.5703 77.5474H21.1802L17.0516 81.6751L21.5695 86.4502H22.9457L18.4695 81.6751Z" fill="black"/>
<path d="M25.8484 77.5474V78.8289C25.8484 83.0375 25.0421 85.0473 23.374 85.506V86.4907C25.5008 86.086 26.9048 84.184 26.9326 78.4917H30.0326V86.4367H31.1168V77.5474H25.8484Z" fill="black"/>
<path d="M40.0196 86.4502H41.1733L37.1977 77.399H36.7945L32.8188 86.4502H33.9587L34.7372 84.6427H39.2411L40.0196 86.4502ZM38.8241 83.6984H35.1542L36.9891 79.3145L38.8241 83.6984Z" fill="black"/>
<path d="M50.933 77.399L47.0825 82.5384L43.2597 77.399H42.8705V86.4502H43.9547V80.0429L46.9017 83.9277H47.291L50.2241 80.0699V86.4502H51.3084V77.399H50.933Z" fill="black"/>
<path d="M60.2059 86.4502H61.3597L57.384 77.399H56.9808L53.0052 86.4502H54.145L54.9235 84.6427H59.4274L60.2059 86.4502ZM59.0104 83.6984H55.3405L57.1755 79.3145L59.0104 83.6984Z" fill="black"/>
<path d="M67.1984 77.5474V78.8289C67.1984 83.0375 66.3921 85.0473 64.724 85.506V86.4907C66.8509 86.086 68.2549 84.184 68.2827 78.4917H71.3826V86.4367H72.4669V77.5474H67.1984Z" fill="black"/>
<path d="M76.0872 77.5474H75.0029V86.4502H76.0872V77.5474Z" fill="black"/>
<path d="M78.6004 86.4502H79.6846V77.5474H78.6004V86.4502ZM81.2277 81.6751L85.3285 77.5474H83.9384L79.8098 81.6751L84.3276 86.4502H85.7038L81.2277 81.6751Z" fill="black"/>
<path d="M93.7637 86.4502H94.9175L90.9418 77.399H90.5387L86.563 86.4502H87.7029L88.4814 84.6427H92.9853L93.7637 86.4502ZM92.5683 83.6984H88.8984L90.7333 79.3145L92.5683 83.6984Z" fill="black"/>
<path d="M99.8397 77.5474H96.6147V86.4502H97.6989V82.7272H99.8397C101.647 82.7272 102.773 81.6346 102.773 80.1238C102.773 78.6266 101.647 77.5474 99.8397 77.5474ZM99.8119 78.4917C101.021 78.4917 101.647 79.1931 101.647 80.1373C101.647 81.095 101.021 81.783 99.8119 81.783H97.6989V78.4917H99.8119Z" fill="black"/>
<path d="M108.754 77.399C106.098 77.399 103.986 79.3954 103.986 81.9988C103.986 84.6022 106.098 86.5986 108.754 86.5986C110.422 86.5986 111.826 85.8162 112.562 84.6831L111.756 84.0626C111.075 85.0339 110.046 85.6274 108.767 85.6274C106.696 85.6274 105.112 84.0761 105.112 81.9988C105.112 79.9215 106.696 78.3703 108.767 78.3703C110.046 78.3703 111.075 78.9638 111.756 79.935L112.562 79.3145C111.798 78.1814 110.422 77.399 108.754 77.399Z" fill="black"/>
<path d="M115.605 77.5474H114.52V86.4502H118.148C120.053 86.4502 121.207 85.3171 121.207 83.7524C121.207 82.1877 120.053 81.0546 118.148 81.0546H115.605V77.5474ZM118.135 81.9988C119.413 81.9988 120.095 82.7542 120.095 83.7659C120.095 84.7506 119.413 85.506 118.135 85.506H115.605V81.9988H118.135Z" fill="black"/>
<path d="M123.181 86.4502H124.266V77.5474H123.181V86.4502ZM125.809 81.6751L129.909 77.5474H128.519L124.391 81.6751L128.909 86.4502H130.285L125.809 81.6751Z" fill="black"/>
<path d="M135.442 77.399C132.801 77.399 130.688 79.3954 130.688 81.9988C130.688 84.5887 132.787 86.5986 135.442 86.5986C138.069 86.5986 140.21 84.6022 140.21 81.9988C140.21 79.3954 138.069 77.399 135.442 77.399ZM135.456 78.3703C137.527 78.3703 139.084 79.935 139.084 81.9853C139.084 84.0626 137.527 85.6274 135.456 85.6274C133.357 85.6274 131.814 84.0626 131.814 81.9853C131.814 79.9215 133.357 78.3703 135.456 78.3703Z" fill="black"/>
<path d="M147.609 77.5474H142.146V86.4502H143.23V78.4917H147.609V77.5474Z" fill="black"/>
<path d="M153.008 77.399C150.367 77.399 148.254 79.3954 148.254 81.9988C148.254 84.5887 150.353 86.5986 153.008 86.5986C155.636 86.5986 157.776 84.6022 157.776 81.9988C157.776 79.3954 155.636 77.399 153.008 77.399ZM153.022 78.3703C155.094 78.3703 156.65 79.935 156.65 81.9853C156.65 84.0626 155.094 85.6274 153.022 85.6274C150.923 85.6274 149.38 84.0626 149.38 81.9853C149.38 79.9215 150.923 78.3703 153.022 78.3703Z" fill="black"/>
<path d="M168.182 81.6076C168.779 81.1895 169.127 80.542 169.127 79.7866C169.127 78.4377 168.001 77.399 166.333 77.399C164.998 77.399 163.914 78.06 163.316 79.0177L164.095 79.5843C164.609 78.8694 165.374 78.3703 166.333 78.3703C167.403 78.3703 168.001 79.0042 168.001 79.8406C168.001 80.6499 167.487 81.2569 166.416 81.2569H164.873V82.2146H166.764C168.001 82.2146 168.654 82.9835 168.654 83.8333C168.654 84.8855 167.695 85.6274 166.472 85.6274C165.318 85.6274 164.414 84.9934 163.803 84.0761L163.01 84.6427C163.706 85.8027 164.929 86.5986 166.486 86.5986C168.348 86.5986 169.766 85.4655 169.766 83.8603C169.766 82.8351 169.196 81.9853 168.182 81.6076Z" fill="black"/>
<path d="M177.93 86.4502H179.084L175.108 77.399H174.705L170.729 86.4502H171.869L172.648 84.6427H177.152L177.93 86.4502ZM176.734 83.6984H173.065L174.9 79.3145L176.734 83.6984Z" fill="black"/>
<path d="M184.707 77.399C182.052 77.399 179.939 79.3954 179.939 81.9988C179.939 84.6022 182.052 86.5986 184.707 86.5986C186.375 86.5986 187.779 85.8162 188.516 84.6831L187.709 84.0626C187.028 85.0339 186 85.6274 184.721 85.6274C182.649 85.6274 181.065 84.0761 181.065 81.9988C181.065 79.9215 182.649 78.3703 184.721 78.3703C186 78.3703 187.028 78.9638 187.709 79.935L188.516 79.3145C187.751 78.1814 186.375 77.399 184.707 77.399Z" fill="black"/>
<path d="M194.562 77.399C191.921 77.399 189.808 79.3954 189.808 81.9988C189.808 84.5887 191.907 86.5986 194.562 86.5986C197.189 86.5986 199.33 84.6022 199.33 81.9988C199.33 79.3954 197.189 77.399 194.562 77.399ZM194.576 78.3703C196.647 78.3703 198.204 79.935 198.204 81.9853C198.204 84.0626 196.647 85.6274 194.576 85.6274C192.477 85.6274 190.934 84.0626 190.934 81.9853C190.934 79.9215 192.477 78.3703 194.576 78.3703Z" fill="black"/>
<path d="M207.007 77.5474H201.266V86.4502H205.047C206.868 86.4502 207.952 85.3576 207.952 83.8603C207.952 82.3495 206.868 81.2569 205.047 81.2569H202.35V78.4917H207.007V77.5474ZM204.936 82.2146C206.173 82.2146 206.84 82.9026 206.84 83.8603C206.84 84.8315 206.173 85.506 204.936 85.506H202.35V82.2146H204.936Z" fill="black"/>
<path d="M215.202 77.5474L212.77 83.2398L210.184 77.5474H208.961L212.2 84.3999L212.158 84.4808C211.797 85.2767 211.116 85.6274 210.337 85.6274C210.073 85.6274 209.781 85.5869 209.447 85.5464V86.4637C209.781 86.5446 210.17 86.5986 210.518 86.5986C211.741 86.5986 212.645 86.032 213.159 84.845L216.426 77.5474H215.202Z" fill="black"/>
<path d="M217.38 84.899C216.908 84.899 216.505 85.2497 216.505 85.7488C216.505 86.2479 216.908 86.5986 217.38 86.5986C217.853 86.5986 218.256 86.2479 218.256 85.7488C218.256 85.2497 217.853 84.899 217.38 84.899Z" fill="black"/>
<path d="M231.362 77.5474H224.412V86.4502H225.496V78.4917H230.278V86.4502H231.362V77.5474Z" fill="black"/>
<path d="M239.767 77.5474H233.887V86.4502H239.934V85.506H234.971V82.1607H238.641V81.2164H234.971V78.4917H239.767V77.5474Z" fill="black"/>
<path d="M244.986 77.5474H241.761V86.4502H242.845V82.7272H244.986C246.793 82.7272 247.919 81.6346 247.919 80.1238C247.919 78.6266 246.793 77.5474 244.986 77.5474ZM244.958 78.4917C246.167 78.4917 246.793 79.1931 246.793 80.1373C246.793 81.095 246.167 81.783 244.958 81.783H242.845V78.4917H244.958Z" fill="black"/>
<path d="M255.609 77.5474H249.729V86.4502H255.776V85.506H250.814V82.1607H254.483V81.2164H250.814V78.4917H255.609V77.5474Z" fill="black"/>
<path d="M264.373 85.506V77.5474H259.368V78.6131C259.368 82.6328 258.52 84.4943 257.367 85.506H256.658V88.3522H257.742V86.4502H264.387V88.3522H265.471V85.506H264.373ZM260.411 78.4917H263.288V85.506H258.632C259.771 84.292 260.383 82.2416 260.411 78.4917Z" fill="black"/>
<path d="M275.684 81.6076C276.281 81.1895 276.629 80.542 276.629 79.7866C276.629 78.4377 275.503 77.399 273.835 77.399C272.5 77.399 271.416 78.06 270.818 79.0177L271.597 79.5843C272.111 78.8694 272.876 78.3703 273.835 78.3703C274.905 78.3703 275.503 79.0042 275.503 79.8406C275.503 80.6499 274.989 81.2569 273.918 81.2569H272.375V82.2146H274.266C275.503 82.2146 276.156 82.9835 276.156 83.8333C276.156 84.8855 275.197 85.6274 273.974 85.6274C272.82 85.6274 271.916 84.9934 271.305 84.0761L270.512 84.6427C271.208 85.8027 272.431 86.5986 273.988 86.5986C275.85 86.5986 277.268 85.4655 277.268 83.8603C277.268 82.8351 276.698 81.9853 275.684 81.6076Z" fill="black"/>
<path d="M285.432 86.4502H286.586L282.61 77.399H282.207L278.231 86.4502H279.371L280.15 84.6427H284.653L285.432 86.4502ZM284.236 83.6984H280.567L282.401 79.3145L284.236 83.6984Z" fill="black"/>
<path d="M292.209 77.399C289.554 77.399 287.441 79.3954 287.441 81.9988C287.441 84.6022 289.554 86.5986 292.209 86.5986C293.877 86.5986 295.281 85.8162 296.018 84.6831L295.211 84.0626C294.53 85.0339 293.502 85.6274 292.223 85.6274C290.151 85.6274 288.567 84.0761 288.567 81.9988C288.567 79.9215 290.151 78.3703 292.223 78.3703C293.502 78.3703 294.53 78.9638 295.211 79.935L296.018 79.3145C295.253 78.1814 293.877 77.399 292.209 77.399Z" fill="black"/>
<path d="M304.523 77.5474H296.975V78.4917H300.2V86.4502H301.284V78.4917H304.523V77.5474Z" fill="black"/>
<path d="M309.883 77.399C307.242 77.399 305.129 79.3954 305.129 81.9988C305.129 84.5887 307.228 86.5986 309.883 86.5986C312.511 86.5986 314.651 84.6022 314.651 81.9988C314.651 79.3954 312.511 77.399 309.883 77.399ZM309.897 78.3703C311.969 78.3703 313.525 79.935 313.525 81.9853C313.525 84.0626 311.969 85.6274 309.897 85.6274C307.798 85.6274 306.255 84.0626 306.255 81.9853C306.255 79.9215 307.798 78.3703 309.897 78.3703Z" fill="black"/>
<path d="M320.757 77.399C318.102 77.399 315.989 79.3954 315.989 81.9988C315.989 84.6022 318.102 86.5986 320.757 86.5986C322.426 86.5986 323.83 85.8162 324.566 84.6831L323.76 84.0626C323.079 85.0339 322.05 85.6274 320.771 85.6274C318.7 85.6274 317.115 84.0761 317.115 81.9988C317.115 79.9215 318.7 78.3703 320.771 78.3703C322.05 78.3703 323.079 78.9638 323.76 79.935L324.566 79.3145C323.802 78.1814 322.426 77.399 320.757 77.399Z" fill="black"/>
<path d="M331.963 77.5474L329.53 83.2398L326.944 77.5474H325.721L328.96 84.3999L328.918 84.4808C328.557 85.2767 327.876 85.6274 327.097 85.6274C326.833 85.6274 326.541 85.5869 326.208 85.5464V86.4637C326.541 86.5446 326.931 86.5986 327.278 86.5986C328.501 86.5986 329.405 86.032 329.919 84.845L333.186 77.5474H331.963Z" fill="black"/>
<path d="M339.766 81.5537C340.322 81.149 340.642 80.542 340.642 79.8001C340.642 78.5052 339.655 77.5474 338.028 77.5474H334.873V86.4502H338.654C340.475 86.4502 341.559 85.3576 341.559 83.8873C341.559 82.7407 340.906 81.8774 339.766 81.5537ZM337.917 78.4917C338.988 78.4917 339.53 79.0447 339.53 79.8675C339.53 80.6904 338.988 81.2569 337.917 81.2569H335.957V78.4917H337.917ZM338.543 85.506H335.957V82.2146H338.543C339.78 82.2146 340.447 82.9026 340.447 83.8603C340.447 84.8315 339.78 85.506 338.543 85.506Z" fill="black"/>
<path d="M349.67 86.4502H350.824L346.848 77.399H346.445L342.469 86.4502H343.609L344.387 84.6427H348.891L349.67 86.4502ZM348.474 83.6984H344.804L346.639 79.3145L348.474 83.6984Z" fill="black"/>
<path d="M359.833 77.5474H358.748V81.2164H353.605V77.5474H352.521V86.4502H353.605V82.1607H358.748V86.4502H359.833V77.5474Z" fill="black"/>
<path d="M369.675 77.5474H368.59V81.2164H363.447V77.5474H362.363V86.4502H363.447V82.1607H368.59V86.4502H369.675V77.5474Z" fill="black"/>
<path d="M375.207 77.5474C373.275 77.5474 372.066 78.7075 372.066 80.3127C372.066 81.4997 372.719 82.4305 373.817 82.8486L371.343 86.4502H372.58L374.915 83.0644C375.013 83.0779 375.11 83.0779 375.207 83.0779H377.195V86.4502H378.279V77.5474H375.207ZM377.195 82.1337H375.207C373.914 82.1337 373.192 81.3513 373.192 80.3127C373.192 79.2875 373.914 78.4917 375.207 78.4917H377.195V82.1337Z" fill="black"/>
<path d="M388.86 77.399L385.01 82.5384L381.187 77.399H380.798V86.4502H381.882V80.0429L384.829 83.9277H385.218L388.151 80.0699V86.4502H389.236V77.399H388.86Z" fill="black"/>
<path d="M402.975 77.5474H401.89V81.2164H396.747V77.5474H395.663V86.4502H396.747V82.1607H401.89V86.4502H402.975V77.5474Z" fill="black"/>
<path d="M411.385 77.5474H405.505V86.4502H411.552V85.506H406.589V82.1607H410.259V81.2164H406.589V78.4917H411.385V77.5474Z" fill="black"/>
<path d="M417.263 77.399C414.622 77.399 412.509 79.3954 412.509 81.9988C412.509 84.5887 414.608 86.5986 417.263 86.5986C419.89 86.5986 422.031 84.6022 422.031 81.9988C422.031 79.3954 419.89 77.399 417.263 77.399ZM417.277 78.3703C419.348 78.3703 420.905 79.935 420.905 81.9853C420.905 84.0626 419.348 85.6274 417.277 85.6274C415.178 85.6274 413.635 84.0626 413.635 81.9853C413.635 79.9215 415.178 78.3703 417.277 78.3703Z" fill="black"/>
<path d="M429.708 77.5474H423.967V86.4502H427.748C429.569 86.4502 430.653 85.3576 430.653 83.8603C430.653 82.3495 429.569 81.2569 427.748 81.2569H425.051V78.4917H429.708V77.5474ZM427.637 82.2146C428.874 82.2146 429.541 82.9026 429.541 83.8603C429.541 84.8315 428.874 85.506 427.637 85.506H425.051V82.2146H427.637Z" fill="black"/>
<path d="M438.906 86.4502L435.792 81.9044L438.684 77.5474H437.432L435.167 81.0141L432.887 77.5474H431.636L434.569 81.8909L431.413 86.4502H432.678L435.167 82.7947L437.641 86.4502H438.906Z" fill="black"/>
<path d="M441.667 77.5474H440.583V86.4502H441.667V77.5474Z" fill="black"/>
<path d="M450.95 85.506V77.5474H445.946V78.6131C445.946 82.6328 445.098 84.4943 443.944 85.506H443.235V88.3522H444.319V86.4502H450.964V88.3522H452.048V85.506H450.95ZM446.988 78.4917H449.866V85.506H445.209C446.349 84.292 446.961 82.2416 446.988 78.4917Z" fill="black"/>
<path d="M461.104 77.5474H460.019V81.2164H454.876V77.5474H453.792V86.4502H454.876V82.1607H460.019V86.4502H461.104V77.5474Z" fill="black"/>
<path d="M467.79 77.399C465.149 77.399 463.036 79.3954 463.036 81.9988C463.036 84.5887 465.135 86.5986 467.79 86.5986C470.417 86.5986 472.558 84.6022 472.558 81.9988C472.558 79.3954 470.417 77.399 467.79 77.399ZM467.804 78.3703C469.875 78.3703 471.432 79.935 471.432 81.9853C471.432 84.0626 469.875 85.6274 467.804 85.6274C465.705 85.6274 464.162 84.0626 464.162 81.9853C464.162 79.9215 465.705 78.3703 467.804 78.3703Z" fill="black"/>
<path d="M482.546 77.399C479.905 77.399 477.792 79.3954 477.792 81.9988C477.792 84.5887 479.891 86.5986 482.546 86.5986C485.173 86.5986 487.314 84.6022 487.314 81.9988C487.314 79.3954 485.173 77.399 482.546 77.399ZM482.56 78.3703C484.631 78.3703 486.188 79.935 486.188 81.9853C486.188 84.0626 484.631 85.6274 482.56 85.6274C480.461 85.6274 478.918 84.0626 478.918 81.9853C478.918 79.9215 480.461 78.3703 482.56 78.3703Z" fill="black"/>
<path d="M493.755 81.6076C494.353 81.1895 494.701 80.542 494.701 79.7866C494.701 78.4377 493.575 77.399 491.907 77.399C490.572 77.399 489.488 78.06 488.89 79.0177L489.669 79.5843C490.183 78.8694 490.948 78.3703 491.907 78.3703C492.977 78.3703 493.575 79.0042 493.575 79.8406C493.575 80.6499 493.06 81.2569 491.99 81.2569H490.447V82.2146H492.338C493.575 82.2146 494.228 82.9835 494.228 83.8333C494.228 84.8855 493.269 85.6274 492.046 85.6274C490.892 85.6274 489.988 84.9934 489.377 84.0761L488.584 84.6427C489.279 85.8027 490.503 86.5986 492.06 86.5986C493.922 86.5986 495.34 85.4655 495.34 83.8603C495.34 82.8351 494.77 81.9853 493.755 81.6076Z" fill="black"/>
<path d="M504.585 77.5474H503.501V81.2164H498.357V77.5474H497.273V86.4502H498.357V82.1607H503.501V86.4502H504.585V77.5474Z" fill="black"/>
<path d="M513.482 86.4502H514.635L510.66 77.399H510.257L506.281 86.4502H507.421L508.199 84.6427H512.703L513.482 86.4502ZM512.286 83.6984H508.616L510.451 79.3145L512.286 83.6984Z" fill="black"/>
<path d="M520.058 76.4818C521.281 76.4818 522.171 75.5915 522.171 74.418H521.267C521.267 75.1868 520.753 75.659 520.058 75.659C519.377 75.659 518.849 75.1868 518.849 74.418H517.945C517.945 75.5915 518.835 76.4818 520.058 76.4818ZM523.394 77.399L517.417 84.3324V77.5474H516.332V86.5986H516.722L522.699 79.6652V86.4502H523.783V77.399H523.394Z" fill="black"/>
<path d="M530.467 77.399C527.825 77.399 525.713 79.3954 525.713 81.9988C525.713 84.5887 527.812 86.5986 530.467 86.5986C533.094 86.5986 535.235 84.6022 535.235 81.9988C535.235 79.3954 533.094 77.399 530.467 77.399ZM530.481 78.3703C532.552 78.3703 534.109 79.935 534.109 81.9853C534.109 84.0626 532.552 85.6274 530.481 85.6274C528.381 85.6274 526.839 84.0626 526.839 81.9853C526.839 79.9215 528.381 78.3703 530.481 78.3703Z" fill="black"/>
<path d="M545.233 77.399L541.382 82.5384L537.56 77.399H537.17V86.4502H538.255V80.0429L541.202 83.9277H541.591L544.524 80.0699V86.4502H545.608V77.399H545.233Z" fill="black"/>
<path d="M555.201 77.399L549.223 84.3324V77.5474H548.139V86.5986H548.528L554.506 79.6652V86.4502H555.59V77.399H555.201Z" fill="black"/>
<path d="M564.664 77.5474H557.116V78.4917H560.341V86.4502H561.425V78.4917H564.664V77.5474Z" fill="black"/>
<path d="M573.256 77.399L567.278 84.3324V77.5474H566.194V86.5986H566.583L572.561 79.6652V86.4502H573.645V77.399H573.256Z" fill="black"/>
<path d="M580.342 77.399C577.687 77.399 575.574 79.3954 575.574 81.9988C575.574 84.6022 577.687 86.5986 580.342 86.5986C582.01 86.5986 583.414 85.8162 584.151 84.6831L583.345 84.0626C582.664 85.0339 581.635 85.6274 580.356 85.6274C578.285 85.6274 576.7 84.0761 576.7 81.9988C576.7 79.9215 578.285 78.3703 580.356 78.3703C581.635 78.3703 582.664 78.9638 583.345 79.935L584.151 79.3145C583.387 78.1814 582.01 77.399 580.342 77.399Z" fill="black"/>
<path d="M587.193 77.5474H586.109V86.4502H589.737C591.642 86.4502 592.795 85.3171 592.795 83.7524C592.795 82.1877 591.642 81.0546 589.737 81.0546H587.193V77.5474ZM589.723 81.9988C591.002 81.9988 591.683 82.7542 591.683 83.7659C591.683 84.7506 591.002 85.506 589.723 85.506H587.193V81.9988H589.723Z" fill="black"/>
<path d="M602.819 81.6076C603.416 81.1895 603.764 80.542 603.764 79.7866C603.764 78.4377 602.638 77.399 600.97 77.399C599.635 77.399 598.551 78.06 597.953 79.0177L598.732 79.5843C599.246 78.8694 600.011 78.3703 600.97 78.3703C602.04 78.3703 602.638 79.0042 602.638 79.8406C602.638 80.6499 602.124 81.2569 601.053 81.2569H599.51V82.2146H601.401C602.638 82.2146 603.291 82.9835 603.291 83.8333C603.291 84.8855 602.332 85.6274 601.109 85.6274C599.955 85.6274 599.051 84.9934 598.44 84.0761L597.647 84.6427C598.343 85.8027 599.566 86.5986 601.123 86.5986C602.985 86.5986 604.403 85.4655 604.403 83.8603C604.403 82.8351 603.833 81.9853 602.819 81.6076Z" fill="black"/>
<path d="M611.316 77.5474H610.232V86.4502H611.316V77.5474Z" fill="black"/>
<path d="M621.141 77.5474H620.057V81.2164H614.914V77.5474H613.83V86.4502H614.914V82.1607H620.057V86.4502H621.141V77.5474Z" fill="black"/>
<path d="M627.842 77.399C625.187 77.399 623.074 79.3954 623.074 81.9988C623.074 84.6022 625.187 86.5986 627.842 86.5986C629.51 86.5986 630.914 85.8162 631.651 84.6831L630.844 84.0626C630.163 85.0339 629.135 85.6274 627.856 85.6274C625.784 85.6274 624.2 84.0761 624.2 81.9988C624.2 79.9215 625.784 78.3703 627.856 78.3703C629.135 78.3703 630.163 78.9638 630.844 79.935L631.651 79.3145C630.886 78.1814 629.51 77.399 627.842 77.399Z" fill="black"/>
<path d="M640.156 77.5474H632.608V78.4917H635.833V86.4502H636.917V78.4917H640.156V77.5474Z" fill="black"/>
<path d="M644.911 77.5474H641.686V86.4502H642.77V82.7272H644.911C646.718 82.7272 647.844 81.6346 647.844 80.1238C647.844 78.6266 646.718 77.5474 644.911 77.5474ZM644.883 78.4917C646.092 78.4917 646.718 79.1931 646.718 80.1373C646.718 81.095 646.092 81.783 644.883 81.783H642.77V78.4917H644.883Z" fill="black"/>
<path d="M654.957 77.5474L652.525 83.2398L649.939 77.5474H648.716L651.955 84.3999L651.913 84.4808C651.552 85.2767 650.87 85.6274 650.092 85.6274C649.828 85.6274 649.536 85.5869 649.202 85.5464V86.4637C649.536 86.5446 649.925 86.5986 650.273 86.5986C651.496 86.5986 652.399 86.032 652.914 84.845L656.181 77.5474H654.957Z" fill="black"/>
<path d="M657.867 86.4502H658.952V77.5474H657.867V86.4502ZM660.495 81.6751L664.596 77.5474H663.205L659.077 81.6751L663.595 86.4502H664.971L660.495 81.6751Z" fill="black"/>
<path d="M673.517 77.5474H672.433V85.506H667.748V77.5474H666.664V86.4502H673.545V88.3522H674.629V85.506H673.517V77.5474Z" fill="black"/>
<path d="M677.441 77.5474H676.357V86.4502H677.441V77.5474Z" fill="black"/>
<path d="M684.138 85.6274C682.123 85.6274 680.566 84.1571 680.483 82.1607H685.501V81.2164H680.566C680.9 79.5438 682.331 78.3703 684.138 78.3703C685.417 78.3703 686.446 78.9638 687.127 79.935L687.933 79.3145C687.169 78.1814 685.793 77.399 684.125 77.399C681.469 77.399 679.357 79.3954 679.357 81.9988C679.357 84.6022 681.469 86.5986 684.125 86.5986C685.793 86.5986 687.197 85.8162 687.933 84.6831L687.127 84.0626C686.446 85.0339 685.417 85.6274 684.138 85.6274Z" fill="black"/>
<path d="M698.135 77.399C695.771 77.399 693.867 79.0042 693.506 81.2164H690.976V77.5474H689.891V86.4502H690.976V82.1607H693.436C693.52 84.6696 695.563 86.5986 698.135 86.5986C700.748 86.5986 702.889 84.6022 702.889 81.9988C702.889 79.3954 700.748 77.399 698.135 77.399ZM698.149 85.6274C696.063 85.6274 694.52 84.0626 694.52 81.9853C694.52 79.9215 696.077 78.3703 698.149 78.3703C700.22 78.3703 701.763 79.935 701.763 81.9853C701.763 84.0626 700.22 85.6274 698.149 85.6274Z" fill="black"/>
<path d="M714.589 77.5474H707.041V78.4917H710.266V86.4502H711.35V78.4917H714.589V77.5474Z" fill="black"/>
<path d="M721.44 86.4502H722.594L718.618 77.399H718.215L714.239 86.4502H715.379L716.158 84.6427H720.661L721.44 86.4502ZM720.245 83.6984H716.575L718.41 79.3145L720.245 83.6984Z" fill="black"/>
<path d="M734.445 77.5474H727.495V86.4502H728.579V78.4917H733.361V86.4502H734.445V77.5474Z" fill="black"/>
<path d="M740.195 77.5474H736.97V86.4502H738.054V82.7272H740.195C742.002 82.7272 743.128 81.6346 743.128 80.1238C743.128 78.6266 742.002 77.5474 740.195 77.5474ZM740.167 78.4917C741.377 78.4917 742.002 79.1931 742.002 80.1373C742.002 81.095 741.377 81.783 740.167 81.783H738.054V78.4917H740.167Z" fill="black"/>
<path d="M749.095 77.399C746.454 77.399 744.341 79.3954 744.341 81.9988C744.341 84.5887 746.44 86.5986 749.095 86.5986C751.722 86.5986 753.863 84.6022 753.863 81.9988C753.863 79.3954 751.722 77.399 749.095 77.399ZM749.109 78.3703C751.18 78.3703 752.737 79.935 752.737 81.9853C752.737 84.0626 751.18 85.6274 749.109 85.6274C747.01 85.6274 745.467 84.0626 745.467 81.9853C745.467 79.9215 747.01 78.3703 749.109 78.3703Z" fill="black"/>
<path d="M755.799 86.4502H756.883V77.5474H755.799V86.4502ZM758.426 81.6751L762.527 77.5474H761.137L757.008 81.6751L761.526 86.4502H762.902L758.426 81.6751Z" fill="black"/>
<path d="M768.06 77.399C765.419 77.399 763.306 79.3954 763.306 81.9988C763.306 84.5887 765.405 86.5986 768.06 86.5986C770.687 86.5986 772.828 84.6022 772.828 81.9988C772.828 79.3954 770.687 77.399 768.06 77.399ZM768.074 78.3703C770.145 78.3703 771.702 79.935 771.702 81.9853C771.702 84.0626 770.145 85.6274 768.074 85.6274C765.975 85.6274 764.432 84.0626 764.432 81.9853C764.432 79.9215 765.975 78.3703 768.074 78.3703Z" fill="black"/>
<path d="M782.075 77.5474H780.991V81.2164H775.848V77.5474H774.763V86.4502H775.848V82.1607H780.991V86.4502H782.075V77.5474Z" fill="black"/>
<path d="M788.776 77.399C786.121 77.399 784.008 79.3954 784.008 81.9988C784.008 84.6022 786.121 86.5986 788.776 86.5986C790.444 86.5986 791.848 85.8162 792.585 84.6831L791.778 84.0626C791.097 85.0339 790.069 85.6274 788.79 85.6274C786.718 85.6274 785.134 84.0761 785.134 81.9988C785.134 79.9215 786.718 78.3703 788.79 78.3703C790.069 78.3703 791.097 78.9638 791.778 79.935L792.585 79.3145C791.82 78.1814 790.444 77.399 788.776 77.399Z" fill="black"/>
<path d="M799.981 77.5474L797.548 83.2398L794.963 77.5474H793.74L796.978 84.3999L796.937 84.4808C796.575 85.2767 795.894 85.6274 795.116 85.6274C794.852 85.6274 794.56 85.5869 794.226 85.5464V86.4637C794.56 86.5446 794.949 86.5986 795.296 86.5986C796.52 86.5986 797.423 86.032 797.938 84.845L801.204 77.5474H799.981Z" fill="black"/>
<path d="M803.544 77.5474V78.8289C803.544 83.0375 802.738 85.0473 801.07 85.506V86.4907C803.197 86.086 804.601 84.184 804.628 78.4917H807.728V86.4367H808.812V77.5474H803.544Z" fill="black"/>
<path d="M812.433 77.5474H811.349V86.4502H814.977C816.881 86.4502 818.035 85.3171 818.035 83.7524C818.035 82.1877 816.881 81.0546 814.977 81.0546H812.433V77.5474ZM814.963 81.9988C816.242 81.9988 816.923 82.7542 816.923 83.7659C816.923 84.7506 816.242 85.506 814.963 85.506H812.433V81.9988H814.963Z" fill="black"/>
<path d="M825.484 77.5474H817.936V78.4917H821.161V86.4502H822.246V78.4917H825.484V77.5474Z" fill="black"/>
<path d="M832.589 77.5474L830.156 83.2398L827.57 77.5474H826.347L829.586 84.3999L829.544 84.4808C829.183 85.2767 828.502 85.6274 827.723 85.6274C827.459 85.6274 827.167 85.5869 826.834 85.5464V86.4637C827.167 86.5446 827.557 86.5986 827.904 86.5986C829.127 86.5986 830.031 86.032 830.545 84.845L833.812 77.5474H832.589Z" fill="black"/>
<path d="M840.392 81.5537C840.948 81.149 841.268 80.542 841.268 79.8001C841.268 78.5052 840.281 77.5474 838.654 77.5474H835.499V86.4502H839.28C841.101 86.4502 842.185 85.3576 842.185 83.8873C842.185 82.7407 841.532 81.8774 840.392 81.5537ZM838.543 78.4917C839.614 78.4917 840.156 79.0447 840.156 79.8675C840.156 80.6904 839.614 81.2569 838.543 81.2569H836.583V78.4917H838.543ZM839.169 85.506H836.583V82.2146H839.169C840.406 82.2146 841.073 82.9026 841.073 83.8603C841.073 84.8315 840.406 85.506 839.169 85.506Z" fill="black"/>
<path d="M850.296 86.4502H851.45L847.474 77.399H847.071L843.095 86.4502H844.235L845.013 84.6427H849.517L850.296 86.4502ZM849.1 83.6984H845.43L847.265 79.3145L849.1 83.6984Z" fill="black"/>
<path d="M858.649 77.5474H851.1V78.4917H854.326V86.4502H855.41V78.4917H858.649V77.5474Z" fill="black"/>
<path d="M867.24 77.399L861.263 84.3324V77.5474H860.179V86.5986H860.568L866.545 79.6652V86.4502H867.629V77.399H867.24Z" fill="black"/>
<path d="M874.327 77.399C871.672 77.399 869.559 79.3954 869.559 81.9988C869.559 84.6022 871.672 86.5986 874.327 86.5986C875.995 86.5986 877.399 85.8162 878.135 84.6831L877.329 84.0626C876.648 85.0339 875.619 85.6274 874.341 85.6274C872.269 85.6274 870.685 84.0761 870.685 81.9988C870.685 79.9215 872.269 78.3703 874.341 78.3703C875.619 78.3703 876.648 78.9638 877.329 79.935L878.135 79.3145C877.371 78.1814 875.995 77.399 874.327 77.399Z" fill="black"/>
<path d="M882.892 77.5474C880.96 77.5474 879.751 78.7075 879.751 80.3127C879.751 81.4997 880.404 82.4305 881.502 82.8486L879.028 86.4502H880.265L882.6 83.0644C882.698 83.0779 882.795 83.0779 882.892 83.0779H884.88V86.4502H885.964V77.5474H882.892ZM884.88 82.1337H882.892C881.6 82.1337 880.877 81.3513 880.877 80.3127C880.877 79.2875 881.6 78.4917 882.892 78.4917H884.88V82.1337Z" fill="black"/>
<path d="M896.952 81.6076C897.55 81.1895 897.898 80.542 897.898 79.7866C897.898 78.4377 896.772 77.399 895.104 77.399C893.769 77.399 892.685 78.06 892.087 79.0177L892.865 79.5843C893.38 78.8694 894.144 78.3703 895.104 78.3703C896.174 78.3703 896.772 79.0042 896.772 79.8406C896.772 80.6499 896.257 81.2569 895.187 81.2569H893.644V82.2146H895.534C896.772 82.2146 897.425 82.9835 897.425 83.8333C897.425 84.8855 896.466 85.6274 895.242 85.6274C894.089 85.6274 893.185 84.9934 892.574 84.0761L891.781 84.6427C892.476 85.8027 893.699 86.5986 895.256 86.5986C897.119 86.5986 898.537 85.4655 898.537 83.8603C898.537 82.8351 897.967 81.9853 896.952 81.6076Z" fill="black"/>
<path d="M905.304 77.5474V78.8289C905.304 83.0375 904.497 85.0473 902.829 85.506V86.4907C904.956 86.086 906.36 84.184 906.388 78.4917H909.488V86.4367H910.572V77.5474H905.304Z" fill="black"/>
<path d="M914.192 77.5474H913.108V86.4502H914.192V77.5474Z" fill="black"/>
<path d="M916.706 86.4502H917.79V77.5474H916.706V86.4502ZM919.333 81.6751L923.434 77.5474H922.044L917.915 81.6751L922.433 86.4502H923.809L919.333 81.6751Z" fill="black"/>
<path d="M931.869 86.4502H933.023L929.047 77.399H928.644L924.668 86.4502H925.808L926.587 84.6427H931.091L931.869 86.4502ZM930.673 83.6984H927.004L928.839 79.3145L930.673 83.6984Z" fill="black"/>
<path d="M937.945 77.5474H934.72V86.4502H935.804V82.7272H937.945C939.752 82.7272 940.878 81.6346 940.878 80.1238C940.878 78.6266 939.752 77.5474 937.945 77.5474ZM937.917 78.4917C939.127 78.4917 939.752 79.1931 939.752 80.1373C939.752 81.095 939.127 81.783 937.917 81.783H935.804V78.4917H937.917Z" fill="black"/>
<path d="M948.569 77.5474H942.689V86.4502H948.735V85.506H943.773V82.1607H947.443V81.2164H943.773V78.4917H948.569V77.5474Z" fill="black"/>
<path d="M958.625 77.399L954.774 82.5384L950.951 77.399H950.562V86.4502H951.646V80.0429L954.593 83.9277H954.983L957.916 80.0699V86.4502H959V77.399H958.625Z" fill="black"/>
</svg>
