<svg preserveAspectRatio="none" width="959" height="136" viewBox="0 0 959 136" fill="none" xmlns="http://www.w3.org/2000/svg">
<path d="M3.42744 2.65108H0V55.6727H3.42744V2.65108Z" fill="#2CC8CC"/>
<path d="M21.5328 2.65108H18.1053V22.976H10.6919V2.65108H7.26447V55.6727H10.6919V32.777H18.1053V55.6727H21.5328V2.65108Z" fill="#2CC8CC"/>
<path d="M43.7195 28.6799C43.7195 14.7014 40.419 6.50719 35.7729 6.42686V0H32.3455V6.42686C27.7248 6.58753 24.3989 14.7818 24.3989 28.6799C24.3989 42.6583 27.7248 51.1739 32.3455 51.3345V58.2434H35.7729V51.3345C40.419 51.1739 43.7195 42.7386 43.7195 28.6799ZM27.7756 29.0012C27.7756 20.7266 29.5274 15.7458 32.3455 15.6655V42.0156C29.5274 41.9352 27.7756 37.2758 27.7756 29.0012ZM35.7729 42.0156V15.6655C38.591 15.6655 40.3682 20.6463 40.3682 29.0012C40.3682 37.3561 38.591 42.0156 35.7729 42.0156Z" fill="#2CC8CC"/>
<path d="M54.5576 1.68705C49.6322 1.68705 45.6716 13.5767 45.6716 29.1619C45.6716 44.747 49.6322 56.6367 54.5576 56.6367C59.4829 56.6367 63.4943 44.747 63.4943 29.1619C63.4943 13.5767 59.4829 1.68705 54.5576 1.68705ZM54.583 11.729C57.655 11.729 59.9653 18.9592 59.9653 29.1619C59.9653 39.4448 57.655 46.5947 54.583 46.5947C51.4602 46.5947 49.2006 39.4448 49.2006 29.1619C49.2006 18.9592 51.4602 11.729 54.583 11.729Z" fill="#2CC8CC"/>
<path d="M72.6931 2.65108H66.3967V55.6727H69.8242V36.9544H72.6931C76.222 36.9544 78.7355 29.9652 78.7355 19.7626C78.7355 9.39928 76.222 2.65108 72.6931 2.65108ZM72.6931 12.211C74.2925 12.211 75.2319 15.3441 75.2319 19.7626C75.2319 24.3417 74.2925 27.4748 72.6931 27.4748H69.8242V12.211H72.6931Z" fill="#2CC8CC"/>
<path d="M96.755 1.68705L89.6716 30.3669L82.5882 1.68705H81.4711V55.6727H84.8986V27.3945L89.113 44.1043H90.2301L94.4446 27.3945V55.6727H97.872V1.68705H96.755Z" fill="#2CC8CC"/>
<path d="M112.543 55.6727H116.224L108.76 1.68705H107.617L100.128 55.6727H103.809L104.749 48.7638H111.603L112.543 55.6727ZM110.41 39.8465H105.942L108.176 21.9317L110.41 39.8465Z" fill="#2CC8CC"/>
<path d="M132.146 2.65108H128.719V45.8717H121.94V2.65108H118.512V55.6727H130.927V67H134.355V45.8717H132.146V2.65108Z" fill="#2CC8CC"/>
<path d="M140.361 2.65108H136.934V55.6727H140.361V2.65108Z" fill="#2CC8CC"/>
<path d="M150.622 2.65108C146.839 2.65108 144.148 9.96163 144.148 20.9676C144.148 27.7158 145.189 33.1787 146.864 36.3117L142.878 55.6727H146.712L150.114 39.2842C150.292 39.3645 150.444 39.3645 150.622 39.3645H153.11V55.6727H156.537V2.65108H150.622ZM153.11 29.8046H150.571C148.768 29.8046 147.651 26.1091 147.651 20.9676C147.651 15.9065 148.768 12.211 150.571 12.211H153.11V29.8046Z" fill="#2CC8CC"/>
<path d="M177.507 26.9928C178.294 24.5827 178.751 21.3693 178.751 17.4329C178.751 8.67626 176.542 2.65108 173.445 2.65108H167.504V55.6727H174.968C178.218 55.6727 180.478 49.2458 180.478 40.0875C180.478 33.5803 179.335 29.0815 177.507 26.9928ZM173.166 11.97C174.588 11.97 175.349 14.2998 175.349 17.9952C175.349 21.6103 174.588 24.1007 173.166 24.1007H170.805V11.97H173.166ZM174.715 46.3537H170.805V33.018H174.715C176.212 33.018 177.101 35.5887 177.101 39.6858C177.101 43.8633 176.212 46.3537 174.715 46.3537Z" fill="#2CC8CC"/>
<path d="M196.653 1.68705L186.7 34.946V2.65108H183.273V56.6367H184.39L194.368 23.1367V55.6727H197.795V1.68705H196.653Z" fill="#2CC8CC"/>
<path d="M216.371 55.6727L209.11 27.6355L215.533 2.65108H211.445L205.047 27.2338V2.65108H201.62V55.6727H205.047V28.0372L212.232 55.6727H216.371Z" fill="#2CC8CC"/>
<path d="M220.685 2.65108V12.452C220.685 35.6691 219.39 44.8273 216.699 45.8717V56.0743C220.939 55.1103 223.858 46.5144 223.96 12.452H228.149V55.6727H231.576V2.65108H220.685Z" fill="#2CC8CC"/>
<path d="M250.519 1.68705C246.279 1.68705 242.852 10.524 241.988 22.976H238.866V2.65108H235.438V55.6727H238.866V32.777H241.861C242.395 46.5144 246 56.6367 250.519 56.6367C255.393 56.6367 259.405 44.747 259.405 29.1619C259.405 13.5767 255.393 1.68705 250.519 1.68705ZM250.519 46.5947C247.472 46.5947 245.162 39.3645 245.162 29.1619C245.162 18.9592 247.472 11.729 250.519 11.729C253.565 11.729 255.876 18.9592 255.876 29.1619C255.876 39.3645 253.565 46.5947 250.519 46.5947Z" fill="#2CC8CC"/>
<path d="M271.378 2.65108V27.3945C270.439 28.4388 269.398 29.0815 268.56 29.0815C266.326 29.0815 264.752 24.8237 264.752 16.6295V2.65108H261.325V17.6739C261.325 31.5719 264.32 39.0432 268.433 39.0432C269.5 39.0432 270.49 38.5611 271.378 37.7578V55.6727H274.806V2.65108H271.378Z" fill="#2CC8CC"/>
<path d="M292.897 2.65108H289.469V22.976H282.056V2.65108H278.628V55.6727H282.056V32.777H289.469V55.6727H292.897V2.65108Z" fill="#2CC8CC"/>
<path d="M304.649 1.68705C299.723 1.68705 295.763 13.5767 295.763 29.1619C295.763 44.747 299.723 56.6367 304.649 56.6367C309.574 56.6367 313.585 44.747 313.585 29.1619C313.585 13.5767 309.574 1.68705 304.649 1.68705ZM304.674 11.729C307.746 11.729 310.056 18.9592 310.056 29.1619C310.056 39.4448 307.746 46.5947 304.674 46.5947C301.551 46.5947 299.292 39.4448 299.292 29.1619C299.292 18.9592 301.551 11.729 304.674 11.729Z" fill="#2CC8CC"/>
<path d="M337.014 45.8717V2.65108H326.605V11.4077C326.605 30.8489 325.412 40.2482 323.254 45.8717H321.959V67H325.387V55.6727H335.821V67H339.249V45.8717H337.014ZM329.88 12.452H333.587V45.8717H327.037C328.865 39.0432 329.804 28.6799 329.88 12.452Z" fill="#2CC8CC"/>
<path d="M343.858 2.65108V12.452C343.858 35.6691 342.563 44.8273 339.872 45.8717V56.0743C344.112 55.1103 347.032 46.5144 347.133 12.452H351.322V55.6727H354.75V2.65108H343.858Z" fill="#2CC8CC"/>
<path d="M365.035 2.65108C361.252 2.65108 358.561 9.96163 358.561 20.9676C358.561 27.7158 359.602 33.1787 361.277 36.3117L357.292 55.6727H361.125L364.527 39.2842C364.705 39.3645 364.857 39.3645 365.035 39.3645H367.523V55.6727H370.951V2.65108H365.035ZM367.523 29.8046H364.984C363.182 29.8046 362.065 26.1091 362.065 20.9676C362.065 15.9065 363.182 12.211 364.984 12.211H367.523V29.8046Z" fill="#2CC8CC"/>
<path d="M397.201 1.68705L390.118 30.3669L383.035 1.68705H381.918V55.6727H385.345V27.3945L389.559 44.1043H390.677L394.891 27.3945V55.6727H398.318V1.68705H397.201Z" fill="#2CC8CC"/>
<path d="M413.446 2.65108H402.174V55.6727H413.751V45.8717H405.601V32.4556H411.364V23.217H405.601V12.452H413.446V2.65108Z" fill="#2CC8CC"/>
<path d="M430.386 45.8717V2.65108H419.977V11.4077C419.977 30.8489 418.784 40.2482 416.626 45.8717H415.331V67H418.759V55.6727H429.193V67H432.621V45.8717H430.386ZM423.252 12.452H426.959V45.8717H420.409C422.237 39.0432 423.176 28.6799 423.252 12.452Z" fill="#2CC8CC"/>
<path d="M448.553 1.68705L438.601 34.946V2.65108H435.174V56.6367H436.291L446.268 23.1367V55.6727H449.696V1.68705H448.553Z" fill="#2CC8CC"/>
<path d="M462.61 2.65108V27.3945C461.671 28.4388 460.63 29.0815 459.792 29.0815C457.558 29.0815 455.984 24.8237 455.984 16.6295V2.65108H452.556V17.6739C452.556 31.5719 455.552 39.0432 459.665 39.0432C460.731 39.0432 461.721 38.5611 462.61 37.7578V55.6727H466.037V2.65108H462.61Z" fill="#2CC8CC"/>
<path d="M484.128 2.65108H480.701V22.976H473.287V2.65108H469.86V55.6727H473.287V32.777H480.701V55.6727H484.128V2.65108Z" fill="#2CC8CC"/>
<path d="M501.339 1.68705L491.386 34.946V2.65108H487.959V56.6367H489.076L499.054 23.1367V55.6727H502.481V1.68705H501.339Z" fill="#2CC8CC"/>
<path d="M519.61 55.6727L514.1 28.6799L519.254 2.65108H515.37L512.171 19.3609L508.946 2.65108H505.037L510.267 28.6799L504.707 55.6727H508.616L512.171 38.0791L515.725 55.6727H519.61Z" fill="#2CC8CC"/>
<path d="M532.444 2.65108H529.017V55.6727H532.444V2.65108Z" fill="#2CC8CC"/>
<path d="M561.753 28.6799C561.753 14.7014 558.452 6.50719 553.806 6.42686V0H550.379V6.42686C545.758 6.58753 542.432 14.7818 542.432 28.6799C542.432 42.6583 545.758 51.1739 550.379 51.3345V58.2434H553.806V51.3345C558.452 51.1739 561.753 42.7386 561.753 28.6799ZM545.809 29.0012C545.809 20.7266 547.561 15.7458 550.379 15.6655V42.0156C547.561 41.9352 545.809 37.2758 545.809 29.0012ZM553.806 42.0156V15.6655C556.624 15.6655 558.401 20.6463 558.401 29.0012C558.401 37.3561 556.624 42.0156 553.806 42.0156Z" fill="#2CC8CC"/>
<path d="M574.94 55.6727H578.621L571.157 1.68705H570.014L562.525 55.6727H566.206L567.145 48.7638H574L574.94 55.6727ZM572.807 39.8465H568.339L570.573 21.9317L572.807 39.8465Z" fill="#2CC8CC"/>
<path d="M587.206 2.65108H580.909V55.6727H584.337V36.9544H587.206C590.735 36.9544 593.248 29.9652 593.248 19.7626C593.248 9.39928 590.735 2.65108 587.206 2.65108ZM587.206 12.211C588.805 12.211 589.745 15.3441 589.745 19.7626C589.745 24.3417 588.805 27.4748 587.206 27.4748H584.337V12.211H587.206Z" fill="#2CC8CC"/>
<path d="M611.268 1.68705L604.184 30.3669L597.101 1.68705H595.984V55.6727H599.411V27.3945L603.626 44.1043H604.743L608.957 27.3945V55.6727H612.385V1.68705H611.268Z" fill="#2CC8CC"/>
<path d="M627.055 55.6727H630.737L623.273 1.68705H622.13L614.641 55.6727H618.322L619.261 48.7638H626.116L627.055 55.6727ZM624.923 39.8465H620.454L622.689 21.9317L624.923 39.8465Z" fill="#2CC8CC"/>
<path d="M646.659 2.65108H643.231V45.8717H636.453V2.65108H633.025V55.6727H645.44V67H648.867V45.8717H646.659V2.65108Z" fill="#2CC8CC"/>
<path d="M662.719 2.65108H651.447V55.6727H663.024V45.8717H654.874V32.4556H660.637V23.217H654.874V12.452H662.719V2.65108Z" fill="#2CC8CC"/>
<path d="M676.003 26.9928C676.79 24.5827 677.247 21.3693 677.247 17.4329C677.247 8.67626 675.039 2.65108 671.941 2.65108H666V55.6727H673.465C676.714 55.6727 678.974 49.2458 678.974 40.0875C678.974 33.5803 677.831 29.0815 676.003 26.9928ZM671.662 11.97C673.084 11.97 673.845 14.2998 673.845 17.9952C673.845 21.6103 673.084 24.1007 671.662 24.1007H669.301V11.97H671.662ZM673.211 46.3537H669.301V33.018H673.211C674.709 33.018 675.597 35.5887 675.597 39.6858C675.597 43.8633 674.709 46.3537 673.211 46.3537Z" fill="#2CC8CC"/>
<path d="M693.717 2.65108H679.55V12.452H684.907V55.6727H688.335V12.452H693.717V2.65108Z" fill="#2CC8CC"/>
<path d="M709.355 1.68705L699.403 34.946V2.65108H695.976V56.6367H697.093L707.07 23.1367V55.6727H710.498V1.68705H709.355Z" fill="#2CC8CC"/>
<path d="M723.412 2.65108V27.3945C722.472 28.4388 721.431 29.0815 720.594 29.0815C718.359 29.0815 716.785 24.8237 716.785 16.6295V2.65108H713.358V17.6739C713.358 31.5719 716.354 39.0432 720.467 39.0432C721.533 39.0432 722.523 38.5611 723.412 37.7578V55.6727H726.839V2.65108H723.412Z" fill="#2CC8CC"/>
<path d="M744.93 2.65108H741.502V22.976H734.089V2.65108H730.661V55.6727H734.089V32.777H741.502V55.6727H744.93V2.65108Z" fill="#2CC8CC"/>
<path d="M762.14 1.68705L752.188 34.946V2.65108H748.761V56.6367H749.878L759.855 23.1367V55.6727H763.283V1.68705H762.14Z" fill="#2CC8CC"/>
<path d="M780.411 55.6727L774.902 28.6799L780.056 2.65108H776.171L772.972 19.3609L769.748 2.65108H765.838L771.068 28.6799L765.508 55.6727H769.418L772.972 38.0791L776.527 55.6727H780.411Z" fill="#2CC8CC"/>
<path d="M803.503 2.65108H789.819V55.6727H793.246V12.452H800.075V55.6727H803.503V2.65108Z" fill="#2CC8CC"/>
<path d="M813.669 2.65108H807.372V55.6727H810.8V36.9544H813.669C817.198 36.9544 819.711 29.9652 819.711 19.7626C819.711 9.39928 817.198 2.65108 813.669 2.65108ZM813.669 12.211C815.268 12.211 816.207 15.3441 816.207 19.7626C816.207 24.3417 815.268 27.4748 813.669 27.4748H810.8V12.211H813.669Z" fill="#2CC8CC"/>
<path d="M831.229 55.6727H834.91L827.446 1.68705H826.304L818.814 55.6727H822.495L823.435 48.7638H830.29L831.229 55.6727ZM829.096 39.8465H824.628L826.862 21.9317L829.096 39.8465Z" fill="#2CC8CC"/>
<path d="M850.832 2.65108H847.405V45.8717H840.626V2.65108H837.199V55.6727H849.614V67H853.041V45.8717H850.832V2.65108Z" fill="#2CC8CC"/>
<path d="M859.048 2.65108H855.62V55.6727H859.048V2.65108Z" fill="#2CC8CC"/>
<path d="M872.888 26.9928C873.675 24.5827 874.132 21.3693 874.132 17.4329C874.132 8.67626 871.923 2.65108 868.826 2.65108H862.885V55.6727H870.349C873.599 55.6727 875.858 49.2458 875.858 40.0875C875.858 33.5803 874.716 29.0815 872.888 26.9928ZM868.546 11.97C869.968 11.97 870.73 14.2998 870.73 17.9952C870.73 21.6103 869.968 24.1007 868.546 24.1007H866.185V11.97H868.546ZM870.095 46.3537H866.185V33.018H870.095C871.593 33.018 872.481 35.5887 872.481 39.6858C872.481 43.8633 871.593 46.3537 870.095 46.3537Z" fill="#2CC8CC"/>
<path d="M892.922 2.65108H889.494V22.976H882.081V2.65108H878.653V55.6727H882.081V32.777H889.494V55.6727H892.922V2.65108Z" fill="#2CC8CC"/>
<path d="M910.132 1.68705L900.18 34.946V2.65108H896.752V56.6367H897.87L907.847 23.1367V55.6727H911.275V1.68705H910.132Z" fill="#2CC8CC"/>
<path d="M929.85 55.6727L922.589 27.6355L929.012 2.65108H924.925L918.527 27.2338V2.65108H915.1V55.6727H918.527V28.0372L925.712 55.6727H929.85Z" fill="#2CC8CC"/>
<path d="M935.535 2.65108H932.108V55.6727H935.535V2.65108Z" fill="#2CC8CC"/>
<path d="M949.375 26.9928C950.162 24.5827 950.619 21.3693 950.619 17.4329C950.619 8.67626 948.411 2.65108 945.313 2.65108H939.372V55.6727H946.836C950.086 55.6727 952.346 49.2458 952.346 40.0875C952.346 33.5803 951.203 29.0815 949.375 26.9928ZM945.034 11.97C946.456 11.97 947.217 14.2998 947.217 17.9952C947.217 21.6103 946.456 24.1007 945.034 24.1007H942.673V11.97H945.034ZM946.583 46.3537H942.673V33.018H946.583C948.081 33.018 948.969 35.5887 948.969 39.6858C948.969 43.8633 948.081 46.3537 946.583 46.3537Z" fill="#2CC8CC"/>
<path d="M956.664 41.6942C955.293 41.6942 954.278 44.988 954.278 49.1655C954.278 53.4233 955.293 56.6367 956.664 56.6367C958.01 56.6367 959 53.4233 959 49.1655C959 44.988 958.01 41.6942 956.664 41.6942Z" fill="#2CC8CC"/>
<path d="M223.052 118.366V82.2931H213.336V89.6015C213.336 105.828 212.223 113.672 210.208 118.366H209V136H212.199V126.546H221.938V136H225.137V118.366H223.052ZM216.393 90.4732H219.853V118.366H213.739C215.445 112.667 216.322 104.017 216.393 90.4732Z" fill="#2CC8CC"/>
<path d="M229.439 82.2931V90.4732C229.439 109.851 228.231 117.494 225.719 118.366V126.881C229.676 126.077 232.401 118.902 232.496 90.4732H236.406V126.546H239.605V82.2931H229.439Z" fill="#2CC8CC"/>
<path d="M249.204 82.2931C245.674 82.2931 243.162 88.3946 243.162 97.5805C243.162 103.213 244.133 107.772 245.697 110.387L241.977 126.546H245.555L248.73 112.868C248.896 112.935 249.038 112.935 249.204 112.935H251.527V126.546H254.726V82.2931H249.204ZM251.527 104.956H249.157C247.475 104.956 246.432 101.872 246.432 97.5805C246.432 93.3563 247.475 90.272 249.157 90.272H251.527V104.956Z" fill="#2CC8CC"/>
<path d="M274.298 102.609C275.032 100.598 275.459 97.9157 275.459 94.6303C275.459 87.3218 273.397 82.2931 270.506 82.2931H264.961V126.546H271.928C274.961 126.546 277.07 121.182 277.07 113.538C277.07 108.107 276.004 104.352 274.298 102.609ZM270.246 90.0709C271.573 90.0709 272.284 92.0153 272.284 95.0996C272.284 98.1169 271.573 100.195 270.246 100.195H268.042V90.0709H270.246ZM271.691 118.768H268.042V107.638H271.691C273.089 107.638 273.919 109.784 273.919 113.203C273.919 116.69 273.089 118.768 271.691 118.768Z" fill="#2CC8CC"/>
<path d="M292.167 81.4885L282.878 109.247V82.2931H279.679V127.351H280.722L290.034 99.3908V126.546H293.233V81.4885H292.167Z" fill="#2CC8CC"/>
<path d="M310.57 126.546L303.793 103.146L309.788 82.2931H305.973L300.002 102.81V82.2931H296.803V126.546H300.002V103.481L306.708 126.546H310.57Z" fill="#2CC8CC"/>
<path d="M318.89 81.4885C314.293 81.4885 310.597 91.4119 310.597 104.42C310.597 117.427 314.293 127.351 318.89 127.351C323.487 127.351 327.231 117.427 327.231 104.42C327.231 91.4119 323.487 81.4885 318.89 81.4885ZM318.914 89.8697C321.781 89.8697 323.938 95.9042 323.938 104.42C323.938 113.002 321.781 118.969 318.914 118.969C316 118.969 313.891 113.002 313.891 104.42C313.891 95.9042 316 89.8697 318.914 89.8697Z" fill="#2CC8CC"/>
<path d="M335.817 82.2931H329.94V126.546H333.139V110.923H335.817C339.111 110.923 341.457 105.09 341.457 96.5747C341.457 87.9253 339.111 82.2931 335.817 82.2931ZM335.817 90.272C337.31 90.272 338.187 92.887 338.187 96.5747C338.187 100.397 337.31 103.011 335.817 103.011H333.139V90.272H335.817Z" fill="#2CC8CC"/>
<path d="M356.498 81.4885L347.209 109.247V82.2931H344.01V127.351H345.053L354.365 99.3908V126.546H357.564V81.4885H356.498Z" fill="#2CC8CC"/>
<path d="M368.575 81.4885C363.906 81.4885 360.234 91.4119 360.234 104.42C360.234 117.427 363.906 127.351 368.551 127.351C371.584 127.351 374.119 123.126 375.47 116.354L373.053 111.527C372.01 116.22 370.541 118.969 368.575 118.969C365.66 118.969 363.527 113.002 363.527 104.487C363.527 95.9042 365.66 89.8697 368.575 89.8697C370.541 89.8697 372.01 92.6188 373.053 97.3123L375.47 92.4847C374.096 85.7126 371.584 81.4885 368.575 81.4885Z" fill="#2CC8CC"/>
<path d="M389.942 82.2931H376.719V90.4732H381.719V126.546H384.918V90.4732H389.942V82.2931Z" fill="#2CC8CC"/>
<path d="M400.363 126.546H403.798L396.832 81.4885H395.765L388.775 126.546H392.211L393.088 120.78H399.486L400.363 126.546ZM398.372 113.337H394.202L396.287 98.3851L398.372 113.337Z" fill="#2CC8CC"/>
<path d="M419.251 82.2931H416.052V99.2567H409.133V82.2931H405.934V126.546H409.133V107.437H416.052V126.546H419.251V82.2931Z" fill="#2CC8CC"/>
<path d="M436.144 82.2931H432.945V99.2567H426.026V82.2931H422.827V126.546H426.026V107.437H432.945V126.546H436.144V82.2931Z" fill="#2CC8CC"/>
<path d="M445.715 82.2931C442.184 82.2931 439.672 88.3946 439.672 97.5805C439.672 103.213 440.644 107.772 442.208 110.387L438.487 126.546H442.065L445.241 112.868C445.407 112.935 445.549 112.935 445.715 112.935H448.037V126.546H451.236V82.2931H445.715ZM448.037 104.956H445.667C443.985 104.956 442.942 101.872 442.942 97.5805C442.942 93.3563 443.985 90.272 445.667 90.272H448.037V104.956Z" fill="#2CC8CC"/>
<path d="M470.666 82.2931L467.467 105.023L463.865 82.2931H460.168L465.713 115.148C465.097 118.098 463.984 118.969 462.917 118.969C462.514 118.969 462.064 118.902 461.495 118.768V126.546C462.135 127.015 462.894 127.351 463.581 127.351C466.187 127.351 467.941 124.065 468.983 117.159L474.291 82.2931H470.666Z" fill="#2CC8CC"/>
<path d="M494.654 82.2931H481.882V126.546H485.081V90.4732H491.455V126.546H494.654V82.2931Z" fill="#2CC8CC"/>
<path d="M504.142 82.2931H498.265V126.546H501.464V110.923H504.142C507.436 110.923 509.782 105.09 509.782 96.5747C509.782 87.9253 507.436 82.2931 504.142 82.2931ZM504.142 90.272C505.635 90.272 506.512 92.887 506.512 96.5747C506.512 100.397 505.635 103.011 504.142 103.011H501.464V90.272H504.142Z" fill="#2CC8CC"/>
<path d="M519.728 81.4885C515.131 81.4885 511.434 91.4119 511.434 104.42C511.434 117.427 515.131 127.351 519.728 127.351C524.325 127.351 528.069 117.427 528.069 104.42C528.069 91.4119 524.325 81.4885 519.728 81.4885ZM519.752 89.8697C522.619 89.8697 524.775 95.9042 524.775 104.42C524.775 113.002 522.619 118.969 519.752 118.969C516.837 118.969 514.728 113.002 514.728 104.42C514.728 95.9042 516.837 89.8697 519.752 89.8697Z" fill="#2CC8CC"/>
<path d="M547.91 104.017C547.91 92.3506 544.83 85.5115 540.493 85.4444V80.0805H537.294V85.4444C532.982 85.5785 529.878 92.4176 529.878 104.017C529.878 115.684 532.982 122.791 537.294 122.925V128.692H540.493V122.925C544.83 122.791 547.91 115.751 547.91 104.017ZM533.029 104.285C533.029 97.3793 534.664 93.2222 537.294 93.1552V115.148C534.664 115.08 533.029 111.192 533.029 104.285ZM540.493 115.148V93.1552C543.124 93.1552 544.782 97.3123 544.782 104.285C544.782 111.259 543.124 115.148 540.493 115.148Z" fill="#2CC8CC"/>
<path d="M561.154 82.2931H550.633V126.546H561.438V118.366H553.832V107.169H559.211V99.4579H553.832V90.4732H561.154V82.2931Z" fill="#2CC8CC"/>
<path d="M571.194 81.4885C566.526 81.4885 562.853 91.4119 562.853 104.42C562.853 117.427 566.526 127.351 571.17 127.351C574.203 127.351 576.739 123.126 578.089 116.354L575.672 111.527C574.63 116.22 573.161 118.969 571.194 118.969C568.279 118.969 566.147 113.002 566.147 104.487C566.147 95.9042 568.279 89.8697 571.194 89.8697C573.161 89.8697 574.63 92.6188 575.672 97.3123L578.089 92.4847C576.715 85.7126 574.203 81.4885 571.194 81.4885Z" fill="#2CC8CC"/>
<path d="M584.007 82.2931H580.808V126.546H584.007V82.2931Z" fill="#2CC8CC"/>
<path d="M594.744 77.5996C597.138 77.5996 598.82 72.705 598.82 66H596.308C596.308 69.0172 595.669 70.8946 594.744 70.8946C593.82 70.8946 593.157 69.0172 593.157 66H590.645C590.645 72.705 592.327 77.5996 594.744 77.5996ZM600.076 81.4885L590.787 109.247V82.2931H587.588V127.351H588.631L597.943 99.3908V126.546H601.142V81.4885H600.076Z" fill="#2CC8CC"/>
<path d="M618.029 82.2931H614.831V99.2567H607.911V82.2931H604.712V126.546H607.911V107.437H614.831V126.546H618.029V82.2931Z" fill="#2CC8CC"/>
<path d="M624.804 82.2931H621.605V126.546H624.804V82.2931Z" fill="#2CC8CC"/>
<path d="M635.541 77.5996C637.935 77.5996 639.617 72.705 639.617 66H637.105C637.105 69.0172 636.466 70.8946 635.541 70.8946C634.617 70.8946 633.954 69.0172 633.954 66H631.442C631.442 72.705 633.124 77.5996 635.541 77.5996ZM640.873 81.4885L631.584 109.247V82.2931H628.385V127.351H629.428L638.74 99.3908V126.546H641.939V81.4885H640.873Z" fill="#2CC8CC"/>
<path d="M664.668 118.366V82.2931H654.952V89.6015C654.952 105.828 653.839 113.672 651.824 118.366H650.616V136H653.815V126.546H663.554V136H666.753V118.366H664.668ZM658.009 90.4732H661.469V118.366H655.355C657.061 112.667 657.938 104.017 658.009 90.4732Z" fill="#2CC8CC"/>
<path d="M672.335 82.2931H669.136V126.546H672.335V82.2931Z" fill="#2CC8CC"/>
<path d="M681.911 82.2931C678.38 82.2931 675.869 88.3946 675.869 97.5805C675.869 103.213 676.84 107.772 678.404 110.387L674.684 126.546H678.262L681.437 112.868C681.603 112.935 681.745 112.935 681.911 112.935H684.233V126.546H687.432V82.2931H681.911ZM684.233 104.956H681.864C680.181 104.956 679.139 101.872 679.139 97.5805C679.139 93.3563 680.181 90.272 681.864 90.272H684.233V104.956Z" fill="#2CC8CC"/>
<path d="M692.946 82.2931V90.4732C692.946 109.851 691.738 117.494 689.226 118.366V126.881C693.183 126.077 695.908 118.902 696.003 90.4732H699.913V126.546H703.112V82.2931H692.946Z" fill="#2CC8CC"/>
<path d="M709.915 82.2931H706.716V126.546H713.114C716.479 126.546 718.825 120.78 718.825 111.996C718.825 103.414 716.479 97.5134 713.114 97.5134H709.915V82.2931ZM713.114 105.425C714.678 105.425 715.555 108.174 715.555 112.063C715.555 115.885 714.678 118.567 713.114 118.567H709.915V105.425H713.114Z" fill="#2CC8CC"/>
<path d="M734.867 82.2931H731.668V99.2567H724.748V82.2931H721.549V126.546H724.748V107.437H731.668V126.546H734.867V82.2931Z" fill="#2CC8CC"/>
<path d="M745.835 81.4885C741.238 81.4885 737.542 91.4119 737.542 104.42C737.542 117.427 741.238 127.351 745.835 127.351C750.432 127.351 754.176 117.427 754.176 104.42C754.176 91.4119 750.432 81.4885 745.835 81.4885ZM745.859 89.8697C748.726 89.8697 750.882 95.9042 750.882 104.42C750.882 113.002 748.726 118.969 745.859 118.969C742.944 118.969 740.835 113.002 740.835 104.42C740.835 95.9042 742.944 89.8697 745.859 89.8697Z" fill="#2CC8CC"/>
<path d="M764.326 81.4885C759.658 81.4885 755.985 91.4119 755.985 104.42C755.985 117.427 759.658 127.351 764.302 127.351C767.335 127.351 769.871 123.126 771.221 116.354L768.804 111.527C767.762 116.22 766.292 118.969 764.326 118.969C761.411 118.969 759.278 113.002 759.278 104.487C759.278 95.9042 761.411 89.8697 764.326 89.8697C766.292 89.8697 767.762 92.6188 768.804 97.3123L771.221 92.4847C769.847 85.7126 767.335 81.4885 764.326 81.4885Z" fill="#2CC8CC"/>
<path d="M785.693 82.2931H772.471V90.4732H777.471V126.546H780.669V90.4732H785.693V82.2931Z" fill="#2CC8CC"/>
<path d="M791 82.2931H787.801V126.546H791V82.2931Z" fill="#2CC8CC"/>
</svg>
