<svg width="1170" height="107" viewBox="0 0 1170 107" preserveAspectRatio="none" fill="none" xmlns="http://www.w3.org/2000/svg">
<path d="M12.328 0C5.42853 0 0 14.9274 0 34.4945C0 54.0615 5.42853 68.9889 12.293 68.9889C16.7759 68.9889 20.5234 62.6347 22.5197 52.4477L18.9473 45.1857C17.4063 52.246 15.2349 56.3813 12.328 56.3813C8.02022 56.3813 4.86817 47.4047 4.86817 34.5953C4.86817 21.6851 8.02022 12.6076 12.328 12.6076C15.2349 12.6076 17.4063 16.7429 18.9473 23.8032L22.5197 16.5412C20.4883 6.35425 16.7759 0 12.328 0Z" fill="#22A1A6"/>
<path d="M41.4574 67.7786H46.5357L36.239 0H34.663L24.3313 67.7786H29.4096L30.7054 59.1045H40.1616L41.4574 67.7786ZM38.5155 47.909H32.3515L35.4335 25.417L38.5155 47.909Z" fill="#22A1A6"/>
<path d="M70.7761 0L61.0048 36.0074L51.2334 0H49.6924V67.7786H54.4205V32.2755L60.2343 53.2546H61.7753L67.5891 32.2755V67.7786H72.3171V0H70.7761Z" fill="#22A1A6"/>
<path d="M88.5625 0C81.7681 0 76.3045 14.9274 76.3045 34.4945C76.3045 54.0615 81.7681 68.9889 88.5625 68.9889C95.3569 68.9889 100.891 54.0615 100.891 34.4945C100.891 14.9274 95.3569 0 88.5625 0ZM88.5975 12.6076C92.8353 12.6076 96.0224 21.6851 96.0224 34.4945C96.0224 47.4047 92.8353 56.3813 88.5975 56.3813C84.2897 56.3813 81.1727 47.4047 81.1727 34.4945C81.1727 21.6851 84.2897 12.6076 88.5975 12.6076Z" fill="#22A1A6"/>
<path d="M107.731 1.21033V13.5154C107.731 42.6642 105.945 54.1624 102.233 55.4736V68.2829C108.081 67.0726 112.109 56.2804 112.249 13.5154H118.028V67.7786H122.756V1.21033H107.731Z" fill="#22A1A6"/>
<path d="M132.811 1.21033H128.083V67.7786H132.811V1.21033Z" fill="#22A1A6"/>
<path d="M158.453 67.7786L148.436 32.5781L157.297 1.21033H151.658L142.833 32.0738V1.21033H138.104V67.7786H142.833V33.0824L152.744 67.7786H158.453Z" fill="#22A1A6"/>
<path d="M175.156 1.21033L170.428 35.4022L165.104 1.21033H159.641L167.836 50.6322C166.925 55.0701 165.279 56.3813 163.703 56.3813C163.108 56.3813 162.443 56.2804 161.602 56.0787V67.7786C162.548 68.4846 163.668 68.9889 164.684 68.9889C168.537 68.9889 171.128 64.0467 172.669 53.6581L180.514 1.21033H175.156Z" fill="#22A1A6"/>
<path d="M197.46 31.7712C198.546 28.7454 199.177 24.7109 199.177 19.7688C199.177 8.77491 196.13 1.21033 191.857 1.21033H183.661V67.7786H193.958C198.441 67.7786 201.558 59.7097 201.558 48.2116C201.558 40.0418 199.982 34.3936 197.46 31.7712ZM191.472 12.9102C193.433 12.9102 194.483 15.8352 194.483 20.4748C194.483 25.0135 193.433 28.1402 191.472 28.1402H188.214V12.9102H191.472ZM193.608 56.0787H188.214V39.3358H193.608C195.674 39.3358 196.9 42.5633 196.9 47.7073C196.9 52.952 195.674 56.0787 193.608 56.0787Z" fill="#22A1A6"/>
<path d="M219.992 67.7786H225.07L214.773 0H213.197L202.865 67.7786H207.944L209.24 59.1045H218.696L219.992 67.7786ZM217.05 47.909H210.886L213.968 25.417L217.05 47.909Z" fill="#22A1A6"/>
<path d="M247.909 1.21033H243.181V26.7282H232.955V1.21033H228.227V67.7786H232.955V39.0332H243.181V67.7786H247.909V1.21033Z" fill="#22A1A6"/>
<path d="M272.877 1.21033H268.149V26.7282H257.922V1.21033H253.194V67.7786H257.922V39.0332H268.149V67.7786H272.877V1.21033Z" fill="#22A1A6"/>
<path d="M287.022 1.21033C281.804 1.21033 278.091 10.3887 278.091 24.2066C278.091 32.679 279.527 39.5375 281.839 43.4711L276.34 67.7786H281.629L286.322 47.2029C286.567 47.3038 286.777 47.3038 287.022 47.3038H290.454V67.7786H295.183V1.21033H287.022ZM290.454 35.3014H286.952C284.466 35.3014 282.925 30.6617 282.925 24.2066C282.925 17.8524 284.466 13.2128 286.952 13.2128H290.454V35.3014Z" fill="#22A1A6"/>
<path d="M331.395 0L321.624 36.0074L311.852 0H310.311V67.7786H315.039V32.2755L320.853 53.2546H322.394L328.208 32.2755V67.7786H332.936V0H331.395Z" fill="#22A1A6"/>
<path d="M349.181 0C342.387 0 336.923 14.9274 336.923 34.4945C336.923 54.0615 342.387 68.9889 349.181 68.9889C355.976 68.9889 361.509 54.0615 361.509 34.4945C361.509 14.9274 355.976 0 349.181 0ZM349.216 12.6076C353.454 12.6076 356.641 21.6851 356.641 34.4945C356.641 47.4047 353.454 56.3813 349.216 56.3813C344.909 56.3813 341.792 47.4047 341.792 34.4945C341.792 21.6851 344.909 12.6076 349.216 12.6076Z" fill="#22A1A6"/>
<path d="M396.507 67.7786L386.736 32.5781L395.351 1.21033H389.713L381.587 32.0738V1.21033H376.859V32.1747L368.699 1.21033H363.06L371.676 32.5781L361.904 67.7786H367.613L376.859 32.9815V67.7786H381.587V33.0824L390.798 67.7786H396.507Z" fill="#22A1A6"/>
<path d="M415.197 1.21033H399.647V67.7786H415.617V55.4736H404.375V38.6298H412.325V27.0308H404.375V13.5154H415.197V1.21033Z" fill="#22A1A6"/>
<path d="M444.739 1.21033H429.539V67.7786H439.836C444.319 67.7786 447.436 59.7097 447.436 47.7073C447.436 35.8057 444.319 28.1402 439.836 28.1402H434.267V13.5154H444.739V1.21033ZM439.486 39.3358C441.552 39.3358 442.778 42.5633 442.778 47.7073C442.778 52.952 441.552 56.0787 439.486 56.0787H434.267V39.3358H439.486Z" fill="#22A1A6"/>
<path d="M464.367 1.21033L459.639 35.4022L454.316 1.21033H448.852L457.048 50.6322C456.137 55.0701 454.491 56.3813 452.915 56.3813C452.32 56.3813 451.654 56.2804 450.814 56.0787V67.7786C451.759 68.4846 452.88 68.9889 453.896 68.9889C457.748 68.9889 460.34 64.0467 461.881 53.6581L469.726 1.21033H464.367Z" fill="#22A1A6"/>
<path d="M490.244 1.21033H470.702V13.5154H478.092V67.7786H482.82V13.5154H490.244V1.21033Z" fill="#22A1A6"/>
<path d="M511.817 0L498.088 41.7565V1.21033H493.36V68.9889H494.901L508.665 26.9299V67.7786H513.393V0H511.817Z" fill="#22A1A6"/>
<path d="M559.516 1.21033H554.788V55.4736H546.382V1.21033H541.654V55.4736H533.214V1.21033H528.485V67.7786H559.516V1.21033Z" fill="#22A1A6"/>
<path d="M585.19 67.7786L575.174 32.5781L584.035 1.21033H578.396L569.57 32.0738V1.21033H564.842V67.7786H569.57V33.0824L579.482 67.7786H585.19Z" fill="#22A1A6"/>
<path d="M593.033 1.21033H588.305V67.7786H593.033V1.21033Z" fill="#22A1A6"/>
<path d="M617.168 55.4736V1.21033H602.809V12.2042C602.809 36.6125 601.163 48.4133 598.186 55.4736H596.4V82H601.128V67.7786H615.522V82H620.25V55.4736H617.168ZM607.327 13.5154H612.44V55.4736H603.404C605.926 46.9004 607.222 33.8893 607.327 13.5154Z" fill="#22A1A6"/>
<path d="M626.609 1.21033V13.5154C626.609 42.6642 624.823 54.1624 621.11 55.4736V68.2829C626.959 67.0726 630.987 56.2804 631.127 13.5154H636.906V67.7786H641.634V1.21033H626.609Z" fill="#22A1A6"/>
<path d="M665.418 0L651.689 41.7565V1.21033H646.961V68.9889H648.502L662.266 26.9299V67.7786H666.994V0H665.418Z" fill="#22A1A6"/>
<path d="M686.069 31.7712C687.155 28.7454 687.786 24.7109 687.786 19.7688C687.786 8.77491 684.739 1.21033 680.466 1.21033H672.27V67.7786H682.567C687.05 67.7786 690.167 59.7097 690.167 48.2116C690.167 40.0418 688.591 34.3936 686.069 31.7712ZM680.081 12.9102C682.042 12.9102 683.092 15.8352 683.092 20.4748C683.092 25.0135 682.042 28.1402 680.081 28.1402H676.823V12.9102H680.081ZM682.217 56.0787H676.823V39.3358H682.217C684.283 39.3358 685.509 42.5633 685.509 47.7073C685.509 52.952 684.283 56.0787 682.217 56.0787Z" fill="#22A1A6"/>
<path d="M712.48 0L698.751 41.7565V1.21033H694.023V68.9889H695.564L709.328 26.9299V67.7786H714.056V0H712.48Z" fill="#22A1A6"/>
<path d="M740.416 0L730.645 36.0074L720.873 0H719.332V67.7786H724.06V32.2755L729.874 53.2546H731.415L737.229 32.2755V67.7786H741.957V0H740.416Z" fill="#22A1A6"/>
<path d="M775.591 55.4736V1.21033H761.232V12.2042C761.232 36.6125 759.586 48.4133 756.609 55.4736H754.823V82H759.551V67.7786H773.945V82H778.674V55.4736H775.591ZM765.75 13.5154H770.863V55.4736H761.828C764.349 46.9004 765.645 33.8893 765.75 13.5154Z" fill="#22A1A6"/>
<path d="M785.032 1.21033V13.5154C785.032 42.6642 783.246 54.1624 779.534 55.4736V68.2829C785.383 67.0726 789.41 56.2804 789.55 13.5154H795.329V67.7786H800.057V1.21033H785.032Z" fill="#22A1A6"/>
<path d="M814.245 1.21033C809.027 1.21033 805.314 10.3887 805.314 24.2066C805.314 32.679 806.75 39.5375 809.062 43.4711L803.563 67.7786H808.852L813.545 47.2029C813.79 47.3038 814 47.3038 814.245 47.3038H817.677V67.7786H822.405V1.21033H814.245ZM817.677 35.3014H814.175C811.689 35.3014 810.148 30.6617 810.148 24.2066C810.148 17.8524 811.689 13.2128 814.175 13.2128H817.677V35.3014Z" fill="#22A1A6"/>
<path d="M851.333 31.7712C852.419 28.7454 853.049 24.7109 853.049 19.7688C853.049 8.77491 850.002 1.21033 845.73 1.21033H837.534V67.7786H847.831C852.314 67.7786 855.431 59.7097 855.431 48.2116C855.431 40.0418 853.855 34.3936 851.333 31.7712ZM845.344 12.9102C847.306 12.9102 848.356 15.8352 848.356 20.4748C848.356 25.0135 847.306 28.1402 845.344 28.1402H842.087V12.9102H845.344ZM847.481 56.0787H842.087V39.3358H847.481C849.547 39.3358 850.773 42.5633 850.773 47.7073C850.773 52.952 849.547 56.0787 847.481 56.0787Z" fill="#22A1A6"/>
<path d="M873.864 67.7786H878.943L868.646 0H867.07L856.738 67.7786H861.817L863.112 59.1045H872.569L873.864 67.7786ZM870.922 47.909H864.758L867.84 25.417L870.922 47.909Z" fill="#22A1A6"/>
<path d="M913.13 1.21033H908.401V55.4736H899.996V1.21033H895.268V55.4736H886.827V1.21033H882.099V67.7786H913.13V1.21033Z" fill="#22A1A6"/>
<path d="M929.383 0C922.589 0 917.125 14.9274 917.125 34.4945C917.125 54.0615 922.589 68.9889 929.383 68.9889C936.178 68.9889 941.711 54.0615 941.711 34.4945C941.711 14.9274 936.178 0 929.383 0ZM929.418 12.6076C933.656 12.6076 936.843 21.6851 936.843 34.4945C936.843 47.4047 933.656 56.3813 929.418 56.3813C925.11 56.3813 921.993 47.4047 921.993 34.4945C921.993 21.6851 925.11 12.6076 929.418 12.6076Z" fill="#22A1A6"/>
<path d="M960.6 1.21033H945.715V67.7786H950.443V13.5154H960.6V1.21033Z" fill="#22A1A6"/>
<path d="M974.393 0C967.599 0 962.135 14.9274 962.135 34.4945C962.135 54.0615 967.599 68.9889 974.393 68.9889C981.187 68.9889 986.721 54.0615 986.721 34.4945C986.721 14.9274 981.187 0 974.393 0ZM974.428 12.6076C978.666 12.6076 981.853 21.6851 981.853 34.4945C981.853 47.4047 978.666 56.3813 974.428 56.3813C970.12 56.3813 967.003 47.4047 967.003 34.4945C967.003 21.6851 970.12 12.6076 974.428 12.6076Z" fill="#22A1A6"/>
<path d="M1013.78 32.5781C1015.11 29.4514 1015.88 25.0135 1015.88 19.6679C1015.88 8.27061 1012.38 0 1007.97 0C1004.25 0 1001.17 5.84994 999.63 14.524L1002.92 21.2817C1004.22 15.8352 1005.9 12.6076 1007.93 12.6076C1009.89 12.6076 1011.19 15.8352 1011.19 20.4748C1011.19 24.8118 1010.14 28.1402 1008.21 28.1402H1004.64V39.3358H1009.19C1011.26 39.3358 1012.45 42.8659 1012.45 47.4047C1012.45 53.1538 1010.59 56.3813 1008.32 56.3813C1005.97 56.3813 1004.04 53.2546 1002.54 46.6986L999.21 53.5572C1000.89 62.8364 1004.15 68.9889 1008.35 68.9889C1013.25 68.9889 1017.14 60.6175 1017.14 48.1107C1017.14 40.9496 1015.88 35.6039 1013.78 32.5781Z" fill="#22A1A6"/>
<path d="M1039.97 55.4736V1.21033H1025.61V12.2042C1025.61 36.6125 1023.97 48.4133 1020.99 55.4736H1019.2V82H1023.93V67.7786H1038.33V82H1043.05V55.4736H1039.97ZM1030.13 13.5154H1035.24V55.4736H1026.21C1028.73 46.9004 1030.03 33.8893 1030.13 13.5154Z" fill="#22A1A6"/>
<path d="M1056.99 0C1050.2 0 1044.73 14.9274 1044.73 34.4945C1044.73 54.0615 1050.2 68.9889 1056.99 68.9889C1063.79 68.9889 1069.32 54.0615 1069.32 34.4945C1069.32 14.9274 1063.79 0 1056.99 0ZM1057.03 12.6076C1061.26 12.6076 1064.45 21.6851 1064.45 34.4945C1064.45 47.4047 1061.26 56.3813 1057.03 56.3813C1052.72 56.3813 1049.6 47.4047 1049.6 34.4945C1049.6 21.6851 1052.72 12.6076 1057.03 12.6076Z" fill="#22A1A6"/>
<path d="M1082.01 1.21033H1073.32V67.7786H1078.05V44.278H1082.01C1086.88 44.278 1090.34 35.5031 1090.34 22.6937C1090.34 9.68266 1086.88 1.21033 1082.01 1.21033ZM1082.01 13.2128C1084.21 13.2128 1085.51 17.1464 1085.51 22.6937C1085.51 28.4428 1084.21 32.3764 1082.01 32.3764H1078.05V13.2128H1082.01Z" fill="#22A1A6"/>
<path d="M1105.04 0C1098.25 0 1092.79 14.9274 1092.79 34.4945C1092.79 54.0615 1098.25 68.9889 1105.04 68.9889C1111.84 68.9889 1117.37 54.0615 1117.37 34.4945C1117.37 14.9274 1111.84 0 1105.04 0ZM1105.08 12.6076C1109.32 12.6076 1112.5 21.6851 1112.5 34.4945C1112.5 47.4047 1109.32 56.3813 1105.08 56.3813C1100.77 56.3813 1097.65 47.4047 1097.65 34.4945C1097.65 21.6851 1100.77 12.6076 1105.08 12.6076Z" fill="#22A1A6"/>
<path d="M1135.18 31.7712C1136.26 28.7454 1136.89 24.7109 1136.89 19.7688C1136.89 8.77491 1133.84 1.21033 1129.57 1.21033H1121.38V67.7786H1131.67C1136.16 67.7786 1139.27 59.7097 1139.27 48.2116C1139.27 40.0418 1137.7 34.3936 1135.18 31.7712ZM1129.19 12.9102C1131.15 12.9102 1132.2 15.8352 1132.2 20.4748C1132.2 25.0135 1131.15 28.1402 1129.19 28.1402H1125.93V12.9102H1129.19ZM1131.32 56.0787H1125.93V39.3358H1131.32C1133.39 39.3358 1134.61 42.5633 1134.61 47.7073C1134.61 52.952 1133.39 56.0787 1131.32 56.0787Z" fill="#22A1A6"/>
<path d="M1148.94 1.21033H1143.55L1143.37 29.2497H1146.98L1148.94 1.21033Z" fill="#22A1A6"/>
<path d="M1161.84 1.21033C1156.62 1.21033 1152.91 10.3887 1152.91 24.2066C1152.91 32.679 1154.34 39.5375 1156.66 43.4711L1151.16 67.7786H1156.45L1161.14 47.2029C1161.38 47.3038 1161.59 47.3038 1161.84 47.3038H1165.27V67.7786H1170V1.21033H1161.84ZM1165.27 35.3014H1161.77C1159.28 35.3014 1157.74 30.6617 1157.74 24.2066C1157.74 17.8524 1159.28 13.2128 1161.77 13.2128H1165.27V35.3014Z" fill="#22A1A6"/>
<path d="M3.93461 93.818H0V104.68H1.32284V100.137H3.93461C6.13934 100.137 7.51306 98.8045 7.51306 96.9613C7.51306 95.1346 6.13934 93.818 3.93461 93.818ZM3.90069 94.97C5.37616 94.97 6.13934 95.8258 6.13934 96.9777C6.13934 98.1462 5.37616 98.9855 3.90069 98.9855H1.32284V94.97H3.90069Z" fill="black"/>
<path d="M16.8958 93.818H9.7219V104.68H17.0993V103.528H11.0447V99.4463H15.5221V98.2943H11.0447V94.97H16.8958V93.818Z" fill="black"/>
<path d="M19.3279 104.68H20.6507V93.818H19.3279V104.68ZM22.5332 98.8538L27.5363 93.818H25.8403L20.8034 98.8538L26.3152 104.68H27.9942L22.5332 98.8538Z" fill="black"/>
<path d="M31.5355 93.818V95.3814C31.5355 100.516 30.5519 102.968 28.5167 103.528V104.729C31.1116 104.235 32.8245 101.915 32.8584 94.97H36.6404V104.663H37.9632V93.818H31.5355Z" fill="black"/>
<path d="M48.8247 104.68H50.2323L45.3819 93.637H44.8901L40.0397 104.68H41.4304L42.3801 102.474H47.875L48.8247 104.68ZM47.3662 101.322H42.8889L45.1275 95.9739L47.3662 101.322Z" fill="black"/>
<path d="M62.1394 93.637L57.4416 99.9071L52.7777 93.637H52.3029V104.68H53.6257V96.8625L57.2211 101.602H57.696L61.2744 96.8955V104.68H62.5973V93.637H62.1394Z" fill="black"/>
<path d="M73.4524 104.68H74.8601L70.0096 93.637H69.5178L64.6674 104.68H66.0581L67.0078 102.474H72.5027L73.4524 104.68ZM71.9939 101.322H67.5166L69.7552 95.9739L71.9939 101.322Z" fill="black"/>
<path d="M81.9834 93.818V95.3814C81.9834 100.516 80.9998 102.968 78.9647 103.528V104.729C81.5595 104.235 83.2724 101.915 83.3063 94.97H87.0883V104.663H88.4111V93.818H81.9834Z" fill="black"/>
<path d="M92.828 93.818H91.5051V104.68H92.828V93.818Z" fill="black"/>
<path d="M95.8941 104.68H97.2169V93.818H95.8941V104.68ZM99.0994 98.8538L104.102 93.818H102.407L97.3696 98.8538L102.881 104.68H104.56L99.0994 98.8538Z" fill="black"/>
<path d="M114.394 104.68H115.801L110.951 93.637H110.459L105.609 104.68H106.999L107.949 102.474H113.444L114.394 104.68ZM112.935 101.322H108.458L110.697 95.9739L112.935 101.322Z" fill="black"/>
<path d="M121.806 93.818H117.872V104.68H119.195V100.137H121.806C124.011 100.137 125.385 98.8045 125.385 96.9613C125.385 95.1346 124.011 93.818 121.806 93.818ZM121.773 94.97C123.248 94.97 124.011 95.8258 124.011 96.9777C124.011 98.1462 123.248 98.9855 121.773 98.9855H119.195V94.97H121.773Z" fill="black"/>
<path d="M132.682 93.637C129.442 93.637 126.865 96.0726 126.865 99.2488C126.865 102.425 129.442 104.861 132.682 104.861C134.717 104.861 136.43 103.906 137.329 102.524L136.345 101.767C135.514 102.952 134.259 103.676 132.699 103.676C130.172 103.676 128.238 101.783 128.238 99.2488C128.238 96.7144 130.172 94.8219 132.699 94.8219C134.259 94.8219 135.514 95.546 136.345 96.7309L137.329 95.9739C136.396 94.5915 134.717 93.637 132.682 93.637Z" fill="black"/>
<path d="M141.04 93.818H139.717V104.68H144.144C146.467 104.68 147.875 103.297 147.875 101.388C147.875 99.4792 146.467 98.0968 144.144 98.0968H141.04V93.818ZM144.127 99.2488C145.687 99.2488 146.518 100.17 146.518 101.405C146.518 102.606 145.687 103.528 144.127 103.528H141.04V99.2488H144.127Z" fill="black"/>
<path d="M150.284 104.68H151.607V93.818H150.284V104.68ZM153.489 98.8538L158.492 93.818H156.796L151.759 98.8538L157.271 104.68H158.95L153.489 98.8538Z" fill="black"/>
<path d="M165.242 93.637C162.02 93.637 159.442 96.0726 159.442 99.2488C159.442 102.409 162.003 104.861 165.242 104.861C168.448 104.861 171.059 102.425 171.059 99.2488C171.059 96.0726 168.448 93.637 165.242 93.637ZM165.259 94.8219C167.786 94.8219 169.686 96.7309 169.686 99.2323C169.686 101.767 167.786 103.676 165.259 103.676C162.698 103.676 160.816 101.767 160.816 99.2323C160.816 96.7144 162.698 94.8219 165.259 94.8219Z" fill="black"/>
<path d="M180.086 93.818H173.421V104.68H174.744V94.97H180.086V93.818Z" fill="black"/>
<path d="M186.673 93.637C183.451 93.637 180.873 96.0726 180.873 99.2488C180.873 102.409 183.434 104.861 186.673 104.861C189.879 104.861 192.491 102.425 192.491 99.2488C192.491 96.0726 189.879 93.637 186.673 93.637ZM186.69 94.8219C189.217 94.8219 191.117 96.7309 191.117 99.2323C191.117 101.767 189.217 103.676 186.69 103.676C184.13 103.676 182.247 101.767 182.247 99.2323C182.247 96.7144 184.13 94.8219 186.69 94.8219Z" fill="black"/>
<path d="M205.185 98.7715C205.914 98.2614 206.338 97.4714 206.338 96.5499C206.338 94.9042 204.965 93.637 202.93 93.637C201.301 93.637 199.979 94.4434 199.249 95.6118L200.199 96.303C200.827 95.4308 201.759 94.8219 202.93 94.8219C204.235 94.8219 204.965 95.5954 204.965 96.6157C204.965 97.6031 204.337 98.3437 203.031 98.3437H201.149V99.5121H203.455C204.965 99.5121 205.762 100.45 205.762 101.487C205.762 102.771 204.592 103.676 203.099 103.676C201.691 103.676 200.589 102.902 199.843 101.783L198.876 102.474C199.724 103.89 201.217 104.861 203.116 104.861C205.389 104.861 207.119 103.478 207.119 101.52C207.119 100.269 206.423 99.2323 205.185 98.7715Z" fill="black"/>
<path d="M217.078 104.68H218.486L213.635 93.637H213.144L208.293 104.68H209.684L210.634 102.474H216.129L217.078 104.68ZM215.62 101.322H211.142L213.381 95.9739L215.62 101.322Z" fill="black"/>
<path d="M225.346 93.637C222.107 93.637 219.529 96.0726 219.529 99.2488C219.529 102.425 222.107 104.861 225.346 104.861C227.381 104.861 229.094 103.906 229.993 102.524L229.009 101.767C228.178 102.952 226.923 103.676 225.363 103.676C222.836 103.676 220.903 101.783 220.903 99.2488C220.903 96.7144 222.836 94.8219 225.363 94.8219C226.923 94.8219 228.178 95.546 229.009 96.7309L229.993 95.9739C229.06 94.5915 227.381 93.637 225.346 93.637Z" fill="black"/>
<path d="M237.37 93.637C234.147 93.637 231.57 96.0726 231.57 99.2488C231.57 102.409 234.131 104.861 237.37 104.861C240.575 104.861 243.187 102.425 243.187 99.2488C243.187 96.0726 240.575 93.637 237.37 93.637ZM237.387 94.8219C239.914 94.8219 241.813 96.7309 241.813 99.2323C241.813 101.767 239.914 103.676 237.387 103.676C234.826 103.676 232.943 101.767 232.943 99.2323C232.943 96.7144 234.826 94.8219 237.387 94.8219Z" fill="black"/>
<path d="M252.553 93.818H245.548V104.68H250.161C252.383 104.68 253.706 103.347 253.706 101.52C253.706 99.6767 252.383 98.3437 250.161 98.3437H246.871V94.97H252.553V93.818ZM250.026 99.5121C251.535 99.5121 252.349 100.351 252.349 101.52C252.349 102.705 251.535 103.528 250.026 103.528H246.871V99.5121H250.026Z" fill="black"/>
<path d="M262.551 93.818L259.584 100.763L256.429 93.818H254.937L258.888 102.178L258.837 102.277C258.396 103.248 257.565 103.676 256.616 103.676C256.293 103.676 255.937 103.626 255.53 103.577V104.696C255.937 104.795 256.412 104.861 256.836 104.861C258.329 104.861 259.431 104.169 260.058 102.721L264.044 93.818H262.551Z" fill="black"/>
<path d="M265.209 102.787C264.632 102.787 264.14 103.215 264.14 103.824C264.14 104.433 264.632 104.861 265.209 104.861C265.785 104.861 266.277 104.433 266.277 103.824C266.277 103.215 265.785 102.787 265.209 102.787Z" fill="black"/>
<path d="M282.266 93.818H273.787V104.68H275.11V94.97H280.944V104.68H282.266V93.818Z" fill="black"/>
<path d="M292.521 93.818H285.347V104.68H292.724V103.528H286.67V99.4463H291.147V98.2943H286.67V94.97H292.521V93.818Z" fill="black"/>
<path d="M298.888 93.818H294.953V104.68H296.276V100.137H298.888C301.092 100.137 302.466 98.8045 302.466 96.9613C302.466 95.1346 301.092 93.818 298.888 93.818ZM298.854 94.97C300.329 94.97 301.092 95.8258 301.092 96.9777C301.092 98.1462 300.329 98.9855 298.854 98.9855H296.276V94.97H298.854Z" fill="black"/>
<path d="M311.849 93.818H304.675V104.68H312.052V103.528H305.998V99.4463H310.475V98.2943H305.998V94.97H311.849V93.818Z" fill="black"/>
<path d="M322.54 103.528V93.818H316.435V95.1181C316.435 100.022 315.4 102.293 313.993 103.528H313.128V107H314.45V104.68H322.557V107H323.88V103.528H322.54ZM317.707 94.97H321.217V103.528H315.536C316.927 102.046 317.673 99.545 317.707 94.97Z" fill="black"/>
<path d="M336.34 98.7715C337.069 98.2614 337.493 97.4714 337.493 96.5499C337.493 94.9042 336.119 93.637 334.084 93.637C332.456 93.637 331.133 94.4434 330.404 95.6118L331.354 96.303C331.981 95.4308 332.914 94.8219 334.084 94.8219C335.39 94.8219 336.119 95.5954 336.119 96.6157C336.119 97.6031 335.492 98.3437 334.186 98.3437H332.303V99.5121H334.61C336.119 99.5121 336.916 100.45 336.916 101.487C336.916 102.771 335.746 103.676 334.254 103.676C332.846 103.676 331.744 102.902 330.997 101.783L330.031 102.474C330.879 103.89 332.371 104.861 334.271 104.861C336.543 104.861 338.273 103.478 338.273 101.52C338.273 100.269 337.578 99.2323 336.34 98.7715Z" fill="black"/>
<path d="M348.233 104.68H349.641L344.79 93.637H344.298L339.448 104.68H340.839L341.788 102.474H347.283L348.233 104.68ZM346.774 101.322H342.297L344.536 95.9739L346.774 101.322Z" fill="black"/>
<path d="M356.501 93.637C353.262 93.637 350.684 96.0726 350.684 99.2488C350.684 102.425 353.262 104.861 356.501 104.861C358.536 104.861 360.249 103.906 361.148 102.524L360.164 101.767C359.333 102.952 358.078 103.676 356.518 103.676C353.991 103.676 352.057 101.783 352.057 99.2488C352.057 96.7144 353.991 94.8219 356.518 94.8219C358.078 94.8219 359.333 95.546 360.164 96.7309L361.148 95.9739C360.215 94.5915 358.536 93.637 356.501 93.637Z" fill="black"/>
<path d="M371.524 93.818H362.315V94.97H366.25V104.68H367.573V94.97H371.524V93.818Z" fill="black"/>
<path d="M378.064 93.637C374.842 93.637 372.264 96.0726 372.264 99.2488C372.264 102.409 374.825 104.861 378.064 104.861C381.269 104.861 383.881 102.425 383.881 99.2488C383.881 96.0726 381.269 93.637 378.064 93.637ZM378.081 94.8219C380.608 94.8219 382.508 96.7309 382.508 99.2323C382.508 101.767 380.608 103.676 378.081 103.676C375.52 103.676 373.638 101.767 373.638 99.2323C373.638 96.7144 375.52 94.8219 378.081 94.8219Z" fill="black"/>
<path d="M391.331 93.637C388.091 93.637 385.514 96.0726 385.514 99.2488C385.514 102.425 388.091 104.861 391.331 104.861C393.366 104.861 395.079 103.906 395.978 102.524L394.994 101.767C394.163 102.952 392.908 103.676 391.348 103.676C388.821 103.676 386.887 101.783 386.887 99.2488C386.887 96.7144 388.821 94.8219 391.348 94.8219C392.908 94.8219 394.163 95.546 394.994 96.7309L395.978 95.9739C395.045 94.5915 393.366 93.637 391.331 93.637Z" fill="black"/>
<path d="M405.001 93.818L402.033 100.763L398.879 93.818H397.387L401.338 102.178L401.287 102.277C400.846 103.248 400.015 103.676 399.066 103.676C398.743 103.676 398.387 103.626 397.98 103.577V104.696C398.387 104.795 398.862 104.861 399.286 104.861C400.778 104.861 401.881 104.169 402.508 102.721L406.494 93.818H405.001Z" fill="black"/>
<path d="M414.522 98.7057C415.2 98.212 415.59 97.4714 415.59 96.5663C415.59 94.9864 414.386 93.818 412.402 93.818H408.552V104.68H413.165C415.387 104.68 416.709 103.347 416.709 101.553C416.709 100.154 415.912 99.1007 414.522 98.7057ZM412.266 94.97C413.572 94.97 414.233 95.6447 414.233 96.6486C414.233 97.6525 413.572 98.3437 412.266 98.3437H409.875V94.97H412.266ZM413.029 103.528H409.875V99.5121H413.029C414.539 99.5121 415.353 100.351 415.353 101.52C415.353 102.705 414.539 103.528 413.029 103.528Z" fill="black"/>
<path d="M426.604 104.68H428.012L423.162 93.637H422.67L417.819 104.68H419.21L420.16 102.474H425.655L426.604 104.68ZM425.146 101.322H420.669L422.907 95.9739L425.146 101.322Z" fill="black"/>
<path d="M439.003 93.818H437.68V98.2943H431.405V93.818H430.082V104.68H431.405V99.4463H437.68V104.68H439.003V93.818Z" fill="black"/>
<path d="M451.011 93.818H449.688V98.2943H443.413V93.818H442.09V104.68H443.413V99.4463H449.688V104.68H451.011V93.818Z" fill="black"/>
<path d="M457.761 93.818C455.403 93.818 453.928 95.2333 453.928 97.1917C453.928 98.6399 454.725 99.7754 456.065 100.286L453.046 104.68H454.555L457.405 100.549C457.523 100.565 457.642 100.565 457.761 100.565H460.186V104.68H461.509V93.818H457.761ZM460.186 99.4134H457.761C456.183 99.4134 455.302 98.4589 455.302 97.1917C455.302 95.9409 456.183 94.97 457.761 94.97H460.186V99.4134Z" fill="black"/>
<path d="M474.418 93.637L469.72 99.9071L465.056 93.637H464.581V104.68H465.904V96.8625L469.499 101.602H469.974L473.553 96.8955V104.68H474.876V93.637H474.418Z" fill="black"/>
<path d="M491.637 93.818H490.314V98.2943H484.039V93.818H482.717V104.68H484.039V99.4463H490.314V104.68H491.637V93.818Z" fill="black"/>
<path d="M501.898 93.818H494.724V104.68H502.101V103.528H496.047V99.4463H500.524V98.2943H496.047V94.97H501.898V93.818Z" fill="black"/>
<path d="M509.07 93.637C505.847 93.637 503.27 96.0726 503.27 99.2488C503.27 102.409 505.83 104.861 509.07 104.861C512.275 104.861 514.887 102.425 514.887 99.2488C514.887 96.0726 512.275 93.637 509.07 93.637ZM509.087 94.8219C511.614 94.8219 513.513 96.7309 513.513 99.2323C513.513 101.767 511.614 103.676 509.087 103.676C506.526 103.676 504.643 101.767 504.643 99.2323C504.643 96.7144 506.526 94.8219 509.087 94.8219Z" fill="black"/>
<path d="M524.253 93.818H517.248V104.68H521.861C524.083 104.68 525.406 103.347 525.406 101.52C525.406 99.6767 524.083 98.3437 521.861 98.3437H518.571V94.97H524.253V93.818ZM521.726 99.5121C523.235 99.5121 524.049 100.351 524.049 101.52C524.049 102.705 523.235 103.528 521.726 103.528H518.571V99.5121H521.726Z" fill="black"/>
<path d="M535.474 104.68L531.675 99.1336L535.203 93.818H533.677L530.912 98.0474L528.131 93.818H526.605L530.183 99.1171L526.333 104.68H527.877L530.912 100.22L533.931 104.68H535.474Z" fill="black"/>
<path d="M538.843 93.818H537.52V104.68H538.843V93.818Z" fill="black"/>
<path d="M550.169 103.528V93.818H544.063V95.1181C544.063 100.022 543.029 102.293 541.621 103.528H540.756V107H542.079V104.68H550.185V107H551.508V103.528H550.169ZM545.335 94.97H548.846V103.528H543.164C544.555 102.046 545.301 99.545 545.335 94.97Z" fill="black"/>
<path d="M562.556 93.818H561.233V98.2943H554.958V93.818H553.635V104.68H554.958V99.4463H561.233V104.68H562.556V93.818Z" fill="black"/>
<path d="M570.714 93.637C567.491 93.637 564.913 96.0726 564.913 99.2488C564.913 102.409 567.474 104.861 570.714 104.861C573.919 104.861 576.531 102.425 576.531 99.2488C576.531 96.0726 573.919 93.637 570.714 93.637ZM570.73 94.8219C573.257 94.8219 575.157 96.7309 575.157 99.2323C575.157 101.767 573.257 103.676 570.73 103.676C568.17 103.676 566.287 101.767 566.287 99.2323C566.287 96.7144 568.17 94.8219 570.73 94.8219Z" fill="black"/>
<path d="M588.716 93.637C585.494 93.637 582.916 96.0726 582.916 99.2488C582.916 102.409 585.477 104.861 588.716 104.861C591.922 104.861 594.534 102.425 594.534 99.2488C594.534 96.0726 591.922 93.637 588.716 93.637ZM588.733 94.8219C591.26 94.8219 593.16 96.7309 593.16 99.2323C593.16 101.767 591.26 103.676 588.733 103.676C586.172 103.676 584.29 101.767 584.29 99.2323C584.29 96.7144 586.172 94.8219 588.733 94.8219Z" fill="black"/>
<path d="M602.392 98.7715C603.121 98.2614 603.545 97.4714 603.545 96.5499C603.545 94.9042 602.172 93.637 600.136 93.637C598.508 93.637 597.185 94.4434 596.456 95.6118L597.406 96.303C598.033 95.4308 598.966 94.8219 600.136 94.8219C601.442 94.8219 602.172 95.5954 602.172 96.6157C602.172 97.6031 601.544 98.3437 600.238 98.3437H598.356V99.5121H600.662C602.172 99.5121 602.969 100.45 602.969 101.487C602.969 102.771 601.798 103.676 600.306 103.676C598.898 103.676 597.796 102.902 597.05 101.783L596.083 102.474C596.931 103.89 598.424 104.861 600.323 104.861C602.596 104.861 604.325 103.478 604.325 101.52C604.325 100.269 603.63 99.2323 602.392 98.7715Z" fill="black"/>
<path d="M615.604 93.818H614.281V98.2943H608.006V93.818H606.683V104.68H608.006V99.4463H614.281V104.68H615.604V93.818Z" fill="black"/>
<path d="M626.458 104.68H627.866L623.015 93.637H622.524L617.673 104.68H619.064L620.014 102.474H625.508L626.458 104.68ZM625 101.322H620.522L622.761 95.9739L625 101.322Z" fill="black"/>
<path d="M634.482 92.5179C635.974 92.5179 637.059 91.4318 637.059 90H635.957C635.957 90.938 635.33 91.514 634.482 91.514C633.651 91.514 633.006 90.938 633.006 90H631.904C631.904 91.4318 632.989 92.5179 634.482 92.5179ZM638.552 93.637L631.259 102.096V93.818H629.936V104.861H630.411L637.704 96.4017V104.68H639.027V93.637H638.552Z" fill="black"/>
<path d="M647.18 93.637C643.958 93.637 641.38 96.0726 641.38 99.2488C641.38 102.409 643.941 104.861 647.18 104.861C650.386 104.861 652.997 102.425 652.997 99.2488C652.997 96.0726 650.386 93.637 647.18 93.637ZM647.197 94.8219C649.724 94.8219 651.624 96.7309 651.624 99.2323C651.624 101.767 649.724 103.676 647.197 103.676C644.636 103.676 642.754 101.767 642.754 99.2323C642.754 96.7144 644.636 94.8219 647.197 94.8219Z" fill="black"/>
<path d="M665.196 93.637L660.498 99.9071L655.834 93.637H655.359V104.68H656.682V96.8625L660.277 101.602H660.752L664.331 96.8955V104.68H665.654V93.637H665.196Z" fill="black"/>
<path d="M677.357 93.637L670.064 102.096V93.818H668.741V104.861H669.216L676.509 96.4017V104.68H677.831V93.637H677.357Z" fill="black"/>
<path d="M688.902 93.818H679.693V94.97H683.628V104.68H684.951V94.97H688.902V93.818Z" fill="black"/>
<path d="M699.384 93.637L692.091 102.096V93.818H690.769V104.861H691.244L698.536 96.4017V104.68H699.859V93.637H699.384Z" fill="black"/>
<path d="M708.03 93.637C704.79 93.637 702.213 96.0726 702.213 99.2488C702.213 102.425 704.79 104.861 708.03 104.861C710.065 104.861 711.778 103.906 712.677 102.524L711.693 101.767C710.862 102.952 709.607 103.676 708.047 103.676C705.52 103.676 703.586 101.783 703.586 99.2488C703.586 96.7144 705.52 94.8219 708.047 94.8219C709.607 94.8219 710.862 95.546 711.693 96.7309L712.677 95.9739C711.744 94.5915 710.065 93.637 708.03 93.637Z" fill="black"/>
<path d="M716.388 93.818H715.065V104.68H719.492C721.815 104.68 723.223 103.297 723.223 101.388C723.223 99.4792 721.815 98.0968 719.492 98.0968H716.388V93.818ZM719.475 99.2488C721.035 99.2488 721.866 100.17 721.866 101.405C721.866 102.606 721.035 103.528 719.475 103.528H716.388V99.2488H719.475Z" fill="black"/>
<path d="M735.451 98.7715C736.18 98.2614 736.604 97.4714 736.604 96.5499C736.604 94.9042 735.231 93.637 733.196 93.637C731.568 93.637 730.245 94.4434 729.515 95.6118L730.465 96.303C731.093 95.4308 732.025 94.8219 733.196 94.8219C734.502 94.8219 735.231 95.5954 735.231 96.6157C735.231 97.6031 734.603 98.3437 733.297 98.3437H731.415V99.5121H733.721C735.231 99.5121 736.028 100.45 736.028 101.487C736.028 102.771 734.858 103.676 733.365 103.676C731.958 103.676 730.855 102.902 730.109 101.783L729.142 102.474C729.99 103.89 731.483 104.861 733.382 104.861C735.655 104.861 737.385 103.478 737.385 101.52C737.385 100.269 736.689 99.2323 735.451 98.7715Z" fill="black"/>
<path d="M745.819 93.818H744.496V104.68H745.819V93.818Z" fill="black"/>
<path d="M757.805 93.818H756.483V98.2943H750.208V93.818H748.885V104.68H750.208V99.4463H756.483V104.68H757.805V93.818Z" fill="black"/>
<path d="M765.98 93.637C762.741 93.637 760.163 96.0726 760.163 99.2488C760.163 102.425 762.741 104.861 765.98 104.861C768.015 104.861 769.728 103.906 770.627 102.524L769.643 101.767C768.812 102.952 767.557 103.676 765.997 103.676C763.47 103.676 761.537 101.783 761.537 99.2488C761.537 96.7144 763.47 94.8219 765.997 94.8219C767.557 94.8219 768.812 95.546 769.643 96.7309L770.627 95.9739C769.694 94.5915 768.015 93.637 765.98 93.637Z" fill="black"/>
<path d="M781.004 93.818H771.795V94.97H775.729V104.68H777.052V94.97H781.004V93.818Z" fill="black"/>
<path d="M786.805 93.818H782.87V104.68H784.193V100.137H786.805C789.009 100.137 790.383 98.8045 790.383 96.9613C790.383 95.1346 789.009 93.818 786.805 93.818ZM786.771 94.97C788.246 94.97 789.009 95.8258 789.009 96.9777C789.009 98.1462 788.246 98.9855 786.771 98.9855H784.193V94.97H786.771Z" fill="black"/>
<path d="M799.062 93.818L796.094 100.763L792.939 93.818H791.447L795.398 102.178L795.347 102.277C794.906 103.248 794.075 103.676 793.126 103.676C792.803 103.676 792.447 103.626 792.04 103.577V104.696C792.447 104.795 792.922 104.861 793.346 104.861C794.839 104.861 795.941 104.169 796.568 102.721L800.554 93.818H799.062Z" fill="black"/>
<path d="M802.612 104.68H803.935V93.818H802.612V104.68ZM805.817 98.8538L810.82 93.818H809.124L804.087 98.8538L809.599 104.68H811.278L805.817 98.8538Z" fill="black"/>
<path d="M821.705 93.818H820.382V103.528H814.667V93.818H813.344V104.68H821.739V107H823.062V103.528H821.705V93.818Z" fill="black"/>
<path d="M826.492 93.818H825.169V104.68H826.492V93.818Z" fill="black"/>
<path d="M834.663 103.676C832.204 103.676 830.305 101.882 830.203 99.4463H836.325V98.2943H830.305C830.712 96.2536 832.458 94.8219 834.663 94.8219C836.223 94.8219 837.478 95.546 838.309 96.7309L839.293 95.9739C838.36 94.5915 836.681 93.637 834.646 93.637C831.407 93.637 828.829 96.0726 828.829 99.2488C828.829 102.425 831.407 104.861 834.646 104.861C836.681 104.861 838.394 103.906 839.293 102.524L838.309 101.767C837.478 102.952 836.223 103.676 834.663 103.676Z" fill="black"/>
<path d="M851.739 93.637C848.856 93.637 846.532 95.5954 846.091 98.2943H843.005V93.818H841.682V104.68H843.005V99.4463H846.006C846.108 102.507 848.601 104.861 851.739 104.861C854.927 104.861 857.539 102.425 857.539 99.2488C857.539 96.0726 854.927 93.637 851.739 93.637ZM851.756 103.676C849.212 103.676 847.329 101.767 847.329 99.2323C847.329 96.7144 849.229 94.8219 851.756 94.8219C854.283 94.8219 856.165 96.7309 856.165 99.2323C856.165 101.767 854.283 103.676 851.756 103.676Z" fill="black"/>
<path d="M871.813 93.818H862.604V94.97H866.539V104.68H867.862V94.97H871.813V93.818Z" fill="black"/>
<path d="M880.172 104.68H881.579L876.729 93.637H876.237L871.387 104.68H872.777L873.727 102.474H879.222L880.172 104.68ZM878.713 101.322H874.236L876.475 95.9739L878.713 101.322Z" fill="black"/>
<path d="M896.038 93.818H887.559V104.68H888.881V94.97H894.716V104.68H896.038V93.818Z" fill="black"/>
<path d="M903.054 93.818H899.119V104.68H900.442V100.137H903.054C905.258 100.137 906.632 98.8045 906.632 96.9613C906.632 95.1346 905.258 93.818 903.054 93.818ZM903.02 94.97C904.495 94.97 905.258 95.8258 905.258 96.9777C905.258 98.1462 904.495 98.9855 903.02 98.9855H900.442V94.97H903.02Z" fill="black"/>
<path d="M913.912 93.637C910.689 93.637 908.112 96.0726 908.112 99.2488C908.112 102.409 910.672 104.861 913.912 104.861C917.117 104.861 919.729 102.425 919.729 99.2488C919.729 96.0726 917.117 93.637 913.912 93.637ZM913.929 94.8219C916.456 94.8219 918.355 96.7309 918.355 99.2323C918.355 101.767 916.456 103.676 913.929 103.676C911.368 103.676 909.485 101.767 909.485 99.2323C909.485 96.7144 911.368 94.8219 913.929 94.8219Z" fill="black"/>
<path d="M922.09 104.68H923.413V93.818H922.09V104.68ZM925.296 98.8538L930.299 93.818H928.603L923.566 98.8538L929.078 104.68H930.757L925.296 98.8538Z" fill="black"/>
<path d="M937.049 93.637C933.826 93.637 931.249 96.0726 931.249 99.2488C931.249 102.409 933.81 104.861 937.049 104.861C940.254 104.861 942.866 102.425 942.866 99.2488C942.866 96.0726 940.254 93.637 937.049 93.637ZM937.066 94.8219C939.593 94.8219 941.492 96.7309 941.492 99.2323C941.492 101.767 939.593 103.676 937.066 103.676C934.505 103.676 932.622 101.767 932.622 99.2323C932.622 96.7144 934.505 94.8219 937.066 94.8219Z" fill="black"/>
<path d="M954.148 93.818H952.825V98.2943H946.55V93.818H945.228V104.68H946.55V99.4463H952.825V104.68H954.148V93.818Z" fill="black"/>
<path d="M962.323 93.637C959.084 93.637 956.506 96.0726 956.506 99.2488C956.506 102.425 959.084 104.861 962.323 104.861C964.358 104.861 966.071 103.906 966.97 102.524L965.986 101.767C965.155 102.952 963.9 103.676 962.34 103.676C959.813 103.676 957.879 101.783 957.879 99.2488C957.879 96.7144 959.813 94.8219 962.34 94.8219C963.9 94.8219 965.155 95.546 965.986 96.7309L966.97 95.9739C966.037 94.5915 964.358 93.637 962.323 93.637Z" fill="black"/>
<path d="M975.994 93.818L973.026 100.763L969.871 93.818H968.379L972.33 102.178L972.279 102.277C971.838 103.248 971.007 103.676 970.058 103.676C969.735 103.676 969.379 103.626 968.972 103.577V104.696C969.379 104.795 969.854 104.861 970.278 104.861C971.771 104.861 972.873 104.169 973.5 102.721L977.486 93.818H975.994Z" fill="black"/>
<path d="M980.341 93.818V95.3814C980.341 100.516 979.357 102.968 977.322 103.528V104.729C979.917 104.235 981.629 101.915 981.663 94.97H985.445V104.663H986.768V93.818H980.341Z" fill="black"/>
<path d="M991.185 93.818H989.862V104.68H994.289C996.612 104.68 998.02 103.297 998.02 101.388C998.02 99.4792 996.612 98.0968 994.289 98.0968H991.185V93.818ZM994.272 99.2488C995.832 99.2488 996.663 100.17 996.663 101.405C996.663 102.606 995.832 103.528 994.272 103.528H991.185V99.2488H994.272Z" fill="black"/>
<path d="M1007.11 93.818H997.899V94.97H1001.83V104.68H1003.16V94.97H1007.11V93.818Z" fill="black"/>
<path d="M1015.78 93.818L1012.81 100.763L1009.65 93.818H1008.16L1012.11 102.178L1012.06 102.277C1011.62 103.248 1010.79 103.676 1009.84 103.676C1009.52 103.676 1009.16 103.626 1008.75 103.577V104.696C1009.16 104.795 1009.64 104.861 1010.06 104.861C1011.55 104.861 1012.65 104.169 1013.28 102.721L1017.27 93.818H1015.78Z" fill="black"/>
<path d="M1025.3 98.7057C1025.97 98.212 1026.36 97.4714 1026.36 96.5663C1026.36 94.9864 1025.16 93.818 1023.18 93.818H1019.33V104.68H1023.94C1026.16 104.68 1027.48 103.347 1027.48 101.553C1027.48 100.154 1026.69 99.1007 1025.3 98.7057ZM1023.04 94.97C1024.35 94.97 1025.01 95.6447 1025.01 96.6486C1025.01 97.6525 1024.35 98.3437 1023.04 98.3437H1020.65V94.97H1023.04ZM1023.8 103.528H1020.65V99.5121H1023.8C1025.31 99.5121 1026.13 100.351 1026.13 101.52C1026.13 102.705 1025.31 103.528 1023.8 103.528Z" fill="black"/>
<path d="M1037.38 104.68H1038.79L1033.94 93.637H1033.44L1028.59 104.68H1029.98L1030.93 102.474H1036.43L1037.38 104.68ZM1035.92 101.322H1031.44L1033.68 95.9739L1035.92 101.322Z" fill="black"/>
<path d="M1047.57 93.818H1038.36V94.97H1042.29V104.68H1043.62V94.97H1047.57V93.818Z" fill="black"/>
<path d="M1058.05 93.637L1050.76 102.096V93.818H1049.44V104.861H1049.91L1057.2 96.4017V104.68H1058.53V93.637H1058.05Z" fill="black"/>
<path d="M1066.7 93.637C1063.46 93.637 1060.88 96.0726 1060.88 99.2488C1060.88 102.425 1063.46 104.861 1066.7 104.861C1068.73 104.861 1070.44 103.906 1071.34 102.524L1070.36 101.767C1069.53 102.952 1068.27 103.676 1066.71 103.676C1064.19 103.676 1062.25 101.783 1062.25 99.2488C1062.25 96.7144 1064.19 94.8219 1066.71 94.8219C1068.27 94.8219 1069.53 95.546 1070.36 96.7309L1071.34 95.9739C1070.41 94.5915 1068.73 93.637 1066.7 93.637Z" fill="black"/>
<path d="M1077.15 93.818C1074.79 93.818 1073.31 95.2333 1073.31 97.1917C1073.31 98.6399 1074.11 99.7754 1075.45 100.286L1072.43 104.68H1073.94L1076.79 100.549C1076.91 100.565 1077.03 100.565 1077.15 100.565H1079.57V104.68H1080.9V93.818H1077.15ZM1079.57 99.4134H1077.15C1075.57 99.4134 1074.69 98.4589 1074.69 97.1917C1074.69 95.9409 1075.57 94.97 1077.15 94.97H1079.57V99.4134Z" fill="black"/>
<path d="M1094.3 98.7715C1095.03 98.2614 1095.45 97.4714 1095.45 96.5499C1095.45 94.9042 1094.08 93.637 1092.04 93.637C1090.42 93.637 1089.09 94.4434 1088.36 95.6118L1089.31 96.303C1089.94 95.4308 1090.87 94.8219 1092.04 94.8219C1093.35 94.8219 1094.08 95.5954 1094.08 96.6157C1094.08 97.6031 1093.45 98.3437 1092.15 98.3437H1090.26V99.5121H1092.57C1094.08 99.5121 1094.88 100.45 1094.88 101.487C1094.88 102.771 1093.71 103.676 1092.21 103.676C1090.81 103.676 1089.7 102.902 1088.96 101.783L1087.99 102.474C1088.84 103.89 1090.33 104.861 1092.23 104.861C1094.5 104.861 1096.23 103.478 1096.23 101.52C1096.23 100.269 1095.54 99.2323 1094.3 98.7715Z" fill="black"/>
<path d="M1104.49 93.818V95.3814C1104.49 100.516 1103.51 102.968 1101.47 103.528V104.729C1104.07 104.235 1105.78 101.915 1105.81 94.97H1109.59V104.663H1110.92V93.818H1104.49Z" fill="black"/>
<path d="M1115.33 93.818H1114.01V104.68H1115.33V93.818Z" fill="black"/>
<path d="M1118.4 104.68H1119.72V93.818H1118.4V104.68ZM1121.61 98.8538L1126.61 93.818H1124.91L1119.88 98.8538L1125.39 104.68H1127.07L1121.61 98.8538Z" fill="black"/>
<path d="M1136.9 104.68H1138.31L1133.46 93.637H1132.96L1128.11 104.68H1129.51L1130.45 102.474H1135.95L1136.9 104.68ZM1135.44 101.322H1130.96L1133.2 95.9739L1135.44 101.322Z" fill="black"/>
<path d="M1144.31 93.818H1140.38V104.68H1141.7V100.137H1144.31C1146.52 100.137 1147.89 98.8045 1147.89 96.9613C1147.89 95.1346 1146.52 93.818 1144.31 93.818ZM1144.28 94.97C1145.75 94.97 1146.52 95.8258 1146.52 96.9777C1146.52 98.1462 1145.75 98.9855 1144.28 98.9855H1141.7V94.97H1144.28Z" fill="black"/>
<path d="M1157.27 93.818H1150.1V104.68H1157.48V103.528H1151.42V99.4463H1155.9V98.2943H1151.42V94.97H1157.27V93.818Z" fill="black"/>
<path d="M1169.54 93.637L1164.84 99.9071L1160.18 93.637H1159.71V104.68H1161.03V96.8625L1164.62 101.602H1165.1L1168.68 96.8955V104.68H1170V93.637H1169.54Z" fill="black"/>
</svg>
