<svg width="15" height="9" viewBox="0 0 15 9" fill="none" xmlns="http://www.w3.org/2000/svg">
<path fill-rule="evenodd" clip-rule="evenodd" d="M6.47674 0.0420345C4.7804 0.27906 3.1893 1.0711 1.84231 2.34886C1.25944 2.90187 0.0928623 4.22691 0.00231528 4.43895C-0.0505679 4.56264 0.812934 5.70325 1.52094 6.4449C3.16201 8.16399 5.62023 9.13957 7.9185 8.98378C10.5919 8.8026 12.7643 7.53354 14.5684 5.09923L15 4.51688L14.8608 4.28482C14.5691 3.79835 13.5027 2.60487 12.8825 2.0707C11.358 0.757667 9.65465 0.073095 7.74501 0.00593543C7.30112 -0.00966381 6.73039 0.00655656 6.47674 0.0420345ZM8.56278 1.98138C10.5691 2.65546 11.1216 5.02033 9.59346 6.39265C8.92105 6.99647 7.91734 7.2961 7.03493 7.15653C5.69464 6.94449 4.75419 6.10821 4.51061 4.91183C4.23128 3.54006 5.33145 2.13116 6.91302 1.83519C7.36215 1.75112 8.06216 1.81317 8.56278 1.98138ZM7.03155 2.73484C6.59058 2.83202 6.34568 2.96675 6.00248 3.30103C4.83098 4.4424 5.73899 6.27531 7.47598 6.27531C8.58745 6.27531 9.45564 5.51109 9.46372 4.52571C9.46794 4.01066 9.32205 3.6643 8.94549 3.29565C8.4494 2.81007 7.69436 2.58885 7.03155 2.73484Z" fill="#F2FAFA"/>
</svg>
