<svg width="26" height="42" viewBox="0 0 26 42" fill="none" xmlns="http://www.w3.org/2000/svg">
<path d="M4.93552 3.77122L4.93551 3.77123C4.44969 4.72168 4.30076 5.458 4.30076 6.98584V8.24312V8.30797L4.2535 8.3524L3.78685 8.79115L3.78684 8.79115C2.26026 10.2263 1.04179 12.3666 0.444458 14.6736L0.206343 15.5933L0.178192 28.2748L0.150127 40.9177L0.336372 41.1255C0.336385 41.1255 0.336398 41.1255 0.336411 41.1255C0.427094 41.2266 0.480247 41.267 0.544154 41.2902C0.615533 41.3161 0.715763 41.3263 0.915613 41.3263C1.09308 41.3263 1.20352 41.3149 1.28536 41.2906C1.36146 41.2679 1.41973 41.2319 1.48765 41.1668C1.48765 41.1668 1.48767 41.1668 1.48767 41.1668L1.65163 41.0094L1.70233 28.5001C1.72752 22.2923 1.74088 19.1452 1.77199 17.4576C1.80308 15.7708 1.85181 15.5283 1.95274 15.1386L1.95274 15.1386C2.33869 13.6488 2.86036 12.4743 3.64385 11.3368C3.64385 11.3368 3.64386 11.3368 3.64386 11.3368L4.06803 10.7208L4.25558 10.4484L4.33696 10.7689L4.40357 11.0313L4.40358 11.0314C4.41127 11.0617 4.4177 11.1126 4.42373 11.169C4.43024 11.2299 4.43747 11.3097 4.44527 11.4056C4.4609 11.5976 4.47908 11.8573 4.49864 12.1659C4.53778 12.7833 4.58257 13.5982 4.6236 14.4618C4.82507 18.7004 4.90812 19.6807 5.11758 20.4425L4.97295 20.4823L5.11758 20.4425C5.72085 22.6371 7.35359 24.5503 9.52068 25.5929L9.45565 25.7281L9.52069 25.5929C11.6324 26.6089 14.2823 26.6971 16.4685 25.8238C18.9005 24.8524 20.7324 22.8191 21.3819 20.3772C21.5806 19.6297 21.6268 19.1469 21.7875 15.9643C21.8868 13.9984 21.9929 12.164 22.0233 11.8931L22.0233 11.8931L22.0775 11.4115L22.1182 11.0494L22.3442 11.3353L22.5152 11.5516L22.5152 11.5516C22.6473 11.7188 22.8776 12.1298 23.097 12.5608C23.3185 12.9959 23.5395 13.4722 23.6517 13.7798C23.7553 14.0638 23.9264 14.6343 24.0333 15.0505C24.2211 15.7818 24.2342 16.1654 24.2853 21.3487L24.3389 26.7897L24.5436 26.9586C24.715 27.1 24.9715 27.1581 25.2188 27.128C25.4653 27.098 25.6652 26.9858 25.7547 26.8315C25.7552 26.8296 25.7559 26.8267 25.7569 26.8226C25.7599 26.8091 25.7635 26.7887 25.7672 26.7598C25.7746 26.7021 25.7815 26.6196 25.7878 26.5079C25.8001 26.2852 25.8092 25.9565 25.815 25.5003C25.8265 24.5884 25.8251 23.1747 25.8126 21.0969L25.7789 15.5051L25.5433 14.595C25.0139 12.5501 24.0506 10.7517 22.696 9.27533C22.4952 9.0566 22.3591 8.89427 22.2791 8.76303C22.1968 8.62787 22.1602 8.50295 22.1949 8.37032M4.93552 3.77122L22.1949 8.37032M4.93552 3.77122C5.71051 2.25459 7.19804 1.15723 9.00592 0.779975M4.93552 3.77122L9.00592 0.779975M22.1949 8.37032C22.2206 8.27221 22.24 8.0589 22.2498 7.76821C22.2594 7.48326 22.2594 7.1389 22.2509 6.78907C22.2339 6.08284 22.1829 5.377 22.1133 5.08925C21.6061 2.99567 19.7298 1.23018 17.5235 0.781724C17.3192 0.740216 16.7419 0.706541 15.9579 0.68392C15.1811 0.661507 14.218 0.650179 13.2551 0.650002C12.2923 0.649825 11.3307 0.660801 10.557 0.682926C10.17 0.693992 9.83094 0.707822 9.56255 0.724371C9.29072 0.741131 9.10068 0.760207 9.00592 0.779975M22.1949 8.37032L9.00592 0.779975M16.8394 2.21256L16.819 2.36117L16.8394 2.21256C16.6364 2.18473 16.1221 2.16513 15.4673 2.15224C14.8077 2.13926 13.9941 2.13297 13.1844 2.1333C12.3747 2.13362 11.568 2.14056 10.9221 2.15408C10.2827 2.16746 9.78637 2.1874 9.6088 2.21599C7.67426 2.52751 6.14927 3.94674 5.85861 5.73714C5.84873 5.79804 5.84419 5.90392 5.8424 6.03787C5.84057 6.1757 5.84164 6.3539 5.84523 6.56608C5.85241 6.9906 5.86976 7.55476 5.89469 8.21137C5.94458 9.52481 6.02497 11.211 6.1157 12.896C6.20644 14.5809 6.30756 16.2654 6.39895 17.5755C6.44464 18.2304 6.48794 18.7924 6.52634 19.2144C6.54554 19.4253 6.56358 19.6021 6.58019 19.7384C6.5963 19.8708 6.61217 19.9753 6.6286 20.0344L6.77312 19.9942L6.6286 20.0344C7.25702 22.295 9.19508 24.1352 11.5763 24.7442C12.0004 24.8526 12.6203 24.9059 13.2299 24.9074C13.8393 24.909 14.4566 24.859 14.8751 24.7526C17.3366 24.1265 19.2467 22.305 19.8572 19.9862C19.892 19.8538 19.9305 19.5426 19.9719 19.1156C20.0138 18.6823 20.0598 18.1151 20.1074 17.4595C20.2027 16.148 20.3049 14.4795 20.3945 12.8139C20.4841 11.1484 20.5612 9.4851 20.6065 8.18393C20.6292 7.53346 20.6439 6.9727 20.6481 6.54713C20.6503 6.33443 20.6498 6.15452 20.6464 6.01362C20.6431 5.87609 20.6368 5.76645 20.6251 5.70003C20.3098 3.90643 18.7449 2.474 16.8394 2.21256ZM24.6847 29.4883L24.6847 29.4882C25.0876 29.274 25.4767 29.412 25.6891 29.679C25.8999 29.9441 25.9319 30.3279 25.613 30.6338C25.3029 30.9314 24.8969 30.8994 24.6127 30.6913C24.3294 30.4838 24.1925 30.1219 24.402 29.7592L24.402 29.7591C24.4262 29.7174 24.471 29.6624 24.5268 29.6088C24.5826 29.5553 24.6402 29.5119 24.6847 29.4883ZM24.6847 33.2012L24.6848 33.2012C25.0137 33.0262 25.3635 33.0725 25.613 33.312L25.8362 33.5261V37.2142C25.8362 39.0389 25.8348 39.9737 25.8108 40.4811C25.7987 40.7361 25.7813 40.8714 25.7595 40.9538C25.7405 41.0254 25.7192 41.0553 25.6819 41.1008C25.5929 41.2094 25.4454 41.292 25.2703 41.3291C25.096 41.3659 24.9075 41.3547 24.7466 41.2907L24.7278 41.2833C24.5872 41.2274 24.5271 41.2035 24.4805 41.1521C24.435 41.102 24.3887 41.0061 24.3564 40.7592C24.294 40.2835 24.2948 39.3707 24.2965 37.5064L24.2967 37.2797C24.2985 35.3105 24.3007 34.3306 24.3586 33.8099C24.3875 33.549 24.4285 33.4283 24.4733 33.3598C24.5148 33.2964 24.5678 33.2634 24.6847 33.2012Z" fill="#3B4040" stroke="#F2FAFA" stroke-width="0.3"/>
</svg>
