<?xml version="1.0" encoding="UTF-8"?>
<!-- Generator: Adobe Illustrator 25.4.1, SVG Export Plug-In . SVG Version: 6.00 Build 0)  -->
<svg xmlns="http://www.w3.org/2000/svg" xmlns:xlink="http://www.w3.org/1999/xlink" version="1.1" id="Layer_1" x="0px" y="0px" viewBox="0 0 64 64" style="enable-background:new 0 0 64 64;" xml:space="preserve">
<style type="text/css">
	.st0{fill:#F2FAFA;}
	.st1{fill-rule:evenodd;clip-rule:evenodd;fill:#3B4040;stroke:#F2FAFA;stroke-width:0.4;stroke-miterlimit:10;}
</style>
<path class="st0" d="M10,0h44c5.5,0,10,4.5,10,10v44c0,5.5-4.5,10-10,10H10C4.5,64,0,59.5,0,54V10C0,4.5,4.5,0,10,0z"></path>
<path class="st1" d="M28,11.1c-1.8,0.4-3.4,1.5-4.2,3.1c-0.5,1-0.7,1.7-0.7,3.3v1.3l-0.5,0.4c-1.5,1.5-2.8,3.6-3.4,6l-0.2,0.9  l0,12.7l0,12.7l0.2,0.3c0.2,0.2,0.3,0.3,0.7,0.3c0.4,0,0.5,0,0.7-0.2l0.2-0.2L20.9,39c0.1-12.4,0.1-12.6,0.2-13.3  c0.4-1.5,0.9-2.6,1.7-3.8l0.4-0.6l0.1,0.3c0,0.1,0.1,1.7,0.2,3.4c0.2,4.2,0.3,5.2,0.5,6c0.6,2.2,2.3,4.2,4.5,5.2  c2.1,1,4.8,1.1,7.1,0.2c2.5-1,4.3-3.1,5-5.5c0.2-0.8,0.2-1.3,0.4-4.4c0.1-2,0.2-3.8,0.2-4.1l0.1-0.5l0.2,0.2  c0.2,0.3,0.9,1.6,1.1,2.2c0.1,0.3,0.3,0.8,0.4,1.3c0.2,0.7,0.2,1.1,0.2,6.3l0.1,5.5l0.3,0.2c0.4,0.3,1.2,0.3,1.4-0.2  c0.1-0.1,0.1-1.6,0.1-5.8l0-5.6l-0.2-0.9c-0.5-2.1-1.5-3.9-2.9-5.4c-0.4-0.4-0.5-0.6-0.5-0.8c0.1-0.5,0.1-2.7-0.1-3.4  c-0.5-2.2-2.4-4-4.7-4.4C35.7,11,28.8,11,28,11.1z M35.8,12.9c1.8,0.3,3.4,1.6,3.7,3.4c0.2,0.9-0.5,13.3-0.8,14.2  c-0.6,2.3-2.5,4-4.9,4.7c-0.8,0.2-2.4,0.2-3.2,0c-2.3-0.6-4.2-2.4-4.8-4.6C25.6,29.8,24.9,17,25,16.3c0.3-1.7,1.7-3.1,3.6-3.4  C29.3,12.8,35,12.8,35.8,12.9z M43.6,39.9c-0.1,0.1-0.3,0.2-0.3,0.3c-0.5,0.9,0.7,1.8,1.4,1.1C45.5,40.5,44.6,39.4,43.6,39.9z   M43.6,43.6c-0.5,0.2-0.5,0.3-0.5,4.2c0,4,0,3.9,0.5,4.2c0.4,0.2,0.9,0,1.1-0.2c0.2-0.2,0.2-0.3,0.2-4V44l-0.3-0.3  C44.4,43.4,44,43.4,43.6,43.6z"></path>
</svg>
