<svg width="45" height="43" viewBox="0 0 45 43" fill="none" xmlns="http://www.w3.org/2000/svg">
<path fill-rule="evenodd" clip-rule="evenodd" d="M0.365543 0.579258C0.0786032 0.697901 -0.0642955 1.05895 0.0525897 1.37018C0.104177 1.50746 1.73319 4.38228 3.67278 7.7587C5.61228 11.135 7.1992 13.9403 7.1992 13.9926C7.1992 14.045 6.50087 15.0335 5.64744 16.1892C3.53665 19.0475 3.1417 19.9344 3.14205 21.8151C3.1424 24.0613 4.15139 26.0485 5.92488 27.2963C6.96129 28.0254 14.3692 32.2928 14.5985 32.2928C15.1787 32.2928 15.4495 31.5746 15.012 31.1966C14.8943 31.095 12.9608 29.9385 10.7152 28.6266C7.03441 26.4763 6.57144 26.1805 6.01365 25.623C4.95992 24.57 4.45573 23.3356 4.46224 21.8247C4.4661 20.9249 4.63001 20.2051 5.0014 19.4573C5.14114 19.1758 6.02903 17.8981 6.97439 16.618C8.13973 15.0398 8.69322 14.2187 8.69322 14.0679C8.69322 13.8713 1.37691 0.979092 1.10377 0.694367C0.957175 0.541624 0.593689 0.484909 0.365543 0.579258ZM17.8809 0.679172C17.6837 0.835095 17.6469 0.925027 17.6729 1.18714C17.6954 1.41356 19.6699 4.92965 24.4993 13.3435C28.2364 19.8543 31.3918 25.2707 31.5112 25.38C31.9354 25.768 32.5484 25.5118 32.5408 24.9497C32.5376 24.7192 30.9826 21.9461 25.7104 12.7693C21.956 6.23419 18.7839 0.797904 18.6613 0.688537C18.3826 0.439943 18.1864 0.437558 17.8809 0.679172ZM11.2782 13.8901C10.9385 14.2585 10.5539 15.1512 10.4353 15.8461C10.1589 17.4667 10.9481 19.3202 12.2808 20.1799C12.7951 20.5116 13.0261 20.5247 13.3111 20.2381C13.6263 19.9213 13.5924 19.6031 13.2081 19.272C12.028 18.2552 11.7316 17.7122 11.7277 16.5601C11.7254 15.8558 11.7488 15.7543 12.0551 15.1466C12.4497 14.3638 12.4703 14.0869 12.1528 13.8358C11.8382 13.587 11.5406 13.6055 11.2782 13.8901ZM32.8813 26.3447C32.6958 26.4197 32.4954 26.8958 32.5604 27.1071C32.6629 27.4409 34.292 29.5475 35.342 30.7041C37.3408 32.9061 40.0897 35.1301 42.5973 36.5745C43.1631 36.9003 43.3639 37.0698 43.4981 37.3343C43.8061 37.9409 43.7006 38.472 43.1603 39.0364C42.6268 39.5935 42.2402 39.7544 41.4299 39.7562C40.7867 39.7576 40.6781 39.7307 40.1555 39.4412C39.6397 39.1553 39.5822 39.0954 39.5622 38.8228C39.4624 37.4656 39.0581 35.858 38.7253 35.4952C38.4616 35.2076 38.0252 35.2275 37.7822 35.538C37.5676 35.8121 37.5733 35.8732 37.916 36.9749C38.1925 37.8637 38.2964 39.2902 38.144 40.1064C37.9791 40.9895 37.3741 41.406 36.7138 41.091C36.1938 40.8429 36.1644 40.7277 36.1601 38.9184C36.1563 37.3063 36.1524 37.2727 35.8683 36.4448C35.7099 35.9833 35.4981 35.536 35.3975 35.451C35.0078 35.1216 34.3552 35.3586 34.3552 35.8296C34.3552 35.9716 34.4602 36.3967 34.5885 36.7743C34.7668 37.2991 34.8312 37.6897 34.8619 38.4325C34.9272 40.0116 34.6633 40.5527 33.8279 40.5527C33.0563 40.5527 32.7497 40.0528 32.883 39.012C33.0378 37.8028 32.6591 36.1014 32.0904 35.451C31.8948 35.2275 31.4382 35.2532 31.2067 35.5008C30.9632 35.7615 30.9666 35.9103 31.232 36.577C31.7424 37.8596 31.7249 39.251 31.1921 39.7356C30.8807 40.0187 30.3041 40.0687 29.9801 39.8406C29.602 39.5745 29.5102 39.2512 29.5734 38.4089C29.6165 37.8333 29.5955 37.4977 29.4907 37.0867C29.3317 36.4636 28.9848 35.7286 28.7277 35.4701C28.3772 35.1178 27.6939 35.3528 27.6571 35.8383C27.6473 35.9663 27.7689 36.3274 27.9271 36.6406C28.1498 37.0816 28.2247 37.3583 28.2589 37.8656C28.3136 38.6758 28.1512 39.057 27.6455 39.3053C27.3572 39.4468 27.2574 39.4562 26.9689 39.3693C26.535 39.2387 26.2699 38.8714 26.2699 38.401C26.2699 38.2043 26.2268 37.9481 26.174 37.8316C26.0352 37.5254 17.0988 32.2928 16.7148 32.2928C16.2343 32.2928 15.9112 32.9073 16.1945 33.2821C16.2569 33.3647 18.2528 34.5704 20.6298 35.9615C24.6175 38.2952 24.9519 38.509 24.9536 38.7267C24.9563 39.0464 25.2613 39.7021 25.5501 40.0088C26.2004 40.6996 27.3786 40.9285 28.1991 40.5238L28.5902 40.3307L28.9021 40.6357C29.5817 41.3001 30.5967 41.4897 31.4648 41.1143L31.9026 40.925L32.1795 41.2097C32.658 41.7018 33.085 41.8738 33.8279 41.8738C34.3352 41.8738 34.5701 41.8295 34.8476 41.6819L35.2081 41.49L35.384 41.7291C35.4808 41.8606 35.7731 42.0849 36.0338 42.2275C37.0434 42.7799 38.3691 42.4659 38.9971 41.5256C39.1574 41.2855 39.3112 40.9761 39.3386 40.8381C39.3761 40.6496 39.4237 40.6022 39.5303 40.6475C40.2362 40.9477 40.6275 41.059 41.1224 41.1007C43.4648 41.2982 45.4517 39.2378 44.8673 37.2174C44.6352 36.4148 44.2834 36.0434 43.0436 35.2921C39.4824 33.134 36.6783 30.5852 34.2785 27.3249C33.5368 26.3172 33.322 26.1665 32.8813 26.3447Z" fill="#3B4040"/>
</svg>
