<svg width="41" height="41" viewBox="0 0 41 41" fill="none" xmlns="http://www.w3.org/2000/svg">
<path fill-rule="evenodd" clip-rule="evenodd" d="M0.181267 0.780972C-0.153774 1.13357 -0.00786176 1.63516 0.482975 1.81815C0.626282 1.87154 1.56402 1.90969 2.73437 1.90969C4.88514 1.90969 5.63807 1.99789 6.80276 2.38635C7.14939 2.50194 11.0667 4.16353 15.508 6.07859C19.9493 7.99375 23.6437 9.56855 23.7178 9.57824C24.3512 9.66071 24.7645 9.05322 24.3978 8.57886C24.2981 8.45005 19.5403 6.35181 13.0709 3.5837C12.5273 3.3511 11.0695 2.72467 9.83134 2.19163C6.3546 0.694893 5.87338 0.588373 2.58469 0.588197C0.416308 0.588109 0.360154 0.592602 0.181267 0.780972ZM26.0668 9.71093C25.6648 10.2121 25.8775 10.5836 26.7726 10.9441C27.5302 11.2491 27.5813 11.2961 27.5813 11.6889C27.5813 12.2085 27.9999 13.6937 28.351 14.4199C28.8236 15.3975 28.9811 15.6153 31.5547 18.8499L33.9155 21.8171L35.3817 26.9954L36.8479 32.1737L36.6404 32.306C35.5489 33.0019 34.9617 34.2645 35.1378 35.5368C35.1765 35.8168 35.1966 36.0573 35.1824 36.0712C35.129 36.1236 34.3352 35.0581 33.9786 34.4552C33.5913 33.8008 32.9477 32.3161 32.6266 31.337C32.5233 31.022 32.0513 29.3965 31.5775 27.7247C31.1037 26.0529 30.6363 24.4194 30.5389 24.0948C30.3751 23.5493 30.1496 23.2381 27.5715 19.9979C25.8637 17.8515 24.6902 16.4526 24.5465 16.3916C24.0966 16.2009 23.628 16.5077 23.628 16.993C23.628 17.1278 24.5751 18.3874 26.3981 20.6772L29.1681 24.1564L30.4721 28.7612L31.7761 33.366L31.4843 33.5429C31.0454 33.8088 30.5529 34.3851 30.2982 34.9305C30.0354 35.4935 29.9375 36.4002 30.0822 36.9317L30.178 37.2841L29.775 36.8537C29.0975 36.1303 28.4044 34.855 27.7999 33.2201C27.6364 32.7778 27.0926 30.9738 26.5914 29.2113C26.0902 27.4487 25.6032 25.8877 25.509 25.7423C25.4149 25.5969 24.4174 24.3282 23.2924 22.9229C21.0426 20.1125 20.886 19.97 20.2357 20.1418C20.0442 20.1923 19.7945 20.3308 19.6809 20.4494C19.2569 20.8921 19.2761 20.986 21.0999 27.3722L22.7983 33.3194L22.6067 33.4515C21.4097 34.277 20.8057 35.6409 21.0946 36.8656C21.1432 37.0715 21.157 37.2382 21.1252 37.236C21.0934 37.2337 20.893 37.018 20.6799 36.7567C19.7543 35.622 18.9377 33.8125 18.1942 31.2489C17.9624 30.4493 17.7179 29.711 17.651 29.6082C17.4147 29.2453 16.8412 29.2963 16.5684 29.7045C16.4221 29.9234 16.4305 29.9808 16.7937 31.2594C17.7713 34.7008 18.8111 36.8226 20.1746 38.1597C20.4742 38.4535 20.9392 38.8107 21.2078 38.9534C21.4765 39.0961 21.9186 39.4397 22.1904 39.7169C22.7342 40.2715 23.2848 40.5 24.0772 40.5C25.033 40.5 25.6611 40.1451 25.8156 39.5178C25.8559 39.3537 25.1677 36.7937 23.4955 30.8879C22.1879 26.2699 21.1318 22.4779 21.1487 22.4613C21.2004 22.4107 24.3431 26.3821 24.4311 26.6093C24.4765 26.7263 24.878 28.1055 25.3234 29.6742C26.3203 33.1855 26.6243 34.0617 27.3555 35.5317C28.2426 37.3152 29.2263 38.4767 30.308 39.0179C30.5051 39.1165 30.892 39.4275 31.1678 39.709C31.5655 40.115 31.7703 40.2498 32.1574 40.3604C33.1635 40.6482 34.3029 40.4368 34.6173 39.9041C34.8842 39.4519 34.8401 39.1199 34.259 37.2019C34.2178 37.0658 34.2824 37.0897 34.5793 37.3204C34.7839 37.4792 35.1515 37.7166 35.3962 37.8478C35.6409 37.979 35.9609 38.2485 36.1072 38.4466C36.2793 38.6796 36.5553 38.8941 36.8891 39.0543C37.3279 39.2648 37.5135 39.3012 38.1311 39.2984C38.5908 39.2963 38.98 39.2434 39.1921 39.1539C39.5684 38.9953 39.8896 38.5515 39.89 38.1892C39.8902 38.057 39.6276 37.0292 39.3064 35.9051C38.9852 34.7811 38.7224 33.8332 38.7224 33.7988C38.7224 33.7643 38.9751 33.7539 39.2839 33.7757C39.7439 33.808 39.8993 33.7819 40.1428 33.6315C40.722 33.2737 40.6992 33.6248 40.6976 25.1063C40.6961 16.7652 40.6968 16.7777 40.2211 15.9818C39.6749 15.0678 39.6081 15.0326 33.0085 12.1799C29.6529 10.7294 26.7616 9.52652 26.5834 9.5067C26.3142 9.47683 26.2269 9.51128 26.0668 9.71093ZM0.174259 10.6101C-0.00552571 10.8321 -0.017116 10.9167 0.0357143 11.617C0.117026 12.6952 0.37983 13.6201 0.894836 14.641C1.66438 16.1665 2.74471 17.3362 4.11785 18.1304C4.41982 18.3051 6.84526 19.3885 9.50762 20.5379L14.3482 22.6278L15.0572 25.1542C15.8056 27.8205 15.923 28.0771 16.3952 28.0771C16.6708 28.0771 17.0691 27.7179 17.0691 27.4693C17.0691 27.1129 15.527 21.8619 15.379 21.7144C15.2955 21.6311 13.61 20.8647 11.6333 20.0112C9.65668 19.1577 7.39252 18.1802 6.60186 17.8388C4.93528 17.1192 4.20464 16.6805 3.46475 15.9551C2.23509 14.7494 1.51398 13.2078 1.37417 11.486C1.30643 10.6516 1.12826 10.3678 0.671925 10.3678C0.45054 10.3678 0.318375 10.4323 0.174259 10.6101ZM33.7599 13.9527C37.8692 15.7199 38.4506 15.9942 38.7758 16.3189C39.0205 16.563 39.1785 16.8214 39.2475 17.0902C39.3192 17.3694 39.3513 18.8782 39.3513 21.9721V26.4499L38.9061 26.6049C38.3549 26.7968 37.7867 27.2145 37.3996 27.7122C37.2126 27.9525 37.0892 28.0482 37.0619 27.9739C37.0382 27.9095 36.5955 26.3596 36.0781 24.5297L35.1373 21.2025L32.7355 18.1861C30.0858 14.8582 29.7785 14.4298 29.4306 13.5775C29.1398 12.8652 28.9141 11.9537 29.0284 11.9537C29.0743 11.9537 31.2036 12.8533 33.7599 13.9527ZM39.3513 30.1916C39.3513 31.9665 39.326 32.4819 39.239 32.4804C39.0054 32.4764 38.3809 32.1409 38.2401 31.9437C38.0143 31.6275 38.0315 29.3206 38.2635 28.8197C38.43 28.4603 39.0226 27.9009 39.237 27.9009C39.3266 27.9009 39.3513 28.3965 39.3513 30.1916ZM37.8497 35.7016C38.1851 36.8904 38.4354 37.9013 38.4059 37.948C38.2897 38.1324 37.4662 37.9458 37.2111 37.6774C37.0064 37.4619 36.461 35.5285 36.4617 35.0211C36.4621 34.8121 36.5086 34.5222 36.5652 34.377C36.6788 34.086 37.0781 33.5396 37.1771 33.5399C37.2116 33.54 37.5143 34.5128 37.8497 35.7016ZM23.8109 36.9317C24.1103 37.9978 24.3763 38.9395 24.402 39.0242C24.4759 39.2683 23.7408 39.2353 23.3493 38.977C23.0732 38.7949 23.0122 38.6705 22.7128 37.6774C22.5306 37.0735 22.379 36.4451 22.3759 36.2811C22.3672 35.8319 22.5436 35.3493 22.8495 34.9854C23.1864 34.5847 23.106 34.4222 23.8109 36.9317ZM32.7512 36.8071C33.0742 37.9418 33.3614 38.9447 33.3897 39.0359C33.4367 39.1879 33.3983 39.1983 32.9312 39.1604C32.1871 39.0998 32.0455 38.9237 31.667 37.5874C31.3366 36.4209 31.3044 36.1435 31.4434 35.6542C31.5259 35.3633 32.054 34.6364 32.1292 34.7101C32.1484 34.7289 32.4283 35.6726 32.7512 36.8071Z" fill="#3B4040"/>
</svg>
