<svg width="82" height="82" viewBox="0 0 82 82" fill="none" xmlns="http://www.w3.org/2000/svg">
<path d="M33 20L35.5 22.5H46L48 21.5L49 18.5L45.5 16.5V1.5H36.5L36 15.5L34.5 16.5L33 20Z" fill="#DFEAEB"/>
<path d="M26 29.5L22.5 39H59.5L56 28L48 22L41 23L34 22L26 29.5Z" fill="#2AC8CE"/>
<mask id="path-3-inside-1_297_438" fill="white">
<path fill-rule="evenodd" clip-rule="evenodd" d="M35.524 0.238732C34.7414 0.682096 34.7348 0.745204 34.7288 7.98062L34.7233 14.7446L34.1181 15.0603C33.7853 15.234 33.1988 15.7331 32.815 16.1696C31.6953 17.4426 31.3035 19.256 31.8246 20.7517C31.9462 21.1007 32.0312 21.3949 32.0135 21.4057L31.5229 21.7019L30.963 22.0401C29.4703 22.9416 27.5235 24.5273 26.4982 25.6771C23.7853 28.7189 21.9239 32.6962 21.3912 36.5893L21.2068 37.9359L20.3092 38.0192C18.553 38.1819 17.1814 39.121 16.4371 40.6704C16.0768 41.4208 16 41.7913 16 42.7818C16 44.784 16.9652 46.333 18.7339 47.1696L19.447 47.507H40.9906H62.5341L63.2472 47.1696C63.6394 46.9841 64.2181 46.6008 64.5335 46.3178C65.9853 45.0146 66.4319 42.519 65.544 40.6704C64.7997 39.121 63.4282 38.1819 61.6719 38.0192L60.7743 37.9359L60.5899 36.5893C59.7176 30.2151 55.7986 24.6125 49.9676 21.4039C49.9499 21.3941 50.0349 21.1007 50.1565 20.7517C50.6776 19.256 50.2858 17.4426 49.1661 16.1696C48.7823 15.7331 48.1958 15.234 47.863 15.0603L47.2578 14.7446V8.02819C47.2578 0.810876 47.2423 0.661273 46.4517 0.243377C45.8433 -0.0782541 36.0907 -0.0824186 35.524 0.238732ZM44.1242 8.90483V14.591H40.9906H37.8569V8.90483V3.21862H40.9906H44.1242V8.90483ZM46.7398 18.181C47.0998 18.4977 47.1794 18.6976 47.1794 19.2854C47.1794 20.1438 46.8347 20.6046 46.02 20.8361C45.7046 20.9256 43.4871 20.9963 40.9906 20.9963C38.494 20.9963 36.2765 20.9256 35.9611 20.8361C35.1464 20.6046 34.8017 20.1438 34.8017 19.2854C34.8017 18.6976 34.8813 18.4977 35.2413 18.181L35.681 17.7945H40.9906H46.3001L46.7398 18.181ZM24.5563 49.8929C23.8495 50.2934 23.7671 50.6815 23.7612 53.6417C23.7571 55.7356 23.8102 56.5205 23.979 56.854C24.5183 57.9199 26.1267 57.9199 26.666 56.854C26.9568 56.2789 26.986 51.1828 26.7021 50.5458C26.3591 49.776 25.3203 49.46 24.5563 49.8929ZM32.3904 49.8929C31.6836 50.2934 31.6012 50.6815 31.5952 53.6417C31.5911 55.7356 31.6442 56.5205 31.813 56.854C32.3523 57.9199 33.9608 57.9199 34.5001 56.854C34.7909 56.2789 34.82 51.1828 34.5361 50.5458C34.1931 49.776 33.1543 49.46 32.3904 49.8929ZM40.2244 49.8929C39.5176 50.2934 39.4352 50.6815 39.4292 53.6417C39.4252 55.7356 39.4783 56.5205 39.647 56.854C40.1863 57.9199 41.7948 57.9199 42.3341 56.854C42.6249 56.2789 42.654 51.1828 42.3701 50.5458C42.0272 49.776 40.9884 49.46 40.2244 49.8929ZM48.0584 49.8929C47.3516 50.2934 47.2692 50.6815 47.2633 53.6417C47.2592 55.7356 47.3123 56.5205 47.481 56.854C48.0203 57.9199 49.6288 57.9199 50.1681 56.854C50.4589 56.2789 50.4881 51.1828 50.2042 50.5458C49.8612 49.776 48.8224 49.46 48.0584 49.8929ZM55.8924 49.8929C55.1857 50.2934 55.1032 50.6815 55.0973 53.6417C55.0932 55.7356 55.1463 56.5205 55.3151 56.854C55.8544 57.9199 57.4629 57.9199 58.0022 56.854C58.293 56.2789 58.3221 51.1828 58.0382 50.5458C57.6952 49.776 56.6564 49.46 55.8924 49.8929ZM24.5563 62.0662C23.8495 62.4666 23.7671 62.8547 23.7612 65.8149C23.7571 67.9089 23.8102 68.6938 23.979 69.0272C24.5183 70.0932 26.1267 70.0932 26.666 69.0272C26.9568 68.4522 26.986 63.3561 26.7021 62.7191C26.3591 61.9493 25.3203 61.6333 24.5563 62.0662ZM32.3904 62.0662C31.6836 62.4666 31.6012 62.8547 31.5952 65.8149C31.5911 67.9089 31.6442 68.6938 31.813 69.0272C32.3523 70.0932 33.9608 70.0932 34.5001 69.0272C34.7909 68.4522 34.82 63.3561 34.5361 62.7191C34.1931 61.9493 33.1543 61.6333 32.3904 62.0662ZM40.2244 62.0662C39.5176 62.4666 39.4352 62.8547 39.4292 65.8149C39.4252 67.9089 39.4783 68.6938 39.647 69.0272C40.1863 70.0932 41.7948 70.0932 42.3341 69.0272C42.6249 68.4522 42.654 63.3561 42.3701 62.7191C42.0272 61.9493 40.9884 61.6333 40.2244 62.0662ZM48.0584 62.0662C47.3516 62.4666 47.2692 62.8547 47.2633 65.8149C47.2592 67.9089 47.3123 68.6938 47.481 69.0272C48.0203 70.0932 49.6288 70.0932 50.1681 69.0272C50.4589 68.4522 50.4881 63.3561 50.2042 62.7191C49.8612 61.9493 48.8224 61.6333 48.0584 62.0662ZM55.8924 62.0662C55.1857 62.4666 55.1032 62.8547 55.0973 65.8149C55.0932 67.9089 55.1463 68.6938 55.3151 69.0272C55.8544 70.0932 57.4629 70.0932 58.0022 69.0272C58.293 68.4522 58.3221 63.3561 58.0382 62.7191C57.6952 61.9493 56.6564 61.6333 55.8924 62.0662ZM24.5563 74.2395C23.8495 74.6399 23.7671 75.028 23.7612 77.9882C23.7571 80.0822 23.8102 80.8671 23.979 81.2005C24.5183 82.2665 26.1267 82.2665 26.666 81.2005C26.9568 80.6255 26.986 75.5294 26.7021 74.8924C26.3591 74.1226 25.3203 73.8065 24.5563 74.2395ZM32.3904 74.2395C31.6836 74.6399 31.6012 75.028 31.5952 77.9882C31.5911 80.0822 31.6442 80.8671 31.813 81.2005C32.3523 82.2665 33.9608 82.2665 34.5001 81.2005C34.7909 80.6255 34.82 75.5294 34.5361 74.8924C34.1931 74.1226 33.1543 73.8065 32.3904 74.2395ZM40.2244 74.2395C39.5176 74.6399 39.4352 75.028 39.4292 77.9882C39.4252 80.0822 39.4783 80.8671 39.647 81.2005C40.1863 82.2665 41.7948 82.2665 42.3341 81.2005C42.6249 80.6255 42.654 75.5294 42.3701 74.8924C42.0272 74.1226 40.9884 73.8065 40.2244 74.2395ZM48.0584 74.2395C47.3516 74.6399 47.2692 75.028 47.2633 77.9882C47.2592 80.0822 47.3123 80.8671 47.481 81.2005C48.0203 82.2665 49.6288 82.2665 50.1681 81.2005C50.4589 80.6255 50.4881 75.5294 50.2042 74.8924C49.8612 74.1226 48.8224 73.8065 48.0584 74.2395ZM55.8924 74.2395C55.1857 74.6399 55.1032 75.028 55.0973 77.9882C55.0932 80.0822 55.1463 80.8671 55.3151 81.2005C55.8544 82.2665 57.4629 82.2665 58.0022 81.2005C58.293 80.6255 58.3221 75.5294 58.0382 74.8924C57.6952 74.1226 56.6564 73.8065 55.8924 74.2395ZM41.0689 24.1189C44.8552 24.1171 46.8382 24.0578 47.1011 23.9385C47.4319 23.7884 47.639 23.8358 48.4329 24.2433C50.7052 25.4097 53.1775 27.6068 54.623 29.7444C56.0549 31.8619 57.2198 34.8501 57.5047 37.1356L57.6095 37.9766H48.6298H26.1764H24.3716L24.4764 37.1356C24.642 35.8059 25.2796 33.6871 25.944 32.2574C27.5112 28.8855 30.1473 26.0754 33.3695 24.3422C34.3492 23.815 34.5091 23.774 34.9441 23.9385C35.2745 24.0633 37.2208 24.1206 41.0689 24.1189ZM62.5754 41.7305C62.1792 41.1644 60.952 41.1801 50.669 41.1801H27.9811H24.1372C19.9612 41.1801 19.6046 41.244 19.2425 42.0565C18.8731 42.8854 19.1753 43.8487 19.9126 44.1921C20.2246 44.3374 25.3043 44.3835 41.0058 44.3835C58.5997 44.3835 61.7525 44.3494 62.1197 44.1553C62.8408 43.7741 63.1049 42.8784 62.7386 42.0565C62.6825 41.9306 62.64 41.8228 62.5754 41.7305Z"/>
</mask>
<path fill-rule="evenodd" clip-rule="evenodd" d="M35.524 0.238732C34.7414 0.682096 34.7348 0.745204 34.7288 7.98062L34.7233 14.7446L34.1181 15.0603C33.7853 15.234 33.1988 15.7331 32.815 16.1696C31.6953 17.4426 31.3035 19.256 31.8246 20.7517C31.9462 21.1007 32.0312 21.3949 32.0135 21.4057L31.5229 21.7019L30.963 22.0401C29.4703 22.9416 27.5235 24.5273 26.4982 25.6771C23.7853 28.7189 21.9239 32.6962 21.3912 36.5893L21.2068 37.9359L20.3092 38.0192C18.553 38.1819 17.1814 39.121 16.4371 40.6704C16.0768 41.4208 16 41.7913 16 42.7818C16 44.784 16.9652 46.333 18.7339 47.1696L19.447 47.507H40.9906H62.5341L63.2472 47.1696C63.6394 46.9841 64.2181 46.6008 64.5335 46.3178C65.9853 45.0146 66.4319 42.519 65.544 40.6704C64.7997 39.121 63.4282 38.1819 61.6719 38.0192L60.7743 37.9359L60.5899 36.5893C59.7176 30.2151 55.7986 24.6125 49.9676 21.4039C49.9499 21.3941 50.0349 21.1007 50.1565 20.7517C50.6776 19.256 50.2858 17.4426 49.1661 16.1696C48.7823 15.7331 48.1958 15.234 47.863 15.0603L47.2578 14.7446V8.02819C47.2578 0.810876 47.2423 0.661273 46.4517 0.243377C45.8433 -0.0782541 36.0907 -0.0824186 35.524 0.238732ZM44.1242 8.90483V14.591H40.9906H37.8569V8.90483V3.21862H40.9906H44.1242V8.90483ZM46.7398 18.181C47.0998 18.4977 47.1794 18.6976 47.1794 19.2854C47.1794 20.1438 46.8347 20.6046 46.02 20.8361C45.7046 20.9256 43.4871 20.9963 40.9906 20.9963C38.494 20.9963 36.2765 20.9256 35.9611 20.8361C35.1464 20.6046 34.8017 20.1438 34.8017 19.2854C34.8017 18.6976 34.8813 18.4977 35.2413 18.181L35.681 17.7945H40.9906H46.3001L46.7398 18.181ZM24.5563 49.8929C23.8495 50.2934 23.7671 50.6815 23.7612 53.6417C23.7571 55.7356 23.8102 56.5205 23.979 56.854C24.5183 57.9199 26.1267 57.9199 26.666 56.854C26.9568 56.2789 26.986 51.1828 26.7021 50.5458C26.3591 49.776 25.3203 49.46 24.5563 49.8929ZM32.3904 49.8929C31.6836 50.2934 31.6012 50.6815 31.5952 53.6417C31.5911 55.7356 31.6442 56.5205 31.813 56.854C32.3523 57.9199 33.9608 57.9199 34.5001 56.854C34.7909 56.2789 34.82 51.1828 34.5361 50.5458C34.1931 49.776 33.1543 49.46 32.3904 49.8929ZM40.2244 49.8929C39.5176 50.2934 39.4352 50.6815 39.4292 53.6417C39.4252 55.7356 39.4783 56.5205 39.647 56.854C40.1863 57.9199 41.7948 57.9199 42.3341 56.854C42.6249 56.2789 42.654 51.1828 42.3701 50.5458C42.0272 49.776 40.9884 49.46 40.2244 49.8929ZM48.0584 49.8929C47.3516 50.2934 47.2692 50.6815 47.2633 53.6417C47.2592 55.7356 47.3123 56.5205 47.481 56.854C48.0203 57.9199 49.6288 57.9199 50.1681 56.854C50.4589 56.2789 50.4881 51.1828 50.2042 50.5458C49.8612 49.776 48.8224 49.46 48.0584 49.8929ZM55.8924 49.8929C55.1857 50.2934 55.1032 50.6815 55.0973 53.6417C55.0932 55.7356 55.1463 56.5205 55.3151 56.854C55.8544 57.9199 57.4629 57.9199 58.0022 56.854C58.293 56.2789 58.3221 51.1828 58.0382 50.5458C57.6952 49.776 56.6564 49.46 55.8924 49.8929ZM24.5563 62.0662C23.8495 62.4666 23.7671 62.8547 23.7612 65.8149C23.7571 67.9089 23.8102 68.6938 23.979 69.0272C24.5183 70.0932 26.1267 70.0932 26.666 69.0272C26.9568 68.4522 26.986 63.3561 26.7021 62.7191C26.3591 61.9493 25.3203 61.6333 24.5563 62.0662ZM32.3904 62.0662C31.6836 62.4666 31.6012 62.8547 31.5952 65.8149C31.5911 67.9089 31.6442 68.6938 31.813 69.0272C32.3523 70.0932 33.9608 70.0932 34.5001 69.0272C34.7909 68.4522 34.82 63.3561 34.5361 62.7191C34.1931 61.9493 33.1543 61.6333 32.3904 62.0662ZM40.2244 62.0662C39.5176 62.4666 39.4352 62.8547 39.4292 65.8149C39.4252 67.9089 39.4783 68.6938 39.647 69.0272C40.1863 70.0932 41.7948 70.0932 42.3341 69.0272C42.6249 68.4522 42.654 63.3561 42.3701 62.7191C42.0272 61.9493 40.9884 61.6333 40.2244 62.0662ZM48.0584 62.0662C47.3516 62.4666 47.2692 62.8547 47.2633 65.8149C47.2592 67.9089 47.3123 68.6938 47.481 69.0272C48.0203 70.0932 49.6288 70.0932 50.1681 69.0272C50.4589 68.4522 50.4881 63.3561 50.2042 62.7191C49.8612 61.9493 48.8224 61.6333 48.0584 62.0662ZM55.8924 62.0662C55.1857 62.4666 55.1032 62.8547 55.0973 65.8149C55.0932 67.9089 55.1463 68.6938 55.3151 69.0272C55.8544 70.0932 57.4629 70.0932 58.0022 69.0272C58.293 68.4522 58.3221 63.3561 58.0382 62.7191C57.6952 61.9493 56.6564 61.6333 55.8924 62.0662ZM24.5563 74.2395C23.8495 74.6399 23.7671 75.028 23.7612 77.9882C23.7571 80.0822 23.8102 80.8671 23.979 81.2005C24.5183 82.2665 26.1267 82.2665 26.666 81.2005C26.9568 80.6255 26.986 75.5294 26.7021 74.8924C26.3591 74.1226 25.3203 73.8065 24.5563 74.2395ZM32.3904 74.2395C31.6836 74.6399 31.6012 75.028 31.5952 77.9882C31.5911 80.0822 31.6442 80.8671 31.813 81.2005C32.3523 82.2665 33.9608 82.2665 34.5001 81.2005C34.7909 80.6255 34.82 75.5294 34.5361 74.8924C34.1931 74.1226 33.1543 73.8065 32.3904 74.2395ZM40.2244 74.2395C39.5176 74.6399 39.4352 75.028 39.4292 77.9882C39.4252 80.0822 39.4783 80.8671 39.647 81.2005C40.1863 82.2665 41.7948 82.2665 42.3341 81.2005C42.6249 80.6255 42.654 75.5294 42.3701 74.8924C42.0272 74.1226 40.9884 73.8065 40.2244 74.2395ZM48.0584 74.2395C47.3516 74.6399 47.2692 75.028 47.2633 77.9882C47.2592 80.0822 47.3123 80.8671 47.481 81.2005C48.0203 82.2665 49.6288 82.2665 50.1681 81.2005C50.4589 80.6255 50.4881 75.5294 50.2042 74.8924C49.8612 74.1226 48.8224 73.8065 48.0584 74.2395ZM55.8924 74.2395C55.1857 74.6399 55.1032 75.028 55.0973 77.9882C55.0932 80.0822 55.1463 80.8671 55.3151 81.2005C55.8544 82.2665 57.4629 82.2665 58.0022 81.2005C58.293 80.6255 58.3221 75.5294 58.0382 74.8924C57.6952 74.1226 56.6564 73.8065 55.8924 74.2395ZM41.0689 24.1189C44.8552 24.1171 46.8382 24.0578 47.1011 23.9385C47.4319 23.7884 47.639 23.8358 48.4329 24.2433C50.7052 25.4097 53.1775 27.6068 54.623 29.7444C56.0549 31.8619 57.2198 34.8501 57.5047 37.1356L57.6095 37.9766H48.6298H26.1764H24.3716L24.4764 37.1356C24.642 35.8059 25.2796 33.6871 25.944 32.2574C27.5112 28.8855 30.1473 26.0754 33.3695 24.3422C34.3492 23.815 34.5091 23.774 34.9441 23.9385C35.2745 24.0633 37.2208 24.1206 41.0689 24.1189ZM62.5754 41.7305C62.1792 41.1644 60.952 41.1801 50.669 41.1801H27.9811H24.1372C19.9612 41.1801 19.6046 41.244 19.2425 42.0565C18.8731 42.8854 19.1753 43.8487 19.9126 44.1921C20.2246 44.3374 25.3043 44.3835 41.0058 44.3835C58.5997 44.3835 61.7525 44.3494 62.1197 44.1553C62.8408 43.7741 63.1049 42.8784 62.7386 42.0565C62.6825 41.9306 62.64 41.8228 62.5754 41.7305Z" fill="#3B4040"/>
<path d="M31.5229 21.7019L31.4454 21.5735L31.4454 21.5735L31.5229 21.7019ZM31.0405 22.1685C31.2448 22.0452 31.4373 21.9289 31.6005 21.8303L31.4454 21.5735C31.2822 21.6721 31.0897 21.7884 30.8855 21.9117L31.0405 22.1685ZM31.6005 21.8303C31.8853 21.6583 32.0796 21.5409 32.0904 21.5345L31.9366 21.2769C31.925 21.2839 31.7294 21.402 31.4454 21.5735L31.6005 21.8303ZM35.524 0.238732L35.6718 0.499756L35.6719 0.499736L35.524 0.238732ZM34.7288 7.98062L34.4288 7.98037V7.98038L34.7288 7.98062ZM34.7233 14.7446L34.8621 15.0106L35.0232 14.9266L35.0233 14.7449L34.7233 14.7446ZM34.1181 15.0603L33.9793 14.7944L33.9793 14.7944L34.1181 15.0603ZM32.815 16.1696L33.0402 16.3677L33.0402 16.3677L32.815 16.1696ZM31.8246 20.7517L32.1079 20.653L32.1079 20.653L31.8246 20.7517ZM32.0135 21.4057L32.1686 21.6625L32.169 21.6622L32.0135 21.4057ZM30.963 22.0401L31.1181 22.2969L31.1181 22.2969L30.963 22.0401ZM26.4982 25.6771L26.7221 25.8767L26.7221 25.8767L26.4982 25.6771ZM21.3912 36.5893L21.6884 36.63L21.6885 36.63L21.3912 36.5893ZM21.2068 37.9359L21.2345 38.2346L21.4717 38.2126L21.504 37.9766L21.2068 37.9359ZM20.3092 38.0192L20.3369 38.3179L20.3369 38.3179L20.3092 38.0192ZM16.4371 40.6704L16.1667 40.5405L16.1667 40.5405L16.4371 40.6704ZM18.7339 47.1696L18.8622 46.8984L18.8622 46.8984L18.7339 47.1696ZM19.447 47.507L19.3187 47.7781L19.3796 47.807H19.447V47.507ZM62.5341 47.507V47.807H62.6015L62.6624 47.7781L62.5341 47.507ZM63.2472 47.1696L63.1189 46.8984L63.1189 46.8984L63.2472 47.1696ZM64.5335 46.3178L64.7339 46.5411L64.7339 46.5411L64.5335 46.3178ZM65.544 40.6704L65.8144 40.5405L65.8144 40.5405L65.544 40.6704ZM61.6719 38.0192L61.6442 38.3179L61.6442 38.3179L61.6719 38.0192ZM60.7743 37.9359L60.4771 37.9766L60.5094 38.2126L60.7466 38.2346L60.7743 37.9359ZM60.5899 36.5893L60.2927 36.63L60.2927 36.63L60.5899 36.5893ZM49.9676 21.4039L49.8226 21.6666L49.8229 21.6667L49.9676 21.4039ZM50.1565 20.7517L49.8732 20.653L49.8732 20.653L50.1565 20.7517ZM49.1661 16.1696L48.9409 16.3677V16.3677L49.1661 16.1696ZM47.863 15.0603L48.0018 14.7944L48.0018 14.7944L47.863 15.0603ZM47.2578 14.7446H46.9578V14.9265L47.119 15.0106L47.2578 14.7446ZM46.4517 0.243377L46.3114 0.508596L46.3115 0.508605L46.4517 0.243377ZM44.1242 14.591V14.891H44.4242V14.591H44.1242ZM37.8569 14.591H37.5569V14.891H37.8569V14.591ZM37.8569 3.21862V2.91862H37.5569V3.21862H37.8569ZM44.1242 3.21862H44.4242V2.91862H44.1242V3.21862ZM46.7398 18.181L46.9379 17.9558L46.9379 17.9557L46.7398 18.181ZM46.02 20.8361L46.1019 21.1247L46.102 21.1247L46.02 20.8361ZM35.9611 20.8361L35.8791 21.1247L35.8792 21.1247L35.9611 20.8361ZM35.2413 18.181L35.0432 17.9557L35.0432 17.9558L35.2413 18.181ZM35.681 17.7945V17.4945H35.5678L35.4829 17.5692L35.681 17.7945ZM46.3001 17.7945L46.4982 17.5692L46.4133 17.4945H46.3001V17.7945ZM41.0689 24.1189L41.069 24.4189H41.069L41.0689 24.1189ZM47.1011 23.9385L46.9771 23.6653L46.9771 23.6653L47.1011 23.9385ZM48.4329 24.2433L48.5699 23.9764L48.5699 23.9764L48.4329 24.2433ZM54.623 29.7444L54.8715 29.5763L54.8715 29.5763L54.623 29.7444ZM57.5047 37.1356L57.207 37.1727V37.1727L57.5047 37.1356ZM57.6095 37.9766V38.2766H57.9492L57.9072 37.9394L57.6095 37.9766ZM62.7386 42.0565L62.4646 42.1786L62.4646 42.1787L62.7386 42.0565ZM62.1197 44.1553L62.2599 44.4205L62.2599 44.4205L62.1197 44.1553ZM19.9126 44.1921L19.786 44.4641L19.786 44.4641L19.9126 44.1921ZM19.2425 42.0565L19.5165 42.1787L19.5165 42.1786L19.2425 42.0565ZM24.3716 37.9766L24.0739 37.9394L24.0319 38.2766H24.3716V37.9766ZM24.4764 37.1356L24.7741 37.1727L24.7741 37.1727L24.4764 37.1356ZM25.944 32.2574L25.672 32.1309L25.944 32.2574ZM33.3695 24.3422L33.5116 24.6064L33.5116 24.6063L33.3695 24.3422ZM34.9441 23.9385L34.838 24.2191L34.8381 24.2192L34.9441 23.9385ZM24.5563 49.8929L24.7042 50.1539L24.7042 50.1539L24.5563 49.8929ZM23.7612 53.6417L23.4612 53.641V53.6411L23.7612 53.6417ZM23.979 56.854L24.2467 56.7185L24.2466 56.7185L23.979 56.854ZM26.666 56.854L26.9337 56.9894L26.9337 56.9893L26.666 56.854ZM26.7021 50.5458L26.428 50.6679L26.4281 50.6679L26.7021 50.5458ZM32.3904 49.8929L32.5382 50.1539L32.5383 50.1539L32.3904 49.8929ZM31.5952 53.6417L31.2952 53.641V53.6411L31.5952 53.6417ZM31.813 56.854L32.0807 56.7185L32.0807 56.7185L31.813 56.854ZM34.5001 56.854L34.7678 56.9894L34.7678 56.9893L34.5001 56.854ZM34.5361 50.5458L34.2621 50.6679L34.2621 50.6679L34.5361 50.5458ZM40.2244 49.8929L40.3723 50.1539L40.3723 50.1539L40.2244 49.8929ZM39.4292 53.6417L39.1292 53.641V53.6411L39.4292 53.6417ZM39.647 56.854L39.9147 56.7185L39.9147 56.7185L39.647 56.854ZM42.3341 56.854L42.6018 56.9894L42.6018 56.9893L42.3341 56.854ZM42.3701 50.5458L42.0961 50.6679L42.0961 50.6679L42.3701 50.5458ZM48.0584 49.8929L48.2063 50.1539L48.2063 50.1539L48.0584 49.8929ZM47.2633 53.6417L46.9633 53.641V53.6411L47.2633 53.6417ZM47.481 56.854L47.7487 56.7185L47.7487 56.7185L47.481 56.854ZM50.1681 56.854L50.4358 56.9894L50.4358 56.9893L50.1681 56.854ZM50.2042 50.5458L49.9301 50.6679L49.9301 50.6679L50.2042 50.5458ZM55.8924 49.8929L56.0403 50.1539L56.0404 50.1539L55.8924 49.8929ZM55.0973 53.6417L54.7973 53.641V53.6411L55.0973 53.6417ZM55.3151 56.854L55.5828 56.7185L55.5828 56.7185L55.3151 56.854ZM58.0022 56.854L58.2698 56.9894L58.2699 56.9893L58.0022 56.854ZM58.0382 50.5458L57.7642 50.6679L57.7642 50.6679L58.0382 50.5458ZM24.5563 62.0662L24.7042 62.3272L24.7042 62.3272L24.5563 62.0662ZM23.7612 65.8149L23.4612 65.8143V65.8144L23.7612 65.8149ZM23.979 69.0272L24.2467 68.8918L24.2466 68.8918L23.979 69.0272ZM26.666 69.0272L26.9337 69.1627L26.9337 69.1626L26.666 69.0272ZM26.7021 62.7191L26.428 62.8412L26.4281 62.8412L26.7021 62.7191ZM32.3904 62.0662L32.5382 62.3272L32.5383 62.3272L32.3904 62.0662ZM31.5952 65.8149L31.2952 65.8143V65.8144L31.5952 65.8149ZM31.813 69.0272L32.0807 68.8918L32.0807 68.8918L31.813 69.0272ZM34.5001 69.0272L34.7678 69.1627L34.7678 69.1626L34.5001 69.0272ZM34.5361 62.7191L34.2621 62.8412L34.2621 62.8412L34.5361 62.7191ZM40.2244 62.0662L40.3723 62.3272L40.3723 62.3272L40.2244 62.0662ZM39.4292 65.8149L39.1292 65.8143V65.8144L39.4292 65.8149ZM39.647 69.0272L39.9147 68.8918L39.9147 68.8918L39.647 69.0272ZM42.3341 69.0272L42.6018 69.1627L42.6018 69.1626L42.3341 69.0272ZM42.3701 62.7191L42.0961 62.8412L42.0961 62.8412L42.3701 62.7191ZM48.0584 62.0662L48.2063 62.3272L48.2063 62.3272L48.0584 62.0662ZM47.2633 65.8149L46.9633 65.8143V65.8144L47.2633 65.8149ZM47.481 69.0272L47.7487 68.8918L47.7487 68.8918L47.481 69.0272ZM50.1681 69.0272L50.4358 69.1627L50.4358 69.1626L50.1681 69.0272ZM50.2042 62.7191L49.9301 62.8412L49.9301 62.8412L50.2042 62.7191ZM55.8924 62.0662L56.0403 62.3272L56.0404 62.3272L55.8924 62.0662ZM55.0973 65.8149L54.7973 65.8143V65.8144L55.0973 65.8149ZM55.3151 69.0272L55.5828 68.8918L55.5828 68.8918L55.3151 69.0272ZM58.0022 69.0272L58.2698 69.1627L58.2699 69.1626L58.0022 69.0272ZM58.0382 62.7191L57.7642 62.8412L57.7642 62.8412L58.0382 62.7191ZM24.5563 74.2395L24.7042 74.5005L24.7042 74.5005L24.5563 74.2395ZM23.7612 77.9882L23.4612 77.9876V77.9876L23.7612 77.9882ZM23.979 81.2005L24.2467 81.0651L24.2466 81.0651L23.979 81.2005ZM26.666 81.2005L26.9337 81.336L26.9337 81.3359L26.666 81.2005ZM26.7021 74.8924L26.428 75.0145L26.4281 75.0145L26.7021 74.8924ZM32.3904 74.2395L32.5382 74.5005L32.5383 74.5005L32.3904 74.2395ZM31.5952 77.9882L31.2952 77.9876V77.9876L31.5952 77.9882ZM31.813 81.2005L32.0807 81.0651L32.0807 81.0651L31.813 81.2005ZM34.5001 81.2005L34.7678 81.336L34.7678 81.3359L34.5001 81.2005ZM34.5361 74.8924L34.2621 75.0145L34.2621 75.0145L34.5361 74.8924ZM40.2244 74.2395L40.3723 74.5005L40.3723 74.5005L40.2244 74.2395ZM39.4292 77.9882L39.1292 77.9876V77.9876L39.4292 77.9882ZM39.647 81.2005L39.9147 81.0651L39.9147 81.0651L39.647 81.2005ZM42.3341 81.2005L42.6018 81.336L42.6018 81.3359L42.3341 81.2005ZM42.3701 74.8924L42.0961 75.0145L42.0961 75.0145L42.3701 74.8924ZM48.0584 74.2395L48.2063 74.5005L48.2063 74.5005L48.0584 74.2395ZM47.2633 77.9882L46.9633 77.9876V77.9876L47.2633 77.9882ZM47.481 81.2005L47.7487 81.0651L47.7487 81.0651L47.481 81.2005ZM50.1681 81.2005L50.4358 81.336L50.4358 81.3359L50.1681 81.2005ZM50.2042 74.8924L49.9301 75.0145L49.9301 75.0145L50.2042 74.8924ZM55.8924 74.2395L56.0403 74.5005L56.0404 74.5005L55.8924 74.2395ZM55.0973 77.9882L54.7973 77.9876V77.9876L55.0973 77.9882ZM55.3151 81.2005L55.5828 81.0651L55.5828 81.0651L55.3151 81.2005ZM58.0022 81.2005L58.2698 81.336L58.2699 81.3359L58.0022 81.2005ZM58.0382 74.8924L57.7642 75.0145L57.7642 75.0145L58.0382 74.8924ZM31.5229 21.7019L31.3679 21.4451L31.3678 21.4451L31.5229 21.7019ZM62.5754 41.7305L62.3296 41.9025L62.5754 41.7305ZM35.3761 -0.0222921C35.1834 0.0868986 34.9702 0.20651 34.8144 0.461571C34.6666 0.703433 34.5876 1.03628 34.5367 1.532C34.4345 2.52724 34.4318 4.37363 34.4288 7.98037L35.0288 7.98087C35.0318 4.35219 35.0354 2.54933 35.1336 1.59331C35.1829 1.1134 35.2526 0.895134 35.3264 0.77436C35.3921 0.666786 35.4733 0.612247 35.6718 0.499756L35.3761 -0.0222921ZM34.4288 7.98038L34.4233 14.7444L35.0233 14.7449L35.0288 7.98086L34.4288 7.98038ZM34.5846 14.4787L33.9793 14.7944L34.2568 15.3263L34.8621 15.0106L34.5846 14.4787ZM33.9793 14.7944C33.6009 14.9918 32.9861 15.5207 32.5897 15.9714L33.0402 16.3677C33.4116 15.9454 33.9697 15.4761 34.2568 15.3263L33.9793 14.7944ZM32.5897 15.9714C31.4048 17.3187 30.9816 19.244 31.5413 20.8504L32.1079 20.653C31.6253 19.2679 31.9859 17.5665 33.0402 16.3677L32.5897 15.9714ZM31.5413 20.8504C31.6009 21.0214 31.6507 21.1769 31.6831 21.2888C31.6995 21.3457 31.71 21.3865 31.7152 21.4108C31.7181 21.4244 31.7174 21.4241 31.7167 21.4154C31.7164 21.4129 31.7145 21.3935 31.7176 21.3667C31.7191 21.3536 31.7231 21.3255 31.7365 21.292C31.7492 21.2606 31.7819 21.1953 31.858 21.1491L32.169 21.6622C32.2463 21.6154 32.2799 21.5489 32.2933 21.5157C32.3074 21.4804 32.312 21.4501 32.3138 21.4341C32.3174 21.4017 32.3154 21.3745 32.3143 21.3622C32.3118 21.334 32.3064 21.3062 32.302 21.2853C32.2924 21.2405 32.2773 21.1839 32.2595 21.1222C32.2233 20.9971 32.1699 20.831 32.1079 20.653L31.5413 20.8504ZM30.8079 21.7833C29.2929 22.6983 27.322 24.3025 26.2743 25.4774L26.7221 25.8767C27.7251 24.7521 29.6477 23.1849 31.1181 22.2969L30.8079 21.7833ZM26.2743 25.4774C23.5233 28.562 21.6351 32.5942 21.094 36.5486L21.6885 36.63C22.2128 32.7983 24.0473 28.8758 26.7221 25.8767L26.2743 25.4774ZM21.094 36.5486L20.9096 37.8952L21.504 37.9766L21.6884 36.63L21.094 36.5486ZM21.1791 37.6372L20.2815 37.7204L20.3369 38.3179L21.2345 38.2346L21.1791 37.6372ZM20.2815 37.7204C18.4237 37.8926 16.958 38.8931 16.1667 40.5405L16.7076 40.8003C17.4047 39.3489 18.6822 38.4712 20.3369 38.3179L20.2815 37.7204ZM16.1667 40.5405C15.9818 40.9255 15.861 41.2308 15.7897 41.5752C15.719 41.9164 15.7 42.2816 15.7 42.7818H16.3C16.3 42.2915 16.3194 41.9762 16.3772 41.6969C16.4344 41.4209 16.5321 41.1656 16.7076 40.8002L16.1667 40.5405ZM15.7 42.7818C15.7 44.8965 16.7289 46.5532 18.6056 47.4408L18.8622 46.8984C17.2014 46.1129 16.3 44.6715 16.3 42.7818H15.7ZM18.6056 47.4408L19.3187 47.7781L19.5753 47.2358L18.8622 46.8984L18.6056 47.4408ZM19.447 47.807H40.9906V47.207H19.447V47.807ZM40.9906 47.807H62.5341V47.207H40.9906V47.807ZM62.6624 47.7781L63.3755 47.4408L63.1189 46.8984L62.4058 47.2358L62.6624 47.7781ZM63.3755 47.4408C63.7932 47.2432 64.3964 46.8439 64.7339 46.5411L64.3332 46.0945C64.0399 46.3577 63.4855 46.7251 63.1189 46.8984L63.3755 47.4408ZM64.7339 46.5411C66.2918 45.1426 66.7559 42.5007 65.8144 40.5405L65.2735 40.8003C66.1078 42.5372 65.6788 44.8866 64.3331 46.0946L64.7339 46.5411ZM65.8144 40.5405C65.0231 38.8931 63.5574 37.8926 61.6996 37.7204L61.6442 38.3179C63.2989 38.4712 64.5764 39.3489 65.2736 40.8003L65.8144 40.5405ZM61.6996 37.7204L60.802 37.6372L60.7466 38.2346L61.6442 38.3179L61.6996 37.7204ZM61.0715 37.8952L60.8871 36.5486L60.2927 36.63L60.4771 37.9766L61.0715 37.8952ZM60.8871 36.5486C60.0015 30.0767 56.023 24.3936 50.1122 21.1411L49.8229 21.6667C55.5742 24.8315 59.4338 30.3536 60.2927 36.63L60.8871 36.5486ZM50.1125 21.1413C50.194 21.1862 50.2295 21.254 50.2432 21.287C50.2577 21.3217 50.2619 21.351 50.2635 21.3644C50.2666 21.3919 50.2646 21.4118 50.2644 21.4143C50.2636 21.4231 50.2629 21.4237 50.2658 21.41C50.271 21.386 50.2815 21.3453 50.298 21.2885C50.3303 21.1768 50.3802 21.0214 50.4398 20.8504L49.8732 20.653C49.8112 20.8309 49.7578 20.9968 49.7217 21.1215C49.7039 21.1829 49.6888 21.2393 49.6792 21.2839C49.6748 21.3046 49.6694 21.3324 49.6668 21.3604C49.6657 21.3726 49.6636 21.4002 49.6674 21.4332C49.6693 21.4494 49.674 21.4809 49.6892 21.5174C49.7036 21.552 49.7401 21.621 49.8226 21.6666L50.1125 21.1413ZM50.4398 20.8504C50.9995 19.244 50.5764 17.3187 49.3914 15.9714L48.9409 16.3677C49.9952 17.5665 50.3558 19.2679 49.8732 20.653L50.4398 20.8504ZM49.3914 15.9714C48.995 15.5207 48.3802 14.9918 48.0018 14.7944L47.7243 15.3263C48.0114 15.4761 48.5695 15.9454 48.9409 16.3677L49.3914 15.9714ZM48.0018 14.7944L47.3965 14.4787L47.119 15.0106L47.7243 15.3263L48.0018 14.7944ZM47.5578 14.7446V8.02819H46.9578V14.7446H47.5578ZM47.5578 8.02819C47.5578 4.43021 47.5544 2.56676 47.4496 1.5551C47.3974 1.05141 47.3168 0.711179 47.1676 0.465455C47.0088 0.203881 46.7927 0.0843221 46.5919 -0.0218513L46.3115 0.508605C46.5059 0.61138 46.5882 0.667233 46.6547 0.776783C46.7308 0.902184 46.8022 1.12879 46.8528 1.6169C46.9534 2.58885 46.9578 4.40886 46.9578 8.02819H47.5578ZM46.5919 -0.021842C46.5054 -0.0675368 46.3859 -0.092061 46.2846 -0.109069C46.1692 -0.128422 46.0248 -0.145603 45.8584 -0.161053C45.5248 -0.192025 45.0858 -0.217569 44.5793 -0.237956C43.5653 -0.278769 42.2673 -0.299437 40.9723 -0.299989C39.6773 -0.30054 38.3819 -0.280977 37.3731 -0.241022C36.8692 -0.221065 36.4333 -0.195888 36.1035 -0.165174C35.939 -0.149856 35.7964 -0.13276 35.6829 -0.113396C35.5856 -0.0967847 35.4636 -0.0718724 35.3761 -0.0222723L35.6719 0.499736C35.6552 0.509192 35.6758 0.496502 35.7839 0.478049C35.8759 0.462348 36.0015 0.446918 36.1591 0.432242C36.4734 0.40297 36.8972 0.378297 37.3968 0.358508C38.395 0.318971 39.682 0.299462 40.9721 0.300011C42.2621 0.300561 43.5517 0.321168 44.5552 0.361559C45.0574 0.381774 45.4845 0.406814 45.8029 0.436377C45.9625 0.451194 46.0906 0.466769 46.1852 0.482656C46.2939 0.500887 46.3218 0.514087 46.3114 0.508596L46.5919 -0.021842ZM43.8242 8.90483V14.591H44.4242V8.90483H43.8242ZM44.1242 14.291H40.9906V14.891H44.1242V14.291ZM40.9906 14.291H37.8569V14.891H40.9906V14.291ZM38.1569 14.591V8.90483H37.5569V14.591H38.1569ZM38.1569 8.90483V3.21862H37.5569V8.90483H38.1569ZM37.8569 3.51862H40.9906V2.91862H37.8569V3.51862ZM40.9906 3.51862H44.1242V2.91862H40.9906V3.51862ZM43.8242 3.21862V8.90483H44.4242V3.21862H43.8242ZM46.5417 18.4063C46.7077 18.5523 46.7767 18.6439 46.8159 18.7425C46.8584 18.8493 46.8794 18.9975 46.8794 19.2854H47.4794C47.4794 18.9855 47.4606 18.7398 47.3734 18.5206C47.2828 18.2931 47.132 18.1264 46.9379 17.9558L46.5417 18.4063ZM46.8794 19.2854C46.8794 19.6766 46.8008 19.9346 46.665 20.1162C46.5296 20.2973 46.3073 20.4426 45.938 20.5475L46.102 21.1247C46.5474 20.9981 46.9049 20.7973 47.1455 20.4755C47.3857 20.1543 47.4794 19.7526 47.4794 19.2854H46.8794ZM45.9381 20.5475C45.9379 20.5475 45.9382 20.5475 45.938 20.5475C45.9378 20.5476 45.9381 20.5475 45.9378 20.5476C45.9377 20.5476 45.9374 20.5477 45.9371 20.5477C45.9365 20.5479 45.9357 20.5481 45.9345 20.5484C45.9322 20.5489 45.929 20.5497 45.9249 20.5505C45.9166 20.5522 45.9057 20.5542 45.8918 20.5564C45.864 20.5608 45.8279 20.5655 45.783 20.5705C45.6933 20.5803 45.5758 20.5901 45.4324 20.5995C45.1459 20.6184 44.7649 20.6355 44.3137 20.6499C43.4116 20.6786 42.2364 20.6963 40.9906 20.6963V21.2963C42.2413 21.2963 43.4231 21.2786 44.3328 21.2496C44.7874 21.2351 45.1759 21.2178 45.4719 21.1982C45.6198 21.1885 45.7468 21.178 45.8485 21.1669C45.9438 21.1564 46.0357 21.1435 46.1019 21.1247L45.9381 20.5475ZM40.9906 20.6963C39.7447 20.6963 38.5695 20.6786 37.6674 20.6499C37.2162 20.6355 36.8352 20.6184 36.5487 20.5995C36.4053 20.5901 36.2878 20.5803 36.1981 20.5705C36.1532 20.5655 36.1171 20.5608 36.0893 20.5564C36.0754 20.5542 36.0645 20.5522 36.0562 20.5505C36.0521 20.5497 36.0489 20.5489 36.0466 20.5484C36.0455 20.5481 36.0446 20.5479 36.044 20.5477C36.0437 20.5477 36.0434 20.5476 36.0433 20.5476C36.0431 20.5475 36.0433 20.5476 36.0431 20.5475C36.0429 20.5475 36.0432 20.5475 36.043 20.5475L35.8792 21.1247C35.9454 21.1435 36.0373 21.1564 36.1327 21.1669C36.2344 21.178 36.3614 21.1885 36.5092 21.1982C36.8052 21.2178 37.1938 21.2351 37.6483 21.2496C38.558 21.2786 39.7398 21.2963 40.9906 21.2963V20.6963ZM36.0431 20.5475C35.6738 20.4426 35.4515 20.2973 35.3161 20.1162C35.1803 19.9346 35.1017 19.6766 35.1017 19.2854H34.5017C34.5017 19.7526 34.5954 20.1543 34.8356 20.4755C35.0762 20.7973 35.4337 20.9981 35.8791 21.1247L36.0431 20.5475ZM35.1017 19.2854C35.1017 18.9975 35.1227 18.8493 35.1652 18.7425C35.2044 18.6439 35.2734 18.5523 35.4394 18.4063L35.0432 17.9558C34.8492 18.1264 34.6983 18.2931 34.6077 18.5206C34.5205 18.7398 34.5017 18.9855 34.5017 19.2854H35.1017ZM35.4394 18.4063L35.879 18.0198L35.4829 17.5692L35.0432 17.9557L35.4394 18.4063ZM35.681 18.0945H40.9906V17.4945H35.681V18.0945ZM40.9906 18.0945H46.3001V17.4945H40.9906V18.0945ZM46.1021 18.0198L46.5417 18.4063L46.9379 17.9557L46.4982 17.5692L46.1021 18.0198ZM41.069 24.4189C42.963 24.418 44.4089 24.4027 45.4152 24.3727C45.918 24.3576 46.3145 24.3388 46.6038 24.3159C46.7482 24.3044 46.8697 24.2916 46.9663 24.2771C47.0526 24.2642 47.1501 24.2457 47.2251 24.2117L46.9771 23.6653C46.9864 23.6611 46.9644 23.6707 46.8771 23.6838C46.8001 23.6954 46.6941 23.7068 46.5564 23.7177C46.2816 23.7395 45.8965 23.758 45.3973 23.7729C44.3999 23.8027 42.9611 23.818 41.0688 23.8189L41.069 24.4189ZM47.2251 24.2117C47.3427 24.1583 47.4099 24.1476 47.5264 24.1743C47.6762 24.2086 47.8936 24.3038 48.2959 24.5102L48.5699 23.9764C48.1782 23.7754 47.8952 23.6432 47.6602 23.5894C47.392 23.528 47.1902 23.5686 46.9771 23.6653L47.2251 24.2117ZM48.2959 24.5102C50.5229 25.6533 52.9569 27.8162 54.3745 29.9124L54.8715 29.5763C53.398 27.3974 50.8876 25.1661 48.5699 23.9764L48.2959 24.5102ZM54.3745 29.9124C55.7829 31.9951 56.9286 34.9391 57.207 37.1727L57.8024 37.0985C57.5111 34.7611 56.327 31.7286 54.8715 29.5763L54.3745 29.9124ZM57.207 37.1727L57.3118 38.0137L57.9072 37.9394L57.8024 37.0985L57.207 37.1727ZM57.6095 37.6766H48.6298V38.2766H57.6095V37.6766ZM62.4646 42.1787C62.7771 42.8798 62.5393 43.5941 61.9795 43.8901L62.2599 44.4205C63.1422 43.9541 63.4328 42.877 63.0126 41.9344L62.4646 42.1787ZM61.9795 43.8901C61.9881 43.8855 61.9503 43.9033 61.7914 43.9232C61.6469 43.9413 61.4337 43.9581 61.1252 43.9732C60.5093 44.0034 59.5359 44.0258 58.0195 44.0422C54.9881 44.075 49.8033 44.0835 41.0058 44.0835V44.6835C49.8022 44.6835 54.9907 44.675 58.026 44.6422C59.5429 44.6258 60.5262 44.6033 61.1546 44.5725C61.4682 44.5571 61.699 44.5394 61.866 44.5185C62.0184 44.4994 62.1595 44.4736 62.2599 44.4205L61.9795 43.8901ZM41.0058 44.0835C33.1549 44.0835 27.9609 44.072 24.6909 44.0423C23.0555 44.0275 21.9035 44.0081 21.1417 43.9835C20.7604 43.9712 20.4802 43.9576 20.2873 43.9429C20.1905 43.9356 20.1197 43.9282 20.0709 43.9212C20.0092 43.9124 20.0132 43.908 20.0393 43.9202L19.786 44.4641C19.8511 44.4944 19.9313 44.5074 19.986 44.5152C20.0535 44.5249 20.1391 44.5334 20.2418 44.5412C20.4477 44.5569 20.7382 44.5708 21.1223 44.5832C21.8914 44.6081 23.0492 44.6275 24.6854 44.6423C27.9586 44.672 33.1552 44.6835 41.0058 44.6835V44.0835ZM20.0393 43.9202C19.477 43.6583 19.2011 42.8863 19.5165 42.1787L18.9685 41.9344C18.545 42.8846 18.8736 44.0392 19.786 44.4641L20.0393 43.9202ZM19.5165 42.1786C19.6016 41.9878 19.668 41.8851 19.7608 41.8106C19.8549 41.735 20.0079 41.6634 20.3125 41.6089C20.9359 41.4972 22.0355 41.4801 24.1372 41.4801V40.8801C22.0629 40.8801 20.8962 40.8948 20.2068 41.0183C19.8549 41.0813 19.59 41.1781 19.3848 41.343C19.1784 41.5089 19.0645 41.719 18.9685 41.9344L19.5165 42.1786ZM24.1372 41.4801H27.9811V40.8801H24.1372V41.4801ZM26.1764 37.6766H24.3716V38.2766H26.1764V37.6766ZM24.6693 38.0137L24.7741 37.1727L24.1787 37.0985L24.0739 37.9394L24.6693 38.0137ZM24.7741 37.1727C24.9353 35.8788 25.5625 33.7901 26.2161 32.3838L25.672 32.1309C24.9966 33.584 24.3488 35.7329 24.1787 37.0986L24.7741 37.1727ZM26.2161 32.3838C27.7564 29.0697 30.3475 26.3084 33.5116 24.6064L33.2273 24.078C29.9472 25.8424 27.2659 28.7014 25.672 32.1309L26.2161 32.3838ZM33.5116 24.6063C34.0115 24.3374 34.2616 24.2162 34.4356 24.1716C34.5689 24.1374 34.6502 24.1481 34.838 24.2191L35.0502 23.6579C34.8031 23.5644 34.5869 23.5134 34.2866 23.5904C34.0269 23.6569 33.7071 23.8198 33.2273 24.078L33.5116 24.6063ZM34.8381 24.2192C34.9115 24.2469 35.0051 24.265 35.1009 24.279C35.2023 24.2938 35.3277 24.3069 35.4757 24.3186C35.772 24.3421 36.1722 24.3611 36.6785 24.376C37.692 24.4059 39.1442 24.4198 41.069 24.4189L41.0688 23.8189C39.1455 23.8198 37.7005 23.8059 36.6962 23.7763C36.1937 23.7615 35.8049 23.7428 35.5231 23.7205C35.382 23.7093 35.271 23.6975 35.1877 23.6853C35.1461 23.6792 35.1136 23.6734 35.089 23.668C35.0768 23.6654 35.0674 23.663 35.0605 23.6611C35.0571 23.6601 35.0545 23.6593 35.0527 23.6588C35.0509 23.6582 35.05 23.6578 35.0501 23.6579L34.8381 24.2192ZM24.4084 49.6319C24.2171 49.7403 24.0398 49.8632 23.8972 50.0481C23.754 50.2337 23.6632 50.4586 23.6025 50.7451C23.4848 51.2997 23.4641 52.1731 23.4612 53.641L24.0612 53.6423C24.0642 52.15 24.0877 51.3492 24.1894 50.8696C24.2383 50.639 24.3011 50.5069 24.3723 50.4146C24.4441 50.3215 24.5421 50.2458 24.7042 50.1539L24.4084 49.6319ZM23.4612 53.6411C23.4591 54.6883 23.4713 55.4172 23.5059 55.9283C23.5398 56.4273 23.5966 56.7627 23.7113 56.9894L24.2466 56.7185C24.1926 56.6117 24.1385 56.388 24.1046 55.8877C24.0715 55.3995 24.0591 54.689 24.0612 53.6422L23.4612 53.6411ZM23.7113 56.9894C24.3616 58.2748 26.2834 58.2748 26.9337 56.9894L26.3983 56.7185C25.9701 57.5651 24.6749 57.5651 24.2467 56.7185L23.7113 56.9894ZM26.9337 56.9893C26.9955 56.8672 27.0324 56.6769 27.0597 56.4865C27.0892 56.2807 27.1137 56.0239 27.1336 55.7359C27.1733 55.1592 27.1955 54.4418 27.1996 53.7248C27.2037 53.0079 27.1897 52.2866 27.1566 51.7024C27.1401 51.4106 27.1186 51.1492 27.0915 50.938C27.0661 50.7395 27.0318 50.5487 26.9761 50.4237L26.4281 50.6679C26.4433 50.7021 26.4702 50.81 26.4964 51.0143C26.5209 51.2059 26.5415 51.4518 26.5576 51.7363C26.5898 52.3047 26.6036 53.0128 26.5996 53.7214C26.5955 54.43 26.5736 55.1342 26.535 55.6947C26.5156 55.9753 26.4924 56.2159 26.4658 56.4013C26.4524 56.4941 26.4388 56.5695 26.4253 56.6272C26.4186 56.6559 26.4124 56.6782 26.4071 56.6948C26.4015 56.7122 26.3981 56.7189 26.3983 56.7186L26.9337 56.9893ZM26.9761 50.4237C26.5556 49.4799 25.3146 49.1184 24.4084 49.6319L24.7042 50.1539C25.326 49.8016 26.1626 50.0721 26.428 50.6679L26.9761 50.4237ZM32.2425 49.6319C32.0512 49.7403 31.8739 49.8632 31.7313 50.0481C31.588 50.2337 31.4973 50.4586 31.4365 50.7451C31.3188 51.2997 31.2982 52.1731 31.2952 53.641L31.8952 53.6423C31.8982 52.15 31.9217 51.3492 32.0234 50.8696C32.0724 50.639 32.1351 50.5069 32.2063 50.4146C32.2781 50.3215 32.3762 50.2458 32.5382 50.1539L32.2425 49.6319ZM31.2952 53.6411C31.2932 54.6883 31.3053 55.4172 31.34 55.9283C31.3738 56.4273 31.4306 56.7627 31.5453 56.9894L32.0807 56.7185C32.0266 56.6117 31.9725 56.388 31.9386 55.8877C31.9055 55.3995 31.8932 54.689 31.8952 53.6422L31.2952 53.6411ZM31.5453 56.9894C32.1956 58.2748 34.1174 58.2748 34.7678 56.9894L34.2324 56.7185C33.8041 57.5651 32.509 57.5651 32.0807 56.7185L31.5453 56.9894ZM34.7678 56.9893C34.8295 56.8672 34.8664 56.6769 34.8937 56.4865C34.9232 56.2807 34.9477 56.0239 34.9676 55.7359C35.0073 55.1592 35.0295 54.4418 35.0336 53.7248C35.0377 53.0079 35.0238 52.2866 34.9907 51.7024C34.9741 51.4106 34.9526 51.1492 34.9256 50.938C34.9001 50.7395 34.8658 50.5487 34.8101 50.4237L34.2621 50.6679C34.2773 50.7021 34.3042 50.81 34.3304 51.0143C34.355 51.2059 34.3755 51.4518 34.3916 51.7363C34.4238 52.3047 34.4376 53.0128 34.4336 53.7214C34.4295 54.43 34.4076 55.1342 34.369 55.6947C34.3497 55.9753 34.3264 56.2159 34.2998 56.4013C34.2865 56.4941 34.2728 56.5695 34.2594 56.6272C34.2527 56.6559 34.2465 56.6782 34.2411 56.6948C34.2355 56.7122 34.2322 56.7189 34.2323 56.7186L34.7678 56.9893ZM34.8101 50.4237C34.3896 49.4799 33.1486 49.1184 32.2424 49.6319L32.5383 50.1539C33.16 49.8016 33.9966 50.0721 34.2621 50.6679L34.8101 50.4237ZM40.0765 49.6319C39.8852 49.7403 39.7079 49.8632 39.5653 50.0481C39.4221 50.2337 39.3313 50.4586 39.2705 50.7451C39.1529 51.2997 39.1322 52.1731 39.1292 53.641L39.7292 53.6423C39.7322 52.15 39.7557 51.3492 39.8575 50.8696C39.9064 50.639 39.9691 50.5069 40.0403 50.4146C40.1121 50.3215 40.2102 50.2458 40.3723 50.1539L40.0765 49.6319ZM39.1292 53.6411C39.1272 54.6883 39.1394 55.4172 39.174 55.9283C39.2078 56.4273 39.2646 56.7627 39.3793 56.9894L39.9147 56.7185C39.8607 56.6117 39.8065 56.388 39.7726 55.8877C39.7395 55.3995 39.7272 54.689 39.7292 53.6422L39.1292 53.6411ZM39.3793 56.9894C40.0296 58.2748 41.9515 58.2748 42.6018 56.9894L42.0664 56.7185C41.6381 57.5651 40.343 57.5651 39.9147 56.7185L39.3793 56.9894ZM42.6018 56.9893C42.6636 56.8672 42.7004 56.6769 42.7277 56.4865C42.7573 56.2807 42.7818 56.0239 42.8016 55.7359C42.8414 55.1592 42.8635 54.4418 42.8676 53.7248C42.8717 53.0079 42.8578 52.2866 42.8247 51.7024C42.8082 51.4106 42.7866 51.1492 42.7596 50.938C42.7341 50.7395 42.6999 50.5487 42.6441 50.4237L42.0961 50.6679C42.1114 50.7021 42.1383 50.81 42.1644 51.0143C42.189 51.2059 42.2095 51.4518 42.2256 51.7363C42.2578 52.3047 42.2717 53.0128 42.2676 53.7214C42.2636 54.43 42.2417 55.1342 42.203 55.6947C42.1837 55.9753 42.1604 56.2159 42.1338 56.4013C42.1205 56.4941 42.1069 56.5695 42.0934 56.6272C42.0867 56.6559 42.0805 56.6782 42.0751 56.6948C42.0695 56.7122 42.0662 56.7189 42.0664 56.7186L42.6018 56.9893ZM42.6442 50.4237C42.2237 49.4799 40.9827 49.1184 40.0765 49.6319L40.3723 50.1539C40.9941 49.8016 41.8306 50.0721 42.0961 50.6679L42.6442 50.4237ZM47.9105 49.6319C47.7192 49.7403 47.5419 49.8632 47.3993 50.0481C47.2561 50.2337 47.1653 50.4586 47.1046 50.7451C46.9869 51.2997 46.9662 52.1731 46.9633 53.641L47.5633 53.6423C47.5663 52.15 47.5898 51.3492 47.6915 50.8696C47.7404 50.639 47.8032 50.5069 47.8744 50.4146C47.9462 50.3215 48.0442 50.2458 48.2063 50.1539L47.9105 49.6319ZM46.9633 53.6411C46.9612 54.6883 46.9734 55.4172 47.008 55.9283C47.0419 56.4273 47.0987 56.7627 47.2134 56.9894L47.7487 56.7185C47.6947 56.6117 47.6406 56.388 47.6067 55.8877C47.5736 55.3995 47.5612 54.689 47.5633 53.6422L46.9633 53.6411ZM47.2134 56.9894C47.8637 58.2748 49.7855 58.2748 50.4358 56.9894L49.9004 56.7185C49.4722 57.5651 48.177 57.5651 47.7487 56.7185L47.2134 56.9894ZM50.4358 56.9893C50.4976 56.8672 50.5345 56.6769 50.5618 56.4865C50.5913 56.2807 50.6158 56.0239 50.6357 55.7359C50.6754 55.1592 50.6976 54.4418 50.7017 53.7248C50.7057 53.0079 50.6918 52.2866 50.6587 51.7024C50.6422 51.4106 50.6207 51.1492 50.5936 50.938C50.5682 50.7395 50.5339 50.5487 50.4782 50.4237L49.9301 50.6679C49.9454 50.7021 49.9723 50.81 49.9985 51.0143C50.023 51.2059 50.0436 51.4518 50.0597 51.7363C50.0919 52.3047 50.1057 53.0128 50.1017 53.7214C50.0976 54.43 50.0757 55.1342 50.0371 55.6947C50.0177 55.9753 49.9945 56.2159 49.9678 56.4013C49.9545 56.4941 49.9409 56.5695 49.9274 56.6272C49.9207 56.6559 49.9145 56.6782 49.9092 56.6948C49.9035 56.7122 49.9002 56.7189 49.9004 56.7186L50.4358 56.9893ZM50.4782 50.4237C50.0577 49.4799 48.8167 49.1184 47.9105 49.6319L48.2063 50.1539C48.8281 49.8016 49.6647 50.0721 49.9301 50.6679L50.4782 50.4237ZM55.7446 49.6319C55.5532 49.7403 55.376 49.8632 55.2333 50.0481C55.0901 50.2337 54.9994 50.4586 54.9386 50.7451C54.8209 51.2997 54.8002 52.1731 54.7973 53.641L55.3973 53.6423C55.4003 52.15 55.4238 51.3492 55.5255 50.8696C55.5744 50.639 55.6372 50.5069 55.7084 50.4146C55.7802 50.3215 55.8783 50.2458 56.0403 50.1539L55.7446 49.6319ZM54.7973 53.6411C54.7953 54.6883 54.8074 55.4172 54.8421 55.9283C54.8759 56.4273 54.9327 56.7627 55.0474 56.9894L55.5828 56.7185C55.5287 56.6117 55.4746 56.388 55.4407 55.8877C55.4076 55.3995 55.3953 54.689 55.3973 53.6422L54.7973 53.6411ZM55.0474 56.9894C55.6977 58.2748 57.6195 58.2748 58.2698 56.9894L57.7345 56.7185C57.3062 57.5651 56.0111 57.5651 55.5828 56.7185L55.0474 56.9894ZM58.2699 56.9893C58.3316 56.8672 58.3685 56.6769 58.3958 56.4865C58.4253 56.2807 58.4498 56.0239 58.4697 55.7359C58.5094 55.1592 58.5316 54.4418 58.5357 53.7248C58.5398 53.0079 58.5258 52.2866 58.4927 51.7024C58.4762 51.4106 58.4547 51.1492 58.4276 50.938C58.4022 50.7395 58.3679 50.5487 58.3122 50.4237L57.7642 50.6679C57.7794 50.7021 57.8063 50.81 57.8325 51.0143C57.8571 51.2059 57.8776 51.4518 57.8937 51.7363C57.9259 52.3047 57.9397 53.0128 57.9357 53.7214C57.9316 54.43 57.9097 55.1342 57.8711 55.6947C57.8518 55.9753 57.8285 56.2159 57.8019 56.4013C57.7886 56.4941 57.7749 56.5695 57.7615 56.6272C57.7547 56.6559 57.7486 56.6782 57.7432 56.6948C57.7376 56.7122 57.7343 56.7189 57.7344 56.7186L58.2699 56.9893ZM58.3122 50.4237C57.8917 49.4799 56.6507 49.1184 55.7445 49.6319L56.0404 50.1539C56.6621 49.8016 57.4987 50.0721 57.7642 50.6679L58.3122 50.4237ZM24.4084 61.8052C24.2171 61.9136 24.0398 62.0365 23.8972 62.2213C23.754 62.407 23.6632 62.6319 23.6025 62.9184C23.4848 63.473 23.4641 64.3464 23.4612 65.8143L24.0612 65.8155C24.0642 64.3233 24.0877 63.5225 24.1894 63.0429C24.2383 62.8123 24.3011 62.6801 24.3723 62.5879C24.4441 62.4948 24.5421 62.419 24.7042 62.3272L24.4084 61.8052ZM23.4612 65.8144C23.4591 66.8616 23.4713 67.5905 23.5059 68.1016C23.5398 68.6005 23.5966 68.936 23.7113 69.1627L24.2466 68.8918C24.1926 68.785 24.1385 68.5613 24.1046 68.061C24.0715 67.5727 24.0591 66.8623 24.0612 65.8155L23.4612 65.8144ZM23.7113 69.1627C24.3616 70.4481 26.2834 70.4481 26.9337 69.1627L26.3983 68.8918C25.9701 69.7383 24.6749 69.7383 24.2467 68.8918L23.7113 69.1627ZM26.9337 69.1626C26.9955 69.0405 27.0324 68.8502 27.0597 68.6598C27.0892 68.454 27.1137 68.1972 27.1336 67.9092C27.1733 67.3325 27.1955 66.6151 27.1996 65.8981C27.2037 65.1812 27.1897 64.4599 27.1566 63.8756C27.1401 63.5838 27.1186 63.3225 27.0915 63.1113C27.0661 62.9127 27.0318 62.722 26.9761 62.597L26.4281 62.8412C26.4433 62.8754 26.4702 62.9833 26.4964 63.1876C26.5209 63.3792 26.5415 63.625 26.5576 63.9096C26.5898 64.4779 26.6036 65.1861 26.5996 65.8947C26.5955 66.6033 26.5736 67.3075 26.535 67.868C26.5156 68.1486 26.4924 68.3892 26.4658 68.5746C26.4524 68.6674 26.4388 68.7427 26.4253 68.8005C26.4186 68.8292 26.4124 68.8515 26.4071 68.8681C26.4015 68.8855 26.3981 68.8922 26.3983 68.8919L26.9337 69.1626ZM26.9761 62.597C26.5556 61.6532 25.3146 61.2917 24.4084 61.8052L24.7042 62.3272C25.326 61.9748 26.1626 62.2453 26.428 62.8412L26.9761 62.597ZM32.2425 61.8052C32.0512 61.9136 31.8739 62.0365 31.7313 62.2213C31.588 62.407 31.4973 62.6319 31.4365 62.9184C31.3188 63.473 31.2982 64.3464 31.2952 65.8143L31.8952 65.8155C31.8982 64.3233 31.9217 63.5225 32.0234 63.0429C32.0724 62.8123 32.1351 62.6801 32.2063 62.5879C32.2781 62.4948 32.3762 62.419 32.5382 62.3272L32.2425 61.8052ZM31.2952 65.8144C31.2932 66.8616 31.3053 67.5905 31.34 68.1016C31.3738 68.6005 31.4306 68.936 31.5453 69.1627L32.0807 68.8918C32.0266 68.785 31.9725 68.5613 31.9386 68.061C31.9055 67.5727 31.8932 66.8623 31.8952 65.8155L31.2952 65.8144ZM31.5453 69.1627C32.1956 70.4481 34.1174 70.4481 34.7678 69.1627L34.2324 68.8918C33.8041 69.7383 32.509 69.7383 32.0807 68.8918L31.5453 69.1627ZM34.7678 69.1626C34.8295 69.0405 34.8664 68.8502 34.8937 68.6598C34.9232 68.454 34.9477 68.1972 34.9676 67.9092C35.0073 67.3325 35.0295 66.6151 35.0336 65.8981C35.0377 65.1812 35.0238 64.4599 34.9907 63.8756C34.9741 63.5838 34.9526 63.3225 34.9256 63.1113C34.9001 62.9127 34.8658 62.722 34.8101 62.597L34.2621 62.8412C34.2773 62.8754 34.3042 62.9833 34.3304 63.1876C34.355 63.3792 34.3755 63.625 34.3916 63.9096C34.4238 64.4779 34.4376 65.1861 34.4336 65.8947C34.4295 66.6033 34.4076 67.3075 34.369 67.868C34.3497 68.1486 34.3264 68.3892 34.2998 68.5746C34.2865 68.6674 34.2728 68.7427 34.2594 68.8005C34.2527 68.8292 34.2465 68.8515 34.2411 68.8681C34.2355 68.8855 34.2322 68.8922 34.2323 68.8919L34.7678 69.1626ZM34.8101 62.597C34.3896 61.6532 33.1486 61.2917 32.2424 61.8052L32.5383 62.3272C33.16 61.9748 33.9966 62.2453 34.2621 62.8412L34.8101 62.597ZM40.0765 61.8052C39.8852 61.9136 39.7079 62.0365 39.5653 62.2213C39.4221 62.407 39.3313 62.6319 39.2705 62.9184C39.1529 63.473 39.1322 64.3464 39.1292 65.8143L39.7292 65.8155C39.7322 64.3233 39.7557 63.5225 39.8575 63.0429C39.9064 62.8123 39.9691 62.6801 40.0403 62.5879C40.1121 62.4948 40.2102 62.419 40.3723 62.3272L40.0765 61.8052ZM39.1292 65.8144C39.1272 66.8616 39.1394 67.5905 39.174 68.1016C39.2078 68.6005 39.2646 68.936 39.3793 69.1627L39.9147 68.8918C39.8607 68.785 39.8065 68.5613 39.7726 68.061C39.7395 67.5727 39.7272 66.8623 39.7292 65.8155L39.1292 65.8144ZM39.3793 69.1627C40.0296 70.4481 41.9515 70.4481 42.6018 69.1627L42.0664 68.8918C41.6381 69.7383 40.343 69.7383 39.9147 68.8918L39.3793 69.1627ZM42.6018 69.1626C42.6636 69.0405 42.7004 68.8502 42.7277 68.6598C42.7573 68.454 42.7818 68.1972 42.8016 67.9092C42.8414 67.3325 42.8635 66.6151 42.8676 65.8981C42.8717 65.1812 42.8578 64.4599 42.8247 63.8756C42.8082 63.5838 42.7866 63.3225 42.7596 63.1113C42.7341 62.9127 42.6999 62.722 42.6441 62.597L42.0961 62.8412C42.1114 62.8754 42.1383 62.9833 42.1644 63.1876C42.189 63.3792 42.2095 63.625 42.2256 63.9096C42.2578 64.4779 42.2717 65.1861 42.2676 65.8947C42.2636 66.6033 42.2417 67.3075 42.203 67.868C42.1837 68.1486 42.1604 68.3892 42.1338 68.5746C42.1205 68.6674 42.1069 68.7427 42.0934 68.8005C42.0867 68.8292 42.0805 68.8515 42.0751 68.8681C42.0695 68.8855 42.0662 68.8922 42.0664 68.8919L42.6018 69.1626ZM42.6442 62.597C42.2237 61.6532 40.9827 61.2917 40.0765 61.8052L40.3723 62.3272C40.9941 61.9748 41.8306 62.2453 42.0961 62.8412L42.6442 62.597ZM47.9105 61.8052C47.7192 61.9136 47.5419 62.0365 47.3993 62.2213C47.2561 62.407 47.1653 62.6319 47.1046 62.9184C46.9869 63.473 46.9662 64.3464 46.9633 65.8143L47.5633 65.8155C47.5663 64.3233 47.5898 63.5225 47.6915 63.0429C47.7404 62.8123 47.8032 62.6801 47.8744 62.5879C47.9462 62.4948 48.0442 62.419 48.2063 62.3272L47.9105 61.8052ZM46.9633 65.8144C46.9612 66.8616 46.9734 67.5905 47.008 68.1016C47.0419 68.6005 47.0987 68.936 47.2134 69.1627L47.7487 68.8918C47.6947 68.785 47.6406 68.5613 47.6067 68.061C47.5736 67.5727 47.5612 66.8623 47.5633 65.8155L46.9633 65.8144ZM47.2134 69.1627C47.8637 70.4481 49.7855 70.4481 50.4358 69.1627L49.9004 68.8918C49.4722 69.7383 48.177 69.7383 47.7487 68.8918L47.2134 69.1627ZM50.4358 69.1626C50.4976 69.0405 50.5345 68.8502 50.5618 68.6598C50.5913 68.454 50.6158 68.1972 50.6357 67.9092C50.6754 67.3325 50.6976 66.6151 50.7017 65.8981C50.7057 65.1812 50.6918 64.4599 50.6587 63.8756C50.6422 63.5838 50.6207 63.3225 50.5936 63.1113C50.5682 62.9127 50.5339 62.722 50.4782 62.597L49.9301 62.8412C49.9454 62.8754 49.9723 62.9833 49.9985 63.1876C50.023 63.3792 50.0436 63.625 50.0597 63.9096C50.0919 64.4779 50.1057 65.1861 50.1017 65.8947C50.0976 66.6033 50.0757 67.3075 50.0371 67.868C50.0177 68.1486 49.9945 68.3892 49.9678 68.5746C49.9545 68.6674 49.9409 68.7427 49.9274 68.8005C49.9207 68.8292 49.9145 68.8515 49.9092 68.8681C49.9035 68.8855 49.9002 68.8922 49.9004 68.8919L50.4358 69.1626ZM50.4782 62.597C50.0577 61.6532 48.8167 61.2917 47.9105 61.8052L48.2063 62.3272C48.8281 61.9748 49.6647 62.2453 49.9301 62.8412L50.4782 62.597ZM55.7446 61.8052C55.5532 61.9136 55.376 62.0365 55.2333 62.2213C55.0901 62.407 54.9994 62.6319 54.9386 62.9184C54.8209 63.473 54.8002 64.3464 54.7973 65.8143L55.3973 65.8155C55.4003 64.3233 55.4238 63.5225 55.5255 63.0429C55.5744 62.8123 55.6372 62.6801 55.7084 62.5879C55.7802 62.4948 55.8783 62.419 56.0403 62.3272L55.7446 61.8052ZM54.7973 65.8144C54.7953 66.8616 54.8074 67.5905 54.8421 68.1016C54.8759 68.6005 54.9327 68.936 55.0474 69.1627L55.5828 68.8918C55.5287 68.785 55.4746 68.5613 55.4407 68.061C55.4076 67.5727 55.3953 66.8623 55.3973 65.8155L54.7973 65.8144ZM55.0474 69.1627C55.6977 70.4481 57.6195 70.4481 58.2698 69.1627L57.7345 68.8918C57.3062 69.7383 56.0111 69.7383 55.5828 68.8918L55.0474 69.1627ZM58.2699 69.1626C58.3316 69.0405 58.3685 68.8502 58.3958 68.6598C58.4253 68.454 58.4498 68.1972 58.4697 67.9092C58.5094 67.3325 58.5316 66.6151 58.5357 65.8981C58.5398 65.1812 58.5258 64.4599 58.4927 63.8756C58.4762 63.5838 58.4547 63.3225 58.4276 63.1113C58.4022 62.9127 58.3679 62.722 58.3122 62.597L57.7642 62.8412C57.7794 62.8754 57.8063 62.9833 57.8325 63.1876C57.8571 63.3792 57.8776 63.625 57.8937 63.9096C57.9259 64.4779 57.9397 65.1861 57.9357 65.8947C57.9316 66.6033 57.9097 67.3075 57.8711 67.868C57.8518 68.1486 57.8285 68.3892 57.8019 68.5746C57.7886 68.6674 57.7749 68.7427 57.7615 68.8005C57.7547 68.8292 57.7486 68.8515 57.7432 68.8681C57.7376 68.8855 57.7343 68.8922 57.7344 68.8919L58.2699 69.1626ZM58.3122 62.597C57.8917 61.6532 56.6507 61.2917 55.7445 61.8052L56.0404 62.3272C56.6621 61.9748 57.4987 62.2453 57.7642 62.8412L58.3122 62.597ZM24.4084 73.9785C24.2171 74.0869 24.0398 74.2098 23.8972 74.3946C23.754 74.5803 23.6632 74.8052 23.6025 75.0917C23.4848 75.6463 23.4641 76.5197 23.4612 77.9876L24.0612 77.9888C24.0642 76.4966 24.0877 75.6958 24.1894 75.2162C24.2383 74.9856 24.3011 74.8534 24.3723 74.7612C24.4441 74.6681 24.5421 74.5923 24.7042 74.5005L24.4084 73.9785ZM23.4612 77.9876C23.4591 79.0349 23.4713 79.7638 23.5059 80.2748C23.5398 80.7738 23.5966 81.1093 23.7113 81.336L24.2466 81.0651C24.1926 80.9583 24.1385 80.7346 24.1046 80.2343C24.0715 79.746 24.0591 79.0356 24.0612 77.9888L23.4612 77.9876ZM23.7113 81.336C24.3616 82.6214 26.2834 82.6214 26.9337 81.336L26.3983 81.0651C25.9701 81.9116 24.6749 81.9116 24.2467 81.0651L23.7113 81.336ZM26.9337 81.3359C26.9955 81.2138 27.0324 81.0235 27.0597 80.8331C27.0892 80.6273 27.1137 80.3704 27.1336 80.0825C27.1733 79.5058 27.1955 78.7883 27.1996 78.0714C27.2037 77.3544 27.1897 76.6332 27.1566 76.0489C27.1401 75.7571 27.1186 75.4958 27.0915 75.2846C27.0661 75.086 27.0318 74.8953 26.9761 74.7702L26.4281 75.0145C26.4433 75.0487 26.4702 75.1565 26.4964 75.3608C26.5209 75.5525 26.5415 75.7983 26.5576 76.0829C26.5898 76.6512 26.6036 77.3594 26.5996 78.068C26.5955 78.7766 26.5736 79.4808 26.535 80.0412C26.5156 80.3219 26.4924 80.5625 26.4658 80.7479C26.4524 80.8407 26.4388 80.916 26.4253 80.9737C26.4186 81.0025 26.4124 81.0248 26.4071 81.0414C26.4015 81.0587 26.3981 81.0655 26.3983 81.0651L26.9337 81.3359ZM26.9761 74.7703C26.5556 73.8265 25.3146 73.4649 24.4084 73.9785L24.7042 74.5005C25.326 74.1481 26.1626 74.4186 26.428 75.0145L26.9761 74.7703ZM32.2425 73.9785C32.0512 74.0869 31.8739 74.2098 31.7313 74.3946C31.588 74.5803 31.4973 74.8052 31.4365 75.0917C31.3188 75.6463 31.2982 76.5197 31.2952 77.9876L31.8952 77.9888C31.8982 76.4966 31.9217 75.6958 32.0234 75.2162C32.0724 74.9856 32.1351 74.8534 32.2063 74.7612C32.2781 74.6681 32.3762 74.5923 32.5382 74.5005L32.2425 73.9785ZM31.2952 77.9876C31.2932 79.0349 31.3053 79.7638 31.34 80.2748C31.3738 80.7738 31.4306 81.1093 31.5453 81.336L32.0807 81.0651C32.0266 80.9583 31.9725 80.7346 31.9386 80.2343C31.9055 79.746 31.8932 79.0356 31.8952 77.9888L31.2952 77.9876ZM31.5453 81.336C32.1956 82.6214 34.1174 82.6214 34.7678 81.336L34.2324 81.0651C33.8041 81.9116 32.509 81.9116 32.0807 81.0651L31.5453 81.336ZM34.7678 81.3359C34.8295 81.2138 34.8664 81.0235 34.8937 80.8331C34.9232 80.6273 34.9477 80.3704 34.9676 80.0825C35.0073 79.5058 35.0295 78.7883 35.0336 78.0714C35.0377 77.3544 35.0238 76.6332 34.9907 76.0489C34.9741 75.7571 34.9526 75.4958 34.9256 75.2846C34.9001 75.086 34.8658 74.8953 34.8101 74.7702L34.2621 75.0145C34.2773 75.0487 34.3042 75.1565 34.3304 75.3608C34.355 75.5525 34.3755 75.7983 34.3916 76.0829C34.4238 76.6512 34.4376 77.3594 34.4336 78.068C34.4295 78.7766 34.4076 79.4808 34.369 80.0412C34.3497 80.3219 34.3264 80.5625 34.2998 80.7479C34.2865 80.8407 34.2728 80.916 34.2594 80.9737C34.2527 81.0025 34.2465 81.0248 34.2411 81.0414C34.2355 81.0587 34.2322 81.0655 34.2323 81.0651L34.7678 81.3359ZM34.8101 74.7703C34.3896 73.8265 33.1486 73.4649 32.2424 73.9785L32.5383 74.5005C33.16 74.1481 33.9966 74.4186 34.2621 75.0145L34.8101 74.7703ZM40.0765 73.9785C39.8852 74.0869 39.7079 74.2098 39.5653 74.3946C39.4221 74.5803 39.3313 74.8052 39.2705 75.0917C39.1529 75.6463 39.1322 76.5197 39.1292 77.9876L39.7292 77.9888C39.7322 76.4966 39.7557 75.6958 39.8575 75.2162C39.9064 74.9856 39.9691 74.8534 40.0403 74.7612C40.1121 74.6681 40.2102 74.5923 40.3723 74.5005L40.0765 73.9785ZM39.1292 77.9876C39.1272 79.0349 39.1394 79.7638 39.174 80.2748C39.2078 80.7738 39.2646 81.1093 39.3793 81.336L39.9147 81.0651C39.8607 80.9583 39.8065 80.7346 39.7726 80.2343C39.7395 79.746 39.7272 79.0356 39.7292 77.9888L39.1292 77.9876ZM39.3793 81.336C40.0296 82.6214 41.9515 82.6214 42.6018 81.336L42.0664 81.0651C41.6381 81.9116 40.343 81.9116 39.9147 81.0651L39.3793 81.336ZM42.6018 81.3359C42.6636 81.2138 42.7004 81.0235 42.7277 80.8331C42.7573 80.6273 42.7818 80.3704 42.8016 80.0825C42.8414 79.5058 42.8635 78.7883 42.8676 78.0714C42.8717 77.3544 42.8578 76.6332 42.8247 76.0489C42.8082 75.7571 42.7866 75.4958 42.7596 75.2846C42.7341 75.086 42.6999 74.8953 42.6441 74.7702L42.0961 75.0145C42.1114 75.0487 42.1383 75.1565 42.1644 75.3608C42.189 75.5525 42.2095 75.7983 42.2256 76.0829C42.2578 76.6512 42.2717 77.3594 42.2676 78.068C42.2636 78.7766 42.2417 79.4808 42.203 80.0412C42.1837 80.3219 42.1604 80.5625 42.1338 80.7479C42.1205 80.8407 42.1069 80.916 42.0934 80.9737C42.0867 81.0025 42.0805 81.0248 42.0751 81.0414C42.0695 81.0587 42.0662 81.0655 42.0664 81.0651L42.6018 81.3359ZM42.6442 74.7703C42.2237 73.8265 40.9827 73.4649 40.0765 73.9785L40.3723 74.5005C40.9941 74.1481 41.8306 74.4186 42.0961 75.0145L42.6442 74.7703ZM47.9105 73.9785C47.7192 74.0869 47.5419 74.2098 47.3993 74.3946C47.2561 74.5803 47.1653 74.8052 47.1046 75.0917C46.9869 75.6463 46.9662 76.5197 46.9633 77.9876L47.5633 77.9888C47.5663 76.4966 47.5898 75.6958 47.6915 75.2162C47.7404 74.9856 47.8032 74.8534 47.8744 74.7612C47.9462 74.6681 48.0442 74.5923 48.2063 74.5005L47.9105 73.9785ZM46.9633 77.9876C46.9612 79.0349 46.9734 79.7638 47.008 80.2748C47.0419 80.7738 47.0987 81.1093 47.2134 81.336L47.7487 81.0651C47.6947 80.9583 47.6406 80.7346 47.6067 80.2343C47.5736 79.746 47.5612 79.0356 47.5633 77.9888L46.9633 77.9876ZM47.2134 81.336C47.8637 82.6214 49.7855 82.6214 50.4358 81.336L49.9004 81.0651C49.4722 81.9116 48.177 81.9116 47.7487 81.0651L47.2134 81.336ZM50.4358 81.3359C50.4976 81.2138 50.5345 81.0235 50.5618 80.8331C50.5913 80.6273 50.6158 80.3704 50.6357 80.0825C50.6754 79.5058 50.6976 78.7883 50.7017 78.0714C50.7057 77.3544 50.6918 76.6332 50.6587 76.0489C50.6422 75.7571 50.6207 75.4958 50.5936 75.2846C50.5682 75.086 50.5339 74.8953 50.4782 74.7702L49.9301 75.0145C49.9454 75.0487 49.9723 75.1565 49.9985 75.3608C50.023 75.5525 50.0436 75.7983 50.0597 76.0829C50.0919 76.6512 50.1057 77.3594 50.1017 78.068C50.0976 78.7766 50.0757 79.4808 50.0371 80.0412C50.0177 80.3219 49.9945 80.5625 49.9678 80.7479C49.9545 80.8407 49.9409 80.916 49.9274 80.9737C49.9207 81.0025 49.9145 81.0248 49.9092 81.0414C49.9035 81.0587 49.9002 81.0655 49.9004 81.0651L50.4358 81.3359ZM50.4782 74.7703C50.0577 73.8265 48.8167 73.4649 47.9105 73.9785L48.2063 74.5005C48.8281 74.1481 49.6647 74.4186 49.9301 75.0145L50.4782 74.7703ZM55.7446 73.9785C55.5532 74.0869 55.376 74.2098 55.2333 74.3946C55.0901 74.5803 54.9994 74.8052 54.9386 75.0917C54.8209 75.6463 54.8002 76.5197 54.7973 77.9876L55.3973 77.9888C55.4003 76.4966 55.4238 75.6958 55.5255 75.2162C55.5744 74.9856 55.6372 74.8534 55.7084 74.7612C55.7802 74.6681 55.8783 74.5923 56.0403 74.5005L55.7446 73.9785ZM54.7973 77.9876C54.7953 79.0349 54.8074 79.7638 54.8421 80.2748C54.8759 80.7738 54.9327 81.1093 55.0474 81.336L55.5828 81.0651C55.5287 80.9583 55.4746 80.7346 55.4407 80.2343C55.4076 79.746 55.3953 79.0356 55.3973 77.9888L54.7973 77.9876ZM55.0474 81.336C55.6977 82.6214 57.6195 82.6214 58.2698 81.336L57.7345 81.0651C57.3062 81.9116 56.0111 81.9116 55.5828 81.0651L55.0474 81.336ZM58.2699 81.3359C58.3316 81.2138 58.3685 81.0235 58.3958 80.8331C58.4253 80.6273 58.4498 80.3704 58.4697 80.0825C58.5094 79.5058 58.5316 78.7883 58.5357 78.0714C58.5398 77.3544 58.5258 76.6332 58.4927 76.0489C58.4762 75.7571 58.4547 75.4958 58.4276 75.2846C58.4022 75.086 58.3679 74.8953 58.3122 74.7702L57.7642 75.0145C57.7794 75.0487 57.8063 75.1565 57.8325 75.3608C57.8571 75.5525 57.8776 75.7983 57.8937 76.0829C57.9259 76.6512 57.9397 77.3594 57.9357 78.068C57.9316 78.7766 57.9097 79.4808 57.8711 80.0412C57.8518 80.3219 57.8285 80.5625 57.8019 80.7479C57.7886 80.8407 57.7749 80.916 57.7615 80.9737C57.7547 81.0025 57.7486 81.0248 57.7432 81.0414C57.7376 81.0587 57.7343 81.0655 57.7344 81.0651L58.2699 81.3359ZM58.3122 74.7703C57.8917 73.8265 56.6507 73.4649 55.7445 73.9785L56.0404 74.5005C56.6621 74.1481 57.4987 74.4186 57.7642 75.0145L58.3122 74.7703ZM27.9811 41.4801H50.669V40.8801H27.9811V41.4801ZM48.6298 37.6766H26.1764V38.2766H48.6298V37.6766ZM31.8585 21.1489L31.3679 21.4451L31.678 21.9587L32.1686 21.6625L31.8585 21.1489ZM31.3678 21.4451L30.8079 21.7833L31.1181 22.2969L31.678 21.9587L31.3678 21.4451ZM62.8211 41.5584C62.6653 41.3357 62.4365 41.2018 62.0627 41.1137C61.7008 41.0283 61.1635 40.9767 60.3419 40.9432C58.6923 40.8761 55.8059 40.8801 50.669 40.8801V41.4801C55.8151 41.4801 58.6837 41.4762 60.3175 41.5427C61.1377 41.5761 61.6242 41.6267 61.9251 41.6977C62.2142 41.7658 62.2874 41.8422 62.3296 41.9025L62.8211 41.5584ZM63.0126 41.9344C62.9649 41.8274 62.9071 41.6813 62.8211 41.5584L62.3296 41.9025C62.3729 41.9643 62.4001 42.0338 62.4646 42.1786L63.0126 41.9344Z" fill="white" mask="url(#path-3-inside-1_297_438)"/>
</svg>
