<svg width="82" height="82" viewBox="0 0 82 82" fill="none" xmlns="http://www.w3.org/2000/svg">
<path d="M1 20V37.5V47L2.5 47.5L8 48.5L8.5 54.5L11.5 55.5H16.5L18.5 53V14L17.5 11.5H11.5L9 12.5L7.5 19L1 20Z" fill="#2AC8CE"/>
<path d="M63 13.5V30.5V53L65.5 55.5H71.5L73.5 54V48L78.5 47.5L80.5 47V21L80 19.5H73.5L73 13.5L72 11.5H65.5L63 13.5Z" fill="#2AC8CE"/>
<path d="M26.5 29H19V38.5L41 38V35V32.5L56 32L57.5 38.5H63V29H54.5L53 31.5H49.5H43.5H40L37.5 32H36L33.5 30.5L31 32H29L26.5 29Z" fill="#DFEAEB"/>
<mask id="path-3-inside-1_297_423" fill="white">
<path fill-rule="evenodd" clip-rule="evenodd" d="M10.6512 10.306C9.57507 10.6598 9.03502 11.0075 8.34651 11.7897C7.44947 12.8088 7.2078 13.7117 7.2078 16.0449V17.9376H4.96048C2.50673 17.9376 1.89798 18.0827 1.06164 18.867C0.808273 19.1045 0.467461 19.5872 0.304422 19.9396C0.0233476 20.5464 0.0078125 21.2633 0.0078125 33.5528C0.0078125 45.8424 0.0233476 46.5593 0.304422 47.1661C0.467461 47.5185 0.808273 48.0012 1.06164 48.2387C1.89798 49.023 2.50673 49.1681 4.96048 49.1681H7.2078V51.0608C7.2078 53.4878 7.45972 54.3828 8.43668 55.4271C9.66636 56.7419 10.224 56.9235 13.2374 56.9904C15.2529 57.0353 16.0153 56.9922 16.6931 56.7952C17.9623 56.4262 18.9338 55.6153 19.5256 54.4313L20.0203 53.4412V46.3397V39.2384H22.0846H24.149L24.2141 40.9601C24.2635 42.2645 24.36 42.8563 24.6126 43.4025C24.7958 43.7988 25.8556 45.2236 26.9676 46.5686L28.989 49.0138V59.8939C28.989 67.6392 29.0413 70.8885 29.17 71.1712C29.5401 71.9838 30.8103 72.056 31.2215 71.2879C31.3366 71.0727 31.3914 67.3157 31.3914 59.6244C31.3914 49.1455 31.3702 48.2481 31.1154 47.8825C30.9636 47.6647 29.9905 46.4557 28.9532 45.1959C27.9157 43.9363 26.9589 42.6965 26.8268 42.4412C26.6674 42.1329 26.5867 41.5083 26.5867 40.5821V39.1873L38.1175 39.3007L49.6481 39.4142L50.0491 39.0132C50.5613 38.501 50.5739 37.809 50.0794 37.3444C49.7253 37.0119 49.5704 36.9962 46.6307 36.9962C43.1696 36.9962 42.6622 36.8846 42.126 36.0048C41.4641 34.9193 41.9462 33.4348 43.0884 33.0413C43.4734 32.9087 45.3021 32.8475 49.0609 32.8411L54.4786 32.8321L54.9467 33.3003L55.4148 33.7684V37.7898C55.4148 40.809 55.3609 41.9405 55.198 42.33C55.0788 42.6156 54.1219 43.8925 53.0716 45.1677C50.3781 48.4384 50.6101 47.9592 50.6101 50.252V63.7231C50.6101 68.5252 50.6675 71.0775 50.7801 71.2879C51.1912 72.056 52.4614 71.9838 52.8315 71.1712C52.9574 70.895 53.0125 68.603 53.0125 63.6473V56.5207L52.9875 50.6689L53.0426 48.9773L55.049 46.5503C56.1527 45.2154 57.2057 43.7988 57.3889 43.4025C57.6415 42.8563 57.7381 42.2645 57.7874 40.9601L57.8526 39.2384H59.917H61.9812V46.3397V53.4412L62.476 54.4313C63.0677 55.6153 64.0392 56.4262 65.3085 56.7952C65.9863 56.9922 66.7486 57.0353 68.7642 56.9904C71.7985 56.923 72.3794 56.7297 73.5874 55.386C74.5549 54.3101 74.7937 53.4535 74.7937 51.0608V49.1681H77.041C79.4948 49.1681 80.1036 49.023 80.9399 48.2387C81.1933 48.0012 81.5341 47.5185 81.6971 47.1661C81.978 46.5595 81.9939 45.8391 81.9972 33.5878C82.0011 19.4431 82.0384 20.0297 81.0714 18.9985C80.2432 18.1154 79.5995 17.945 77.076 17.9411L74.7937 17.9376V16.0449C74.7937 14.8231 74.708 13.8632 74.5519 13.3378C74.2314 12.2586 73.1414 11.0517 72.0357 10.5522C71.2453 10.1949 71.0025 10.17 68.3074 10.17C65.6301 10.17 65.3717 10.1961 64.6835 10.5352C63.6806 11.0293 62.82 11.8989 62.3634 12.8797L61.9844 13.6935L61.9828 20.7804L61.9812 27.8673H58.8582H55.7351V25.559C55.7351 23.2668 55.7315 23.2437 55.2135 22.2431C54.5895 21.0378 53.6912 20.293 52.4133 19.9215C51.3068 19.5997 50.1156 19.6968 49.1556 20.1865L48.461 20.5408L48.2205 20.1601C47.4293 18.9078 45.7207 17.9376 44.307 17.9376C42.9905 17.9376 41.9859 18.3681 41.0032 19.3532L40.0988 20.2599L39.4218 19.8837C37.8263 18.9972 35.6959 19.3156 34.2246 20.6603C33.4848 21.3365 33.3211 21.4233 33.1573 21.2258C32.8466 20.8515 31.285 20.34 30.453 20.34C29.186 20.34 28.2137 20.7713 27.2015 21.7825C26.043 22.9398 25.7859 23.7301 25.7859 26.1347V27.8673H22.9031H20.0203V25.9454L19.9916 16.5845C19.934 12.9872 19.8443 12.6473 18.6322 11.4351C17.5568 10.3597 16.925 10.1853 13.9344 10.1375C12.0799 10.1079 11.1007 10.1582 10.6512 10.306ZM16.4314 54.286C16.5026 54.2516 16.5695 54.2222 16.6325 54.1946C16.7579 54.1396 16.8674 54.0916 16.963 54.024C17.6219 53.558 17.6215 52.1598 17.6184 41.1258C17.6184 41.1229 17.6184 41.12 17.6184 41.1171C17.6184 41.114 17.6184 41.1109 17.6184 41.1078C17.6184 41.1046 17.6184 41.1014 17.6184 41.0981C17.6182 40.3016 17.618 39.4551 17.618 38.5552V16.8228L17.5379 13.7937L17.0641 13.2996C16.3796 12.5858 15.7312 12.4516 13.2761 12.5158C10.8869 12.5785 10.5045 12.7092 9.92341 13.6621C9.61863 14.1619 9.61126 14.6272 9.61078 33.5692L9.61014 52.9644L9.9737 53.5086C10.5969 54.4414 11.1601 54.6129 13.6035 54.6131C15.4437 54.6134 15.853 54.566 16.4314 54.286ZM72.0781 13.6621C71.9064 13.3807 71.5679 13.0203 71.3255 12.8613C70.9607 12.622 70.4841 12.5653 68.5552 12.5311C66.0173 12.4862 65.5859 12.5838 64.864 13.3656L64.4637 13.7993L64.4217 33.3373C64.4185 34.8256 64.4151 36.2056 64.412 37.4852C64.3761 52.0992 64.3724 53.6278 65.0578 54.0577C65.1379 54.108 65.2273 54.1432 65.3273 54.1825C65.4022 54.212 65.483 54.2438 65.5702 54.286C66.1485 54.566 66.5579 54.6134 68.3981 54.6131C70.8414 54.6129 71.4047 54.4414 72.0278 53.5086C72.3866 52.9718 72.3914 52.8972 72.3914 47.936V42.9074L72.7846 42.5144C73.2855 42.0133 73.8996 42.0133 74.4006 42.5144C74.7745 42.8882 74.7937 43.0019 74.7937 44.8367V46.7657H76.931C78.7981 46.7657 79.1018 46.7287 79.3334 46.4728C79.5752 46.2055 79.5984 45.0796 79.5984 33.5802C79.5984 21.1941 79.593 20.9751 79.2781 20.6603C78.9906 20.3728 78.7443 20.34 76.8758 20.34H74.7937V29.4761V38.6123L74.4006 39.0054C74.1843 39.2216 73.8208 39.3986 73.5926 39.3986C73.3643 39.3986 73.0008 39.2216 72.7846 39.0054L72.3914 38.6123L72.3907 26.3931C72.3903 14.5639 72.3802 14.1576 72.0781 13.6621ZM7.2078 46.7657V33.5528V20.34H5.12577C3.25722 20.34 3.0109 20.3728 2.72342 20.6603C2.40855 20.9751 2.40311 21.1941 2.40311 33.6081C2.40311 45.6381 2.41704 46.2481 2.69604 46.5007C2.93739 46.7191 3.3602 46.7657 5.09838 46.7657H7.2078ZM46.1232 21.3768C45.9458 21.0896 45.5564 20.7387 45.2582 20.5972C44.2402 20.1141 43.0541 20.4247 42.3735 21.3526C42.0594 21.7807 42.0418 22.0126 42.0418 25.7052C42.0418 29.4259 42.0573 29.6263 42.3802 30.0578C42.7152 30.5052 42.7341 30.5094 44.222 30.459C45.5868 30.4125 45.7585 30.3712 46.0857 30.0096C46.4384 29.6196 46.4461 29.5292 46.4461 25.7552C46.4461 22.1688 46.4235 21.8627 46.1232 21.3768ZM39.5249 26.6387C39.5765 23.0559 39.4756 22.6356 38.4283 22.074C37.2959 21.4667 35.9389 21.9047 35.3556 23.0658C35.1213 23.532 35.0755 24.0756 35.0753 26.391C35.075 29.4165 35.189 29.9581 35.9526 30.5589C36.4587 30.957 37.2986 31.15 37.8844 31.003C38.1096 30.9465 38.5605 30.6559 38.8865 30.3574L39.4793 29.8145L39.5249 26.6387ZM53.3328 26.5861C53.3328 23.3028 53.2585 23.0296 52.2043 22.437C51.1652 21.8531 50.0057 22.1129 49.3122 23.085C48.9405 23.6062 48.9285 23.7164 48.9285 26.5861L48.9285 26.7987C48.928 28.9419 48.9279 29.8206 49.3599 30.1805C49.6601 30.4307 50.169 30.4304 51.0314 30.4299L51.1545 30.4298C52.7825 30.4298 52.7835 30.4296 53.058 29.9647C53.2905 29.5712 53.3328 29.051 53.3328 26.5861ZM32.1922 23.6204C31.972 23.385 31.5972 23.0911 31.3594 22.9673C30.3497 22.442 29.0201 22.9294 28.4689 24.0268C28.0601 24.8402 28.0601 28.9725 28.4689 29.786C29.2815 31.4036 31.3903 31.4711 32.3591 29.9107C32.656 29.4324 32.6792 29.1657 32.6379 26.7187C32.5938 24.1209 32.5817 24.0368 32.1922 23.6204ZM27.2086 32.0382C26.6996 31.5293 26.2355 30.9231 26.1773 30.6912L26.0715 30.2696H23.046H20.0203V33.5528V36.8361H29.887C39.2205 36.8361 39.7477 36.8208 39.6402 36.5558C39.3774 35.9071 39.3606 34.2984 39.6092 33.5692C39.7472 33.1638 39.8465 32.8321 39.8299 32.8323C39.8132 32.8323 39.4205 32.9764 38.957 33.1526C37.4682 33.7185 35.7598 33.4675 34.565 32.5073L33.9393 32.0045L33.3671 32.4409C32.0783 33.4239 30.5797 33.6901 28.9911 33.2183C28.3346 33.0234 27.9176 32.7473 27.2086 32.0382ZM61.9812 36.8361V33.5528V30.2696H58.7876C56.6983 30.2696 55.5574 30.3287 55.4883 30.4405C55.4302 30.5344 55.4079 30.6271 55.4389 30.6465C56.4366 31.2743 56.9581 31.7472 57.3068 32.3405C57.695 33.0008 57.7427 33.2562 57.7939 34.9542L57.851 36.8361H59.916H61.9812Z"/>
</mask>
<path fill-rule="evenodd" clip-rule="evenodd" d="M10.6512 10.306C9.57507 10.6598 9.03502 11.0075 8.34651 11.7897C7.44947 12.8088 7.2078 13.7117 7.2078 16.0449V17.9376H4.96048C2.50673 17.9376 1.89798 18.0827 1.06164 18.867C0.808273 19.1045 0.467461 19.5872 0.304422 19.9396C0.0233476 20.5464 0.0078125 21.2633 0.0078125 33.5528C0.0078125 45.8424 0.0233476 46.5593 0.304422 47.1661C0.467461 47.5185 0.808273 48.0012 1.06164 48.2387C1.89798 49.023 2.50673 49.1681 4.96048 49.1681H7.2078V51.0608C7.2078 53.4878 7.45972 54.3828 8.43668 55.4271C9.66636 56.7419 10.224 56.9235 13.2374 56.9904C15.2529 57.0353 16.0153 56.9922 16.6931 56.7952C17.9623 56.4262 18.9338 55.6153 19.5256 54.4313L20.0203 53.4412V46.3397V39.2384H22.0846H24.149L24.2141 40.9601C24.2635 42.2645 24.36 42.8563 24.6126 43.4025C24.7958 43.7988 25.8556 45.2236 26.9676 46.5686L28.989 49.0138V59.8939C28.989 67.6392 29.0413 70.8885 29.17 71.1712C29.5401 71.9838 30.8103 72.056 31.2215 71.2879C31.3366 71.0727 31.3914 67.3157 31.3914 59.6244C31.3914 49.1455 31.3702 48.2481 31.1154 47.8825C30.9636 47.6647 29.9905 46.4557 28.9532 45.1959C27.9157 43.9363 26.9589 42.6965 26.8268 42.4412C26.6674 42.1329 26.5867 41.5083 26.5867 40.5821V39.1873L38.1175 39.3007L49.6481 39.4142L50.0491 39.0132C50.5613 38.501 50.5739 37.809 50.0794 37.3444C49.7253 37.0119 49.5704 36.9962 46.6307 36.9962C43.1696 36.9962 42.6622 36.8846 42.126 36.0048C41.4641 34.9193 41.9462 33.4348 43.0884 33.0413C43.4734 32.9087 45.3021 32.8475 49.0609 32.8411L54.4786 32.8321L54.9467 33.3003L55.4148 33.7684V37.7898C55.4148 40.809 55.3609 41.9405 55.198 42.33C55.0788 42.6156 54.1219 43.8925 53.0716 45.1677C50.3781 48.4384 50.6101 47.9592 50.6101 50.252V63.7231C50.6101 68.5252 50.6675 71.0775 50.7801 71.2879C51.1912 72.056 52.4614 71.9838 52.8315 71.1712C52.9574 70.895 53.0125 68.603 53.0125 63.6473V56.5207L52.9875 50.6689L53.0426 48.9773L55.049 46.5503C56.1527 45.2154 57.2057 43.7988 57.3889 43.4025C57.6415 42.8563 57.7381 42.2645 57.7874 40.9601L57.8526 39.2384H59.917H61.9812V46.3397V53.4412L62.476 54.4313C63.0677 55.6153 64.0392 56.4262 65.3085 56.7952C65.9863 56.9922 66.7486 57.0353 68.7642 56.9904C71.7985 56.923 72.3794 56.7297 73.5874 55.386C74.5549 54.3101 74.7937 53.4535 74.7937 51.0608V49.1681H77.041C79.4948 49.1681 80.1036 49.023 80.9399 48.2387C81.1933 48.0012 81.5341 47.5185 81.6971 47.1661C81.978 46.5595 81.9939 45.8391 81.9972 33.5878C82.0011 19.4431 82.0384 20.0297 81.0714 18.9985C80.2432 18.1154 79.5995 17.945 77.076 17.9411L74.7937 17.9376V16.0449C74.7937 14.8231 74.708 13.8632 74.5519 13.3378C74.2314 12.2586 73.1414 11.0517 72.0357 10.5522C71.2453 10.1949 71.0025 10.17 68.3074 10.17C65.6301 10.17 65.3717 10.1961 64.6835 10.5352C63.6806 11.0293 62.82 11.8989 62.3634 12.8797L61.9844 13.6935L61.9828 20.7804L61.9812 27.8673H58.8582H55.7351V25.559C55.7351 23.2668 55.7315 23.2437 55.2135 22.2431C54.5895 21.0378 53.6912 20.293 52.4133 19.9215C51.3068 19.5997 50.1156 19.6968 49.1556 20.1865L48.461 20.5408L48.2205 20.1601C47.4293 18.9078 45.7207 17.9376 44.307 17.9376C42.9905 17.9376 41.9859 18.3681 41.0032 19.3532L40.0988 20.2599L39.4218 19.8837C37.8263 18.9972 35.6959 19.3156 34.2246 20.6603C33.4848 21.3365 33.3211 21.4233 33.1573 21.2258C32.8466 20.8515 31.285 20.34 30.453 20.34C29.186 20.34 28.2137 20.7713 27.2015 21.7825C26.043 22.9398 25.7859 23.7301 25.7859 26.1347V27.8673H22.9031H20.0203V25.9454L19.9916 16.5845C19.934 12.9872 19.8443 12.6473 18.6322 11.4351C17.5568 10.3597 16.925 10.1853 13.9344 10.1375C12.0799 10.1079 11.1007 10.1582 10.6512 10.306ZM16.4314 54.286C16.5026 54.2516 16.5695 54.2222 16.6325 54.1946C16.7579 54.1396 16.8674 54.0916 16.963 54.024C17.6219 53.558 17.6215 52.1598 17.6184 41.1258C17.6184 41.1229 17.6184 41.12 17.6184 41.1171C17.6184 41.114 17.6184 41.1109 17.6184 41.1078C17.6184 41.1046 17.6184 41.1014 17.6184 41.0981C17.6182 40.3016 17.618 39.4551 17.618 38.5552V16.8228L17.5379 13.7937L17.0641 13.2996C16.3796 12.5858 15.7312 12.4516 13.2761 12.5158C10.8869 12.5785 10.5045 12.7092 9.92341 13.6621C9.61863 14.1619 9.61126 14.6272 9.61078 33.5692L9.61014 52.9644L9.9737 53.5086C10.5969 54.4414 11.1601 54.6129 13.6035 54.6131C15.4437 54.6134 15.853 54.566 16.4314 54.286ZM72.0781 13.6621C71.9064 13.3807 71.5679 13.0203 71.3255 12.8613C70.9607 12.622 70.4841 12.5653 68.5552 12.5311C66.0173 12.4862 65.5859 12.5838 64.864 13.3656L64.4637 13.7993L64.4217 33.3373C64.4185 34.8256 64.4151 36.2056 64.412 37.4852C64.3761 52.0992 64.3724 53.6278 65.0578 54.0577C65.1379 54.108 65.2273 54.1432 65.3273 54.1825C65.4022 54.212 65.483 54.2438 65.5702 54.286C66.1485 54.566 66.5579 54.6134 68.3981 54.6131C70.8414 54.6129 71.4047 54.4414 72.0278 53.5086C72.3866 52.9718 72.3914 52.8972 72.3914 47.936V42.9074L72.7846 42.5144C73.2855 42.0133 73.8996 42.0133 74.4006 42.5144C74.7745 42.8882 74.7937 43.0019 74.7937 44.8367V46.7657H76.931C78.7981 46.7657 79.1018 46.7287 79.3334 46.4728C79.5752 46.2055 79.5984 45.0796 79.5984 33.5802C79.5984 21.1941 79.593 20.9751 79.2781 20.6603C78.9906 20.3728 78.7443 20.34 76.8758 20.34H74.7937V29.4761V38.6123L74.4006 39.0054C74.1843 39.2216 73.8208 39.3986 73.5926 39.3986C73.3643 39.3986 73.0008 39.2216 72.7846 39.0054L72.3914 38.6123L72.3907 26.3931C72.3903 14.5639 72.3802 14.1576 72.0781 13.6621ZM7.2078 46.7657V33.5528V20.34H5.12577C3.25722 20.34 3.0109 20.3728 2.72342 20.6603C2.40855 20.9751 2.40311 21.1941 2.40311 33.6081C2.40311 45.6381 2.41704 46.2481 2.69604 46.5007C2.93739 46.7191 3.3602 46.7657 5.09838 46.7657H7.2078ZM46.1232 21.3768C45.9458 21.0896 45.5564 20.7387 45.2582 20.5972C44.2402 20.1141 43.0541 20.4247 42.3735 21.3526C42.0594 21.7807 42.0418 22.0126 42.0418 25.7052C42.0418 29.4259 42.0573 29.6263 42.3802 30.0578C42.7152 30.5052 42.7341 30.5094 44.222 30.459C45.5868 30.4125 45.7585 30.3712 46.0857 30.0096C46.4384 29.6196 46.4461 29.5292 46.4461 25.7552C46.4461 22.1688 46.4235 21.8627 46.1232 21.3768ZM39.5249 26.6387C39.5765 23.0559 39.4756 22.6356 38.4283 22.074C37.2959 21.4667 35.9389 21.9047 35.3556 23.0658C35.1213 23.532 35.0755 24.0756 35.0753 26.391C35.075 29.4165 35.189 29.9581 35.9526 30.5589C36.4587 30.957 37.2986 31.15 37.8844 31.003C38.1096 30.9465 38.5605 30.6559 38.8865 30.3574L39.4793 29.8145L39.5249 26.6387ZM53.3328 26.5861C53.3328 23.3028 53.2585 23.0296 52.2043 22.437C51.1652 21.8531 50.0057 22.1129 49.3122 23.085C48.9405 23.6062 48.9285 23.7164 48.9285 26.5861L48.9285 26.7987C48.928 28.9419 48.9279 29.8206 49.3599 30.1805C49.6601 30.4307 50.169 30.4304 51.0314 30.4299L51.1545 30.4298C52.7825 30.4298 52.7835 30.4296 53.058 29.9647C53.2905 29.5712 53.3328 29.051 53.3328 26.5861ZM32.1922 23.6204C31.972 23.385 31.5972 23.0911 31.3594 22.9673C30.3497 22.442 29.0201 22.9294 28.4689 24.0268C28.0601 24.8402 28.0601 28.9725 28.4689 29.786C29.2815 31.4036 31.3903 31.4711 32.3591 29.9107C32.656 29.4324 32.6792 29.1657 32.6379 26.7187C32.5938 24.1209 32.5817 24.0368 32.1922 23.6204ZM27.2086 32.0382C26.6996 31.5293 26.2355 30.9231 26.1773 30.6912L26.0715 30.2696H23.046H20.0203V33.5528V36.8361H29.887C39.2205 36.8361 39.7477 36.8208 39.6402 36.5558C39.3774 35.9071 39.3606 34.2984 39.6092 33.5692C39.7472 33.1638 39.8465 32.8321 39.8299 32.8323C39.8132 32.8323 39.4205 32.9764 38.957 33.1526C37.4682 33.7185 35.7598 33.4675 34.565 32.5073L33.9393 32.0045L33.3671 32.4409C32.0783 33.4239 30.5797 33.6901 28.9911 33.2183C28.3346 33.0234 27.9176 32.7473 27.2086 32.0382ZM61.9812 36.8361V33.5528V30.2696H58.7876C56.6983 30.2696 55.5574 30.3287 55.4883 30.4405C55.4302 30.5344 55.4079 30.6271 55.4389 30.6465C56.4366 31.2743 56.9581 31.7472 57.3068 32.3405C57.695 33.0008 57.7427 33.2562 57.7939 34.9542L57.851 36.8361H59.916H61.9812Z" fill="#3B4040"/>
<path d="M51.1545 30.2798C51.1127 30.2798 51.0716 30.2798 51.0314 30.2799L51.0315 30.5799C51.0718 30.5798 51.1128 30.5798 51.1545 30.5798V30.2798ZM49.0785 26.7987C49.0785 26.7292 49.0785 26.6583 49.0785 26.5861H48.7785C48.7785 26.6583 48.7785 26.7291 48.7785 26.7987L49.0785 26.7987ZM17.4684 41.1171V41.1258H17.7684V41.1171H17.4684ZM17.7684 41.1171V41.1078H17.4684V41.1171H17.7684ZM17.4684 41.0981V41.1078H17.7684V41.0981H17.4684ZM10.6512 10.306L10.7449 10.591L10.7449 10.591L10.6512 10.306ZM8.34651 11.7897L8.57169 11.9879L8.5717 11.9879L8.34651 11.7897ZM7.2078 17.9376V18.2376H7.5078V17.9376H7.2078ZM1.06164 18.867L1.26681 19.0859L1.26685 19.0858L1.06164 18.867ZM0.304422 19.9396L0.576639 20.0657L0.576686 20.0656L0.304422 19.9396ZM0.304422 47.1661L0.576686 47.0401L0.576639 47.04L0.304422 47.1661ZM1.06164 48.2387L1.26685 48.0199L1.26681 48.0198L1.06164 48.2387ZM7.2078 49.1681H7.5078V48.8681H7.2078V49.1681ZM8.43668 55.4271L8.65578 55.2222L8.65576 55.2222L8.43668 55.4271ZM13.2374 56.9904L13.244 56.6905H13.244L13.2374 56.9904ZM16.6931 56.7952L16.7768 57.0833L16.7768 57.0833L16.6931 56.7952ZM19.5256 54.4313L19.7939 54.5654L19.7939 54.5654L19.5256 54.4313ZM20.0203 53.4412L20.2887 53.5753L20.3203 53.512V53.4412H20.0203ZM20.0203 39.2384V38.9384H19.7203V39.2384H20.0203ZM24.149 39.2384L24.4488 39.227L24.4378 38.9384H24.149V39.2384ZM24.2141 40.9601L24.5139 40.9487V40.9487L24.2141 40.9601ZM24.6126 43.4025L24.8849 43.2766L24.8849 43.2765L24.6126 43.4025ZM26.9676 46.5686L27.1988 46.3774L27.1988 46.3774L26.9676 46.5686ZM28.989 49.0138H29.289V48.9059L29.2203 48.8227L28.989 49.0138ZM29.17 71.1712L29.443 71.0468L29.443 71.0468L29.17 71.1712ZM31.2215 71.2879L31.486 71.4295L31.486 71.4294L31.2215 71.2879ZM31.1154 47.8825L31.3616 47.711L31.3615 47.711L31.1154 47.8825ZM28.9532 45.1959L29.1848 45.0052L29.1847 45.0052L28.9532 45.1959ZM26.8268 42.4412L26.5603 42.5789L26.5603 42.5791L26.8268 42.4412ZM26.5867 39.1873L26.5897 38.8873L26.2867 38.8843V39.1873H26.5867ZM38.1175 39.3007L38.1204 39.0007H38.1204L38.1175 39.3007ZM49.6481 39.4142L49.6451 39.7142L49.7711 39.7155L49.8602 39.6264L49.6481 39.4142ZM50.0491 39.0132L49.837 38.8011L50.0491 39.0132ZM50.0794 37.3444L50.2848 37.1257L50.2847 37.1257L50.0794 37.3444ZM42.126 36.0048L42.3822 35.8487L42.3822 35.8487L42.126 36.0048ZM43.0884 33.0413L42.9907 32.7577L42.9907 32.7577L43.0884 33.0413ZM49.0609 32.8411L49.0605 32.5411H49.0604L49.0609 32.8411ZM54.4786 32.8321L54.6907 32.62L54.6026 32.5319L54.4781 32.5321L54.4786 32.8321ZM54.9467 33.3003L54.7346 33.5124L54.9467 33.3003ZM55.4148 33.7684H55.7148V33.6442L55.627 33.5563L55.4148 33.7684ZM55.198 42.33L54.9212 42.2143L54.9211 42.2145L55.198 42.33ZM53.0716 45.1677L52.84 44.977L52.84 44.977L53.0716 45.1677ZM52.9875 50.6689L52.6875 50.6591L52.6875 50.6702L52.9875 50.6689ZM53.0426 48.9773L52.8114 48.7862L52.7461 48.8652L52.7427 48.9676L53.0426 48.9773ZM55.049 46.5503L54.8178 46.3592L54.8178 46.3592L55.049 46.5503ZM57.3889 43.4025L57.1166 43.2765L57.1166 43.2766L57.3889 43.4025ZM57.7874 40.9601L57.4876 40.9487V40.9487L57.7874 40.9601ZM57.8526 39.2384V38.9384H57.5637L57.5528 39.227L57.8526 39.2384ZM61.9812 39.2384H62.2812V38.9384H61.9812V39.2384ZM61.9812 53.4412H61.6812V53.512L61.7129 53.5753L61.9812 53.4412ZM62.476 54.4313L62.2076 54.5654L62.2076 54.5654L62.476 54.4313ZM65.3085 56.7952L65.2247 57.0833L65.2248 57.0833L65.3085 56.7952ZM68.7642 56.9904L68.7575 56.6905H68.7575L68.7642 56.9904ZM73.5874 55.386L73.3644 55.1854L73.3643 55.1854L73.5874 55.386ZM74.7937 49.1681V48.8681H74.4937V49.1681H74.7937ZM80.9399 48.2387L80.7347 48.0198L80.7347 48.0199L80.9399 48.2387ZM81.6971 47.1661L81.4249 47.0401L81.4248 47.0401L81.6971 47.1661ZM81.9972 33.5878L82.2972 33.5878L81.9972 33.5878ZM81.0714 18.9985L81.2902 18.7933L81.2902 18.7933L81.0714 18.9985ZM77.076 17.9411L77.0755 18.2411H77.0755L77.076 17.9411ZM74.7937 17.9376H74.4937V18.2372L74.7933 18.2376L74.7937 17.9376ZM74.5519 13.3378L74.2643 13.4232L74.2643 13.4232L74.5519 13.3378ZM72.0357 10.5522L71.9121 10.8255L71.9122 10.8256L72.0357 10.5522ZM64.6835 10.5352L64.8161 10.8043V10.8043L64.6835 10.5352ZM62.3634 12.8797L62.6353 13.0064L62.6353 13.0063L62.3634 12.8797ZM61.9844 13.6935L61.7125 13.5668L61.6845 13.627L61.6844 13.6934L61.9844 13.6935ZM61.9828 20.7804L62.2828 20.7805L61.9828 20.7804ZM61.9812 27.8673V28.1673H62.2812L62.2812 27.8674L61.9812 27.8673ZM55.7351 27.8673H55.4351V28.1673H55.7351V27.8673ZM55.2135 22.2431L55.4799 22.1052L55.4799 22.1052L55.2135 22.2431ZM52.4133 19.9215L52.3296 20.2095L52.3296 20.2095L52.4133 19.9215ZM49.1556 20.1865L49.2919 20.4538L49.2919 20.4538L49.1556 20.1865ZM48.461 20.5408L48.2074 20.701L48.3536 20.9324L48.5973 20.808L48.461 20.5408ZM48.2205 20.1601L47.9668 20.3203L47.9668 20.3204L48.2205 20.1601ZM41.0032 19.3532L40.7908 19.1414L40.7908 19.1414L41.0032 19.3532ZM40.0988 20.2599L39.953 20.5221L40.1511 20.6322L40.3112 20.4717L40.0988 20.2599ZM39.4218 19.8837L39.5675 19.6214L39.5675 19.6214L39.4218 19.8837ZM34.2246 20.6603L34.0222 20.4388L34.0222 20.4388L34.2246 20.6603ZM33.1573 21.2258L33.3882 21.0342L33.3881 21.0342L33.1573 21.2258ZM27.2015 21.7825L27.4136 21.9947L27.4136 21.9947L27.2015 21.7825ZM25.7859 27.8673V28.1673H26.0859V27.8673H25.7859ZM20.0203 27.8673H19.7203V28.1673H20.0203V27.8673ZM20.0203 25.9454H20.3203L20.3203 25.9445L20.0203 25.9454ZM16.4314 54.286L16.3006 54.016H16.3006L16.4314 54.286ZM13.6035 54.6131L13.6035 54.3131H13.6035L13.6035 54.6131ZM9.9737 53.5086L9.72424 53.6753L9.72425 53.6753L9.9737 53.5086ZM9.61014 52.9644L9.31014 52.9644L9.31014 53.0554L9.36068 53.1311L9.61014 52.9644ZM9.61078 33.5692L9.91078 33.5692V33.5692L9.61078 33.5692ZM9.92341 13.6621L9.66727 13.5059L9.66727 13.5059L9.92341 13.6621ZM13.2761 12.5158L13.2683 12.2159L13.2683 12.2159L13.2761 12.5158ZM17.0641 13.2996L17.2807 13.092L17.2807 13.092L17.0641 13.2996ZM17.5379 13.7937L17.8378 13.7858L17.8347 13.6698L17.7544 13.5861L17.5379 13.7937ZM17.618 16.8228H17.9181L17.9178 16.8148L17.618 16.8228ZM19.9916 16.5845L20.2917 16.5835L20.2916 16.5796L19.9916 16.5845ZM18.6322 11.4351L18.8444 11.223L18.8444 11.223L18.6322 11.4351ZM13.9344 10.1375L13.9296 10.4375L13.9296 10.4375L13.9344 10.1375ZM71.3255 12.8613L71.4902 12.6105L71.4901 12.6104L71.3255 12.8613ZM72.0781 13.6621L72.3343 13.5059L72.3342 13.5058L72.0781 13.6621ZM72.3907 26.3931L72.0907 26.3931V26.3931L72.3907 26.3931ZM72.3914 38.6123L72.0914 38.6124L72.0914 38.7367L72.1793 38.8245L72.3914 38.6123ZM72.7846 39.0054L72.9967 38.7932L72.9967 38.7932L72.7846 39.0054ZM74.4006 39.0054L74.1885 38.7932L74.1884 38.7932L74.4006 39.0054ZM74.7937 38.6123L75.0058 38.8245L75.0937 38.7366V38.6123H74.7937ZM74.7937 20.34V20.04H74.4937V20.34H74.7937ZM79.3334 46.4728L79.5558 46.6741L79.5558 46.6741L79.3334 46.4728ZM74.7937 46.7657H74.4937V47.0657H74.7937V46.7657ZM74.4006 42.5144L74.1884 42.7265L74.1885 42.7266L74.4006 42.5144ZM72.7846 42.5144L72.9967 42.7266L72.9967 42.7265L72.7846 42.5144ZM72.3914 42.9074L72.1793 42.6952L72.0914 42.7831V42.9074H72.3914ZM72.0278 53.5086L71.7784 53.342L71.7784 53.342L72.0278 53.5086ZM68.3981 54.6131L68.398 54.3131H68.398L68.3981 54.6131ZM65.5702 54.286L65.4394 54.5561L65.4395 54.5561L65.5702 54.286ZM64.4217 33.3373L64.1217 33.3366V33.3366L64.4217 33.3373ZM64.4637 13.7993L64.2432 13.5958L64.1639 13.6818L64.1637 13.7987L64.4637 13.7993ZM64.864 13.3656L65.0845 13.5691V13.5691L64.864 13.3656ZM68.5552 12.5311L68.5605 12.2311L68.5605 12.2311L68.5552 12.5311ZM7.2078 46.7657V47.0657H7.5078V46.7657H7.2078ZM2.69604 46.5007L2.4947 46.7231L2.49472 46.7231L2.69604 46.5007ZM7.2078 20.34H7.5078V20.04H7.2078V20.34ZM45.2582 20.5972L45.3869 20.3262L45.3868 20.3261L45.2582 20.5972ZM46.1232 21.3768L45.868 21.5345L45.868 21.5345L46.1232 21.3768ZM46.0857 30.0096L46.3082 30.2108L46.3082 30.2108L46.0857 30.0096ZM44.222 30.459L44.2322 30.7588L44.2322 30.7588L44.222 30.459ZM42.3802 30.0578L42.14 30.2375L42.14 30.2376L42.3802 30.0578ZM42.3735 21.3526L42.6154 21.5301L42.6154 21.5301L42.3735 21.3526ZM38.4283 22.074L38.5701 21.8096L38.5701 21.8096L38.4283 22.074ZM39.5249 26.6387L39.225 26.6344V26.6344L39.5249 26.6387ZM39.4793 29.8145L39.6819 30.0357L39.7774 29.9483L39.7792 29.8188L39.4793 29.8145ZM38.8865 30.3574L39.0891 30.5787L39.0892 30.5786L38.8865 30.3574ZM37.8844 31.003L37.9575 31.294L37.9575 31.294L37.8844 31.003ZM35.9526 30.5589L36.1381 30.3231V30.3231L35.9526 30.5589ZM35.0753 26.391L35.3753 26.391V26.391L35.0753 26.391ZM35.3556 23.0658L35.6236 23.2005L35.6237 23.2005L35.3556 23.0658ZM52.2043 22.437L52.3513 22.1755L52.3513 22.1755L52.2043 22.437ZM53.058 29.9647L52.7997 29.8121L52.7996 29.8122L53.058 29.9647ZM51.1545 30.4298V30.1298H51.1544L51.1545 30.4298ZM48.9285 26.5861L49.2285 26.5861V26.5861H48.9285ZM49.3122 23.085L49.068 22.9108L49.068 22.9108L49.3122 23.085ZM31.3594 22.9673L31.4979 22.7012L31.4978 22.7012L31.3594 22.9673ZM32.1922 23.6204L31.9731 23.8254L31.9731 23.8254L32.1922 23.6204ZM32.6379 26.7187L32.9378 26.7136V26.7136L32.6379 26.7187ZM32.3591 29.9107L32.6139 30.069L32.6139 30.0689L32.3591 29.9107ZM28.4689 29.786L28.7369 29.6513L28.7369 29.6513L28.4689 29.786ZM28.4689 24.0268L28.7369 24.1614L28.7369 24.1614L28.4689 24.0268ZM26.1773 30.6912L26.4683 30.6182L26.4683 30.6181L26.1773 30.6912ZM28.9911 33.2183L29.0765 32.9307L29.0765 32.9307L28.9911 33.2183ZM33.3671 32.4409L33.1852 32.2023L33.1851 32.2024L33.3671 32.4409ZM33.9393 32.0045L34.1273 31.7706L33.9442 31.6235L33.7574 31.7659L33.9393 32.0045ZM34.565 32.5073L34.3771 32.7412L34.3771 32.7412L34.565 32.5073ZM38.957 33.1526L39.0636 33.433L39.0636 33.433L38.957 33.1526ZM39.8299 32.8323V33.1323L39.8327 33.1323L39.8299 32.8323ZM39.6092 33.5692L39.8931 33.666L39.8932 33.6659L39.6092 33.5692ZM39.6402 36.5558L39.3622 36.6684L39.3622 36.6685L39.6402 36.5558ZM20.0203 36.8361H19.7203V37.136H20.0203V36.8361ZM20.0203 30.2696V29.9696H19.7203V30.2696H20.0203ZM26.0715 30.2696L26.3624 30.1966L26.3055 29.9696H26.0715V30.2696ZM61.9812 36.8361V37.136H62.2812V36.8361H61.9812ZM57.851 36.8361L57.5511 36.8451L57.5599 37.136H57.851V36.8361ZM57.7939 34.9542L57.4941 34.9633V34.9633L57.7939 34.9542ZM57.3068 32.3405L57.0481 32.4925L57.0481 32.4925L57.3068 32.3405ZM55.4389 30.6465L55.5986 30.3926L55.5982 30.3923L55.4389 30.6465ZM55.4883 30.4405L55.7434 30.5985L55.7436 30.5982L55.4883 30.4405ZM61.9812 30.2696H62.2812V29.9696H61.9812V30.2696ZM50.7801 71.2879L50.5155 71.4294L50.5156 71.4295L50.7801 71.2879ZM52.8315 71.1712L52.5585 71.0467L52.5585 71.0468L52.8315 71.1712ZM53.0125 56.5207H53.3125L53.3125 56.5194L53.0125 56.5207ZM65.0578 54.0577L65.2172 53.8036L65.0578 54.0577ZM49.3599 30.1805L49.1678 30.411L49.3599 30.1805ZM65.3273 54.1825L65.4372 53.9034L65.3273 54.1825ZM64.412 37.4852L64.112 37.4845L64.412 37.4852ZM51.0314 30.4299L51.0313 30.1299H51.0313L51.0314 30.4299ZM48.9285 26.7987L49.2285 26.7987V26.7987L48.9285 26.7987ZM16.963 54.024L17.1362 54.2689L17.1362 54.2689L16.963 54.024ZM16.6325 54.1946L16.5121 53.9198H16.5121L16.6325 54.1946ZM17.6184 41.1258L17.3184 41.1259L17.6184 41.1258ZM17.6184 41.1171L17.9184 41.117L17.6184 41.1171ZM17.6184 41.1078L17.9184 41.1077L17.6184 41.1078ZM17.6184 41.0981L17.9184 41.098V41.098L17.6184 41.0981ZM10.5575 10.021C10.0064 10.2022 9.57615 10.3871 9.1911 10.6349C8.80494 10.8836 8.47718 11.1872 8.12132 11.5915L8.5717 11.9879C8.90434 11.61 9.19087 11.3487 9.51588 11.1394C9.84201 10.9295 10.2198 10.7636 10.7449 10.591L10.5575 10.021ZM8.12132 11.5915C7.6482 12.129 7.33759 12.6496 7.15096 13.347C6.96773 14.0317 6.9078 14.8736 6.9078 16.0449H7.5078C7.5078 14.883 7.5687 14.1069 7.73057 13.5021C7.88904 12.9099 8.14779 12.4695 8.57169 11.9879L8.12132 11.5915ZM6.9078 16.0449V17.9376H7.5078V16.0449H6.9078ZM7.2078 17.6376H4.96048V18.2376H7.2078V17.6376ZM4.96048 17.6376C3.73739 17.6376 2.93766 17.6727 2.33497 17.8164C1.70821 17.9658 1.30206 18.2303 0.856428 18.6482L1.26685 19.0858C1.65755 18.7194 1.97395 18.5192 2.47409 18.4C2.9983 18.2751 3.72983 18.2376 4.96048 18.2376V17.6376ZM0.856467 18.6481C0.571857 18.9149 0.209486 19.4304 0.0321573 19.8136L0.576686 20.0656C0.725435 19.7441 1.04469 19.2941 1.26681 19.0859L0.856467 18.6481ZM0.0322046 19.8135C-0.139546 20.1843 -0.210522 20.5823 -0.249215 22.3586C-0.288323 24.1541 -0.292188 27.41 -0.292188 33.5528H0.307813C0.307813 27.4061 0.311716 24.1588 0.350643 22.3717C0.389987 20.5655 0.467316 20.3017 0.576639 20.0657L0.0322046 19.8135ZM-0.292188 33.5528C-0.292188 39.6957 -0.288323 42.9516 -0.249215 44.7471C-0.210522 46.5234 -0.139546 46.9214 0.0322046 47.2922L0.576639 47.04C0.467316 46.804 0.389987 46.5402 0.350643 44.734C0.311716 42.9469 0.307813 39.6996 0.307813 33.5528H-0.292188ZM0.0321573 47.2921C0.209487 47.6753 0.571857 48.1908 0.856467 48.4576L1.26681 48.0198C1.04469 47.8116 0.725435 47.3616 0.576686 47.0401L0.0321573 47.2921ZM0.856428 48.4575C1.30206 48.8754 1.70821 49.1399 2.33497 49.2893C2.93766 49.433 3.73739 49.4681 4.96048 49.4681V48.8681C3.72983 48.8681 2.9983 48.8306 2.47409 48.7057C1.97395 48.5864 1.65755 48.3862 1.26685 48.0199L0.856428 48.4575ZM4.96048 49.4681H7.2078V48.8681H4.96048V49.4681ZM6.9078 49.1681V51.0608H7.5078V49.1681H6.9078ZM6.9078 51.0608C6.9078 52.2783 6.97012 53.1439 7.1671 53.8437C7.36801 54.5576 7.70422 55.0833 8.21759 55.6321L8.65576 55.2222C8.19218 54.7266 7.91395 54.2827 7.74466 53.6812C7.57143 53.0657 7.5078 52.2703 7.5078 51.0608H6.9078ZM8.21758 55.6321C8.84327 56.301 9.3325 56.7201 10.0753 56.962C10.7942 57.1961 11.7321 57.2571 13.2307 57.2904L13.244 56.6905C11.7293 56.6569 10.8817 56.5936 10.261 56.3915C9.66421 56.1971 9.25976 55.868 8.65578 55.2222L8.21758 55.6321ZM13.2307 57.2904C15.2398 57.3351 16.0479 57.2951 16.7768 57.0833L16.6093 56.5071C15.9827 56.6893 15.2661 56.7355 13.244 56.6905L13.2307 57.2904ZM16.7768 57.0833C18.1265 56.6909 19.1648 55.8241 19.7939 54.5654L19.2572 54.2972C18.7028 55.4065 17.7981 56.1615 16.6093 56.5071L16.7768 57.0833ZM19.7939 54.5654L20.2887 53.5753L19.7519 53.3071L19.2572 54.2972L19.7939 54.5654ZM20.3203 53.4412V46.3397H19.7203V53.4412H20.3203ZM20.3203 46.3397V39.2384H19.7203V46.3397H20.3203ZM20.0203 39.5384H22.0846V38.9384H20.0203V39.5384ZM22.0846 39.5384H24.149V38.9384H22.0846V39.5384ZM23.8492 39.2497L23.9144 40.9714L24.5139 40.9487L24.4488 39.227L23.8492 39.2497ZM23.9144 40.9714C23.9638 42.2799 24.0608 42.924 24.3403 43.5284L24.8849 43.2765C24.6593 42.7887 24.5631 42.2491 24.5139 40.9487L23.9144 40.9714ZM24.3403 43.5283C24.3976 43.6522 24.5111 43.8339 24.6531 44.0435C24.7989 44.2587 24.9861 44.5198 25.2011 44.8088C25.6312 45.3872 26.1774 46.0836 26.7363 46.7597L27.1988 46.3774C26.6458 45.7085 26.106 45.0202 25.6825 44.4508C25.4707 44.1659 25.2891 43.9124 25.1499 43.707C25.0069 43.4959 24.9193 43.3509 24.8849 43.2766L24.3403 43.5283ZM26.7363 46.7597L28.7578 49.205L29.2203 48.8227L27.1988 46.3774L26.7363 46.7597ZM28.689 49.0138V59.8939H29.289V49.0138H28.689ZM28.689 59.8939C28.689 63.7667 28.7021 66.5174 28.7313 68.3358C28.7459 69.2446 28.7645 69.9233 28.7878 70.3938C28.7994 70.6287 28.8123 70.8153 28.8269 70.9544C28.8342 71.0238 28.8423 71.085 28.8516 71.1364C28.8596 71.181 28.8725 71.2417 28.897 71.2955L29.443 71.0468C29.4515 71.0653 29.4488 71.0674 29.442 71.0296C29.4364 70.9986 29.4301 70.9535 29.4236 70.8918C29.4107 70.7688 29.3985 70.5948 29.3871 70.3642C29.3643 69.9039 29.3458 69.2332 29.3312 68.3262C29.3021 66.513 29.289 63.7664 29.289 59.8939H28.689ZM28.897 71.2955C29.1374 71.8233 29.6608 72.0932 30.1633 72.1218C30.6654 72.1504 31.2125 71.9404 31.486 71.4295L30.957 71.1463C30.8193 71.4036 30.5257 71.5415 30.1974 71.5228C29.8695 71.5041 29.5728 71.3316 29.443 71.0468L28.897 71.2955ZM31.486 71.4294C31.5201 71.3657 31.5326 71.2902 31.5384 71.2543C31.5468 71.2029 31.5541 71.1398 31.5606 71.0674C31.5738 70.922 31.5856 70.722 31.5963 70.469C31.6178 69.9621 31.6355 69.2286 31.6496 68.264C31.6777 66.3342 31.6914 63.4703 31.6914 59.6244H31.0914C31.0914 63.4697 31.0777 66.33 31.0496 68.2553C31.0356 69.2183 31.018 69.9451 30.9969 70.4435C30.9863 70.6932 30.9749 70.8821 30.963 71.0134C30.9571 71.0794 30.9513 71.1265 30.9463 71.1576C30.9387 71.2041 30.9373 71.1832 30.9569 71.1464L31.486 71.4294ZM31.6914 59.6244C31.6914 54.3868 31.6861 51.5383 31.6489 49.9539C31.6303 49.1638 31.6036 48.6763 31.5637 48.3602C31.5236 48.0427 31.4662 47.8612 31.3616 47.711L30.8693 48.054C30.892 48.0867 30.9329 48.1544 30.9684 48.4354C31.0041 48.718 31.0305 49.1782 31.049 49.968C31.0861 51.5435 31.0914 54.383 31.0914 59.6244H31.6914ZM31.3615 47.711C31.2009 47.4805 30.2172 46.259 29.1848 45.0052L28.7216 45.3866C29.7638 46.6523 30.7263 47.8489 30.8693 48.0541L31.3615 47.711ZM29.1847 45.0052C28.6677 44.3774 28.1711 43.7551 27.7879 43.2586C27.5962 43.0102 27.4338 42.7946 27.3118 42.6262C27.1845 42.4504 27.114 42.3435 27.0932 42.3033L26.5603 42.5791C26.6056 42.6665 26.7043 42.8103 26.8259 42.9782C26.9529 43.1534 27.1193 43.3743 27.313 43.6252C27.7006 44.1274 28.2011 44.7547 28.7216 45.3866L29.1847 45.0052ZM27.0933 42.3034C27.0377 42.196 26.9831 42.0041 26.9445 41.7049C26.9066 41.4116 26.8867 41.0378 26.8867 40.5821H26.2867C26.2867 41.0526 26.3071 41.4541 26.3495 41.7818C26.391 42.1036 26.4565 42.3781 26.5603 42.5789L27.0933 42.3034ZM26.8867 40.5821V39.1873H26.2867V40.5821H26.8867ZM26.5838 39.4873L38.1145 39.6007L38.1204 39.0007L26.5897 38.8873L26.5838 39.4873ZM38.1145 39.6007L49.6451 39.7142L49.651 39.1143L38.1204 39.0007L38.1145 39.6007ZM49.8602 39.6264L50.2612 39.2253L49.837 38.8011L49.436 39.2021L49.8602 39.6264ZM50.2612 39.2253C50.5645 38.9221 50.7348 38.5495 50.7417 38.1664C50.7487 37.7812 50.5898 37.4122 50.2848 37.1257L49.874 37.563C50.0636 37.7411 50.1456 37.9505 50.1418 38.1555C50.1381 38.3627 50.0459 38.5922 49.837 38.8011L50.2612 39.2253ZM50.2847 37.1257C50.1885 37.0353 50.0825 36.9439 49.9248 36.8749C49.7729 36.8084 49.5929 36.7712 49.3548 36.7471C48.8852 36.6997 48.0918 36.6962 46.6307 36.6962V37.2962C48.1094 37.2962 48.8632 37.3005 49.2945 37.3441C49.5069 37.3655 49.6157 37.3945 49.6843 37.4246C49.7471 37.452 49.7932 37.4872 49.874 37.5631L50.2847 37.1257ZM46.6307 36.6962C44.8887 36.6962 43.9337 36.6668 43.346 36.5374C43.0616 36.4748 42.8835 36.3925 42.7506 36.2918C42.6164 36.1901 42.5074 36.0541 42.3822 35.8487L41.8699 36.161C42.0128 36.3954 42.1682 36.6033 42.3882 36.77C42.6093 36.9376 42.875 37.0481 43.2171 37.1234C43.8824 37.2698 44.9116 37.2962 46.6307 37.2962V36.6962ZM42.3822 35.8487C41.8093 34.9092 42.2439 33.6495 43.1861 33.3249L42.9907 32.7577C41.6484 33.2201 41.1189 34.9294 41.8699 36.161L42.3822 35.8487ZM43.1861 33.325C43.2423 33.3056 43.393 33.2787 43.6812 33.2539C43.9579 33.23 44.3341 33.21 44.8195 33.1937C45.7897 33.1612 47.1828 33.1443 49.0615 33.1411L49.0604 32.5411C47.1803 32.5443 45.7795 32.5612 44.7994 32.5941C44.3097 32.6105 43.9216 32.631 43.6297 32.6561C43.3492 32.6802 43.127 32.7107 42.9907 32.7577L43.1861 33.325ZM49.0614 33.1411L54.479 33.1321L54.4781 32.5321L49.0605 32.5411L49.0614 33.1411ZM54.2664 33.0443L54.7346 33.5124L55.1588 33.0882L54.6907 32.62L54.2664 33.0443ZM54.7346 33.5124L55.2027 33.9805L55.627 33.5563L55.1588 33.0882L54.7346 33.5124ZM55.1148 33.7684V37.7898H55.7148V33.7684H55.1148ZM55.1148 37.7898C55.1148 39.2993 55.1013 40.3307 55.0678 41.0318C55.0511 41.3824 55.0296 41.6451 55.0032 41.8409C54.9764 42.0406 54.9467 42.1534 54.9212 42.2143L55.4748 42.4458C55.5307 42.3119 55.5688 42.1373 55.5979 41.9209C55.6275 41.7007 55.65 41.4187 55.6671 41.0604C55.7014 40.3436 55.7148 39.2995 55.7148 37.7898H55.1148ZM54.9211 42.2145C54.9052 42.2527 54.8415 42.3608 54.7155 42.5453C54.596 42.7202 54.4352 42.9426 54.2439 43.1979C53.8616 43.708 53.3627 44.3424 52.84 44.977L53.3031 45.3584C53.8308 44.7178 54.3355 44.0762 54.724 43.5577C54.9182 43.2986 55.0846 43.0686 55.2108 42.8839C55.3305 42.7087 55.4312 42.5502 55.4748 42.4456L54.9211 42.2145ZM52.84 44.977C52.1698 45.7908 51.6748 46.3795 51.3155 46.8333C50.9569 47.286 50.7155 47.6263 50.5608 47.9459C50.2437 48.6009 50.3101 49.1511 50.3101 50.252H50.9101C50.9101 49.0601 50.8606 48.7035 51.1008 48.2073C51.2248 47.9512 51.4303 47.6547 51.7858 47.2058C52.1405 46.7579 52.6266 46.18 53.3032 45.3584L52.84 44.977ZM53.2873 50.6787L53.3424 48.9871L52.7427 48.9676L52.6877 50.6591L53.2873 50.6787ZM53.2738 49.1685L55.2802 46.7415L54.8178 46.3592L52.8114 48.7862L53.2738 49.1685ZM55.2802 46.7415C55.8351 46.0704 56.3774 45.3785 56.8049 44.8034C57.0185 44.516 57.2046 44.2563 57.3497 44.042C57.4909 43.8332 57.604 43.6521 57.6612 43.5283L57.1166 43.2766C57.0822 43.351 56.9949 43.4956 56.8528 43.7057C56.7143 43.9102 56.5338 44.1623 56.3234 44.4455C55.9026 45.0116 55.3666 45.6954 54.8178 46.3592L55.2802 46.7415ZM57.6612 43.5284C57.9407 42.924 58.0377 42.2799 58.0872 40.9714L57.4876 40.9487C57.4384 42.2491 57.3422 42.7887 57.1166 43.2765L57.6612 43.5284ZM58.0872 40.9714L58.1524 39.2497L57.5528 39.227L57.4876 40.9487L58.0872 40.9714ZM57.8526 39.5384H59.917V38.9384H57.8526V39.5384ZM59.917 39.5384H61.9812V38.9384H59.917V39.5384ZM61.6812 39.2384V46.3397H62.2812V39.2384H61.6812ZM61.6812 46.3397V53.4412H62.2812V46.3397H61.6812ZM61.7129 53.5753L62.2076 54.5654L62.7443 54.2972L62.2496 53.3071L61.7129 53.5753ZM62.2076 54.5654C62.8367 55.8241 63.875 56.6909 65.2247 57.0833L65.3922 56.5071C64.2034 56.1615 63.2988 55.4065 62.7443 54.2972L62.2076 54.5654ZM65.2248 57.0833C65.9537 57.2951 66.7617 57.3351 68.7708 57.2904L68.7575 56.6905C66.7355 56.7355 66.0189 56.6893 65.3922 56.5071L65.2248 57.0833ZM68.7708 57.2904C70.2802 57.2568 71.2299 57.1928 71.9553 56.9515C72.7051 56.7021 73.1949 56.2713 73.8105 55.5866L73.3643 55.1854C72.7719 55.8444 72.3672 56.1821 71.766 56.3822C71.1404 56.5903 70.2824 56.6566 68.7575 56.6905L68.7708 57.2904ZM73.8105 55.5866C74.3164 55.024 74.6462 54.5012 74.8424 53.7978C75.0347 53.108 75.0937 52.2607 75.0937 51.0608H74.4937C74.4937 52.2536 74.4333 53.0309 74.2644 53.6366C74.0993 54.2286 73.826 54.672 73.3644 55.1854L73.8105 55.5866ZM75.0937 51.0608V49.1681H74.4937V51.0608H75.0937ZM74.7937 49.4681H77.041V48.8681H74.7937V49.4681ZM77.041 49.4681C78.2641 49.4681 79.0639 49.433 79.6666 49.2893C80.2933 49.1399 80.6995 48.8754 81.1451 48.4575L80.7347 48.0199C80.344 48.3862 80.0276 48.5864 79.5274 48.7057C79.0032 48.8306 78.2717 48.8681 77.041 48.8681V49.4681ZM81.1451 48.4576C81.4297 48.1908 81.792 47.6753 81.9694 47.2921L81.4248 47.0401C81.2761 47.3616 80.9568 47.8116 80.7347 48.0198L81.1451 48.4576ZM81.9693 47.2922C82.141 46.9215 82.212 46.5228 82.2512 44.7503C82.2908 42.9588 82.2956 39.7115 82.2972 33.5878L81.6972 33.5877C81.6956 39.7153 81.6907 42.9539 81.6513 44.7371C81.6115 46.5393 81.5342 46.8041 81.4249 47.0401L81.9693 47.2922ZM82.2972 33.5878C82.2992 26.5237 82.3096 23.1194 82.1978 21.3566C82.1421 20.4786 82.0546 19.9684 81.9006 19.6065C81.742 19.2342 81.5139 19.0318 81.2902 18.7933L80.8525 19.2037C81.1124 19.4808 81.2422 19.5918 81.3485 19.8415C81.4593 20.1017 81.5436 20.5223 81.599 21.3946C81.7093 23.1324 81.6992 26.5071 81.6972 33.5877L82.2972 33.5878ZM81.2902 18.7933C80.8489 18.3227 80.4344 18.0216 79.7862 17.8501C79.1636 17.6853 78.3345 17.6431 77.0764 17.6411L77.0755 18.2411C78.341 18.2431 79.0955 18.2879 79.6327 18.4301C80.1442 18.5655 80.4657 18.7912 80.8525 19.2037L81.2902 18.7933ZM77.0764 17.6411L74.7942 17.6376L74.7933 18.2376L77.0755 18.2411L77.0764 17.6411ZM75.0937 17.9376V16.0449H74.4937V17.9376H75.0937ZM75.0937 16.0449C75.0937 14.8207 75.009 13.8229 74.8395 13.2523L74.2643 13.4232C74.4071 13.9036 74.4937 14.8254 74.4937 16.0449H75.0937ZM74.8395 13.2524C74.6631 12.6584 74.2825 12.0487 73.8109 11.5265C73.3385 11.0035 72.7572 10.5489 72.1592 10.2788L71.9122 10.8256C72.4199 11.0549 72.9365 11.4536 73.3656 11.9287C73.7956 12.4047 74.1202 12.938 74.2643 13.4232L74.8395 13.2524ZM72.1593 10.2788C71.7454 10.0917 71.4549 9.98386 70.9164 9.92867C70.4011 9.87587 69.6484 9.87004 68.3074 9.87004V10.47C69.6615 10.47 70.3778 10.4766 70.8552 10.5255C71.3095 10.5721 71.5356 10.6553 71.9121 10.8255L72.1593 10.2788ZM68.3074 9.87004C66.9752 9.87004 66.2233 9.8762 65.7195 9.92698C65.1911 9.98024 64.9197 10.0844 64.551 10.2661L64.8161 10.8043C65.1356 10.6469 65.3375 10.5685 65.7796 10.524C66.2463 10.4769 66.9623 10.47 68.3074 10.47V9.87004ZM64.551 10.2661C63.489 10.7893 62.5779 11.7081 62.0914 12.7531L62.6353 13.0063C63.062 12.0898 63.8723 11.2693 64.8161 10.8043L64.551 10.2661ZM62.0914 12.7531L61.7125 13.5668L62.2564 13.8201L62.6353 13.0064L62.0914 12.7531ZM61.6844 13.6934L61.6828 20.7803L62.2828 20.7805L62.2844 13.6935L61.6844 13.6934ZM61.6828 20.7803L61.6812 27.8672L62.2812 27.8674L62.2828 20.7805L61.6828 20.7803ZM61.9812 27.5673H58.8582V28.1673H61.9812V27.5673ZM58.8582 27.5673H55.7351V28.1673H58.8582V27.5673ZM56.0351 27.8673V25.559H55.4351V27.8673H56.0351ZM56.0351 25.559C56.0351 24.4259 56.0352 23.8168 55.9649 23.3701C55.8907 22.8985 55.7374 22.6026 55.4799 22.1052L54.9471 22.381C55.2076 22.8843 55.3151 23.1002 55.3722 23.4633C55.4333 23.8514 55.4351 24.3999 55.4351 25.559H56.0351ZM55.4799 22.1052C54.819 20.8285 53.8556 20.0284 52.4971 19.6334L52.3296 20.2095C53.5268 20.5577 54.36 21.247 54.9471 22.381L55.4799 22.1052ZM52.4971 19.6334C51.3228 19.2919 50.0522 19.3923 49.0193 19.9193L49.2919 20.4538C50.1789 20.0012 51.2909 19.9075 52.3296 20.2095L52.4971 19.6334ZM49.0193 19.9193L48.3247 20.2735L48.5973 20.808L49.2919 20.4538L49.0193 19.9193ZM48.7146 20.3805L48.4741 19.9998L47.9668 20.3204L48.2074 20.701L48.7146 20.3805ZM48.4741 19.9999C48.0472 19.3242 47.3821 18.7368 46.6453 18.3184C45.9093 17.9004 45.0779 17.6376 44.307 17.6376V18.2376C44.9499 18.2376 45.6796 18.46 46.349 18.8401C47.0178 19.2199 47.6026 19.7438 47.9668 20.3203L48.4741 19.9999ZM44.307 17.6376C42.9059 17.6376 41.8262 18.1034 40.7908 19.1414L41.2156 19.5651C42.1456 18.6328 43.0752 18.2376 44.307 18.2376V17.6376ZM40.7908 19.1414L39.8864 20.048L40.3112 20.4717L41.2156 19.5651L40.7908 19.1414ZM40.2445 19.9977L39.5675 19.6214L39.2761 20.1459L39.953 20.5221L40.2445 19.9977ZM39.5675 19.6214C37.8459 18.6649 35.577 19.0179 34.0222 20.4388L34.4269 20.8817C35.8149 19.6133 37.8067 19.3295 39.2761 20.1459L39.5675 19.6214ZM34.0222 20.4388C33.6427 20.7856 33.4473 20.9458 33.3345 21.0056C33.2831 21.0328 33.2966 21.0123 33.3427 21.0206C33.3934 21.0299 33.4096 21.0601 33.3882 21.0342L32.9264 21.4173C32.9868 21.4902 33.0849 21.5837 33.2355 21.611C33.3816 21.6375 33.5129 21.59 33.6154 21.5357C33.8103 21.4324 34.0666 21.2111 34.427 20.8817L34.0222 20.4388ZM33.3881 21.0342C33.2672 20.8885 33.0613 20.7634 32.8538 20.6606C32.6347 20.5521 32.3704 20.4479 32.094 20.3574C31.5478 20.1785 30.9148 20.04 30.453 20.04V20.64C30.8232 20.64 31.387 20.7572 31.9073 20.9276C32.1642 21.0118 32.4005 21.1057 32.5875 21.1983C32.7862 21.2967 32.892 21.3759 32.9264 21.4174L33.3881 21.0342ZM30.453 20.04C29.096 20.04 28.05 20.5107 26.9895 21.5703L27.4136 21.9947C28.3774 21.0318 29.2761 20.64 30.453 20.64V20.04ZM26.9895 21.5702C26.3921 22.167 26.0032 22.6933 25.774 23.3981C25.5491 24.0895 25.4859 24.9295 25.4859 26.1347H26.0859C26.0859 24.9354 26.1513 24.1779 26.3446 23.5837C26.5335 23.0028 26.8524 22.5553 27.4136 21.9947L26.9895 21.5702ZM25.4859 26.1347V27.8673H26.0859V26.1347H25.4859ZM25.7859 27.5673H22.9031V28.1673H25.7859V27.5673ZM22.9031 27.5673H20.0203V28.1673H22.9031V27.5673ZM20.3203 27.8673V25.9454H19.7203V27.8673H20.3203ZM16.3006 54.016C15.7939 54.2613 15.4544 54.3134 13.6035 54.3131L13.6034 54.9131C15.4329 54.9134 15.9121 54.8707 16.5621 54.5561L16.3006 54.016ZM13.6035 54.3131C12.3751 54.313 11.668 54.268 11.1934 54.1236C10.7547 53.9901 10.5091 53.7699 10.2231 53.342L9.72425 53.6753C10.0615 54.1801 10.4091 54.5121 11.0187 54.6976C11.5923 54.8721 12.3885 54.913 13.6035 54.9131L13.6035 54.3131ZM10.2232 53.342L9.8596 52.7978L9.36068 53.1311L9.72424 53.6753L10.2232 53.342ZM9.91014 52.9644L9.91078 33.5692L9.31078 33.5692L9.31014 52.9644L9.91014 52.9644ZM9.91078 33.5692C9.91102 24.0966 9.91299 19.248 9.95295 16.7045C9.97297 15.4299 10.0024 14.7459 10.0444 14.3514C10.0652 14.1551 10.088 14.0427 10.1098 13.9705C10.1294 13.9052 10.1497 13.8672 10.1795 13.8183L9.66727 13.5059C9.62089 13.582 9.5743 13.6678 9.53522 13.7976C9.49821 13.9205 9.47043 14.0744 9.44773 14.288C9.40254 14.7133 9.373 15.4232 9.35302 16.6951C9.31297 19.2447 9.31102 24.0998 9.31078 33.5692L9.91078 33.5692ZM10.1795 13.8183C10.4542 13.3678 10.6479 13.1657 11.0187 13.039C11.4337 12.8971 12.0766 12.8474 13.284 12.8157L13.2683 12.2159C12.0864 12.2469 11.3435 12.2938 10.8247 12.4712C10.2617 12.6637 9.97361 13.0035 9.66727 13.5059L10.1795 13.8183ZM13.284 12.8157C14.5151 12.7835 15.2575 12.803 15.7733 12.9098C16.2624 13.011 16.5429 13.1895 16.8476 13.5073L17.2807 13.092C16.9009 12.696 16.5149 12.4505 15.8949 12.3222C15.3015 12.1994 14.4922 12.1839 13.2683 12.2159L13.284 12.8157ZM16.8476 13.5073L17.3213 14.0014L17.7544 13.5861L17.2807 13.092L16.8476 13.5073ZM17.238 13.8017L17.3181 16.8307L17.9178 16.8148L17.8378 13.7858L17.238 13.8017ZM20.2916 16.5796C20.263 14.7953 20.2275 13.7684 20.0349 13.0388C19.8326 12.2725 19.4588 11.8375 18.8444 11.223L18.4201 11.6472C19.0177 12.245 19.2948 12.586 19.4548 13.192C19.6244 13.8347 19.6626 14.7764 19.6917 16.5893L20.2916 16.5796ZM18.8444 11.223C18.2867 10.6653 17.8163 10.3147 17.0813 10.1117C16.3723 9.91592 15.4284 9.86133 13.9391 9.83756L13.9296 10.4375C15.4309 10.4614 16.2982 10.5179 16.9216 10.6901C17.5191 10.8551 17.9023 11.1295 18.4201 11.6472L18.8444 11.223ZM13.9392 9.83756C13.0096 9.82271 12.2934 9.82775 11.7505 9.85562C11.2146 9.88312 10.823 9.93371 10.5574 10.021L10.7449 10.591C10.9289 10.5305 11.2517 10.482 11.7813 10.4548C12.3041 10.428 13.0046 10.4227 13.9296 10.4375L13.9392 9.83756ZM71.1609 13.1121C71.3613 13.2436 71.6702 13.5696 71.822 13.8183L72.3342 13.5058C72.1426 13.1918 71.7744 12.7971 71.4902 12.6105L71.1609 13.1121ZM71.822 13.8182C71.9236 13.9849 72.0068 14.1232 72.0476 15.7848C72.0878 17.4223 72.0905 20.4761 72.0907 26.3931L72.6908 26.3931C72.6905 20.4809 72.6879 17.417 72.6474 15.7701C72.6076 14.1474 72.5347 13.8348 72.3343 13.5059L71.822 13.8182ZM72.0907 26.3931L72.0914 38.6124L72.6914 38.6123L72.6908 26.393L72.0907 26.3931ZM72.1793 38.8245L72.5725 39.2175L72.9967 38.7932L72.6035 38.4002L72.1793 38.8245ZM72.5724 39.2175C72.7082 39.3532 72.882 39.4697 73.0528 39.5528C73.2183 39.6333 73.4137 39.6985 73.5926 39.6985V39.0986C73.5432 39.0986 73.4427 39.0753 73.3153 39.0133C73.1932 38.9539 73.0772 38.8737 72.9967 38.7932L72.5724 39.2175ZM73.5926 39.6985C73.7714 39.6985 73.9669 39.6333 74.1323 39.5528C74.3031 39.4697 74.477 39.3532 74.6127 39.2175L74.1884 38.7932C74.1079 38.8737 73.9919 38.9539 73.8698 39.0133C73.7424 39.0753 73.6419 39.0986 73.5926 39.0986V39.6985ZM74.6126 39.2175L75.0058 38.8245L74.5816 38.4002L74.1885 38.7932L74.6126 39.2175ZM75.0937 38.6123V29.4761H74.4937V38.6123H75.0937ZM75.0937 29.4761V20.34H74.4937V29.4761H75.0937ZM74.7937 20.64H76.8758V20.04H74.7937V20.64ZM76.8758 20.64C77.8178 20.64 78.3234 20.6488 78.6302 20.6897C78.779 20.7095 78.8621 20.7348 78.9168 20.7605C78.9676 20.7844 79.0089 20.8153 79.066 20.8724L79.4902 20.4481C79.4036 20.3615 79.3063 20.2805 79.1717 20.2174C79.041 20.156 78.8918 20.1192 78.7095 20.0949C78.3541 20.0476 77.8023 20.04 76.8758 20.04V20.64ZM79.066 20.8724C79.0969 20.9033 79.1051 20.9144 79.1142 20.9324C79.1261 20.9563 79.1456 21.0072 79.1654 21.1213C79.2059 21.3547 79.236 21.7774 79.2564 22.601C79.297 24.2385 79.2984 27.3845 79.2984 33.5802H79.8984C79.8984 27.3898 79.8971 24.2332 79.8562 22.5861C79.8359 21.7673 79.8057 21.302 79.7566 21.0188C79.7316 20.8746 79.699 20.76 79.6504 20.6632C79.5988 20.5605 79.5381 20.496 79.4902 20.4481L79.066 20.8724ZM79.2984 33.5802C79.2984 39.3315 79.2926 42.484 79.2566 44.2324C79.2386 45.1088 79.2132 45.6215 79.1787 45.9293C79.1422 46.255 79.0999 46.2837 79.1109 46.2715L79.5558 46.6741C79.6877 46.5283 79.7391 46.316 79.7749 45.9961C79.8128 45.6582 79.8385 45.1206 79.8565 44.2447C79.8926 42.4885 79.8984 39.3283 79.8984 33.5802H79.2984ZM79.1109 46.2715C79.0763 46.3098 79.0474 46.3321 79.0026 46.3517C78.9503 46.3746 78.8648 46.3985 78.7092 46.4175C78.393 46.456 77.8707 46.4657 76.931 46.4657V47.0657C77.8584 47.0657 78.4216 47.057 78.7818 47.013C78.9645 46.9908 79.115 46.9575 79.2431 46.9014C79.3787 46.8421 79.4746 46.7638 79.5558 46.6741L79.1109 46.2715ZM76.931 46.4657H74.7937V47.0657H76.931V46.4657ZM75.0937 46.7657V44.8367H74.4937V46.7657H75.0937ZM75.0937 44.8367C75.0937 43.9325 75.09 43.4134 75.0332 43.0776C75.003 42.8994 74.9557 42.7556 74.8779 42.6241C74.8028 42.4972 74.7078 42.3974 74.6126 42.3022L74.1885 42.7266C74.2802 42.8183 74.3279 42.8728 74.3616 42.9297C74.3926 42.9821 74.4202 43.0514 74.4416 43.1777C74.4878 43.4509 74.4937 43.9061 74.4937 44.8367H75.0937ZM74.6127 42.3023C74.3186 42.008 73.9671 41.8385 73.5926 41.8385C73.218 41.8385 72.8666 42.008 72.5724 42.3023L72.9967 42.7265C73.2036 42.5196 73.4096 42.4385 73.5926 42.4385C73.7755 42.4385 73.9816 42.5196 74.1884 42.7265L74.6127 42.3023ZM72.5725 42.3022L72.1793 42.6952L72.6035 43.1196L72.9967 42.7266L72.5725 42.3022ZM72.0914 42.9074V47.936H72.6914V42.9074H72.0914ZM72.0914 47.936C72.0914 50.4233 72.09 51.6686 72.0448 52.3619C72.0222 52.7075 71.9898 52.8933 71.9501 53.0182C71.9129 53.1352 71.8661 53.2108 71.7784 53.342L72.2773 53.6753C72.369 53.5381 72.4573 53.403 72.5219 53.2C72.5839 53.0049 72.62 52.7613 72.6435 52.401C72.6904 51.6825 72.6914 50.4099 72.6914 47.936H72.0914ZM71.7784 53.342C71.4925 53.7699 71.2468 53.9901 70.8082 54.1236C70.3335 54.268 69.6265 54.313 68.398 54.3131L68.3981 54.9131C69.613 54.913 70.4092 54.8721 70.9828 54.6976C71.5925 54.5121 71.94 54.1801 72.2773 53.6753L71.7784 53.342ZM68.398 54.3131C66.5471 54.3134 66.2076 54.2613 65.7009 54.016L65.4395 54.5561C66.0894 54.8707 66.5686 54.9134 68.3981 54.9131L68.398 54.3131ZM64.7217 33.3379L64.7637 13.8L64.1637 13.7987L64.1217 33.3366L64.7217 33.3379ZM64.6841 14.0028L65.0845 13.5691L64.6436 13.1621L64.2432 13.5958L64.6841 14.0028ZM65.0845 13.5691C65.4208 13.2048 65.6588 13.0295 66.0948 12.9309C66.5679 12.824 67.2714 12.8084 68.5499 12.831L68.5605 12.2311C67.3011 12.2089 66.5199 12.2197 65.9624 12.3457C65.3678 12.4802 65.0291 12.7446 64.6436 13.1621L65.0845 13.5691ZM68.5498 12.831C69.5168 12.8482 70.103 12.8709 70.4914 12.9172C70.8718 12.9625 71.0317 13.0273 71.161 13.1122L71.4901 12.6104C71.2546 12.456 70.9937 12.3728 70.5624 12.3214C70.139 12.271 69.5225 12.2482 68.5605 12.2311L68.5498 12.831ZM6.9078 33.5528V46.7657H7.5078V33.5528H6.9078ZM7.2078 46.4657H5.09838V47.0657H7.2078V46.4657ZM5.09838 46.4657C4.22627 46.4657 3.70272 46.4538 3.3688 46.4169C3.03686 46.3803 2.94768 46.3238 2.89735 46.2783L2.49472 46.7231C2.68574 46.896 2.92865 46.972 3.303 47.0133C3.67536 47.0544 4.23231 47.0657 5.09838 47.0657V46.4657ZM2.89737 46.2783C2.89171 46.2731 2.88829 46.2713 2.87986 46.2512C2.86712 46.221 2.84822 46.1582 2.82948 46.0285C2.79189 45.7682 2.76408 45.3095 2.74487 44.4641C2.70661 42.7806 2.70311 39.6252 2.70311 33.6081H2.10311C2.10311 39.6209 2.10657 42.7855 2.14503 44.4777C2.16417 45.3202 2.19216 45.8132 2.23565 46.1143C2.27996 46.4211 2.34816 46.5904 2.4947 46.7231L2.89737 46.2783ZM2.70311 33.6081C2.70311 27.3984 2.7045 24.2455 2.7451 22.6044C2.76552 21.7791 2.79566 21.3555 2.83614 21.1216C2.85593 21.0073 2.87543 20.9563 2.88741 20.9324C2.89642 20.9144 2.90468 20.9033 2.93555 20.8724L2.51129 20.4481C2.46345 20.496 2.40266 20.5606 2.35111 20.6633C2.30252 20.7602 2.26993 20.8749 2.24493 21.0193C2.19584 21.303 2.16558 21.769 2.14528 22.5896C2.10444 24.2402 2.10311 27.4037 2.10311 33.6081H2.70311ZM2.93555 20.8724C2.99261 20.8153 3.03394 20.7844 3.08474 20.7605C3.13947 20.7348 3.22254 20.7095 3.37134 20.6897C3.67815 20.6488 4.18376 20.64 5.12577 20.64V20.04C4.19923 20.04 3.64741 20.0476 3.29205 20.0949C3.10977 20.1192 2.96057 20.156 2.82987 20.2174C2.69524 20.2805 2.59797 20.3615 2.51129 20.4481L2.93555 20.8724ZM5.12577 20.64H7.2078V20.04H5.12577V20.64ZM6.9078 20.34V33.5528H7.5078V20.34H6.9078ZM45.1295 20.8682C45.2437 20.9224 45.3914 21.0257 45.5351 21.1552C45.6786 21.2845 45.7989 21.4226 45.868 21.5345L46.3784 21.2191C46.2701 21.0438 46.107 20.8629 45.9368 20.7096C45.7669 20.5564 45.5709 20.4135 45.3869 20.3262L45.1295 20.8682ZM45.868 21.5345C45.9346 21.6423 45.978 21.727 46.0122 21.8451C46.0482 21.9692 46.0771 22.1415 46.0981 22.4254C46.1402 22.9971 46.1461 23.9565 46.1461 25.7552H46.7461C46.7461 23.9675 46.7406 22.9806 46.6964 22.3812C46.6742 22.0795 46.6412 21.8601 46.5885 21.6781C46.534 21.49 46.4619 21.3543 46.3784 21.2191L45.868 21.5345ZM46.1461 25.7552C46.1461 27.6506 46.1438 28.5992 46.0992 29.1261C46.077 29.3879 46.0461 29.5173 46.0134 29.5969C45.984 29.6682 45.9478 29.7148 45.8632 29.8083L46.3082 30.2108C46.4 30.1093 46.497 29.9984 46.5682 29.8252C46.6361 29.6602 46.6732 29.458 46.6971 29.1767C46.7445 28.6174 46.7461 27.6338 46.7461 25.7552H46.1461ZM45.8633 29.8083C45.7869 29.8926 45.7346 29.9412 45.6824 29.976C45.6333 30.0086 45.5723 30.0368 45.4727 30.0608C45.2545 30.1134 44.9052 30.1355 44.2118 30.1591L44.2322 30.7588C44.9036 30.7359 45.3226 30.7142 45.6133 30.6441C45.768 30.6068 45.8967 30.554 46.0145 30.4757C46.1291 30.3995 46.2209 30.3073 46.3082 30.2108L45.8633 29.8083ZM44.2118 30.1591C43.838 30.1718 43.5638 30.1808 43.354 30.1805C43.1416 30.1802 43.016 30.1701 42.9326 30.152C42.8605 30.1362 42.8272 30.1161 42.7966 30.0896C42.7535 30.0523 42.709 29.9963 42.6203 29.878L42.14 30.2376C42.2189 30.3429 42.3024 30.4553 42.4036 30.543C42.5173 30.6416 42.6444 30.7032 42.8049 30.7382C42.9541 30.7707 43.1332 30.7802 43.3532 30.7805C43.5759 30.7808 43.8621 30.7713 44.2322 30.7588L44.2118 30.1591ZM42.6204 29.878C42.5476 29.7807 42.5072 29.7166 42.4751 29.6222C42.4402 29.5198 42.4104 29.3671 42.389 29.0917C42.3459 28.5373 42.3418 27.5723 42.3418 25.7052H41.7418C41.7418 27.5588 41.7454 28.5543 41.7908 29.1382C41.8136 29.4319 41.8483 29.6428 41.9071 29.8156C41.9687 29.9964 42.0513 30.119 42.14 30.2375L42.6204 29.878ZM42.3418 25.7052C42.3418 23.8525 42.3464 22.8862 42.389 22.3275C42.4101 22.0498 42.4395 21.8933 42.4742 21.7876C42.5061 21.6902 42.5461 21.6245 42.6154 21.5301L42.1316 21.1752C42.0438 21.2948 41.9638 21.4186 41.9041 21.6005C41.8471 21.7741 41.8132 21.9866 41.7907 22.2819C41.746 22.8694 41.7418 23.8653 41.7418 25.7052H42.3418ZM42.6154 21.5301C43.2136 20.7145 44.2456 20.4488 45.1296 20.8682L45.3868 20.3261C44.2348 19.7795 42.8946 20.1349 42.1316 21.1752L42.6154 21.5301ZM38.2865 22.3383C38.5401 22.4743 38.705 22.586 38.8251 22.7203C38.9405 22.8494 39.0308 23.018 39.097 23.2935C39.2358 23.8713 39.251 24.8275 39.225 26.6344L39.8249 26.6431C39.8505 24.8671 39.841 23.8217 39.6804 23.1533C39.5969 22.8056 39.4688 22.54 39.2724 22.3204C39.0807 22.106 38.8402 21.9545 38.5701 21.8096L38.2865 22.3383ZM39.225 26.6344L39.1793 29.8102L39.7792 29.8188L39.8249 26.6431L39.225 26.6344ZM39.2766 29.5933L38.6839 30.1362L39.0892 30.5786L39.6819 30.0357L39.2766 29.5933ZM38.684 30.1361C38.5345 30.273 38.3539 30.4101 38.1852 30.5188C38.0079 30.633 37.8735 30.6964 37.8114 30.712L37.9575 31.294C38.1206 31.253 38.3242 31.1429 38.5101 31.0231C38.7046 30.8978 38.9125 30.7404 39.0891 30.5787L38.684 30.1361ZM37.8114 30.712C37.5762 30.771 37.2696 30.7651 36.9558 30.693C36.6431 30.6211 36.3496 30.4894 36.1381 30.3231L35.7672 30.7947C36.0618 31.0265 36.4412 31.1904 36.8214 31.2778C37.2006 31.3649 37.6068 31.382 37.9575 31.294L37.8114 30.712ZM36.1381 30.3231C35.9616 30.1842 35.8388 30.0613 35.7453 29.9167C35.652 29.7726 35.5775 29.5907 35.5211 29.3224C35.4049 28.7704 35.3751 27.9123 35.3753 26.391L34.7753 26.3909C34.7751 27.8952 34.8023 28.8207 34.9339 29.446C35.0014 29.7664 35.0986 30.0217 35.2415 30.2426C35.3841 30.4631 35.5619 30.6332 35.7672 30.7947L36.1381 30.3231ZM35.3753 26.391C35.3754 25.231 35.3871 24.529 35.4266 24.0602C35.4655 23.5989 35.5296 23.3877 35.6236 23.2005L35.0875 22.9311C34.9473 23.2102 34.8713 23.5038 34.8287 24.0098C34.7867 24.5081 34.7754 25.2356 34.7753 26.391L35.3753 26.391ZM35.6237 23.2005C36.1326 22.1873 37.3058 21.8124 38.2866 22.3384L38.5701 21.8096C37.286 21.1209 35.7451 21.6221 35.0875 22.9312L35.6237 23.2005ZM52.0573 22.6986C52.3189 22.8456 52.4875 22.9559 52.6099 23.0823C52.7245 23.2007 52.8103 23.3458 52.8744 23.5813C52.9408 23.8253 52.9819 24.1594 53.005 24.6501C53.0281 25.1387 53.0328 25.7646 53.0328 26.5861H53.6328C53.6328 25.7659 53.6282 25.1265 53.6044 24.6219C53.5807 24.1194 53.5373 23.7326 53.4534 23.4238C53.3671 23.1066 53.2367 22.8671 53.0409 22.6649C52.8529 22.4708 52.6169 22.3248 52.3513 22.1755L52.0573 22.6986ZM53.0328 26.5861C53.0328 27.8214 53.022 28.5549 52.9836 29.0279C52.9455 29.4955 52.8826 29.6718 52.7997 29.8121L53.3162 30.1173C53.4659 29.8641 53.5404 29.5836 53.5816 29.0765C53.6224 28.5747 53.6328 27.8157 53.6328 26.5861H53.0328ZM52.7996 29.8122C52.7251 29.9385 52.6926 29.9897 52.6595 30.0235C52.6408 30.0425 52.6167 30.0621 52.5426 30.0802C52.4562 30.1013 52.3217 30.1155 52.0908 30.1227C51.8633 30.1298 51.5635 30.1298 51.1545 30.1298V30.7298C51.5595 30.7298 51.8704 30.7298 52.1095 30.7224C52.3452 30.715 52.5334 30.7001 52.685 30.663C52.8489 30.623 52.9783 30.5553 53.0879 30.4436C53.183 30.3466 53.2536 30.2234 53.3163 30.1172L52.7996 29.8122ZM49.2285 26.5861C49.2285 25.1415 49.232 24.4182 49.2792 23.9875C49.3021 23.7786 49.3338 23.6567 49.3725 23.5635C49.4118 23.4691 49.4645 23.3882 49.5565 23.2592L49.068 22.9108C48.9741 23.0424 48.886 23.1708 48.8184 23.3332C48.7504 23.497 48.7093 23.6797 48.6828 23.9222C48.631 24.3943 48.6285 25.1609 48.6285 26.5861H49.2285ZM49.5565 23.2593C50.1612 22.4115 51.1522 22.1899 52.0574 22.6986L52.3513 22.1755C51.1783 21.5163 49.8502 21.8143 49.068 22.9108L49.5565 23.2593ZM31.2208 23.2334C31.4232 23.3387 31.7715 23.6099 31.9731 23.8254L32.4113 23.4155C32.1724 23.1601 31.7712 22.8435 31.4979 22.7012L31.2208 23.2334ZM31.9731 23.8254C32.0703 23.9293 32.1187 23.9871 32.1547 24.0552C32.1895 24.121 32.2218 24.2148 32.2476 24.3943C32.3014 24.7682 32.3157 25.4133 32.3379 26.7237L32.9378 26.7136C32.916 25.4263 32.9022 24.7305 32.8415 24.3088C32.8101 24.0905 32.7635 23.9229 32.6851 23.7747C32.6079 23.6287 32.5088 23.5197 32.4113 23.4155L31.9731 23.8254ZM32.3379 26.7237C32.3587 27.9539 32.3625 28.6138 32.3265 29.0268C32.3088 29.229 32.2825 29.3588 32.249 29.4598C32.2161 29.559 32.1722 29.6429 32.1042 29.7525L32.6139 30.0689C32.6944 29.9394 32.7648 29.8105 32.8184 29.6487C32.8715 29.4887 32.9041 29.3092 32.9242 29.079C32.9636 28.6274 32.9584 27.9305 32.9378 26.7136L32.3379 26.7237ZM32.1042 29.7525C31.2534 31.1228 29.4396 31.0499 28.7369 29.6513L28.2008 29.9206C29.1234 31.7572 31.5271 31.8195 32.6139 30.069L32.1042 29.7525ZM28.7369 29.6513C28.7044 29.5865 28.6658 29.4649 28.629 29.2797C28.5932 29.1 28.5624 28.879 28.5375 28.6277C28.4876 28.1254 28.4623 27.5174 28.4623 26.9064C28.4623 26.2953 28.4876 25.6873 28.5375 25.1851C28.5624 24.9338 28.5932 24.7127 28.629 24.533C28.6658 24.3478 28.7044 24.2263 28.7369 24.1614L28.2008 23.8921C28.1312 24.0306 28.0803 24.2161 28.0405 24.4158C27.9997 24.6209 27.9666 24.8626 27.9404 25.1258C27.8881 25.6525 27.8623 26.281 27.8623 26.9064C27.8623 27.5318 27.8881 28.1602 27.9404 28.687C27.9666 28.9502 27.9997 29.1918 28.0405 29.3969C28.0803 29.5966 28.1312 29.7821 28.2008 29.9207L28.7369 29.6513ZM28.7369 24.1614C29.2231 23.1936 30.3788 22.7953 31.2209 23.2335L31.4978 22.7012C30.3206 22.0887 28.8171 22.6652 28.2008 23.8921L28.7369 24.1614ZM25.8863 30.7641C25.9126 30.8689 25.9733 30.9828 26.0356 31.0846C26.1023 31.1935 26.1881 31.3157 26.2857 31.4432C26.481 31.6983 26.733 31.987 26.9965 32.2504L27.4207 31.8261C27.1752 31.5806 26.9407 31.3117 26.7621 31.0784C26.6727 30.9617 26.5999 30.8571 26.5473 30.7712C26.521 30.7284 26.5013 30.6925 26.4875 30.664C26.4807 30.6499 26.4758 30.6388 26.4726 30.6304C26.4692 30.6217 26.4683 30.6179 26.4683 30.6182L25.8863 30.7641ZM26.9965 32.2504C27.7255 32.9795 28.1843 33.2917 28.9057 33.5059L29.0765 32.9307C28.485 32.7551 28.1097 32.5151 27.4207 31.8261L26.9965 32.2504ZM28.9057 33.5059C30.5837 34.0042 32.1821 33.7221 33.549 32.6794L33.1851 32.2024C31.9745 33.1258 30.5757 33.376 29.0765 32.9307L28.9057 33.5059ZM33.549 32.6794L34.1212 32.243L33.7574 31.7659L33.1852 32.2023L33.549 32.6794ZM33.7514 32.2383L34.3771 32.7412L34.753 32.2735L34.1273 31.7706L33.7514 32.2383ZM34.3771 32.7412C35.6588 33.7711 37.4801 34.0349 39.0636 33.433L38.8504 32.8722C37.4563 33.402 35.8609 33.1638 34.753 32.2735L34.3771 32.7412ZM39.0636 33.433C39.2946 33.3452 39.5075 33.2656 39.6644 33.208C39.743 33.1792 39.8065 33.1562 39.8509 33.1407C39.8733 33.1328 39.8892 33.1274 39.899 33.1243C39.9042 33.1226 39.9053 33.1223 39.9037 33.1228C39.9031 33.1229 39.8989 33.1241 39.8926 33.1255C39.8894 33.1262 39.8834 33.1275 39.8756 33.1287C39.87 33.1296 39.8526 33.1323 39.8299 33.1323V32.5323C39.7925 32.5323 39.7622 32.5398 39.7618 32.5399C39.7531 32.5419 39.7456 32.5439 39.7411 32.5452C39.7317 32.5478 39.7222 32.5508 39.7142 32.5534C39.6975 32.5588 39.6763 32.5661 39.6524 32.5745C39.604 32.5914 39.5372 32.6156 39.4576 32.6448C39.2981 32.7033 39.0829 32.7838 38.8504 32.8722L39.0636 33.433ZM39.8327 33.1323C39.6725 33.1338 39.5874 33.0204 39.5592 32.9601C39.5355 32.9092 39.5329 32.865 39.5322 32.8544C39.5312 32.8374 39.5319 32.8244 39.5324 32.8188C39.5328 32.8122 39.5335 32.8074 39.5338 32.8053C39.5345 32.7999 39.5344 32.8027 39.5304 32.8193C39.5231 32.8491 39.5097 32.8973 39.4901 32.9626C39.4515 33.0916 39.3934 33.2721 39.3252 33.4725L39.8932 33.6659C39.963 33.4609 40.0235 33.2729 40.0649 33.1347C40.0854 33.0664 40.1023 33.0065 40.1133 32.9615C40.1183 32.9407 40.1243 32.9144 40.1279 32.8893C40.1292 32.8801 40.1332 32.8518 40.1311 32.8178C40.1303 32.8046 40.1273 32.7586 40.1029 32.7064C40.0742 32.6448 39.9883 32.5308 39.827 32.5323L39.8327 33.1323ZM39.3252 33.4724C39.1845 33.8851 39.1268 34.5098 39.133 35.0958C39.139 35.6786 39.2088 36.2898 39.3622 36.6684L39.9183 36.4431C39.8089 36.1731 39.7388 35.6557 39.7329 35.0896C39.7271 34.5267 39.7852 33.9825 39.8931 33.666L39.3252 33.4724ZM39.3622 36.6685C39.3617 36.6673 39.3591 36.6606 39.3565 36.6498C39.3538 36.6388 39.3506 36.6208 39.351 36.5978C39.3519 36.5434 39.3722 36.4889 39.4082 36.4474C39.4235 36.4297 39.438 36.4187 39.4471 36.4127C39.4517 36.4096 39.4554 36.4075 39.4577 36.4063C39.4601 36.405 39.4614 36.4045 39.4614 36.4045C39.4614 36.4044 39.4604 36.4049 39.4582 36.4057C39.456 36.4064 39.4529 36.4075 39.4486 36.4088C39.4398 36.4114 39.4276 36.4145 39.4111 36.4181C39.2627 36.45 38.9435 36.4768 38.2954 36.4954C37.0158 36.5322 34.5565 36.5361 29.887 36.5361V37.136C34.551 37.136 37.022 37.1323 38.3126 37.0952C38.9495 37.0769 39.3253 37.0502 39.5372 37.0047C39.5927 36.9928 39.6479 36.9774 39.6984 36.9557C39.7473 36.9347 39.8097 36.9002 39.8615 36.8405C39.9198 36.7732 39.9496 36.6912 39.9509 36.6075C39.9521 36.5344 39.9314 36.4754 39.9183 36.4431L39.3622 36.6685ZM29.887 36.5361H20.0203V37.136H29.887V36.5361ZM20.3203 36.8361V33.5528H19.7203V36.8361H20.3203ZM20.3203 33.5528V30.2696H19.7203V33.5528H20.3203ZM20.0203 30.5696H23.046V29.9696H20.0203V30.5696ZM23.046 30.5696H26.0715V29.9696H23.046V30.5696ZM25.7805 30.3427L25.8864 30.7642L26.4683 30.6181L26.3624 30.1966L25.7805 30.3427ZM61.6812 33.5528V36.8361H62.2812V33.5528H61.6812ZM61.9812 36.5361H59.916V37.136H61.9812V36.5361ZM59.916 36.5361H57.851V37.136H59.916V36.5361ZM58.1508 36.827L58.0938 34.9451L57.4941 34.9633L57.5511 36.8451L58.1508 36.827ZM58.0938 34.9452C58.0684 34.1024 58.0436 33.5892 57.9716 33.2032C57.8959 32.7969 57.7685 32.534 57.5654 32.1884L57.0481 32.4925C57.2332 32.8073 57.3238 33.0022 57.3818 33.3132C57.4436 33.6446 57.4683 34.1081 57.4941 34.9633L58.0938 34.9452ZM57.5654 32.1885C57.1808 31.5341 56.6118 31.0301 55.5986 30.3926L55.2791 30.9004C56.2614 31.5185 56.7354 31.9603 57.0481 32.4925L57.5654 32.1885ZM55.5982 30.3923C55.7032 30.4582 55.7207 30.5595 55.7237 30.588C55.7257 30.6068 55.7248 30.6207 55.7241 30.6279C55.7233 30.6356 55.7222 30.6403 55.7219 30.6415C55.7216 30.6426 55.7266 30.6255 55.7434 30.5985L55.2333 30.2826C55.1919 30.3494 55.1567 30.4256 55.1385 30.5014C55.1298 30.5376 55.1207 30.5909 55.127 30.6506C55.1327 30.7049 55.159 30.8251 55.2795 30.9007L55.5982 30.3923ZM55.7436 30.5982C55.7054 30.66 55.6564 30.6842 55.6521 30.6864C55.6411 30.6921 55.6377 30.6922 55.6489 30.6889C55.6704 30.6826 55.7124 30.6735 55.7815 30.6637C55.9174 30.6443 56.1212 30.627 56.3959 30.6128C56.9431 30.5844 57.7445 30.5696 58.7876 30.5696V29.9696C57.7413 29.9696 56.9277 29.9844 56.3649 30.0136C56.0845 30.0281 55.8596 30.0465 55.6969 30.0697C55.6167 30.0811 55.5418 30.095 55.4796 30.1133C55.4488 30.1223 55.4119 30.1351 55.3756 30.154C55.346 30.1693 55.2799 30.2071 55.2331 30.2829L55.7436 30.5982ZM58.7876 30.5696H61.9812V29.9696H58.7876V30.5696ZM61.6812 30.2696V33.5528H62.2812V30.2696H61.6812ZM50.3101 63.7231C50.3101 66.1248 50.3245 67.9661 50.353 69.2341C50.3672 69.8677 50.385 70.3611 50.4066 70.7109C50.4173 70.8853 50.4293 71.0281 50.4427 71.1364C50.4494 71.1903 50.457 71.2399 50.466 71.2827C50.4733 71.3175 50.4869 71.376 50.5155 71.4294L51.0446 71.1464C51.0591 71.1735 51.0591 71.1874 51.0532 71.1593C51.049 71.1393 51.0438 71.1078 51.0382 71.0624C51.0269 70.9721 51.0159 70.8434 51.0054 70.674C50.9846 70.3359 50.967 69.8517 50.9528 69.2206C50.9245 67.9594 50.9101 66.1235 50.9101 63.7231H50.3101ZM50.5156 71.4295C50.789 71.9404 51.3361 72.1504 51.8382 72.1218C52.3407 72.0932 52.8641 71.8233 53.1045 71.2955L52.5585 71.0468C52.4288 71.3316 52.132 71.5041 51.8041 71.5228C51.4758 71.5415 51.1822 71.4036 51.0446 71.1463L50.5156 71.4295ZM53.1045 71.2956C53.1408 71.216 53.1595 71.1086 53.1726 71.0126C53.1875 70.9043 53.2005 70.7652 53.2122 70.5966C53.2355 70.2588 53.2543 69.7863 53.2691 69.1713C53.2987 67.9405 53.3125 66.1256 53.3125 63.6473H52.7125C52.7125 66.1248 52.6987 67.9337 52.6693 69.1569C52.6546 69.7689 52.636 70.2309 52.6136 70.5553C52.6024 70.7178 52.5905 70.8418 52.5782 70.9311C52.5643 71.0326 52.5537 71.0573 52.5585 71.0467L53.1045 71.2956ZM53.3125 63.6473V56.5207H52.7125V63.6473H53.3125ZM17.318 16.8228V38.5552H17.918V16.8228H17.318ZM20.3203 25.9445L20.2916 16.5835L19.6916 16.5854L19.7203 25.9463L20.3203 25.9445ZM65.7009 54.016C65.6022 53.9682 65.5114 53.9326 65.4372 53.9034L65.2174 54.4617C65.293 54.4915 65.3639 54.5195 65.4394 54.5561L65.7009 54.016ZM65.4372 53.9034C65.3317 53.8619 65.2694 53.8363 65.2172 53.8036L64.8984 54.3119C65.0063 54.3796 65.1229 54.4245 65.2174 54.4617L65.4372 53.9034ZM65.2172 53.8036C65.1415 53.7561 65.0423 53.6697 64.9556 53.2773C64.8667 52.8747 64.8043 52.2114 64.7642 51.0799C64.6842 48.8245 64.694 44.7969 64.712 37.486L64.112 37.4845C64.0941 44.7875 64.0841 48.8312 64.1646 51.1011C64.2047 52.2323 64.2677 52.9451 64.3697 53.4067C64.474 53.8786 64.6314 54.1444 64.8984 54.3119L65.2172 53.8036ZM64.712 37.486C64.7151 36.2063 64.7185 34.8263 64.7217 33.3379L64.1217 33.3366C64.1185 34.8249 64.1151 36.2049 64.112 37.4845L64.712 37.486ZM51.0313 30.1299C50.5934 30.1301 50.2704 30.1299 50.0188 30.1011C49.7686 30.0726 49.6357 30.0199 49.5519 29.9501L49.1678 30.411C49.3843 30.5914 49.6559 30.6636 49.9508 30.6973C50.2443 30.7308 50.607 30.7301 51.0316 30.7299L51.0313 30.1299ZM49.5519 29.9501C49.4343 29.8521 49.3335 29.6521 49.2805 29.1281C49.2285 28.6145 49.2282 27.8779 49.2285 26.7987L48.6285 26.7986C48.6283 27.8627 48.6277 28.637 48.6835 29.1885C48.7383 29.7297 48.8534 30.149 49.1678 30.411L49.5519 29.9501ZM48.6285 26.586L48.6285 26.7986L49.2285 26.7987L49.2285 26.5861L48.6285 26.586ZM51.0316 30.7299L51.1546 30.7298L51.1544 30.1298L51.0313 30.1299L51.0316 30.7299ZM53.3125 56.5194L53.2875 50.6676L52.6875 50.6702L52.7125 56.522L53.3125 56.5194ZM50.3101 50.252V63.7231H50.9101V50.252H50.3101ZM16.753 54.4694C16.8721 54.4171 17.0112 54.3574 17.1362 54.2689L16.7898 53.7791C16.7236 53.8259 16.6436 53.8622 16.5121 53.9198L16.753 54.4694ZM17.1362 54.2689C17.3779 54.098 17.5312 53.8498 17.6348 53.4367C17.7353 53.0361 17.7976 52.4466 17.8386 51.5516C17.9209 49.7557 17.92 46.638 17.9184 41.1257L17.3184 41.1259C17.32 46.6475 17.3207 49.746 17.2393 51.5241C17.1984 52.4162 17.1375 52.9533 17.0528 53.2907C16.9713 53.6157 16.8776 53.717 16.7898 53.7791L17.1362 54.2689ZM16.5621 54.5561C16.6275 54.5244 16.6895 54.4972 16.753 54.4694L16.5121 53.9198C16.4496 53.9472 16.3777 53.9787 16.3006 54.016L16.5621 54.5561ZM17.9184 41.1257C17.9184 41.1243 17.9184 41.1229 17.9184 41.1215C17.9184 41.12 17.9184 41.1185 17.9184 41.117L17.3184 41.1171C17.3184 41.1185 17.3184 41.1199 17.3184 41.1214C17.3184 41.1228 17.3184 41.1243 17.3184 41.1259L17.9184 41.1257ZM17.3184 41.1079C17.3184 41.1094 17.3184 41.1109 17.3184 41.1124C17.3184 41.1139 17.3184 41.1155 17.3184 41.1171L17.9184 41.117C17.9184 41.1155 17.9184 41.114 17.9184 41.1125C17.9184 41.111 17.9184 41.1094 17.9184 41.1077L17.3184 41.1079ZM17.318 38.5552C17.318 39.4551 17.3182 40.3017 17.3184 41.0982L17.9184 41.098C17.9182 40.3016 17.918 39.455 17.918 38.5552H17.318ZM17.9184 41.1077C17.9184 41.1062 17.9184 41.1046 17.9184 41.103C17.9184 41.1014 17.9184 41.0997 17.9184 41.098L17.3184 41.0982C17.3184 41.0997 17.3184 41.1013 17.3184 41.1029C17.3184 41.1045 17.3184 41.1062 17.3184 41.1079L17.9184 41.1077Z" fill="white" mask="url(#path-3-inside-1_297_423)"/>
</svg>
