<svg width="82" height="82" viewBox="0 0 82 82" fill="none" xmlns="http://www.w3.org/2000/svg">
<path d="M8.5 42L3 46L1.5 49V77.5L4 80L33.5 80.5L36 78V50.5L34.5 46L33 44L29 41.5L11.5 41L8.5 42Z" fill="#2AC8CE"/>
<path d="M25 15L45 46L58.5 36L38.5 5.5L36 4.5L24.5 11.5L25 15Z" fill="#DFEAEB"/>
<mask id="path-3-inside-1_297_416" fill="white">
<path fill-rule="evenodd" clip-rule="evenodd" d="M12.2231 0.226784C10.7614 0.691718 9.70865 1.64257 9.01678 3.12289L8.5677 4.08383L8.52237 21.9813C8.48442 36.9774 8.44165 39.8788 8.25844 39.8788C8.13816 39.8788 7.38735 40.2053 6.58993 40.6046C3.96705 41.9175 1.64398 44.5271 0.711713 47.2077C0.0110291 49.2226 -0.0125139 49.8184 0.0345721 64.3026L0.0794158 78.076L0.497904 78.9569C1.0301 80.0773 1.92185 80.9691 3.04231 81.5013L3.92317 81.9198H18.8211H33.719L34.7925 81.3913C36.0268 80.7836 36.8563 79.8848 37.3278 78.6438C37.6236 77.8653 37.6361 77.2626 37.6361 63.812C37.6361 48.1678 37.6666 48.6508 36.5223 46.2049C35.7158 44.4808 34.6146 43.0699 33.1943 41.9412C32.0437 41.0269 29.9377 39.8788 29.4112 39.8788C29.1707 39.8788 29.1478 39.2575 29.1478 32.7251C29.1478 28.7907 29.2005 25.6242 29.265 25.6887C29.3296 25.7533 32.4825 30.4669 36.2718 36.1634C40.0611 41.8599 43.3605 46.6625 43.6036 46.8359C44.2825 47.3196 44.8684 47.0675 48.2864 44.8202C49.9601 43.7199 51.4092 42.7726 51.5069 42.7151C51.615 42.6514 54.5671 46.936 59.0787 53.7049L66.4733 64.7991L68.2442 71.3575C69.4505 75.825 70.1731 78.2133 70.5107 78.8489C71.1118 79.9809 71.9673 80.7545 73.3509 81.4172C74.2763 81.8604 74.5521 81.9159 75.8333 81.9177C77.1157 81.9196 77.3904 81.865 78.3233 81.4228C80.1511 80.5567 81.2303 79.3097 81.7666 77.4437C82.3056 75.5691 81.7299 73.1953 80.3784 71.7193C80.0808 71.3941 77.4789 69.2959 74.5966 67.0566L69.356 62.9851L61.9843 51.906C57.9299 45.8124 54.6134 40.7756 54.6144 40.7132C54.6155 40.6505 55.7773 39.8482 57.1961 38.9301C59.8255 37.2288 60.3765 36.6958 60.3776 35.8529C60.3782 35.3891 58.6695 32.7542 47.097 15.3748C43.1965 9.51713 39.8151 4.52218 39.5829 4.27505C39.3507 4.02793 38.6971 3.59759 38.1305 3.3186C37.2651 2.89259 36.9189 2.81187 35.9667 2.81395C34.5481 2.81715 33.7638 3.15973 31.1188 4.93186L29.1923 6.22255L29.1039 5.05534C29.0547 4.40366 28.8641 3.53577 28.6726 3.09038C28.245 2.09645 27.0774 0.931312 26.0247 0.4478C25.238 0.0863272 25.1155 0.0792804 19.0579 0.0469288C14.2994 0.0216241 12.7393 0.0626242 12.2231 0.226784ZM25.1572 3.96627C25.6215 4.48614 25.6243 4.50168 25.624 6.52877L25.6237 8.5682L24.9158 9.01536C23.3649 9.9952 22.4396 11.4829 22.3001 13.2211C22.1866 14.6348 22.5365 15.5214 24.2007 18.0355L25.6243 20.1864V29.7122V39.2381H18.8177H12.0111V21.8969C12.0111 6.13415 12.0348 4.52153 12.2718 4.18312C12.8213 3.39868 13.1201 3.36473 19.1113 3.40541L24.69 3.4432L25.1572 3.96627ZM36.9719 6.52621C37.3792 6.86991 56.2427 35.2334 56.1794 35.4072C56.1544 35.4754 53.6161 37.1961 50.5387 39.2309C46.0542 42.1961 44.9047 42.8899 44.7489 42.7259C44.2713 42.2236 25.7715 14.1778 25.6817 13.82C25.445 12.8769 25.8388 12.5226 30.7003 9.3054C34.8088 6.58643 35.3863 6.25202 35.9767 6.24914C36.3787 6.24722 36.7704 6.35629 36.9719 6.52621ZM27.9522 43.01C30.0852 43.5656 32.1643 45.2358 33.2172 47.2394C34.2917 49.2841 34.2678 48.909 34.2704 63.7926C34.2721 73.3681 34.2215 77.3166 34.0939 77.5661C33.9955 77.7584 33.7612 78.0403 33.5734 78.1926C33.2555 78.4501 32.2353 78.4695 18.8603 78.4729L4.48884 78.4764L3.96577 78.0091L3.4427 77.5417V63.7151V49.8885L3.79744 48.7607C4.66117 46.0159 6.99496 43.7608 9.76887 42.9904C10.2991 42.8431 12.6711 42.7864 18.744 42.7758C25.7188 42.7638 27.1463 42.8 27.9522 43.01ZM22.8863 46.5725C22.4137 46.9947 22.3411 47.159 22.3411 47.8065C22.3411 48.8111 22.9553 49.393 24.1674 49.5365C25.2755 49.6678 26.2206 50.212 26.8185 51.0633L27.306 51.7575L27.3861 62.9682L27.4661 74.1786L27.9892 74.646C28.3851 74.9996 28.6704 75.1131 29.1627 75.1131C30.1029 75.1131 30.6842 74.4933 30.8265 73.3386C30.8853 72.8612 30.9085 67.786 30.8781 62.0604L30.8228 51.6502L30.455 50.7313C29.372 48.0259 27.2145 46.3753 24.4879 46.1663C23.4847 46.0895 23.4039 46.1098 22.8863 46.5725ZM75.5087 72.1304C76.8276 73.161 78.0502 74.231 78.2256 74.5081C78.9512 75.6541 78.4754 77.4139 77.2321 78.1824C76.0853 78.8912 74.3131 78.5149 73.5882 77.4087C73.3749 77.0829 71.1087 69.1888 71.1087 68.7711C71.1087 68.7207 71.5592 69.0342 72.1097 69.4679C72.6603 69.9016 74.1898 71.0998 75.5087 72.1304Z"/>
</mask>
<path fill-rule="evenodd" clip-rule="evenodd" d="M12.2231 0.226784C10.7614 0.691718 9.70865 1.64257 9.01678 3.12289L8.5677 4.08383L8.52237 21.9813C8.48442 36.9774 8.44165 39.8788 8.25844 39.8788C8.13816 39.8788 7.38735 40.2053 6.58993 40.6046C3.96705 41.9175 1.64398 44.5271 0.711713 47.2077C0.0110291 49.2226 -0.0125139 49.8184 0.0345721 64.3026L0.0794158 78.076L0.497904 78.9569C1.0301 80.0773 1.92185 80.9691 3.04231 81.5013L3.92317 81.9198H18.8211H33.719L34.7925 81.3913C36.0268 80.7836 36.8563 79.8848 37.3278 78.6438C37.6236 77.8653 37.6361 77.2626 37.6361 63.812C37.6361 48.1678 37.6666 48.6508 36.5223 46.2049C35.7158 44.4808 34.6146 43.0699 33.1943 41.9412C32.0437 41.0269 29.9377 39.8788 29.4112 39.8788C29.1707 39.8788 29.1478 39.2575 29.1478 32.7251C29.1478 28.7907 29.2005 25.6242 29.265 25.6887C29.3296 25.7533 32.4825 30.4669 36.2718 36.1634C40.0611 41.8599 43.3605 46.6625 43.6036 46.8359C44.2825 47.3196 44.8684 47.0675 48.2864 44.8202C49.9601 43.7199 51.4092 42.7726 51.5069 42.7151C51.615 42.6514 54.5671 46.936 59.0787 53.7049L66.4733 64.7991L68.2442 71.3575C69.4505 75.825 70.1731 78.2133 70.5107 78.8489C71.1118 79.9809 71.9673 80.7545 73.3509 81.4172C74.2763 81.8604 74.5521 81.9159 75.8333 81.9177C77.1157 81.9196 77.3904 81.865 78.3233 81.4228C80.1511 80.5567 81.2303 79.3097 81.7666 77.4437C82.3056 75.5691 81.7299 73.1953 80.3784 71.7193C80.0808 71.3941 77.4789 69.2959 74.5966 67.0566L69.356 62.9851L61.9843 51.906C57.9299 45.8124 54.6134 40.7756 54.6144 40.7132C54.6155 40.6505 55.7773 39.8482 57.1961 38.9301C59.8255 37.2288 60.3765 36.6958 60.3776 35.8529C60.3782 35.3891 58.6695 32.7542 47.097 15.3748C43.1965 9.51713 39.8151 4.52218 39.5829 4.27505C39.3507 4.02793 38.6971 3.59759 38.1305 3.3186C37.2651 2.89259 36.9189 2.81187 35.9667 2.81395C34.5481 2.81715 33.7638 3.15973 31.1188 4.93186L29.1923 6.22255L29.1039 5.05534C29.0547 4.40366 28.8641 3.53577 28.6726 3.09038C28.245 2.09645 27.0774 0.931312 26.0247 0.4478C25.238 0.0863272 25.1155 0.0792804 19.0579 0.0469288C14.2994 0.0216241 12.7393 0.0626242 12.2231 0.226784ZM25.1572 3.96627C25.6215 4.48614 25.6243 4.50168 25.624 6.52877L25.6237 8.5682L24.9158 9.01536C23.3649 9.9952 22.4396 11.4829 22.3001 13.2211C22.1866 14.6348 22.5365 15.5214 24.2007 18.0355L25.6243 20.1864V29.7122V39.2381H18.8177H12.0111V21.8969C12.0111 6.13415 12.0348 4.52153 12.2718 4.18312C12.8213 3.39868 13.1201 3.36473 19.1113 3.40541L24.69 3.4432L25.1572 3.96627ZM36.9719 6.52621C37.3792 6.86991 56.2427 35.2334 56.1794 35.4072C56.1544 35.4754 53.6161 37.1961 50.5387 39.2309C46.0542 42.1961 44.9047 42.8899 44.7489 42.7259C44.2713 42.2236 25.7715 14.1778 25.6817 13.82C25.445 12.8769 25.8388 12.5226 30.7003 9.3054C34.8088 6.58643 35.3863 6.25202 35.9767 6.24914C36.3787 6.24722 36.7704 6.35629 36.9719 6.52621ZM27.9522 43.01C30.0852 43.5656 32.1643 45.2358 33.2172 47.2394C34.2917 49.2841 34.2678 48.909 34.2704 63.7926C34.2721 73.3681 34.2215 77.3166 34.0939 77.5661C33.9955 77.7584 33.7612 78.0403 33.5734 78.1926C33.2555 78.4501 32.2353 78.4695 18.8603 78.4729L4.48884 78.4764L3.96577 78.0091L3.4427 77.5417V63.7151V49.8885L3.79744 48.7607C4.66117 46.0159 6.99496 43.7608 9.76887 42.9904C10.2991 42.8431 12.6711 42.7864 18.744 42.7758C25.7188 42.7638 27.1463 42.8 27.9522 43.01ZM22.8863 46.5725C22.4137 46.9947 22.3411 47.159 22.3411 47.8065C22.3411 48.8111 22.9553 49.393 24.1674 49.5365C25.2755 49.6678 26.2206 50.212 26.8185 51.0633L27.306 51.7575L27.3861 62.9682L27.4661 74.1786L27.9892 74.646C28.3851 74.9996 28.6704 75.1131 29.1627 75.1131C30.1029 75.1131 30.6842 74.4933 30.8265 73.3386C30.8853 72.8612 30.9085 67.786 30.8781 62.0604L30.8228 51.6502L30.455 50.7313C29.372 48.0259 27.2145 46.3753 24.4879 46.1663C23.4847 46.0895 23.4039 46.1098 22.8863 46.5725ZM75.5087 72.1304C76.8276 73.161 78.0502 74.231 78.2256 74.5081C78.9512 75.6541 78.4754 77.4139 77.2321 78.1824C76.0853 78.8912 74.3131 78.5149 73.5882 77.4087C73.3749 77.0829 71.1087 69.1888 71.1087 68.7711C71.1087 68.7207 71.5592 69.0342 72.1097 69.4679C72.6603 69.9016 74.1898 71.0998 75.5087 72.1304Z" fill="#3B4040" stroke="white" mask="url(#path-3-inside-1_297_416)"/>
</svg>
