<svg width="82" height="82" viewBox="0 0 82 82" fill="none" xmlns="http://www.w3.org/2000/svg">
<path d="M9 30V32.1477V54.8523V56.3864L73 57V54.5455L72.0078 30H9Z" fill="#DFEAEB"/>
<path d="M22 14.5L12.5 15.5L9 18.5V29H72.5V17L68 14.5H22Z" fill="#2AC8CE"/>
<mask id="path-3-inside-1_297_431" fill="white">
<path fill-rule="evenodd" clip-rule="evenodd" d="M17.4984 8.73355V11.4671L15.483 11.4694C14.2441 11.4709 13.0991 11.5492 12.5111 11.6727C9.43571 12.3186 6.87212 14.8829 6.22637 17.9593C5.92454 19.3978 5.92454 68.0481 6.22637 69.4866C6.87212 72.563 9.43571 75.1273 12.5111 75.7733C13.9507 76.0756 68.0493 76.0756 69.4889 75.7733C72.5643 75.1273 75.1279 72.563 75.7736 69.4866C76.0755 68.0481 76.0755 19.3978 75.7736 17.9593C75.1279 14.8829 72.5643 12.3186 69.4889 11.6727C68.9009 11.5492 67.7559 11.4709 66.517 11.4694L64.5016 11.4671V8.73355V6H61.7689H59.0361V8.73355V11.4671H41H22.9639V8.73355V6H20.2311H17.4984V8.73355ZM17.4984 19.6677V22.4013H20.2311H22.9639V19.6677V16.9342H41H59.0361V19.6677V22.4013H61.7689H64.5016V19.6554V16.9097L66.5957 16.9561C68.5646 16.9998 68.72 17.023 69.194 17.3442C69.4714 17.5322 69.8664 17.9265 70.0718 18.2206L70.4453 18.7553L70.4875 22.4918L70.5298 26.2283H41.0081H11.4864L11.4872 22.7771C11.4876 20.8654 11.5498 19.1034 11.6266 18.8269C11.7956 18.2181 12.73 17.252 13.3132 17.0829C13.5485 17.0147 14.5864 16.9533 15.6196 16.9465L17.4984 16.9342V19.6677ZM70.4814 50.1927L70.4453 68.6899L70.0718 69.225C69.8664 69.5193 69.4712 69.9138 69.1936 70.1017L68.6891 70.4434H41H13.3109L12.8064 70.1017C12.5288 69.9138 12.1336 69.5193 11.9282 69.225L11.5547 68.6899L11.5186 50.1927L11.4825 31.6953H41H70.5175L70.4814 50.1927ZM16.4053 40.1693V42.9029H19.138H21.8708V40.1693V37.4358H19.138H16.4053V40.1693ZM27.3363 40.1693V42.9029H30.069H32.8018V40.1693V37.4358H30.069H27.3363V40.1693ZM38.2673 40.1693V42.9029H41H43.7327V40.1693V37.4358H41H38.2673V40.1693ZM49.1982 40.1693V42.9029H51.931H54.6637V40.1693V37.4358H51.931H49.1982V40.1693ZM60.1292 40.1693V42.9029H62.862H65.5947V40.1693V37.4358H62.862H60.1292V40.1693ZM16.4053 51.1035V53.8371H19.138H21.8708V51.1035V48.37H19.138H16.4053V51.1035ZM27.3363 51.1035V53.8371H30.069H32.8018V51.1035V48.37H30.069H27.3363V51.1035ZM38.2673 51.1035V53.8371H41H43.7327V51.1035V48.37H41H38.2673V51.1035ZM49.1982 51.1035V53.8371H51.931H54.6637V51.1035V48.37H51.931H49.1982V51.1035ZM60.1292 51.1035V53.8371H62.862H65.5947V51.1035V48.37H62.862H60.1292V51.1035ZM16.4053 62.0377V64.7713H19.138H21.8708V62.0377V59.3042H19.138H16.4053V62.0377ZM27.3363 62.0377V64.7713H30.069H32.8018V62.0377V59.3042H30.069H27.3363V62.0377ZM38.2673 62.0377V64.7713H41H43.7327V62.0377V59.3042H41H38.2673V62.0377ZM49.1982 62.0377V64.7713H51.931H54.6637V62.0377V59.3042H51.931H49.1982V62.0377Z"/>
</mask>
<path fill-rule="evenodd" clip-rule="evenodd" d="M17.4984 8.73355V11.4671L15.483 11.4694C14.2441 11.4709 13.0991 11.5492 12.5111 11.6727C9.43571 12.3186 6.87212 14.8829 6.22637 17.9593C5.92454 19.3978 5.92454 68.0481 6.22637 69.4866C6.87212 72.563 9.43571 75.1273 12.5111 75.7733C13.9507 76.0756 68.0493 76.0756 69.4889 75.7733C72.5643 75.1273 75.1279 72.563 75.7736 69.4866C76.0755 68.0481 76.0755 19.3978 75.7736 17.9593C75.1279 14.8829 72.5643 12.3186 69.4889 11.6727C68.9009 11.5492 67.7559 11.4709 66.517 11.4694L64.5016 11.4671V8.73355V6H61.7689H59.0361V8.73355V11.4671H41H22.9639V8.73355V6H20.2311H17.4984V8.73355ZM17.4984 19.6677V22.4013H20.2311H22.9639V19.6677V16.9342H41H59.0361V19.6677V22.4013H61.7689H64.5016V19.6554V16.9097L66.5957 16.9561C68.5646 16.9998 68.72 17.023 69.194 17.3442C69.4714 17.5322 69.8664 17.9265 70.0718 18.2206L70.4453 18.7553L70.4875 22.4918L70.5298 26.2283H41.0081H11.4864L11.4872 22.7771C11.4876 20.8654 11.5498 19.1034 11.6266 18.8269C11.7956 18.2181 12.73 17.252 13.3132 17.0829C13.5485 17.0147 14.5864 16.9533 15.6196 16.9465L17.4984 16.9342V19.6677ZM70.4814 50.1927L70.4453 68.6899L70.0718 69.225C69.8664 69.5193 69.4712 69.9138 69.1936 70.1017L68.6891 70.4434H41H13.3109L12.8064 70.1017C12.5288 69.9138 12.1336 69.5193 11.9282 69.225L11.5547 68.6899L11.5186 50.1927L11.4825 31.6953H41H70.5175L70.4814 50.1927ZM16.4053 40.1693V42.9029H19.138H21.8708V40.1693V37.4358H19.138H16.4053V40.1693ZM27.3363 40.1693V42.9029H30.069H32.8018V40.1693V37.4358H30.069H27.3363V40.1693ZM38.2673 40.1693V42.9029H41H43.7327V40.1693V37.4358H41H38.2673V40.1693ZM49.1982 40.1693V42.9029H51.931H54.6637V40.1693V37.4358H51.931H49.1982V40.1693ZM60.1292 40.1693V42.9029H62.862H65.5947V40.1693V37.4358H62.862H60.1292V40.1693ZM16.4053 51.1035V53.8371H19.138H21.8708V51.1035V48.37H19.138H16.4053V51.1035ZM27.3363 51.1035V53.8371H30.069H32.8018V51.1035V48.37H30.069H27.3363V51.1035ZM38.2673 51.1035V53.8371H41H43.7327V51.1035V48.37H41H38.2673V51.1035ZM49.1982 51.1035V53.8371H51.931H54.6637V51.1035V48.37H51.931H49.1982V51.1035ZM60.1292 51.1035V53.8371H62.862H65.5947V51.1035V48.37H62.862H60.1292V51.1035ZM16.4053 62.0377V64.7713H19.138H21.8708V62.0377V59.3042H19.138H16.4053V62.0377ZM27.3363 62.0377V64.7713H30.069H32.8018V62.0377V59.3042H30.069H27.3363V62.0377ZM38.2673 62.0377V64.7713H41H43.7327V62.0377V59.3042H41H38.2673V62.0377ZM49.1982 62.0377V64.7713H51.931H54.6637V62.0377V59.3042H51.931H49.1982V62.0377Z" fill="#3B4040" stroke="white" stroke-width="2.4" mask="url(#path-3-inside-1_297_431)"/>
</svg>
