<svg width="81" height="82" viewBox="0 0 81 82" fill="none" xmlns="http://www.w3.org/2000/svg">
<rect y="0.5" width="81" height="81" rx="6" fill="#F2FAFA"/>
<path d="M25 47.9712V55.9712L26 57.9712L27.5 59.9712L30.5 60.9712L32.5 60.4712L35 58.9712L36.5 55.4712V47.9712L37 42.9712L38 36.4712L39 28.4712L37.5 24.9712L36 22.9712L32.5 21.9712L30 22.4712L26 23.9712L23 28.4712L22.5 33.4712L25 47.9712Z" fill="#DFEAEB"/>
<path d="M41.5 28.9712L42 36.4712L43.5 43.4712L44 54.9712L44.5 57.4712L45.5 59.4712L48 60.9712H50.5L53 59.9712L54.5 57.9712L55.5 53.9712V47.4712L56.5 41.4712L57.5 33.9712V28.4712L56 25.9712L53 22.9712L49 21.9712L46.5 22.4712L43 24.4712L41.5 28.9712Z" fill="#DFEAEB"/>
<path d="M24 44.9712L26.5 47.4712H27L28 46.9712V45.9712L26 43.9712L25 40.9712V38.9712L27 34.9712L31 31.9712L33 32.9712L36 37.9712L36.5 40.4712L35.5 43.9712L34 45.9712V47.4712H35.5L37 45.9712L38.5 42.9712L39 40.9712L38.5 36.9712L37.5 34.9712L35.5 32.4712L32 28.9712H31L28 31.4712L24.5 34.4712L23.5 36.4712L22.5 38.4712L23 41.9712L24 44.9712Z" fill="#2AC8CE"/>
<path d="M41.5 42.4712L43 45.4712L44.5 47.4712H46L46.5 46.4712L45.5 44.4712L44 40.9712L44.5 37.9712L46.5 34.4712L49 31.9712L52 33.9712L55 37.4712L55.5 40.9712L53.5 44.9712L52 46.4712L53 47.9712L54.5 47.4712L56.5 44.4712L58 41.9712V38.9712L57 36.4712L55 33.9712L51.5 30.4712L49 28.9712L47 29.9712L43 34.4712L41.5 38.4712V42.4712Z" fill="#2AC8CE"/>
<mask id="path-4-inside-1_297_329" fill="white">
<path fill-rule="evenodd" clip-rule="evenodd" d="M30.7941 21.5547C27.4368 22.0189 24.556 24.1039 23.0835 27.1354C22.2984 28.7517 22.0259 30.2613 22.1023 32.5712C22.1453 33.8746 22.2877 35.6024 22.4495 36.7838C22.4937 37.1059 22.4736 37.3309 22.3694 37.6823C21.9199 39.1979 21.8786 40.9116 22.2566 42.357C22.5061 43.3109 23.0678 44.4999 23.7306 45.4774C24.29 46.3024 24.2397 46.1076 24.4505 48.2636C24.5409 49.1877 24.5741 49.3305 24.7278 49.455C24.9623 49.6448 25.2847 49.6333 25.506 49.4271C25.6814 49.2638 25.6858 49.2293 25.6343 48.4324L25.5809 47.607L25.7994 47.8163C26.3017 48.2974 27.2166 48.4395 27.8201 48.13C28.4587 47.8026 28.8679 47.159 28.869 46.4804C28.8699 45.919 28.6991 45.603 27.9823 44.8402C26.3924 43.1484 25.7795 41.9761 25.6896 40.455C25.6541 39.8544 25.6773 39.5851 25.8105 39.0488C26.1523 37.6727 27.0911 36.2031 28.555 34.7526C29.3355 33.9792 31.1612 32.487 31.3269 32.487C31.4617 32.487 33.3531 34.4598 33.8037 35.0704C34.6367 36.1989 35.1855 37.2261 35.5543 38.3463C35.7515 38.9454 35.7734 39.1213 35.7782 40.1432C35.7844 41.4514 35.6885 41.9105 35.1918 42.9523C34.8515 43.6661 34.4646 44.2664 33.8303 45.0651C33.3381 45.6848 33.2091 45.9923 33.2169 46.5275C33.2286 47.3388 33.8408 48.0883 34.6278 48.255C34.9523 48.3238 35.3283 48.2985 35.7295 48.1809C35.8129 48.1566 35.8303 48.8714 35.8238 52.0495C35.819 54.4114 35.7838 56.105 35.7345 56.3463C35.615 56.9318 35.0268 58.0905 34.6098 58.5622C33.4068 59.9227 31.5294 60.5509 29.7679 60.1823C28.0366 59.8201 26.5401 58.4431 25.9565 56.675C25.8159 56.2492 25.7958 55.9456 25.7698 53.8541C25.7537 52.5651 25.7234 51.432 25.7023 51.336C25.6812 51.2402 25.5555 51.1055 25.4228 51.0369C25.1246 50.8827 24.7952 50.9899 24.6609 51.285C24.5476 51.5334 24.5416 55.4533 24.6534 56.1421C25.178 59.3742 27.9887 61.66 31.1741 61.4447C33.9427 61.2575 36.2245 59.3348 36.8359 56.6742C36.9662 56.1069 36.9848 55.5723 37.0153 51.4905L37.0493 46.9395L37.3734 46.4905C38.2121 45.3287 38.9363 43.7882 39.2761 42.4436C39.4294 41.8364 39.4526 41.5449 39.4526 40.2213C39.4526 38.6267 39.3732 38.0932 38.9613 36.9215C38.8238 36.5302 38.8206 36.4463 38.9184 35.8013C39.3933 32.6701 39.4469 28.417 39.0313 26.8541C38.7001 25.6086 38.1497 24.6536 37.1987 23.6747C36.2489 22.697 35.1276 22.0418 33.817 21.6985C33.1044 21.5119 31.6159 21.4411 30.7941 21.5547ZM47.0993 21.5814C45.5262 21.8823 44.2648 22.5636 43.1598 23.7088C42.2433 24.6587 41.69 25.6277 41.3638 26.8541C40.9482 28.417 41.0019 32.6701 41.4767 35.8013C41.5745 36.4463 41.5713 36.5302 41.4338 36.9215C41.0219 38.0932 40.9425 38.6267 40.9425 40.2213C40.9425 41.5449 40.9657 41.8364 41.1191 42.4436C41.4588 43.7882 42.183 45.3287 43.0218 46.4905L43.3459 46.9395L43.3798 51.4905C43.4104 55.5723 43.4289 56.1069 43.5592 56.6742C44.3794 60.2434 48.1494 62.3162 51.6327 61.1128C53.8003 60.3641 55.3634 58.473 55.7417 56.1421C55.7855 55.872 55.8225 54.3327 55.8237 52.7213C55.8261 49.8606 55.8766 48.673 56.0662 47.0304C56.1592 46.2248 56.1612 46.2198 56.6445 45.507C58.3813 42.9452 58.8265 40.4207 58.0244 37.6823C57.9222 37.333 57.9021 37.1039 57.9458 36.7838C58.1079 35.5963 58.2499 33.8734 58.2929 32.5712C58.3692 30.2613 58.0967 28.7517 57.3116 27.1354C55.9379 24.3072 53.3491 22.3061 50.2366 21.6666C49.3752 21.4895 47.8023 21.4469 47.0993 21.5814ZM33.5932 22.8422C35.7907 23.4418 37.5097 25.2588 37.9735 27.4724C38.207 28.5866 38.1922 32.4562 37.9479 34.1597L37.8929 34.5434L37.4108 33.8081C36.7122 32.7428 35.9891 31.8668 34.9657 30.8463C34.0425 29.9257 32.6601 28.7647 32.2101 28.532C31.8635 28.3527 31.0237 28.3573 30.6651 28.5405C30.1492 28.804 28.6385 29.8343 27.8369 30.4694C26.3626 31.6374 24.2567 33.8979 23.5856 35.0327C23.5369 35.1149 23.4773 35.1637 23.4531 35.1409C23.4289 35.1181 23.3655 34.2677 23.3122 33.2509C23.2053 31.2127 23.2665 30.2436 23.5721 29.1295C24.2308 26.7285 25.9977 24.6038 28.2213 23.5391C29.0098 23.1614 29.8616 22.888 30.6534 22.7584C31.4851 22.6223 32.9392 22.6637 33.5932 22.8422ZM49.6704 22.759C50.5303 22.8886 51.3469 23.143 52.1738 23.5391C54.3977 24.604 56.1729 26.7391 56.8209 29.1285C57.1655 30.399 57.2162 31.9223 57.0042 34.6354L56.9554 35.2604L56.5726 34.6854C55.3672 32.8748 53.117 30.7294 50.8785 29.2562C49.65 28.4477 49.5448 28.4015 48.9356 28.4015C48.3153 28.4015 48.1712 28.4747 47.0834 29.343C45.5824 30.541 43.9857 32.2805 42.9844 33.8086L42.5023 34.5443L42.4519 34.1992C42.2049 32.5063 42.1869 28.584 42.4211 27.4724C42.8134 25.6095 44.1264 23.9712 45.8555 23.1872C46.9996 22.6684 48.1861 22.5352 49.6704 22.759ZM31.8859 29.7231C32.3596 30.0425 33.3744 30.9183 34.1038 31.6372C37.7273 35.2084 39.0764 39.1517 37.9369 42.8408C37.5753 44.0116 36.7026 45.5495 35.8397 46.5366C35.6017 46.8088 35.3261 47.0623 35.2271 47.0999C34.9537 47.2039 34.5738 47.0391 34.4593 46.7667C34.3194 46.4341 34.3845 46.235 34.8017 45.719C35.9948 44.2431 36.6634 42.8686 36.9226 41.3588C37.068 40.5115 36.9748 39.0085 36.7237 38.151C36.3071 36.7286 35.4612 35.2155 34.3109 33.8352C33.5971 32.9785 31.7936 31.2484 31.551 31.1874C31.2615 31.1148 31.0623 31.2042 30.3148 31.7424C28.6802 32.9193 27.2208 34.3093 26.2098 35.6523C25.6769 36.3602 24.8919 37.902 24.6791 38.6588C24.4607 39.4357 24.4786 40.9986 24.7154 41.8229C25.0726 43.0671 25.7956 44.2232 27.0326 45.5284C27.7432 46.2783 27.8277 46.4851 27.5725 46.8495C27.2196 47.3533 26.7983 47.2109 25.9314 46.2946C24.387 44.6623 23.5077 43.0363 23.2383 41.3144C23.1201 40.5594 23.1933 39.1012 23.3853 38.3854C23.8919 36.4967 24.9039 34.8816 26.7169 33.0687C28.039 31.7465 29.9175 30.2677 31.0167 29.6836C31.4176 29.4706 31.5182 29.4752 31.8859 29.7231ZM50.1534 30.1745C51.4674 31.0505 52.553 31.9416 53.6783 33.0679C55.1502 34.5409 56.0192 35.7695 56.6001 37.198C57.0946 38.4141 57.1907 38.9254 57.183 40.2995C57.1769 41.3806 57.1534 41.5858 56.9639 42.2135C56.5396 43.6195 55.7495 44.9273 54.5622 46.1895C53.7884 47.0121 53.4595 47.2227 53.1389 47.1008C52.8877 47.0052 52.6976 46.7251 52.6976 46.4506C52.6976 46.2809 52.8509 46.0683 53.3626 45.5284C54.572 44.2521 55.2883 43.1186 55.6793 41.862C55.9173 41.0973 55.9368 39.458 55.7176 38.6588C55.3667 37.38 54.3383 35.6705 53.1709 34.4253C52.6601 33.8806 52.5375 33.7891 52.3191 33.7891C51.9963 33.7891 51.7341 34.0402 51.7341 34.3491C51.7341 34.5259 51.8684 34.7273 52.3121 35.2164C53.5348 36.5639 54.2669 37.8038 54.5866 39.0683C54.7182 39.5884 54.741 39.8548 54.7055 40.455C54.6156 41.9761 54.0027 43.1484 52.4129 44.8402C51.696 45.603 51.5252 45.919 51.5262 46.4804C51.5273 47.159 51.9365 47.8026 52.5751 48.13C53.179 48.4396 54.0864 48.2985 54.6017 47.8148L54.8262 47.6041L54.773 48.0338C54.7437 48.2702 54.6923 50.2038 54.6586 52.3307C54.6054 55.6899 54.5793 56.2543 54.4602 56.6276C54.0337 57.9645 53.0293 59.1576 51.8382 59.7421C50.9637 60.1713 50.2109 60.3281 49.2966 60.2715C48.0016 60.1913 46.972 59.7203 46.008 58.7673C45.5562 58.3206 45.3768 58.0677 45.0939 57.4782C44.9004 57.0748 44.7054 56.5655 44.6606 56.3463C44.6113 56.105 44.5762 54.4114 44.5713 52.0495C44.5648 48.8714 44.5823 48.1566 44.6656 48.1809C45.0669 48.2985 45.4429 48.3238 45.7673 48.255C46.5544 48.0883 47.1666 47.3388 47.1783 46.5275C47.186 45.9923 47.057 45.6848 46.5648 45.0651C45.9305 44.2664 45.5437 43.6661 45.2034 42.9523C44.7066 41.9105 44.6108 41.4514 44.6169 40.1432C44.6217 39.1213 44.6437 38.9454 44.8409 38.3463C45.2064 37.2358 45.7616 36.1937 46.5701 35.1004C47.0217 34.4897 48.5191 32.8927 48.883 32.6335L49.1094 32.4723L49.5167 32.7794C50.2469 33.3297 50.4879 33.3897 50.798 33.0984C50.9773 32.9298 51.0245 32.6969 50.9294 32.449C50.8425 32.2225 49.2651 31.1588 49.0162 31.1588C48.7649 31.1588 48.5307 31.3445 47.396 32.443C45.5031 34.2757 44.2391 36.2129 43.6715 38.151C43.4203 39.0085 43.3271 40.5115 43.4726 41.3588C43.7317 42.8686 44.4003 44.2431 45.5934 45.719C46.0106 46.235 46.0757 46.4341 45.9359 46.7667C45.8213 47.0391 45.4415 47.2039 45.168 47.0999C44.7311 46.9338 43.4993 45.24 42.9263 44.0172C41.9344 41.9005 41.7966 39.6683 42.5162 37.3755C43.2316 35.0963 45.09 32.5567 47.5804 30.4553C48.5206 29.662 48.789 29.4982 49.0597 29.5523C49.1858 29.5776 49.678 29.8576 50.1534 30.1745Z"/>
</mask>
<path fill-rule="evenodd" clip-rule="evenodd" d="M30.7941 21.5547C27.4368 22.0189 24.556 24.1039 23.0835 27.1354C22.2984 28.7517 22.0259 30.2613 22.1023 32.5712C22.1453 33.8746 22.2877 35.6024 22.4495 36.7838C22.4937 37.1059 22.4736 37.3309 22.3694 37.6823C21.9199 39.1979 21.8786 40.9116 22.2566 42.357C22.5061 43.3109 23.0678 44.4999 23.7306 45.4774C24.29 46.3024 24.2397 46.1076 24.4505 48.2636C24.5409 49.1877 24.5741 49.3305 24.7278 49.455C24.9623 49.6448 25.2847 49.6333 25.506 49.4271C25.6814 49.2638 25.6858 49.2293 25.6343 48.4324L25.5809 47.607L25.7994 47.8163C26.3017 48.2974 27.2166 48.4395 27.8201 48.13C28.4587 47.8026 28.8679 47.159 28.869 46.4804C28.8699 45.919 28.6991 45.603 27.9823 44.8402C26.3924 43.1484 25.7795 41.9761 25.6896 40.455C25.6541 39.8544 25.6773 39.5851 25.8105 39.0488C26.1523 37.6727 27.0911 36.2031 28.555 34.7526C29.3355 33.9792 31.1612 32.487 31.3269 32.487C31.4617 32.487 33.3531 34.4598 33.8037 35.0704C34.6367 36.1989 35.1855 37.2261 35.5543 38.3463C35.7515 38.9454 35.7734 39.1213 35.7782 40.1432C35.7844 41.4514 35.6885 41.9105 35.1918 42.9523C34.8515 43.6661 34.4646 44.2664 33.8303 45.0651C33.3381 45.6848 33.2091 45.9923 33.2169 46.5275C33.2286 47.3388 33.8408 48.0883 34.6278 48.255C34.9523 48.3238 35.3283 48.2985 35.7295 48.1809C35.8129 48.1566 35.8303 48.8714 35.8238 52.0495C35.819 54.4114 35.7838 56.105 35.7345 56.3463C35.615 56.9318 35.0268 58.0905 34.6098 58.5622C33.4068 59.9227 31.5294 60.5509 29.7679 60.1823C28.0366 59.8201 26.5401 58.4431 25.9565 56.675C25.8159 56.2492 25.7958 55.9456 25.7698 53.8541C25.7537 52.5651 25.7234 51.432 25.7023 51.336C25.6812 51.2402 25.5555 51.1055 25.4228 51.0369C25.1246 50.8827 24.7952 50.9899 24.6609 51.285C24.5476 51.5334 24.5416 55.4533 24.6534 56.1421C25.178 59.3742 27.9887 61.66 31.1741 61.4447C33.9427 61.2575 36.2245 59.3348 36.8359 56.6742C36.9662 56.1069 36.9848 55.5723 37.0153 51.4905L37.0493 46.9395L37.3734 46.4905C38.2121 45.3287 38.9363 43.7882 39.2761 42.4436C39.4294 41.8364 39.4526 41.5449 39.4526 40.2213C39.4526 38.6267 39.3732 38.0932 38.9613 36.9215C38.8238 36.5302 38.8206 36.4463 38.9184 35.8013C39.3933 32.6701 39.4469 28.417 39.0313 26.8541C38.7001 25.6086 38.1497 24.6536 37.1987 23.6747C36.2489 22.697 35.1276 22.0418 33.817 21.6985C33.1044 21.5119 31.6159 21.4411 30.7941 21.5547ZM47.0993 21.5814C45.5262 21.8823 44.2648 22.5636 43.1598 23.7088C42.2433 24.6587 41.69 25.6277 41.3638 26.8541C40.9482 28.417 41.0019 32.6701 41.4767 35.8013C41.5745 36.4463 41.5713 36.5302 41.4338 36.9215C41.0219 38.0932 40.9425 38.6267 40.9425 40.2213C40.9425 41.5449 40.9657 41.8364 41.1191 42.4436C41.4588 43.7882 42.183 45.3287 43.0218 46.4905L43.3459 46.9395L43.3798 51.4905C43.4104 55.5723 43.4289 56.1069 43.5592 56.6742C44.3794 60.2434 48.1494 62.3162 51.6327 61.1128C53.8003 60.3641 55.3634 58.473 55.7417 56.1421C55.7855 55.872 55.8225 54.3327 55.8237 52.7213C55.8261 49.8606 55.8766 48.673 56.0662 47.0304C56.1592 46.2248 56.1612 46.2198 56.6445 45.507C58.3813 42.9452 58.8265 40.4207 58.0244 37.6823C57.9222 37.333 57.9021 37.1039 57.9458 36.7838C58.1079 35.5963 58.2499 33.8734 58.2929 32.5712C58.3692 30.2613 58.0967 28.7517 57.3116 27.1354C55.9379 24.3072 53.3491 22.3061 50.2366 21.6666C49.3752 21.4895 47.8023 21.4469 47.0993 21.5814ZM33.5932 22.8422C35.7907 23.4418 37.5097 25.2588 37.9735 27.4724C38.207 28.5866 38.1922 32.4562 37.9479 34.1597L37.8929 34.5434L37.4108 33.8081C36.7122 32.7428 35.9891 31.8668 34.9657 30.8463C34.0425 29.9257 32.6601 28.7647 32.2101 28.532C31.8635 28.3527 31.0237 28.3573 30.6651 28.5405C30.1492 28.804 28.6385 29.8343 27.8369 30.4694C26.3626 31.6374 24.2567 33.8979 23.5856 35.0327C23.5369 35.1149 23.4773 35.1637 23.4531 35.1409C23.4289 35.1181 23.3655 34.2677 23.3122 33.2509C23.2053 31.2127 23.2665 30.2436 23.5721 29.1295C24.2308 26.7285 25.9977 24.6038 28.2213 23.5391C29.0098 23.1614 29.8616 22.888 30.6534 22.7584C31.4851 22.6223 32.9392 22.6637 33.5932 22.8422ZM49.6704 22.759C50.5303 22.8886 51.3469 23.143 52.1738 23.5391C54.3977 24.604 56.1729 26.7391 56.8209 29.1285C57.1655 30.399 57.2162 31.9223 57.0042 34.6354L56.9554 35.2604L56.5726 34.6854C55.3672 32.8748 53.117 30.7294 50.8785 29.2562C49.65 28.4477 49.5448 28.4015 48.9356 28.4015C48.3153 28.4015 48.1712 28.4747 47.0834 29.343C45.5824 30.541 43.9857 32.2805 42.9844 33.8086L42.5023 34.5443L42.4519 34.1992C42.2049 32.5063 42.1869 28.584 42.4211 27.4724C42.8134 25.6095 44.1264 23.9712 45.8555 23.1872C46.9996 22.6684 48.1861 22.5352 49.6704 22.759ZM31.8859 29.7231C32.3596 30.0425 33.3744 30.9183 34.1038 31.6372C37.7273 35.2084 39.0764 39.1517 37.9369 42.8408C37.5753 44.0116 36.7026 45.5495 35.8397 46.5366C35.6017 46.8088 35.3261 47.0623 35.2271 47.0999C34.9537 47.2039 34.5738 47.0391 34.4593 46.7667C34.3194 46.4341 34.3845 46.235 34.8017 45.719C35.9948 44.2431 36.6634 42.8686 36.9226 41.3588C37.068 40.5115 36.9748 39.0085 36.7237 38.151C36.3071 36.7286 35.4612 35.2155 34.3109 33.8352C33.5971 32.9785 31.7936 31.2484 31.551 31.1874C31.2615 31.1148 31.0623 31.2042 30.3148 31.7424C28.6802 32.9193 27.2208 34.3093 26.2098 35.6523C25.6769 36.3602 24.8919 37.902 24.6791 38.6588C24.4607 39.4357 24.4786 40.9986 24.7154 41.8229C25.0726 43.0671 25.7956 44.2232 27.0326 45.5284C27.7432 46.2783 27.8277 46.4851 27.5725 46.8495C27.2196 47.3533 26.7983 47.2109 25.9314 46.2946C24.387 44.6623 23.5077 43.0363 23.2383 41.3144C23.1201 40.5594 23.1933 39.1012 23.3853 38.3854C23.8919 36.4967 24.9039 34.8816 26.7169 33.0687C28.039 31.7465 29.9175 30.2677 31.0167 29.6836C31.4176 29.4706 31.5182 29.4752 31.8859 29.7231ZM50.1534 30.1745C51.4674 31.0505 52.553 31.9416 53.6783 33.0679C55.1502 34.5409 56.0192 35.7695 56.6001 37.198C57.0946 38.4141 57.1907 38.9254 57.183 40.2995C57.1769 41.3806 57.1534 41.5858 56.9639 42.2135C56.5396 43.6195 55.7495 44.9273 54.5622 46.1895C53.7884 47.0121 53.4595 47.2227 53.1389 47.1008C52.8877 47.0052 52.6976 46.7251 52.6976 46.4506C52.6976 46.2809 52.8509 46.0683 53.3626 45.5284C54.572 44.2521 55.2883 43.1186 55.6793 41.862C55.9173 41.0973 55.9368 39.458 55.7176 38.6588C55.3667 37.38 54.3383 35.6705 53.1709 34.4253C52.6601 33.8806 52.5375 33.7891 52.3191 33.7891C51.9963 33.7891 51.7341 34.0402 51.7341 34.3491C51.7341 34.5259 51.8684 34.7273 52.3121 35.2164C53.5348 36.5639 54.2669 37.8038 54.5866 39.0683C54.7182 39.5884 54.741 39.8548 54.7055 40.455C54.6156 41.9761 54.0027 43.1484 52.4129 44.8402C51.696 45.603 51.5252 45.919 51.5262 46.4804C51.5273 47.159 51.9365 47.8026 52.5751 48.13C53.179 48.4396 54.0864 48.2985 54.6017 47.8148L54.8262 47.6041L54.773 48.0338C54.7437 48.2702 54.6923 50.2038 54.6586 52.3307C54.6054 55.6899 54.5793 56.2543 54.4602 56.6276C54.0337 57.9645 53.0293 59.1576 51.8382 59.7421C50.9637 60.1713 50.2109 60.3281 49.2966 60.2715C48.0016 60.1913 46.972 59.7203 46.008 58.7673C45.5562 58.3206 45.3768 58.0677 45.0939 57.4782C44.9004 57.0748 44.7054 56.5655 44.6606 56.3463C44.6113 56.105 44.5762 54.4114 44.5713 52.0495C44.5648 48.8714 44.5823 48.1566 44.6656 48.1809C45.0669 48.2985 45.4429 48.3238 45.7673 48.255C46.5544 48.0883 47.1666 47.3388 47.1783 46.5275C47.186 45.9923 47.057 45.6848 46.5648 45.0651C45.9305 44.2664 45.5437 43.6661 45.2034 42.9523C44.7066 41.9105 44.6108 41.4514 44.6169 40.1432C44.6217 39.1213 44.6437 38.9454 44.8409 38.3463C45.2064 37.2358 45.7616 36.1937 46.5701 35.1004C47.0217 34.4897 48.5191 32.8927 48.883 32.6335L49.1094 32.4723L49.5167 32.7794C50.2469 33.3297 50.4879 33.3897 50.798 33.0984C50.9773 32.9298 51.0245 32.6969 50.9294 32.449C50.8425 32.2225 49.2651 31.1588 49.0162 31.1588C48.7649 31.1588 48.5307 31.3445 47.396 32.443C45.5031 34.2757 44.2391 36.2129 43.6715 38.151C43.4203 39.0085 43.3271 40.5115 43.4726 41.3588C43.7317 42.8686 44.4003 44.2431 45.5934 45.719C46.0106 46.235 46.0757 46.4341 45.9359 46.7667C45.8213 47.0391 45.4415 47.2039 45.168 47.0999C44.7311 46.9338 43.4993 45.24 42.9263 44.0172C41.9344 41.9005 41.7966 39.6683 42.5162 37.3755C43.2316 35.0963 45.09 32.5567 47.5804 30.4553C48.5206 29.662 48.789 29.4982 49.0597 29.5523C49.1858 29.5776 49.678 29.8576 50.1534 30.1745Z" fill="#334040" stroke="#E1ECF0" stroke-width="0.2" mask="url(#path-4-inside-1_297_329)"/>
</svg>
