<svg width="81" height="82" viewBox="0 0 81 82" fill="none" xmlns="http://www.w3.org/2000/svg">
<rect y="0.548584" width="81" height="81" rx="6" fill="#F2FAFA"/>
<path d="M29 45.0486L21.5 44.0486V48.5486L22 50.0486H27.5L32 49.5486L33 48.5486L40 50.0486H45.5L60 48.0486L60.5 45.5486L57 46.0486L52.5 46.5486L41.5 47.0486L29 45.0486Z" fill="#DFEAEB"/>
<path d="M28.5 45.0486L22 44.5486L21.5 34.0486L23 33.5486L27.5 35.0486L31 34.5486L33 33.5486L35.5 31.5486H37.5L44 36.5486L51 40.5486C53.6667 41.3819 59.1 43.0486 59.5 43.0486C59.9 43.0486 60.3333 43.7153 60.5 44.0486V45.5486L51.5 47.0486L47.5 47.5486H42.5L36.5 47.0486L28.5 45.0486Z" fill="#2AC8CE"/>
<path fill-rule="evenodd" clip-rule="evenodd" d="M33.5848 31.8554C34.4321 31.1157 34.7736 30.8858 35.2429 30.739C35.6943 30.5979 36.5925 30.6025 37.0841 30.7484C37.3149 30.817 37.8666 31.1218 38.3445 31.4447C39.0523 31.9231 39.2095 32.0006 39.2858 31.9087C39.4091 31.7601 39.8284 31.769 40.0511 31.9251C40.2014 32.0303 40.2273 32.108 40.2052 32.3865C40.1787 32.72 40.1809 32.7232 40.6884 33.0725C41.1537 33.3926 41.2119 33.4135 41.3525 33.3105C41.5941 33.1336 42.0109 33.2074 42.199 33.4602C42.3345 33.6425 42.3464 33.7126 42.2745 33.903C42.1911 34.1241 42.2015 34.1379 42.7264 34.4998C43.2327 34.8489 43.2719 34.8628 43.407 34.7406C43.6196 34.5481 43.9866 34.577 44.1988 34.8029C44.347 34.9607 44.3706 35.0488 44.3309 35.2967C44.2832 35.5953 44.288 35.6022 44.7664 35.9323C45.2368 36.2569 45.2558 36.2626 45.4607 36.1416C45.7506 35.9704 46.0456 35.9858 46.2423 36.1826C46.3763 36.3165 46.4003 36.4133 46.369 36.6915L46.3302 37.0351L47.0434 37.4794C48.0177 38.0865 49.4791 38.8222 50.4747 39.2068C50.9299 39.3826 53.0305 40.074 55.1427 40.7432C57.255 41.4124 59.1585 42.0488 59.3728 42.1574C59.9205 42.435 60.4216 42.9672 60.7118 43.5796L60.9598 44.1031L60.9866 45.617C61.0173 47.3408 60.9648 47.6431 60.5515 48.126C60.0933 48.6613 59.9218 48.7109 57.2014 49.096C50.9535 49.9804 47.0082 50.3794 43.8504 50.4461C40.7884 50.5107 39.4869 50.3204 33.6084 48.949C33.4726 48.9173 33.4284 48.9647 33.3499 49.2266C33.2298 49.6276 32.7701 50.1405 32.366 50.3245C32.0746 50.4572 31.7275 50.467 27.2268 50.4686C23.3508 50.47 22.3505 50.4495 22.1487 50.365C21.7411 50.1941 21.3798 49.8399 21.1838 49.4188L21.0004 49.025L21 41.7203C20.9998 36.6876 21.0262 34.3184 21.0849 34.1031C21.2071 33.6551 21.8705 33.0251 22.3463 32.9053C22.5456 32.8551 22.7775 32.814 22.8617 32.814C22.9459 32.814 23.7653 33.0279 24.6826 33.2892C26.7753 33.8854 27.298 33.9859 28.3035 33.9859C30.2856 33.9859 31.8822 33.3419 33.5848 31.8554ZM58.8219 43.173C58.7087 43.1155 56.9276 42.5366 54.864 41.8865C52.8004 41.2365 51.0866 40.7047 51.0554 40.7047C51.0243 40.7047 50.9988 41.9379 50.9988 43.4453V46.1859L51.7672 46.1315L52.5356 46.077L52.7047 46.292C52.7977 46.4102 52.8738 46.5533 52.8738 46.61C52.8738 46.8271 52.6888 47.1036 52.4926 47.18C52.2798 47.2627 49.5394 47.5718 47.1707 47.7801C46.4188 47.8463 44.9598 47.9211 43.9285 47.9463C40.9624 48.0189 39.8805 47.8712 34.6707 46.6835C29.2124 45.4391 26.9899 45.0962 23.0105 44.885L22.1707 44.8404V46.8776V48.9149L22.3625 49.1066L22.5542 49.2984H27.2098H31.8653L32.057 49.1066C32.2095 48.9542 32.2488 48.8348 32.2488 48.5244C32.2488 48.0341 32.3664 47.7709 32.6352 47.6596C32.8105 47.5869 33.1902 47.6512 34.9492 48.0516C39.9501 49.1898 40.4402 49.2601 43.3426 49.2563C46.1941 49.2526 48.9983 49.0041 54.7879 48.2422C59.0795 47.6775 59.4555 47.6111 59.6512 47.3842C59.7909 47.2222 59.827 47.0851 59.827 46.7159C59.827 46.3755 59.7984 46.2515 59.7202 46.2515C59.6616 46.2515 58.5113 46.4079 57.164 46.5991C55.1394 46.8864 54.6804 46.9304 54.5186 46.8528C54.1407 46.6717 54.1035 46.0161 54.4619 45.8529C54.5595 45.8084 55.7977 45.6075 57.2136 45.4063C59.7509 45.0458 59.7883 45.0379 59.8144 44.8533C59.8859 44.3476 59.3506 43.4415 58.8219 43.173ZM38.423 32.9067L37.6345 32.3733C36.862 31.8508 36.8346 31.8394 36.2857 31.8168C35.5581 31.7867 35.3096 31.9048 34.3582 32.7327C33.4103 33.5576 32.8723 33.9226 31.9823 34.3442C30.8496 34.8807 29.9896 35.0849 28.6551 35.1343C27.2816 35.1851 26.8285 35.1104 24.5096 34.4515C23.6086 34.1954 22.8165 33.9859 22.7495 33.9859C22.6823 33.9859 22.5247 34.0886 22.3991 34.2143L22.1707 34.4426V39.0514V43.6601L22.7371 43.7032C23.0487 43.7269 23.7254 43.7664 24.241 43.791C25.9712 43.8737 28.8638 44.2451 30.6754 44.617C31.0776 44.6996 31.4495 44.7672 31.502 44.7672L32.912 45.0616C32.9352 45.0904 36.8395 45.9808 37.991 46.2197C41.1977 46.8851 43.3678 46.9501 48.0691 46.5215C48.7566 46.4587 49.4334 46.3883 49.573 46.3651L49.827 46.3226V43.2903V40.2581L48.4012 39.5483C47.617 39.1579 46.646 38.6241 46.2434 38.3622L45.5114 37.8858L45.2308 38.2211C44.3673 39.2525 44.0702 39.4082 43.6906 39.0285C43.3896 38.7276 43.4445 38.5203 44.0033 37.8482C44.2808 37.5145 44.4895 37.2119 44.4672 37.1758C44.4449 37.1397 44.212 36.9644 43.9495 36.7861L43.4723 36.4621L43.2409 36.7279C42.1974 37.9265 42.0973 37.9855 41.6734 37.6521C41.3184 37.3729 41.3888 37.0886 41.9868 36.3857C42.2713 36.0513 42.4906 35.7672 42.4741 35.7544C42.1311 35.488 41.4995 35.0809 41.4353 35.0849C41.3886 35.0878 41.143 35.3365 40.8895 35.6376C40.3404 36.2899 40.1309 36.4422 39.872 36.3772C39.5853 36.3053 39.4363 36.1141 39.4363 35.8183C39.4363 35.6061 39.5305 35.443 39.9027 35.0104C40.1593 34.7124 40.3791 34.4329 40.391 34.3894C40.403 34.3459 40.1844 34.1486 39.9051 33.9511L39.3973 33.5919L39.046 34.0037C38.1364 35.0704 37.9027 35.1937 37.5188 34.8097C37.1785 34.4696 37.2485 34.2844 38.0898 33.2976L38.423 32.9067Z" fill="#334040"/>
</svg>
