<svg width="81" height="82" viewBox="0 0 81 82" fill="none" xmlns="http://www.w3.org/2000/svg">
<rect y="0.048584" width="81" height="81" rx="6" fill="#F2FAFA"/>
<path d="M29.2578 48.1931L21.7578 47.1931V51.6931L22.2578 53.1931H27.7578L32.2578 52.6931L33.2578 51.6931L40.2578 53.1931H45.7578L60.2578 51.1931L60.7578 48.6931L57.2578 49.1931L52.7578 49.6931L41.7578 50.1931L29.2578 48.1931Z" fill="#DFEAEB"/>
<path d="M28.3047 48.3369L21.8047 47.8369L21.3047 37.3369L22.8047 36.8369L27.3047 38.3369L30.8047 37.8369L32.8047 36.8369L35.3047 34.8369H37.3047L43.8047 39.8369L50.8047 43.8369C53.4714 44.6702 58.9047 46.3369 59.3047 46.3369C59.7047 46.3369 60.138 47.0036 60.3047 47.3369V48.8369L51.3047 50.3369L47.3047 50.8369H42.3047L36.3047 50.3369L28.3047 48.3369Z" fill="#2AC8CE"/>
<path fill-rule="evenodd" clip-rule="evenodd" d="M33.5848 35.268C34.4321 34.5283 34.7736 34.2984 35.2429 34.1516C35.6943 34.0105 36.5925 34.0151 37.0841 34.161C37.3149 34.2296 37.8666 34.5344 38.3445 34.8573C39.0523 35.3357 39.2095 35.4132 39.2858 35.3213C39.4091 35.1727 39.8284 35.1816 40.0511 35.3377C40.2014 35.4429 40.2273 35.5206 40.2052 35.7991C40.1787 36.1326 40.1809 36.1358 40.6884 36.4851C41.1537 36.8052 41.2119 36.8261 41.3525 36.7231C41.5941 36.5462 42.0109 36.62 42.199 36.8728C42.3345 37.0551 42.3464 37.1252 42.2745 37.3156C42.1911 37.5367 42.2015 37.5505 42.7264 37.9124C43.2327 38.2615 43.2719 38.2754 43.407 38.1532C43.6196 37.9607 43.9866 37.9896 44.1988 38.2155C44.347 38.3733 44.3706 38.4614 44.3309 38.7093C44.2832 39.0079 44.288 39.0148 44.7664 39.3449C45.2368 39.6695 45.2558 39.6752 45.4607 39.5542C45.7506 39.383 46.0456 39.3984 46.2423 39.5952C46.3763 39.7291 46.4003 39.8259 46.369 40.1041L46.3302 40.4477L47.0434 40.892C48.0177 41.4991 49.4791 42.2348 50.4747 42.6194C50.9299 42.7952 53.0305 43.4866 55.1427 44.1558C57.255 44.825 59.1585 45.4614 59.3728 45.57C59.9205 45.8476 60.4216 46.3798 60.7118 46.9922L60.9598 47.5157L60.9866 49.0296C61.0173 50.7534 60.9648 51.0557 60.5515 51.5386C60.0933 52.0739 59.9218 52.1235 57.2014 52.5086C50.9535 53.393 47.0082 53.7919 43.8504 53.8587C40.7884 53.9233 39.4869 53.733 33.6084 52.3616C33.4726 52.3299 33.4284 52.3773 33.3499 52.6392C33.2298 53.0402 32.7701 53.5531 32.366 53.7371C32.0746 53.8698 31.7275 53.8796 27.2268 53.8812C23.3508 53.8826 22.3505 53.8621 22.1487 53.7776C21.7411 53.6067 21.3798 53.2525 21.1838 52.8314L21.0004 52.4376L21 45.1329C20.9998 40.1002 21.0262 37.731 21.0849 37.5157C21.2071 37.0677 21.8705 36.4377 22.3463 36.3179C22.5456 36.2677 22.7775 36.2266 22.8617 36.2266C22.9459 36.2266 23.7653 36.4405 24.6826 36.7018C26.7753 37.298 27.298 37.3985 28.3035 37.3985C30.2856 37.3985 31.8822 36.7544 33.5848 35.268ZM58.8219 46.5856C58.7087 46.5281 56.9276 45.9492 54.864 45.2991C52.8004 44.6491 51.0866 44.1173 51.0554 44.1173C51.0243 44.1173 50.9988 45.3505 50.9988 46.8579V49.5985L51.7672 49.5441L52.5356 49.4896L52.7047 49.7046C52.7977 49.8228 52.8738 49.9659 52.8738 50.0226C52.8738 50.2397 52.6888 50.5162 52.4926 50.5926C52.2798 50.6753 49.5394 50.9844 47.1707 51.1927C46.4188 51.2589 44.9598 51.3337 43.9285 51.3589C40.9624 51.4315 39.8805 51.2838 34.6707 50.0961C29.2124 48.8517 26.9899 48.5088 23.0105 48.2976L22.1707 48.253V50.2902V52.3275L22.3625 52.5192L22.5542 52.711H27.2098H31.8653L32.057 52.5192C32.2095 52.3668 32.2488 52.2474 32.2488 51.937C32.2488 51.4467 32.3664 51.1835 32.6352 51.0722C32.8105 50.9995 33.1902 51.0638 34.9492 51.4642C39.9501 52.6024 40.4402 52.6727 43.3426 52.6689C46.1941 52.6652 48.9983 52.4167 54.7879 51.6548C59.0795 51.0901 59.4555 51.0237 59.6512 50.7968C59.7909 50.6348 59.827 50.4977 59.827 50.1285C59.827 49.7881 59.7984 49.6641 59.7202 49.6641C59.6616 49.6641 58.5113 49.8205 57.164 50.0117C55.1394 50.299 54.6804 50.343 54.5186 50.2654C54.1407 50.0843 54.1035 49.4287 54.4619 49.2655C54.5595 49.221 55.7977 49.0201 57.2136 48.8189C59.7509 48.4584 59.7883 48.4505 59.8144 48.2659C59.8859 47.7602 59.3506 46.8541 58.8219 46.5856ZM38.423 36.3193L37.6345 35.7859C36.862 35.2634 36.8346 35.252 36.2857 35.2294C35.5581 35.1993 35.3096 35.3174 34.3582 36.1453C33.4103 36.9702 32.8723 37.3352 31.9823 37.7568C30.8496 38.2933 29.9896 38.4975 28.6551 38.5469C27.2816 38.5977 26.8285 38.523 24.5096 37.8641C23.6086 37.608 22.8165 37.3985 22.7495 37.3985C22.6823 37.3985 22.5247 37.5012 22.3991 37.6269L22.1707 37.8552V42.464V47.0727L22.7371 47.1158C23.0487 47.1395 23.7254 47.179 24.241 47.2036C25.9712 47.2863 28.8638 47.6577 30.6754 48.0296C31.0776 48.1122 31.4495 48.1798 31.502 48.1798L32.912 48.4742C32.9352 48.503 36.8395 49.3934 37.991 49.6323C41.1977 50.2977 43.3678 50.3627 48.0691 49.9341C48.7566 49.8713 49.4334 49.8009 49.573 49.7777L49.827 49.7352V46.7029V43.6707L48.4012 42.9609C47.617 42.5705 46.646 42.0367 46.2434 41.7748L45.5114 41.2984L45.2308 41.6337C44.3673 42.6651 44.0702 42.8208 43.6906 42.4411C43.3896 42.1402 43.4445 41.9329 44.0033 41.2608C44.2808 40.9271 44.4895 40.6245 44.4672 40.5884C44.4449 40.5523 44.212 40.3769 43.9495 40.1987L43.4723 39.8747L43.2409 40.1405C42.1974 41.3391 42.0973 41.3981 41.6734 41.0647C41.3184 40.7855 41.3888 40.5012 41.9868 39.7983C42.2713 39.4639 42.4906 39.1798 42.4741 39.1669C42.1311 38.9006 41.4995 38.4935 41.4353 38.4975C41.3886 38.5004 41.143 38.7491 40.8895 39.0502C40.3404 39.7025 40.1309 39.8548 39.872 39.7898C39.5853 39.7179 39.4363 39.5267 39.4363 39.2309C39.4363 39.0187 39.5305 38.8556 39.9027 38.423C40.1593 38.125 40.3791 37.8455 40.391 37.802C40.403 37.7585 40.1844 37.5612 39.9051 37.3637L39.3973 37.0044L39.046 37.4163C38.1364 38.483 37.9027 38.6063 37.5188 38.2223C37.1785 37.8822 37.2485 37.6969 38.0898 36.7102L38.423 36.3193Z" fill="#334040"/>
<rect x="30" y="27.0486" width="1" height="7" rx="0.5" fill="#334040"/>
<rect x="27" y="27.0486" width="1" height="7" rx="0.5" fill="#334040"/>
<rect x="24" y="27.0486" width="1" height="7" rx="0.5" fill="#334040"/>
</svg>
