<?xml version="1.0" encoding="UTF-8"?>
<!-- Generator: Adobe Illustrator 25.4.1, SVG Export Plug-In . SVG Version: 6.00 Build 0)  -->
<svg xmlns="http://www.w3.org/2000/svg" xmlns:xlink="http://www.w3.org/1999/xlink" version="1.1" id="Layer_1" x="0px" y="0px" viewBox="0 0 81 82" style="enable-background:new 0 0 81 82;" xml:space="preserve">
<style type="text/css">
	.st0{fill:#F2FAFA;}
	.st1{fill:#2AC8CE;}
	.st2{fill:#DFEAEB;}
	.st3{fill-rule:evenodd;clip-rule:evenodd;fill:#334040;}
	.st4{fill:#E1ECF0;}
</style>
<g>
	<path class="st0" d="M6,0.5h69c3.3,0,6,2.7,6,6v69c0,3.3-2.7,6-6,6H6c-3.3,0-6-2.7-6-6v-69C0,3.2,2.7,0.5,6,0.5z"></path>
	<path class="st1" d="M35.8,45.4l2.7,1.5l4.7,0.2l3-2.1l1.9-2l0.8-2.9l0.3-12.8l-1.1-2.9l-1.5-1.6l-3.4-1.1h-3.4l-2.9,0.3L34,24   l-1,3.2v13l1,2.7L35.8,45.4z"></path>
	<path class="st2" d="M33.2,30.3l-0.7-2.7l-2.1,2.1l-1.3,4.8v26.1h23.7V33.8l-1.4-3.6l-2.4-2.7L48.6,41l-0.7,0.8l-0.8,2L42.5,41   h-2.5l-2.7,0.8l-2.6,2l-2-4.2L33.2,30.3z"></path>
	<path class="st3" d="M39.4,20.6c-2.6,0.3-4.7,1.3-5.9,2.8c-0.6,0.7-1.1,1.7-1.3,2.6c-0.2,0.6-0.2,0.7-0.7,1.2   c-1.8,1.9-3.1,4.5-3.4,7.3C28,35,28,39.4,28,47.5c0,13.6,0,12.6,0.5,12.9c0.3,0.2,0.5,0.2,0.8,0c0.5-0.2,0.5,0.8,0.5-13.1   c0-11.6,0.1-12.7,0.2-13.3c0.3-1.4,0.9-2.9,1.6-4.1l0.3-0.4l0,5.4c0,5.1,0,5.4,0.2,6c0.4,1.7,1.2,3.1,2.3,4.3   c1.8,1.8,4,2.8,6.5,2.8c2.5,0,4.7-0.9,6.5-2.8c1.1-1.2,1.9-2.5,2.3-4.2c0.2-0.6,0.2-0.9,0.2-6l0-5.3l0.2,0.3c0.4,0.6,1,1.9,1.3,2.7   c0.6,1.7,0.5,0.7,0.6,14.8c0,13.9,0,12.9,0.5,13.1c0.3,0.1,0.4,0.1,0.8,0c0.5-0.3,0.5,0.7,0.5-12.9c0-8.2,0-12.6-0.1-13   c-0.4-2.8-1.6-5.5-3.4-7.3c-0.5-0.5-0.5-0.5-0.7-1.2c-0.3-1.4-1.2-2.8-2.3-3.6c-1-0.8-2.5-1.4-4.1-1.7   C42.5,20.6,40.2,20.5,39.4,20.6z M42.6,22.5c1,0.1,1.8,0.4,2.7,0.8c1,0.5,1.8,1.2,2.2,2.1c0.5,1.1,0.5,0.9,0.5,8.1v6.4l-0.2,0.7   c-0.1,0.4-0.3,1-0.5,1.3c-0.3,0.7-0.2,0.7-0.9,0.1c-0.9-0.7-2.2-1.4-3.6-1.7c-1-0.2-3-0.2-3.9,0c-1.4,0.3-2.7,1-3.6,1.7   c-0.7,0.6-0.6,0.6-0.9-0.1c-0.2-0.3-0.4-0.9-0.5-1.3l-0.2-0.7v-6.4c0-7.2,0-7,0.5-8.1C35.4,23.1,38.6,22,42.6,22.5z M41.7,42   c1.3,0.2,2.6,0.7,3.7,1.6l0.5,0.4l-0.2,0.2c-0.3,0.3-1.4,1-2,1.3c-1,0.4-1.6,0.5-2.8,0.5c-1.2,0-1.8-0.1-2.8-0.5   c-0.6-0.2-1.7-0.9-2-1.3L35.9,44l0.5-0.4c1.2-1,2.8-1.6,4.4-1.7C40.9,42,41.4,42,41.7,42z"></path>
	<g>
		<path class="st4" d="M28.9,60.7c-0.1,0-0.3,0-0.5-0.1c0,0-0.1,0-0.1,0c-0.5-0.2-0.5-0.2-0.5-10.5l0-2.5c0-8.2,0-12.6,0.1-13    c0.4-2.8,1.6-5.5,3.4-7.4c0.4-0.5,0.5-0.5,0.6-1.1c0.2-0.9,0.8-2,1.4-2.7c1.3-1.5,3.4-2.5,6-2.8l0,0c0.8-0.1,3.1,0,3.9,0.1    c1.6,0.3,3.1,0.9,4.2,1.7c1.1,0.8,2,2.3,2.4,3.7c0.1,0.6,0.2,0.6,0.6,1.1c1.8,1.9,3.1,4.6,3.4,7.4c0.1,0.4,0.1,4.8,0.1,13V50    c0,10.4,0,10.4-0.5,10.6c0,0-0.1,0-0.1,0c-0.4,0.2-0.6,0.2-0.9,0c0,0-0.1,0-0.1,0c-0.5-0.2-0.5-0.2-0.5-10.6l0-5    c0-10.8,0-10.8-0.5-12.1l-0.1-0.3c-0.3-0.8-0.8-2-1.2-2.6l0,4.9c0,5.1,0,5.4-0.2,6c-0.4,1.7-1.2,3.1-2.3,4.3    c-1.8,1.9-4,2.8-6.6,2.8c0,0,0,0,0,0c-2.6,0-4.8-0.9-6.6-2.8c-1.2-1.2-1.9-2.6-2.4-4.4c-0.2-0.6-0.2-0.9-0.2-6.1l0-4.8l0,0    c-0.7,1.1-1.3,2.7-1.6,4C30,34.6,30,35.7,30,47.3l0,2.7c0,10.4,0,10.4-0.5,10.6c0,0-0.1,0-0.1,0C29.2,60.7,29,60.7,28.9,60.7z     M39.4,20.8c-2.5,0.3-4.6,1.3-5.8,2.7c-0.6,0.7-1.1,1.7-1.3,2.6c-0.2,0.6-0.2,0.7-0.7,1.2c-1.8,1.8-3,4.5-3.4,7.3    c0,0.3-0.1,2.8-0.1,13V50c0,9.4,0,10.1,0.3,10.2c0,0,0.1,0,0.1,0c0.3,0.1,0.4,0.1,0.7,0c0,0,0.1,0,0.1,0c0.3-0.1,0.3-0.8,0.3-10.3    l0-2.7c0-11.6,0.1-12.7,0.2-13.3c0.3-1.4,0.9-2.9,1.7-4.1L32,29l0,5.9c0,5.1,0,5.4,0.2,6c0.4,1.7,1.2,3.1,2.3,4.2    c1.7,1.8,3.9,2.7,6.3,2.7c0,0,0,0,0,0c2.5,0,4.6-0.9,6.4-2.7c1.1-1.2,1.8-2.5,2.2-4.2c0.2-0.6,0.2-0.9,0.2-6l0-5.8l0.5,0.7    c0.4,0.6,1,1.9,1.3,2.7l0.1,0.3c0.4,1.3,0.4,1.3,0.5,12.2l0,5c0,9.5,0,10.2,0.3,10.3c0,0,0.1,0,0.1,0c0.3,0.1,0.4,0.1,0.7,0    c0,0,0.1,0,0.1,0c0.3-0.1,0.3-0.9,0.3-10.3l0-2.4c0-10.2,0-12.7-0.1-13c-0.3-2.8-1.6-5.4-3.4-7.3c-0.5-0.5-0.5-0.6-0.7-1.2    c-0.3-1.4-1.2-2.7-2.3-3.5c-1-0.8-2.5-1.4-4-1.7C42.5,20.7,40.2,20.7,39.4,20.8L39.4,20.8z M40.9,46.2c-1.2,0-1.8-0.1-2.8-0.5    c-0.6-0.3-1.7-1-2.1-1.3L35.7,44l0.6-0.5c1.3-1,2.9-1.7,4.5-1.7c0.2,0,0.6,0,1,0.1c1.4,0.2,2.7,0.7,3.7,1.6l0.6,0.5l-0.3,0.3    c-0.3,0.4-1.4,1.1-2.1,1.3C42.7,46.1,42.1,46.2,40.9,46.2z M36.1,44l0.1,0.1c0.3,0.3,1.4,1,2,1.3c1,0.4,1.6,0.5,2.7,0.5    c1.1,0,1.7-0.1,2.7-0.5c0.6-0.2,1.7-0.9,2-1.3l0.1-0.1l-0.3-0.3c-1-0.9-2.3-1.4-3.6-1.6l0,0c-0.3,0-0.8-0.1-0.9-0.1    c-1.6,0-3.1,0.6-4.3,1.6L36.1,44z M34.8,42.7C34.8,42.7,34.7,42.7,34.8,42.7c-0.2,0-0.3-0.2-0.4-0.5l-0.1-0.1    c-0.2-0.3-0.4-1-0.5-1.4l-0.2-0.7l0-6.9c0-6.6,0-6.6,0.5-7.6l0-0.1c1.1-2.3,4.4-3.4,8.4-3c1,0.1,1.8,0.4,2.7,0.8    c1.1,0.5,1.8,1.3,2.3,2.2l0,0.1c0.5,1,0.5,1,0.5,7.6v6.9L48,40.7c-0.1,0.4-0.3,1-0.5,1.4l-0.1,0.1c-0.1,0.3-0.2,0.4-0.4,0.5    c-0.2,0-0.3-0.1-0.6-0.3l-0.1-0.1c-0.9-0.7-2.2-1.4-3.5-1.7c-1-0.2-2.9-0.2-3.9,0c-1.3,0.3-2.6,1-3.5,1.7l-0.1,0.1    C35.1,42.5,34.9,42.7,34.8,42.7z M40.8,22.5c-3.1,0-5.4,1.1-6.4,2.9l0,0.1c-0.5,1-0.5,1-0.5,7.5v6.9l0.2,0.7    c0.1,0.4,0.3,1,0.5,1.3l0.1,0.1c0.1,0.1,0.1,0.3,0.2,0.3c0,0,0.2-0.1,0.3-0.3l0.1-0.1c0.9-0.7,2.2-1.4,3.6-1.7c1-0.3,3-0.3,4,0    c1.4,0.3,2.7,1,3.6,1.7l0.1,0.1c0.2,0.1,0.3,0.3,0.4,0.3c0,0,0.1-0.2,0.1-0.3l0.1-0.1c0.2-0.3,0.4-0.9,0.5-1.3l0.2-0.7l0-6.8    c0-6.5,0-6.5-0.5-7.5l0-0.1c-0.4-0.9-1.1-1.5-2.1-2c-0.9-0.4-1.7-0.7-2.6-0.8C42,22.6,41.4,22.5,40.8,22.5z"></path>
	</g>
</g>
</svg>
