<svg width="81" height="82" viewBox="0 0 81 82" fill="none" xmlns="http://www.w3.org/2000/svg">
<rect y="0.048584" width="81" height="81" rx="6" fill="#F2FAFA"/>
<path d="M30.8663 35.4871L27.2383 41.2315L35.0991 43.8314L41.2365 41.9872L40.2086 30.8612L43.2924 30.6799L45.5599 27.1122H49.6112L49.7926 22.0632H36.8224L31.3199 22.6377L28.357 24.5423L27.3895 30.6799L30.8663 30.8612V35.4871Z" fill="#DFEAEB"/>
<path d="M31.7718 43.0151L27.2972 41.8057L26.0273 43.9826V57.9506L28.1437 59.946H44.1675L46.4653 57.9506V50.8759L45.135 46.0385L41.507 41.8057L35.3393 43.4384L31.7718 43.0151Z" fill="#2AC8CE"/>
<mask id="path-4-inside-1_297_362" fill="white">
<path fill-rule="evenodd" clip-rule="evenodd" d="M32.1537 21.1303C29.5926 21.5601 27.5872 23.3402 26.816 25.8682C26.6136 26.5317 26.6049 26.6358 26.5737 28.7917C26.5424 30.9434 26.5473 31.0392 26.7055 31.3492C26.9785 31.8843 27.278 31.9859 28.5834 31.9859H29.6802V33.5866V35.1874L29.3087 35.5983C27.406 37.7028 25.9245 40.6793 25.3516 43.5484C25.0137 45.2411 24.9798 46.0779 25.0076 52.064C25.0336 57.6311 25.0343 57.6515 25.2089 58.1125C25.7107 59.4372 26.668 60.3869 27.9466 60.8287L28.4693 61.0093H36.3209H44.1724L44.6951 60.8287C45.9848 60.3831 46.9841 59.3823 47.4315 58.0882C47.6084 57.5762 47.6099 57.5379 47.6085 53.5484C47.6072 49.65 47.6016 49.4995 47.4284 48.7047C47.1741 47.5375 46.8432 46.6129 46.3102 45.5797C45.7759 44.5436 45.1882 43.7251 44.2597 42.7236C43.0522 41.4211 42.3515 40.3101 41.912 39.0012C41.4882 37.7384 41.4625 37.5111 41.4218 34.6584L41.3836 31.9793L42.0337 32.0022L42.6839 32.025L44.5282 35.3453C46.2068 38.3672 46.4001 38.6813 46.6787 38.8401C47.0598 39.0572 47.4084 39.0633 47.8073 38.8599C48.1537 38.6831 48.4302 38.233 48.4302 37.8458C48.4302 37.5439 48.3904 37.4662 46.3734 33.8379L44.7048 30.8364L45.5322 29.4581L46.3595 28.0797H48.1011C49.6924 28.0797 49.8693 28.0661 50.151 27.9224C50.3495 27.8211 50.5155 27.6552 50.6167 27.4567C50.7649 27.1661 50.774 27 50.774 24.564C50.774 22.1281 50.7649 21.962 50.6167 21.6714C50.5155 21.4729 50.3495 21.3069 50.151 21.2057C49.8472 21.0507 49.7171 21.0486 41.1873 21.0576C36.4267 21.0626 32.3616 21.0954 32.1537 21.1303ZM59.1928 21.2095C58.863 21.3836 58.5865 21.8446 58.5865 22.2203C58.5865 22.6079 58.8628 23.058 59.2094 23.2349C59.4848 23.3754 59.6687 23.3922 60.9302 23.3922C62.1917 23.3922 62.3757 23.3754 62.651 23.2349C62.9976 23.058 63.274 22.6079 63.274 22.2203C63.274 21.8326 62.9976 21.3825 62.651 21.2057C62.3744 21.0646 62.1958 21.0488 60.9138 21.0518C59.646 21.0549 59.452 21.0727 59.1928 21.2095ZM48.4302 24.564V25.7359H46.9427C44.8971 25.7359 45.1215 25.5869 43.767 27.8446L42.6886 29.6422H35.7852H28.8819L28.918 28.2164C28.957 26.6804 29.0397 26.2932 29.4943 25.5175C30.0865 24.5071 31.2168 23.7046 32.3755 23.472C32.5474 23.4375 36.2301 23.4054 40.5591 23.4007L48.4302 23.3922V24.564ZM53.7241 23.5532C53.3942 23.7274 53.1177 24.1883 53.1177 24.564C53.1177 24.9517 53.3941 25.4018 53.7407 25.5786C54.016 25.7191 54.2 25.7359 55.4615 25.7359C56.723 25.7359 56.9069 25.7191 57.1823 25.5786C57.5289 25.4018 57.8052 24.9517 57.8052 24.564C57.8052 24.1764 57.5289 23.7263 57.1823 23.5494C56.9056 23.4083 56.727 23.3925 55.4451 23.3956C54.1773 23.3986 53.9833 23.4165 53.7241 23.5532ZM59.1928 25.897C58.863 26.0711 58.5865 26.5321 58.5865 26.9078C58.5865 27.2954 58.8628 27.7455 59.2094 27.9224C59.4848 28.0629 59.6687 28.0797 60.9302 28.0797C62.1917 28.0797 62.3757 28.0629 62.651 27.9224C62.9976 27.7455 63.274 27.2954 63.274 26.9078C63.274 26.5201 62.9976 26.07 62.651 25.8932C62.3744 25.7521 62.1958 25.7363 60.9138 25.7393C59.646 25.7424 59.452 25.7602 59.1928 25.897ZM39.0552 33.2359V34.4859H35.5396H32.024V33.2359V31.9859H35.5396H39.0552V33.2359ZM39.1542 37.4156C39.2422 38.2184 39.5548 39.4456 39.8827 40.2747C40.046 40.6877 40.136 41.0136 40.0909 41.0287C40.0472 41.0432 39.5062 41.2322 38.8888 41.4483C36.886 42.1497 36.1637 42.2984 34.7584 42.2984C33.3755 42.2984 32.5984 42.1454 30.9316 41.545C30.3954 41.3518 29.6791 41.1274 29.3401 41.0465C29.0011 40.9654 28.7082 40.8836 28.6892 40.8647C28.6226 40.7982 29.2851 39.5791 29.8249 38.7748C30.1248 38.328 30.586 37.7072 30.8499 37.3954L31.3297 36.8282L35.2119 36.8485L39.0943 36.8687L39.1542 37.4156ZM28.5619 43.2706C28.8547 43.3326 29.6498 43.5784 30.3288 43.8168C32.2369 44.4867 32.8448 44.5933 34.7584 44.5933C36.6849 44.5933 37.2612 44.4906 39.2736 43.7884C40.0041 43.5335 40.8067 43.287 41.057 43.2407L41.5123 43.1566L41.8267 43.5281C41.9997 43.7325 42.3958 44.1734 42.707 44.5079C44.0687 45.9718 44.9004 47.6777 45.1841 49.5885C45.2788 50.2264 45.3052 51.1275 45.3052 53.7203C45.3052 57.4866 45.2976 57.5446 44.7213 58.1207C44.1063 58.7357 44.5542 58.7047 36.3209 58.7047C28.0848 58.7047 28.5357 58.7361 27.9186 58.119C27.3016 57.502 27.3231 57.7723 27.3604 51.1123C27.3828 47.1102 27.4223 45.0782 27.4837 44.7593C27.7167 43.5507 27.8251 43.1578 27.9251 43.1578C27.9825 43.1578 28.269 43.2086 28.5619 43.2706Z"/>
</mask>
<path fill-rule="evenodd" clip-rule="evenodd" d="M32.1537 21.1303C29.5926 21.5601 27.5872 23.3402 26.816 25.8682C26.6136 26.5317 26.6049 26.6358 26.5737 28.7917C26.5424 30.9434 26.5473 31.0392 26.7055 31.3492C26.9785 31.8843 27.278 31.9859 28.5834 31.9859H29.6802V33.5866V35.1874L29.3087 35.5983C27.406 37.7028 25.9245 40.6793 25.3516 43.5484C25.0137 45.2411 24.9798 46.0779 25.0076 52.064C25.0336 57.6311 25.0343 57.6515 25.2089 58.1125C25.7107 59.4372 26.668 60.3869 27.9466 60.8287L28.4693 61.0093H36.3209H44.1724L44.6951 60.8287C45.9848 60.3831 46.9841 59.3823 47.4315 58.0882C47.6084 57.5762 47.6099 57.5379 47.6085 53.5484C47.6072 49.65 47.6016 49.4995 47.4284 48.7047C47.1741 47.5375 46.8432 46.6129 46.3102 45.5797C45.7759 44.5436 45.1882 43.7251 44.2597 42.7236C43.0522 41.4211 42.3515 40.3101 41.912 39.0012C41.4882 37.7384 41.4625 37.5111 41.4218 34.6584L41.3836 31.9793L42.0337 32.0022L42.6839 32.025L44.5282 35.3453C46.2068 38.3672 46.4001 38.6813 46.6787 38.8401C47.0598 39.0572 47.4084 39.0633 47.8073 38.8599C48.1537 38.6831 48.4302 38.233 48.4302 37.8458C48.4302 37.5439 48.3904 37.4662 46.3734 33.8379L44.7048 30.8364L45.5322 29.4581L46.3595 28.0797H48.1011C49.6924 28.0797 49.8693 28.0661 50.151 27.9224C50.3495 27.8211 50.5155 27.6552 50.6167 27.4567C50.7649 27.1661 50.774 27 50.774 24.564C50.774 22.1281 50.7649 21.962 50.6167 21.6714C50.5155 21.4729 50.3495 21.3069 50.151 21.2057C49.8472 21.0507 49.7171 21.0486 41.1873 21.0576C36.4267 21.0626 32.3616 21.0954 32.1537 21.1303ZM59.1928 21.2095C58.863 21.3836 58.5865 21.8446 58.5865 22.2203C58.5865 22.6079 58.8628 23.058 59.2094 23.2349C59.4848 23.3754 59.6687 23.3922 60.9302 23.3922C62.1917 23.3922 62.3757 23.3754 62.651 23.2349C62.9976 23.058 63.274 22.6079 63.274 22.2203C63.274 21.8326 62.9976 21.3825 62.651 21.2057C62.3744 21.0646 62.1958 21.0488 60.9138 21.0518C59.646 21.0549 59.452 21.0727 59.1928 21.2095ZM48.4302 24.564V25.7359H46.9427C44.8971 25.7359 45.1215 25.5869 43.767 27.8446L42.6886 29.6422H35.7852H28.8819L28.918 28.2164C28.957 26.6804 29.0397 26.2932 29.4943 25.5175C30.0865 24.5071 31.2168 23.7046 32.3755 23.472C32.5474 23.4375 36.2301 23.4054 40.5591 23.4007L48.4302 23.3922V24.564ZM53.7241 23.5532C53.3942 23.7274 53.1177 24.1883 53.1177 24.564C53.1177 24.9517 53.3941 25.4018 53.7407 25.5786C54.016 25.7191 54.2 25.7359 55.4615 25.7359C56.723 25.7359 56.9069 25.7191 57.1823 25.5786C57.5289 25.4018 57.8052 24.9517 57.8052 24.564C57.8052 24.1764 57.5289 23.7263 57.1823 23.5494C56.9056 23.4083 56.727 23.3925 55.4451 23.3956C54.1773 23.3986 53.9833 23.4165 53.7241 23.5532ZM59.1928 25.897C58.863 26.0711 58.5865 26.5321 58.5865 26.9078C58.5865 27.2954 58.8628 27.7455 59.2094 27.9224C59.4848 28.0629 59.6687 28.0797 60.9302 28.0797C62.1917 28.0797 62.3757 28.0629 62.651 27.9224C62.9976 27.7455 63.274 27.2954 63.274 26.9078C63.274 26.5201 62.9976 26.07 62.651 25.8932C62.3744 25.7521 62.1958 25.7363 60.9138 25.7393C59.646 25.7424 59.452 25.7602 59.1928 25.897ZM39.0552 33.2359V34.4859H35.5396H32.024V33.2359V31.9859H35.5396H39.0552V33.2359ZM39.1542 37.4156C39.2422 38.2184 39.5548 39.4456 39.8827 40.2747C40.046 40.6877 40.136 41.0136 40.0909 41.0287C40.0472 41.0432 39.5062 41.2322 38.8888 41.4483C36.886 42.1497 36.1637 42.2984 34.7584 42.2984C33.3755 42.2984 32.5984 42.1454 30.9316 41.545C30.3954 41.3518 29.6791 41.1274 29.3401 41.0465C29.0011 40.9654 28.7082 40.8836 28.6892 40.8647C28.6226 40.7982 29.2851 39.5791 29.8249 38.7748C30.1248 38.328 30.586 37.7072 30.8499 37.3954L31.3297 36.8282L35.2119 36.8485L39.0943 36.8687L39.1542 37.4156ZM28.5619 43.2706C28.8547 43.3326 29.6498 43.5784 30.3288 43.8168C32.2369 44.4867 32.8448 44.5933 34.7584 44.5933C36.6849 44.5933 37.2612 44.4906 39.2736 43.7884C40.0041 43.5335 40.8067 43.287 41.057 43.2407L41.5123 43.1566L41.8267 43.5281C41.9997 43.7325 42.3958 44.1734 42.707 44.5079C44.0687 45.9718 44.9004 47.6777 45.1841 49.5885C45.2788 50.2264 45.3052 51.1275 45.3052 53.7203C45.3052 57.4866 45.2976 57.5446 44.7213 58.1207C44.1063 58.7357 44.5542 58.7047 36.3209 58.7047C28.0848 58.7047 28.5357 58.7361 27.9186 58.119C27.3016 57.502 27.3231 57.7723 27.3604 51.1123C27.3828 47.1102 27.4223 45.0782 27.4837 44.7593C27.7167 43.5507 27.8251 43.1578 27.9251 43.1578C27.9825 43.1578 28.269 43.2086 28.5619 43.2706Z" fill="#334040" stroke="#E1ECF0" mask="url(#path-4-inside-1_297_362)"/>
</svg>
