<?xml version="1.0" encoding="UTF-8"?>
<svg xmlns="http://www.w3.org/2000/svg" xmlns:xlink="http://www.w3.org/1999/xlink" version="1.1" id="Layer_1" x="0px" y="0px" viewBox="0 0 81 82" style="enable-background:new 0 0 81 82;" xml:space="preserve">
<style type="text/css">
	.st0{fill:#F2FAFA;}
	.st1{fill:#DFEAEB;}
	.st2{fill:#2AC8CE;}
	.st3{fill:#334040;}
	.st4{fill:#E1ECF0;}
</style>
<g>
	<path class="st0" d="M6,0.5h69c3.3,0,6,2.7,6,6v69c0,3.3-2.7,6-6,6H6c-3.3,0-6-2.7-6-6v-69C0,3.2,2.7,0.5,6,0.5z"></path>
	<path class="st1" d="M55.5,29.8c-4.3-5.9-12.1-7.3-15.5-7.3l-3.9,1l-3.6,1.2l-5.9,4.5l-3.4,5.1l-1.3,7.9l1.6,7.5l5.9,7.5l6.7,2.7   l5.1,0.5l5.1-0.5l5.3-2.7l5-4.6l2.4-4.5l0.8-9.1C60.1,38.3,59.8,35.6,55.5,29.8z"></path>
	<path class="st2" d="M34.6,32.2l-4.4,5.9l-0.3,4.5l0.3,2.7l1.6,3.1l3.4,2.9c1.6,0.5,4.7,1.4,5.1,1.4h3.6l4.2-2.5l3.5-4.1l0.5-3.9   l-0.5-3.6l-1.4-3.9l-2.7-2.2l-3.2-1.8L41,30.3l-3.1,0.5L34.6,32.2z"></path>
	<g>
		<path class="st3" d="M39.6,29.2c-3.8,0.5-7,2.4-9,5.6c-2.7,4.1-2.7,9.4,0,13.6c2.7,4.1,7.6,6.3,12.5,5.4c2.9-0.5,5.5-2,7.4-4.2    c3.9-4.7,3.9-11.3,0-16c-1.8-2.2-4.3-3.7-7.2-4.2C42.3,29.2,40.5,29.1,39.6,29.2z M42.1,33.7v-1.1v-1.1l0.3,0.1    c3.4,0.5,6.4,2.8,7.7,6c0.3,0.7,0.6,1.8,0.7,2.5l0.1,0.3h-1.1h-1.1v1.2v1.2h1.1H51l-0.1,0.3c-0.7,4.3-4.2,7.8-8.4,8.4l-0.3,0.1    v-1.1v-1.1H41h-1.2v1.1v1.1l-0.3,0c-1.8-0.3-3.2-0.9-4.5-1.9c-2-1.5-3.4-3.6-3.8-6C31,43.2,31,42.8,31,42.8s0.5,0,1.1,0h1.1v-1.2    v-1.2H32c-0.6,0-1.1,0-1.1,0s0.1-0.4,0.2-0.8c0.7-3.3,3-6.1,6.2-7.3c0.7-0.3,2-0.6,2.4-0.6c0.1,0,0.1,0.3,0.1,1v1.1H41H42.1z"></path>
		<path class="st3" d="M39.8,38.1V41l-1.5,1.3c-0.8,0.7-1.5,1.3-1.6,1.3c-0.1,0.1,1.3,1.8,1.5,1.8c0,0,0.9-0.7,2-1.6l1.9-1.6l0-3.5    l0-3.5H41h-1.2V38.1z"></path>
		<path class="st3" d="M58.9,32.6c-0.8-1.6-2-3.3-3-4.4c-0.2-0.2-0.3-0.4-0.3-0.4s0.5-0.1,1.2-0.1s1.1-0.1,1.2-0.1    c0,0-0.2-2.2-0.2-2.3c0,0-6.5,0.5-6.6,0.6c0,0,0.5,6.5,0.5,6.6c0,0,2.2-0.2,2.3-0.2c0,0,0-0.6-0.1-1.2c-0.2-1.8-0.2-1.7,0.6-0.8    c1.7,2,2.9,4.4,3.6,6.9c1.6,6.2-0.3,12.9-4.9,17.3c-6.3,5.9-15.9,6.5-22.8,1.3c-4.9-3.7-7.5-9.6-6.9-15.7    c0.4-4.2,2.4-8.3,5.4-11.2c3-3,8-4.3,11-4.8c0.6-0.1,1.1-0.6,1.1-1.3c0-0.6-0.5-1.1-1.2-1.1c-1.5,0.1-3.7,0.4-4.9,0.9    c-3.1,1-5.6,2.5-8,4.8c-3.2,3.2-5.2,7.1-5.8,11.7c-0.1,1-0.1,4,0,5c0.8,5.9,4,11,9,14.3c6.6,4.3,15.3,4.3,21.9,0    c1.7-1.1,3.4-2.7,4.7-4.3C61.4,48,62.3,39.6,58.9,32.6z"></path>
	</g>
	<g>
		<g>
			<path class="st4" d="M41,54.1c-4.2,0-8.2-2.1-10.5-5.7c-2.8-4.2-2.8-9.6,0-13.8c2.1-3.2,5.3-5.2,9.2-5.6l0,0     c0.9-0.1,2.7,0,3.7,0.2c2.9,0.6,5.5,2.1,7.3,4.3c4,4.8,4,11.4,0,16.2c-1.9,2.3-4.6,3.8-7.5,4.3C42.4,54.1,41.7,54.1,41,54.1z      M39.7,29.4c-3.7,0.5-6.9,2.4-8.9,5.5c-2.7,4.1-2.7,9.3,0,13.3c2.7,4.1,7.5,6.2,12.3,5.4c2.9-0.5,5.4-2,7.3-4.2     c3.8-4.6,3.8-11.1,0-15.7c-1.8-2.1-4.3-3.6-7.1-4.1C42.2,29.4,40.5,29.3,39.7,29.4L39.7,29.4z M40,51.8l-0.5-0.1     c-1.8-0.3-3.2-0.9-4.6-1.9c-2-1.5-3.4-3.7-3.9-6.1c-0.1-0.4-0.2-0.8-0.2-0.9c0-0.2,0.1-0.2,1.3-0.2h0.9v-1.9H32     c-1.2,0-1.3,0-1.3-0.2c0-0.1,0.1-0.5,0.2-0.9c0.7-3.3,3.1-6.2,6.3-7.5c0.7-0.3,2-0.6,2.4-0.6l0.1,0l0.1,0.1     c0.1,0.1,0.1,0.3,0.1,1.2v0.9h1.9v-2.1l0.6,0.1c3.5,0.5,6.5,2.9,7.9,6.1c0.3,0.7,0.6,1.8,0.7,2.5l0.1,0.6H49v1.9h2.1l-0.1,0.6     c-0.7,4.4-4.2,7.9-8.6,8.6l-0.6,0.1v-2.1H40V51.8z M31.2,42.9c0,0.1,0.1,0.4,0.1,0.6c0.5,2.3,1.8,4.4,3.8,5.9     c1.3,1,2.7,1.6,4.4,1.9l0.1,0v-2.1h2.7v2.1l0.1,0c4.2-0.6,7.6-4,8.3-8.3l0-0.1h-2.1v-2.7h2.1l0-0.1c-0.1-0.7-0.4-1.7-0.7-2.4     c-1.3-3.1-4.2-5.4-7.6-5.9l-0.1,0v2.1h-2.7v-1.3c0-0.2,0-0.6,0-0.8c-0.5,0.1-1.6,0.4-2.2,0.6c-3.1,1.2-5.4,4-6.1,7.2     c-0.1,0.3-0.1,0.5-0.1,0.6c0.2,0,0.4,0,0.8,0h1.3v2.7H32C31.6,42.9,31.4,42.9,31.2,42.9z M39.7,31.8     C39.7,31.8,39.7,31.8,39.7,31.8C39.7,31.8,39.7,31.8,39.7,31.8z"></path>
		</g>
		<g>
			<path class="st4" d="M38.2,45.6c-0.3,0-1.6-1.9-1.7-1.9l-0.1-0.1l0.1-0.1c0,0,0.7-0.6,1.6-1.3l1.4-1.2v-6h2.7l0,7.3l-2,1.7     C38.3,45.6,38.3,45.6,38.2,45.6C38.2,45.6,38.2,45.6,38.2,45.6z M36.9,43.6c0.2,0.3,1,1.2,1.2,1.5c0.2-0.2,0.9-0.7,1.9-1.5     l1.8-1.6l0-6.7H40v5.7l-1.6,1.3C37.8,43,37.2,43.4,36.9,43.6z"></path>
		</g>
		<g>
			<path class="st4" d="M40.9,61.7c-3.9,0-7.7-1.1-11-3.2c-5-3.3-8.2-8.4-9-14.4c-0.1-1-0.1-4.1,0-5.1c0.6-4.6,2.6-8.6,5.9-11.8     c2.4-2.3,4.9-3.9,8-4.9c1.5-0.6,4-0.8,5-0.9c0.4,0,0.7,0.1,1,0.3c0.3,0.2,0.4,0.6,0.4,1c0,0.7-0.6,1.4-1.3,1.5     c-1.7,0.2-7.4,1.3-10.9,4.7c-3,2.9-5,6.9-5.4,11c-0.5,6,2.1,11.9,6.8,15.5c6.8,5.2,16.3,4.6,22.5-1.2c4.6-4.4,6.5-10.9,4.9-17.1     c-0.6-2.4-1.9-4.9-3.5-6.8l-0.1-0.1c-0.1-0.1-0.2-0.2-0.2-0.3c0,0.2,0,0.5,0.1,0.8l0,0.2c0.1,1.3,0.1,1.3,0,1.4     c0,0.1-0.1,0.1-1.9,0.2c-0.6,0-0.6,0-0.7,0c-0.2-0.2-0.6-6.6-0.6-6.6c0-0.1,0-0.2,0.1-0.2c0.2-0.2,6.6-0.6,6.7-0.6l0,0l0.1,0     l0.1,0.1c0.1,0.1,0.2,2.4,0.2,2.4l0,0.1L58,27.7c-0.1,0.1-0.1,0.1-1.3,0.2c-0.3,0-0.6,0.1-0.8,0.1c0,0,0.1,0.1,0.1,0.1     c1,1.1,2.2,2.9,3,4.4l0,0c3.5,7,2.6,15.5-2.3,21.6c-1.2,1.6-3.1,3.2-4.7,4.3C48.7,60.6,44.8,61.7,40.9,61.7z M39.9,21.8     C39.9,21.8,39.8,21.8,39.9,21.8c-1.1,0.1-3.5,0.3-5,0.9c-3.1,1-5.6,2.5-7.9,4.8c-3.2,3.1-5.1,7-5.7,11.6c-0.1,0.9-0.1,4,0,4.9     c0.8,5.9,4,10.9,8.9,14.1c6.5,4.2,15.2,4.2,21.6,0c1.6-1.1,3.4-2.7,4.6-4.2c4.8-6,5.7-14.3,2.2-21.2c-0.8-1.6-1.9-3.3-2.9-4.3     c-0.4-0.4-0.5-0.5-0.3-0.7c0.1-0.1,0.1-0.1,1.3-0.2c0.4,0,0.8-0.1,1-0.1c0-0.4-0.1-1.5-0.2-1.9c-0.9,0-5.3,0.4-6.2,0.5     c0,0.9,0.4,5.3,0.5,6.2c0.4,0,1.5-0.1,1.9-0.2c0-0.2,0-0.6-0.1-1.1l0-0.2c-0.1-1.1-0.1-1.3,0.1-1.4c0.2-0.1,0.4,0.1,0.8,0.6     l0.1,0.1c1.7,2,3,4.5,3.6,7c1.6,6.3-0.3,13-5,17.5c-6.4,6-16.1,6.6-23,1.3c-4.9-3.7-7.6-9.8-7-15.9c0.4-4.3,2.4-8.4,5.5-11.3     c3.5-3.5,9.4-4.6,11.1-4.8c0.6-0.1,1-0.5,1-1.1c0-0.3-0.1-0.5-0.3-0.7C40.3,21.9,40.1,21.8,39.9,21.8z"></path>
		</g>
	</g>
</g>
</svg>
