<svg width="42" height="66" viewBox="0 0 42 66" fill="none" xmlns="http://www.w3.org/2000/svg">
<path fill-rule="evenodd" clip-rule="evenodd" d="M18.4995 0.0711508C14.3187 0.558503 10.922 2.17321 8.90821 4.63061C7.97419 5.77035 7.10776 7.51899 6.75408 8.97834C6.50324 10.013 6.44406 10.1196 5.68198 10.9138C2.70418 14.0164 0.705321 18.3863 0.134909 23.0411C0.0462032 23.7649 0.000895897 31.0194 0.000895897 44.499C0.000895897 66.9703 -0.0594285 65.3829 0.809934 65.8011C1.35197 66.0618 1.57074 66.0648 2.08273 65.8185C2.92486 65.4134 2.85728 67.1296 2.93619 44.1412C3.00199 25.0108 3.02668 23.145 3.22827 22.1412C3.67663 19.9076 4.70164 17.3351 5.90177 15.4316L6.34924 14.7219L6.39837 23.5606C6.4452 31.9828 6.45997 32.451 6.71234 33.496C7.39462 36.322 8.62847 38.639 10.482 40.5748C13.3543 43.5751 16.9267 45.1186 21 45.1193C25.1091 45.1201 28.683 43.5631 31.5727 40.5134C33.4312 38.5521 34.5999 36.3445 35.2877 33.496C35.54 32.451 35.5548 31.983 35.6014 23.5698L35.6504 14.7402L36.0322 15.3117C36.6905 16.2973 37.6711 18.3752 38.1201 19.7362C39.047 22.5463 38.984 20.9182 39.0638 44.1412C39.1427 67.1296 39.0751 65.4134 39.9173 65.8185C40.4293 66.0648 40.648 66.0618 41.1901 65.8011C42.0594 65.3829 41.9991 66.9703 41.9991 44.499C41.9991 31.0194 41.9538 23.7649 41.8651 23.0411C41.2947 18.3863 39.2958 14.0164 36.318 10.9138C35.5559 10.1196 35.4968 10.013 35.2459 8.97834C34.6914 6.69073 33.2323 4.39578 31.4691 3.03785C29.7934 1.74727 27.3681 0.737212 24.7929 0.257343C23.5625 0.0281832 19.8183 -0.082655 18.4995 0.0711508ZM23.7561 3.18352C25.377 3.37939 26.6768 3.76649 28.1174 4.48236C29.8133 5.32506 31.0069 6.47409 31.7176 7.94776C32.6012 9.78027 32.5813 9.47279 32.5813 21.294V31.9146L32.2747 33.14C32.1061 33.814 31.7629 34.8159 31.512 35.3663C30.9982 36.4937 31.1191 36.4811 29.9991 35.5247C28.5837 34.3159 26.4092 33.2514 24.208 32.6896C22.6089 32.2816 19.3911 32.2816 17.792 32.6896C15.5908 33.2514 13.4163 34.3159 12.0009 35.5247C10.8808 36.4811 11.0018 36.4937 10.488 35.3663C10.2371 34.8159 9.89389 33.814 9.72526 33.14L9.41868 31.9146V21.294C9.41868 9.47279 9.39882 9.78027 10.2824 7.94776C12.0787 4.22275 17.2435 2.39656 23.7561 3.18352ZM22.3892 35.4378C24.5733 35.7155 26.669 36.6392 28.3717 38.075L29.1349 38.7186L28.79 39.0863C28.2544 39.6576 26.4743 40.8116 25.504 41.2165C23.9153 41.8796 22.8837 42.0766 21 42.0766C19.1163 42.0766 18.0847 41.8796 16.496 41.2165C15.5257 40.8116 13.7456 39.6576 13.21 39.0863L12.8651 38.7186L13.6283 38.075C15.6274 36.3894 18.2011 35.402 20.8124 35.3187C21.0943 35.3098 21.8038 35.3634 22.3892 35.4378Z" fill="black"/>
</svg>
