<svg width="220" height="32" viewBox="0 0 220 32" fill="none" xmlns="http://www.w3.org/2000/svg">
<path d="M138.018 7.11892C137.665 13.463 137.319 19.6488 136.973 25.8854H133.575C133.575 25.6409 133.564 25.3922 133.575 25.1463C133.803 21.0479 134.041 16.9495 134.265 12.8595C134.376 10.8245 134.455 8.78797 134.565 6.75289C134.669 4.85915 134.804 2.9654 134.902 1.07165C134.927 0.585493 135.133 0.418727 135.601 0.42438C136.573 0.437099 137.547 0.377743 138.516 0.432859C138.796 0.448405 139.203 0.701377 139.288 0.941629C140.726 4.96797 142.122 9.01267 143.532 13.0503C144.065 14.5766 144.61 16.0987 145.311 17.6603C145.465 17.2533 145.631 16.8505 145.774 16.4393C147.29 12.0573 148.805 7.67386 150.317 3.28903C150.576 2.54283 150.84 1.79806 151.067 1.04056C151.206 0.56288 151.468 0.376328 151.971 0.396113C152.923 0.431445 153.88 0.432858 154.833 0.396113C155.329 0.374915 155.475 0.565706 155.497 1.03066C155.59 2.83397 155.695 4.63632 155.81 6.43774C155.985 9.14976 156.185 11.859 156.353 14.5724C156.512 17.1162 156.644 19.6728 156.786 22.2237C156.842 23.2285 156.899 24.2347 156.951 25.241C156.962 25.4431 156.951 25.6466 156.951 25.9207C155.929 25.9207 154.978 25.9419 154.032 25.8996C153.926 25.8711 153.83 25.816 153.751 25.7393C153.673 25.6627 153.615 25.567 153.583 25.4614C153.457 24.0397 153.383 22.6138 153.29 21.1892C153.11 18.4569 152.928 15.7246 152.744 12.9924C152.642 11.4274 152.545 9.86204 152.454 8.29616C152.434 7.95274 152.454 7.60649 152.454 7.26025L152.242 7.20796C152.041 7.76337 151.823 8.31595 151.64 8.87418C150.335 12.7305 149.03 16.5867 147.725 20.443C147.651 20.6635 147.553 20.8755 147.472 21.0931C146.875 22.6759 146.877 22.6759 145.246 22.6759C143.476 22.6759 143.53 22.6576 142.952 20.9546C141.414 16.4322 139.837 11.9381 138.271 7.43408C138.197 7.32105 138.113 7.21551 138.018 7.11892Z" fill="black"/>
<path d="M34.2911 17.437C34.6225 16.5057 34.9608 15.5772 35.2866 14.6431C36.4404 11.3229 37.5925 8.00315 38.7426 4.68391C39.1928 3.38655 39.657 2.09484 40.0987 0.796068C40.2288 0.414492 40.4217 0.240661 40.8537 0.256207C41.8533 0.290125 42.8558 0.274579 43.8568 0.256207C44.2636 0.249141 44.416 0.386226 44.4426 0.821505C44.5684 3.3922 44.7222 5.96148 44.8704 8.53076C45.1053 12.4332 45.3471 16.3347 45.596 20.2353C45.7008 21.8704 45.8392 23.5013 45.9679 25.135C46 25.5406 45.9469 25.8119 45.4268 25.7879C44.6369 25.7512 43.8442 25.7625 43.0501 25.7808C42.6307 25.7907 42.4909 25.6395 42.4643 25.2155C42.2881 21.7983 42.098 18.382 41.8939 14.9667C41.7541 12.5797 41.6003 10.1942 41.4451 7.80859C41.4314 7.53575 41.338 7.27313 41.1767 7.05392C40.946 7.74217 40.7125 8.4276 40.4846 9.11726C39.6611 11.6074 38.8601 14.1074 38.0114 16.5891C37.3865 18.4136 36.7112 20.2225 36.0261 22.0258C35.9684 22.1282 35.8877 22.2156 35.7906 22.2808C35.6935 22.3461 35.5827 22.3875 35.4669 22.4018C34.6075 22.4461 33.7462 22.4395 32.8875 22.382C32.6708 22.365 32.3716 22.0795 32.2905 21.852C31.5201 19.6813 30.7917 17.4964 30.0438 15.3172C29.1117 12.5896 28.1722 9.86298 27.2253 7.1373C27.2057 7.07936 27.147 7.03555 27.0337 6.89564C26.9652 7.54714 26.8841 8.10538 26.8534 8.66785C26.7429 10.6563 26.6604 12.6475 26.5472 14.636C26.3794 17.6038 26.1907 20.5716 26.0173 23.5394C25.988 24.0312 25.9698 24.5287 25.9866 25.0177C26.0019 25.4544 25.8761 25.6706 25.398 25.6536C24.6067 25.6226 23.8139 25.6211 23.0212 25.6452C22.5669 25.6579 22.462 25.4431 22.483 25.0445C22.6633 22.3594 22.8465 19.6742 23.0114 16.9791C23.1289 15.0614 23.2128 13.1408 23.3218 11.223C23.491 8.25518 23.6699 5.28736 23.8391 2.31955C23.8685 1.80513 23.8727 1.28788 23.8797 0.764976C23.8797 0.38764 23.9957 0.133255 24.4389 0.150214C25.4791 0.191198 26.5178 0.242075 27.5566 0.235009C28.0222 0.235009 28.1885 0.435691 28.3283 0.841293C29.9585 5.53892 31.5984 10.2337 33.2482 14.9257C33.539 15.7567 33.8302 16.5872 34.122 17.4173L34.2911 17.437Z" fill="black"/>
<path d="M90.4032 23.3728V26.27C90.4032 27.7708 90.3934 29.2731 90.4158 30.7726C90.4228 31.246 90.2998 31.4354 89.7895 31.434C88.1901 31.434 88.1565 31.4594 87.7846 29.8794C87.5302 28.7926 87.3568 27.6832 87.2072 26.5752C87.1499 26.1513 86.9919 26.017 86.5949 26.0099C82.7539 25.9892 78.9129 25.9605 75.0719 25.9237C74.6022 25.9237 74.5323 26.1456 74.4624 26.5611C74.2247 27.9814 73.9185 29.3876 73.6417 30.8008C73.555 31.2418 73.3075 31.4057 72.8546 31.3916C71.388 31.3478 71.3978 31.3605 71.3796 29.8808C71.3544 27.9348 71.3293 25.9887 71.2705 24.0441C71.2524 23.4293 71.4761 23.2174 72.0786 23.2273C73.295 23.2456 73.2712 23.2103 73.7437 22.1094C74.605 20.1054 74.9027 17.9869 75.016 15.836C75.2229 11.8789 75.3935 7.9218 75.5752 3.96471C75.6228 2.95848 75.6913 1.95225 75.715 0.944604C75.7234 0.490952 75.9261 0.399091 76.3204 0.401918C78.2679 0.42029 80.214 0.401918 82.1616 0.42877C83.8267 0.447142 85.4918 0.517807 87.1569 0.51498C87.7413 0.51498 87.9077 0.700116 87.9049 1.28379C87.8853 5.60549 87.8965 9.9272 87.9049 14.2489C87.9049 17.0415 87.9202 19.8355 87.9049 22.6294C87.9049 23.2456 88.1719 23.4053 88.713 23.3771C89.2079 23.3516 89.714 23.3728 90.4032 23.3728ZM76.8796 23.2428C79.2116 23.2428 81.6065 23.2329 84.0014 23.2513C84.4712 23.2513 84.5173 23.0308 84.5159 22.6436C84.5061 20.3654 84.5313 18.0873 84.5159 15.8105C84.4978 13.4645 84.4167 11.12 84.4111 8.77399C84.4111 7.09081 84.4726 5.40764 84.5187 3.72446C84.5299 3.30049 84.4111 3.07295 83.9315 3.08002C82.465 3.09981 80.9956 3.09274 79.5318 3.08002C79.1501 3.08002 78.9893 3.22841 78.9725 3.61847C78.9418 4.5074 78.8705 5.39633 78.8327 6.28526C78.7251 9.05098 78.6482 11.8181 78.5154 14.5824C78.4497 15.9363 78.3937 17.3058 78.1351 18.63C77.8401 20.1704 77.3214 21.6642 76.8796 23.2428Z" fill="black"/>
<path d="M67.3621 13.4305C67.418 15.6917 67.3132 18.0447 66.6323 20.296C66.2597 21.5167 65.7185 22.6781 65.0245 23.7458C63.99 25.33 62.3444 25.99 60.5129 26.1483C58.4592 26.332 56.4767 26.1257 54.7654 24.8099C53.3114 23.6935 52.6124 22.1036 52.1468 20.3893C51.1682 16.8124 51.308 13.1492 51.4576 9.50731C51.5457 7.43832 51.9595 5.39194 52.9955 3.53776C53.9546 1.81078 55.2702 0.595386 57.2904 0.206743C58.9904 -0.119717 60.6458 -0.0829725 62.2647 0.489392C64.6415 1.32038 65.8312 3.21837 66.4981 5.50076C67.2377 8.05591 67.4166 10.693 67.3621 13.4305ZM54.7207 12.8214C54.7864 14.0142 54.8353 15.2083 54.9206 16.3997C55.0507 18.196 55.3918 19.9498 56.1076 21.6089C56.7913 23.1819 58.0495 23.9337 59.6937 23.8617C61.1477 23.7966 62.0704 22.8823 62.6702 21.5764C63.6908 19.3364 63.9145 16.9367 63.9215 14.5356C63.9248 12.2906 63.7936 10.0475 63.5286 7.81849C63.3608 6.39817 62.9763 4.97786 62.1459 3.74693C60.8233 1.78958 57.9027 1.73305 56.6025 3.70029C56.1189 4.4372 55.7484 5.24389 55.5036 6.09292C54.8759 8.28345 54.7361 10.5446 54.7207 12.8214Z" fill="black"/>
<path d="M17.3879 25.6351C16.3253 25.6351 15.3509 25.6676 14.382 25.6069C14.1933 25.5956 13.9304 25.2422 13.8675 25.002C13.4118 23.275 12.983 21.54 12.5813 19.797C12.4569 19.2614 12.2388 19.007 11.6488 19.0155C9.62436 19.0409 7.59435 19.0268 5.57553 19.0084C5.1645 19.0084 4.97715 19.1003 4.87649 19.5553C4.45707 21.4138 3.96914 23.2609 3.47842 25.1038C3.43985 25.2013 3.3783 25.2878 3.29911 25.3558C3.21991 25.4237 3.12549 25.4711 3.02404 25.4938C2.05238 25.5306 1.07792 25.5122 0 25.5122C0.0447385 25.2027 0.0615154 24.9624 0.117439 24.7321C1.44188 19.3796 2.76819 14.0277 4.09637 8.67618C4.75626 6.01363 5.42035 3.35107 6.06346 0.684275C6.16272 0.274433 6.3277 0.104844 6.7625 0.118976C8.02077 0.148654 9.27904 0.155721 10.5373 0.118976C11.0252 0.104844 11.1986 0.328139 11.2993 0.735154C12.3758 5.10962 13.4542 9.48409 14.5344 13.8586C15.4376 17.516 16.3412 21.174 17.2453 24.8324C17.3012 25.0642 17.3306 25.3101 17.3879 25.6351ZM8.74497 3.97149L8.56882 3.9842C7.59016 8.0699 6.6185 12.1542 5.63285 16.3119H11.7411C10.7233 12.1372 9.73481 8.05435 8.74497 3.97149Z" fill="black"/>
<path d="M114.223 15.604C114.223 12.4355 114.223 9.26657 114.223 6.09713C114.223 4.5256 114.246 2.95407 114.232 1.38254C114.232 0.97129 114.414 0.797459 114.767 0.714077C117.178 0.148779 119.612 -0.0787494 122.076 0.263256C122.894 0.377729 123.731 0.495025 124.504 0.767781C126.296 1.40092 127.44 2.73078 127.91 4.55811C128.714 7.629 128.733 10.8562 127.964 13.9364C127.167 17.0922 125.27 18.4489 122.039 18.4588C120.766 18.4588 119.489 18.3613 118.22 18.2496C117.8 18.2129 117.684 18.3005 117.687 18.7146C117.704 20.8726 117.687 23.0335 117.718 25.1915C117.728 25.7893 117.619 26.0394 116.957 25.966C116.307 25.8876 115.649 25.8933 115 25.9829C114.406 26.0691 114.279 25.8783 114.283 25.3272C114.3 22.0852 114.291 18.8446 114.291 15.6026L114.223 15.604ZM117.659 9.18649H117.7C117.7 11.1834 117.716 13.1789 117.69 15.1744C117.681 15.7397 117.904 15.9305 118.431 15.9022C119.419 15.8471 120.411 15.8499 121.396 15.7609C122.91 15.6295 124.053 14.913 124.472 13.3768C124.726 12.3855 124.893 11.3735 124.971 10.3524C125.142 8.62765 124.984 6.88584 124.507 5.22092C124.134 3.97444 123.423 3.00778 122.083 2.8184C120.824 2.64175 119.548 2.63892 118.28 2.54423C117.785 2.50749 117.644 2.71665 117.649 3.20281C117.673 5.19407 117.659 7.19098 117.659 9.18649Z" fill="black"/>
<path d="M169.435 0.653142C170.306 0.653142 171.234 0.617814 172.153 0.687063C172.309 0.698369 172.548 1.15485 172.554 1.41064C172.589 3.26341 172.573 5.11759 172.575 6.97177C172.575 8.35675 172.592 9.74173 172.575 11.1267C172.566 11.7146 172.743 11.9549 173.381 11.9407C175.494 11.8969 177.609 11.904 179.725 11.9195C180.275 11.9195 180.383 11.651 180.38 11.1762C180.37 8.00768 180.38 4.83918 180.372 1.67068V0.7125C181.32 0.663037 182.216 0.595201 183.112 0.571176C183.585 0.562696 183.476 0.968299 183.477 1.25236C183.477 4.32758 183.477 7.40281 183.488 10.478C183.498 15.4272 183.51 20.3736 183.523 25.3171C183.523 25.4584 183.502 25.5842 183.487 25.7905C182.578 25.7905 181.7 25.7905 180.822 25.7905C180.359 25.7905 180.403 25.4683 180.403 25.156C180.403 21.8264 180.4 18.4973 180.396 15.1686C180.396 14.2274 180.373 14.2132 179.476 14.2189C177.478 14.2293 175.481 14.2335 173.484 14.2316C172.61 14.2316 172.582 14.2585 172.585 15.1347C172.591 18.5378 172.597 21.9413 172.601 25.3454C172.601 25.4613 172.586 25.5771 172.571 25.7693C171.673 25.8117 170.778 25.8838 169.885 25.8669C169.745 25.8669 169.51 25.4429 169.507 25.221C169.478 22.7097 169.489 20.1969 169.482 17.6856C169.472 14.5072 169.451 11.326 169.443 8.14758C169.429 5.69702 169.435 3.22808 169.435 0.653142Z" fill="#22A1A6"/>
<path d="M220.001 14.2063C219.861 15.4358 219.762 17.6193 219.358 19.7448C218.962 21.8322 218.119 23.7768 216.215 24.9978C214.988 25.7723 213.551 26.139 212.107 26.0465C210.651 25.9772 209.216 25.7836 207.975 24.8325C206.612 23.7853 205.844 22.3904 205.39 20.7835C204.573 17.8991 204.319 14.9398 204.486 11.9606C204.596 10.0075 204.766 8.03605 205.177 6.12958C205.56 4.32628 206.318 2.63039 207.878 1.43761C209.232 0.401702 210.793 0.10633 212.397 0.175579C213.48 0.228797 214.548 0.463776 215.555 0.870898C217.142 1.50969 218.091 2.84944 218.695 4.42945C219.784 7.27431 219.881 10.2662 220.001 14.2063ZM207.529 13.0474L207.642 13.0559C207.642 13.1732 207.642 13.2919 207.642 13.4092C207.576 16.2357 207.835 19.0283 208.928 21.6654C209.476 22.9882 210.434 23.904 211.958 24.0199C213.343 24.1244 214.381 23.5478 215.137 22.3989C216.241 20.7213 216.553 18.7852 216.685 16.8618C216.834 14.6712 216.776 12.4609 216.707 10.2619C216.662 8.15124 216.186 6.07273 215.309 4.15669C214.315 2.01987 211.463 1.48707 209.827 3.16742C208.608 4.4238 208.201 6.08719 207.962 7.7421C207.708 9.49876 207.664 11.2795 207.529 13.0474Z" fill="#22A1A6"/>
<path d="M95.7182 0.492188C97.2197 0.492188 98.5647 0.492188 99.9124 0.492188C102.461 0.492188 105.01 0.528931 107.559 0.504906C108.241 0.504906 108.614 0.602418 108.488 1.41645C108.407 1.9337 108.473 2.47356 108.473 3.09962H105.171C103.401 3.09962 101.632 3.118 99.8579 3.09962C99.3728 3.09962 99.198 3.24095 99.2036 3.737C99.225 6.03776 99.2278 8.339 99.212 10.6407C99.212 11.206 99.377 11.4208 99.9712 11.4138C102.228 11.3841 104.487 11.4137 106.745 11.394C107.254 11.394 107.444 11.5353 107.459 12.0624C107.519 14.0707 107.532 14.0721 105.526 14.0565C103.645 14.0424 101.765 14.0325 99.8859 13.9972C99.377 13.9873 99.1868 14.1484 99.2036 14.6826C99.2637 16.5594 99.2945 18.4376 99.3113 20.3158C99.3183 21.0394 99.2511 21.7644 99.2372 22.4894C99.2246 23.0985 99.4399 23.4009 100.146 23.3868C102.774 23.3387 105.404 23.367 108.032 23.35C108.431 23.35 108.578 23.5055 108.571 23.8871C108.561 24.4524 108.607 25.0177 108.544 25.5759C108.526 25.737 108.223 25.9914 108.049 25.9999C104.821 26.031 101.592 26.0295 98.3634 26.038C97.7608 26.038 97.1568 26.038 96.5557 26.0733C96.0202 26.1016 95.8301 25.9009 95.8329 25.3399C95.8524 21.8642 95.8524 18.3891 95.8329 14.9144C95.8147 12.0285 95.7448 9.14408 95.7168 6.25964C95.7028 4.38427 95.7182 2.51878 95.7182 0.492188Z" fill="black"/>
<path d="M188.859 25.7765V0.651855H200.902V2.95968H199.338C197.101 2.95968 194.864 2.98371 192.627 2.95968C192.092 2.95968 191.868 3.10101 191.874 3.66631C191.899 6.05893 191.9 8.45156 191.903 10.8456C191.903 11.3657 192.138 11.5098 192.64 11.4971C194.726 11.4448 196.812 11.4279 198.898 11.4081C199.84 11.3996 199.936 11.4801 199.948 12.4383C199.968 14.1342 200.079 13.7922 198.658 13.8078C196.656 13.8304 194.653 13.8304 192.647 13.8078C192.061 13.8078 191.909 13.9872 191.924 14.5921C191.976 16.6526 191.946 18.7145 191.953 20.7779C191.953 21.5043 191.983 22.2307 191.984 22.9571C191.984 23.4136 192.289 23.4122 192.605 23.4108C195.179 23.398 197.753 23.4009 200.325 23.3599C200.894 23.3514 201.093 23.4941 201.081 24.0976C201.055 25.7624 201.081 25.7709 199.451 25.7737C195.978 25.7808 192.493 25.7765 188.859 25.7765Z" fill="#22A1A6"/>
</svg>
