<svg width="95" height="18" viewBox="0 0 95 18" fill="none" xmlns="http://www.w3.org/2000/svg">
<path fill-rule="evenodd" clip-rule="evenodd" d="M7.02973 0C7.47479 0 7.80255 0.117416 8.19863 0.259323L8.2024 0.260696C8.30586 0.297661 8.41366 0.336342 8.5297 0.375023C11.1547 1.12501 12.6547 5.81251 7.77977 8.24998C7.77977 8.24998 7.5922 8.43749 7.40475 8.43749C7.40475 8.43749 7.21718 8.62501 7.02973 8.62501C6.74671 8.74151 6.4756 8.85063 6.21582 8.9542C6.04359 9.02286 5.87628 9.08906 5.71377 9.15338C3.36029 10.0849 2.01642 10.617 1.21728 12.375C0.279776 15.1875 2.34223 18 7.02973 18C6.58467 18 6.25691 17.8826 5.86083 17.7407L5.85705 17.7393C5.7536 17.7023 5.64579 17.6637 5.52975 17.625C2.90471 16.875 1.40473 12.375 6.27968 9.75002C6.27968 9.75002 6.46725 9.56251 6.6547 9.56251C6.84227 9.56251 7.02973 9.37499 7.02973 9.37499C7.50031 9.18119 7.93827 9.00781 8.34591 8.84645C10.6992 7.91496 12.0432 7.38298 12.8422 5.625C13.9672 3.00001 11.7172 0 7.02973 0ZM26.7172 13.875H26.1547V14.2499H29.9047V13.875C28.9672 13.875 28.7798 13.6875 28.2172 12.3749C27.6547 10.6875 26.9048 8.62495 26.1547 6.5625L25.0298 3.37497L24.6548 3.56249L21.2798 12.1875C20.9048 13.5 20.7172 13.6875 19.9673 13.875H19.5922V14.4375H23.1548V14.0625H22.5922C21.8423 13.875 21.6547 13.6875 22.0297 12.75C22.2173 12 22.5922 10.6875 22.7798 10.3125H26.1547C26.5114 11.0258 26.7927 11.8145 26.9986 12.3919C27.0292 12.4776 27.058 12.5586 27.0853 12.634C27.1125 12.7095 27.1381 12.7794 27.162 12.8427C27.2071 12.9622 27.2464 13.0584 27.2797 13.125C27.4673 13.6875 27.2797 13.875 26.7172 13.875ZM25.7797 9.74996H22.9672L24.4672 5.625L25.7797 9.74996ZM36.0389 12.7235L36.0399 12.725C36.1888 12.9205 36.3281 13.1036 36.4673 13.3125C36.5456 13.3908 36.6158 13.4691 36.6828 13.544C36.937 13.8278 37.1472 14.0625 37.5923 14.0625V14.4375H37.4048C35.5298 14.4375 34.9674 13.875 34.5924 12.75C34.0299 12.1875 33.2798 10.875 32.9048 10.125C32.5298 9.75002 32.3423 9.56251 31.7799 9.56251H29.5298V8.99997H31.7799C32.5298 8.99997 33.0924 8.99997 33.4673 8.62501C34.2173 8.24998 34.4048 7.31248 34.4048 6.5625C34.4048 4.87501 33.2798 4.31247 31.9673 4.31247H31.0298H29.5298V3.75H32.1549C33.0924 3.75 34.0299 3.93751 34.5924 4.31247C35.3423 4.6875 35.7173 5.43749 35.7173 6.37498C35.7173 7.68751 34.9674 8.62501 33.6549 9.18748C33.8576 9.39027 34.1154 9.81244 34.398 10.2762L34.3991 10.2775C34.6389 10.6708 34.8969 11.0936 35.1548 11.4375C35.5079 12.026 35.7871 12.3928 36.0389 12.7235ZM36.9362 4.96513L36.9359 4.96874L36.9355 4.97234C36.8888 5.39302 36.8421 5.81354 36.8421 6.18747H37.2172C37.4045 5.43806 37.592 5.06309 37.7793 4.68836L37.7796 4.6875C37.9671 4.31247 38.5297 4.12502 39.8421 4.12502H40.5921V11.8125C40.5921 13.5 40.4047 13.6875 38.9046 13.875V14.25H43.5921V13.875C42.7774 13.7845 42.356 13.7377 42.1381 13.5024C41.9047 13.2504 41.9047 12.7822 41.9047 11.8125V4.31247H43.0296C43.9671 4.31247 44.5296 4.49999 44.9046 4.6875C45.0922 4.87501 45.2796 5.43749 45.4671 6.18747H45.8421C45.8421 5.81245 45.7953 5.39062 45.7484 4.96874C45.7015 4.54685 45.6547 4.12502 45.6547 3.75H37.0296C37.0296 4.12393 36.9829 4.54445 36.9362 4.96513ZM46.5922 3.93751C47.9047 4.12502 48.0921 4.31247 48.0921 6.00002H47.9047V11.8125C47.9047 13.6875 47.7171 13.875 46.2171 13.875V14.25H53.9046C54.0922 13.6875 54.4672 12 54.4672 11.625H54.0922C53.9467 12.2066 53.6886 12.6754 53.4926 13.0315L53.4909 13.0349C53.4347 13.1367 53.3838 13.2292 53.3421 13.3125C52.9671 13.875 52.2172 13.875 51.2797 13.875C50.5296 13.875 49.9671 13.875 49.5921 13.6875C49.4047 13.5 49.2171 12.9375 49.2171 12V9.18748H50.9046C51.6547 9.18748 52.0296 9.18748 52.2172 9.37499C52.4046 9.56251 52.5922 9.93747 52.5922 10.5H52.9671V7.31248H52.5922C52.4046 8.43749 52.2172 8.62501 50.9046 8.62501H49.2171V4.87501C49.2171 4.31247 49.4047 4.31247 49.7797 4.31247H51.0921C52.2172 4.31247 52.7796 4.49999 52.9671 4.6875C53.1547 4.87501 53.3421 5.43749 53.5297 6.18747H53.9046C53.9046 5.53968 53.8151 4.71285 53.7597 4.20187L53.758 4.18739L53.7519 4.13103C53.7445 4.06065 53.7377 3.99765 53.7322 3.9434C53.7229 3.8499 53.7171 3.78278 53.7171 3.75H46.5922V3.93751ZM68.5297 14.0625C67.2171 13.875 67.0296 13.6875 67.0296 12H66.8421V6.18747C66.8421 4.3388 67.0243 4.31282 68.2875 4.1328L68.3421 4.12502V3.75H64.0296V3.93751C65.3421 4.12502 65.5296 4.31247 65.5296 6.00002V12C65.5296 13.6875 65.5296 13.875 64.2171 13.875V14.4375H68.5297V14.0625ZM73.7798 4.12502L73.7252 4.1328C72.462 4.31282 72.2797 4.33885 72.2797 6.18747V9.56251C72.2797 10.875 72.4672 12 73.0297 12.75C73.5922 13.5 74.3422 13.875 75.4672 13.875C76.4047 13.875 77.3422 13.5 77.9047 12.5625C78.4673 11.8125 78.6547 10.3125 78.6547 8.99997V8.06247C78.6547 6.37498 78.6547 5.43749 78.4673 4.87501C78.4673 4.31247 77.9047 4.12502 76.7797 3.93751V3.75H80.7172V4.12502C79.7797 4.12502 79.4047 4.31247 79.2172 5.06252C79.2172 5.2684 79.192 5.52452 79.1602 5.8493C79.105 6.41178 79.0297 7.18013 79.0297 8.24998V9.37499C79.0297 11.25 78.6547 12.5625 77.7172 13.6875C76.9672 14.4375 75.8422 14.8125 74.7173 14.8125C73.7798 14.8125 72.8423 14.625 72.0922 14.0625C71.1547 13.3125 70.7797 12.1875 70.7797 10.3125V6.00002C70.7797 4.31247 70.5922 4.12502 69.2797 3.93751V3.75H73.7798V4.12502ZM88.2172 12.1875L84.2797 3.75H81.6547V3.93751C83.1547 3.93751 83.3422 4.12502 83.1547 6.37498L82.9672 9.75002C82.9672 11.4375 82.9672 12.375 82.7797 12.9375C82.7797 13.6875 82.4047 13.875 81.4672 13.875V14.4375H85.2172V14.0625C84.2797 13.875 83.7172 13.6875 83.7172 13.125V10.125L83.9047 5.625L87.6547 14.0625H88.0297L91.9671 5.24997V11.8125C92.1521 13.6615 91.9723 13.6871 90.7086 13.8673L90.6547 13.875V14.4375H94.9672V14.0625L94.9126 14.0547C93.6494 13.8746 93.4672 13.8486 93.4672 12L93.2797 6.18747C93.2797 5.17988 93.2797 4.71376 93.5124 4.46903C93.7128 4.25834 94.0857 4.21177 94.7796 4.12502V3.75H92.1547L88.2172 12.1875ZM62.1022 12.725L62.1012 12.7235C61.8494 12.3928 61.5702 12.026 61.2171 11.4375C61.0598 11.2276 60.9024 10.9884 60.7491 10.7445C60.6514 10.5892 60.5555 10.432 60.4624 10.2792L60.4614 10.2775L60.4603 10.2762C60.1777 9.81244 59.9199 9.39027 59.7172 9.18748C61.0297 8.62501 61.7796 7.68751 61.7796 6.37498C61.7796 5.43749 61.4046 4.6875 60.6547 4.31247C60.0922 3.93751 59.1547 3.75 58.2172 3.75H55.5921V4.31247H57.0921H58.0296C59.3421 4.31247 60.4671 4.87501 60.4671 6.5625C60.4671 7.31248 60.2796 8.24998 59.5296 8.62501C59.1547 8.99997 58.5921 8.99997 57.8422 8.99997H55.5921V9.56251H57.8422C58.4046 9.56251 58.5921 9.75002 58.9671 10.125C59.3421 10.875 60.0922 12.1875 60.6547 12.75C61.2171 13.6875 61.7796 14.25 63.6546 14.25V13.875C63.1902 14.0298 62.9815 13.8012 62.7117 13.5056L62.711 13.5048L62.7103 13.5039C62.6538 13.4421 62.5944 13.3773 62.5296 13.3125C62.3904 13.1036 62.2511 12.9205 62.1022 12.725ZM13.4045 7.87502C14.9045 6.93752 15.0921 4.87501 14.342 3.75C15.467 5.24997 16.217 7.31248 16.0296 9.56251C15.842 11.25 15.2795 12.9375 14.342 14.4375C12.9319 16.2002 11.356 16.9686 10.8606 17.2101C10.829 17.2255 10.8019 17.2388 10.7795 17.25C9.65454 17.8125 8.34202 17.8125 7.21707 17.25C5.1545 16.125 4.40457 13.6875 5.52952 11.8125C6.092 10.875 6.84204 10.125 7.77954 9.93747C8.25424 9.75946 8.82278 9.61904 9.43172 9.46861C10.7471 9.14365 12.251 8.77218 13.4045 7.87502Z" fill="#636363"/>
</svg>
