<svg width="97" height="18" viewBox="0 0 97 18" fill="none" xmlns="http://www.w3.org/2000/svg">
<path fill-rule="evenodd" clip-rule="evenodd" d="M9.02973 0C9.47479 0 9.80255 0.117416 10.1986 0.259323L10.2024 0.260696C10.3059 0.297661 10.4137 0.336342 10.5297 0.375023C13.1547 1.12501 14.6547 5.81251 9.77977 8.24998C9.77977 8.24998 9.5922 8.43749 9.40475 8.43749C9.40475 8.43749 9.21718 8.62501 9.02973 8.62501C8.74671 8.74151 8.4756 8.85063 8.21582 8.9542C8.04359 9.02286 7.87628 9.08906 7.71377 9.15338C5.36029 10.0849 4.01642 10.617 3.21728 12.375C2.27978 15.1875 4.34223 18 9.02973 18C8.58467 18 8.25691 17.8826 7.86083 17.7407L7.85705 17.7393C7.7536 17.7023 7.64579 17.6637 7.52975 17.625C4.90471 16.875 3.40473 12.375 8.27968 9.75002C8.27968 9.75002 8.46725 9.56251 8.6547 9.56251C8.84227 9.56251 9.02973 9.37499 9.02973 9.37499C9.50031 9.18119 9.93827 9.00781 10.3459 8.84645C12.6992 7.91496 14.0432 7.38298 14.8422 5.625C15.9672 3.00001 13.7172 0 9.02973 0ZM28.7172 13.875H28.1547V14.2499H31.9047V13.875C30.9672 13.875 30.7798 13.6875 30.2172 12.3749C29.6547 10.6875 28.9048 8.62495 28.1547 6.5625L27.0298 3.37497L26.6548 3.56249L23.2798 12.1875C22.9048 13.5 22.7172 13.6875 21.9673 13.875H21.5922V14.4375H25.1548V14.0625H24.5922C23.8423 13.875 23.6547 13.6875 24.0297 12.75C24.2173 12 24.5922 10.6875 24.7798 10.3125H28.1547C28.5114 11.0258 28.7927 11.8145 28.9986 12.3919C29.0292 12.4776 29.058 12.5586 29.0853 12.634C29.1125 12.7095 29.1381 12.7794 29.162 12.8427C29.2071 12.9622 29.2464 13.0584 29.2797 13.125C29.4673 13.6875 29.2797 13.875 28.7172 13.875ZM27.7797 9.74996H24.9672L26.4672 5.625L27.7797 9.74996ZM38.0389 12.7235L38.0399 12.725C38.1888 12.9205 38.3281 13.1036 38.4673 13.3125C38.5456 13.3908 38.6158 13.4691 38.6828 13.544C38.937 13.8278 39.1472 14.0625 39.5923 14.0625V14.4375H39.4048C37.5298 14.4375 36.9674 13.875 36.5924 12.75C36.0299 12.1875 35.2798 10.875 34.9048 10.125C34.5298 9.75002 34.3423 9.56251 33.7799 9.56251H31.5298V8.99997H33.7799C34.5298 8.99997 35.0924 8.99997 35.4673 8.62501C36.2173 8.24998 36.4048 7.31248 36.4048 6.5625C36.4048 4.87501 35.2798 4.31247 33.9673 4.31247H33.0298H31.5298V3.75H34.1549C35.0924 3.75 36.0299 3.93751 36.5924 4.31247C37.3423 4.6875 37.7173 5.43749 37.7173 6.37498C37.7173 7.68751 36.9674 8.62501 35.6549 9.18748C35.8576 9.39027 36.1154 9.81244 36.398 10.2762L36.3991 10.2775C36.6389 10.6708 36.8969 11.0936 37.1548 11.4375C37.5079 12.026 37.7871 12.3928 38.0389 12.7235ZM38.9362 4.96513L38.9359 4.96874L38.9355 4.97234C38.8888 5.39302 38.8421 5.81354 38.8421 6.18747H39.2172C39.4045 5.43806 39.592 5.06309 39.7793 4.68836L39.7796 4.6875C39.9671 4.31247 40.5297 4.12502 41.8421 4.12502H42.5921V11.8125C42.5921 13.5 42.4047 13.6875 40.9046 13.875V14.25H45.5921V13.875C44.7774 13.7845 44.356 13.7377 44.1381 13.5024C43.9047 13.2504 43.9047 12.7822 43.9047 11.8125V4.31247H45.0296C45.9671 4.31247 46.5296 4.49999 46.9046 4.6875C47.0922 4.87501 47.2796 5.43749 47.4671 6.18747H47.8421C47.8421 5.81245 47.7953 5.39062 47.7484 4.96874C47.7015 4.54685 47.6547 4.12502 47.6547 3.75H39.0296C39.0296 4.12393 38.9829 4.54445 38.9362 4.96513ZM48.5922 3.93751C49.9047 4.12502 50.0921 4.31247 50.0921 6.00002H49.9047V11.8125C49.9047 13.6875 49.7171 13.875 48.2171 13.875V14.25H55.9046C56.0922 13.6875 56.4672 12 56.4672 11.625H56.0922C55.9467 12.2066 55.6886 12.6754 55.4926 13.0315L55.4909 13.0349C55.4347 13.1367 55.3838 13.2292 55.3421 13.3125C54.9671 13.875 54.2172 13.875 53.2797 13.875C52.5296 13.875 51.9671 13.875 51.5921 13.6875C51.4047 13.5 51.2171 12.9375 51.2171 12V9.18748H52.9046C53.6547 9.18748 54.0296 9.18748 54.2172 9.37499C54.4046 9.56251 54.5922 9.93747 54.5922 10.5H54.9671V7.31248H54.5922C54.4046 8.43749 54.2172 8.62501 52.9046 8.62501H51.2171V4.87501C51.2171 4.31247 51.4047 4.31247 51.7797 4.31247H53.0921C54.2172 4.31247 54.7796 4.49999 54.9671 4.6875C55.1547 4.87501 55.3421 5.43749 55.5297 6.18747H55.9046C55.9046 5.53968 55.8151 4.71285 55.7597 4.20187L55.758 4.18739L55.7519 4.13103C55.7445 4.06065 55.7377 3.99765 55.7322 3.9434C55.7229 3.8499 55.7171 3.78278 55.7171 3.75H48.5922V3.93751ZM70.5297 14.0625C69.2171 13.875 69.0296 13.6875 69.0296 12H68.8421V6.18747C68.8421 4.3388 69.0243 4.31282 70.2875 4.1328L70.3421 4.12502V3.75H66.0296V3.93751C67.3421 4.12502 67.5296 4.31247 67.5296 6.00002V12C67.5296 13.6875 67.5296 13.875 66.2171 13.875V14.4375H70.5297V14.0625ZM75.7798 4.12502L75.7252 4.1328C74.462 4.31282 74.2797 4.33885 74.2797 6.18747V9.56251C74.2797 10.875 74.4672 12 75.0297 12.75C75.5922 13.5 76.3422 13.875 77.4672 13.875C78.4047 13.875 79.3422 13.5 79.9047 12.5625C80.4673 11.8125 80.6547 10.3125 80.6547 8.99997V8.06247C80.6547 6.37498 80.6547 5.43749 80.4673 4.87501C80.4673 4.31247 79.9047 4.12502 78.7797 3.93751V3.75H82.7172V4.12502C81.7797 4.12502 81.4047 4.31247 81.2172 5.06252C81.2172 5.2684 81.192 5.52452 81.1602 5.8493C81.105 6.41178 81.0297 7.18013 81.0297 8.24998V9.37499C81.0297 11.25 80.6547 12.5625 79.7172 13.6875C78.9672 14.4375 77.8422 14.8125 76.7173 14.8125C75.7798 14.8125 74.8423 14.625 74.0922 14.0625C73.1547 13.3125 72.7797 12.1875 72.7797 10.3125V6.00002C72.7797 4.31247 72.5922 4.12502 71.2797 3.93751V3.75H75.7798V4.12502ZM90.2172 12.1875L86.2797 3.75H83.6547V3.93751C85.1547 3.93751 85.3422 4.12502 85.1547 6.37498L84.9672 9.75002C84.9672 11.4375 84.9672 12.375 84.7797 12.9375C84.7797 13.6875 84.4047 13.875 83.4672 13.875V14.4375H87.2172V14.0625C86.2797 13.875 85.7172 13.6875 85.7172 13.125V10.125L85.9047 5.625L89.6547 14.0625H90.0297L93.9671 5.24997V11.8125C94.1521 13.6615 93.9723 13.6871 92.7086 13.8673L92.6547 13.875V14.4375H96.9672V14.0625L96.9126 14.0547C95.6494 13.8746 95.4672 13.8486 95.4672 12L95.2797 6.18747C95.2797 5.17988 95.2797 4.71376 95.5124 4.46903C95.7128 4.25834 96.0857 4.21177 96.7796 4.12502V3.75H94.1547L90.2172 12.1875ZM64.1022 12.725L64.1012 12.7235C63.8494 12.3928 63.5702 12.026 63.2171 11.4375C63.0598 11.2276 62.9024 10.9884 62.7491 10.7445C62.6514 10.5892 62.5555 10.432 62.4624 10.2792L62.4614 10.2775L62.4603 10.2762C62.1777 9.81244 61.9199 9.39027 61.7172 9.18748C63.0297 8.62501 63.7796 7.68751 63.7796 6.37498C63.7796 5.43749 63.4046 4.6875 62.6547 4.31247C62.0922 3.93751 61.1547 3.75 60.2172 3.75H57.5921V4.31247H59.0921H60.0296C61.3421 4.31247 62.4671 4.87501 62.4671 6.5625C62.4671 7.31248 62.2796 8.24998 61.5296 8.62501C61.1547 8.99997 60.5921 8.99997 59.8422 8.99997H57.5921V9.56251H59.8422C60.4046 9.56251 60.5921 9.75002 60.9671 10.125C61.3421 10.875 62.0922 12.1875 62.6547 12.75C63.2171 13.6875 63.7796 14.25 65.6546 14.25V13.875C65.1902 14.0298 64.9815 13.8012 64.7117 13.5056L64.711 13.5048L64.7103 13.5039C64.6538 13.4421 64.5944 13.3773 64.5296 13.3125C64.3904 13.1036 64.2511 12.9205 64.1022 12.725ZM15.4045 7.87502C16.9045 6.93752 17.0921 4.87501 16.342 3.75C17.467 5.24997 18.217 7.31248 18.0296 9.56251C17.842 11.25 17.2795 12.9375 16.342 14.4375C14.9319 16.2002 13.356 16.9686 12.8606 17.2101C12.829 17.2255 12.8019 17.2388 12.7795 17.25C11.6545 17.8125 10.342 17.8125 9.21707 17.25C7.1545 16.125 6.40457 13.6875 7.52952 11.8125C8.092 10.875 8.84204 10.125 9.77954 9.93747C10.2542 9.75946 10.8228 9.61904 11.4317 9.46861C12.7471 9.14365 14.251 8.77218 15.4045 7.87502Z" fill="#636363"/>
<path d="M8.84121 0.9375C7.71621 0.375 6.40371 0.375 5.27871 0.9375C4.90371 0.9375 3.21621 1.875 1.90371 3.5625C0.778714 5.0625 0.216214 6.75 0.0287144 8.43749C-0.158785 10.6875 0.591214 12.75 1.71621 14.4375C0.966214 13.125 1.15371 11.0625 2.65371 10.125C4.52871 8.81249 6.96621 8.62499 8.27871 8.06249C9.21621 7.6875 9.96621 7.125 10.5287 6.1875C11.4662 4.3125 10.7162 1.875 8.84121 0.9375Z" fill="#557EB9"/>
</svg>
