<svg width="34" height="34" viewBox="0 0 34 34" fill="none" xmlns="http://www.w3.org/2000/svg">
<path d="M23.9141 22.5933L23.9144 22.6343L23.9434 22.6634L26.0664 24.7899C26.6504 25.3749 27.1867 25.9067 27.5803 26.2925C27.777 26.4853 27.9383 26.6419 28.0522 26.7503C28.1091 26.8045 28.1546 26.8471 28.187 26.8765C28.2031 26.891 28.2168 26.9031 28.2274 26.9118C28.2325 26.9161 28.2384 26.9207 28.2443 26.9248C28.247 26.9268 28.2517 26.9299 28.2575 26.9331C28.2604 26.9346 28.2652 26.9371 28.2715 26.9394C28.2763 26.9412 28.2894 26.9457 28.3068 26.9457C28.3358 26.9457 28.3574 26.9337 28.364 26.93C28.3739 26.9244 28.3826 26.9179 28.3893 26.9125C28.403 26.9016 28.4179 26.8875 28.4328 26.8723C28.4632 26.8415 28.5017 26.7983 28.5457 26.7464C28.6342 26.6423 28.7499 26.4976 28.8764 26.3335C29.1294 26.0054 29.4289 25.5961 29.6467 25.2716C30.2145 24.4258 30.9864 22.8281 31.3304 21.7878C32.7755 17.4183 32.196 12.5885 29.7786 8.88202C27.3852 5.21227 23.475 2.73409 18.9716 2.02946C18.5628 1.9655 17.8463 1.92085 17.1383 1.90265C16.4305 1.88447 15.7211 1.89245 15.3269 1.93585C13.1904 2.17114 11.1508 2.84875 9.37519 3.91396C8.97697 4.15284 8.4255 4.53324 7.96844 4.87145C7.73977 5.04065 7.53347 5.20024 7.3809 5.32713C7.30479 5.39043 7.24078 5.44665 7.1937 5.49248C7.17026 5.51529 7.14966 5.53685 7.13349 5.55633C7.11997 5.57261 7.10032 5.59804 7.09107 5.62717C7.08402 5.64939 7.08632 5.66829 7.0879 5.67718C7.08969 5.68721 7.09258 5.69526 7.0946 5.70027C7.09863 5.71029 7.1036 5.71891 7.1072 5.72476C7.11475 5.73705 7.12471 5.75067 7.1353 5.76433C7.15697 5.79228 7.18841 5.82946 7.22761 5.87396C7.30639 5.9634 7.42095 6.08747 7.56232 6.23679C7.84531 6.53567 8.23812 6.93822 8.67258 7.37242L10.2507 8.94983L10.3083 9.00734L10.3763 8.96271L10.8414 8.65748C11.4703 8.24478 12.6255 7.69248 13.3647 7.45145L13.3647 7.45145C16.7578 6.34478 20.7172 6.94689 23.652 9.01624C24.0818 9.31933 24.6414 9.81731 25.1604 10.3405C25.6799 10.864 26.1524 11.4063 26.4109 11.7963L26.4943 11.7411L26.4109 11.7963C27.3891 13.2721 28.0497 15.0938 28.167 16.6294L28.2667 16.6218L28.167 16.6294C28.1881 16.9051 28.1696 17.1002 28.1097 17.252C28.0511 17.4007 27.9485 17.518 27.7803 17.6305C27.7256 17.6671 27.6918 17.6882 27.6398 17.7048C27.5851 17.7222 27.5058 17.7358 27.362 17.7452C27.0737 17.7641 26.5567 17.7646 25.527 17.7646C24.9535 17.7646 24.4318 17.771 24.0531 17.7812C23.8639 17.7863 23.7095 17.7923 23.6019 17.7992C23.5485 17.8025 23.5047 17.8062 23.4734 17.8103C23.4584 17.8123 23.4427 17.8148 23.4293 17.8183C23.4233 17.8199 23.412 17.8231 23.4 17.8293C23.3942 17.8324 23.383 17.8389 23.3721 17.8504C23.3608 17.8623 23.3439 17.8862 23.3439 17.9207C23.3439 17.9357 23.3468 17.9512 23.3486 17.9599C23.3509 17.9711 23.354 17.9842 23.3577 17.9984C23.365 18.0269 23.3753 18.0632 23.3878 18.1046C23.4127 18.1874 23.4468 18.2932 23.4843 18.4022C23.7937 19.3027 23.9002 20.0363 23.9074 21.3436L23.9141 22.5933ZM8.85824 10.2748L8.92368 10.2043L8.85571 10.1362L7.33224 8.60975C6.91304 8.18972 6.52654 7.80772 6.24147 7.53059C6.09899 7.39209 5.98152 7.27945 5.89783 7.20126C5.85611 7.16227 5.82212 7.13122 5.79738 7.10965C5.78519 7.09902 5.77408 7.08967 5.76487 7.08257C5.76047 7.07919 5.75475 7.07494 5.74859 7.07109C5.74561 7.06923 5.74057 7.06621 5.73426 7.06334L5.734 7.06322C5.73022 7.0615 5.71352 7.05387 5.69116 7.05387C5.67201 7.05387 5.65729 7.05919 5.65033 7.06204C5.64231 7.06532 5.63582 7.06903 5.63142 7.07177C5.62263 7.07722 5.6148 7.08341 5.60876 7.08848C5.59631 7.09892 5.58231 7.11245 5.56783 7.12724C5.53842 7.15729 5.50046 7.1994 5.45699 7.24976C5.36973 7.35083 5.2566 7.48941 5.13837 7.64129L5.13837 7.6413C3.47389 9.78016 2.45807 12.1444 2.03838 14.8556C1.95436 15.3982 1.91338 16.2547 1.91397 17.1007C1.91456 17.9465 1.95671 18.7916 2.04156 19.3111L2.14026 19.295L2.04156 19.3111C2.31555 20.9878 2.66039 22.0999 3.35048 23.5296L3.44054 23.4861L3.35048 23.5296C4.08524 25.0517 4.90454 26.209 6.11664 27.4373C8.55765 29.9107 11.5962 31.4416 15.1235 31.9764L15.1385 31.8775L15.1235 31.9764C16.1786 32.1363 18.2145 32.1365 19.2987 31.9767C21.792 31.6096 24.0662 30.6418 26.094 29.0855C26.2746 28.9469 26.4484 28.8093 26.5832 28.6991C26.6506 28.644 26.7085 28.5955 26.7529 28.5569C26.7946 28.5206 26.8308 28.4876 26.8486 28.4661C26.8779 28.4308 26.8872 28.3877 26.8811 28.3449C26.8757 28.3073 26.8587 28.2705 26.8381 28.2356C26.7966 28.1652 26.7201 28.0699 26.6007 27.9369C26.3597 27.6686 25.9226 27.2239 25.1746 26.4746L23.4226 24.7194L23.3274 24.6241L23.2637 24.7428L22.9609 25.3068C22.768 25.6663 22.5262 26.0445 22.3003 26.3528C22.1874 26.507 22.0793 26.6426 21.9839 26.7493C21.8867 26.8578 21.8084 26.93 21.755 26.9635C21.6818 27.0095 21.6214 27.0436 20.9904 27.0605C20.3665 27.0773 19.2062 27.0783 16.9591 27.0783H12.3601L11.9898 26.6889L11.9173 26.7578L11.9898 26.6889C10.8449 25.485 10.0569 23.2486 10.0562 21.1662C10.0559 20.4874 10.2195 19.4077 10.4242 18.7382L10.3285 18.709L10.4242 18.7382C10.5155 18.4393 10.6081 18.1239 10.6294 18.0384L10.6294 18.0384L10.6665 17.8887L10.6973 17.7646H10.5695H8.47856C7.44579 17.7646 6.9268 17.764 6.63727 17.7452C6.49286 17.7358 6.41307 17.7223 6.35814 17.7049C6.30587 17.6883 6.27197 17.6673 6.21746 17.6309C6.16565 17.5963 6.10154 17.5365 6.0408 17.4657C5.98029 17.3952 5.92838 17.3199 5.898 17.2578L5.89799 17.2577C5.84113 17.1415 5.8174 17.0781 5.81188 16.9781C5.80588 16.8694 5.82152 16.7177 5.85834 16.4258C6.12872 14.2824 7.11656 12.1521 8.5617 10.5945L8.4884 10.5265L8.56171 10.5945L8.85824 10.2748ZM17.2278 15.9395L17.2571 15.9688H17.2985H21.7C23.5988 15.9688 24.7005 15.9656 25.3274 15.9518C25.6401 15.945 25.8382 15.9355 25.9591 15.922C26.0183 15.9154 26.066 15.9072 26.1011 15.895C26.1183 15.889 26.1404 15.8794 26.1596 15.8626C26.1815 15.8435 26.2016 15.8129 26.2016 15.7725C26.2016 15.7462 26.1937 15.7068 26.1855 15.6698C26.1763 15.6284 26.1632 15.5759 26.1474 15.5164C26.1156 15.3973 26.0719 15.247 26.0239 15.094C25.0605 12.0198 22.4197 9.71533 18.9543 8.90903C18.5628 8.81792 17.8432 8.76068 17.1286 8.743C16.4139 8.72531 15.6879 8.7468 15.2831 8.81807C14.6426 8.93087 13.7848 9.19182 13.1621 9.46306C12.9032 9.57582 12.5536 9.75669 12.2691 9.91719C12.1268 9.99748 11.9992 10.0736 11.9065 10.1343C11.8605 10.1645 11.8209 10.1922 11.7921 10.2156C11.778 10.227 11.7637 10.2396 11.752 10.2525C11.7462 10.259 11.7389 10.2678 11.7326 10.2787C11.7272 10.2879 11.7164 10.3087 11.7164 10.3366C11.7164 10.358 11.7234 10.3739 11.725 10.3775L11.7251 10.3777C11.7277 10.3837 11.7305 10.3883 11.732 10.3908C11.7351 10.3959 11.7383 10.4003 11.7403 10.4029C11.7446 10.4085 11.7498 10.4147 11.7549 10.4206C11.7655 10.4329 11.7804 10.4494 11.799 10.4694C11.8363 10.5098 11.8909 10.5672 11.9606 10.6397C12.1002 10.7847 12.3018 10.9913 12.5503 11.2441C13.0473 11.7497 13.7328 12.4409 14.4867 13.1956L14.5574 13.125L14.4867 13.1956L17.2278 15.9395ZM14.4401 15.9688H14.6812L9.8322 12.0463L9.75835 11.9789C9.75834 11.9789 9.75834 11.9789 9.75834 11.9789C9.34436 12.4324 8.77195 13.2879 8.45285 13.9282L8.54235 13.9728L8.45284 13.9282C8.33408 14.1666 8.17098 14.5758 8.03813 14.9459C7.97151 15.1315 7.91191 15.3089 7.86882 15.4519C7.84729 15.5234 7.8296 15.5872 7.81719 15.6397C7.80547 15.6892 7.79626 15.7373 7.79626 15.7728C7.79626 15.8436 7.85093 15.8783 7.88042 15.8917C7.91194 15.906 7.95259 15.9148 7.99825 15.9215C8.09214 15.9353 8.24331 15.9448 8.47675 15.9517C8.94568 15.9654 9.76535 15.9688 11.1682 15.9688H14.4401ZM21.887 23.2678L21.9105 23.207L21.8645 23.1609L19.185 20.4775L16.5055 17.794L16.4762 17.7646H16.4348H14.6196H12.8044H12.7404L12.7136 17.8227L12.4793 18.3304L12.5701 18.3723L12.4793 18.3304C12.0548 19.2504 11.8996 20.0023 11.8927 21.1571C11.8843 22.5638 12.1366 23.6237 12.7328 24.6652L13.0383 25.199L13.067 25.249L13.1247 25.2493L16.9851 25.2665L20.8456 25.2836L20.9028 25.2839L20.932 25.2346L21.2073 24.7707C21.3616 24.5107 21.5772 24.0665 21.6884 23.7798L21.5952 23.7437L21.6884 23.7798L21.887 23.2678ZM19.2925 17.7646H19.0515L19.2216 17.9352L20.5498 19.2672C21.1621 19.8812 21.4983 20.2146 21.6833 20.3723C21.73 20.412 21.7696 20.4428 21.8034 20.4647C21.8343 20.4847 21.8718 20.5051 21.9119 20.5094C21.9345 20.5119 21.961 20.5096 21.987 20.4966C22.0131 20.4836 22.0304 20.464 22.0414 20.4455C22.0605 20.4134 22.0652 20.3764 22.0675 20.3545C22.0765 20.2679 22.0598 20.1317 22.0311 19.9786C22.0017 19.8215 21.9571 19.6343 21.9036 19.4392C21.7969 19.0498 21.6529 18.6215 21.5185 18.3304L21.2842 17.8227L21.2574 17.7646H21.1934H20.2429H19.2925ZM6.64153 3.65471C9.26579 1.68435 12.343 0.474266 15.5807 0.139192C15.939 0.102136 16.7011 0.0927024 17.4634 0.105249C18.226 0.117802 18.9758 0.152148 19.3101 0.200497C23.0973 0.748325 26.2461 2.32471 28.9382 5.02005C30.5275 6.61141 31.7525 8.39697 32.5773 10.3226C34.9462 15.8531 34.0949 22.3266 30.3309 27.3652C30.0675 27.7178 29.3883 28.4746 28.8224 29.0448C26.1606 31.7267 23.1827 33.2129 19.3432 33.7744C18.7776 33.8572 17.8265 33.8995 16.8822 33.9C15.9375 33.9005 15.0104 33.8592 14.4921 33.7773C12.7686 33.5049 11.2041 33.0014 9.60193 32.203C6.23539 30.5255 3.49045 27.7763 1.81234 24.4013C0.702061 22.1682 0.190302 20.1514 0.110446 17.6951C-0.031456 13.3295 1.27388 9.41942 3.92789 6.25058C4.57084 5.48289 5.90084 4.21085 6.64153 3.65471Z" fill="#3B4040" stroke="#F2FAFA" stroke-width="0.2"/>
</svg>
