<svg width="34" height="34" viewBox="0 0 34 34" fill="none" xmlns="http://www.w3.org/2000/svg">
<mask id="path-1-inside-1_317_6943" fill="white">
<path fill-rule="evenodd" clip-rule="evenodd" d="M15.7205 0.0197759C15.5925 0.0346631 15.2036 0.0792581 14.8562 0.118935C9.59493 0.719473 4.7339 4.01578 2.06631 8.79197C1.0921 10.5362 0.385776 12.7034 0.0859718 14.8681C-0.0286573 15.6958 -0.0286573 18.2939 0.0859718 19.1216C0.78731 24.1853 3.48887 28.4862 7.70847 31.2564C13.2962 34.9249 20.713 34.9136 26.3045 31.2281C34.7206 25.6809 36.5415 14.1462 30.2353 6.32795C27.5151 2.95554 23.7563 0.815907 19.3775 0.14738C18.7146 0.0461607 16.2378 -0.040238 15.7205 0.0197759ZM18.9453 2.1067C19.5873 2.19988 20.7358 2.44193 20.8393 2.50587C20.9074 2.54794 20.8872 2.76752 20.7402 3.58705L20.5558 4.61546L19.8835 4.66045C19.093 4.71329 18.2888 4.88994 17.7452 5.13026L17.3559 5.30233L16.5205 4.46918L15.6852 3.63603L14.9892 4.33406L14.2932 5.0321L15.0734 5.81394C15.5024 6.24394 15.8535 6.61566 15.8535 6.63985C15.8535 6.66411 15.7502 6.85804 15.6239 7.07085C15.3717 7.49566 14.9883 8.45529 14.8511 9.00505C14.8029 9.19812 14.732 9.3436 14.6935 9.32825C14.655 9.31296 14.1209 9.09909 13.5067 8.85292C12.8925 8.60675 12.3754 8.41986 12.3577 8.43767C12.3398 8.45542 12.1646 8.87027 11.9682 9.35948L11.611 10.249L12.9343 10.7762C14.0953 11.2387 14.2577 11.3215 14.2577 11.4501C14.2577 11.8662 13.5551 13.7383 13.3989 13.7383C13.3108 13.7383 4.58543 8.69301 4.56428 8.62981C4.55378 8.59837 4.7212 8.33672 4.9363 8.04841C6.57421 5.85315 8.81972 4.1188 11.3708 3.07862C12.6076 2.57439 14.1804 2.18553 15.5543 2.04443C16.2554 1.97245 18.2759 2.00954 18.9453 2.1067ZM24.1648 3.8186C25.1592 4.36025 26.1133 5.04732 27.2209 6.01931L27.5175 6.2797L26.5735 6.75243C26.0542 7.01243 25.6183 7.22517 25.6047 7.22517C25.5911 7.22517 25.4 7.00598 25.1801 6.73801C24.6774 6.12584 23.9045 5.54059 23.1457 5.19759L22.5588 4.93228L22.5959 4.64929C22.6164 4.49364 22.682 4.09926 22.7417 3.77287L22.8503 3.17951L23.2249 3.34513C23.431 3.43625 23.8539 3.64925 24.1648 3.8186ZM21.5717 6.76905C22.1062 6.87027 22.8372 7.24278 23.2607 7.62965C23.964 8.27205 24.5667 9.38141 24.7661 10.4003C24.8806 10.986 24.8107 12.603 24.6375 13.3728C24.2504 15.0935 23.4953 16.9102 22.5715 18.3434C22.2908 18.7787 22.2191 18.851 22.1208 18.7983C21.7277 18.5873 15.279 14.8505 15.2373 14.8096C15.2093 14.7821 15.3173 14.4774 15.4774 14.1326C15.8754 13.2757 16.0704 12.6435 16.3566 11.2821C16.7885 9.22829 17.1926 8.15841 17.7692 7.54218C18.2271 7.05283 18.8252 6.78759 19.7432 6.66663C20.04 6.62749 21.1535 6.68989 21.5717 6.76905ZM29.4445 8.64084C30.413 10.0995 31.0978 11.618 31.5044 13.2083C31.8685 14.6331 31.9684 15.4443 31.9705 16.9949C31.9726 18.5459 31.8755 19.3365 31.506 20.7776C31.2909 21.6164 30.6993 23.2335 30.5157 23.4846C30.4422 23.585 30.104 23.4063 27.2328 21.7495C25.4722 20.7336 24.0318 19.8817 24.0318 19.8563C24.0318 19.8151 24.8661 18.3985 24.9252 18.3394C24.9384 18.3262 25.5509 18.422 26.2863 18.5523C27.0217 18.6827 27.6606 18.7893 27.706 18.7893C27.814 18.7893 28.1583 16.8777 28.0572 16.8391C28.0191 16.8246 27.5018 16.7286 26.9075 16.6259C26.3133 16.5232 25.827 16.4157 25.827 16.3872C25.827 16.3586 25.8847 16.1888 25.9553 16.01C26.0258 15.8311 26.1783 15.3589 26.2941 14.9608C26.4099 14.5625 26.5138 14.2273 26.525 14.2156C26.5362 14.204 27.0598 14.246 27.6886 14.309C28.5993 14.4002 28.8422 14.4065 28.8833 14.3401C28.9116 14.2942 28.9551 13.998 28.9798 13.6818C29.0045 13.3657 29.0419 12.9546 29.0628 12.7684L29.1009 12.4298L28.1787 12.3497C27.6715 12.3057 27.1564 12.2523 27.0339 12.231L26.8112 12.1924L26.8538 11.8517C26.9116 11.3892 26.7882 10.1563 26.6252 9.5685C26.5519 9.30405 26.4919 9.07257 26.4919 9.05403C26.4919 8.99701 28.8491 7.83574 28.9013 7.86711C28.9283 7.88326 29.1727 8.23145 29.4445 8.64084ZM19.6434 11.0134V12.0103H20.6408H21.6382V11.0134V10.0165H20.6408H19.6434V11.0134ZM7.85043 12.8831C10.2042 14.2404 12.1301 15.3768 12.1301 15.4085C12.1301 15.524 11.0466 16.3182 10.5008 16.6027L9.93975 16.8952L8.97391 15.9325L8.00801 14.9699L7.30959 15.6656L6.61125 16.3612L7.35933 17.1136L8.10741 17.8658L7.90794 18.0101C7.53692 18.2782 6.94337 18.8758 6.76025 19.1655C6.66005 19.324 6.55546 19.4537 6.5278 19.4538C6.50008 19.4538 6.07394 19.3642 5.58078 19.2545C5.08763 19.1449 4.64467 19.0551 4.59646 19.0551C4.53802 19.0551 4.44786 19.3377 4.32605 19.9025C4.22552 20.3685 4.12897 20.7995 4.11149 20.8602C4.08516 20.9513 4.1926 20.9954 4.73044 21.1145C5.08842 21.1937 5.51017 21.2936 5.66769 21.3365L5.95406 21.4145L5.98544 21.9794C6.02141 22.6255 6.16197 23.2528 6.38379 23.7568L6.53718 24.1053L6.32494 24.2619C5.80439 24.6463 4.7466 25.3742 4.66116 25.4071C4.47751 25.4775 3.49978 23.7352 2.98953 22.4285C2.30142 20.666 1.99836 19.0078 1.99657 16.9949C1.99517 15.4494 2.09278 14.6508 2.45635 13.233C2.73002 12.1655 3.39379 10.4153 3.52491 10.4153C3.55018 10.4153 5.49667 11.5258 7.85043 12.8831ZM17.682 18.5532C19.4373 19.5652 20.9018 20.4209 20.9363 20.4548C21.026 20.543 19.0934 22.4316 18.2804 23.0502C16.586 24.3395 15.0669 25.0673 13.5735 25.3054C12.8612 25.419 11.5799 25.353 10.935 25.1694C9.1041 24.6481 8.00768 23.3787 8.00768 21.78C8.00768 20.8522 8.31406 20.2163 9.01474 19.6898C9.23395 19.5251 9.9555 19.1176 10.6182 18.7842C11.2809 18.4508 12.0343 18.0349 12.2924 17.8601C12.8033 17.5139 13.5785 16.8497 13.7997 16.5686L13.9387 16.3919L14.2146 16.5526C14.3663 16.6409 15.9267 17.5412 17.682 18.5532ZM11.9971 21.9794V22.9763H12.9944H13.9918V21.9794V20.9825H12.9944H11.9971V21.9794ZM26.1486 23.4334C27.9465 24.4706 29.4175 25.3436 29.4175 25.3733C29.4175 25.4629 28.6674 26.429 28.0946 27.0769C27.0415 28.2683 25.33 29.5837 23.8498 30.3393C18.893 32.8696 12.9685 32.4791 8.43986 29.3236C7.45448 28.637 5.86676 27.2156 5.88351 27.0351C5.88544 27.0143 6.30746 26.7074 6.82122 26.3531L7.75548 25.709L8.0874 25.9712C8.79578 26.531 9.87605 27.0104 10.8638 27.2036C11.1397 27.2575 11.4327 27.3159 11.515 27.3334C11.6632 27.365 11.6646 27.3759 11.6646 28.527V29.6888H12.662H13.6593V28.5064V27.324L14.2523 27.212C14.5784 27.1503 15.1536 26.9953 15.5306 26.8674C15.9074 26.7395 16.2359 26.6566 16.2605 26.6831C16.2851 26.7096 16.5212 27.2398 16.7852 27.8612C17.0492 28.4826 17.2767 29.0034 17.2906 29.0186C17.3256 29.0565 19.1115 28.2891 19.1118 28.2361C19.1119 28.2126 18.868 27.6322 18.5698 26.9463C18.2717 26.2603 18.0396 25.6903 18.0543 25.6796C18.069 25.6689 18.3882 25.4433 18.7637 25.1784C19.1391 24.9134 19.6284 24.5451 19.851 24.36L20.2557 24.0233L20.4068 24.1811C20.4899 24.2678 20.8662 24.6827 21.2431 25.1031C21.62 25.5234 21.9527 25.8773 21.9824 25.8894C22.0377 25.912 23.3948 24.7156 23.4263 24.6166C23.4359 24.5867 23.0658 24.1426 22.604 23.6299C22.1422 23.1172 21.7733 22.6706 21.7844 22.6376C21.8318 22.4956 22.7374 21.5117 22.8051 21.5287C22.8461 21.539 24.3507 22.3961 26.1486 23.4334Z"/>
</mask>
<path fill-rule="evenodd" clip-rule="evenodd" d="M15.7205 0.0197759C15.5925 0.0346631 15.2036 0.0792581 14.8562 0.118935C9.59493 0.719473 4.7339 4.01578 2.06631 8.79197C1.0921 10.5362 0.385776 12.7034 0.0859718 14.8681C-0.0286573 15.6958 -0.0286573 18.2939 0.0859718 19.1216C0.78731 24.1853 3.48887 28.4862 7.70847 31.2564C13.2962 34.9249 20.713 34.9136 26.3045 31.2281C34.7206 25.6809 36.5415 14.1462 30.2353 6.32795C27.5151 2.95554 23.7563 0.815907 19.3775 0.14738C18.7146 0.0461607 16.2378 -0.040238 15.7205 0.0197759ZM18.9453 2.1067C19.5873 2.19988 20.7358 2.44193 20.8393 2.50587C20.9074 2.54794 20.8872 2.76752 20.7402 3.58705L20.5558 4.61546L19.8835 4.66045C19.093 4.71329 18.2888 4.88994 17.7452 5.13026L17.3559 5.30233L16.5205 4.46918L15.6852 3.63603L14.9892 4.33406L14.2932 5.0321L15.0734 5.81394C15.5024 6.24394 15.8535 6.61566 15.8535 6.63985C15.8535 6.66411 15.7502 6.85804 15.6239 7.07085C15.3717 7.49566 14.9883 8.45529 14.8511 9.00505C14.8029 9.19812 14.732 9.3436 14.6935 9.32825C14.655 9.31296 14.1209 9.09909 13.5067 8.85292C12.8925 8.60675 12.3754 8.41986 12.3577 8.43767C12.3398 8.45542 12.1646 8.87027 11.9682 9.35948L11.611 10.249L12.9343 10.7762C14.0953 11.2387 14.2577 11.3215 14.2577 11.4501C14.2577 11.8662 13.5551 13.7383 13.3989 13.7383C13.3108 13.7383 4.58543 8.69301 4.56428 8.62981C4.55378 8.59837 4.7212 8.33672 4.9363 8.04841C6.57421 5.85315 8.81972 4.1188 11.3708 3.07862C12.6076 2.57439 14.1804 2.18553 15.5543 2.04443C16.2554 1.97245 18.2759 2.00954 18.9453 2.1067ZM24.1648 3.8186C25.1592 4.36025 26.1133 5.04732 27.2209 6.01931L27.5175 6.2797L26.5735 6.75243C26.0542 7.01243 25.6183 7.22517 25.6047 7.22517C25.5911 7.22517 25.4 7.00598 25.1801 6.73801C24.6774 6.12584 23.9045 5.54059 23.1457 5.19759L22.5588 4.93228L22.5959 4.64929C22.6164 4.49364 22.682 4.09926 22.7417 3.77287L22.8503 3.17951L23.2249 3.34513C23.431 3.43625 23.8539 3.64925 24.1648 3.8186ZM21.5717 6.76905C22.1062 6.87027 22.8372 7.24278 23.2607 7.62965C23.964 8.27205 24.5667 9.38141 24.7661 10.4003C24.8806 10.986 24.8107 12.603 24.6375 13.3728C24.2504 15.0935 23.4953 16.9102 22.5715 18.3434C22.2908 18.7787 22.2191 18.851 22.1208 18.7983C21.7277 18.5873 15.279 14.8505 15.2373 14.8096C15.2093 14.7821 15.3173 14.4774 15.4774 14.1326C15.8754 13.2757 16.0704 12.6435 16.3566 11.2821C16.7885 9.22829 17.1926 8.15841 17.7692 7.54218C18.2271 7.05283 18.8252 6.78759 19.7432 6.66663C20.04 6.62749 21.1535 6.68989 21.5717 6.76905ZM29.4445 8.64084C30.413 10.0995 31.0978 11.618 31.5044 13.2083C31.8685 14.6331 31.9684 15.4443 31.9705 16.9949C31.9726 18.5459 31.8755 19.3365 31.506 20.7776C31.2909 21.6164 30.6993 23.2335 30.5157 23.4846C30.4422 23.585 30.104 23.4063 27.2328 21.7495C25.4722 20.7336 24.0318 19.8817 24.0318 19.8563C24.0318 19.8151 24.8661 18.3985 24.9252 18.3394C24.9384 18.3262 25.5509 18.422 26.2863 18.5523C27.0217 18.6827 27.6606 18.7893 27.706 18.7893C27.814 18.7893 28.1583 16.8777 28.0572 16.8391C28.0191 16.8246 27.5018 16.7286 26.9075 16.6259C26.3133 16.5232 25.827 16.4157 25.827 16.3872C25.827 16.3586 25.8847 16.1888 25.9553 16.01C26.0258 15.8311 26.1783 15.3589 26.2941 14.9608C26.4099 14.5625 26.5138 14.2273 26.525 14.2156C26.5362 14.204 27.0598 14.246 27.6886 14.309C28.5993 14.4002 28.8422 14.4065 28.8833 14.3401C28.9116 14.2942 28.9551 13.998 28.9798 13.6818C29.0045 13.3657 29.0419 12.9546 29.0628 12.7684L29.1009 12.4298L28.1787 12.3497C27.6715 12.3057 27.1564 12.2523 27.0339 12.231L26.8112 12.1924L26.8538 11.8517C26.9116 11.3892 26.7882 10.1563 26.6252 9.5685C26.5519 9.30405 26.4919 9.07257 26.4919 9.05403C26.4919 8.99701 28.8491 7.83574 28.9013 7.86711C28.9283 7.88326 29.1727 8.23145 29.4445 8.64084ZM19.6434 11.0134V12.0103H20.6408H21.6382V11.0134V10.0165H20.6408H19.6434V11.0134ZM7.85043 12.8831C10.2042 14.2404 12.1301 15.3768 12.1301 15.4085C12.1301 15.524 11.0466 16.3182 10.5008 16.6027L9.93975 16.8952L8.97391 15.9325L8.00801 14.9699L7.30959 15.6656L6.61125 16.3612L7.35933 17.1136L8.10741 17.8658L7.90794 18.0101C7.53692 18.2782 6.94337 18.8758 6.76025 19.1655C6.66005 19.324 6.55546 19.4537 6.5278 19.4538C6.50008 19.4538 6.07394 19.3642 5.58078 19.2545C5.08763 19.1449 4.64467 19.0551 4.59646 19.0551C4.53802 19.0551 4.44786 19.3377 4.32605 19.9025C4.22552 20.3685 4.12897 20.7995 4.11149 20.8602C4.08516 20.9513 4.1926 20.9954 4.73044 21.1145C5.08842 21.1937 5.51017 21.2936 5.66769 21.3365L5.95406 21.4145L5.98544 21.9794C6.02141 22.6255 6.16197 23.2528 6.38379 23.7568L6.53718 24.1053L6.32494 24.2619C5.80439 24.6463 4.7466 25.3742 4.66116 25.4071C4.47751 25.4775 3.49978 23.7352 2.98953 22.4285C2.30142 20.666 1.99836 19.0078 1.99657 16.9949C1.99517 15.4494 2.09278 14.6508 2.45635 13.233C2.73002 12.1655 3.39379 10.4153 3.52491 10.4153C3.55018 10.4153 5.49667 11.5258 7.85043 12.8831ZM17.682 18.5532C19.4373 19.5652 20.9018 20.4209 20.9363 20.4548C21.026 20.543 19.0934 22.4316 18.2804 23.0502C16.586 24.3395 15.0669 25.0673 13.5735 25.3054C12.8612 25.419 11.5799 25.353 10.935 25.1694C9.1041 24.6481 8.00768 23.3787 8.00768 21.78C8.00768 20.8522 8.31406 20.2163 9.01474 19.6898C9.23395 19.5251 9.9555 19.1176 10.6182 18.7842C11.2809 18.4508 12.0343 18.0349 12.2924 17.8601C12.8033 17.5139 13.5785 16.8497 13.7997 16.5686L13.9387 16.3919L14.2146 16.5526C14.3663 16.6409 15.9267 17.5412 17.682 18.5532ZM11.9971 21.9794V22.9763H12.9944H13.9918V21.9794V20.9825H12.9944H11.9971V21.9794ZM26.1486 23.4334C27.9465 24.4706 29.4175 25.3436 29.4175 25.3733C29.4175 25.4629 28.6674 26.429 28.0946 27.0769C27.0415 28.2683 25.33 29.5837 23.8498 30.3393C18.893 32.8696 12.9685 32.4791 8.43986 29.3236C7.45448 28.637 5.86676 27.2156 5.88351 27.0351C5.88544 27.0143 6.30746 26.7074 6.82122 26.3531L7.75548 25.709L8.0874 25.9712C8.79578 26.531 9.87605 27.0104 10.8638 27.2036C11.1397 27.2575 11.4327 27.3159 11.515 27.3334C11.6632 27.365 11.6646 27.3759 11.6646 28.527V29.6888H12.662H13.6593V28.5064V27.324L14.2523 27.212C14.5784 27.1503 15.1536 26.9953 15.5306 26.8674C15.9074 26.7395 16.2359 26.6566 16.2605 26.6831C16.2851 26.7096 16.5212 27.2398 16.7852 27.8612C17.0492 28.4826 17.2767 29.0034 17.2906 29.0186C17.3256 29.0565 19.1115 28.2891 19.1118 28.2361C19.1119 28.2126 18.868 27.6322 18.5698 26.9463C18.2717 26.2603 18.0396 25.6903 18.0543 25.6796C18.069 25.6689 18.3882 25.4433 18.7637 25.1784C19.1391 24.9134 19.6284 24.5451 19.851 24.36L20.2557 24.0233L20.4068 24.1811C20.4899 24.2678 20.8662 24.6827 21.2431 25.1031C21.62 25.5234 21.9527 25.8773 21.9824 25.8894C22.0377 25.912 23.3948 24.7156 23.4263 24.6166C23.4359 24.5867 23.0658 24.1426 22.604 23.6299C22.1422 23.1172 21.7733 22.6706 21.7844 22.6376C21.8318 22.4956 22.7374 21.5117 22.8051 21.5287C22.8461 21.539 24.3507 22.3961 26.1486 23.4334Z" fill="#334040" stroke="#F2F8FA" stroke-width="0.4" mask="url(#path-1-inside-1_317_6943)"/>
</svg>
