<svg width="72" height="45" viewBox="0 0 72 45" fill="none" xmlns="http://www.w3.org/2000/svg">
<g clip-path="url(#clip0_297_3224)">
<path fill-rule="evenodd" clip-rule="evenodd" d="M0 29.3972V13.7448C0 13.7448 22.1265 27.3759 23.7446 28.0257C25.3628 28.6755 33.9718 32.8439 38.0561 35.3803C42.1404 37.9167 43.8784 39.7403 48.8946 38.7312C50.9323 38.3179 51.4986 38.3179 51.7953 39.1774C52.0919 40.0368 48.9336 42.118 47.5732 42.4923C46.2127 42.8666 45.8322 44.6125 43.1023 44.6184C39.2697 44.6184 36.5668 42.6031 32.0331 42.2707C29.8306 42.112 25.9111 44.6184 22.579 44.0674C20.5473 43.7321 19.5555 43.0882 18.9621 38.1263C18.7494 36.3296 13.868 33.2961 7.94984 31.4365C2.03166 29.5769 0 29.3972 0 29.3972Z" fill="#F0B186"/>
<path d="M7.94384 31.4364C13.853 33.296 18.7314 36.3415 18.9561 38.1262C19.5555 43.0882 20.5413 43.732 22.573 44.0674C25.9051 44.6154 29.8246 42.1089 32.0271 42.2706C36.5579 42.603 39.2547 44.6273 43.0963 44.6124C45.8262 44.6124 46.2067 42.8606 47.5672 42.4862C48.9276 42.1119 52.086 40.0277 51.7893 39.1713C50.6296 40.7943 47.4053 41.3873 43.4799 42.2377C39.5544 43.0882 34.9697 40.2403 29.1774 40.9381C23.385 41.6358 22.9835 40.989 20.7361 35.2005C18.4887 29.4121 0 22.4797 0 22.4797V29.3971C0 29.3971 2.03166 29.5798 7.94384 31.4364Z" fill="#ECAA7E"/>
<path d="M51.75 39.2851C51.786 39.2372 51.8009 39.1983 51.789 39.1773C51.777 39.1564 51.756 39.1803 51.75 39.2851Z" fill="#E7A376"/>
<path d="M7.94384 31.4364C13.853 33.296 18.7314 36.3415 18.9561 38.1262C19.5555 43.0882 20.5413 43.732 22.573 44.0674C25.9051 44.6154 29.8246 42.1089 32.0271 42.2707C36.5579 42.603 39.2547 44.6274 43.0963 44.6124C45.8262 44.6124 46.2067 42.8606 47.5672 42.4863C48.7658 42.1599 51.3128 40.5308 51.7443 39.5516C51.7443 39.4378 51.7443 39.345 51.7443 39.2791C50.9499 40.1165 50.0057 40.798 48.9606 41.2884C46.7641 42.3964 43.5877 43.4206 41.7059 43.3098C38.2209 43.1061 33.7141 39.8151 27.9967 41.9622C22.7408 43.9356 21.0298 41.8364 20.0319 37.3446C18.8303 31.9335 0 25.3485 0 25.3485V29.3971C0 29.3971 2.03166 29.5798 7.94384 31.4364Z" fill="#E7A376"/>
<path fill-rule="evenodd" clip-rule="evenodd" d="M7.94384 31.4365C13.853 33.2961 18.7314 36.3415 18.9561 38.1263C19.5555 43.0882 20.5413 43.732 22.573 44.0674C25.9051 44.6154 29.8246 42.109 32.0271 42.2707C36.5578 42.6031 39.2547 44.6274 43.0963 44.6124C45.8262 44.6124 46.2127 42.8846 47.5672 42.4863C50.0633 41.7496 52.2238 40.6147 51.7893 39.1713C51.6634 39.6864 50.8424 40.5788 49.7636 41.2016C48.3942 41.9922 46.6472 42.5162 45.7453 43.1241C44.1331 44.2082 41.4752 44.283 39.1139 43.4595C37.1073 42.7459 35.0388 42.2196 32.935 41.8874C30.5108 41.4921 28.5271 42.7348 24.8444 43.5344C24.245 43.6661 20.1847 44.0435 19.8611 40.465C19.4775 36.0301 18.8393 36.2277 13.9939 33.308C10.2632 31.0621 0 28.6156 0 28.6156V29.3972C0 29.3972 2.03166 29.5798 7.94384 31.4365Z" fill="#D88E5E"/>
<path d="M41.628 37.6501C40.6032 37.0811 39.5604 36.3175 38.0501 35.3802C33.9718 32.8438 25.3628 28.6724 23.7446 28.0256C22.3392 27.4626 5.4657 17.1045 1.05179 14.3915C0.555975 14.9243 0.195288 15.5681 0 16.2691L0 20.2338C0 20.2338 12.4447 23.4769 20.0769 29.9152C22.6719 32.0952 29.453 40.5398 41.628 37.6501Z" fill="url(#paint0_linear_297_3224)"/>
<path d="M18.0625 25.3485C18.0625 25.3485 29.4763 30.8644 32.9613 32.8109C36.4463 34.7573 41.7652 38.1442 42.2506 38.246C42.6282 38.3238 42.2266 39.0006 32.9793 33.859C30.4982 32.4785 27.0941 31.0232 23.2405 28.6156C18.9944 25.9654 18.0625 25.3485 18.0625 25.3485Z" fill="#F6C3A2"/>
<path fill-rule="evenodd" clip-rule="evenodd" d="M48.3236 38.833C49.0351 38.6206 49.7695 38.4939 50.5111 38.4557C50.5472 38.5649 50.5552 38.6814 50.5342 38.7945C50.5133 38.9076 50.4641 39.0135 50.3912 39.1025C50.0256 39.402 48.827 39.4529 48.4524 39.2193C48.3999 39.1712 48.3605 39.1104 48.3379 39.0428C48.3154 38.9752 48.3105 38.903 48.3236 38.833Z" fill="#ED575C"/>
<path fill-rule="evenodd" clip-rule="evenodd" d="M50.2352 38.4826L50.5079 38.4557C50.544 38.5649 50.552 38.6814 50.531 38.7945C50.5101 38.9076 50.4609 39.0135 50.388 39.1025C50.3304 39.1479 50.2669 39.1852 50.1992 39.2133C50.2739 38.9769 50.2863 38.7252 50.2352 38.4826Z" fill="#FFF3EC"/>
<path fill-rule="evenodd" clip-rule="evenodd" d="M62.7477 10.8999C62.7237 9.74701 61.7019 9.22296 58.4057 11.1994C54.1596 13.7447 52.077 12.1486 41.2025 13.1159C30.328 14.0831 26.7022 13.601 18.5996 12.4301C10.4969 11.2592 0 9.46252 0 9.46252V24.9323C1.49827 26.0882 11.7105 25.7678 22.3422 23.8273C34.4962 21.6054 33.3875 23.1236 33.9718 23.8064C34.5562 24.4891 34.9457 26.1571 37.0613 26.729C39.2727 27.3279 42.521 24.4172 46.6322 21.9827C51.196 19.2876 55.3582 19.1738 57.252 18.2096C57.5678 18.0422 57.8559 17.827 58.106 17.5717C59.0529 17.8712 61.0816 17.5059 60.5362 16.5506C60.6387 16.5249 60.7389 16.4908 60.8359 16.4488C61.9026 15.9846 61.5011 14.9186 61.4502 14.8078L61.546 14.7569C61.6551 14.6943 61.7504 14.6103 61.8261 14.51C61.9018 14.4097 61.9565 14.2951 61.9867 14.1731C62.0169 14.0511 62.0222 13.9243 62.0021 13.8002C61.9819 13.6762 61.9369 13.5575 61.8697 13.4512C62.0295 13.3751 62.1762 13.2741 62.3042 13.1518C62.9934 12.469 62.6608 11.9001 62.484 11.6875C62.6385 11.4521 62.7293 11.1808 62.7477 10.8999Z" fill="#F0B186"/>
<path d="M62.7477 10.9C62.7451 10.8165 62.7361 10.7334 62.7207 10.6514C62.7221 10.6335 62.7221 10.6155 62.7207 10.5975C62.7067 10.5323 62.6877 10.4682 62.6638 10.4059C62.6651 10.3999 62.6651 10.3938 62.6638 10.3879C62.601 10.2447 62.4966 10.1236 62.3641 10.0405C62.3995 10.3767 62.3393 10.7161 62.1903 11.0196C62.0414 11.3231 61.8097 11.5785 61.5221 11.7564C61.5221 11.7564 62.0105 11.6067 61.9835 12.2565C61.9566 12.9063 59.9309 13.3195 59.7271 13.3645C59.9219 13.3225 61.4502 13.0261 61.4861 13.619C61.555 14.691 59.5114 14.4275 59.5114 14.4275L61.0486 14.7779C61.0773 14.9138 61.0691 15.0548 61.0248 15.1865C60.9805 15.3181 60.9019 15.4355 60.7969 15.5265C60.6081 15.7331 60.0777 15.7571 59.5983 15.7272C59.6871 15.7491 59.7713 15.7866 59.847 15.838C59.9135 15.9113 59.9645 15.9974 59.9969 16.091C60.0293 16.1845 60.0423 16.2837 60.0353 16.3825C60.0283 16.4812 60.0014 16.5776 59.9562 16.6657C59.9109 16.7537 59.8483 16.8318 59.7721 16.895C59.4245 17.1615 57.6745 16.6495 57.6745 16.6495C57.6745 16.6495 55.7268 17.6796 51.1181 18.2516C44.6485 19.0391 43.354 23.0518 39.7612 23.7615C37.0073 24.3095 36.465 23.5279 36.1174 22.4798C35.7698 21.4318 33.7711 18.1857 24.6825 19.3236C14.3565 20.6112 0 19.4733 0 19.4733V24.9324C1.49827 26.0883 11.7105 25.7678 22.3422 23.8274C34.4962 21.6054 33.3875 23.1237 33.9718 23.8064C34.0584 23.9109 34.1319 24.0255 34.1906 24.1478C34.3254 24.3934 34.4902 24.7168 34.658 25.0701C35.2458 25.8787 36.0911 26.4637 37.0553 26.7291C39.2787 27.2771 42.515 24.4173 46.6262 21.9827C47.1237 21.6833 47.6121 21.4318 48.0946 21.1952C51.4087 19.0391 55.1544 19.078 56.9883 18.3234C57.0782 18.2875 57.1651 18.2486 57.246 18.2096C57.5618 18.0422 57.8499 17.8271 58.1 17.5718C59.0469 17.8712 61.0756 17.5059 60.5302 16.5507C60.6327 16.5249 60.7329 16.4909 60.8299 16.4488C61.8966 15.9847 61.4951 14.9186 61.4442 14.8078L61.5401 14.7569C61.6491 14.6944 61.7444 14.6104 61.8201 14.5101C61.8959 14.4097 61.9505 14.2951 61.9807 14.1731C62.011 14.0512 62.0162 13.9243 61.9961 13.8003C61.9759 13.6762 61.9309 13.5575 61.8637 13.4513C62.0235 13.3752 62.1702 13.2741 62.2982 13.1519C62.9874 12.4691 62.6548 11.9001 62.478 11.6875C62.6346 11.4528 62.7275 11.1814 62.7477 10.9Z" fill="#ECAA7E"/>
<path fill-rule="evenodd" clip-rule="evenodd" d="M58.3907 17.6377H58.4956L58.6514 17.6526H58.7113C58.7772 17.6526 58.8432 17.6526 58.9121 17.6526H58.9361C59.2401 17.6494 59.5423 17.6061 59.835 17.5239C58.6544 17.0537 58.079 16.6255 57.7374 17.0058C56.9194 17.9042 54.5102 17.976 49.425 19.2996C44.3399 20.6232 41.3104 25.3696 38.2599 25.1779C35.3083 24.9892 35.8896 23.474 34.4663 21.9558C33.0429 20.4376 27.799 20.0093 18.0602 21.6563C12.0818 22.6491 5.98103 22.6572 0 21.6803L0 24.9324C1.49827 26.0882 11.7105 25.7678 22.3422 23.8274C34.4962 21.6054 33.3875 23.1237 33.9718 23.8064C34.0584 23.9109 34.1319 24.0255 34.1906 24.1478C34.3254 24.3933 34.4902 24.7167 34.6581 25.0701C35.2544 25.8699 36.0964 26.4525 37.0553 26.7291C39.2577 27.3639 42.515 24.4173 46.6263 21.9827C47.1237 21.6833 47.6121 21.4317 48.0946 21.1952C51.4087 19.0391 55.1544 19.078 56.9883 18.3234C57.0782 18.2875 57.1651 18.2485 57.246 18.2096C57.5618 18.0422 57.8499 17.827 58.1 17.5718C58.1609 17.5916 58.2229 17.6076 58.2858 17.6197C58.3248 17.6287 58.3577 17.6317 58.3907 17.6377Z" fill="#E7A376"/>
<path fill-rule="evenodd" clip-rule="evenodd" d="M62.7472 10.8999C62.7448 10.8237 62.7378 10.7477 62.7262 10.6723C62.7248 10.6624 62.7248 10.6523 62.7262 10.6424C62.7152 10.5813 62.6992 10.5212 62.6783 10.4627C62.6783 10.4627 62.6783 10.4627 62.6783 10.4447C62.6558 10.3853 62.6277 10.3282 62.5944 10.2741C62.5601 10.2173 62.5177 10.1659 62.4685 10.1213C62.7382 11.1904 61.8692 11.5887 61.2699 11.7354C61.1291 11.7354 60.9703 11.7623 60.8204 11.7863C60.2568 11.8761 59.7095 12.0487 59.1963 12.2984C60.092 11.9504 61.0556 11.8122 62.0131 11.8941C62.1359 12.0648 62.3726 12.493 62.082 12.7925C61.8662 13.0081 61.3538 13.1279 60.9613 13.1907C60.7066 13.1758 60.4429 13.1698 60.2211 13.1728C59.5199 13.1877 58.1655 13.8645 58.1655 13.8645C59.6638 13.3435 60.0983 13.3345 60.2241 13.3255C60.293 13.3255 60.8234 13.3764 61.2729 13.4333C61.3865 13.4879 61.4767 13.5814 61.5273 13.6967C61.5778 13.8121 61.5854 13.9417 61.5486 14.0622C61.506 14.1806 61.4338 14.2863 61.3389 14.3691C61.2439 14.4519 61.1295 14.5091 61.0062 14.5353C60.4758 14.4784 59.5889 14.3856 59.427 14.3826C58.9057 14.5163 58.3941 14.6854 57.8958 14.8886C57.8958 14.8886 59.3461 14.5383 59.5649 14.5143C60.0576 14.5987 60.5426 14.7229 61.0152 14.8856C61.165 15.0683 61.0811 15.3498 61.0152 15.5804C60.9674 15.6984 60.8883 15.8013 60.7864 15.8778C60.6845 15.9543 60.5637 16.0016 60.4369 16.0146C60.0174 15.802 59.2682 15.4366 59.0824 15.4576C57.9018 15.5774 57.4883 15.9008 57.4883 15.9008C57.4883 15.9008 58.8277 15.3378 59.4211 15.7511C59.7225 15.9558 59.9991 16.195 60.2451 16.4638C60.246 16.6485 60.1738 16.8261 60.0443 16.9579C59.6128 17.443 58.2284 16.9159 58.2284 16.9159L58.4322 17.6616C58.4921 17.6616 58.5521 17.6616 58.615 17.6796H58.8008H58.8217C58.8847 17.6796 58.9476 17.6796 59.0105 17.6796H59.0285C59.3549 17.6682 59.6775 17.6055 59.9844 17.4939H60.0024L60.1402 17.434H60.1702C60.2112 17.4136 60.2503 17.3895 60.2871 17.3621H60.311C60.3467 17.3374 60.3807 17.3104 60.4129 17.2813H60.4279C60.5127 17.2062 60.5694 17.1044 60.5885 16.9928C60.6075 16.8812 60.5879 16.7664 60.5328 16.6674C60.5328 16.6494 60.5328 16.6315 60.5088 16.6105H60.5537C60.6459 16.5892 60.7362 16.5602 60.8234 16.5237C60.8811 16.4993 60.9372 16.4713 60.9912 16.4398L61.0362 16.4129L61.1351 16.341L61.174 16.311C61.2091 16.2824 61.2421 16.2514 61.2729 16.2182C61.3054 16.1834 61.3354 16.1464 61.3628 16.1074L61.3808 16.0805C61.3988 16.0505 61.4167 16.0206 61.4317 15.9906L61.4467 15.9547C61.4467 15.9218 61.4737 15.8888 61.4857 15.8559C61.487 15.85 61.487 15.8438 61.4857 15.8379C61.4985 15.7987 61.5085 15.7587 61.5156 15.7181C61.5156 15.7181 61.5156 15.7002 61.5156 15.6912C61.5156 15.6822 61.5156 15.6313 61.5156 15.6013C61.5141 15.5884 61.5141 15.5753 61.5156 15.5624V15.4816C61.5156 15.4816 61.5156 15.4606 61.5156 15.4486C61.5156 15.4366 61.5156 15.3797 61.5156 15.3468C61.5156 15.3139 61.5156 15.3229 61.5156 15.3079C61.5142 15.2889 61.5142 15.2699 61.5156 15.251V15.2031V15.1671V15.1162C61.4982 15.0404 61.4741 14.9663 61.4437 14.8946L61.5396 14.8437L61.5786 14.8138C61.6907 14.7451 61.7864 14.6526 61.8589 14.5429C61.9314 14.4332 61.9789 14.309 61.9981 14.1789C62.0025 14.1261 62.0025 14.073 61.9981 14.0202C61.9906 13.8802 61.956 13.7429 61.8962 13.616C61.8962 13.586 61.8722 13.5621 61.8602 13.5381L61.9831 13.4662C62.035 13.4363 62.086 13.4034 62.1359 13.3674C62.192 13.3286 62.2451 13.2855 62.2947 13.2387C62.9839 12.5559 62.6513 11.9869 62.4745 11.7743C62.6472 11.5149 62.7419 11.2114 62.7472 10.8999Z" fill="#E7A376"/>
<path fill-rule="evenodd" clip-rule="evenodd" d="M62.7477 10.8999C62.7441 10.8085 62.7341 10.7174 62.7177 10.6274C62.7177 10.6064 62.7177 10.5855 62.7027 10.5645C62.6877 10.5435 62.6847 10.4956 62.6727 10.4597C62.6608 10.4238 62.6428 10.3758 62.6248 10.3369C62.7567 10.9748 62.1274 11.5916 62.2862 11.7713C62.445 11.951 62.448 12.3702 62.457 12.6217C62.466 12.8733 61.6599 13.3794 61.6599 13.3794L61.7738 13.8375C61.8847 14.2957 61.2674 14.7059 61.2674 14.7059C61.3427 14.9743 61.3427 15.2581 61.2674 15.5264C61.1535 16.0894 60.3294 16.3649 60.3294 16.3649C60.3294 16.3649 60.6681 16.7482 60.0298 17.1705C59.3915 17.5927 57.9142 17.2723 57.9142 17.2723C57.9142 17.2723 56.8085 18.3024 53.794 18.6947C50.7795 19.087 47.6361 20.7609 47.6361 20.7609C44.6815 22.4888 41.625 24.4592 40.3185 25.3575C37.1542 27.5316 35.0596 25.097 34.5592 23.8992C34.0587 22.7014 33.6422 21.9138 29.465 22.363C26.1299 22.7103 21.6021 23.6656 12.4956 24.6748C3.38909 25.6839 0 24.4681 0 24.4681V24.4891V24.9323C1.49827 26.0882 11.7105 25.7678 22.3422 23.8273C34.4962 21.6054 33.3875 23.1236 33.9718 23.8063C34.0584 23.9108 34.1319 24.0254 34.1906 24.1477C34.3254 24.3933 34.4902 24.7167 34.658 25.07C35.2374 25.8872 36.0861 26.4745 37.0553 26.729C39.2667 27.3279 42.515 24.4172 46.6262 21.9827C51.19 19.2876 55.3522 19.1738 57.246 18.2096C57.5618 18.0421 57.8499 17.827 58.1 17.5717C59.0469 17.8712 61.0756 17.5058 60.5302 16.5506C60.6327 16.5249 60.7329 16.4908 60.8299 16.4488C61.8966 15.9846 61.4951 14.9186 61.4442 14.8078L61.5401 14.7569C61.6491 14.6943 61.7444 14.6103 61.8201 14.51C61.8959 14.4097 61.9505 14.2951 61.9807 14.1731C62.011 14.0511 62.0162 13.9242 61.9961 13.8002C61.9759 13.6761 61.9309 13.5574 61.8637 13.4512C62.0235 13.3751 62.1702 13.274 62.2982 13.1518C62.9874 12.469 62.6548 11.9001 62.478 11.6875C62.6346 11.4527 62.7275 11.1813 62.7477 10.8999Z" fill="#D88E5E"/>
<path fill-rule="evenodd" clip-rule="evenodd" d="M59.582 10.5375C60.2422 10.1594 60.9739 9.9228 61.7306 9.84277C61.7714 9.95043 61.7845 10.0666 61.7688 10.1806C61.7531 10.2947 61.709 10.4029 61.6407 10.4956C61.2931 10.819 60.0974 10.9178 59.7109 10.7022C59.6551 10.6586 59.6109 10.6021 59.582 10.5375Z" fill="#ED575C"/>
<path fill-rule="evenodd" clip-rule="evenodd" d="M61.4561 9.87572L61.7258 9.83679C61.7666 9.94444 61.7798 10.0606 61.7641 10.1746C61.7484 10.2887 61.7043 10.397 61.6359 10.4896C61.5811 10.5373 61.5195 10.5766 61.4531 10.6064C61.5158 10.367 61.5168 10.1156 61.4561 9.87572Z" fill="#FFF3EC"/>
<path fill-rule="evenodd" clip-rule="evenodd" d="M61.9061 11.8941C61.972 11.9959 61.9661 12.2774 61.8012 12.2684C61.4746 12.2474 61.0911 12.1636 60.7734 12.1276C60.6596 12.1276 60.5936 11.9989 60.6805 11.9629C61.0772 11.8396 61.4981 11.816 61.9061 11.8941Z" fill="#ED575C"/>
<path fill-rule="evenodd" clip-rule="evenodd" d="M61.9034 11.8941C61.9693 11.9959 61.9633 12.2774 61.7985 12.2684L61.7266 12.2714C61.7676 12.2162 61.7915 12.1501 61.7952 12.0814C61.799 12.0127 61.7824 11.9445 61.7475 11.8851L61.9034 11.8941Z" fill="#FFF3EC"/>
<path fill-rule="evenodd" clip-rule="evenodd" d="M61.3585 13.4872C61.4004 13.589 61.4184 13.9573 61.2716 13.9184C60.9995 13.8299 60.7389 13.7093 60.4954 13.559C60.4026 13.5111 60.3816 13.3704 60.4355 13.3614C60.7488 13.3083 61.0708 13.3522 61.3585 13.4872Z" fill="#ED575C"/>
<path fill-rule="evenodd" clip-rule="evenodd" d="M61.3619 13.4872C61.4039 13.5891 61.4219 13.9574 61.275 13.9185L61.2031 13.9005C61.317 13.8226 61.2541 13.5082 61.2211 13.4393L61.3619 13.4872Z" fill="#FFF3EC"/>
<path fill-rule="evenodd" clip-rule="evenodd" d="M60.1136 14.6191C60.4014 14.6627 60.6844 14.7339 60.9586 14.8318C61.0035 14.9725 60.9826 15.2929 60.7698 15.227C60.3952 15.1073 59.9128 14.9156 60.1136 14.6191Z" fill="#FFD2B4"/>
<path fill-rule="evenodd" clip-rule="evenodd" d="M60.83 14.7898L60.9559 14.8317C61.0068 14.9934 60.9858 15.2929 60.7461 15.215C60.7961 15.1577 60.8302 15.0882 60.8449 15.0136C60.8597 14.939 60.8545 14.8618 60.83 14.7898Z" fill="#FFF3EC"/>
<path fill-rule="evenodd" clip-rule="evenodd" d="M60.0299 16.2571C59.9969 16.3829 59.94 16.5416 59.7962 16.5566C59.7153 16.5566 59.4965 16.341 59.3916 16.1613C59.3317 16.0535 59.2987 15.8289 59.4755 15.8798C59.6918 15.9516 59.8838 16.0823 60.0299 16.2571Z" fill="#ED575C"/>
<path fill-rule="evenodd" clip-rule="evenodd" d="M60.0307 16.2571C59.9977 16.3829 59.9408 16.5416 59.7969 16.5566C59.77 16.5566 59.755 16.5566 59.707 16.5207C59.7675 16.4804 59.8188 16.4279 59.8575 16.3665C59.8963 16.3051 59.9216 16.2362 59.9318 16.1643C59.9677 16.1913 60.0007 16.2242 60.0307 16.2571Z" fill="#FFF3EC"/>
<path fill-rule="evenodd" clip-rule="evenodd" d="M39.0359 17.1704C37.3219 16.1014 35.5 17.6645 32.6562 16.6404C35.7577 20.165 38.4456 18.1377 38.8381 20.7519C40.1566 19.587 40.6271 18.1646 39.0359 17.1704Z" fill="url(#paint1_linear_297_3224)"/>
<path fill-rule="evenodd" clip-rule="evenodd" d="M39.0338 17.1705C37.5505 16.2452 35.9893 17.2903 33.7539 16.9279C36.1092 17.7514 38.0809 16.9279 40.0167 18.4462C39.9562 18.1746 39.8368 17.9197 39.667 17.6993C39.4972 17.4788 39.281 17.2983 39.0338 17.1705Z" fill="#F6C3A2"/>
<path fill-rule="evenodd" clip-rule="evenodd" d="M55.5494 12.8704C54.8033 15.823 50.7849 16.8172 48.0581 16.9699C43.9199 17.2005 39.3231 13.4992 34.0312 14.0772C41.6275 13.2716 46.4459 12.9842 55.5494 12.8704Z" fill="url(#paint2_linear_297_3224)"/>
<path fill-rule="evenodd" clip-rule="evenodd" d="M54.1849 13.0081C52.6867 13.9064 50.0168 14.2059 47.2779 14.3766C43.1397 14.6071 39.7865 12.9871 34.2969 14.0771C35.9929 13.3464 45.0814 13.1278 54.1849 13.0081Z" fill="#F6C3A2"/>
<path fill-rule="evenodd" clip-rule="evenodd" d="M34.1097 13.583C33.4265 13.6249 32.6863 13.6399 31.8952 13.6309C27.2176 13.6579 23.8465 13.1877 18.5996 12.4331C10.4879 11.2622 0 9.46252 0 9.46252V16.4638C6.89205 17.3112 14.5572 16.353 21.7579 15.1611C26.5134 14.3736 31.3888 14.5892 35.1854 13.5531L34.1097 13.583Z" fill="url(#paint3_linear_297_3224)"/>
<path d="M34.1307 13.583H34.0467C33.3915 13.6229 32.6853 13.6379 31.9282 13.6279C27.2356 13.6549 23.8585 13.1877 18.5996 12.4301C10.4879 11.2622 0 9.46252 0 9.46252V10.3609C11.282 12.5529 22.7737 14.5922 34.1307 13.583Z" fill="#F6C3A2"/>
</g>
<circle cx="58.8793" cy="13.4999" r="12.6215" stroke="#2CC8CC"/>
<path d="M49.8789 4.83643L67.4583 22.4159" stroke="#2CC8CC"/>
<defs>
<linearGradient id="paint0_linear_297_3224" x1="29.7917" y1="44.4806" x2="9.59128" y2="9.46572" gradientUnits="userSpaceOnUse">
<stop stop-color="#F0B186"/>
<stop offset="1" stop-color="#F5BC95"/>
</linearGradient>
<linearGradient id="paint1_linear_297_3224" x1="35.9649" y1="18.9116" x2="36.3711" y2="17.7397" gradientUnits="userSpaceOnUse">
<stop stop-color="#F0B186"/>
<stop offset="1" stop-color="#F5BC95"/>
</linearGradient>
<linearGradient id="paint2_linear_297_3224" x1="44.9906" y1="16.3069" x2="44.9536" y2="14.8986" gradientUnits="userSpaceOnUse">
<stop stop-color="#F0B186"/>
<stop offset="1" stop-color="#F5BC95"/>
</linearGradient>
<linearGradient id="paint3_linear_297_3224" x1="17.6047" y1="15.1162" x2="16.9852" y2="9.39656" gradientUnits="userSpaceOnUse">
<stop stop-color="#F0B186"/>
<stop offset="1" stop-color="#F5BC95"/>
</linearGradient>
<clipPath id="clip0_297_3224">
<rect width="62.7477" height="35.1589" fill="white" transform="translate(0 9.46252)"/>
</clipPath>
</defs>
</svg>
