<svg width="81" height="78" viewBox="0 0 81 78" fill="none" xmlns="http://www.w3.org/2000/svg">
<path fill-rule="evenodd" clip-rule="evenodd" d="M23.7201 9.14174C19.5821 9.8952 16.0066 12.8289 14.5734 16.6466C14.1263 17.8374 13.8671 19.0785 13.742 20.6269L13.6444 21.8335H14.4044C15.2514 21.8335 15.3318 21.7505 15.3318 20.875C15.3318 20.5878 15.4267 19.8085 15.5428 19.1432C16.3326 14.6138 19.9645 11.1855 24.5011 10.687C25.6065 10.5655 27.8077 10.6834 27.9986 10.8743C28.047 10.9227 27.9005 11.0948 27.6732 11.2568C26.7657 11.9032 25.4703 13.2728 24.7774 14.3182C23.5691 16.1415 23.0527 17.6333 22.7866 20.07C22.5768 21.989 22.5183 21.8335 23.4498 21.8335H24.2594L24.3586 20.566C24.5451 18.1811 25.2179 16.3533 26.5725 14.5512C27.2898 13.5971 28.5044 12.5482 29.5528 11.9776L30.2273 11.6105L31.0188 12.0578C32.0105 12.6184 34.0048 14.6144 34.6185 15.6612C35.4342 17.052 35.9051 18.6681 35.9848 20.3497L36.0551 21.8335H36.8837H37.7124L37.6292 20.4201C37.3118 15.0275 33.862 10.7824 28.6303 9.34596C27.6898 9.08782 24.6992 8.96344 23.7201 9.14174ZM32.9321 9.12037C32.542 9.21482 32.5491 9.2242 33.5072 9.87838C34.4122 10.496 34.5594 10.5491 35.695 10.6674C37.2283 10.8272 38.155 11.1004 39.4635 11.7782C41.4835 12.8248 42.9352 14.3163 43.9484 16.3866C44.6973 17.9167 44.9746 19.0597 44.9772 20.6269L44.9793 21.8335H45.8067H46.6341V20.8247C46.6341 17.3818 44.9953 13.9635 42.2542 11.6889C41.2008 10.8148 39.0115 9.69939 37.6709 9.3541C36.7184 9.10864 33.6123 8.95544 32.9321 9.12037ZM4.8465 23.7738C4.76238 23.9309 3.6024 36.0621 2.26868 50.7318C-0.0799567 76.566 -0.148353 77.4129 0.0939293 77.6806C0.341727 77.9546 0.506926 77.9569 19.3183 77.9569H38.2929L40.7458 50.895C42.095 36.0109 43.196 23.7555 43.1927 23.6606C43.1879 23.5235 39.2728 23.4882 24.093 23.4882H4.99928L4.8465 23.7738ZM44.8384 23.6606C44.8369 23.7555 43.7583 35.6541 42.4415 50.1021C41.1249 64.5501 40.0651 76.391 40.0868 76.4151C40.1083 76.4393 42.0867 75.0799 44.4832 73.3941L48.8404 70.3291V46.9087V23.4882H46.8409C45.3348 23.4882 44.8407 23.5307 44.8384 23.6606ZM50.3572 46.9001V70.3119L54.7354 73.498C57.1433 75.2503 59.1285 76.6136 59.1467 76.5275C59.165 76.4415 58.1046 64.5685 56.7905 50.1432C55.1451 32.0831 54.3457 23.8487 54.2238 23.7017C54.08 23.5285 53.6989 23.4882 52.202 23.4882H50.3572V46.9001ZM45.2289 74.827L40.8779 77.888L45.2139 77.9244C47.5986 77.9444 51.4637 77.9444 53.8028 77.9244L58.0559 77.888L53.9818 74.9232C51.7412 73.2926 49.8339 71.9152 49.7439 71.8622C49.6476 71.8057 47.7811 73.0315 45.2289 74.827Z" fill="#F2FAFA"/>
<path d="M56.1826 0.64925L56.1826 0.649247C62.3748 -0.0388176 68.2158 1.6664 72.7357 5.46385C76.5182 8.64168 79.052 13.1174 80.0323 18.3904L80.0323 18.3905C80.1685 19.1226 80.2511 20.5495 80.2645 22.0048C80.278 23.4616 80.2213 24.8699 80.0993 25.5672C79.4921 29.0385 78.3278 32.0247 76.5363 34.7263C76.3214 35.0503 75.2002 36.4659 73.5972 38.4506C72.0065 40.4201 69.9667 42.9191 67.9406 45.3847C65.9145 47.8504 63.9028 50.2817 62.368 52.1157C61.6004 53.0329 60.9532 53.7995 60.4835 54.3459C60.2484 54.6194 60.0596 54.8356 59.9231 54.9873C59.8546 55.0635 59.8019 55.1205 59.7645 55.1592C59.7541 55.1699 59.7461 55.178 59.7401 55.1839C59.6913 55.2099 59.6011 55.2438 59.4631 55.2714C59.3089 55.3021 59.1261 55.3189 58.9373 55.3189C58.7485 55.3188 58.5656 55.3018 58.4113 55.2708C58.273 55.2431 58.1825 55.209 58.1334 55.1828C58.1275 55.1769 58.1194 55.1688 58.109 55.158C58.0715 55.1193 58.0188 55.0623 57.9503 54.9861C57.8138 54.8345 57.625 54.6182 57.3899 54.3447C56.9202 53.7984 56.2731 53.032 55.5057 52.1149C53.9712 50.2812 51.9599 47.8504 49.9342 45.3852C47.9085 42.9199 45.8691 40.4212 44.2785 38.4517C42.6757 36.4671 41.5544 35.0512 41.339 34.7263L40.9242 35.0014L41.339 34.7263C39.5472 32.0243 38.3832 29.0384 37.776 25.5672L37.2834 25.6534L37.776 25.5672C37.6552 24.8769 37.5985 23.4684 37.6111 22.0133C37.6236 20.5592 37.7045 19.1375 37.8381 18.4226L37.3467 18.3308L37.8381 18.4226C39.1067 11.6314 42.8075 6.32609 48.4325 3.18704C50.741 1.89884 53.731 0.921556 56.1826 0.64925ZM59.7618 55.1712C59.7616 55.1713 59.7614 55.1715 59.7612 55.1716C59.7614 55.1715 59.7617 55.1713 59.7619 55.1711L59.7618 55.1712ZM52.4476 27.8014L52.4476 27.8014L50.539 19.6916L50.0498 19.5879C50.0498 19.5879 50.0498 19.5879 50.0498 19.5879C49.4179 22.5703 50.322 25.6802 52.4476 27.8014Z" fill="#F2FAFA" stroke="#2AC8CE"/>
</svg>
