<svg width="49" height="69" viewBox="0 0 49 69" fill="none" xmlns="http://www.w3.org/2000/svg">
<g clip-path="url(#clip0_297_3163)">
<path d="M22.3177 0.00404964L38.146 0.00689307C38.146 0.00689307 37.7113 10.1669 37.638 16.4244C37.5647 22.6819 37.2041 22.4655 38.1412 26.6326C39.0783 30.7996 43.8231 43.0992 44.8279 45.1853C45.8328 47.2713 47.4913 51.6547 47.924 52.4478C48.3567 53.2409 48.7843 56.0093 47.9233 56.4368C47.0623 56.8644 47.0575 56.6914 47.0575 56.6914C47.0575 56.6914 47.9903 58.3785 47.4513 59.8539C46.9124 61.3293 45.4743 61.5068 44.9694 61.0021C44.4645 60.4974 46.8062 63.4487 44.2858 64.669C42.4916 65.5434 42.6313 64.6687 42.6313 64.6687C42.6313 64.6687 42.5252 66.322 41.2987 66.7543C40.0721 67.1866 39.6442 66.754 39.6442 66.754C39.2749 67.4998 38.6684 68.102 37.9198 68.4663C37.1712 68.8306 36.3228 68.9364 35.5076 68.767C32.5209 68.2282 31.4251 64.1861 30.7953 62.5183C30.1656 60.8504 28.6422 53.9775 28.2241 52.2232C27.806 50.4689 26.783 42.481 24.9464 38.9338C23.1097 35.3866 20.0569 28.768 22.3133 24.6448C24.5697 20.5216 25.4308 19.3683 22.3177 0.00404964Z" fill="#F0B186"/>
<path d="M44.829 45.1852C43.8242 43.0992 39.0601 30.8044 38.1422 26.6325C37.2244 22.4607 37.5658 22.677 37.6391 16.4243C37.7123 10.1716 38.147 0.0068499 38.147 0.0068499L34.1503 0.00613192C33.9809 5.7734 33.5493 25.7906 35.5349 29.881C37.8618 34.6875 45.8721 48.2901 47.3094 52.7024C47.7901 54.1443 48.1122 55.0575 48.3573 55.6871C48.4981 54.5881 48.3491 53.4715 47.9251 52.4478C47.4923 51.6547 45.8386 47.2712 44.829 45.1852Z" fill="#ECAA7E"/>
<path d="M37.2902 21.2544C37.3361 33.2696 42.1301 39.999 42.1301 39.999C42.1301 39.999 49.2024 53.837 48.1296 55.7111C47.3742 57.0135 46.5088 55.3119 46.7924 56.1242C47.0761 56.9365 47.3546 59.3636 46.7917 60.2142C46.2288 61.0648 45.0505 60.8964 45.0409 61.0165C45.0391 61.0325 45.0391 61.0486 45.0409 61.0646C45.5987 61.4876 46.931 61.2619 47.4459 59.8539C47.9607 58.4458 47.153 56.8788 47.0617 56.7058C47.0905 56.7395 47.2396 56.7779 47.9178 56.4368C48.7788 56.0092 48.3465 53.2409 47.9185 52.4478C47.4906 51.6547 45.8369 47.2713 44.8273 45.1852C43.8177 43.0992 39.0584 30.8044 38.1405 26.6326C37.2227 22.4607 37.5641 22.677 37.6374 16.4243C37.7106 10.1717 38.1453 0.00686699 38.1453 0.00686699L37.6644 0.00678059C37.6644 0.00678059 37.2683 9.22477 37.2902 21.2544Z" fill="#E7A376"/>
<path d="M22.3112 24.64C20.0548 28.7632 23.1221 35.3769 24.9443 38.929C26.7665 42.481 27.8039 50.4641 28.222 52.2184C28.6402 53.9727 30.1443 60.836 30.7933 62.5135C31.4423 64.1909 32.5189 68.2282 35.5055 68.7622C36.3208 68.9316 37.1692 68.8258 37.9178 68.4615C38.6664 68.0972 39.2729 67.495 39.6421 66.7492C39.6421 66.7492 40.0749 67.1818 41.2966 66.7495C42.4414 66.346 42.61 64.8754 42.6292 64.6879C42.6292 64.8081 42.6676 65.5002 44.2837 64.6642C46.2558 63.6505 45.2029 61.4827 44.8423 60.6897C44.9624 61.4298 45.3708 63.7416 44.2597 64.3182C42.8167 65.0628 42.4611 63.3855 42.3985 63.7603C42.336 64.1352 42.6387 65.8029 41.3448 66.2641C40.0509 66.7252 38.3346 63.0435 39.0797 64.9036C39.8249 66.7637 38.1796 69.0751 35.0728 68.32C31.9659 67.5649 25.9649 33.5175 24.9076 28.9083C23.8504 24.2991 26.3521 19.8971 26.2573 12.3227C26.1625 4.74834 24.9128 0.00451583 24.9128 0.00451583L22.3157 0.00404927C25.4288 19.3683 24.5629 20.5216 22.3112 24.64Z" fill="#E7A376"/>
<path d="M22.3112 24.64C20.0548 28.7632 23.1221 35.3769 24.9443 38.929C26.7665 42.481 27.8039 50.4641 28.222 52.2184C28.6402 53.9727 30.1443 60.836 30.7933 62.5135C31.3077 63.8833 32.1344 66.8392 34.0484 68.1564C30.913 65.6374 29.8905 54.6457 28.7612 49.7241C27.5501 44.3555 24.436 30.6672 23.9554 28.3794C23.4749 26.0917 24.1293 24.4241 24.895 19.0798C25.6606 13.7356 23.3834 0.00424108 23.3834 0.00424108L22.3157 0.00404927C25.4288 19.3683 24.5629 20.5216 22.3112 24.64Z" fill="#D88E5E"/>
<path d="M16.2247 0.00291255L0.0117188 0C0.0117188 0 5.67026 12.8477 6.62692 15.3422C7.58357 17.8367 8.15951 24.5413 8.83237 27.228C9.50522 29.9148 9.89 29.8187 8.92574 42.8526C7.96149 55.8865 7.86969 58.2319 8.73037 59.5153C8.8185 59.684 8.94028 59.8329 9.08819 59.9528C9.23611 60.0727 9.40702 60.161 9.59041 60.2124C9.7738 60.2638 9.96578 60.2771 10.1545 60.2515C10.3432 60.2258 10.5247 60.1619 10.6878 60.0635C10.6878 60.0635 10.5768 61.9859 12.1302 62.6494C13.6835 63.313 14.4291 63.0824 14.4675 62.9767C14.506 62.8709 14.0344 64.7741 16.7709 65.135C18.4158 65.3516 18.642 64.4144 18.642 64.4144C18.642 64.4144 18.0981 66.7165 19.4303 67.1444C20.7624 67.5724 22.667 67.4334 22.9221 66.8615C23.0972 66.3963 23.2183 65.9125 23.283 65.4197C23.283 65.4197 23.3885 67.5777 25.2978 67.8664C27.2071 68.1551 30.8961 67.7857 30.8005 64.8107C30.7048 61.8357 27.8791 49.2577 27.115 45.6146C26.3509 41.9714 25.0491 33.4644 23.8039 30.5854C22.5588 27.7063 21.5981 20.521 19.6799 16.1087C17.7617 11.6964 16.2247 0.00291255 16.2247 0.00291255Z" fill="#F0B186"/>
<path d="M40.2239 66.9415C39.6182 65.3073 36.806 57.7565 36.5078 57.6699C36.5078 57.6699 39.1133 65.1006 39.5265 66.9798C39.5704 66.9066 39.6106 66.8312 39.6468 66.754C39.8122 66.8804 40.0158 66.9465 40.2239 66.9415Z" fill="#E7A376"/>
<path d="M40.1151 56.4931L40.043 56.2432C40.0611 56.3281 40.0852 56.4116 40.1151 56.4931Z" fill="#E7A376"/>
<path d="M40.1133 56.493L42.5742 65.0435C42.6004 64.9278 42.6197 64.8106 42.632 64.6927C42.632 64.7792 42.6319 65.1348 43.2524 65.0388C42.9111 64.14 40.5555 57.8388 40.1133 56.493Z" fill="#E7A376"/>
<path d="M42.8086 54.6096L44.9525 60.9781L44.9814 60.9781C45.0826 61.0676 45.2006 61.1362 45.3286 61.18C45.4565 61.2237 45.5919 61.2417 45.7268 61.2329C44.8806 59.3872 42.8855 54.8932 42.8086 54.6096Z" fill="#E7A376"/>
<path d="M45.0352 61.2472L45.4389 62.4872C45.3647 62.0566 45.2287 61.639 45.0352 61.2472Z" fill="#E7A376"/>
<path d="M47.3994 56.6674C46.6831 55.2255 45.1013 52.0292 44.7695 51.4668L47.505 57.9122C47.4069 57.4944 47.2601 57.0895 47.0676 56.7058C47.0676 56.7058 47.1589 56.7491 47.3994 56.6674Z" fill="#E7A376"/>
<path d="M9.26308 59.5249C9.26308 59.5249 9.13822 58.4627 9.80194 58.4629C10.4657 58.463 10.5954 59.1118 10.5953 59.3954C10.5953 59.6789 9.19089 59.794 9.26308 59.5249Z" fill="#ED575C"/>
<path d="M12.3755 62.0247C12.3755 62.0247 12.5201 60.5829 13.4002 60.6119C14.2804 60.6409 14.2994 61.8953 14.2127 62.2365C14.1261 62.5778 12.3322 62.2843 12.3755 62.0247Z" fill="#ED575C"/>
<path d="M15.758 63.7506C15.758 63.7506 15.7101 62.3521 16.6576 62.2561C18.062 62.1122 17.7395 63.8759 17.7395 63.8759C17.7395 63.8759 15.9551 64.1063 15.758 63.7506Z" fill="#ED575C"/>
<path d="M20.0741 66.2458C20.0741 66.2458 20.0359 64.6838 21.171 64.612C22.306 64.5401 22.2672 66.4289 22.2672 66.4289C22.2672 66.4289 20.199 66.6976 20.0741 66.2458Z" fill="#ED575C"/>
<path d="M25.149 65.8478C25.149 65.8478 24.8947 62.5604 25.8133 62.3924C26.6561 62.1951 27.5266 62.1449 28.3865 62.2438C29.1079 62.3834 29.1603 65.0988 29.0496 65.5554C28.9389 66.0119 25.1682 66.3284 25.149 65.8478Z" fill="#ED575C"/>
<path fill-rule="evenodd" clip-rule="evenodd" d="M14.2129 62.2366C14.2323 62.1481 14.2436 62.058 14.2467 61.9674C13.6355 62.1392 12.9823 62.0774 12.4142 61.7941C12.3975 61.8703 12.3847 61.9473 12.3757 62.0248C12.3324 62.2843 14.1215 62.5778 14.2129 62.2366Z" fill="#E6444A"/>
<path fill-rule="evenodd" clip-rule="evenodd" d="M9.26047 59.4144C9.26046 59.4817 9.26045 59.525 9.26045 59.525C9.18826 59.7941 10.5927 59.6838 10.5927 59.3954C10.597 59.3459 10.597 59.296 10.5927 59.2465C10.1657 59.3966 9.71147 59.4539 9.26047 59.4144Z" fill="#E6444A"/>
<path fill-rule="evenodd" clip-rule="evenodd" d="M15.7695 63.4912C15.7695 63.645 15.7695 63.7507 15.7695 63.7507C15.9666 64.1064 17.751 63.876 17.751 63.876C17.751 63.876 17.751 63.7511 17.7799 63.5781C17.1127 63.7126 16.4227 63.6828 15.7695 63.4912Z" fill="#E6444A"/>
<path fill-rule="evenodd" clip-rule="evenodd" d="M20.0859 66.0199C20.0859 66.1593 20.0859 66.2458 20.0859 66.2458C20.2109 66.6976 22.279 66.4288 22.279 66.4288C22.287 66.304 22.287 66.1788 22.2791 66.0539C21.5602 66.2555 20.7982 66.2436 20.0859 66.0199Z" fill="#E6444A"/>
<path fill-rule="evenodd" clip-rule="evenodd" d="M26.9197 65.5309C25.8424 65.6317 25.3374 65.4297 25.121 65.2855C25.121 65.6267 25.1498 65.8526 25.1498 65.8526C25.1497 66.3332 28.9445 66.0167 29.0504 65.5602C29.0846 65.3376 29.0959 65.1122 29.0842 64.8873C28.4143 65.2475 27.6777 65.4666 26.9197 65.5309Z" fill="#E6444A"/>
<path d="M18.6835 63.4436C18.6835 63.4051 18.6835 63.3715 18.6835 63.3331C18.7606 62.8765 18.7125 63.0255 18.6835 63.4436Z" fill="#ECAA7E"/>
<path d="M6.62692 15.3422C7.58838 17.8319 8.15951 24.5413 8.83237 27.228C9.50522 29.9148 9.89 29.8187 8.92574 42.8526C7.96149 55.8865 7.86969 58.2319 8.73037 59.5153C8.8185 59.684 8.94028 59.8329 9.08819 59.9528C9.23611 60.0727 9.40702 60.161 9.59041 60.2124C9.7738 60.2638 9.96578 60.2771 10.1545 60.2515C10.3432 60.2258 10.5247 60.1619 10.6878 60.0635C10.6878 60.0635 10.5768 61.9859 12.1302 62.6494C13.6835 63.313 14.4291 63.0824 14.4675 62.9767C14.506 62.8709 14.0344 64.7741 16.7709 65.135C18.4158 65.3516 18.642 64.4144 18.642 64.4144C18.642 64.4144 18.0981 66.7165 19.4303 67.1444C20.7624 67.5724 22.667 67.4334 22.9221 66.8615C23.0972 66.3963 23.2183 65.9125 23.283 65.4197C23.283 65.4197 23.3885 67.5777 25.2978 67.8664C27.2071 68.1551 30.8961 67.7857 30.8005 64.8107C30.8006 64.4118 30.7237 63.8495 30.6228 63.1382C30.6011 63.9431 30.527 64.7458 30.4012 65.5412C30.069 67.0887 26.5291 67.6456 25.2114 67.083C23.8937 66.5205 23.7021 61.9306 23.7021 61.9306C23.7021 61.9306 23.3987 63.8241 23.1099 65.5399C22.821 67.2556 21.2531 67.0438 19.6805 66.6591C18.6224 66.4042 18.6276 64.3279 18.6903 63.4388C18.4496 64.7797 16.8431 64.8226 15.6168 64.1928C14.3905 63.563 15.2091 58.0938 15.2091 58.0938C15.2091 58.0938 14.588 61.9049 14.3907 62.3759C14.1934 62.8469 12.5149 62.7841 11.7311 61.9525C10.9473 61.1209 11.987 56.2814 11.987 56.2814L10.7504 59.6454C10.7504 59.6454 8.99952 60.6063 8.947 58.4291C8.61289 44.1838 13.1155 39.4555 12.8 28.4495C12.4846 17.4435 3.90746 0.000699842 3.90746 0.000699842L0.0117188 0C0.0117188 0 5.67026 12.8477 6.62692 15.3422Z" fill="#ECAA7E"/>
<path d="M6.62692 15.3422C7.58838 17.8319 8.15951 24.5413 8.83237 27.228C9.50522 29.9148 9.89 29.8187 8.92574 42.8526C8.35683 50.5422 8.0916 54.5216 8.14892 56.7469C8.32729 54.3823 8.60207 50.8258 9.25701 46.1737C10.302 38.7629 10.9533 27.4303 9.69938 19.9854C8.44543 12.5406 1.74798 0.000311906 1.74798 0.000311906L0.0117188 0C0.0117188 0 5.67026 12.8477 6.62692 15.3422Z" fill="#E7A376"/>
<path opacity="0.5" fill-rule="evenodd" clip-rule="evenodd" d="M8.97762 25.4258C8.11717 22.8351 9.96909 21.5282 9.31088 17.6304C12.4986 23.1723 10.0598 25.2529 12.6759 27.1134C11.2954 28.0263 9.77557 27.8337 8.97762 25.4258Z" fill="url(#paint0_linear_297_3163)"/>
<path opacity="0.5" fill-rule="evenodd" clip-rule="evenodd" d="M8.9744 25.4258C8.22933 23.186 9.51371 21.903 9.4565 19.077C9.98016 22.2924 8.85921 24.1714 10.1572 27.2475C9.5847 26.7764 9.17162 26.1402 8.9744 25.4258Z" fill="#F6C3A2"/>
<path d="M23.2412 56.2353C23.4634 58.7443 23.5015 61.2663 23.3552 63.7809C23.2642 64.8819 23.074 65.9724 22.7871 67.0393C22.8413 66.9964 22.8856 66.9423 22.917 66.8807C23.0921 66.4155 23.2132 65.9318 23.278 65.439C23.3275 66.0732 23.5671 66.6778 23.9654 67.1741C23.9654 67.1308 23.9238 58.2636 23.2412 56.2353Z" fill="#E7A376"/>
<path d="M18.9814 66.8512C18.9814 66.7455 19.2328 59.3153 19.0554 56.4268C19.0554 56.4268 19.1214 63.9484 17.9477 65.0776C18.1089 65.0339 18.2572 64.9522 18.3803 64.8393C18.5033 64.7264 18.5975 64.5857 18.6548 64.4289C18.6548 64.4289 18.2409 66.0917 18.9814 66.8512Z" fill="#E7A376"/>
<path d="M15.2595 56.2339C15.2595 56.2339 14.9604 60.8428 14.0847 63.1111C14.3252 63.1112 14.4502 63.0391 14.4647 62.9959C14.4348 63.2779 14.4727 63.5629 14.5751 63.8273C14.9746 62.573 15.3261 60.2469 15.2595 56.2339Z" fill="#E7A376"/>
<path d="M10.8336 61.1305C10.8336 61.1305 12.1232 57.4637 11.8401 54.0225C11.8401 54.0225 11.6277 58.2229 10.5067 60.1548C10.5694 60.128 10.6304 60.0975 10.6895 60.0635C10.6807 60.4245 10.7294 60.7847 10.8336 61.1305Z" fill="#E7A376"/>
<path d="M21.9018 24.8562C21.1809 21.7754 20.5033 18.5792 19.3736 15.9789C17.4505 11.5666 15.3556 0.00279886 15.3556 0.00279886L7.92969 0.00146484C12.1705 6.6971 19.4306 19.8959 17.5099 29.277C17.3265 30.122 17.2313 30.9837 17.2256 31.8482C14.8968 37.3844 12.7071 44.8238 15.2987 49.2795C19.7942 57.0085 28.3169 56.2171 28.3169 56.2171C28.3169 56.2171 23.2666 31.1476 21.9018 24.8562Z" fill="url(#paint1_linear_297_3163)"/>
<path fill-rule="evenodd" clip-rule="evenodd" d="M21.5156 23.5537C21.5156 23.5537 26.2791 38.934 28.2433 55.4529C28.6419 58.8172 27.4886 53.266 24.7397 40.9331C24.6244 40.414 24.5283 39.8949 24.4514 39.3662C23.9854 36.3191 22.3089 25.2456 21.5156 23.5537Z" fill="#F6C3A2"/>
<path d="M32.296 30.9378C32.0028 30.2649 30.767 28.8613 30.4737 27.8952C29.0317 23.0889 28.9092 8.88206 29.6611 0.0197849L24.8516 0.0189209C25.4328 4.17148 26.2541 10.5926 26.2679 13.7021C26.2674 16.5377 24.6835 25.2845 25.2649 28.3941C26.5479 34.7047 31.4497 56.9145 31.4497 56.9145C31.4497 56.9145 38.7894 54.9934 39.7962 46.0975C40.355 40.9791 36.6527 35.091 32.296 30.9378Z" fill="url(#paint2_linear_297_3163)"/>
<path d="M47.9223 55.2785C47.9223 55.2785 47.6579 54.4566 47.1721 54.6824C47.0888 54.7253 47.0153 54.785 46.9562 54.8578C46.8971 54.9305 46.8538 55.0147 46.8289 55.105C46.804 55.1953 46.7981 55.2898 46.8117 55.3825C46.8252 55.4752 46.8578 55.5641 46.9074 55.6436C47.0036 55.8214 48.0666 55.4323 47.9223 55.2785Z" fill="#ED575C"/>
<path d="M46.9738 59.1232C46.9738 59.1232 46.3151 57.9937 45.6128 58.3588C44.9106 58.7239 45.3625 59.7381 45.5644 59.9832C45.7664 60.2284 47.1084 59.3251 46.9738 59.1232Z" fill="#ED575C"/>
<path d="M44.9017 62.4391C44.9017 62.4391 44.3921 61.223 43.5408 61.5161C42.2854 61.9436 43.2567 63.3231 43.2567 63.3231C43.2567 63.3231 44.8728 62.8236 44.9017 62.4391Z" fill="#ED575C"/>
<path d="M42.0692 64.6253C42.0692 64.6253 41.449 63.1834 40.3861 63.5965C39.3231 64.0097 40.15 65.7064 40.15 65.7064C40.15 65.7064 42.1317 65.0867 42.0692 64.6253Z" fill="#ED575C"/>
<path d="M38.6067 65.8743C38.6067 65.8743 37.4626 62.7837 36.5583 62.9902C35.7068 63.1681 34.8929 63.4933 34.1534 63.951C33.5569 64.3739 34.6338 66.8684 34.932 67.2337C35.2301 67.599 38.7798 66.3309 38.6067 65.8743Z" fill="#ED575C"/>
<path fill-rule="evenodd" clip-rule="evenodd" d="M45.5672 59.988C45.517 59.9237 45.4735 59.8545 45.4374 59.7814C46.0046 59.6951 46.5191 59.4004 46.8804 58.955C46.923 59.0098 46.9615 59.0676 46.9958 59.128C47.1112 59.3251 45.7691 60.2332 45.5672 59.988Z" fill="#E7444A"/>
<path fill-rule="evenodd" clip-rule="evenodd" d="M47.8964 55.1728L47.9253 55.2593C48.0695 55.4324 47.0065 55.8215 46.9104 55.61C46.8936 55.5724 46.8792 55.5339 46.8671 55.4946C47.2293 55.4621 47.5803 55.3523 47.8964 55.1728Z" fill="#E7444A"/>
<path fill-rule="evenodd" clip-rule="evenodd" d="M44.787 62.2227C44.8591 62.3477 44.9024 62.439 44.9024 62.439C44.8735 62.8235 43.2574 63.323 43.2574 63.323C43.2044 63.2443 43.1562 63.1624 43.1131 63.0779C43.7323 62.9329 44.3068 62.6394 44.787 62.2227Z" fill="#E7444A"/>
<path fill-rule="evenodd" clip-rule="evenodd" d="M41.9536 64.409C42.0209 64.5292 42.0594 64.6109 42.0594 64.6109C42.1314 65.0915 40.1353 65.6919 40.1353 65.6919C40.1353 65.6919 40.068 65.5477 39.9959 65.3411C40.7238 65.2223 41.4028 64.899 41.9536 64.409Z" fill="#E7444A"/>
<path fill-rule="evenodd" clip-rule="evenodd" d="M36.8574 66.3305C37.8819 65.975 38.2571 65.581 38.3918 65.3696C38.5216 65.6772 38.6033 65.8935 38.6033 65.8935C38.7764 66.3261 35.2363 67.6231 34.9334 67.2529C34.8132 67.0715 34.7086 66.8801 34.6209 66.681C35.3824 66.7161 36.1432 66.5969 36.8574 66.3305Z" fill="#E7444A"/>
</g>
<g clip-path="url(#clip1_297_3163)">
<path d="M46.2594 43.5183L46.0083 43.2432C44.9898 42.1273 43.3544 41.9617 42.3556 42.8733L21.9755 61.4748C20.9767 62.3864 20.9927 64.0301 22.0112 65.146L22.2623 65.4211C23.2809 66.5371 24.9162 66.7027 25.915 65.7911L46.2951 47.1895C47.2939 46.2779 47.2779 44.6343 46.2594 43.5183Z" fill="#2CC8CC"/>
<path opacity="0.29" d="M46.9693 44.8838C46.8479 45.261 46.6356 45.5934 46.35 45.8537L25.9698 64.4552C25.4902 64.8929 24.8359 65.0999 24.1509 65.0305C23.4659 64.9612 22.8063 64.6211 22.3171 64.0852L22.0653 63.8094C21.7084 63.4189 21.4609 62.9439 21.3531 62.4423C21.2103 62.8826 21.1959 63.368 21.3115 63.8447C21.4271 64.3214 21.6682 64.771 22.0082 65.1437L22.26 65.4195C22.7491 65.9554 23.4087 66.2955 24.0937 66.3648C24.7787 66.4342 25.433 66.2272 25.9127 65.7895L46.2928 47.188C46.5941 46.9128 46.8138 46.5579 46.9319 46.1555C47.0501 45.7531 47.0629 45.316 46.9693 44.8838Z" fill="#CCCCCC"/>
<path d="M43.3453 49.8789L37.92 46.9187L38.5885 46.3086L44.0138 49.2688L43.3453 49.8789Z" fill="#F2F8FA"/>
<path d="M42.9782 50.2179L37.5529 47.2577L37.7011 47.1225L43.1271 50.082L42.9782 50.2179Z" fill="#F2F8FA"/>
<path d="M37.6266 55.0999L32.2006 52.1404L32.8697 51.5297L38.295 54.4898L37.6266 55.0999Z" fill="#F2F8FA"/>
<path d="M37.2562 55.439L31.8303 52.4795L31.9791 52.3436L37.4044 55.3038L37.2562 55.439Z" fill="#F2F8FA"/>
<path d="M31.0165 61.1356L25.5912 58.1754L26.2597 57.5653L31.6857 60.5249L31.0165 61.1356Z" fill="#F2F8FA"/>
<path d="M30.6423 61.4746L25.217 58.5144L25.3658 58.3785L30.7911 61.3387L30.6423 61.4746Z" fill="#F2F8FA"/>
</g>
<defs>
<linearGradient id="paint0_linear_297_3163" x1="11.8984" y1="21.7112" x2="10.6927" y2="21.9018" gradientUnits="userSpaceOnUse">
<stop stop-color="#F0B186"/>
<stop offset="1" stop-color="#F5BC95"/>
</linearGradient>
<linearGradient id="paint1_linear_297_3163" x1="7.91983" y1="28.1218" x2="28.3075" y2="28.1255" gradientUnits="userSpaceOnUse">
<stop stop-color="#F0B186"/>
<stop offset="1" stop-color="#F5BC95"/>
</linearGradient>
<linearGradient id="paint2_linear_297_3163" x1="24.8272" y1="28.4517" x2="39.8427" y2="28.4544" gradientUnits="userSpaceOnUse">
<stop stop-color="#F0B186"/>
<stop offset="1" stop-color="#F5BC95"/>
</linearGradient>
<clipPath id="clip0_297_3163">
<rect width="48.4178" height="68.8375" fill="white" transform="translate(0.0117188)"/>
</clipPath>
<clipPath id="clip1_297_3163">
<rect width="5.84381" height="32.4899" fill="white" transform="translate(44.1641 41.2227) rotate(47.6124)"/>
</clipPath>
</defs>
</svg>
