<svg width="114" height="108" viewBox="0 0 114 108" fill="none" xmlns="http://www.w3.org/2000/svg">
<path d="M5.5 11.0083V5.5083C7.66667 5.67497 12.1 6.0083 12.5 6.0083C12.9 6.0083 14.3333 7.0083 15 7.5083C15.3333 8.34163 16 10.1083 16 10.5083V12.5083C16 13.0083 14 14.5083 13.5 15.0083C13.1 15.4083 12.3333 15.8416 12 16.0083H10L6 14.0083L5.5 11.0083Z" fill="#DFEAEB"/>
<path d="M5 33.5083L7.5 31.0083C8.83333 31.5083 11.5 32.7083 11.5 33.5083V35.5083C11.5 36.3083 11.1667 36.5083 11 36.5083L9 37.0083H7C6.66667 36.8416 5.9 36.4083 5.5 36.0083C5.1 35.6083 5 34.175 5 33.5083Z" fill="#DFEAEB"/>
<path d="M40 16.0083L43 21.5083H46.5C47 21.5083 48 19.0083 49 18.0083C50 17.0083 50 16.5083 51 15.5083C52 14.5083 54 13.5083 55 12.5083C55.8 11.7083 57.3333 12.5083 58 13.0083L62 16.0083C62.1667 16.0083 62.6 15.9083 63 15.5083L65 13.5083C65.4 13.1083 67.5 12.675 68.5 12.5083C68.6667 12.175 69 11.4083 69 11.0083C69 10.5083 68 8.5083 68 8.0083C68 7.6083 66.6667 6.17497 66 5.5083L59 6.5083L54.5 4.5083L51.5 5.0083L46 8.5083L41 12.5083L40 16.0083Z" fill="#DFEAEB"/>
<path d="M85 37.5083C83.8333 36.675 81.4 35.0083 81 35.0083L65 56.5083C66.1667 57.5083 68.7 59.7083 69.5 60.5083C70.5 61.5083 72 60.5083 78 58.5083C80 57.5083 79.5 57.0083 79.5 56.0083V52.5083C79.5 52.0083 81 51.5083 83 51.0083C85 50.5083 85 50.0083 85 49.5083C85 49.0083 86.5 46.5083 86.5 46.0083V42.0083C86.5 41.6083 86.1667 40.175 86 39.5083L85 37.5083Z" fill="#DFEAEB"/>
<path d="M106 46.5083L103.5 49.0083L105 53.0083L106.5 54.5083C107 54.3416 108.2 54.0083 109 54.0083C110 54.0083 109.5 53.5083 111 53.0083C112.5 52.5083 111.5 51.5083 112 51.0083C112.4 50.6083 112.167 49.8416 112 49.5083C111.833 49.0083 111.4 47.9083 111 47.5083C110.6 47.1083 109.833 46.675 109.5 46.5083H106Z" fill="#DFEAEB"/>
<path d="M91 69.0083L96.5 68.0083L99 69.0083L101.5 72.0083L101 76.5083L103 81.5083L100.5 84.0083L99 84.5083C98.5 84.675 97.4 85.1083 97 85.5083C96.5 86.0083 96 85.0083 95 84.0083C94 83.0083 94.5 83.0083 94 82.0083C93.5 81.0083 93.5 80.5083 93 80.0083C92.5 79.5083 92 79.5083 91 79.0083C90 78.5083 90 76.0083 90 75.5083V72.0083C90 71.6083 90.6667 69.8416 91 69.0083Z" fill="#DFEAEB"/>
<path fill-rule="evenodd" clip-rule="evenodd" d="M38.106 0.905462C36.8001 1.35676 35.1543 2.79518 34.7073 3.87527C34.4905 4.39904 34.3451 4.49738 33.9702 4.37429C33.7134 4.28979 32.7801 4.17094 31.8967 4.11029C29.9707 3.97784 28.7581 4.45479 27.5123 5.83523C25.6747 7.87144 25.6758 10.658 27.5154 13.1189C27.8072 13.5094 28.046 13.8731 28.046 13.9272C28.046 13.9814 27.7705 14.0813 27.4335 14.1491C25.8596 14.4662 23.8705 16.4952 23.3718 18.2929C22.7588 20.5017 23.2188 22.0081 25.4462 25.0887C26.3449 26.3316 27.1495 27.4683 27.2341 27.6146C27.3328 27.7845 27.045 28.0331 26.4365 28.3036C24.3909 29.2124 22.9123 31.8638 23.2654 33.9904C23.4476 35.0885 23.7901 35.8078 24.9437 37.5136L25.7861 38.7596L23.0181 41.5238C19.975 44.5627 19.745 45.0357 20.797 46.0886C21.969 47.2621 21.4531 47.6971 36.2557 33.0516C43.8073 25.5802 50.8879 18.5457 51.9905 17.4193C55.3692 13.9674 56.2934 13.5132 57.6369 14.645C58.3938 15.2825 58.6787 16.1965 58.372 17.0036C58.2579 17.3042 54.7841 21.0549 50.6527 25.3382C46.5214 29.6216 43.0384 33.3517 42.9128 33.6278C42.4 34.754 43.7654 36.2014 44.9328 35.7693C45.2027 35.6691 49.801 31.0745 55.151 25.559C60.5007 20.0437 65.1355 15.3558 65.4504 15.1422C65.7765 14.9208 66.4403 14.7527 66.992 14.752C67.7979 14.7507 68.0883 14.878 68.7182 15.5086C69.3824 16.1735 69.4755 16.4072 69.4755 17.4094C69.4755 18.7542 70.7971 17.2181 57.7889 30.9938C52.8846 36.1871 48.7908 40.6705 48.6915 40.9568C48.2708 42.17 49.6885 43.428 50.8699 42.8891C51.1543 42.7593 57.0253 36.6779 63.9169 29.3748C77.4461 15.037 77.0502 15.3935 78.5742 16.1824C79.6881 16.759 80.0592 18.0293 79.4353 19.1295C79.2866 19.3917 74.0626 25.705 67.827 33.1591C61.5912 40.6132 56.3831 46.9938 56.2533 47.3381C56.0571 47.8581 56.0949 48.069 56.476 48.5823C56.9961 49.2825 58.2109 49.5219 58.8123 49.043C59.0117 48.8842 63.8581 43.1854 69.5825 36.3791C75.3837 29.4811 80.2989 23.8311 80.6876 23.6137C81.6284 23.0875 82.4018 23.1227 83.3081 23.7335C84.1463 24.2981 84.7063 25.5967 84.4875 26.4687C84.4138 26.7628 79.3019 34.2474 73.128 43.1011C60.9818 60.5189 61.2206 60.1142 62.4893 61.1131C62.8121 61.3673 63.2731 61.5753 63.5139 61.5753C63.9616 61.5753 65.0751 60.5664 65.7288 59.5686L66.0941 59.0111L67.1722 60.0591C67.7654 60.6357 68.8519 61.386 69.5869 61.7267C71.339 62.5388 74.0359 62.5876 75.935 61.842C78.4963 60.8362 80.5778 58.2102 81.0268 55.4181C81.1462 54.6765 81.2271 53.8934 81.2066 53.678C81.1792 53.3881 81.5315 53.1533 82.5581 52.7774C88.064 50.7612 90.7262 44.3902 88.3213 38.9852C87.6048 37.3747 86.1946 35.6723 84.8597 34.8064C84.2389 34.4038 83.7309 33.9908 83.7309 33.8889C83.7309 33.7868 85.0023 33.7034 86.5561 33.7034C89.6591 33.7034 90.902 33.3475 91.6174 32.2545C91.8101 31.9602 92.7197 29.647 93.639 27.1142C94.558 24.5815 95.5866 21.9949 95.9243 21.3666C97.2329 18.9319 100.627 16.411 102.95 16.1487C104.177 16.0103 104.836 16.347 105.242 17.3211C105.537 18.0273 105.496 18.2646 104.555 21.2979C104.005 23.0721 103.555 24.8178 103.555 25.177C103.555 26.4721 105.109 27.1664 106.082 26.3057C106.856 25.6205 108.759 19.6564 108.748 17.9513C108.738 16.4779 108.024 14.9888 106.844 13.9772C105.64 12.9461 104.698 12.6656 102.873 12.7963C100.957 12.9337 97.7911 14.4329 95.9535 16.0732C93.7392 18.0496 92.7879 19.7364 90.7686 25.2682L88.951 30.2473L87.5328 30.3146L86.1146 30.3817L86.5265 29.7572C87.9787 27.5542 88.248 25.3532 87.3056 23.3863C86.667 22.0536 85.0399 20.5984 83.8246 20.2731L82.8974 20.0247L83.0105 18.6144C83.1442 16.9483 82.7045 15.5654 81.6643 14.3794C80.5804 13.1439 79.414 12.6453 77.6055 12.6453C75.8105 12.6453 74.7389 13.1022 73.4969 14.3964C72.6843 15.2432 72.3712 15.3839 72.3712 14.9021C72.3712 14.7402 71.9974 14.1707 71.5408 13.6365C70.7565 12.7194 70.7086 12.5751 70.6806 11.0419C70.6451 9.09625 69.9542 7.47789 68.5654 6.08764C67.2052 4.72592 65.8995 4.17785 63.7957 4.08532C62.3933 4.02355 61.7547 4.10538 60.7972 4.46973L59.5808 4.93262L59.0153 4.41443C57.3532 2.89151 55.2418 2.13027 53.2508 2.33585C51.6473 2.50152 49.4034 3.61952 48.4913 4.7072L47.7734 5.5632L45.3883 3.36979C43.4513 1.58844 42.7831 1.11082 41.8322 0.82809C40.3321 0.382139 39.5741 0.397747 38.106 0.905462ZM8.19591 3.67348C4.08971 5.20844 2.13049 9.69583 3.8712 13.5787C6.3768 19.1681 14.0471 19.4354 17.0342 14.0378C17.6358 12.9504 17.6886 12.6755 17.6886 10.6254C17.6886 8.72767 17.6127 8.25318 17.1779 7.43798C16.4281 6.03256 15.3069 4.88558 13.9698 4.156C12.9792 3.61595 12.4823 3.50045 10.8951 3.44203C9.68715 3.39766 8.70999 3.48128 8.19591 3.67348ZM41.0277 4.13482C41.422 4.30539 42.3728 5.08759 43.1408 5.87314L44.5372 7.30129L43.168 8.18294C42.4152 8.66791 41.4696 9.49403 41.0674 10.0187L40.3357 10.973L39.0723 9.48222C37.6173 7.76531 37.3184 7.12737 37.4837 6.09031C37.6227 5.21759 37.9332 4.79572 38.8489 4.23538C39.6507 3.74439 40.08 3.72477 41.0277 4.13482ZM55.3287 5.92732C55.7479 6.10258 56.6317 6.80495 57.2926 7.48815C58.7379 8.98208 59.4042 9.08175 61.1228 8.06119C62.3964 7.30486 64.1465 7.15881 65.2281 7.7187C66.1006 8.17045 66.9644 9.25456 67.2383 10.2421C67.5622 11.4092 67.564 11.4058 66.6196 11.4058C65.2615 11.4058 63.7748 12.0368 62.5633 13.1272C61.9452 13.6833 61.4108 14.1005 61.3756 14.0543C61.3404 14.008 61.0941 13.6077 60.8284 13.1649C60.251 12.2027 59.0059 11.3097 57.7817 10.9795C56.5716 10.6533 55.9548 10.6749 54.5484 11.093C53.4559 11.4179 52.9726 11.823 49.059 15.695C44.8675 19.8419 44.7555 19.9329 44.2534 19.6035C43.9705 19.418 43.4531 18.7399 43.1034 18.0969C41.9147 15.9104 42.3076 13.4345 44.1193 11.6959C45.0009 10.8499 46.0146 10.4031 47.5357 10.1895C48.9984 9.98413 49.603 9.56628 50.1159 8.40547C51.1229 6.12666 53.3142 5.08469 55.3287 5.92732ZM12.3774 7.08924C14.1693 7.94034 15.0117 10.5066 14.1181 12.3918C12.8387 15.0909 9.10335 15.3877 7.27444 12.9357C5.92196 11.1222 6.66213 8.10735 8.70777 7.09839C9.66154 6.62768 11.3969 6.62345 12.3774 7.08924ZM32.8596 7.71335C33.1115 7.88995 34.5961 9.53462 36.1586 11.3681L38.9999 14.7019L39.0946 16.064C39.1467 16.8132 39.3955 17.978 39.6478 18.653C40.0693 19.7806 41.485 21.8529 42.0893 22.2268C42.2537 22.3285 42.0055 22.7279 41.3848 23.3611C40.8578 23.8987 40.3566 24.3384 40.2708 24.3384C40.0628 24.3384 30.0752 11.0776 29.668 10.2604C29.2755 9.47285 29.601 8.24559 30.34 7.7274C30.9461 7.30263 32.2631 7.29527 32.8596 7.71335ZM30.4275 17.5934C31.0661 17.9473 37.6238 26.2763 37.6238 26.7332C37.6238 26.8315 36.7469 27.7825 35.6748 28.8463L33.7259 30.7808L30.9416 26.9602C26.3233 20.623 26.4303 20.7998 26.5519 19.6978C26.7726 17.6964 28.7127 16.6431 30.4275 17.5934ZM6.83074 29.1226C5.47827 29.6419 4.48596 30.5456 3.85828 31.8299C2.23941 35.1422 4.46926 39.152 8.09746 39.4533C11.3183 39.7206 13.8871 37.3673 13.8871 34.1493C13.8871 32.5834 13.5156 31.6183 12.4845 30.5055C11.1684 29.0851 8.57835 28.4516 6.83074 29.1226ZM102.272 30.3616C101.996 30.4756 101.669 30.7973 101.546 31.077C101.423 31.3563 100.217 35.1472 98.8667 39.5007C96.0506 48.5783 94.8384 51.3599 92.1618 54.8861C90.1785 57.4987 89.7448 58.3099 89.7448 59.4056C89.7448 60.6825 90.1921 62.2897 90.7053 62.8574C91.3272 63.5453 92.4081 63.5239 93.0777 62.8106C93.6042 62.2494 93.6192 61.91 93.2051 59.903C93.0855 59.3219 93.2715 58.9643 94.6199 57.1816C96.4533 54.7587 97.7868 52.5279 98.7869 50.2116C99.6133 48.2982 104.668 32.4273 104.668 31.7465C104.668 30.7119 103.317 29.9311 102.272 30.3616ZM30.5618 32.1796L31.4071 33.1145L29.8996 34.6352C29.0704 35.4718 28.3191 36.1561 28.2298 36.1561C27.9756 36.1561 26.7512 34.2816 26.5929 33.6501C26.4082 32.9138 26.9777 31.8099 27.7705 31.3677C28.6986 30.8497 29.5954 31.1106 30.5618 32.1796ZM10.097 32.8055C10.8037 33.513 10.7195 34.9434 9.93105 35.6223C8.59216 36.7751 6.66302 35.8992 6.66302 34.1389C6.66302 32.9644 7.7266 32.0398 8.8648 32.2248C9.2929 32.2944 9.84752 32.5557 10.097 32.8055ZM82.884 37.4958C85.5658 39.274 86.6147 43.032 85.2537 45.9862C84.9381 46.6714 84.3011 47.611 83.8382 48.0744C82.9633 48.9505 81.0502 49.9741 80.2784 49.9793C78.8676 49.9888 77.5692 51.7686 77.7871 53.3948C77.9425 54.5556 77.479 56.2438 76.7375 57.2171C75.6281 58.6731 73.3842 59.4129 71.5646 58.9224C70.5066 58.6372 68.6425 57.0897 68.4547 56.3408C68.3514 55.9291 69.6348 53.9522 74.9556 46.3265C78.6021 41.1006 81.65 36.825 81.7289 36.825C81.808 36.825 82.3276 37.1267 82.884 37.4958ZM105.632 44.5349C103.271 45.4065 101.665 47.8108 101.697 50.4266C101.718 52.1377 102.136 53.2086 103.281 54.48C105.509 56.9539 109.669 57.1432 112.001 54.8771C114.497 52.4523 114.675 48.8682 112.425 46.31C111.927 45.7432 111.105 45.0671 110.599 44.8076C109.4 44.1922 106.928 44.0564 105.632 44.5349ZM109.279 47.9649C110.922 48.9674 111.121 51.0709 109.697 52.3774C108.144 53.802 105.695 53.1397 105.102 51.1347C104.378 48.6833 107.088 46.6268 109.279 47.9649ZM16.1139 48.5333C15.3853 48.8519 12.5603 51.6841 11.1461 53.5136C9.72012 55.3588 8.67124 57.3965 7.67782 60.2522L6.76771 62.8688L3.76406 65.1418C2.11201 66.3921 0.584903 67.6173 0.370628 67.8646C-0.147241 68.4617 -0.121626 69.1888 0.442573 69.9068C1.30212 71.0007 1.90619 70.77 5.67851 67.9061C7.55353 66.4824 9.22831 65.153 9.39982 64.9516C9.57155 64.7503 10.083 63.4954 10.5362 62.1629C12.0342 57.7611 13.7214 55.1177 16.9908 52.0507C18.5067 50.6288 18.7562 50.0439 18.2501 49.0974C17.912 48.4648 16.8885 48.1946 16.1139 48.5333ZM58.5569 64.2403C58.3704 64.3496 57.5184 65.4611 56.6636 66.7105C55.1494 68.9228 55.1089 69.018 55.1089 70.3677C55.1089 71.5062 55.2182 71.9187 55.7216 72.6802C56.411 73.723 57.7347 74.5043 58.8308 74.5151C59.234 74.5191 63.5362 74.0029 68.3917 73.3678L77.2198 72.2133L78.2069 72.6918C79.3449 73.2432 80.1673 74.4858 80.1666 75.6531C80.1664 76.5907 79.561 77.8064 78.8306 78.3366C78.1982 78.7957 47.333 90.8884 44.5363 91.7729C40.9765 92.8985 36.2352 93.2961 31.9963 92.8242C30.9931 92.7125 30.2859 92.7429 29.8803 92.9148C28.6641 93.4305 11.2156 104.214 10.728 104.751C10.0685 105.478 10.0937 106.28 10.7984 106.986C11.2372 107.425 11.5165 107.529 12.0005 107.432C12.3473 107.362 16.7257 104.799 21.7307 101.735L30.8303 96.1653L34.3012 96.2946C40.9103 96.5408 43.2079 96.0121 54.2633 91.7004C58.6987 89.9706 62.4252 88.5554 62.5446 88.5554C62.6642 88.5554 62.9168 89.0823 63.1063 89.726C63.2956 90.3697 64.5485 94.4569 65.8903 98.8085C68.5334 107.38 68.675 107.675 70.0242 107.414C70.7572 107.273 71.4802 106.562 71.4802 105.982C71.4802 105.782 70.2273 101.541 68.696 96.5562C67.1646 91.5713 65.9117 87.381 65.9117 87.2438C65.9117 87.1067 66.0084 86.9945 66.1264 86.9945C66.2445 86.9945 69.4564 85.7742 73.2641 84.2825C79.0063 82.0329 80.3579 81.4195 81.1899 80.6866C85.2762 77.0857 83.5558 70.3204 78.2517 69.132C77.1634 68.8883 76.1916 68.9741 68.1939 70.0199C63.3248 70.6567 59.1723 71.1744 58.966 71.1704C58.76 71.1666 58.5246 70.9526 58.4428 70.695C58.3317 70.3441 58.6344 69.7353 59.653 68.2613C61.2108 66.007 61.3692 65.2339 60.4245 64.4903C59.8049 64.0022 59.1191 63.9106 58.5569 64.2403ZM93.1581 66.5655C91.8341 66.9988 90.83 67.6693 89.752 68.8401C88.2792 70.4397 87.854 71.5836 87.8527 73.9505C87.8513 76.4295 88.4164 77.7823 90.2438 79.6749C91.1454 80.6087 91.5346 81.215 91.7294 81.9905C92.5215 85.1392 94.8151 87.069 97.7788 87.0806C102.087 87.0976 104.97 83.0323 103.534 78.9674C103.103 77.7498 103.02 77.055 103.01 74.6194C102.999 71.9225 102.957 71.6425 102.405 70.5956C101.598 69.0664 100.128 67.6407 98.6589 66.9638C97.1821 66.283 94.5941 66.0957 93.1581 66.5655ZM97.9078 70.4058C99.5775 71.7586 99.6567 71.978 99.6567 75.2502C99.6567 77.845 99.7187 78.3333 100.188 79.4421C100.812 80.9176 100.725 81.8933 99.8895 82.7955C98.227 84.5902 95.4479 83.7315 94.9888 81.2812C94.7522 80.0192 93.9036 78.5166 92.8636 77.5181C91.1076 75.8322 90.6469 74.0218 91.5023 72.1667C92.3137 70.407 93.723 69.5659 95.6949 69.6647C96.8433 69.7222 97.2198 69.8482 97.9078 70.4058ZM100.355 90.3555C99.992 90.6413 99.7681 91.0369 99.7681 91.3927C99.7681 91.9199 103.267 103.207 104.252 105.857C104.663 106.962 105.287 107.508 106.137 107.508C106.651 107.508 107.564 106.475 107.564 105.894C107.564 105.609 106.506 102.067 105.214 98.0245C103.58 92.9121 102.724 90.5548 102.405 90.2834C101.795 89.7652 101.072 89.7907 100.355 90.3555Z" fill="#3B4040"/>
</svg>
