<svg width="114" height="115" viewBox="0 0 114 115" fill="none" xmlns="http://www.w3.org/2000/svg">
<path d="M43.5 86.0083H2.5L3.5 94.5083L7 100.008L52.5 99.5083L112 61.0083V54.5083L106 43.0083L56.5 79.0083L43.5 86.0083Z" fill="#DFEAEB"/>
<mask id="path-2-inside-1_297_396" fill="white">
<path fill-rule="evenodd" clip-rule="evenodd" d="M90.9092 12.6122C89.5991 12.9217 89.2916 13.3013 87.1467 17.2586C84.1812 22.7299 82.6976 24.952 80.9344 26.5645C75.9108 31.1583 69.6602 31.1085 60.2423 26.3995C56.4422 24.4994 55.7562 24.804 54.17 29.0952C52.6045 33.3299 51.1029 36.7902 48.7082 41.6813C44.2807 50.7247 39.9538 56.8152 35.969 59.6138C34.1256 60.9083 33.0662 61.2686 30.124 61.6021C26.2122 62.0452 18.5492 63.3876 15.3937 64.1823C10.5118 65.412 8.07213 66.8138 5.28581 69.9911C1.71886 74.0586 -0.349392 80.5522 0.048717 86.4336C0.618272 94.8469 2.80053 100.162 6.32562 101.721C7.31889 102.161 7.83033 102.165 54.7925 102.141C107.357 102.114 102.962 102.247 103.622 100.668C103.893 100.02 103.895 99.7972 103.638 99.1823C103.014 97.69 104.717 97.8018 80.7698 97.6793L59.0094 97.568L84.645 80.8688C101.316 70.009 110.644 63.8011 111.32 63.116C113.336 61.0711 114.275 58.0661 113.789 55.2077C113.585 54.0089 112.856 52.3305 110.186 46.9137C107.971 42.4194 105.134 36.0563 101.798 28.0993C99.0252 21.4864 96.5773 15.7251 96.3582 15.2965C95.3558 13.3365 92.9213 12.137 90.9092 12.6122ZM94.3047 21.7052C95.3151 24.1244 96.1416 26.163 96.1416 26.2354C96.1416 26.308 95.5155 26.7747 94.75 27.2725C87.0648 32.271 83.7325 42.199 86.9125 50.6238C87.2287 51.461 87.5361 52.298 87.5963 52.4835C87.6737 52.7235 82.1107 56.9279 68.2661 67.0924C57.5746 74.9417 48.3812 81.5906 47.8359 81.8676C44.9309 83.3429 45.3521 83.2966 34.0762 83.3788L23.7783 83.4538V75.2298V67.0058L26.1719 66.6395C27.4882 66.438 29.7266 66.1301 31.1458 65.9553C35.0648 65.4726 37.4249 64.3976 40.3853 61.7469L41.8475 60.4376L45.1315 63.6951C48.3916 66.9294 48.4226 66.9528 49.4259 66.9528C50.8348 66.9528 51.6103 66.1815 51.6103 64.7808C51.6103 63.7928 51.576 63.7479 48.2487 60.3769L44.887 56.9709L46.8381 54.0416L48.7895 51.1123L51.8141 54.1102C53.4778 55.759 55.0702 57.2256 55.353 57.3694C56.5823 57.9949 58.29 56.7369 58.29 55.2059C58.29 54.4664 58.005 54.1164 54.6781 50.7672L51.0662 47.1313L52.2545 44.7415L53.443 42.3517L55.9296 44.9539C58.4893 47.6327 59.2512 48.1446 60.3267 47.9085C61.1068 47.7371 62.0752 46.6138 62.0752 45.8801C62.0752 44.9568 61.7047 44.477 58.4797 41.2242L55.3775 38.095L56.8579 34.4332C57.6721 32.419 58.3749 30.732 58.4196 30.6843C58.4644 30.6364 59.5304 31.0544 60.7891 31.6128C65.5905 33.7438 69.2921 34.5732 73.0967 34.3708C75.7868 34.2277 77.4193 33.8175 79.7764 32.6931C84.0876 30.6362 86.7869 27.4758 90.951 19.6078C91.6228 18.3387 92.2389 17.3018 92.3201 17.3036C92.4012 17.3053 93.2943 19.2861 94.3047 21.7052ZM100.347 36.1089C101.608 39.1058 102.606 41.6515 102.563 41.7659C102.444 42.093 91.5961 49.9953 91.4162 49.8866C91.0681 49.6764 90.3438 46.7665 90.2116 45.0474C89.8126 39.8544 92.272 34.5726 96.5517 31.432C97.1222 31.0134 97.6935 30.6683 97.8215 30.6654C97.9493 30.6623 99.0858 33.1119 100.347 36.1089ZM107.122 50.8659C108.816 54.2954 109.512 55.936 109.506 56.4879C109.493 57.8185 109.052 58.9583 108.202 59.8598C107.753 60.3363 104.179 62.8163 100.261 65.3708L93.1357 70.0152L91.4504 68.3871C90.5235 67.4916 89.5009 66.6925 89.1778 66.6115C88.3023 66.3917 87.4106 66.7816 86.8297 67.6379C86.0786 68.7445 86.3075 69.4617 87.9349 71.1038L89.2916 72.4726L87.3171 73.7863C86.2312 74.5088 84.8126 75.4342 84.1649 75.8426L82.9871 76.5849L81.3496 74.9974C79.8498 73.543 79.6343 73.4098 78.7811 73.4098C77.5271 73.4098 76.5478 74.3372 76.5478 75.5244C76.5478 76.209 76.7478 76.547 77.8132 77.6639C78.9029 78.8063 79.034 79.033 78.7595 79.2971C78.2748 79.7631 52.9645 96.2196 51.9443 96.7319C50.1072 97.6546 49.49 97.6793 28.3735 97.6793H8.05299L7.4792 97.067C7.1637 96.7304 6.68454 96.0143 6.41468 95.4762C5.85181 94.354 4.97899 91.0413 4.75344 89.1717L4.60003 87.9003L24.7097 87.8248C43.2311 87.7553 44.9249 87.7179 46.1553 87.3521C48.8737 86.5434 51.0241 85.301 55.8408 81.7563C61.2676 77.7625 72.3739 69.6075 90.2412 56.4971C96.9765 51.555 102.927 47.1765 103.466 46.7672C104.004 46.358 104.509 46.0231 104.587 46.0231C104.666 46.0231 105.807 48.2022 107.122 50.8659ZM19.3252 75.6364V83.4293H11.8998H4.47468L4.67373 82.1491C5.27669 78.2708 6.77115 74.9457 8.98636 72.5528C11.1871 70.1757 12.299 69.5881 16.876 68.3822C17.9169 68.1081 18.8939 67.8746 19.0469 67.8637C19.2646 67.8479 19.3252 69.5396 19.3252 75.6364ZM110.639 97.9902C108.709 99.06 109.516 102.132 111.728 102.132C112.856 102.132 113.954 101.045 113.954 99.9275C113.954 98.2558 112.107 97.1764 110.639 97.9902Z"/>
</mask>
<path fill-rule="evenodd" clip-rule="evenodd" d="M90.9092 12.6122C89.5991 12.9217 89.2916 13.3013 87.1467 17.2586C84.1812 22.7299 82.6976 24.952 80.9344 26.5645C75.9108 31.1583 69.6602 31.1085 60.2423 26.3995C56.4422 24.4994 55.7562 24.804 54.17 29.0952C52.6045 33.3299 51.1029 36.7902 48.7082 41.6813C44.2807 50.7247 39.9538 56.8152 35.969 59.6138C34.1256 60.9083 33.0662 61.2686 30.124 61.6021C26.2122 62.0452 18.5492 63.3876 15.3937 64.1823C10.5118 65.412 8.07213 66.8138 5.28581 69.9911C1.71886 74.0586 -0.349392 80.5522 0.048717 86.4336C0.618272 94.8469 2.80053 100.162 6.32562 101.721C7.31889 102.161 7.83033 102.165 54.7925 102.141C107.357 102.114 102.962 102.247 103.622 100.668C103.893 100.02 103.895 99.7972 103.638 99.1823C103.014 97.69 104.717 97.8018 80.7698 97.6793L59.0094 97.568L84.645 80.8688C101.316 70.009 110.644 63.8011 111.32 63.116C113.336 61.0711 114.275 58.0661 113.789 55.2077C113.585 54.0089 112.856 52.3305 110.186 46.9137C107.971 42.4194 105.134 36.0563 101.798 28.0993C99.0252 21.4864 96.5773 15.7251 96.3582 15.2965C95.3558 13.3365 92.9213 12.137 90.9092 12.6122ZM94.3047 21.7052C95.3151 24.1244 96.1416 26.163 96.1416 26.2354C96.1416 26.308 95.5155 26.7747 94.75 27.2725C87.0648 32.271 83.7325 42.199 86.9125 50.6238C87.2287 51.461 87.5361 52.298 87.5963 52.4835C87.6737 52.7235 82.1107 56.9279 68.2661 67.0924C57.5746 74.9417 48.3812 81.5906 47.8359 81.8676C44.9309 83.3429 45.3521 83.2966 34.0762 83.3788L23.7783 83.4538V75.2298V67.0058L26.1719 66.6395C27.4882 66.438 29.7266 66.1301 31.1458 65.9553C35.0648 65.4726 37.4249 64.3976 40.3853 61.7469L41.8475 60.4376L45.1315 63.6951C48.3916 66.9294 48.4226 66.9528 49.4259 66.9528C50.8348 66.9528 51.6103 66.1815 51.6103 64.7808C51.6103 63.7928 51.576 63.7479 48.2487 60.3769L44.887 56.9709L46.8381 54.0416L48.7895 51.1123L51.8141 54.1102C53.4778 55.759 55.0702 57.2256 55.353 57.3694C56.5823 57.9949 58.29 56.7369 58.29 55.2059C58.29 54.4664 58.005 54.1164 54.6781 50.7672L51.0662 47.1313L52.2545 44.7415L53.443 42.3517L55.9296 44.9539C58.4893 47.6327 59.2512 48.1446 60.3267 47.9085C61.1068 47.7371 62.0752 46.6138 62.0752 45.8801C62.0752 44.9568 61.7047 44.477 58.4797 41.2242L55.3775 38.095L56.8579 34.4332C57.6721 32.419 58.3749 30.732 58.4196 30.6843C58.4644 30.6364 59.5304 31.0544 60.7891 31.6128C65.5905 33.7438 69.2921 34.5732 73.0967 34.3708C75.7868 34.2277 77.4193 33.8175 79.7764 32.6931C84.0876 30.6362 86.7869 27.4758 90.951 19.6078C91.6228 18.3387 92.2389 17.3018 92.3201 17.3036C92.4012 17.3053 93.2943 19.2861 94.3047 21.7052ZM100.347 36.1089C101.608 39.1058 102.606 41.6515 102.563 41.7659C102.444 42.093 91.5961 49.9953 91.4162 49.8866C91.0681 49.6764 90.3438 46.7665 90.2116 45.0474C89.8126 39.8544 92.272 34.5726 96.5517 31.432C97.1222 31.0134 97.6935 30.6683 97.8215 30.6654C97.9493 30.6623 99.0858 33.1119 100.347 36.1089ZM107.122 50.8659C108.816 54.2954 109.512 55.936 109.506 56.4879C109.493 57.8185 109.052 58.9583 108.202 59.8598C107.753 60.3363 104.179 62.8163 100.261 65.3708L93.1357 70.0152L91.4504 68.3871C90.5235 67.4916 89.5009 66.6925 89.1778 66.6115C88.3023 66.3917 87.4106 66.7816 86.8297 67.6379C86.0786 68.7445 86.3075 69.4617 87.9349 71.1038L89.2916 72.4726L87.3171 73.7863C86.2312 74.5088 84.8126 75.4342 84.1649 75.8426L82.9871 76.5849L81.3496 74.9974C79.8498 73.543 79.6343 73.4098 78.7811 73.4098C77.5271 73.4098 76.5478 74.3372 76.5478 75.5244C76.5478 76.209 76.7478 76.547 77.8132 77.6639C78.9029 78.8063 79.034 79.033 78.7595 79.2971C78.2748 79.7631 52.9645 96.2196 51.9443 96.7319C50.1072 97.6546 49.49 97.6793 28.3735 97.6793H8.05299L7.4792 97.067C7.1637 96.7304 6.68454 96.0143 6.41468 95.4762C5.85181 94.354 4.97899 91.0413 4.75344 89.1717L4.60003 87.9003L24.7097 87.8248C43.2311 87.7553 44.9249 87.7179 46.1553 87.3521C48.8737 86.5434 51.0241 85.301 55.8408 81.7563C61.2676 77.7625 72.3739 69.6075 90.2412 56.4971C96.9765 51.555 102.927 47.1765 103.466 46.7672C104.004 46.358 104.509 46.0231 104.587 46.0231C104.666 46.0231 105.807 48.2022 107.122 50.8659ZM19.3252 75.6364V83.4293H11.8998H4.47468L4.67373 82.1491C5.27669 78.2708 6.77115 74.9457 8.98636 72.5528C11.1871 70.1757 12.299 69.5881 16.876 68.3822C17.9169 68.1081 18.8939 67.8746 19.0469 67.8637C19.2646 67.8479 19.3252 69.5396 19.3252 75.6364ZM110.639 97.9902C108.709 99.06 109.516 102.132 111.728 102.132C112.856 102.132 113.954 101.045 113.954 99.9275C113.954 98.2558 112.107 97.1764 110.639 97.9902Z" fill="#3B4040" stroke="#F2FAFA" stroke-width="1.2" mask="url(#path-2-inside-1_297_396)"/>
</svg>
