<svg width="107" height="115" viewBox="0 0 107 115" fill="none" xmlns="http://www.w3.org/2000/svg">
<path d="M2.46058 23.1328L5.41157 20.1818L9.34623 19.1979L10.3299 13.2959L16.7237 14.7716L20.6584 9.36123L25.5767 9.85306L29.0195 5.42658L33.9378 7.88573C34.4296 6.90207 35.5117 4.83638 35.9051 4.44291C36.397 3.95108 38.8561 2.47559 39.8398 2.47559C40.6267 2.47559 43.1187 3.13136 44.2663 3.45925L45.2499 9.36123V14.7716L42.299 16.7389L38.8561 18.7063L36.8888 17.7224C35.9051 16.9027 33.9378 15.1651 33.9378 14.7716C33.9378 14.3781 31.9705 15.9192 30.9868 16.7389H26.0685L24.593 18.7063L20.6584 21.1654H17.7074L14.7564 24.1164L10.3299 25.5919L9.34623 31.4939H4.91974L2.95241 30.5102L1.96875 27.0674L2.46058 23.1328Z" fill="#DFEAEB"/>
<path d="M69.3497 3.45925L64.9232 2.47559L60.9886 5.42658V11.8204L63.9395 17.7224L68.8579 18.706L72.7925 14.2795L76.2353 16.7389L80.6618 15.755L84.1046 21.1654L89.023 20.1818L91.9739 25.0998L96.4004 25.5919L100.335 31.4939L103.286 31.0018L105.745 26.5753L103.778 20.1818L98.3678 18.7063L94.4331 14.2795H90.4985L86.072 9.36123H81.6455L77.7108 5.42658L72.7925 7.88573L69.3497 3.45925Z" fill="#DFEAEB"/>
<path fill-rule="evenodd" clip-rule="evenodd" d="M38.0608 0.745121C36.3057 1.40212 34.7165 2.75176 33.7286 4.42434C33.3007 5.14864 32.8821 5.32135 32.6127 4.88521C32.3127 4.39982 30.6007 3.80389 29.5069 3.80389C27.4338 3.80389 25.4334 5.21416 24.4424 7.37435L23.9643 8.4169L23.2327 8.11135C22.2126 7.68502 20.3177 7.73739 19.2553 8.22145C18.2074 8.69859 16.9079 10.0708 16.2288 11.4171C15.9634 11.9435 15.7238 12.4005 15.6964 12.4329C15.669 12.4652 15.2565 12.3286 14.78 12.1295C13.1609 11.4529 10.883 12.0917 9.40726 13.6361C8.59114 14.4901 7.61501 16.4562 7.41778 17.6429L7.28295 18.4541L5.88271 18.5433C1.46293 18.8247 -1.22968 24.3854 0.56034 29.5346C1.11415 31.128 3.06552 33.0406 4.50632 33.4021C6.42649 33.8841 8.16704 33.2684 9.75493 31.5457C10.7919 30.4209 11.2227 29.5629 11.575 27.9219L11.803 26.8602L13.0776 26.8464C13.9247 26.837 14.661 26.6719 15.2723 26.3541C16.3777 25.7798 17.9132 24.0934 18.2968 23.033C18.523 22.407 18.6576 22.2925 19.0262 22.4119C19.2747 22.4926 20.0999 22.61 20.8599 22.6731C21.9851 22.7665 22.4295 22.697 23.2532 22.2983C24.4163 21.7351 25.9168 20.1358 26.3149 19.0347C26.6184 18.1956 26.6538 18.1807 27.5424 18.5188C28.4369 18.8591 30.3181 18.8138 31.2031 18.4307C31.6185 18.2511 32.302 17.8096 32.7219 17.4501L33.4854 16.7963L34.8391 18.1704C36.8464 20.2078 39.1737 20.7997 41.7402 19.9252C43.2405 19.414 45.2594 17.4791 46.1232 15.7243C47.1328 13.6733 47.5972 10.6812 47.2631 8.37923C46.6204 3.95031 43.7486 0.754704 40.2085 0.528946C39.4144 0.478356 38.5381 0.566609 38.0608 0.745121ZM65.499 0.646171C62.4088 1.66376 60.2192 4.56652 59.6658 8.37923C59.4539 9.83987 59.4706 10.5071 59.7628 12.2345C60.2323 15.0109 61.1093 16.7677 62.8128 18.3449C64.2971 19.7189 65.6349 20.2858 67.3933 20.2858C69.3086 20.2858 70.5671 19.7162 72.1084 18.1515L73.4805 16.7586L73.984 17.2946C75.1758 18.5631 77.7416 19.1445 79.3866 18.5188C80.2751 18.1807 80.3106 18.1956 80.6141 19.0347C81.0121 20.1358 82.5127 21.7351 83.6758 22.2983C84.4995 22.697 84.9438 22.7665 86.0691 22.6731C86.829 22.61 87.6543 22.4926 87.9028 22.4119C88.2714 22.2925 88.406 22.407 88.6322 23.033C89.0157 24.0934 90.5513 25.7798 91.6567 26.3541C92.268 26.6719 93.0043 26.837 93.8514 26.8464L95.1259 26.8602L95.3539 27.9219C95.7063 29.5629 96.1371 30.4209 97.174 31.5457C98.7619 33.2684 100.502 33.8841 102.423 33.4021C103.863 33.0406 105.815 31.128 106.369 29.5346C108.159 24.3854 105.466 18.8247 101.046 18.5433L99.646 18.4541L99.5112 17.6429C99.3139 16.4562 98.3378 14.4901 97.5217 13.6361C96.0459 12.0917 93.768 11.4529 92.1489 12.1295C91.6725 12.3286 91.26 12.4652 91.2325 12.4329C91.2051 12.4005 90.9656 11.9435 90.7001 11.4171C90.0211 10.0708 88.7216 8.69859 87.6737 8.22145C86.6113 7.73739 84.7163 7.68502 83.6963 8.11135L82.9646 8.4169L82.4866 7.37435C81.4955 5.21416 79.4951 3.80389 77.4221 3.80389C76.3283 3.80389 74.6162 4.39982 74.3163 4.88521C74.0279 5.35211 73.6314 5.12724 73.0112 4.14532C72.2419 2.92782 70.9473 1.73908 69.6941 1.09969C68.6685 0.576415 66.4417 0.335725 65.499 0.646171ZM41.6334 4.40673C45.737 7.41335 44.1422 16.9429 39.5356 16.9429C37.8493 16.9429 36.564 15.6993 35.8373 13.3642C34.4453 8.89181 36.9246 3.48275 40.1848 3.87855C40.6647 3.93672 41.3165 4.17429 41.6334 4.40673ZM68.9567 4.56162C71.1082 6.20255 72.0772 10.1978 71.0917 13.3642C70.3649 15.6993 69.0797 16.9429 67.3933 16.9429C65.2429 16.9429 63.5095 14.7803 63.0197 11.4861C62.3936 7.27718 64.5055 3.56521 67.3458 3.88256C67.8103 3.93427 68.535 4.24003 68.9567 4.56162ZM30.7752 7.74987C31.7224 8.76545 31.9367 9.38545 31.9276 11.0812C31.9209 12.3279 31.7992 12.918 31.3816 13.7292C30.2591 15.9093 28.4684 16.0107 27.4102 13.9543C26.0871 11.3832 27.3931 7.137 29.5069 7.137C29.9798 7.137 30.3872 7.33401 30.7752 7.74987ZM78.7057 7.74987C80.124 9.23079 80.4884 12.07 79.5054 13.9806C78.4608 16.01 76.663 15.8959 75.5474 13.7292C74.9233 12.5173 74.7807 9.87775 75.2875 8.91989C75.864 7.82988 76.6937 7.137 77.4221 7.137C77.8912 7.137 78.3104 7.33713 78.7057 7.74987ZM22.7058 11.779C24.8293 13.9024 23.6757 19.3944 21.1064 19.3944C18.5947 19.3944 17.7833 14.1828 19.9392 11.8969C20.857 10.9236 21.8099 10.8831 22.7058 11.779ZM86.9897 11.8969C89.1457 14.1828 88.3342 19.3944 85.8226 19.3944C83.7386 19.3944 82.3504 15.3949 83.5316 12.7939C84.3459 11.0003 85.7907 10.6257 86.9897 11.8969ZM14.4462 15.7366C16.2284 17.2362 16.0853 21.4855 14.1992 23.0725C13.4386 23.7125 12.7693 23.7774 12.0589 23.2797C10.1316 21.9299 10.1284 17.3365 12.054 15.7163C12.8977 15.0062 13.5852 15.012 14.4462 15.7366ZM94.875 15.7163C96.7258 17.2738 96.7842 21.7618 94.9722 23.1872C94.22 23.7789 93.5271 23.7435 92.7297 23.0725C90.8437 21.4855 90.7006 17.2362 92.4828 15.7366C93.3437 15.012 94.0312 15.0062 94.875 15.7163ZM7.08393 22.2098C8.25284 23.0283 8.78414 25.6356 8.20604 27.7169C7.85169 28.9932 6.68568 30.1659 5.7715 30.1659C4.27588 30.1659 3.16447 28.0483 3.38288 25.6149C3.63449 22.8128 5.49761 21.0986 7.08393 22.2098ZM102.105 22.3725C102.948 23.1529 103.421 24.2171 103.546 25.6149C103.865 29.1706 101.563 31.4131 99.6904 29.3699C98.8375 28.4392 98.4836 27.3392 98.4887 25.6345C98.4972 22.7212 100.517 20.9 102.105 22.3725ZM31.2051 24.1099C30.4231 24.2218 28.668 24.6708 27.305 25.1076C17.3968 28.283 8.26175 36.2759 5.3162 44.3468C4.32112 47.0733 3.9748 49.0338 3.97279 51.9528C3.96967 56.4502 4.77598 60.461 7.20183 68.0151C9.07921 73.8614 9.43623 75.3787 10.2608 81.0135C10.3865 81.8726 10.5688 86.9882 10.6658 92.3814C10.8625 103.32 10.881 103.465 12.4897 106.564C14.9578 111.319 19.4621 114.137 25.1484 114.484C31.2726 114.858 37.5266 110.814 40.0311 104.862C40.6586 103.37 41.2071 100.62 41.2071 98.9652C41.2071 97.3566 40.7467 96.7272 39.5702 96.7272C38.4129 96.7272 38.0641 97.2969 37.8359 99.5602C37.5861 102.038 36.9534 103.949 35.823 105.642C33.3947 109.278 29.1641 111.438 25.0497 111.141C20.0837 110.783 16.1484 107.787 14.6498 103.224C14.1919 101.829 14.1542 101.179 14.01 92.1586C13.8016 79.1439 13.4555 76.7834 10.2508 66.5133C7.73045 58.437 6.98833 54.2378 7.35828 50.1492C7.93081 43.8246 12.2149 37.6509 19.5376 32.5978C23.1752 30.0875 28.1702 27.9904 31.9091 27.4033C37.6202 26.507 42.3852 29.9823 43.9857 36.2115C44.4203 37.9023 44.4248 41.2123 43.9947 42.8632C43.4954 44.7798 42.9595 45.7029 38.4109 52.4786C31.3963 62.9272 29.8432 67.1038 30.1345 74.7364C30.3391 80.1007 31.0384 82.3743 34.0325 87.4087C35.0029 89.0405 36.0365 90.8232 36.3291 91.3701C36.6217 91.9172 37.137 92.5189 37.4742 92.7073C38.0255 93.0155 38.1486 93.0157 38.6999 92.7077C39.0369 92.5194 39.4432 92.0939 39.6027 91.7623C39.9762 90.9852 39.6631 90.2571 37.2047 86.1834C34.9674 82.4761 34.1923 80.6694 33.7493 78.1283C33.3537 75.8598 33.3009 71.7748 33.6425 69.8577C34.4836 65.1384 35.9182 62.2074 41.3524 54.1052C43.7573 50.5198 45.9721 47.0347 46.2743 46.3606C48.2941 41.8561 48.1305 36.341 45.8382 31.6517C44.5855 29.0893 42.0649 26.5166 39.6391 25.3247C37.0525 24.054 34.3343 23.6624 31.2051 24.1099ZM70.6417 24.1912C68.0543 24.6597 65.9362 25.8248 63.8028 27.9536C62.3629 29.3904 61.8093 30.1427 61.0816 31.6517C58.7975 36.3889 58.6386 41.8644 60.6546 46.3606C60.9568 47.0347 63.1534 50.4947 65.536 54.0493C71.003 62.2062 72.448 65.154 73.2864 69.8577C73.6281 71.7748 73.5752 75.8598 73.1797 78.1283C72.7328 80.6906 71.9773 82.4383 69.6226 86.3568C66.6465 91.3092 65.733 94.0689 65.7256 98.1295C65.7167 103.238 67.3077 107.077 70.777 110.317C73.8625 113.198 77.8849 114.722 81.7806 114.484C87.4666 114.137 91.9711 111.319 94.4393 106.564C95.6236 104.282 96.0232 102.686 96.1827 99.6001C96.3089 97.1593 96.2895 96.9857 95.8395 96.5358C95.1444 95.8407 93.9646 95.8935 93.3729 96.6459C93.005 97.1134 92.91 97.5558 92.9071 98.8188C92.8984 102.351 91.7329 105.457 89.6012 107.626C85.1313 112.175 78.0548 112.374 73.2425 108.085C70.5492 105.684 69.3059 102.956 69.1218 99.0443C68.9326 95.0192 69.6808 92.6047 72.5599 87.9503C74.0546 85.5338 75.3354 82.9894 75.8264 81.4612C76.9262 78.0381 77.1896 72.4253 76.4259 68.6817C75.3637 63.4745 73.9352 60.5477 68.5181 52.4786C63.9695 45.7029 63.4335 44.7798 62.9343 42.8632C62.5042 41.2123 62.5086 37.9023 62.9432 36.2115C64.5429 29.9863 69.2542 26.5386 74.9951 27.3926C81.3435 28.3367 89.4644 33.0544 94.1465 38.5183C98.9739 44.1514 100.431 49.2674 99.268 56.5048C98.7327 59.8381 98.4024 61.1044 96.7227 66.2659C94.0575 74.4556 93.1899 79.2206 92.978 86.8337C92.8498 91.4325 92.8576 91.5481 93.3248 92.0153C94.0007 92.6912 95.1999 92.6582 95.7582 91.9484C96.1371 91.4668 96.2019 90.882 96.3207 86.8783C96.5311 79.78 97.7474 73.2232 100.029 66.8879C102.533 59.9351 103.536 52.6174 102.631 47.8994C101.346 41.2049 96.4499 34.674 88.9233 29.6159C84.8222 26.8598 79.4071 24.639 75.456 24.0927C73.3248 23.7979 72.7498 23.8097 70.6417 24.1912Z" fill="#3B4040"/>
</svg>
