<svg width="114" height="115" viewBox="0 0 114 115" fill="none" xmlns="http://www.w3.org/2000/svg">
<path d="M47.7851 78.9405L55.1933 64.9956L59.5511 61.5094L66.0877 63.6882L70.8813 66.7387L70.4455 73.2753L52.5786 99.422L48.2208 101.165L44.7346 99.8578L42.5557 97.6789L41.2484 92.8853L42.9915 88.0918L47.7851 78.9405Z" fill="#DFEAEB"/>
<path d="M42.9915 32.748L36.8906 42.7709L42.9915 47.1287L48.6566 36.67L42.9915 32.748Z" fill="#DFEAEB"/>
<path fill-rule="evenodd" clip-rule="evenodd" d="M44.0144 107.907C45.8014 108.5 48.9603 108.675 50.8259 108.285C53.5178 107.721 55.9514 106.404 57.8414 104.489C58.383 103.94 61.958 98.8477 67.498 90.7347C76.9853 76.8411 77.1167 76.6234 77.6406 73.9324C78.246 70.8217 77.5682 66.9114 75.9991 64.4635C75.2367 63.2739 75.2094 63.1644 75.5043 62.4724C76.1228 61.0211 81.4375 51.1781 83.962 46.8082C86.423 42.5488 86.5376 42.3129 86.4474 41.6878C86.3215 40.8121 85.4892 40.3154 84.5979 40.5842L83.9552 40.7781L79.5002 48.7565C77.05 53.1447 74.5819 57.6473 74.0154 58.7624L72.9857 60.79L69.1955 58.6017L65.4051 56.4134L66.1348 55.3526C69.5649 50.364 77.5305 36.4815 80.7283 29.9187C84.4448 22.2913 84.677 21.955 86.6238 21.389C88.0758 20.9667 89.1243 21.1 90.4895 21.8807C91.5022 22.4597 91.7739 22.7158 92.2308 23.5215C92.5286 24.0466 92.8185 24.9224 92.875 25.4676C93.0486 27.1415 92.8322 27.6229 90.0555 31.7439C86.7877 36.5936 86.4116 37.2529 86.5929 37.8117C86.8605 38.6364 87.4341 39.0045 88.2203 38.856L88.9403 38.7199L91.7687 34.5607C95.2261 29.4767 95.6667 28.5977 95.8035 26.5131C96.2319 19.9787 89.0105 15.8713 83.6381 19.5939C82.0366 20.7035 81.4089 21.719 78.0092 28.6993C75.5174 33.815 74.8251 35.0686 69.9925 43.2153C67.0834 48.1194 64.1749 52.9319 63.5292 53.9093L62.3552 55.6869L61.0923 55.6441C59.4605 55.5887 57.4808 55.9203 55.8598 56.5207C53.2816 57.4755 50.4439 59.8452 49.1078 62.1594C47.8985 64.254 35.8996 89.3693 35.4014 90.8488C34.2173 94.3653 34.6037 98.392 36.4449 101.721C37.9217 104.391 40.9981 106.905 44.0144 107.907ZM16.5278 89.8657C17.4185 89.8892 20.2271 88.7881 21.6787 87.8466L22.5007 87.3134L44.744 48.7867C66.9035 10.4055 66.9881 10.2557 67.1771 9.12425C67.6653 6.20345 65.7266 3.35587 62.8081 2.70668C61.3241 2.37663 59.4791 2.75608 58.2392 3.64656L57.31 4.31373L43.424 28.365C29.9075 51.7763 29.5412 52.4309 29.6559 52.9643C29.7937 53.6045 30.6212 54.16 31.3245 54.0843C31.7643 54.037 31.9729 53.7413 34.383 49.7509L36.9696 45.4683L39.3483 46.7783L41.7271 48.0883L30.9881 66.6905L20.249 85.2926L18.4673 86.145C16.249 87.2062 15.9576 87.1082 15.745 85.2298C15.4095 82.2637 14.6481 83.9359 22.6275 70.1135C29.585 58.0613 29.693 57.8619 29.5311 57.3596C29.3058 56.6602 28.461 56.2125 27.7341 56.4071L27.1422 56.5659L19.8636 69.1729C11.5917 83.5002 12.376 81.7338 12.7474 85.2005C13.0075 87.6289 13.3486 88.3389 14.6631 89.1865C15.443 89.6894 15.8801 89.8486 16.5278 89.8657ZM41.3384 103.037C38.3263 100.485 36.9691 95.8384 38.1321 92.0598C38.3418 91.3788 41.451 84.7195 45.0413 77.2616C52.3926 61.991 52.2962 62.1584 54.714 60.4905C57.2857 58.7166 60.6985 58.1777 63.6809 59.0744C65.1742 59.5237 70.2247 62.3733 71.437 63.4507C73.6301 65.4003 75.0119 68.7096 74.8753 71.6854C74.7835 73.6851 74.3702 75.0277 73.2961 76.8158C71.6962 79.4796 56.3388 101.785 55.6041 102.513C51.7397 106.339 45.5049 106.568 41.3384 103.037ZM45.9893 103.094C47.8882 103.602 50.0329 103.402 51.8171 102.552C53.8413 101.588 53.8878 101.529 62.5862 88.7936C71.7543 75.3712 72.2679 74.5552 72.5744 72.922C73.1091 70.0751 72.2532 67.3777 70.1604 65.3139C68.9958 64.1657 64.4186 61.531 62.8254 61.0921C59.6986 60.2305 56.3318 61.3001 54.2626 63.8119C53.5879 64.6309 52.3961 66.9953 46.9769 78.2651C43.4135 85.6759 40.3775 92.1192 40.2302 92.5837C39.2862 95.5619 40.2884 99.1456 42.6627 101.283C43.7012 102.217 44.6589 102.739 45.9893 103.094ZM44.2291 98.6626C43.222 97.6001 42.6305 95.4858 42.9396 94.0536C43.0922 93.3469 45.0969 89.0202 49.6588 79.5513C56.0368 66.3135 56.1772 66.0403 57.029 65.2237C57.7033 64.5772 58.2076 64.3079 59.2864 64.019C61.2882 63.4826 62.2254 63.749 65.6432 65.826C68.1307 67.3378 68.3294 67.4948 68.9027 68.4006C70.0618 70.2321 70.064 72.0486 68.9093 74.0551C68.5031 74.7611 64.5716 80.6091 60.1731 87.0506C54.1955 95.8043 52.0109 98.888 51.5238 99.2593C50.5402 100.009 49.483 100.383 48.3271 100.391C46.556 100.403 45.4264 99.9262 44.2291 98.6626ZM40.4528 39.328L42.4985 35.8919L44.8773 37.2019L47.2561 38.5119L45.2293 42.0223L43.2026 45.5328L40.8049 44.1485L38.4074 42.7643L40.4528 39.328ZM51.7572 19.7475C59.0239 7.26159 59.6232 6.28082 60.2017 5.92834C61.9588 4.85808 64.1099 6.05623 64.249 8.18274L64.3017 8.98793L56.5166 22.4722L48.7315 35.9564L46.3335 34.5719L43.9353 33.1873L51.7572 19.7475ZM87.3791 28.1503C87.8826 28.2362 88.7405 27.8719 88.9698 27.4747C89.059 27.3202 89.0895 26.899 89.0376 26.5386C88.8523 25.2506 87.0583 24.8616 86.418 25.9706C85.8774 26.9071 86.3479 27.974 87.3791 28.1503Z" fill="#3B4040"/>
</svg>
