<?xml version="1.0" encoding="UTF-8"?>
<svg xmlns="http://www.w3.org/2000/svg" width="80" height="77" viewBox="0 0 80 77" fill="none">
  <path fill-rule="evenodd" clip-rule="evenodd" d="M56.2378 0.146234L56.2378 0.146239C53.8568 0.410711 50.9304 1.36578 48.6762 2.6237C45.509 4.39113 42.9646 6.86251 41.1402 9.91688C41.1378 9.92097 41.1353 9.92506 41.1329 9.92915C40.8661 10.3765 40.6147 10.8364 40.3791 11.3083C39.4387 13.1922 38.749 15.2689 38.3296 17.5144C38.2049 18.182 38.1236 19.5647 38.1111 21.0176C38.1064 21.5633 38.1116 22.0967 38.1258 22.584C38.1495 23.3962 38.1984 24.0805 38.2685 24.481C38.2685 24.481 38.2685 24.481 38.2685 24.4811C38.7632 27.309 39.6322 29.8007 40.9136 32.075C41.1768 32.5422 41.4574 33.0002 41.7557 33.45L41.7557 33.4501C41.9543 33.7496 43.0537 35.1393 44.6675 37.1376C46.257 39.1057 48.2953 41.6032 50.3205 44.0678C52.3457 46.5324 54.3559 48.9619 55.8891 50.7941C56.6561 51.7106 57.3015 52.475 57.7691 53.0188C58.0034 53.2914 58.1893 53.5043 58.322 53.6518C58.3463 53.6788 58.3682 53.7029 58.3877 53.7242C58.3992 53.7367 58.4099 53.7483 58.4197 53.7589C58.4414 53.7653 58.471 53.7729 58.5097 53.7806C58.6267 53.8041 58.7763 53.8188 58.9375 53.8189C59.0988 53.819 59.2483 53.8044 59.3651 53.7811C59.4033 53.7735 59.4325 53.766 59.454 53.7598C59.4805 53.7312 59.5128 53.6958 59.5514 53.653C59.6841 53.5055 59.87 53.2926 60.1043 53.02C60.5719 52.4761 61.2174 51.7115 61.9845 50.7948C63.518 48.9624 65.5287 46.5324 67.5543 44.0673C69.5799 41.6024 71.6186 39.1045 73.2082 37.1364C74.8222 35.1381 75.9215 33.7487 76.1196 33.45C77.87 30.8104 79.0104 27.8901 79.6068 24.4811C79.7202 23.8333 79.778 22.4659 79.7645 21.0094C79.7511 19.556 79.6682 18.1674 79.5407 17.4819L79.5407 17.4819C78.5798 12.313 76.1005 7.94388 72.4141 4.84671C68.0048 1.1422 62.3019 -0.527597 56.2378 0.146234ZM59.3747 53.8419C59.3748 53.8416 59.3783 53.8381 59.3849 53.8322C59.3792 53.8378 59.376 53.8408 59.375 53.8416C59.3748 53.8418 59.3747 53.8419 59.3747 53.8419ZM58.4987 53.8406C58.4987 53.8408 58.4955 53.8379 58.4885 53.831C58.495 53.8369 58.4986 53.8404 58.4987 53.8406ZM50.6563 25.2962C51.0513 25.9686 51.5324 26.5944 52.0944 27.1553L52.0944 27.1554C52.9885 28.0475 53.9217 28.7228 54.935 29.1969C54.935 29.1969 54.9351 29.1969 54.9351 29.1969C55.9906 29.6908 57.1331 29.9663 58.4088 30.0412C63.8489 30.3606 68.532 25.9398 68.532 20.4883C68.532 16.0343 65.2952 12.0336 60.9416 11.1113C55.7963 10.0212 50.6484 13.3499 49.5607 18.4843C49.1057 20.6318 49.4053 22.8439 50.3572 24.7455C50.4507 24.9321 50.5504 25.1159 50.6563 25.2962ZM48.8404 43.8409C46.8904 41.4641 44.9774 39.1165 43.5155 37.3022C43.192 40.8624 42.8269 44.8731 42.4415 49.1022C41.1249 63.5502 40.0651 75.3911 40.0868 75.4153C40.1083 75.4394 42.0867 74.08 44.4832 72.3942L48.8404 69.3292V45.9088V43.8409ZM37.2834 24.6534C37.1994 24.1731 37.1466 23.3939 37.1233 22.5083C34.1947 22.4937 29.9954 22.4884 24.093 22.4884H4.99928L4.8465 22.7739C4.76238 22.931 3.6024 35.0622 2.26868 49.732C-0.0799568 75.5661 -0.148353 76.4131 0.0939293 76.6807C0.341727 76.9547 0.506926 76.9571 19.3183 76.9571H38.2929L40.7458 49.8951C41.2245 44.6142 41.6719 39.6643 42.0499 35.4709C41.4509 34.7151 41.0497 34.1947 40.9223 34.0027C39.0894 31.2386 37.9016 28.1869 37.2834 24.6534ZM37.1129 20.8336C37.1301 19.4495 37.2085 18.0859 37.3431 17.3496C36.3705 12.9564 33.1718 9.59303 28.6303 8.34608C27.6898 8.08794 24.6992 7.96356 23.7201 8.14186C19.5821 8.89532 16.0066 11.829 14.5734 15.6467C14.1263 16.8375 13.8671 18.0786 13.742 19.627L13.6444 20.8336H14.4044C15.2514 20.8336 15.3318 20.7506 15.3318 19.8751C15.3318 19.5879 15.4267 18.8086 15.5428 18.1433C16.3326 13.614 19.9645 10.1856 24.5011 9.68712C25.6065 9.56563 27.8077 9.68353 27.9986 9.87438C28.047 9.92278 27.9005 10.0949 27.6732 10.2569C26.7657 10.9034 25.4703 12.2729 24.7774 13.3183C23.5691 15.1416 23.0527 16.6335 22.7866 19.0701C22.7707 19.2148 22.7558 19.3477 22.742 19.4698C22.647 20.3143 22.6104 20.64 22.7511 20.7635C22.8395 20.841 22.9978 20.8389 23.2556 20.8353C23.3149 20.8345 23.3796 20.8336 23.4498 20.8336H24.2594L24.3586 19.5661C24.5451 17.1812 25.2179 15.3534 26.5725 13.5514C27.2898 12.5973 28.5044 11.5483 29.5528 10.9777L30.2273 10.6106L31.0188 11.0579C32.0105 11.6185 34.0048 13.6145 34.6185 14.6613C35.4342 16.0521 35.9051 17.6682 35.9848 19.3499L36.0551 20.8336H36.8837H37.1129ZM39.5133 10.8043C39.7501 10.3334 40.002 9.87381 40.2687 9.42599C39.3634 8.95053 38.3937 8.54041 37.6709 8.35422C36.7184 8.10877 33.6123 7.95556 32.9321 8.12049C32.542 8.21495 32.5491 8.22432 33.5072 8.8785C34.4122 9.49613 34.5594 9.54922 35.695 9.66754C37.2283 9.82736 38.155 10.1005 39.4635 10.7783L39.5133 10.8043ZM57.2247 53.9185C56.0284 52.5399 53.2721 49.2275 50.3572 45.6867V45.9003V69.312L54.7354 72.4981C57.1433 74.2505 59.1285 75.6137 59.1467 75.5276C59.163 75.4513 58.3303 66.0995 57.2247 53.9185ZM52.8008 26.4475C51.7027 25.3517 50.9492 23.9741 50.591 22.4884H52.202C53.6989 22.4884 54.08 22.5286 54.2238 22.7018C54.2789 22.7682 54.4722 24.4851 54.8193 28.0125C54.1158 27.614 53.4506 27.0958 52.8008 26.4475ZM45.2289 73.8271L40.8779 76.8881L45.2139 76.9245C47.5986 76.9445 51.4637 76.9445 53.8028 76.9245L58.0559 76.8881L53.9818 73.9234C51.7412 72.2928 49.8339 70.9153 49.7439 70.8624C49.6476 70.8058 47.7811 72.0316 45.2289 73.8271Z" fill="#F2FAFA"></path>
</svg>
