<svg width="67" height="70" viewBox="0 0 67 70" fill="none" xmlns="http://www.w3.org/2000/svg">
<g clip-path="url(#clip0_297_3106)">
<path d="M50.0674 0H31.9167C31.9167 0 32.227 3.95698 31.6312 13.6605C31.0354 23.3641 29.2107 33.334 26.3558 40.1116C23.5008 46.8892 22.0113 53.3325 21.7382 57.051C21.4651 60.7696 21.8747 63.5531 17.9895 64.8319C14.1043 66.1106 14.1881 65.4697 13.3937 66.1942C12.5993 66.9187 13.9429 68.6309 17.3596 68.2625C20.7762 67.894 21.912 68.3213 23.1533 68.2625C24.3945 68.2036 26.6164 68.3151 28.8632 60.9832C30.4644 55.7568 34.5358 56.0633 37.4559 54.4812C40.376 52.899 41.5646 49.2671 38.5638 46.431C35.563 43.5948 35.8981 40.7525 40.4909 32.4175C45.0836 24.0824 50.0208 11.0566 50.0674 0Z" fill="#F0B186"/>
<path d="M36.0796 26.8876C28.4767 41.7495 36.8833 46.366 37.7615 50.0598C38.95 55.0633 28.6288 52.9207 25.4511 62.649C23.6605 68.1386 14.8195 66.9342 13.33 66.284C12.728 67.0488 14.0903 68.6185 17.3641 68.2625C20.7777 67.894 21.9165 68.3213 23.1578 68.2625C24.3991 68.2036 26.621 68.3151 28.8677 60.9832C30.469 55.7568 34.5404 56.0633 37.4605 54.4812C40.3806 52.899 41.5692 49.2671 38.5684 46.431C35.5676 43.5948 35.9027 40.7525 40.4954 32.4175C45.0882 24.0824 50.0192 11.0566 50.0657 0H42.286C42.286 0 43.6824 12.0257 36.0796 26.8876Z" fill="#ECAA7E"/>
<path d="M39.6498 28.0487C31.8142 42.1365 35.7987 44.8209 37.1951 46.6013C38.5916 48.3816 42.1075 52.577 32.9003 55.4782C26.337 57.5464 27.1594 66.5193 22.7373 66.8289C18.3152 67.1385 15.2493 68.1231 13.2539 66.9744C13.5456 67.7175 14.9234 68.5226 17.375 68.2625C20.7885 67.894 21.9274 68.3213 23.1686 68.2625C24.4099 68.2036 26.6318 68.3151 28.8785 60.9832C30.4798 55.7568 34.5512 56.0633 37.4713 54.4812C40.3914 52.899 41.58 49.2671 38.5792 46.431C35.5784 43.5948 35.9135 40.7525 40.5063 32.4175C45.099 24.0824 50.0207 11.0566 50.0672 0H46.3217C46.3217 0 47.4854 13.9609 39.6498 28.0487Z" fill="#E7A376"/>
<path d="M42.2068 28.0766C38.4209 35.5663 36.5807 39.3685 36.2611 41.9043C35.9942 44.0035 36.9159 45.2389 38.1478 46.5765C39.9322 48.5117 39.8577 49.7873 39.6994 50.9886C39.5629 52.0754 39.1129 53.1095 37.4403 54.057C33.9182 56.0572 30.6784 55.5277 28.7761 59.7479C26.8739 63.968 27.2245 67.6866 23.1904 67.8538C21.4991 67.9219 20.2827 67.4234 17.1515 67.99C15.572 68.278 13.6977 67.6804 13.2539 66.9744C13.5456 67.7175 14.9234 68.5226 17.375 68.2625C20.7885 67.894 21.9274 68.3213 23.1686 68.2625C24.4099 68.2036 26.6318 68.3151 28.8786 60.9832C30.4798 55.7568 34.5512 56.0633 37.4713 54.4812C40.3914 52.899 41.58 49.2671 38.5792 46.431C35.5784 43.5948 35.9135 40.7525 40.5063 32.4175C45.099 24.0824 50.0176 11.0566 50.0641 0H49.3969C49.3969 0 50.0641 12.5428 42.2068 28.0766Z" fill="#D88E5E"/>
<path d="M31.6305 13.6605C31.0564 22.9121 29.3714 32.433 26.7461 39.1765C27.1061 38.7616 27.4722 38.3344 27.857 37.8792C41.6663 21.5466 39.4165 0 39.4165 0H31.916C31.916 0 32.2326 3.95698 31.6305 13.6605Z" fill="url(#paint0_linear_297_3106)"/>
<path d="M30.28 28.606C27.8564 37.8947 28.4181 36.2289 26.9844 40.5574C26.9844 40.5574 33.1598 26.7328 34.0131 14.5027C34.3929 9.67251 34.3244 4.81761 33.8083 0L32.4491 0C32.3312 6.36274 32.8277 18.8374 30.28 28.606Z" fill="#F6C3A2"/>
<path fill-rule="evenodd" clip-rule="evenodd" d="M26.4864 41.4398C26.4864 41.4398 23.5074 47.6849 22.6943 53.5151C21.8813 59.3453 21.7789 62.7542 20.5376 63.8874C19.2963 65.0207 24.2614 61.9275 28.4508 54.5988C32.6401 47.27 29.5369 39.1176 26.4864 41.4398Z" fill="url(#paint1_linear_297_3106)"/>
<path fill-rule="evenodd" clip-rule="evenodd" d="M26.4878 41.4398C26.4878 41.4398 23.3318 48.7345 22.795 52.8773C22.2581 57.02 21.864 62.4756 21.0944 63.0948C20.7841 63.3487 21.6034 63.1815 22.466 60.8779C23.065 59.2834 23.7601 57.6052 23.7601 54.5709C23.804 52.6468 24.0854 50.7355 24.5979 48.88C25.5041 45.2637 26.4878 41.4398 26.4878 41.4398Z" fill="#F6C3A2"/>
<path fill-rule="evenodd" clip-rule="evenodd" d="M15.8268 65.4325C15.1637 65.5299 14.5068 65.6653 13.8594 65.8381C13.8603 65.9571 13.8912 66.0738 13.9492 66.1777C14.0073 66.2816 14.0905 66.3693 14.1914 66.4326C14.6476 66.6153 15.864 66.284 16.1309 65.9124C16.1961 65.8041 16.0502 65.4139 15.8268 65.4325Z" fill="#FFD2B4"/>
<path fill-rule="evenodd" clip-rule="evenodd" d="M14.1356 65.7762L13.8594 65.8382C13.8603 65.9571 13.8912 66.0739 13.9492 66.1778C14.0073 66.2816 14.0905 66.3693 14.1914 66.4326C14.2621 66.4592 14.3364 66.4748 14.4117 66.4791C14.2614 66.272 14.1664 66.0301 14.1356 65.7762Z" fill="#FFF3EC"/>
<path fill-rule="evenodd" clip-rule="evenodd" d="M62.7425 41.8733C59.6392 40.6565 56.806 39.706 58.1156 21.9677C58.6525 14.6423 58.4352 7.2812 57.467 0L37.9727 0C37.9727 0 38.5281 5.01588 41.169 12.3601C43.8098 19.7044 47.4778 26.4325 48.8339 37.1052C50.19 47.7778 50.9751 52.8959 51.8005 56.2213C52.626 59.5466 54.3793 63.1413 51.3971 65.3675C48.4149 67.5937 46.2955 66.1106 46.0565 68.117C45.9541 69.0303 46.8633 69.3554 48.0395 69.4174C48.3498 69.823 49.3894 69.7734 49.9479 69.696H50.0131C50.46 70.0056 51.3258 69.9499 51.9712 69.7301L52.0085 69.7146C52.3871 69.9871 53.2994 70.0954 53.9945 69.8415C54.4321 70.1512 56.055 69.8415 56.8588 69.47H57.076C60.775 69.47 60.2599 61.4198 61.1815 57.661C62.5625 52.0197 67 51.6667 67 47.9017C67 45.1368 65.8674 43.0933 62.7425 41.8733Z" fill="#F0B186"/>
<path fill-rule="evenodd" clip-rule="evenodd" d="M48.7562 66.6277C47.9884 66.6335 47.2304 66.8002 46.5312 67.1169C46.5545 67.2332 46.6064 67.3419 46.6822 67.4333C46.7581 67.5246 46.8555 67.5957 46.9657 67.6402C47.4529 67.733 48.5452 67.2872 48.7656 66.8878C48.7797 66.8013 48.7765 66.7129 48.7562 66.6277Z" fill="#FFD2B4"/>
<path fill-rule="evenodd" clip-rule="evenodd" d="M46.7888 67.0023L46.5312 67.1169C46.5545 67.2332 46.6064 67.3419 46.6822 67.4333C46.7581 67.5246 46.8555 67.5957 46.9657 67.6401C47.0408 67.6511 47.1171 67.6511 47.1922 67.6401C47.0056 67.4652 46.8667 67.2457 46.7888 67.0023Z" fill="#FFF3EC"/>
<path d="M51.4452 68.117C51.3055 68.1899 51.186 68.2963 51.0977 68.4266C51.4111 68.1882 51.6655 67.9993 51.4452 68.117Z" fill="#ECAA7E"/>
<path d="M49.3008 67.9249L49.999 67.5936C49.754 67.6762 49.5196 67.7874 49.3008 67.9249Z" fill="#ECAA7E"/>
<path d="M52.2953 17.3389C51.985 27.349 53.8903 39.223 57.0742 41.5947C60.2581 43.9664 62.719 43.5298 63.5692 45.8241C65.1705 50.1588 61.3598 50.744 60.5778 52.5739C58.9144 56.4535 58.421 56.7848 58.0548 65.4325C57.9493 67.8693 56.6956 69.1728 55.203 69.405C55.203 69.405 53.6514 69.4576 54.4117 68.8384C55.172 68.2191 53.4807 69.4576 53.0494 69.3771C52.618 69.2966 52.5746 68.8446 53.3287 68.2841C53.1211 68.4445 52.8838 68.5624 52.6304 68.6309C52.6304 68.6309 51.1285 69.5846 50.9299 69.2904C50.7933 69.0861 50.8833 68.6928 51.0975 68.4018C50.7871 68.6247 50.3868 68.8786 50.3868 68.8786C50.3868 68.8786 48.5683 69.4979 48.677 68.6495C48.7297 68.247 49.6793 67.7949 49.9989 67.5906L48.5497 68.2749C48.5497 68.2749 46.9981 68.9808 46.1323 67.7392C46.0927 67.8609 46.0667 67.9865 46.0547 68.1139C45.9523 69.0272 46.8616 69.3523 48.0377 69.4143C48.348 69.8199 49.3876 69.7703 49.9462 69.6929H50.0113C50.4582 70.0025 51.324 69.9468 51.9695 69.727L52.0067 69.7115C52.3853 69.984 53.2976 70.0923 53.9927 69.8384C54.4303 70.1481 56.0533 69.8384 56.857 69.4669H57.0742C60.7732 69.4669 60.2581 61.4167 61.1798 57.6579C62.5607 52.0166 66.9983 51.6636 66.9983 47.8986C66.9983 45.143 65.8656 43.0994 62.75 41.8795C59.6344 40.6596 56.8136 39.7122 58.1231 21.9739C58.6574 14.6461 58.437 7.28292 57.4652 0H50.0641C50.0641 0 52.6087 7.33186 52.2953 17.3389Z" fill="#ECAA7E"/>
<path d="M53.5058 68.1665C53.4437 68.2068 53.3848 68.247 53.332 68.2873L53.5058 68.1665Z" fill="#ECAA7E"/>
<path fill-rule="evenodd" clip-rule="evenodd" d="M55.4518 20.2772C54.5208 29.3646 56.2803 40.5234 60.5814 42.1706C65.2114 43.9447 66.4371 46.5239 64.7924 49.7718C63.337 52.642 60.5721 52.7937 59.517 59.915C58.4619 67.0364 59.2346 66.8413 56.9568 68.8941L57.4534 69.4267C60.749 68.9003 60.3021 61.2836 61.1772 57.6455C62.5581 52.0042 66.9957 51.6512 66.9957 47.8862C66.9957 45.1306 65.863 43.0871 62.7474 41.8672C59.6318 40.6472 56.811 39.6998 58.1205 21.9615C58.6561 14.638 58.4377 7.27905 57.4689 0L54.1484 0C54.1484 0 56.3827 11.1898 55.4518 20.2772Z" fill="#E7A376"/>
<path fill-rule="evenodd" clip-rule="evenodd" d="M56.9471 68.9003C56.2023 69.47 54.719 69.6279 54.4273 69.5691C54.3514 69.5582 54.2793 69.5295 54.2167 69.4854C54.1541 69.4412 54.1029 69.3829 54.0673 69.3152C54.4104 68.8334 54.8706 68.4466 55.4048 68.1912C55.4048 68.1912 54.1853 68.5968 53.7974 69.4297C53.4898 69.5797 53.1528 69.6601 52.8105 69.665C52.6935 69.6441 52.5821 69.5989 52.4837 69.5322C52.3854 69.4655 52.3022 69.3789 52.2395 69.278C52.7073 68.7096 53.2886 68.2446 53.9463 67.9126C53.9463 67.9126 52.6212 68.4296 51.9758 69.2687C51.7025 69.4054 51.4074 69.4934 51.1038 69.5288C50.9479 69.5524 50.7886 69.5385 50.6391 69.4884C50.4896 69.4384 50.3543 69.3535 50.2442 69.2409C50.5545 68.6619 51.3582 68.1169 52.1713 67.7206C52.1713 67.7206 50.5886 68.1448 50.0704 69.3121C48.4598 69.5753 48.1588 69.0025 48.1061 68.7857C48.4754 68.4235 49.2294 67.8816 50.7562 67.3274C50.7562 67.3274 48.615 67.9466 47.892 68.7021C47.5382 68.7517 46.5514 68.8012 46.1014 67.9157C46.0873 67.9821 46.077 68.0493 46.0704 68.1169C45.968 69.0303 46.8772 69.3554 48.0533 69.4173C48.3636 69.8229 49.4032 69.7734 49.9618 69.696H50.027C50.4738 70.0056 51.3396 69.9499 51.9851 69.7301L52.0223 69.7146C52.4009 69.9871 53.3133 70.0954 54.0084 69.8415C54.4459 70.1512 56.0689 69.8415 56.8726 69.47H57.0899C57.2009 69.4708 57.3119 69.4635 57.4219 69.4483L57.9526 69.1139C57.9526 69.1139 57.937 68.1448 56.9471 68.9003Z" fill="#E7A376"/>
<path fill-rule="evenodd" clip-rule="evenodd" d="M57.7756 19.0975C57.1549 28.541 57.189 34.8356 57.9214 37.0556C58.6538 39.2756 59.7399 41.5978 63.4637 42.7836C65.3846 43.4029 66.8773 45.6972 66.4521 48.4838C66.027 51.2704 63.2248 52.0166 61.8283 54.701C60.4319 57.3854 60.6336 58.9552 60.013 63.7915C59.3923 68.6278 58.1821 68.9529 57.0742 69.148C56.6296 69.3059 56.177 69.4403 55.7181 69.5505C55.1596 69.6651 54.0052 69.7641 54.0269 69.5133C54.0269 69.4328 53.7476 69.7827 53.1176 69.7827C52.7565 69.7926 52.4022 69.6838 52.1091 69.4731C51.7456 69.5692 51.3767 69.6436 51.0044 69.696C50.7251 69.696 50.2255 69.5412 50.1913 69.3864C50.1572 69.2316 49.971 69.6062 49.1797 69.5536C48.5994 69.5164 47.9136 69.2656 47.9725 68.9034C48.0315 68.5411 47.9446 69.2842 46.9609 68.9251C46.1447 68.6309 46.0547 68.1324 46.0547 68.1324C45.9523 69.0458 46.8616 69.3709 48.0377 69.4328C48.348 69.8384 49.3876 69.7889 49.9462 69.7115H50.0113C50.4582 70.0211 51.324 69.9654 51.9695 69.7456L52.0067 69.7301C52.3853 70.0026 53.2976 70.1109 53.9927 69.857C54.4303 70.1666 56.0533 69.857 56.857 69.4855H57.0742C60.7732 69.4855 60.2581 61.4353 61.1798 57.6765C62.5607 52.0352 66.9983 51.6822 66.9983 47.9172C66.9983 45.1615 65.8656 43.118 62.75 41.8981C59.6344 40.6782 56.8136 39.7308 58.1231 21.9925C58.6587 14.6585 58.4383 7.28905 57.4652 0L56.8446 0C56.8446 0 58.3962 9.65403 57.7756 19.0975Z" fill="#D88E5E"/>
<path fill-rule="evenodd" clip-rule="evenodd" d="M48.2031 68.6557C48.2031 68.7795 48.3924 69.0086 48.5134 68.9003C48.771 68.6835 49.0379 68.377 49.283 68.151C49.3699 68.0705 49.3513 67.9343 49.2582 67.959C48.8546 68.1014 48.4922 68.3406 48.2031 68.6557Z" fill="#FFD2B4"/>
<path fill-rule="evenodd" clip-rule="evenodd" d="M48.2031 68.6557C48.2031 68.7796 48.3924 69.0087 48.5134 68.9003L48.5755 68.8477C48.5067 68.8273 48.4455 68.787 48.3997 68.7319C48.3538 68.6768 48.3254 68.6093 48.3179 68.5381L48.2031 68.6557Z" fill="#FFF3EC"/>
<path fill-rule="evenodd" clip-rule="evenodd" d="M50.2969 69.1109C50.3279 69.2223 50.5451 69.5319 50.6413 69.4205C50.8059 69.1749 50.9433 68.9123 51.051 68.6371C51.0975 68.5381 51.023 68.4111 50.9734 68.4359C50.6846 68.5873 50.4486 68.8227 50.2969 69.1109Z" fill="#FFD2B4"/>
<path fill-rule="evenodd" clip-rule="evenodd" d="M50.2969 69.1108C50.3279 69.2223 50.5451 69.5319 50.6413 69.4204L50.6879 69.3585C50.5451 69.3585 50.3993 69.0675 50.3776 68.9932C50.3527 69.0241 50.331 69.0675 50.2969 69.1108Z" fill="#FFF3EC"/>
<path fill-rule="evenodd" clip-rule="evenodd" d="M52.8958 68.5721C52.6766 68.7485 52.4759 68.9467 52.2969 69.1635C52.3372 69.3121 52.5327 69.5815 52.6817 69.405C52.9454 69.0954 53.2371 68.7362 52.8958 68.5721Z" fill="#FFD2B4"/>
<path fill-rule="evenodd" clip-rule="evenodd" d="M52.3869 69.0458L52.2969 69.151C52.3434 69.3182 52.5265 69.569 52.6941 69.374C52.619 69.3502 52.5512 69.3075 52.4974 69.25C52.4436 69.1925 52.4055 69.1222 52.3869 69.0458Z" fill="#FFF3EC"/>
<path fill-rule="evenodd" clip-rule="evenodd" d="M54.1641 69.1759C54.2199 69.2966 54.3068 69.4515 54.4558 69.4515C54.5427 69.4515 54.7257 69.1821 54.8002 68.9808C54.8468 68.8601 54.8406 68.6248 54.6699 68.7084C54.4618 68.8154 54.2869 68.9771 54.1641 69.1759Z" fill="#FFD2B4"/>
<path fill-rule="evenodd" clip-rule="evenodd" d="M54.1641 69.1758C54.2199 69.2966 54.3068 69.4514 54.4558 69.4514C54.4837 69.4514 54.4992 69.4514 54.5427 69.4019C54.4718 69.3697 54.4088 69.3225 54.3579 69.2638C54.307 69.205 54.2695 69.1359 54.2478 69.0613L54.1641 69.1758Z" fill="#FFF3EC"/>
<path fill-rule="evenodd" clip-rule="evenodd" d="M41.169 12.3601C43.8129 19.7044 47.4778 26.4325 48.8339 37.1052C49.3552 41.2138 49.7928 44.4989 50.1807 47.1772C50.9565 45.2544 53.5197 37.6037 51.0899 25.5717C48.4894 12.6945 51.4313 13.159 47.5709 0H37.9727C37.9727 0 38.5374 5.01588 41.169 12.3601Z" fill="url(#paint2_linear_297_3106)"/>
<path fill-rule="evenodd" clip-rule="evenodd" d="M51.7603 65.0672L51.993 65.3768C51.993 65.3768 56.6013 63.8287 57.2033 55.0757C57.6316 48.8337 53.6843 42.7094 49.4453 41.7991C50.4476 49.3755 51.1148 53.4502 51.8069 56.2337C52.592 59.3856 54.2242 62.8255 51.7603 65.0672Z" fill="url(#paint3_linear_297_3106)"/>
<path fill-rule="evenodd" clip-rule="evenodd" d="M44.7986 19.5898C48.78 28.541 50.4713 46.4062 50.4713 46.4062C50.4713 46.4062 50.1423 31.6403 46.0492 17.2119C44.2928 11.0226 42.2633 2.84543 41.5837 0H38.4805C38.8218 1.50167 41.1306 11.3415 44.7986 19.5898Z" fill="#F6C3A2"/>
<path fill-rule="evenodd" clip-rule="evenodd" d="M50.1484 43.5082C50.1484 43.5082 51.6845 55.7259 52.9413 59.0079C53.9685 61.6799 53.2361 63.5469 53.0934 64.3024C53.053 64.5068 54.8312 61.9431 53.5371 56.8188C51.5325 48.8708 50.1484 43.5082 50.1484 43.5082Z" fill="#F6C3A2"/>
<path fill-rule="evenodd" clip-rule="evenodd" d="M57.2751 48.1866C55.7514 46.7561 56.8375 44.5237 55.0625 41.9539C59.407 44.1212 58.0974 47.3382 60.8127 47.0471C59.9873 48.6572 58.7057 49.5148 57.2751 48.1866Z" fill="url(#paint4_linear_297_3106)"/>
<path fill-rule="evenodd" clip-rule="evenodd" d="M57.276 48.1865C55.9572 46.948 56.5933 45.112 55.6406 42.9756C57.0867 45.112 56.7733 47.3103 58.8121 48.8336C58.5242 48.8446 58.2374 48.7923 57.972 48.6805C57.7065 48.5687 57.469 48.4 57.276 48.1865Z" fill="#F6C3A2"/>
</g>
<g clip-path="url(#clip1_297_3106)">
<path d="M16.5905 50.8349C25.7531 50.8349 33.181 43.4071 33.181 34.2444C33.181 25.0817 25.7531 17.6539 16.5905 17.6539C7.42781 17.6539 0 25.0817 0 34.2444C0 43.4071 7.42781 50.8349 16.5905 50.8349Z" fill="#2CC8CC"/>
<path opacity="0.55" d="M16.5899 49.3226C24.9174 49.3226 31.6681 42.5719 31.6681 34.2445C31.6681 25.917 24.9174 19.1663 16.5899 19.1663C8.26245 19.1663 1.51172 25.917 1.51172 34.2445C1.51172 42.5719 8.26245 49.3226 16.5899 49.3226Z" fill="white"/>
<path d="M16.5901 47.7837C24.0677 47.7837 30.1294 41.722 30.1294 34.2444C30.1294 26.7668 24.0677 20.7051 16.5901 20.7051C9.11254 20.7051 3.05078 26.7668 3.05078 34.2444C3.05078 41.722 9.11254 47.7837 16.5901 47.7837Z" fill="white"/>
<path d="M16.5817 21.2975H16.5551C16.3607 21.2975 16.2031 21.4551 16.2031 21.6495V23.4117C16.2031 23.6061 16.3607 23.7637 16.5551 23.7637H16.5817C16.7761 23.7637 16.9337 23.6061 16.9337 23.4117V21.6495C16.9337 21.4551 16.7761 21.2975 16.5817 21.2975Z" fill="#334040"/>
<path d="M16.6247 44.7251H16.5981C16.4037 44.7251 16.2461 44.8827 16.2461 45.0771V46.8393C16.2461 47.0337 16.4037 47.1913 16.5981 47.1913H16.6247C16.8191 47.1913 16.9767 47.0337 16.9767 46.8393V45.0771C16.9767 44.8827 16.8191 44.7251 16.6247 44.7251Z" fill="#334040"/>
<path d="M29.5391 34.2348V34.2082C29.5391 34.0138 29.3815 33.8562 29.187 33.8562H27.4248C27.2304 33.8562 27.0728 34.0138 27.0728 34.2082V34.2348C27.0728 34.4292 27.2304 34.5868 27.4248 34.5868H29.187C29.3815 34.5868 29.5391 34.4292 29.5391 34.2348Z" fill="#334040"/>
<path d="M6.10938 34.2806V34.254C6.10938 34.0596 5.95177 33.902 5.75736 33.902H3.99515C3.80074 33.902 3.64314 34.0596 3.64314 34.254V34.2806C3.64314 34.475 3.80074 34.6326 3.99515 34.6326H5.75736C5.95177 34.6326 6.10938 34.475 6.10938 34.2806Z" fill="#334040"/>
<path d="M25.4629 25.3567L25.4441 25.3379C25.3067 25.2003 25.0838 25.2003 24.9463 25.3377L24.3024 25.9812C24.1649 26.1186 24.1648 26.3415 24.3022 26.479L24.321 26.4978C24.4584 26.6353 24.6813 26.6354 24.8188 26.498L25.4628 25.8545C25.6003 25.7171 25.6004 25.4942 25.4629 25.3567Z" fill="#334040"/>
<path d="M9.00981 41.8732L8.99101 41.8543C8.85359 41.7168 8.63071 41.7167 8.49319 41.8542L7.70105 42.6458C7.56353 42.7832 7.56346 43.0061 7.70088 43.1436L7.71967 43.1624C7.8571 43.2999 8.07998 43.3 8.2175 43.1626L9.00963 42.371C9.14715 42.2336 9.14723 42.0107 9.00981 41.8732Z" fill="#334040"/>
<path d="M25.4783 43.1277L25.4971 43.1089C25.6346 42.9715 25.6347 42.7486 25.4973 42.6111L24.8538 41.9672C24.7164 41.8297 24.4935 41.8296 24.356 41.967L24.3371 41.9858C24.1996 42.1232 24.1996 42.3461 24.337 42.4836L24.9805 43.1276C25.1179 43.2651 25.3408 43.2651 25.4783 43.1277Z" fill="#334040"/>
<path d="M8.95876 26.6744L8.97756 26.6556C9.11508 26.5181 9.11516 26.2953 8.97774 26.1577L8.18615 25.3656C8.04873 25.2281 7.82585 25.228 7.68833 25.3654L7.66952 25.3842C7.532 25.5216 7.53193 25.7445 7.66935 25.882L8.46093 26.6742C8.59835 26.8117 8.82124 26.8118 8.95876 26.6744Z" fill="#334040"/>
<path d="M16.5987 25.1749H16.5679C16.3535 25.1749 16.1797 25.3487 16.1797 25.5631V34.0657C16.1797 34.2801 16.3535 34.4539 16.5679 34.4539H16.5987C16.8131 34.4539 16.9869 34.2801 16.9869 34.0657V25.5631C16.9869 25.3487 16.8131 25.1749 16.5987 25.1749Z" fill="#334040"/>
<path d="M22.8398 34.7719V34.7411C22.8398 34.5267 22.6661 34.3529 22.4517 34.3529H16.5716C16.3572 34.3529 16.1834 34.5267 16.1834 34.7411V34.7719C16.1834 34.9863 16.3572 35.1601 16.5716 35.1601H22.4517C22.6661 35.1601 22.8398 34.9863 22.8398 34.7719Z" fill="#334040"/>
<path d="M22.688 28.7557L16.6367 34.2019" stroke="#373449" stroke-miterlimit="10" stroke-linecap="round"/>
<path d="M16.5912 35.7067C17.3988 35.7067 18.0535 35.052 18.0535 34.2444C18.0535 33.4368 17.3988 32.7821 16.5912 32.7821C15.7836 32.7821 15.1289 33.4368 15.1289 34.2444C15.1289 35.052 15.7836 35.7067 16.5912 35.7067Z" fill="#2CC8CC"/>
</g>
<defs>
<linearGradient id="paint0_linear_297_3106" x1="37.629" y1="20.3081" x2="28.91" y2="18.9243" gradientUnits="userSpaceOnUse">
<stop stop-color="#F0B186"/>
<stop offset="1" stop-color="#F5BC95"/>
</linearGradient>
<linearGradient id="paint1_linear_297_3106" x1="29.6517" y1="53.4687" x2="22.2203" y2="52.29" gradientUnits="userSpaceOnUse">
<stop stop-color="#F0B186"/>
<stop offset="1" stop-color="#F5BC95"/>
</linearGradient>
<linearGradient id="paint2_linear_297_3106" x1="49.7835" y1="23.5901" x2="44.7656" y2="23.5901" gradientUnits="userSpaceOnUse">
<stop stop-color="#F0B186"/>
<stop offset="1" stop-color="#F5BC95"/>
</linearGradient>
<linearGradient id="paint3_linear_297_3106" x1="57.6967" y1="56.082" x2="45.8084" y2="51.7455" gradientUnits="userSpaceOnUse">
<stop stop-color="#F0B186"/>
<stop offset="1" stop-color="#F5BC95"/>
</linearGradient>
<linearGradient id="paint4_linear_297_3106" x1="57.363" y1="45.5019" x2="56.3016" y2="46.2167" gradientUnits="userSpaceOnUse">
<stop stop-color="#F0B186"/>
<stop offset="1" stop-color="#F5BC95"/>
</linearGradient>
<clipPath id="clip0_297_3106">
<rect width="53.8127" height="69.9778" fill="white" transform="translate(13.1875)"/>
</clipPath>
<clipPath id="clip1_297_3106">
<rect width="33.181" height="33.181" fill="white" transform="translate(0 17.6539)"/>
</clipPath>
</defs>
</svg>
