<?xml version="1.0" encoding="UTF-8"?>
<!-- Generator: Adobe Illustrator 25.4.1, SVG Export Plug-In . SVG Version: 6.00 Build 0)  -->
<svg xmlns="http://www.w3.org/2000/svg" xmlns:xlink="http://www.w3.org/1999/xlink" version="1.1" id="Layer_1" x="0px" y="0px" viewBox="0 0 84 84" style="enable-background:new 0 0 84 84;" xml:space="preserve">
<style type="text/css">
	.st0{fill:#DFEAEB;}
	.st1{fill:#F2FAFA;}
	.st2{fill:#FED27D;}
	.st3{fill-rule:evenodd;clip-rule:evenodd;}
</style>
<path class="st0" d="M6,0h72c3.3,0,6,2.7,6,6v72c0,3.3-2.7,6-6,6H6c-3.3,0-6-2.7-6-6V6C0,2.7,2.7,0,6,0z"></path>
<path class="st1" d="M28.5,32L27,30.5L22.5,38v46H62V46.5L60.5,36l-6-5.5V50l-2,6.5l-6.5,5h-7.5L33,58l-3-5.5L28.5,32z"></path>
<path class="st2" d="M54.8,52.5l-1.1-29.4c-2.9-2.9-18-6.6-26,3.9L30,52.5l3.3-2.9c5-4.4,12.4-4.5,17.5-0.3L54.8,52.5z"></path>
<path class="st3" d="M39.5,18.1c-4.2,0.5-7.6,2.1-9.6,4.6c-0.9,1.1-1.8,2.9-2.2,4.3c-0.3,1-0.3,1.1-1.1,1.9c-3,3.1-5,7.5-5.5,12.1  C21,41.8,21,49,21,62.5c0,22.5-0.1,20.9,0.8,21.3c0.5,0.3,0.8,0.3,1.3,0c0.8-0.4,0.8,1.3,0.9-21.7c0.1-19.1,0.1-21,0.3-22  c0.4-2.2,1.5-4.8,2.7-6.7l0.4-0.7v8.8c0,8.4,0.1,8.9,0.3,9.9c0.7,2.8,1.9,5.1,3.8,7.1c2.9,3,6.4,4.5,10.5,4.5s7.7-1.6,10.6-4.6  c1.9-2,3-4.2,3.7-7c0.3-1,0.3-1.5,0.3-9.9v-8.8l0.4,0.6c0.7,1,1.6,3.1,2.1,4.4C60,40.5,60,38.9,60,62.1c0.1,23,0,21.3,0.9,21.7  c0.5,0.2,0.7,0.2,1.3,0C63.1,83.4,63,85,63,62.5C63,49,63,41.8,62.9,41c-0.6-4.7-2.6-9-5.5-12.1c-0.8-0.8-0.8-0.9-1.1-1.9  c-0.6-2.3-2-4.6-3.8-5.9c-1.7-1.3-4.1-2.3-6.7-2.8C44.6,18,40.8,17.9,39.5,18.1z M44.8,21.2c1.6,0.2,2.9,0.6,4.4,1.3  c1.7,0.8,2.9,2,3.6,3.5c0.9,1.8,0.9,1.5,0.9,13.3v10.6l-0.3,1.2c-0.2,0.7-0.5,1.7-0.8,2.2c-0.5,1.1-0.4,1.1-1.5,0.2  c-1.4-1.2-3.6-2.3-5.8-2.8c-1.6-0.4-4.8-0.4-6.4,0c-2.2,0.6-4.4,1.6-5.8,2.8c-1.1,1-1,1-1.5-0.2c-0.3-0.6-0.6-1.6-0.8-2.2l-0.3-1.2  V39.3c0-11.8,0-11.5,0.9-13.3C33.1,22.2,38.2,20.4,44.8,21.2z M43.4,53.4c2.2,0.3,4.3,1.2,6,2.6l0.8,0.6L49.9,57  c-0.5,0.6-2.3,1.7-3.3,2.1C45,59.8,44,60,42.1,60s-2.9-0.2-4.5-0.9c-1-0.4-2.8-1.6-3.3-2.1L34,56.6l0.8-0.6c2-1.7,4.6-2.7,7.2-2.8  C42.1,53.3,42.8,53.4,43.4,53.4z"></path>
</svg>
