<svg width="31" height="53" viewBox="0 0 31 53" fill="none" xmlns="http://www.w3.org/2000/svg">
<path d="M28.7212 15.7682C28.7216 23.2844 22.6285 29.3776 15.1117 29.3776C7.59488 29.3776 1.50115 23.2844 1.50077 15.7682C1.50038 8.25195 7.5935 2.15869 15.1103 2.15869C22.6271 2.15869 28.7208 8.25195 28.7212 15.7682Z" fill="white" stroke="#2CC8CC" stroke-width="3"/>
<path d="M14.7264 23.4937C18.9931 23.4937 22.4518 20.035 22.4516 15.7684C22.4514 11.5019 18.9923 8.04321 14.7256 8.04321C10.4589 8.04321 7.00018 11.5019 7.00039 15.7684C7.00061 20.035 10.4596 23.4937 14.7264 23.4937Z" fill="#22A1A6"/>
<rect x="12" y="53" width="24" height="6" transform="rotate(-90 12 53)" fill="#2CC8CC"/>
</svg>
